<?xml version="1.0" encoding="utf-8" standalone="no"?>
<!DOCTYPE svg PUBLIC "-//W3C//DTD SVG 1.1//EN"
  "http://www.w3.org/Graphics/SVG/1.1/DTD/svg11.dtd">
<svg xmlns:xlink="http://www.w3.org/1999/xlink" width="423.96544pt" height="280.132187pt" viewBox="0 0 423.96544 280.132187" xmlns="http://www.w3.org/2000/svg" version="1.1">
 <metadata>
  <rdf:RDF xmlns:dc="http://purl.org/dc/elements/1.1/" xmlns:cc="http://creativecommons.org/ns#" xmlns:rdf="http://www.w3.org/1999/02/22-rdf-syntax-ns#">
   <cc:Work>
    <dc:type rdf:resource="http://purl.org/dc/dcmitype/StillImage"/>
    <dc:date>2023-11-02T12:30:26.867703</dc:date>
    <dc:format>image/svg+xml</dc:format>
    <dc:creator>
     <cc:Agent>
      <dc:title>Matplotlib v3.7.3, https://matplotlib.org/</dc:title>
     </cc:Agent>
    </dc:creator>
   </cc:Work>
  </rdf:RDF>
 </metadata>
 <defs>
  <style type="text/css">*{stroke-linejoin: round; stroke-linecap: butt}</style>
 </defs>
 <g id="figure_1">
  <g id="patch_1">
   <path d="M 0 280.132187 
L 423.96544 280.132187 
L 423.96544 0 
L 0 0 
z
" style="fill: #ffffff"/>
  </g>
  <g id="axes_1">
   <g id="patch_2">
    <path d="M 45.478125 241.6525 
L 416.76544 241.6525 
L 416.76544 7.2 
L 45.478125 7.2 
z
" style="fill: #ffffff"/>
   </g>
   <g id="matplotlib.axis_1">
    <g id="xtick_1">
     <g id="line2d_1">
      <defs>
       <path id="m6db6cc2171" d="M 0 0 
L 0 3.5 
" style="stroke: #000000; stroke-width: 0.8"/>
      </defs>
      <g>
       <use xlink:href="#m6db6cc2171" x="56.633907" y="241.6525" style="stroke: #000000; stroke-width: 0.8"/>
      </g>
     </g>
     <g id="text_1">
      <!-- 0.0 -->
      <g transform="translate(48.682345 256.250937) scale(0.1 -0.1)">
       <defs>
        <path id="DejaVuSans-30" d="M 2034 4250 
Q 1547 4250 1301 3770 
Q 1056 3291 1056 2328 
Q 1056 1369 1301 889 
Q 1547 409 2034 409 
Q 2525 409 2770 889 
Q 3016 1369 3016 2328 
Q 3016 3291 2770 3770 
Q 2525 4250 2034 4250 
z
M 2034 4750 
Q 2819 4750 3233 4129 
Q 3647 3509 3647 2328 
Q 3647 1150 3233 529 
Q 2819 -91 2034 -91 
Q 1250 -91 836 529 
Q 422 1150 422 2328 
Q 422 3509 836 4129 
Q 1250 4750 2034 4750 
z
" transform="scale(0.015625)"/>
        <path id="DejaVuSans-2e" d="M 684 794 
L 1344 794 
L 1344 0 
L 684 0 
L 684 794 
z
" transform="scale(0.015625)"/>
       </defs>
       <use xlink:href="#DejaVuSans-30"/>
       <use xlink:href="#DejaVuSans-2e" x="63.623047"/>
       <use xlink:href="#DejaVuSans-30" x="95.410156"/>
      </g>
     </g>
    </g>
    <g id="xtick_2">
     <g id="line2d_2">
      <g>
       <use xlink:href="#m6db6cc2171" x="113.843047" y="241.6525" style="stroke: #000000; stroke-width: 0.8"/>
      </g>
     </g>
     <g id="text_2">
      <!-- 0.1 -->
      <g transform="translate(105.891484 256.250937) scale(0.1 -0.1)">
       <defs>
        <path id="DejaVuSans-31" d="M 794 531 
L 1825 531 
L 1825 4091 
L 703 3866 
L 703 4441 
L 1819 4666 
L 2450 4666 
L 2450 531 
L 3481 531 
L 3481 0 
L 794 0 
L 794 531 
z
" transform="scale(0.015625)"/>
       </defs>
       <use xlink:href="#DejaVuSans-30"/>
       <use xlink:href="#DejaVuSans-2e" x="63.623047"/>
       <use xlink:href="#DejaVuSans-31" x="95.410156"/>
      </g>
     </g>
    </g>
    <g id="xtick_3">
     <g id="line2d_3">
      <g>
       <use xlink:href="#m6db6cc2171" x="171.052186" y="241.6525" style="stroke: #000000; stroke-width: 0.8"/>
      </g>
     </g>
     <g id="text_3">
      <!-- 0.2 -->
      <g transform="translate(163.100624 256.250937) scale(0.1 -0.1)">
       <defs>
        <path id="DejaVuSans-32" d="M 1228 531 
L 3431 531 
L 3431 0 
L 469 0 
L 469 531 
Q 828 903 1448 1529 
Q 2069 2156 2228 2338 
Q 2531 2678 2651 2914 
Q 2772 3150 2772 3378 
Q 2772 3750 2511 3984 
Q 2250 4219 1831 4219 
Q 1534 4219 1204 4116 
Q 875 4013 500 3803 
L 500 4441 
Q 881 4594 1212 4672 
Q 1544 4750 1819 4750 
Q 2544 4750 2975 4387 
Q 3406 4025 3406 3419 
Q 3406 3131 3298 2873 
Q 3191 2616 2906 2266 
Q 2828 2175 2409 1742 
Q 1991 1309 1228 531 
z
" transform="scale(0.015625)"/>
       </defs>
       <use xlink:href="#DejaVuSans-30"/>
       <use xlink:href="#DejaVuSans-2e" x="63.623047"/>
       <use xlink:href="#DejaVuSans-32" x="95.410156"/>
      </g>
     </g>
    </g>
    <g id="xtick_4">
     <g id="line2d_4">
      <g>
       <use xlink:href="#m6db6cc2171" x="228.261326" y="241.6525" style="stroke: #000000; stroke-width: 0.8"/>
      </g>
     </g>
     <g id="text_4">
      <!-- 0.3 -->
      <g transform="translate(220.309763 256.250937) scale(0.1 -0.1)">
       <defs>
        <path id="DejaVuSans-33" d="M 2597 2516 
Q 3050 2419 3304 2112 
Q 3559 1806 3559 1356 
Q 3559 666 3084 287 
Q 2609 -91 1734 -91 
Q 1441 -91 1130 -33 
Q 819 25 488 141 
L 488 750 
Q 750 597 1062 519 
Q 1375 441 1716 441 
Q 2309 441 2620 675 
Q 2931 909 2931 1356 
Q 2931 1769 2642 2001 
Q 2353 2234 1838 2234 
L 1294 2234 
L 1294 2753 
L 1863 2753 
Q 2328 2753 2575 2939 
Q 2822 3125 2822 3475 
Q 2822 3834 2567 4026 
Q 2313 4219 1838 4219 
Q 1578 4219 1281 4162 
Q 984 4106 628 3988 
L 628 4550 
Q 988 4650 1302 4700 
Q 1616 4750 1894 4750 
Q 2613 4750 3031 4423 
Q 3450 4097 3450 3541 
Q 3450 3153 3228 2886 
Q 3006 2619 2597 2516 
z
" transform="scale(0.015625)"/>
       </defs>
       <use xlink:href="#DejaVuSans-30"/>
       <use xlink:href="#DejaVuSans-2e" x="63.623047"/>
       <use xlink:href="#DejaVuSans-33" x="95.410156"/>
      </g>
     </g>
    </g>
    <g id="xtick_5">
     <g id="line2d_5">
      <g>
       <use xlink:href="#m6db6cc2171" x="285.470465" y="241.6525" style="stroke: #000000; stroke-width: 0.8"/>
      </g>
     </g>
     <g id="text_5">
      <!-- 0.4 -->
      <g transform="translate(277.518903 256.250937) scale(0.1 -0.1)">
       <defs>
        <path id="DejaVuSans-34" d="M 2419 4116 
L 825 1625 
L 2419 1625 
L 2419 4116 
z
M 2253 4666 
L 3047 4666 
L 3047 1625 
L 3713 1625 
L 3713 1100 
L 3047 1100 
L 3047 0 
L 2419 0 
L 2419 1100 
L 313 1100 
L 313 1709 
L 2253 4666 
z
" transform="scale(0.015625)"/>
       </defs>
       <use xlink:href="#DejaVuSans-30"/>
       <use xlink:href="#DejaVuSans-2e" x="63.623047"/>
       <use xlink:href="#DejaVuSans-34" x="95.410156"/>
      </g>
     </g>
    </g>
    <g id="xtick_6">
     <g id="line2d_6">
      <g>
       <use xlink:href="#m6db6cc2171" x="342.679605" y="241.6525" style="stroke: #000000; stroke-width: 0.8"/>
      </g>
     </g>
     <g id="text_6">
      <!-- 0.5 -->
      <g transform="translate(334.728042 256.250937) scale(0.1 -0.1)">
       <defs>
        <path id="DejaVuSans-35" d="M 691 4666 
L 3169 4666 
L 3169 4134 
L 1269 4134 
L 1269 2991 
Q 1406 3038 1543 3061 
Q 1681 3084 1819 3084 
Q 2600 3084 3056 2656 
Q 3513 2228 3513 1497 
Q 3513 744 3044 326 
Q 2575 -91 1722 -91 
Q 1428 -91 1123 -41 
Q 819 9 494 109 
L 494 744 
Q 775 591 1075 516 
Q 1375 441 1709 441 
Q 2250 441 2565 725 
Q 2881 1009 2881 1497 
Q 2881 1984 2565 2268 
Q 2250 2553 1709 2553 
Q 1456 2553 1204 2497 
Q 953 2441 691 2322 
L 691 4666 
z
" transform="scale(0.015625)"/>
       </defs>
       <use xlink:href="#DejaVuSans-30"/>
       <use xlink:href="#DejaVuSans-2e" x="63.623047"/>
       <use xlink:href="#DejaVuSans-35" x="95.410156"/>
      </g>
     </g>
    </g>
    <g id="xtick_7">
     <g id="line2d_7">
      <g>
       <use xlink:href="#m6db6cc2171" x="399.888744" y="241.6525" style="stroke: #000000; stroke-width: 0.8"/>
      </g>
     </g>
     <g id="text_7">
      <!-- 0.6 -->
      <g transform="translate(391.937182 256.250937) scale(0.1 -0.1)">
       <defs>
        <path id="DejaVuSans-36" d="M 2113 2584 
Q 1688 2584 1439 2293 
Q 1191 2003 1191 1497 
Q 1191 994 1439 701 
Q 1688 409 2113 409 
Q 2538 409 2786 701 
Q 3034 994 3034 1497 
Q 3034 2003 2786 2293 
Q 2538 2584 2113 2584 
z
M 3366 4563 
L 3366 3988 
Q 3128 4100 2886 4159 
Q 2644 4219 2406 4219 
Q 1781 4219 1451 3797 
Q 1122 3375 1075 2522 
Q 1259 2794 1537 2939 
Q 1816 3084 2150 3084 
Q 2853 3084 3261 2657 
Q 3669 2231 3669 1497 
Q 3669 778 3244 343 
Q 2819 -91 2113 -91 
Q 1303 -91 875 529 
Q 447 1150 447 2328 
Q 447 3434 972 4092 
Q 1497 4750 2381 4750 
Q 2619 4750 2861 4703 
Q 3103 4656 3366 4563 
z
" transform="scale(0.015625)"/>
       </defs>
       <use xlink:href="#DejaVuSans-30"/>
       <use xlink:href="#DejaVuSans-2e" x="63.623047"/>
       <use xlink:href="#DejaVuSans-36" x="95.410156"/>
      </g>
     </g>
    </g>
    <g id="text_8">
     <!-- Q [1/Å] -->
     <g transform="translate(213.409283 270.8525) scale(0.1 -0.1)">
      <defs>
       <path id="DejaVuSans-51" d="M 2522 4238 
Q 1834 4238 1429 3725 
Q 1025 3213 1025 2328 
Q 1025 1447 1429 934 
Q 1834 422 2522 422 
Q 3209 422 3611 934 
Q 4013 1447 4013 2328 
Q 4013 3213 3611 3725 
Q 3209 4238 2522 4238 
z
M 3406 84 
L 4238 -825 
L 3475 -825 
L 2784 -78 
Q 2681 -84 2626 -87 
Q 2572 -91 2522 -91 
Q 1538 -91 948 567 
Q 359 1225 359 2328 
Q 359 3434 948 4092 
Q 1538 4750 2522 4750 
Q 3503 4750 4090 4092 
Q 4678 3434 4678 2328 
Q 4678 1516 4351 937 
Q 4025 359 3406 84 
z
" transform="scale(0.015625)"/>
       <path id="DejaVuSans-20" transform="scale(0.015625)"/>
       <path id="DejaVuSans-5b" d="M 550 4863 
L 1875 4863 
L 1875 4416 
L 1125 4416 
L 1125 -397 
L 1875 -397 
L 1875 -844 
L 550 -844 
L 550 4863 
z
" transform="scale(0.015625)"/>
       <path id="DejaVuSans-2f" d="M 1625 4666 
L 2156 4666 
L 531 -594 
L 0 -594 
L 1625 4666 
z
" transform="scale(0.015625)"/>
       <path id="DejaVuSans-c5" d="M 2663 5081 
Q 2663 5278 2523 5417 
Q 2384 5556 2188 5556 
Q 1988 5556 1852 5420 
Q 1716 5284 1716 5081 
Q 1716 4884 1853 4746 
Q 1991 4609 2188 4609 
Q 2384 4609 2523 4746 
Q 2663 4884 2663 5081 
z
M 2188 4044 
L 1338 1722 
L 3041 1722 
L 2188 4044 
z
M 1716 4366 
Q 1525 4494 1428 4673 
Q 1331 4853 1331 5081 
Q 1331 5441 1579 5691 
Q 1828 5941 2188 5941 
Q 2544 5941 2795 5689 
Q 3047 5438 3047 5081 
Q 3047 4863 2948 4678 
Q 2850 4494 2663 4366 
L 4325 0 
L 3669 0 
L 3244 1197 
L 1141 1197 
L 716 0 
L 50 0 
L 1716 4366 
z
" transform="scale(0.015625)"/>
       <path id="DejaVuSans-5d" d="M 1947 4863 
L 1947 -844 
L 622 -844 
L 622 -397 
L 1369 -397 
L 1369 4416 
L 622 4416 
L 622 4863 
L 1947 4863 
z
" transform="scale(0.015625)"/>
      </defs>
      <use xlink:href="#DejaVuSans-51"/>
      <use xlink:href="#DejaVuSans-20" x="78.710938"/>
      <use xlink:href="#DejaVuSans-5b" x="110.498047"/>
      <use xlink:href="#DejaVuSans-31" x="149.511719"/>
      <use xlink:href="#DejaVuSans-2f" x="213.134766"/>
      <use xlink:href="#DejaVuSans-c5" x="246.826172"/>
      <use xlink:href="#DejaVuSans-5d" x="315.234375"/>
     </g>
    </g>
   </g>
   <g id="matplotlib.axis_2">
    <g id="ytick_1">
     <g id="line2d_8">
      <defs>
       <path id="m94d84c7dde" d="M 0 0 
L -3.5 0 
" style="stroke: #000000; stroke-width: 0.8"/>
      </defs>
      <g>
       <use xlink:href="#m94d84c7dde" x="45.478125" y="229.072178" style="stroke: #000000; stroke-width: 0.8"/>
      </g>
     </g>
     <g id="text_9">
      <!-- $\mathdefault{10^{1}}$ -->
      <g transform="translate(20.878125 232.871397) scale(0.1 -0.1)">
       <use xlink:href="#DejaVuSans-31" transform="translate(0 0.684375)"/>
       <use xlink:href="#DejaVuSans-30" transform="translate(63.623047 0.684375)"/>
       <use xlink:href="#DejaVuSans-31" transform="translate(128.203125 38.965625) scale(0.7)"/>
      </g>
     </g>
    </g>
    <g id="ytick_2">
     <g id="line2d_9">
      <g>
       <use xlink:href="#m94d84c7dde" x="45.478125" y="101.187919" style="stroke: #000000; stroke-width: 0.8"/>
      </g>
     </g>
     <g id="text_10">
      <!-- $\mathdefault{10^{2}}$ -->
      <g transform="translate(20.878125 104.987137) scale(0.1 -0.1)">
       <use xlink:href="#DejaVuSans-31" transform="translate(0 0.765625)"/>
       <use xlink:href="#DejaVuSans-30" transform="translate(63.623047 0.765625)"/>
       <use xlink:href="#DejaVuSans-32" transform="translate(128.203125 39.046875) scale(0.7)"/>
      </g>
     </g>
    </g>
    <g id="ytick_3">
     <g id="line2d_10">
      <defs>
       <path id="ma8f12e4bb2" d="M 0 0 
L -2 0 
" style="stroke: #000000; stroke-width: 0.6"/>
      </defs>
      <g>
       <use xlink:href="#ma8f12e4bb2" x="45.478125" y="241.465443" style="stroke: #000000; stroke-width: 0.6"/>
      </g>
     </g>
    </g>
    <g id="ytick_4">
     <g id="line2d_11">
      <g>
       <use xlink:href="#ma8f12e4bb2" x="45.478125" y="234.923841" style="stroke: #000000; stroke-width: 0.6"/>
      </g>
     </g>
    </g>
    <g id="ytick_5">
     <g id="line2d_12">
      <g>
       <use xlink:href="#ma8f12e4bb2" x="45.478125" y="190.57518" style="stroke: #000000; stroke-width: 0.6"/>
      </g>
     </g>
    </g>
    <g id="ytick_6">
     <g id="line2d_13">
      <g>
       <use xlink:href="#ma8f12e4bb2" x="45.478125" y="168.05588" style="stroke: #000000; stroke-width: 0.6"/>
      </g>
     </g>
    </g>
    <g id="ytick_7">
     <g id="line2d_14">
      <g>
       <use xlink:href="#ma8f12e4bb2" x="45.478125" y="152.078182" style="stroke: #000000; stroke-width: 0.6"/>
      </g>
     </g>
    </g>
    <g id="ytick_8">
     <g id="line2d_15">
      <g>
       <use xlink:href="#ma8f12e4bb2" x="45.478125" y="139.684917" style="stroke: #000000; stroke-width: 0.6"/>
      </g>
     </g>
    </g>
    <g id="ytick_9">
     <g id="line2d_16">
      <g>
       <use xlink:href="#ma8f12e4bb2" x="45.478125" y="129.558882" style="stroke: #000000; stroke-width: 0.6"/>
      </g>
     </g>
    </g>
    <g id="ytick_10">
     <g id="line2d_17">
      <g>
       <use xlink:href="#ma8f12e4bb2" x="45.478125" y="120.997441" style="stroke: #000000; stroke-width: 0.6"/>
      </g>
     </g>
    </g>
    <g id="ytick_11">
     <g id="line2d_18">
      <g>
       <use xlink:href="#ma8f12e4bb2" x="45.478125" y="113.581184" style="stroke: #000000; stroke-width: 0.6"/>
      </g>
     </g>
    </g>
    <g id="ytick_12">
     <g id="line2d_19">
      <g>
       <use xlink:href="#ma8f12e4bb2" x="45.478125" y="107.039581" style="stroke: #000000; stroke-width: 0.6"/>
      </g>
     </g>
    </g>
    <g id="ytick_13">
     <g id="line2d_20">
      <g>
       <use xlink:href="#ma8f12e4bb2" x="45.478125" y="62.690921" style="stroke: #000000; stroke-width: 0.6"/>
      </g>
     </g>
    </g>
    <g id="ytick_14">
     <g id="line2d_21">
      <g>
       <use xlink:href="#ma8f12e4bb2" x="45.478125" y="40.17162" style="stroke: #000000; stroke-width: 0.6"/>
      </g>
     </g>
    </g>
    <g id="ytick_15">
     <g id="line2d_22">
      <g>
       <use xlink:href="#ma8f12e4bb2" x="45.478125" y="24.193923" style="stroke: #000000; stroke-width: 0.6"/>
      </g>
     </g>
    </g>
    <g id="ytick_16">
     <g id="line2d_23">
      <g>
       <use xlink:href="#ma8f12e4bb2" x="45.478125" y="11.800657" style="stroke: #000000; stroke-width: 0.6"/>
      </g>
     </g>
    </g>
    <g id="text_11">
     <!-- [dimensionless] -->
     <g transform="translate(14.798438 163.903594) rotate(-90) scale(0.1 -0.1)">
      <defs>
       <path id="DejaVuSans-64" d="M 2906 2969 
L 2906 4863 
L 3481 4863 
L 3481 0 
L 2906 0 
L 2906 525 
Q 2725 213 2448 61 
Q 2172 -91 1784 -91 
Q 1150 -91 751 415 
Q 353 922 353 1747 
Q 353 2572 751 3078 
Q 1150 3584 1784 3584 
Q 2172 3584 2448 3432 
Q 2725 3281 2906 2969 
z
M 947 1747 
Q 947 1113 1208 752 
Q 1469 391 1925 391 
Q 2381 391 2643 752 
Q 2906 1113 2906 1747 
Q 2906 2381 2643 2742 
Q 2381 3103 1925 3103 
Q 1469 3103 1208 2742 
Q 947 2381 947 1747 
z
" transform="scale(0.015625)"/>
       <path id="DejaVuSans-69" d="M 603 3500 
L 1178 3500 
L 1178 0 
L 603 0 
L 603 3500 
z
M 603 4863 
L 1178 4863 
L 1178 4134 
L 603 4134 
L 603 4863 
z
" transform="scale(0.015625)"/>
       <path id="DejaVuSans-6d" d="M 3328 2828 
Q 3544 3216 3844 3400 
Q 4144 3584 4550 3584 
Q 5097 3584 5394 3201 
Q 5691 2819 5691 2113 
L 5691 0 
L 5113 0 
L 5113 2094 
Q 5113 2597 4934 2840 
Q 4756 3084 4391 3084 
Q 3944 3084 3684 2787 
Q 3425 2491 3425 1978 
L 3425 0 
L 2847 0 
L 2847 2094 
Q 2847 2600 2669 2842 
Q 2491 3084 2119 3084 
Q 1678 3084 1418 2786 
Q 1159 2488 1159 1978 
L 1159 0 
L 581 0 
L 581 3500 
L 1159 3500 
L 1159 2956 
Q 1356 3278 1631 3431 
Q 1906 3584 2284 3584 
Q 2666 3584 2933 3390 
Q 3200 3197 3328 2828 
z
" transform="scale(0.015625)"/>
       <path id="DejaVuSans-65" d="M 3597 1894 
L 3597 1613 
L 953 1613 
Q 991 1019 1311 708 
Q 1631 397 2203 397 
Q 2534 397 2845 478 
Q 3156 559 3463 722 
L 3463 178 
Q 3153 47 2828 -22 
Q 2503 -91 2169 -91 
Q 1331 -91 842 396 
Q 353 884 353 1716 
Q 353 2575 817 3079 
Q 1281 3584 2069 3584 
Q 2775 3584 3186 3129 
Q 3597 2675 3597 1894 
z
M 3022 2063 
Q 3016 2534 2758 2815 
Q 2500 3097 2075 3097 
Q 1594 3097 1305 2825 
Q 1016 2553 972 2059 
L 3022 2063 
z
" transform="scale(0.015625)"/>
       <path id="DejaVuSans-6e" d="M 3513 2113 
L 3513 0 
L 2938 0 
L 2938 2094 
Q 2938 2591 2744 2837 
Q 2550 3084 2163 3084 
Q 1697 3084 1428 2787 
Q 1159 2491 1159 1978 
L 1159 0 
L 581 0 
L 581 3500 
L 1159 3500 
L 1159 2956 
Q 1366 3272 1645 3428 
Q 1925 3584 2291 3584 
Q 2894 3584 3203 3211 
Q 3513 2838 3513 2113 
z
" transform="scale(0.015625)"/>
       <path id="DejaVuSans-73" d="M 2834 3397 
L 2834 2853 
Q 2591 2978 2328 3040 
Q 2066 3103 1784 3103 
Q 1356 3103 1142 2972 
Q 928 2841 928 2578 
Q 928 2378 1081 2264 
Q 1234 2150 1697 2047 
L 1894 2003 
Q 2506 1872 2764 1633 
Q 3022 1394 3022 966 
Q 3022 478 2636 193 
Q 2250 -91 1575 -91 
Q 1294 -91 989 -36 
Q 684 19 347 128 
L 347 722 
Q 666 556 975 473 
Q 1284 391 1588 391 
Q 1994 391 2212 530 
Q 2431 669 2431 922 
Q 2431 1156 2273 1281 
Q 2116 1406 1581 1522 
L 1381 1569 
Q 847 1681 609 1914 
Q 372 2147 372 2553 
Q 372 3047 722 3315 
Q 1072 3584 1716 3584 
Q 2034 3584 2315 3537 
Q 2597 3491 2834 3397 
z
" transform="scale(0.015625)"/>
       <path id="DejaVuSans-6f" d="M 1959 3097 
Q 1497 3097 1228 2736 
Q 959 2375 959 1747 
Q 959 1119 1226 758 
Q 1494 397 1959 397 
Q 2419 397 2687 759 
Q 2956 1122 2956 1747 
Q 2956 2369 2687 2733 
Q 2419 3097 1959 3097 
z
M 1959 3584 
Q 2709 3584 3137 3096 
Q 3566 2609 3566 1747 
Q 3566 888 3137 398 
Q 2709 -91 1959 -91 
Q 1206 -91 779 398 
Q 353 888 353 1747 
Q 353 2609 779 3096 
Q 1206 3584 1959 3584 
z
" transform="scale(0.015625)"/>
       <path id="DejaVuSans-6c" d="M 603 4863 
L 1178 4863 
L 1178 0 
L 603 0 
L 603 4863 
z
" transform="scale(0.015625)"/>
      </defs>
      <use xlink:href="#DejaVuSans-5b"/>
      <use xlink:href="#DejaVuSans-64" x="39.013672"/>
      <use xlink:href="#DejaVuSans-69" x="102.490234"/>
      <use xlink:href="#DejaVuSans-6d" x="130.273438"/>
      <use xlink:href="#DejaVuSans-65" x="227.685547"/>
      <use xlink:href="#DejaVuSans-6e" x="289.208984"/>
      <use xlink:href="#DejaVuSans-73" x="352.587891"/>
      <use xlink:href="#DejaVuSans-69" x="404.6875"/>
      <use xlink:href="#DejaVuSans-6f" x="432.470703"/>
      <use xlink:href="#DejaVuSans-6e" x="493.652344"/>
      <use xlink:href="#DejaVuSans-6c" x="557.03125"/>
      <use xlink:href="#DejaVuSans-65" x="584.814453"/>
      <use xlink:href="#DejaVuSans-73" x="646.337891"/>
      <use xlink:href="#DejaVuSans-73" x="698.4375"/>
      <use xlink:href="#DejaVuSans-5d" x="750.537109"/>
     </g>
    </g>
   </g>
   <g id="patch_3">
    <path d="M 45.478125 241.6525 
L 45.478125 7.2 
" style="fill: none; stroke: #000000; stroke-width: 0.8; stroke-linejoin: miter; stroke-linecap: square"/>
   </g>
   <g id="patch_4">
    <path d="M 416.76544 241.6525 
L 416.76544 7.2 
" style="fill: none; stroke: #000000; stroke-width: 0.8; stroke-linejoin: miter; stroke-linecap: square"/>
   </g>
   <g id="patch_5">
    <path d="M 45.478125 241.6525 
L 416.76544 241.6525 
" style="fill: none; stroke: #000000; stroke-width: 0.8; stroke-linejoin: miter; stroke-linecap: square"/>
   </g>
   <g id="patch_6">
    <path d="M 45.478125 7.2 
L 416.76544 7.2 
" style="fill: none; stroke: #000000; stroke-width: 0.8; stroke-linejoin: miter; stroke-linecap: square"/>
   </g>
   <g id="legend_1">
    <g id="patch_7">
     <path d="M 311.976378 44.834375 
L 409.76544 44.834375 
Q 411.76544 44.834375 411.76544 42.834375 
L 411.76544 14.2 
Q 411.76544 12.2 409.76544 12.2 
L 311.976378 12.2 
Q 309.976378 12.2 309.976378 14.2 
L 309.976378 42.834375 
Q 309.976378 44.834375 311.976378 44.834375 
z
" style="fill: #ffffff; opacity: 0.8; stroke: #cccccc; stroke-linejoin: miter"/>
    </g>
    <g id="line2d_24">
     <path d="M 313.976378 20.298437 
L 313.976378 20.298437 
L 323.976378 20.298437 
L 323.976378 20.298437 
L 333.976378 20.298437 
" style="fill: none; stroke: #1f77b4; stroke-width: 1.5; stroke-linecap: square"/>
    </g>
    <g id="text_12">
     <!-- upper_bound -->
     <g transform="translate(341.976378 23.798437) scale(0.1 -0.1)">
      <defs>
       <path id="DejaVuSans-75" d="M 544 1381 
L 544 3500 
L 1119 3500 
L 1119 1403 
Q 1119 906 1312 657 
Q 1506 409 1894 409 
Q 2359 409 2629 706 
Q 2900 1003 2900 1516 
L 2900 3500 
L 3475 3500 
L 3475 0 
L 2900 0 
L 2900 538 
Q 2691 219 2414 64 
Q 2138 -91 1772 -91 
Q 1169 -91 856 284 
Q 544 659 544 1381 
z
M 1991 3584 
L 1991 3584 
z
" transform="scale(0.015625)"/>
       <path id="DejaVuSans-70" d="M 1159 525 
L 1159 -1331 
L 581 -1331 
L 581 3500 
L 1159 3500 
L 1159 2969 
Q 1341 3281 1617 3432 
Q 1894 3584 2278 3584 
Q 2916 3584 3314 3078 
Q 3713 2572 3713 1747 
Q 3713 922 3314 415 
Q 2916 -91 2278 -91 
Q 1894 -91 1617 61 
Q 1341 213 1159 525 
z
M 3116 1747 
Q 3116 2381 2855 2742 
Q 2594 3103 2138 3103 
Q 1681 3103 1420 2742 
Q 1159 2381 1159 1747 
Q 1159 1113 1420 752 
Q 1681 391 2138 391 
Q 2594 391 2855 752 
Q 3116 1113 3116 1747 
z
" transform="scale(0.015625)"/>
       <path id="DejaVuSans-72" d="M 2631 2963 
Q 2534 3019 2420 3045 
Q 2306 3072 2169 3072 
Q 1681 3072 1420 2755 
Q 1159 2438 1159 1844 
L 1159 0 
L 581 0 
L 581 3500 
L 1159 3500 
L 1159 2956 
Q 1341 3275 1631 3429 
Q 1922 3584 2338 3584 
Q 2397 3584 2469 3576 
Q 2541 3569 2628 3553 
L 2631 2963 
z
" transform="scale(0.015625)"/>
       <path id="DejaVuSans-5f" d="M 3263 -1063 
L 3263 -1509 
L -63 -1509 
L -63 -1063 
L 3263 -1063 
z
" transform="scale(0.015625)"/>
       <path id="DejaVuSans-62" d="M 3116 1747 
Q 3116 2381 2855 2742 
Q 2594 3103 2138 3103 
Q 1681 3103 1420 2742 
Q 1159 2381 1159 1747 
Q 1159 1113 1420 752 
Q 1681 391 2138 391 
Q 2594 391 2855 752 
Q 3116 1113 3116 1747 
z
M 1159 2969 
Q 1341 3281 1617 3432 
Q 1894 3584 2278 3584 
Q 2916 3584 3314 3078 
Q 3713 2572 3713 1747 
Q 3713 922 3314 415 
Q 2916 -91 2278 -91 
Q 1894 -91 1617 61 
Q 1341 213 1159 525 
L 1159 0 
L 581 0 
L 581 4863 
L 1159 4863 
L 1159 2969 
z
" transform="scale(0.015625)"/>
      </defs>
      <use xlink:href="#DejaVuSans-75"/>
      <use xlink:href="#DejaVuSans-70" x="63.378906"/>
      <use xlink:href="#DejaVuSans-70" x="126.855469"/>
      <use xlink:href="#DejaVuSans-65" x="190.332031"/>
      <use xlink:href="#DejaVuSans-72" x="251.855469"/>
      <use xlink:href="#DejaVuSans-5f" x="292.96875"/>
      <use xlink:href="#DejaVuSans-62" x="342.96875"/>
      <use xlink:href="#DejaVuSans-6f" x="406.445312"/>
      <use xlink:href="#DejaVuSans-75" x="467.626953"/>
      <use xlink:href="#DejaVuSans-6e" x="531.005859"/>
      <use xlink:href="#DejaVuSans-64" x="594.384766"/>
     </g>
    </g>
    <g id="line2d_25">
     <path d="M 313.976378 35.254687 
L 313.976378 35.254687 
L 323.976378 35.254687 
L 323.976378 35.254687 
L 333.976378 35.254687 
" style="fill: none; stroke: #ff7f0e; stroke-width: 1.5; stroke-linecap: square"/>
    </g>
    <g id="text_13">
     <!-- drop -->
     <g transform="translate(341.976378 38.754687) scale(0.1 -0.1)">
      <use xlink:href="#DejaVuSans-64"/>
      <use xlink:href="#DejaVuSans-72" x="63.476562"/>
      <use xlink:href="#DejaVuSans-6f" x="102.339844"/>
      <use xlink:href="#DejaVuSans-70" x="163.521484"/>
     </g>
    </g>
   </g>
   <g id="line2d_26">
    <path d="M 62.354821 74.089093 
L 64.765778 74.089093 
L 64.765778 72.48385 
L 67.176734 72.48385 
L 67.176734 70.503848 
L 69.587691 70.503848 
L 69.587691 68.090403 
L 71.998648 68.090403 
L 71.998648 64.798295 
L 74.409604 64.798295 
L 74.409604 62.189544 
L 76.820561 62.189544 
L 76.820561 58.45173 
L 79.231517 58.45173 
L 79.231517 54.752449 
L 81.642474 54.752449 
L 81.642474 49.42716 
L 84.05343 49.42716 
L 84.05343 44.160518 
L 86.464387 44.160518 
L 86.464387 38.499459 
L 88.875344 38.499459 
L 88.875344 32.292357 
L 91.2863 32.292357 
L 91.2863 27.052945 
L 93.697257 27.052945 
L 93.697257 21.745462 
L 96.108213 21.745462 
L 96.108213 18.476321 
L 98.51917 18.476321 
L 98.51917 17.856932 
L 100.930127 17.856932 
L 100.930127 20.367052 
L 103.341083 20.367052 
L 103.341083 26.574232 
L 105.75204 26.574232 
L 105.75204 36.204987 
L 108.162996 36.204987 
L 108.162996 48.254904 
L 110.573953 48.254904 
L 110.573953 61.733462 
L 112.98491 61.733462 
L 112.98491 75.783515 
L 115.395866 75.783515 
L 115.395866 89.798218 
L 117.806823 89.798218 
L 117.806823 103.212411 
L 120.217779 103.212411 
L 120.217779 116.440185 
L 122.628736 116.440185 
L 122.628736 128.778337 
L 125.039693 128.778337 
L 125.039693 139.489846 
L 127.450649 139.489846 
L 127.450649 150.159777 
L 129.861606 150.159777 
L 129.861606 159.202615 
L 132.272562 159.202615 
L 132.272562 167.113861 
L 134.683519 167.113861 
L 134.683519 174.509353 
L 137.094476 174.509353 
L 137.094476 180.611061 
L 139.505432 180.611061 
L 139.505432 185.702489 
L 141.916389 185.702489 
L 141.916389 190.115873 
L 144.327345 190.115873 
L 144.327345 192.795287 
L 146.738302 192.795287 
L 146.738302 194.496852 
L 149.149258 194.496852 
L 149.149258 196.384015 
L 151.560215 196.384015 
L 151.560215 198.300855 
L 153.971172 198.300855 
L 153.971172 198.636387 
L 156.382128 198.636387 
L 156.382128 199.353114 
L 158.793085 199.353114 
L 158.793085 199.998398 
L 161.204041 199.998398 
L 161.204041 198.830633 
L 163.614998 198.830633 
L 163.614998 199.969599 
L 166.025955 199.969599 
L 166.025955 200.382085 
L 168.436911 200.382085 
L 168.436911 200.791197 
L 170.847868 200.791197 
L 170.847868 201.264489 
L 173.258824 201.264489 
L 173.258824 200.686007 
L 175.669781 200.686007 
L 175.669781 202.069837 
L 178.080738 202.069837 
L 178.080738 203.39804 
L 180.491694 203.39804 
L 180.491694 202.305333 
L 182.902651 202.305333 
L 182.902651 203.213422 
L 187.724564 203.208574 
L 187.724564 203.769456 
L 190.135521 203.769456 
L 190.135521 202.565781 
L 192.546477 202.565781 
L 192.546477 203.492302 
L 194.957434 203.492302 
L 194.957434 204.837783 
L 197.36839 204.837783 
L 197.36839 205.660684 
L 199.779347 205.660684 
L 199.779347 205.31548 
L 202.190304 205.31548 
L 202.190304 204.043327 
L 204.60126 204.043327 
L 204.60126 206.110923 
L 207.012217 206.110923 
L 207.012217 206.675186 
L 209.423173 206.675186 
L 209.423173 206.892199 
L 211.83413 206.892199 
L 211.83413 206.407204 
L 214.245086 206.407204 
L 214.245086 205.790286 
L 216.656043 205.790286 
L 216.656043 207.713378 
L 219.067 207.713378 
L 219.067 206.579736 
L 223.888913 206.554907 
L 223.888913 208.465007 
L 226.299869 208.465007 
L 226.299869 207.758829 
L 228.710826 207.758829 
L 228.710826 206.970742 
L 231.121783 206.970742 
L 231.121783 208.60809 
L 233.532739 208.60809 
L 233.532739 206.417345 
L 235.943696 206.417345 
L 235.943696 205.094075 
L 238.354652 205.094075 
L 238.354652 206.55139 
L 240.765609 206.55139 
L 240.765609 206.821425 
L 243.176566 206.821425 
L 243.176566 208.931474 
L 245.587522 208.931474 
L 245.587522 207.102709 
L 247.998479 207.102709 
L 247.998479 208.225229 
L 250.409435 208.225229 
L 250.409435 206.462236 
L 252.820392 206.462236 
L 252.820392 204.69354 
L 255.231349 204.69354 
L 255.231349 207.434473 
L 257.642305 207.434473 
L 257.642305 207.151513 
L 260.053262 207.151513 
L 260.053262 205.602493 
L 262.464218 205.602493 
L 262.464218 208.372328 
L 264.875175 208.372328 
L 264.875175 204.764225 
L 267.286132 204.764225 
L 267.286132 209.836974 
L 269.697088 209.836974 
L 269.697088 205.954291 
L 272.108045 205.954291 
L 272.108045 207.305834 
L 274.519001 207.305834 
L 274.519001 205.791747 
L 276.929958 205.791747 
L 276.929958 208.734694 
L 279.340914 208.734694 
L 279.340914 210.020629 
L 281.751871 210.020629 
L 281.751871 205.992233 
L 284.162828 205.992233 
L 284.162828 207.300416 
L 286.573784 207.300416 
L 286.573784 208.979467 
L 288.984741 208.979467 
L 288.984741 208.025928 
L 291.395697 208.025928 
L 291.395697 212.098137 
L 293.806654 212.098137 
L 293.806654 209.168039 
L 296.217611 209.168039 
L 296.217611 212.469198 
L 298.628567 212.469198 
L 298.628567 204.50126 
L 301.039524 204.50126 
L 301.039524 214.556019 
L 303.45048 214.556019 
L 303.45048 213.175975 
L 305.861437 213.175975 
L 305.861437 207.179777 
L 308.272394 207.179777 
L 308.272394 206.035649 
L 310.68335 206.035649 
L 310.68335 204.888191 
L 313.094307 204.888191 
L 313.094307 209.931398 
L 315.505263 209.931398 
L 315.505263 210.840869 
L 317.91622 210.840869 
L 317.91622 205.445604 
L 320.327177 205.445604 
L 320.327177 203.706811 
L 322.738133 203.706811 
L 322.738133 220.243791 
L 325.14909 220.243791 
L 325.14909 215.599372 
L 327.560046 215.599372 
L 327.560046 218.674328 
L 329.971003 218.674328 
L 329.971003 223.556049 
L 332.381959 223.556049 
L 332.381959 207.244311 
L 334.792916 207.244311 
L 334.792916 213.856166 
L 337.203873 213.856166 
L 337.203873 216.850077 
L 339.614829 216.850077 
L 339.614829 204.092412 
L 342.025786 204.092412 
L 342.025786 212.092493 
L 344.436742 212.092493 
L 344.436742 221.37665 
L 346.847699 221.37665 
L 346.847699 220.032675 
L 349.258656 220.032675 
L 349.258656 208.57051 
L 351.669612 208.57051 
L 351.669612 219.022346 
L 354.080569 219.022346 
L 354.080569 211.775847 
L 356.491525 211.775847 
L 356.491525 204.122012 
L 358.902482 204.122012 
L 358.902482 216.410195 
L 361.313439 216.410195 
L 361.313439 208.786297 
L 363.724395 208.786297 
L 363.724395 222.89231 
L 366.135352 222.89231 
L 366.135352 213.142253 
L 368.546308 213.142253 
L 368.546308 199.039141 
L 370.957265 199.039141 
L 370.957265 189.527053 
L 373.368222 189.527053 
L 373.368222 215.775348 
L 375.779178 215.775348 
L 375.779178 195.506654 
L 378.190135 195.506654 
L 378.190135 201.171007 
L 380.601091 201.171007 
L 380.601091 215.38306 
L 383.012048 215.38306 
L 383.012048 223.666526 
L 385.423005 223.666526 
L 385.423005 222.826017 
L 387.833961 222.826017 
L 387.833961 230.995568 
L 390.244918 230.995568 
L 390.244918 208.97183 
L 392.655874 208.97183 
L 392.655874 208.326089 
L 395.066831 208.326089 
L 395.066831 201.435402 
L 397.477787 201.435402 
L 397.477787 281.132187 
L 397.477787 281.132187 
" clip-path="url(#p4f8986a595)" style="fill: none; stroke: #1f77b4; stroke-width: 1.5; stroke-linecap: square"/>
   </g>
   <g id="LineCollection_1">
    <path d="M 63.560299 74.659023 
L 63.560299 73.524953 
" clip-path="url(#p4f8986a595)" style="fill: none; stroke: #1f77b4; stroke-width: 1.5"/>
    <path d="M 65.971256 72.92882 
L 65.971256 72.042416 
" clip-path="url(#p4f8986a595)" style="fill: none; stroke: #1f77b4; stroke-width: 1.5"/>
    <path d="M 68.382213 70.884977 
L 68.382213 70.125317 
" clip-path="url(#p4f8986a595)" style="fill: none; stroke: #1f77b4; stroke-width: 1.5"/>
    <path d="M 70.793169 68.431463 
L 70.793169 67.751425 
" clip-path="url(#p4f8986a595)" style="fill: none; stroke: #1f77b4; stroke-width: 1.5"/>
    <path d="M 73.204126 65.108429 
L 73.204126 64.489884 
" clip-path="url(#p4f8986a595)" style="fill: none; stroke: #1f77b4; stroke-width: 1.5"/>
    <path d="M 75.615082 62.475951 
L 75.615082 61.904606 
" clip-path="url(#p4f8986a595)" style="fill: none; stroke: #1f77b4; stroke-width: 1.5"/>
    <path d="M 78.026039 58.717712 
L 78.026039 58.187015 
" clip-path="url(#p4f8986a595)" style="fill: none; stroke: #1f77b4; stroke-width: 1.5"/>
    <path d="M 80.436996 55.001528 
L 80.436996 54.504481 
" clip-path="url(#p4f8986a595)" style="fill: none; stroke: #1f77b4; stroke-width: 1.5"/>
    <path d="M 82.847952 49.661356 
L 82.847952 49.193948 
" clip-path="url(#p4f8986a595)" style="fill: none; stroke: #1f77b4; stroke-width: 1.5"/>
    <path d="M 85.258909 44.382132 
L 85.258909 43.939785 
" clip-path="url(#p4f8986a595)" style="fill: none; stroke: #1f77b4; stroke-width: 1.5"/>
    <path d="M 87.669865 38.71038 
L 87.669865 38.289337 
" clip-path="url(#p4f8986a595)" style="fill: none; stroke: #1f77b4; stroke-width: 1.5"/>
    <path d="M 90.080822 32.49424 
L 90.080822 32.091206 
" clip-path="url(#p4f8986a595)" style="fill: none; stroke: #1f77b4; stroke-width: 1.5"/>
    <path d="M 92.491779 27.24702 
L 92.491779 26.859546 
" clip-path="url(#p4f8986a595)" style="fill: none; stroke: #1f77b4; stroke-width: 1.5"/>
    <path d="M 94.902735 21.933984 
L 94.902735 21.557579 
" clip-path="url(#p4f8986a595)" style="fill: none; stroke: #1f77b4; stroke-width: 1.5"/>
    <path d="M 97.313692 18.660373 
L 97.313692 18.292878 
" clip-path="url(#p4f8986a595)" style="fill: none; stroke: #1f77b4; stroke-width: 1.5"/>
    <path d="M 99.724648 18.038301 
L 99.724648 17.676153 
" clip-path="url(#p4f8986a595)" style="fill: none; stroke: #1f77b4; stroke-width: 1.5"/>
    <path d="M 102.135605 20.547403 
L 102.135605 20.187285 
" clip-path="url(#p4f8986a595)" style="fill: none; stroke: #1f77b4; stroke-width: 1.5"/>
    <path d="M 104.546562 26.755503 
L 104.546562 26.39355 
" clip-path="url(#p4f8986a595)" style="fill: none; stroke: #1f77b4; stroke-width: 1.5"/>
    <path d="M 106.957518 36.38888 
L 106.957518 36.021701 
" clip-path="url(#p4f8986a595)" style="fill: none; stroke: #1f77b4; stroke-width: 1.5"/>
    <path d="M 109.368475 48.444024 
L 109.368475 48.066426 
" clip-path="url(#p4f8986a595)" style="fill: none; stroke: #1f77b4; stroke-width: 1.5"/>
    <path d="M 111.779431 61.929999 
L 111.779431 61.537618 
" clip-path="url(#p4f8986a595)" style="fill: none; stroke: #1f77b4; stroke-width: 1.5"/>
    <path d="M 114.190388 75.989836 
L 114.190388 75.577958 
" clip-path="url(#p4f8986a595)" style="fill: none; stroke: #1f77b4; stroke-width: 1.5"/>
    <path d="M 116.601344 90.016965 
L 116.601344 89.58033 
" clip-path="url(#p4f8986a595)" style="fill: none; stroke: #1f77b4; stroke-width: 1.5"/>
    <path d="M 119.012301 103.445458 
L 119.012301 102.980337 
" clip-path="url(#p4f8986a595)" style="fill: none; stroke: #1f77b4; stroke-width: 1.5"/>
    <path d="M 121.423258 116.690532 
L 121.423258 116.190961 
" clip-path="url(#p4f8986a595)" style="fill: none; stroke: #1f77b4; stroke-width: 1.5"/>
    <path d="M 123.834214 129.047992 
L 123.834214 128.509985 
" clip-path="url(#p4f8986a595)" style="fill: none; stroke: #1f77b4; stroke-width: 1.5"/>
    <path d="M 126.245171 139.77933 
L 126.245171 139.201864 
" clip-path="url(#p4f8986a595)" style="fill: none; stroke: #1f77b4; stroke-width: 1.5"/>
    <path d="M 128.656127 150.471773 
L 128.656127 149.849524 
" clip-path="url(#p4f8986a595)" style="fill: none; stroke: #1f77b4; stroke-width: 1.5"/>
    <path d="M 131.067084 159.536947 
L 131.067084 158.870283 
" clip-path="url(#p4f8986a595)" style="fill: none; stroke: #1f77b4; stroke-width: 1.5"/>
    <path d="M 133.478041 167.470369 
L 133.478041 166.759627 
" clip-path="url(#p4f8986a595)" style="fill: none; stroke: #1f77b4; stroke-width: 1.5"/>
    <path d="M 135.888997 174.889813 
L 135.888997 174.131482 
" clip-path="url(#p4f8986a595)" style="fill: none; stroke: #1f77b4; stroke-width: 1.5"/>
    <path d="M 138.299954 181.012565 
L 138.299954 180.212438 
" clip-path="url(#p4f8986a595)" style="fill: none; stroke: #1f77b4; stroke-width: 1.5"/>
    <path d="M 140.71091 186.123847 
L 140.71091 185.284303 
" clip-path="url(#p4f8986a595)" style="fill: none; stroke: #1f77b4; stroke-width: 1.5"/>
    <path d="M 143.121867 190.558631 
L 143.121867 189.676617 
" clip-path="url(#p4f8986a595)" style="fill: none; stroke: #1f77b4; stroke-width: 1.5"/>
    <path d="M 145.532824 193.252398 
L 145.532824 192.341907 
" clip-path="url(#p4f8986a595)" style="fill: none; stroke: #1f77b4; stroke-width: 1.5"/>
    <path d="M 147.94378 194.964825 
L 147.94378 194.032788 
" clip-path="url(#p4f8986a595)" style="fill: none; stroke: #1f77b4; stroke-width: 1.5"/>
    <path d="M 150.354737 196.865154 
L 150.354737 195.907008 
" clip-path="url(#p4f8986a595)" style="fill: none; stroke: #1f77b4; stroke-width: 1.5"/>
    <path d="M 152.765693 198.795175 
L 152.765693 197.810896 
" clip-path="url(#p4f8986a595)" style="fill: none; stroke: #1f77b4; stroke-width: 1.5"/>
    <path d="M 155.17665 199.138727 
L 155.17665 198.13855 
" clip-path="url(#p4f8986a595)" style="fill: none; stroke: #1f77b4; stroke-width: 1.5"/>
    <path d="M 157.587607 199.864637 
L 157.587607 198.84626 
" clip-path="url(#p4f8986a595)" style="fill: none; stroke: #1f77b4; stroke-width: 1.5"/>
    <path d="M 159.998563 200.519272 
L 159.998563 199.482364 
" clip-path="url(#p4f8986a595)" style="fill: none; stroke: #1f77b4; stroke-width: 1.5"/>
    <path d="M 162.40952 199.354047 
L 162.40952 198.312106 
" clip-path="url(#p4f8986a595)" style="fill: none; stroke: #1f77b4; stroke-width: 1.5"/>
    <path d="M 164.820476 200.505859 
L 164.820476 199.438467 
" clip-path="url(#p4f8986a595)" style="fill: none; stroke: #1f77b4; stroke-width: 1.5"/>
    <path d="M 167.231433 200.93309 
L 167.231433 199.836493 
" clip-path="url(#p4f8986a595)" style="fill: none; stroke: #1f77b4; stroke-width: 1.5"/>
    <path d="M 169.64239 201.351464 
L 169.64239 200.236526 
" clip-path="url(#p4f8986a595)" style="fill: none; stroke: #1f77b4; stroke-width: 1.5"/>
    <path d="M 172.053346 201.838032 
L 172.053346 200.696808 
" clip-path="url(#p4f8986a595)" style="fill: none; stroke: #1f77b4; stroke-width: 1.5"/>
    <path d="M 174.464303 201.266528 
L 174.464303 200.111491 
" clip-path="url(#p4f8986a595)" style="fill: none; stroke: #1f77b4; stroke-width: 1.5"/>
    <path d="M 176.875259 202.669809 
L 176.875259 201.476277 
" clip-path="url(#p4f8986a595)" style="fill: none; stroke: #1f77b4; stroke-width: 1.5"/>
    <path d="M 179.286216 204.01772 
L 179.286216 202.785197 
" clip-path="url(#p4f8986a595)" style="fill: none; stroke: #1f77b4; stroke-width: 1.5"/>
    <path d="M 181.697172 202.930163 
L 181.697172 201.687455 
" clip-path="url(#p4f8986a595)" style="fill: none; stroke: #1f77b4; stroke-width: 1.5"/>
    <path d="M 184.108129 203.856495 
L 184.108129 202.577709 
" clip-path="url(#p4f8986a595)" style="fill: none; stroke: #1f77b4; stroke-width: 1.5"/>
    <path d="M 186.519086 203.868063 
L 186.519086 202.556823 
" clip-path="url(#p4f8986a595)" style="fill: none; stroke: #1f77b4; stroke-width: 1.5"/>
    <path d="M 188.930042 204.442995 
L 188.930042 203.103988 
" clip-path="url(#p4f8986a595)" style="fill: none; stroke: #1f77b4; stroke-width: 1.5"/>
    <path d="M 191.340999 203.251953 
L 191.340999 201.887984 
" clip-path="url(#p4f8986a595)" style="fill: none; stroke: #1f77b4; stroke-width: 1.5"/>
    <path d="M 193.751955 204.200969 
L 193.751955 202.792563 
" clip-path="url(#p4f8986a595)" style="fill: none; stroke: #1f77b4; stroke-width: 1.5"/>
    <path d="M 196.162912 205.569564 
L 196.162912 204.115519 
" clip-path="url(#p4f8986a595)" style="fill: none; stroke: #1f77b4; stroke-width: 1.5"/>
    <path d="M 198.573869 206.418651 
L 198.573869 204.912923 
" clip-path="url(#p4f8986a595)" style="fill: none; stroke: #1f77b4; stroke-width: 1.5"/>
    <path d="M 200.984825 206.07927 
L 200.984825 204.562051 
" clip-path="url(#p4f8986a595)" style="fill: none; stroke: #1f77b4; stroke-width: 1.5"/>
    <path d="M 203.395782 204.821706 
L 203.395782 203.275706 
" clip-path="url(#p4f8986a595)" style="fill: none; stroke: #1f77b4; stroke-width: 1.5"/>
    <path d="M 205.806738 206.921613 
L 205.806738 205.311896 
" clip-path="url(#p4f8986a595)" style="fill: none; stroke: #1f77b4; stroke-width: 1.5"/>
    <path d="M 208.217695 207.513619 
L 208.217695 205.849222 
" clip-path="url(#p4f8986a595)" style="fill: none; stroke: #1f77b4; stroke-width: 1.5"/>
    <path d="M 210.628652 207.748619 
L 210.628652 206.048786 
" clip-path="url(#p4f8986a595)" style="fill: none; stroke: #1f77b4; stroke-width: 1.5"/>
    <path d="M 213.039608 207.282396 
L 213.039608 205.54559 
" clip-path="url(#p4f8986a595)" style="fill: none; stroke: #1f77b4; stroke-width: 1.5"/>
    <path d="M 215.450565 206.678208 
L 215.450565 204.916335 
" clip-path="url(#p4f8986a595)" style="fill: none; stroke: #1f77b4; stroke-width: 1.5"/>
    <path d="M 217.861521 208.65445 
L 217.861521 206.787987 
" clip-path="url(#p4f8986a595)" style="fill: none; stroke: #1f77b4; stroke-width: 1.5"/>
    <path d="M 220.272478 207.527777 
L 220.272478 205.647607 
" clip-path="url(#p4f8986a595)" style="fill: none; stroke: #1f77b4; stroke-width: 1.5"/>
    <path d="M 222.683435 207.534069 
L 222.683435 205.592709 
" clip-path="url(#p4f8986a595)" style="fill: none; stroke: #1f77b4; stroke-width: 1.5"/>
    <path d="M 225.094391 209.494818 
L 225.094391 207.453944 
" clip-path="url(#p4f8986a595)" style="fill: none; stroke: #1f77b4; stroke-width: 1.5"/>
    <path d="M 227.505348 208.812478 
L 227.505348 206.724797 
" clip-path="url(#p4f8986a595)" style="fill: none; stroke: #1f77b4; stroke-width: 1.5"/>
    <path d="M 229.916304 208.052154 
L 229.916304 205.909984 
" clip-path="url(#p4f8986a595)" style="fill: none; stroke: #1f77b4; stroke-width: 1.5"/>
    <path d="M 232.327261 209.745679 
L 232.327261 207.493334 
" clip-path="url(#p4f8986a595)" style="fill: none; stroke: #1f77b4; stroke-width: 1.5"/>
    <path d="M 234.738218 207.571834 
L 234.738218 205.286366 
" clip-path="url(#p4f8986a595)" style="fill: none; stroke: #1f77b4; stroke-width: 1.5"/>
    <path d="M 237.149174 206.28222 
L 237.149174 203.930816 
" clip-path="url(#p4f8986a595)" style="fill: none; stroke: #1f77b4; stroke-width: 1.5"/>
    <path d="M 239.560131 207.808832 
L 239.560131 205.321788 
" clip-path="url(#p4f8986a595)" style="fill: none; stroke: #1f77b4; stroke-width: 1.5"/>
    <path d="M 241.971087 208.123181 
L 241.971087 205.549482 
" clip-path="url(#p4f8986a595)" style="fill: none; stroke: #1f77b4; stroke-width: 1.5"/>
    <path d="M 244.382044 210.314416 
L 244.382044 207.582132 
" clip-path="url(#p4f8986a595)" style="fill: none; stroke: #1f77b4; stroke-width: 1.5"/>
    <path d="M 246.793 208.531199 
L 246.793 205.71004 
" clip-path="url(#p4f8986a595)" style="fill: none; stroke: #1f77b4; stroke-width: 1.5"/>
    <path d="M 249.203957 209.737014 
L 249.203957 206.753507 
" clip-path="url(#p4f8986a595)" style="fill: none; stroke: #1f77b4; stroke-width: 1.5"/>
    <path d="M 251.614914 208.004254 
L 251.614914 204.961878 
" clip-path="url(#p4f8986a595)" style="fill: none; stroke: #1f77b4; stroke-width: 1.5"/>
    <path d="M 254.02587 206.301931 
L 254.02587 203.13042 
" clip-path="url(#p4f8986a595)" style="fill: none; stroke: #1f77b4; stroke-width: 1.5"/>
    <path d="M 256.436827 209.13744 
L 256.436827 205.782173 
" clip-path="url(#p4f8986a595)" style="fill: none; stroke: #1f77b4; stroke-width: 1.5"/>
    <path d="M 258.847783 208.943737 
L 258.847783 205.41532 
" clip-path="url(#p4f8986a595)" style="fill: none; stroke: #1f77b4; stroke-width: 1.5"/>
    <path d="M 261.25874 207.44582 
L 261.25874 203.818386 
" clip-path="url(#p4f8986a595)" style="fill: none; stroke: #1f77b4; stroke-width: 1.5"/>
    <path d="M 263.669697 210.311518 
L 263.669697 206.498567 
" clip-path="url(#p4f8986a595)" style="fill: none; stroke: #1f77b4; stroke-width: 1.5"/>
    <path d="M 266.080653 206.733312 
L 266.080653 202.862567 
" clip-path="url(#p4f8986a595)" style="fill: none; stroke: #1f77b4; stroke-width: 1.5"/>
    <path d="M 268.49161 212.010755 
L 268.49161 207.74508 
" clip-path="url(#p4f8986a595)" style="fill: none; stroke: #1f77b4; stroke-width: 1.5"/>
    <path d="M 270.902566 208.124084 
L 270.902566 203.86609 
" clip-path="url(#p4f8986a595)" style="fill: none; stroke: #1f77b4; stroke-width: 1.5"/>
    <path d="M 273.313523 209.575523 
L 273.313523 205.125269 
" clip-path="url(#p4f8986a595)" style="fill: none; stroke: #1f77b4; stroke-width: 1.5"/>
    <path d="M 275.72448 208.12519 
L 275.72448 203.552402 
" clip-path="url(#p4f8986a595)" style="fill: none; stroke: #1f77b4; stroke-width: 1.5"/>
    <path d="M 278.135436 211.193836 
L 278.135436 206.379836 
" clip-path="url(#p4f8986a595)" style="fill: none; stroke: #1f77b4; stroke-width: 1.5"/>
    <path d="M 280.546393 212.639118 
L 280.546393 207.520054 
" clip-path="url(#p4f8986a595)" style="fill: none; stroke: #1f77b4; stroke-width: 1.5"/>
    <path d="M 282.957349 208.627534 
L 282.957349 203.476331 
" clip-path="url(#p4f8986a595)" style="fill: none; stroke: #1f77b4; stroke-width: 1.5"/>
    <path d="M 285.368306 210.048799 
L 285.368306 204.68165 
" clip-path="url(#p4f8986a595)" style="fill: none; stroke: #1f77b4; stroke-width: 1.5"/>
    <path d="M 287.779263 211.791351 
L 287.779263 206.30311 
" clip-path="url(#p4f8986a595)" style="fill: none; stroke: #1f77b4; stroke-width: 1.5"/>
    <path d="M 290.190219 211.008644 
L 290.190219 205.195265 
" clip-path="url(#p4f8986a595)" style="fill: none; stroke: #1f77b4; stroke-width: 1.5"/>
    <path d="M 292.601176 215.261331 
L 292.601176 209.105433 
" clip-path="url(#p4f8986a595)" style="fill: none; stroke: #1f77b4; stroke-width: 1.5"/>
    <path d="M 295.012132 212.335752 
L 295.012132 206.171289 
" clip-path="url(#p4f8986a595)" style="fill: none; stroke: #1f77b4; stroke-width: 1.5"/>
    <path d="M 297.423089 215.852639 
L 297.423089 209.280093 
" clip-path="url(#p4f8986a595)" style="fill: none; stroke: #1f77b4; stroke-width: 1.5"/>
    <path d="M 299.834046 207.834833 
L 299.834046 201.356495 
" clip-path="url(#p4f8986a595)" style="fill: none; stroke: #1f77b4; stroke-width: 1.5"/>
    <path d="M 302.245002 218.332152 
L 302.245002 211.020363 
" clip-path="url(#p4f8986a595)" style="fill: none; stroke: #1f77b4; stroke-width: 1.5"/>
    <path d="M 304.655959 217.11457 
L 304.655959 209.498286 
" clip-path="url(#p4f8986a595)" style="fill: none; stroke: #1f77b4; stroke-width: 1.5"/>
    <path d="M 307.066915 211.005178 
L 307.066915 203.600966 
" clip-path="url(#p4f8986a595)" style="fill: none; stroke: #1f77b4; stroke-width: 1.5"/>
    <path d="M 309.477872 210.045125 
L 309.477872 202.296237 
" clip-path="url(#p4f8986a595)" style="fill: none; stroke: #1f77b4; stroke-width: 1.5"/>
    <path d="M 311.888828 209.107689 
L 311.888828 200.96675 
" clip-path="url(#p4f8986a595)" style="fill: none; stroke: #1f77b4; stroke-width: 1.5"/>
    <path d="M 314.299785 214.590266 
L 314.299785 205.633269 
" clip-path="url(#p4f8986a595)" style="fill: none; stroke: #1f77b4; stroke-width: 1.5"/>
    <path d="M 316.710742 215.799627 
L 316.710742 206.288786 
" clip-path="url(#p4f8986a595)" style="fill: none; stroke: #1f77b4; stroke-width: 1.5"/>
    <path d="M 319.121698 210.352049 
L 319.121698 200.937638 
" clip-path="url(#p4f8986a595)" style="fill: none; stroke: #1f77b4; stroke-width: 1.5"/>
    <path d="M 321.532655 208.703426 
L 321.532655 199.122849 
" clip-path="url(#p4f8986a595)" style="fill: none; stroke: #1f77b4; stroke-width: 1.5"/>
    <path d="M 323.943611 226.687514 
L 323.943611 214.470557 
" clip-path="url(#p4f8986a595)" style="fill: none; stroke: #1f77b4; stroke-width: 1.5"/>
    <path d="M 326.354568 221.839802 
L 326.354568 209.989829 
" clip-path="url(#p4f8986a595)" style="fill: none; stroke: #1f77b4; stroke-width: 1.5"/>
    <path d="M 328.765525 225.225608 
L 328.765525 212.814925 
" clip-path="url(#p4f8986a595)" style="fill: none; stroke: #1f77b4; stroke-width: 1.5"/>
    <path d="M 331.176481 230.625757 
L 331.176481 217.285487 
" clip-path="url(#p4f8986a595)" style="fill: none; stroke: #1f77b4; stroke-width: 1.5"/>
    <path d="M 333.587438 213.959243 
L 333.587438 201.254372 
" clip-path="url(#p4f8986a595)" style="fill: none; stroke: #1f77b4; stroke-width: 1.5"/>
    <path d="M 335.998394 221.078312 
L 335.998394 207.46601 
" clip-path="url(#p4f8986a595)" style="fill: none; stroke: #1f77b4; stroke-width: 1.5"/>
    <path d="M 338.409351 224.792932 
L 338.409351 209.902323 
" clip-path="url(#p4f8986a595)" style="fill: none; stroke: #1f77b4; stroke-width: 1.5"/>
    <path d="M 340.820308 211.480541 
L 340.820308 197.572697 
" clip-path="url(#p4f8986a595)" style="fill: none; stroke: #1f77b4; stroke-width: 1.5"/>
    <path d="M 343.231264 219.950411 
L 343.231264 205.209788 
" clip-path="url(#p4f8986a595)" style="fill: none; stroke: #1f77b4; stroke-width: 1.5"/>
    <path d="M 345.642221 231.533342 
L 345.642221 212.793323 
" clip-path="url(#p4f8986a595)" style="fill: none; stroke: #1f77b4; stroke-width: 1.5"/>
    <path d="M 348.053177 230.751793 
L 348.053177 211.051447 
" clip-path="url(#p4f8986a595)" style="fill: none; stroke: #1f77b4; stroke-width: 1.5"/>
    <path d="M 350.464134 217.976657 
L 350.464134 200.529048 
" clip-path="url(#p4f8986a595)" style="fill: none; stroke: #1f77b4; stroke-width: 1.5"/>
    <path d="M 352.875091 230.505845 
L 352.875091 209.511208 
" clip-path="url(#p4f8986a595)" style="fill: none; stroke: #1f77b4; stroke-width: 1.5"/>
    <path d="M 355.286047 222.609575 
L 355.286047 202.714376 
" clip-path="url(#p4f8986a595)" style="fill: none; stroke: #1f77b4; stroke-width: 1.5"/>
    <path d="M 357.697004 214.814672 
L 357.697004 195.159349 
" clip-path="url(#p4f8986a595)" style="fill: none; stroke: #1f77b4; stroke-width: 1.5"/>
    <path d="M 360.10796 228.187705 
L 360.10796 206.698488 
" clip-path="url(#p4f8986a595)" style="fill: none; stroke: #1f77b4; stroke-width: 1.5"/>
    <path d="M 362.518917 220.737265 
L 362.518917 198.957096 
" clip-path="url(#p4f8986a595)" style="fill: none; stroke: #1f77b4; stroke-width: 1.5"/>
    <path d="M 364.929873 236.85715 
L 364.929873 211.742732 
" clip-path="url(#p4f8986a595)" style="fill: none; stroke: #1f77b4; stroke-width: 1.5"/>
    <path d="M 367.34083 226.69712 
L 367.34083 202.255097 
" clip-path="url(#p4f8986a595)" style="fill: none; stroke: #1f77b4; stroke-width: 1.5"/>
    <path d="M 369.751787 212.127301 
L 369.751787 188.454626 
" clip-path="url(#p4f8986a595)" style="fill: none; stroke: #1f77b4; stroke-width: 1.5"/>
    <path d="M 372.162743 202.435362 
L 372.162743 179.060289 
" clip-path="url(#p4f8986a595)" style="fill: none; stroke: #1f77b4; stroke-width: 1.5"/>
    <path d="M 374.5737 234.366289 
L 374.5737 201.871191 
" clip-path="url(#p4f8986a595)" style="fill: none; stroke: #1f77b4; stroke-width: 1.5"/>
    <path d="M 376.984656 212.366193 
L 376.984656 182.590928 
" clip-path="url(#p4f8986a595)" style="fill: none; stroke: #1f77b4; stroke-width: 1.5"/>
    <path d="M 379.395613 222.716933 
L 379.395613 185.686469 
" clip-path="url(#p4f8986a595)" style="fill: none; stroke: #1f77b4; stroke-width: 1.5"/>
    <path d="M 381.80657 242.645822 
L 381.80657 197.177381 
" clip-path="url(#p4f8986a595)" style="fill: none; stroke: #1f77b4; stroke-width: 1.5"/>
    <path d="M 384.217526 260.751393 
L 384.217526 201.626029 
" clip-path="url(#p4f8986a595)" style="fill: none; stroke: #1f77b4; stroke-width: 1.5"/>
    <path d="M 386.628483 255.312014 
L 386.628483 202.464199 
" clip-path="url(#p4f8986a595)" style="fill: none; stroke: #1f77b4; stroke-width: 1.5"/>
    <path d="M 389.039439 273.73347 
L 389.039439 207.131665 
" clip-path="url(#p4f8986a595)" style="fill: none; stroke: #1f77b4; stroke-width: 1.5"/>
    <path d="M 391.450396 281.132187 
L 391.450396 177.775032 
" clip-path="url(#p4f8986a595)" style="fill: none; stroke: #1f77b4; stroke-width: 1.5"/>
    <path d="M 393.861353 281.132187 
L 393.861353 176.888636 
" clip-path="url(#p4f8986a595)" style="fill: none; stroke: #1f77b4; stroke-width: 1.5"/>
    <path d="M 396.272309 281.132187 
L 396.272309 168.992379 
" clip-path="url(#p4f8986a595)" style="fill: none; stroke: #1f77b4; stroke-width: 1.5"/>
    <path clip-path="url(#p4f8986a595)" style="fill: none; stroke: #1f77b4; stroke-width: 1.5"/>
   </g>
   <g id="line2d_27">
    <path d="M 62.354821 74.089089 
L 64.765778 74.089089 
L 64.765778 72.483844 
L 67.176734 72.483844 
L 67.176734 70.503853 
L 69.587691 70.503853 
L 69.587691 68.0904 
L 71.998648 68.0904 
L 71.998648 64.798294 
L 74.409604 64.798294 
L 74.409604 62.189542 
L 76.820561 62.189542 
L 76.820561 58.451729 
L 79.231517 58.451729 
L 79.231517 54.752453 
L 81.642474 54.752453 
L 81.642474 49.42716 
L 84.05343 49.42716 
L 84.05343 44.160514 
L 86.464387 44.160514 
L 86.464387 38.499458 
L 88.875344 38.499458 
L 88.875344 32.292358 
L 91.2863 32.292358 
L 91.2863 27.052947 
L 93.697257 27.052947 
L 93.697257 21.745459 
L 96.108213 21.745459 
L 96.108213 18.476319 
L 98.51917 18.476319 
L 98.51917 17.856932 
L 100.930127 17.856932 
L 100.930127 20.367056 
L 103.341083 20.367056 
L 103.341083 26.574232 
L 105.75204 26.574232 
L 105.75204 36.204986 
L 108.162996 36.204986 
L 108.162996 48.254904 
L 110.573953 48.254904 
L 110.573953 61.733463 
L 112.98491 61.733463 
L 112.98491 75.783512 
L 115.395866 75.783512 
L 115.395866 89.79822 
L 117.806823 89.79822 
L 117.806823 103.212409 
L 120.217779 103.212409 
L 120.217779 116.440188 
L 122.628736 116.440188 
L 122.628736 128.778337 
L 125.039693 128.778337 
L 125.039693 139.489847 
L 127.450649 139.489847 
L 127.450649 150.159776 
L 129.861606 150.159776 
L 129.861606 159.202614 
L 132.272562 159.202614 
L 132.272562 167.11386 
L 134.683519 167.11386 
L 134.683519 174.509356 
L 137.094476 174.509356 
L 137.094476 180.611065 
L 139.505432 180.611065 
L 139.505432 185.702493 
L 141.916389 185.702493 
L 141.916389 190.115873 
L 144.327345 190.115873 
L 144.327345 192.795288 
L 146.738302 192.795288 
L 146.738302 194.496857 
L 149.149258 194.496857 
L 149.149258 196.384009 
L 151.560215 196.384009 
L 151.560215 198.300853 
L 153.971172 198.300853 
L 153.971172 198.636389 
L 156.382128 198.636389 
L 156.382128 199.353114 
L 158.793085 199.353114 
L 158.793085 199.998402 
L 161.204041 199.998402 
L 161.204041 198.830633 
L 163.614998 198.830633 
L 163.614998 199.969602 
L 166.025955 199.969602 
L 166.025955 200.38208 
L 168.436911 200.38208 
L 168.436911 200.791195 
L 170.847868 200.791195 
L 170.847868 201.26449 
L 173.258824 201.26449 
L 173.258824 200.686009 
L 175.669781 200.686009 
L 175.669781 202.069841 
L 178.080738 202.069841 
L 178.080738 203.398042 
L 180.491694 203.398042 
L 180.491694 202.305333 
L 182.902651 202.305333 
L 182.902651 203.213425 
L 187.724564 203.208574 
L 187.724564 203.76946 
L 190.135521 203.76946 
L 190.135521 202.565787 
L 192.546477 202.565787 
L 192.546477 203.492304 
L 194.957434 203.492304 
L 194.957434 204.837777 
L 197.36839 204.837777 
L 197.36839 205.660679 
L 199.779347 205.660679 
L 199.779347 205.315477 
L 202.190304 205.315477 
L 202.190304 204.043327 
L 204.60126 204.043327 
L 204.60126 206.110926 
L 207.012217 206.110926 
L 207.012217 206.675188 
L 209.423173 206.675188 
L 209.423173 206.892199 
L 211.83413 206.892199 
L 211.83413 206.407206 
L 214.245086 206.407206 
L 214.245086 205.790288 
L 216.656043 205.790288 
L 216.656043 207.713377 
L 219.067 207.713377 
L 219.067 206.579735 
L 223.888913 206.554908 
L 223.888913 208.46501 
L 226.299869 208.46501 
L 226.299869 207.758831 
L 228.710826 207.758831 
L 228.710826 206.970738 
L 231.121783 206.970738 
L 231.121783 208.608089 
L 233.532739 208.608089 
L 233.532739 206.417346 
L 235.943696 206.417346 
L 235.943696 205.094075 
L 238.354652 205.094075 
L 238.354652 206.551388 
L 240.765609 206.551388 
L 240.765609 206.821427 
L 243.176566 206.821427 
L 243.176566 208.931473 
L 245.587522 208.931473 
L 245.587522 207.10271 
L 247.998479 207.10271 
L 247.998479 208.225226 
L 250.409435 208.225226 
L 250.409435 206.462238 
L 252.820392 206.462238 
L 252.820392 204.693541 
L 255.231349 204.693541 
L 255.231349 207.434474 
L 257.642305 207.434474 
L 257.642305 207.151517 
L 260.053262 207.151517 
L 260.053262 205.602496 
L 262.464218 205.602496 
L 262.464218 208.372325 
L 264.875175 208.372325 
L 264.875175 204.764226 
L 267.286132 204.764226 
L 267.286132 209.836976 
L 269.697088 209.836976 
L 269.697088 205.954295 
L 272.108045 205.954295 
L 272.108045 207.305832 
L 274.519001 207.305832 
L 274.519001 205.791748 
L 276.929958 205.791748 
L 276.929958 208.734693 
L 279.340914 208.734693 
L 279.340914 210.02063 
L 281.751871 210.02063 
L 281.751871 205.992234 
L 284.162828 205.992234 
L 284.162828 207.300417 
L 286.573784 207.300417 
L 286.573784 208.979465 
L 288.984741 208.979465 
L 288.984741 208.025932 
L 291.395697 208.025932 
L 291.395697 212.098138 
L 293.806654 212.098138 
L 293.806654 209.168039 
L 296.217611 209.168039 
L 296.217611 212.469197 
L 298.628567 212.469197 
L 298.628567 204.501264 
L 301.039524 204.501264 
L 301.039524 214.556019 
L 303.45048 214.556019 
L 303.45048 213.175973 
L 305.861437 213.175973 
L 305.861437 207.17978 
L 308.272394 207.17978 
L 308.272394 206.03565 
L 310.68335 206.03565 
L 310.68335 204.88819 
L 313.094307 204.88819 
L 313.094307 209.931401 
L 315.505263 209.931401 
L 315.505263 210.840872 
L 317.91622 210.840872 
L 317.91622 205.445608 
L 320.327177 205.445608 
L 320.327177 203.706812 
L 322.738133 203.706812 
L 322.738133 220.243791 
L 325.14909 220.243791 
L 325.14909 215.599375 
L 327.560046 215.599375 
L 327.560046 218.674327 
L 329.971003 218.674327 
L 329.971003 223.556047 
L 332.381959 223.556047 
L 332.381959 207.244309 
L 334.792916 207.244309 
L 334.792916 213.85617 
L 337.203873 213.85617 
L 337.203873 216.850076 
L 339.614829 216.850076 
L 339.614829 204.092413 
L 342.025786 204.092413 
L 342.025786 212.092489 
L 344.436742 212.092489 
L 344.436742 221.376653 
L 346.847699 221.376653 
L 346.847699 220.032677 
L 349.258656 220.032677 
L 349.258656 208.570511 
L 351.669612 208.570511 
L 351.669612 219.022343 
L 354.080569 219.022343 
L 354.080569 211.775849 
L 356.491525 211.775849 
L 356.491525 204.122016 
L 358.902482 204.122016 
L 358.902482 216.410193 
L 361.313439 216.410193 
L 361.313439 208.786298 
L 363.724395 208.786298 
L 363.724395 222.892309 
L 366.135352 222.892309 
L 366.135352 213.142251 
L 368.546308 213.142251 
L 368.546308 199.039141 
L 370.957265 199.039141 
L 370.957265 189.527057 
L 373.368222 189.527057 
L 373.368222 215.775346 
L 375.779178 215.775346 
L 375.779178 195.506652 
L 378.190135 195.506652 
L 378.190135 201.171005 
L 380.601091 201.171005 
L 380.601091 215.383057 
L 383.012048 215.383057 
L 383.012048 223.666529 
L 385.423005 223.666529 
L 385.423005 222.826014 
L 387.833961 222.826014 
L 387.833961 230.995567 
L 390.244918 230.995567 
L 390.244918 208.97183 
L 392.655874 208.97183 
L 392.655874 208.32609 
L 395.066831 208.32609 
L 395.066831 201.435404 
L 397.477787 201.435404 
L 397.477787 281.132187 
L 397.477787 281.132187 
" clip-path="url(#p4f8986a595)" style="fill: none; stroke: #ff7f0e; stroke-width: 1.5; stroke-linecap: square"/>
   </g>
   <g id="LineCollection_2">
    <path d="M 63.560299 74.487991 
L 63.560299 73.693031 
" clip-path="url(#p4f8986a595)" style="fill: none; stroke: #ff7f0e; stroke-width: 1.5"/>
    <path d="M 65.971256 72.784112 
L 65.971256 72.18519 
" clip-path="url(#p4f8986a595)" style="fill: none; stroke: #ff7f0e; stroke-width: 1.5"/>
    <path d="M 68.382213 70.755045 
L 68.382213 70.253792 
" clip-path="url(#p4f8986a595)" style="fill: none; stroke: #ff7f0e; stroke-width: 1.5"/>
    <path d="M 70.793169 68.311382 
L 70.793169 67.870294 
" clip-path="url(#p4f8986a595)" style="fill: none; stroke: #ff7f0e; stroke-width: 1.5"/>
    <path d="M 73.204126 64.995606 
L 73.204126 64.601681 
" clip-path="url(#p4f8986a595)" style="fill: none; stroke: #ff7f0e; stroke-width: 1.5"/>
    <path d="M 75.615082 62.369173 
L 75.615082 62.010491 
" clip-path="url(#p4f8986a595)" style="fill: none; stroke: #ff7f0e; stroke-width: 1.5"/>
    <path d="M 78.026039 58.615107 
L 78.026039 58.28883 
" clip-path="url(#p4f8986a595)" style="fill: none; stroke: #ff7f0e; stroke-width: 1.5"/>
    <path d="M 80.436996 54.902186 
L 80.436996 54.603122 
" clip-path="url(#p4f8986a595)" style="fill: none; stroke: #ff7f0e; stroke-width: 1.5"/>
    <path d="M 82.847952 49.563459 
L 82.847952 49.291195 
" clip-path="url(#p4f8986a595)" style="fill: none; stroke: #ff7f0e; stroke-width: 1.5"/>
    <path d="M 85.258909 44.285269 
L 85.258909 44.036039 
" clip-path="url(#p4f8986a595)" style="fill: none; stroke: #ff7f0e; stroke-width: 1.5"/>
    <path d="M 87.669865 38.613855 
L 87.669865 38.385295 
" clip-path="url(#p4f8986a595)" style="fill: none; stroke: #ff7f0e; stroke-width: 1.5"/>
    <path d="M 90.080822 32.397339 
L 90.080822 32.187575 
" clip-path="url(#p4f8986a595)" style="fill: none; stroke: #ff7f0e; stroke-width: 1.5"/>
    <path d="M 92.491779 27.150037 
L 92.491779 26.956026 
" clip-path="url(#p4f8986a595)" style="fill: none; stroke: #ff7f0e; stroke-width: 1.5"/>
    <path d="M 94.902735 21.836072 
L 94.902735 21.654994 
" clip-path="url(#p4f8986a595)" style="fill: none; stroke: #ff7f0e; stroke-width: 1.5"/>
    <path d="M 97.313692 18.562453 
L 97.313692 18.390318 
" clip-path="url(#p4f8986a595)" style="fill: none; stroke: #ff7f0e; stroke-width: 1.5"/>
    <path d="M 99.724648 17.941104 
L 99.724648 17.772887 
" clip-path="url(#p4f8986a595)" style="fill: none; stroke: #ff7f0e; stroke-width: 1.5"/>
    <path d="M 102.135605 20.451868 
L 102.135605 20.282373 
" clip-path="url(#p4f8986a595)" style="fill: none; stroke: #ff7f0e; stroke-width: 1.5"/>
    <path d="M 104.546562 26.662868 
L 104.546562 26.485737 
" clip-path="url(#p4f8986a595)" style="fill: none; stroke: #ff7f0e; stroke-width: 1.5"/>
    <path d="M 106.957518 36.300433 
L 106.957518 36.109703 
" clip-path="url(#p4f8986a595)" style="fill: none; stroke: #ff7f0e; stroke-width: 1.5"/>
    <path d="M 109.368475 48.360516 
L 109.368475 48.149492 
" clip-path="url(#p4f8986a595)" style="fill: none; stroke: #ff7f0e; stroke-width: 1.5"/>
    <path d="M 111.779431 61.851953 
L 111.779431 61.615226 
" clip-path="url(#p4f8986a595)" style="fill: none; stroke: #ff7f0e; stroke-width: 1.5"/>
    <path d="M 114.190388 75.917322 
L 114.190388 75.650024 
" clip-path="url(#p4f8986a595)" style="fill: none; stroke: #ff7f0e; stroke-width: 1.5"/>
    <path d="M 116.601344 89.949773 
L 116.601344 89.647079 
" clip-path="url(#p4f8986a595)" style="fill: none; stroke: #ff7f0e; stroke-width: 1.5"/>
    <path d="M 119.012301 103.383239 
L 119.012301 103.042103 
" clip-path="url(#p4f8986a595)" style="fill: none; stroke: #ff7f0e; stroke-width: 1.5"/>
    <path d="M 121.423258 116.632933 
L 121.423258 116.24811 
" clip-path="url(#p4f8986a595)" style="fill: none; stroke: #ff7f0e; stroke-width: 1.5"/>
    <path d="M 123.834214 128.994405 
L 123.834214 128.563107 
" clip-path="url(#p4f8986a595)" style="fill: none; stroke: #ff7f0e; stroke-width: 1.5"/>
    <path d="M 126.245171 139.72899 
L 126.245171 139.251729 
" clip-path="url(#p4f8986a595)" style="fill: none; stroke: #ff7f0e; stroke-width: 1.5"/>
    <path d="M 128.656127 150.424516 
L 128.656127 149.896293 
" clip-path="url(#p4f8986a595)" style="fill: none; stroke: #ff7f0e; stroke-width: 1.5"/>
    <path d="M 131.067084 159.49199 
L 131.067084 158.914738 
" clip-path="url(#p4f8986a595)" style="fill: none; stroke: #ff7f0e; stroke-width: 1.5"/>
    <path d="M 133.478041 167.427224 
L 133.478041 166.802255 
" clip-path="url(#p4f8986a595)" style="fill: none; stroke: #ff7f0e; stroke-width: 1.5"/>
    <path d="M 135.888997 174.848194 
L 135.888997 174.172573 
" clip-path="url(#p4f8986a595)" style="fill: none; stroke: #ff7f0e; stroke-width: 1.5"/>
    <path d="M 138.299954 180.972109 
L 138.299954 180.252354 
" clip-path="url(#p4f8986a595)" style="fill: none; stroke: #ff7f0e; stroke-width: 1.5"/>
    <path d="M 140.71091 186.084246 
L 140.71091 185.323347 
" clip-path="url(#p4f8986a595)" style="fill: none; stroke: #ff7f0e; stroke-width: 1.5"/>
    <path d="M 143.121867 190.519288 
L 143.121867 189.715367 
" clip-path="url(#p4f8986a595)" style="fill: none; stroke: #ff7f0e; stroke-width: 1.5"/>
    <path d="M 145.532824 193.213077 
L 145.532824 192.380618 
" clip-path="url(#p4f8986a595)" style="fill: none; stroke: #ff7f0e; stroke-width: 1.5"/>
    <path d="M 147.94378 194.925295 
L 147.94378 194.071699 
" clip-path="url(#p4f8986a595)" style="fill: none; stroke: #ff7f0e; stroke-width: 1.5"/>
    <path d="M 150.354737 196.825278 
L 150.354737 195.946219 
" clip-path="url(#p4f8986a595)" style="fill: none; stroke: #ff7f0e; stroke-width: 1.5"/>
    <path d="M 152.765693 198.755128 
L 152.765693 197.850264 
" clip-path="url(#p4f8986a595)" style="fill: none; stroke: #ff7f0e; stroke-width: 1.5"/>
    <path d="M 155.17665 199.097854 
L 155.17665 198.178727 
" clip-path="url(#p4f8986a595)" style="fill: none; stroke: #ff7f0e; stroke-width: 1.5"/>
    <path d="M 157.587607 199.823154 
L 157.587607 198.887017 
" clip-path="url(#p4f8986a595)" style="fill: none; stroke: #ff7f0e; stroke-width: 1.5"/>
    <path d="M 159.998563 200.47715 
L 159.998563 199.523745 
" clip-path="url(#p4f8986a595)" style="fill: none; stroke: #ff7f0e; stroke-width: 1.5"/>
    <path d="M 162.40952 199.310612 
L 162.40952 198.354767 
" clip-path="url(#p4f8986a595)" style="fill: none; stroke: #ff7f0e; stroke-width: 1.5"/>
    <path d="M 164.820476 200.461784 
L 164.820476 199.481743 
" clip-path="url(#p4f8986a595)" style="fill: none; stroke: #ff7f0e; stroke-width: 1.5"/>
    <path d="M 167.231433 200.8877 
L 167.231433 199.881022 
" clip-path="url(#p4f8986a595)" style="fill: none; stroke: #ff7f0e; stroke-width: 1.5"/>
    <path d="M 169.64239 201.30531 
L 169.64239 200.281796 
" clip-path="url(#p4f8986a595)" style="fill: none; stroke: #ff7f0e; stroke-width: 1.5"/>
    <path d="M 172.053346 201.790743 
L 172.053346 200.743177 
" clip-path="url(#p4f8986a595)" style="fill: none; stroke: #ff7f0e; stroke-width: 1.5"/>
    <path d="M 174.464303 201.217924 
L 174.464303 200.159141 
" clip-path="url(#p4f8986a595)" style="fill: none; stroke: #ff7f0e; stroke-width: 1.5"/>
    <path d="M 176.875259 202.620298 
L 176.875259 201.524787 
" clip-path="url(#p4f8986a595)" style="fill: none; stroke: #ff7f0e; stroke-width: 1.5"/>
    <path d="M 179.286216 203.967282 
L 179.286216 202.834577 
" clip-path="url(#p4f8986a595)" style="fill: none; stroke: #ff7f0e; stroke-width: 1.5"/>
    <path d="M 181.697172 202.878178 
L 181.697172 201.738335 
" clip-path="url(#p4f8986a595)" style="fill: none; stroke: #ff7f0e; stroke-width: 1.5"/>
    <path d="M 184.108129 203.803447 
L 184.108129 202.629605 
" clip-path="url(#p4f8986a595)" style="fill: none; stroke: #ff7f0e; stroke-width: 1.5"/>
    <path d="M 186.519086 203.813378 
L 186.519086 202.610285 
" clip-path="url(#p4f8986a595)" style="fill: none; stroke: #ff7f0e; stroke-width: 1.5"/>
    <path d="M 188.930042 204.387367 
L 188.930042 203.158352 
" clip-path="url(#p4f8986a595)" style="fill: none; stroke: #ff7f0e; stroke-width: 1.5"/>
    <path d="M 191.340999 203.19381 
L 191.340999 201.944786 
" clip-path="url(#p4f8986a595)" style="fill: none; stroke: #ff7f0e; stroke-width: 1.5"/>
    <path d="M 193.751955 204.141399 
L 193.751955 202.850707 
" clip-path="url(#p4f8986a595)" style="fill: none; stroke: #ff7f0e; stroke-width: 1.5"/>
    <path d="M 196.162912 205.509032 
L 196.162912 204.174538 
" clip-path="url(#p4f8986a595)" style="fill: none; stroke: #ff7f0e; stroke-width: 1.5"/>
    <path d="M 198.573869 206.356142 
L 198.573869 204.973817 
" clip-path="url(#p4f8986a595)" style="fill: none; stroke: #ff7f0e; stroke-width: 1.5"/>
    <path d="M 200.984825 206.015852 
L 200.984825 204.623824 
" clip-path="url(#p4f8986a595)" style="fill: none; stroke: #ff7f0e; stroke-width: 1.5"/>
    <path d="M 203.395782 204.755332 
L 203.395782 203.340335 
" clip-path="url(#p4f8986a595)" style="fill: none; stroke: #ff7f0e; stroke-width: 1.5"/>
    <path d="M 205.806738 206.854058 
L 205.806738 205.377606 
" clip-path="url(#p4f8986a595)" style="fill: none; stroke: #ff7f0e; stroke-width: 1.5"/>
    <path d="M 208.217695 207.443897 
L 208.217695 205.916974 
" clip-path="url(#p4f8986a595)" style="fill: none; stroke: #ff7f0e; stroke-width: 1.5"/>
    <path d="M 210.628652 207.677293 
L 210.628652 206.118048 
" clip-path="url(#p4f8986a595)" style="fill: none; stroke: #ff7f0e; stroke-width: 1.5"/>
    <path d="M 213.039608 207.208532 
L 213.039608 205.617277 
" clip-path="url(#p4f8986a595)" style="fill: none; stroke: #ff7f0e; stroke-width: 1.5"/>
    <path d="M 215.450565 206.602328 
L 215.450565 204.989951 
" clip-path="url(#p4f8986a595)" style="fill: none; stroke: #ff7f0e; stroke-width: 1.5"/>
    <path d="M 217.861521 208.575608 
L 217.861521 206.864327 
" clip-path="url(#p4f8986a595)" style="fill: none; stroke: #ff7f0e; stroke-width: 1.5"/>
    <path d="M 220.272478 207.446628 
L 220.272478 205.726164 
" clip-path="url(#p4f8986a595)" style="fill: none; stroke: #ff7f0e; stroke-width: 1.5"/>
    <path d="M 222.683435 207.45001 
L 222.683435 205.674004 
" clip-path="url(#p4f8986a595)" style="fill: none; stroke: #ff7f0e; stroke-width: 1.5"/>
    <path d="M 225.094391 209.408223 
L 225.094391 207.537549 
" clip-path="url(#p4f8986a595)" style="fill: none; stroke: #ff7f0e; stroke-width: 1.5"/>
    <path d="M 227.505348 208.722572 
L 227.505348 206.811528 
" clip-path="url(#p4f8986a595)" style="fill: none; stroke: #ff7f0e; stroke-width: 1.5"/>
    <path d="M 229.916304 207.958464 
L 229.916304 206.000271 
" clip-path="url(#p4f8986a595)" style="fill: none; stroke: #ff7f0e; stroke-width: 1.5"/>
    <path d="M 232.327261 209.648908 
L 232.327261 207.586417 
" clip-path="url(#p4f8986a595)" style="fill: none; stroke: #ff7f0e; stroke-width: 1.5"/>
    <path d="M 234.738218 207.470169 
L 234.738218 205.384111 
" clip-path="url(#p4f8986a595)" style="fill: none; stroke: #ff7f0e; stroke-width: 1.5"/>
    <path d="M 237.149174 206.175005 
L 237.149174 204.033782 
" clip-path="url(#p4f8986a595)" style="fill: none; stroke: #ff7f0e; stroke-width: 1.5"/>
    <path d="M 239.560131 207.696757 
L 239.560131 205.429162 
" clip-path="url(#p4f8986a595)" style="fill: none; stroke: #ff7f0e; stroke-width: 1.5"/>
    <path d="M 241.971087 208.007767 
L 241.971087 205.659898 
" clip-path="url(#p4f8986a595)" style="fill: none; stroke: #ff7f0e; stroke-width: 1.5"/>
    <path d="M 244.382044 210.195232 
L 244.382044 207.695831 
" clip-path="url(#p4f8986a595)" style="fill: none; stroke: #ff7f0e; stroke-width: 1.5"/>
    <path d="M 246.793 208.403719 
L 246.793 205.831481 
" clip-path="url(#p4f8986a595)" style="fill: none; stroke: #ff7f0e; stroke-width: 1.5"/>
    <path d="M 249.203957 209.603597 
L 249.203957 206.880237 
" clip-path="url(#p4f8986a595)" style="fill: none; stroke: #ff7f0e; stroke-width: 1.5"/>
    <path d="M 251.614914 207.864323 
L 251.614914 205.094678 
" clip-path="url(#p4f8986a595)" style="fill: none; stroke: #ff7f0e; stroke-width: 1.5"/>
    <path d="M 254.02587 206.150714 
L 254.02587 203.273625 
" clip-path="url(#p4f8986a595)" style="fill: none; stroke: #ff7f0e; stroke-width: 1.5"/>
    <path d="M 256.436827 208.983592 
L 256.436827 205.927394 
" clip-path="url(#p4f8986a595)" style="fill: none; stroke: #ff7f0e; stroke-width: 1.5"/>
    <path d="M 258.847783 208.780101 
L 258.847783 205.569331 
" clip-path="url(#p4f8986a595)" style="fill: none; stroke: #ff7f0e; stroke-width: 1.5"/>
    <path d="M 261.25874 207.272757 
L 261.25874 203.981002 
" clip-path="url(#p4f8986a595)" style="fill: none; stroke: #ff7f0e; stroke-width: 1.5"/>
    <path d="M 263.669697 210.136297 
L 263.669697 206.662659 
" clip-path="url(#p4f8986a595)" style="fill: none; stroke: #ff7f0e; stroke-width: 1.5"/>
    <path d="M 266.080653 206.544522 
L 266.080653 203.039228 
" clip-path="url(#p4f8986a595)" style="fill: none; stroke: #ff7f0e; stroke-width: 1.5"/>
    <path d="M 268.49161 211.816077 
L 268.49161 207.925979 
" clip-path="url(#p4f8986a595)" style="fill: none; stroke: #ff7f0e; stroke-width: 1.5"/>
    <path d="M 270.902566 207.916172 
L 270.902566 204.059361 
" clip-path="url(#p4f8986a595)" style="fill: none; stroke: #ff7f0e; stroke-width: 1.5"/>
    <path d="M 273.313523 209.362291 
L 273.313523 205.322806 
" clip-path="url(#p4f8986a595)" style="fill: none; stroke: #ff7f0e; stroke-width: 1.5"/>
    <path d="M 275.72448 207.900574 
L 275.72448 203.760073 
" clip-path="url(#p4f8986a595)" style="fill: none; stroke: #ff7f0e; stroke-width: 1.5"/>
    <path d="M 278.135436 210.964195 
L 278.135436 206.591246 
" clip-path="url(#p4f8986a595)" style="fill: none; stroke: #ff7f0e; stroke-width: 1.5"/>
    <path d="M 280.546393 212.397907 
L 280.546393 207.740945 
" clip-path="url(#p4f8986a595)" style="fill: none; stroke: #ff7f0e; stroke-width: 1.5"/>
    <path d="M 282.957349 208.368311 
L 282.957349 203.713654 
" clip-path="url(#p4f8986a595)" style="fill: none; stroke: #ff7f0e; stroke-width: 1.5"/>
    <path d="M 285.368306 209.781482 
L 285.368306 204.925462 
" clip-path="url(#p4f8986a595)" style="fill: none; stroke: #ff7f0e; stroke-width: 1.5"/>
    <path d="M 287.779263 211.526332 
L 287.779263 206.544288 
" clip-path="url(#p4f8986a595)" style="fill: none; stroke: #ff7f0e; stroke-width: 1.5"/>
    <path d="M 290.190219 210.719293 
L 290.190219 205.457165 
" clip-path="url(#p4f8986a595)" style="fill: none; stroke: #ff7f0e; stroke-width: 1.5"/>
    <path d="M 292.601176 214.968572 
L 292.601176 209.368794 
" clip-path="url(#p4f8986a595)" style="fill: none; stroke: #ff7f0e; stroke-width: 1.5"/>
    <path d="M 295.012132 212.032176 
L 295.012132 206.444389 
" clip-path="url(#p4f8986a595)" style="fill: none; stroke: #ff7f0e; stroke-width: 1.5"/>
    <path d="M 297.423089 215.543967 
L 297.423089 209.55576 
" clip-path="url(#p4f8986a595)" style="fill: none; stroke: #ff7f0e; stroke-width: 1.5"/>
    <path d="M 299.834046 207.490315 
L 299.834046 201.664897 
" clip-path="url(#p4f8986a595)" style="fill: none; stroke: #ff7f0e; stroke-width: 1.5"/>
    <path d="M 302.245002 217.994423 
L 302.245002 211.31813 
" clip-path="url(#p4f8986a595)" style="fill: none; stroke: #ff7f0e; stroke-width: 1.5"/>
    <path d="M 304.655959 216.75158 
L 304.655959 209.816705 
" clip-path="url(#p4f8986a595)" style="fill: none; stroke: #ff7f0e; stroke-width: 1.5"/>
    <path d="M 307.066915 210.619432 
L 307.066915 203.940784 
" clip-path="url(#p4f8986a595)" style="fill: none; stroke: #ff7f0e; stroke-width: 1.5"/>
    <path d="M 309.477872 209.635153 
L 309.477872 202.655298 
" clip-path="url(#p4f8986a595)" style="fill: none; stroke: #ff7f0e; stroke-width: 1.5"/>
    <path d="M 311.888828 208.666237 
L 311.888828 201.350856 
" clip-path="url(#p4f8986a595)" style="fill: none; stroke: #ff7f0e; stroke-width: 1.5"/>
    <path d="M 314.299785 214.134576 
L 314.299785 206.024061 
" clip-path="url(#p4f8986a595)" style="fill: none; stroke: #ff7f0e; stroke-width: 1.5"/>
    <path d="M 316.710742 215.318217 
L 316.710742 206.697698 
" clip-path="url(#p4f8986a595)" style="fill: none; stroke: #ff7f0e; stroke-width: 1.5"/>
    <path d="M 319.121698 209.8391 
L 319.121698 201.374333 
" clip-path="url(#p4f8986a595)" style="fill: none; stroke: #ff7f0e; stroke-width: 1.5"/>
    <path d="M 321.532655 208.168381 
L 321.532655 199.57715 
" clip-path="url(#p4f8986a595)" style="fill: none; stroke: #ff7f0e; stroke-width: 1.5"/>
    <path d="M 323.943611 226.126036 
L 323.943611 214.92531 
" clip-path="url(#p4f8986a595)" style="fill: none; stroke: #ff7f0e; stroke-width: 1.5"/>
    <path d="M 326.354568 221.266278 
L 326.354568 210.457527 
" clip-path="url(#p4f8986a595)" style="fill: none; stroke: #ff7f0e; stroke-width: 1.5"/>
    <path d="M 328.765525 224.654543 
L 328.765525 213.275896 
" clip-path="url(#p4f8986a595)" style="fill: none; stroke: #ff7f0e; stroke-width: 1.5"/>
    <path d="M 331.176481 230.057935 
L 331.176481 217.736176 
" clip-path="url(#p4f8986a595)" style="fill: none; stroke: #ff7f0e; stroke-width: 1.5"/>
    <path d="M 333.587438 213.256941 
L 333.587438 201.81948 
" clip-path="url(#p4f8986a595)" style="fill: none; stroke: #ff7f0e; stroke-width: 1.5"/>
    <path d="M 335.998394 220.399919 
L 335.998394 208.00279 
" clip-path="url(#p4f8986a595)" style="fill: none; stroke: #ff7f0e; stroke-width: 1.5"/>
    <path d="M 338.409351 224.070246 
L 338.409351 210.461465 
" clip-path="url(#p4f8986a595)" style="fill: none; stroke: #ff7f0e; stroke-width: 1.5"/>
    <path d="M 340.820308 210.677551 
L 340.820308 198.205946 
" clip-path="url(#p4f8986a595)" style="fill: none; stroke: #ff7f0e; stroke-width: 1.5"/>
    <path d="M 343.231264 219.19787 
L 343.231264 205.793887 
" clip-path="url(#p4f8986a595)" style="fill: none; stroke: #ff7f0e; stroke-width: 1.5"/>
    <path d="M 345.642221 230.636833 
L 345.642221 213.44205 
" clip-path="url(#p4f8986a595)" style="fill: none; stroke: #ff7f0e; stroke-width: 1.5"/>
    <path d="M 348.053177 229.77622 
L 348.053177 211.746067 
" clip-path="url(#p4f8986a595)" style="fill: none; stroke: #ff7f0e; stroke-width: 1.5"/>
    <path d="M 350.464134 217.008251 
L 350.464134 201.24721 
" clip-path="url(#p4f8986a595)" style="fill: none; stroke: #ff7f0e; stroke-width: 1.5"/>
    <path d="M 352.875091 229.450895 
L 352.875091 210.245824 
" clip-path="url(#p4f8986a595)" style="fill: none; stroke: #ff7f0e; stroke-width: 1.5"/>
    <path d="M 355.286047 221.537026 
L 355.286047 203.476496 
" clip-path="url(#p4f8986a595)" style="fill: none; stroke: #ff7f0e; stroke-width: 1.5"/>
    <path d="M 357.697004 213.616967 
L 357.697004 196.015781 
" clip-path="url(#p4f8986a595)" style="fill: none; stroke: #ff7f0e; stroke-width: 1.5"/>
    <path d="M 360.10796 227.100005 
L 360.10796 207.44953 
" clip-path="url(#p4f8986a595)" style="fill: none; stroke: #ff7f0e; stroke-width: 1.5"/>
    <path d="M 362.518917 219.485139 
L 362.518917 199.819298 
" clip-path="url(#p4f8986a595)" style="fill: none; stroke: #ff7f0e; stroke-width: 1.5"/>
    <path d="M 364.929873 235.664778 
L 364.929873 212.514903 
" clip-path="url(#p4f8986a595)" style="fill: none; stroke: #ff7f0e; stroke-width: 1.5"/>
    <path d="M 367.34083 225.352532 
L 367.34083 203.138542 
" clip-path="url(#p4f8986a595)" style="fill: none; stroke: #ff7f0e; stroke-width: 1.5"/>
    <path d="M 369.751787 210.525585 
L 369.751787 189.525984 
" clip-path="url(#p4f8986a595)" style="fill: none; stroke: #ff7f0e; stroke-width: 1.5"/>
    <path d="M 372.162743 200.602256 
L 372.162743 180.297438 
" clip-path="url(#p4f8986a595)" style="fill: none; stroke: #ff7f0e; stroke-width: 1.5"/>
    <path d="M 374.5737 232.477373 
L 374.5737 202.951975 
" clip-path="url(#p4f8986a595)" style="fill: none; stroke: #ff7f0e; stroke-width: 1.5"/>
    <path d="M 376.984656 210.08895 
L 376.984656 183.967771 
" clip-path="url(#p4f8986a595)" style="fill: none; stroke: #ff7f0e; stroke-width: 1.5"/>
    <path d="M 379.395613 219.777972 
L 379.395613 187.257923 
" clip-path="url(#p4f8986a595)" style="fill: none; stroke: #ff7f0e; stroke-width: 1.5"/>
    <path d="M 381.80657 239.51469 
L 381.80657 198.616413 
" clip-path="url(#p4f8986a595)" style="fill: none; stroke: #ff7f0e; stroke-width: 1.5"/>
    <path d="M 384.217526 256.668752 
L 384.217526 203.106649 
" clip-path="url(#p4f8986a595)" style="fill: none; stroke: #ff7f0e; stroke-width: 1.5"/>
    <path d="M 386.628483 251.965778 
L 386.628483 203.812282 
" clip-path="url(#p4f8986a595)" style="fill: none; stroke: #ff7f0e; stroke-width: 1.5"/>
    <path d="M 389.039439 269.492565 
L 389.039439 208.476266 
" clip-path="url(#p4f8986a595)" style="fill: none; stroke: #ff7f0e; stroke-width: 1.5"/>
    <path d="M 391.450396 268.951404 
L 391.450396 180.810555 
" clip-path="url(#p4f8986a595)" style="fill: none; stroke: #ff7f0e; stroke-width: 1.5"/>
    <path d="M 393.861353 271.467479 
L 393.861353 179.539695 
" clip-path="url(#p4f8986a595)" style="fill: none; stroke: #ff7f0e; stroke-width: 1.5"/>
    <path d="M 396.272309 269.63489 
L 396.272309 171.732917 
" clip-path="url(#p4f8986a595)" style="fill: none; stroke: #ff7f0e; stroke-width: 1.5"/>
    <path clip-path="url(#p4f8986a595)" style="fill: none; stroke: #ff7f0e; stroke-width: 1.5"/>
   </g>
  </g>
 </g>
 <defs>
  <clipPath id="p4f8986a595">
   <rect x="45.478125" y="7.2" width="371.287315" height="234.4525"/>
  </clipPath>
 </defs>
</svg>
