<?xml version="1.0" encoding="utf-8" standalone="no"?>
<!DOCTYPE svg PUBLIC "-//W3C//DTD SVG 1.1//EN"
  "http://www.w3.org/Graphics/SVG/1.1/DTD/svg11.dtd">
<svg xmlns:xlink="http://www.w3.org/1999/xlink" width="423.78544pt" height="276.820187pt" viewBox="0 0 423.78544 276.820187" xmlns="http://www.w3.org/2000/svg" version="1.1">
 <metadata>
  <rdf:RDF xmlns:dc="http://purl.org/dc/elements/1.1/" xmlns:cc="http://creativecommons.org/ns#" xmlns:rdf="http://www.w3.org/1999/02/22-rdf-syntax-ns#">
   <cc:Work>
    <dc:type rdf:resource="http://purl.org/dc/dcmitype/StillImage"/>
    <dc:date>2024-02-07T09:15:26.203832</dc:date>
    <dc:format>image/svg+xml</dc:format>
    <dc:creator>
     <cc:Agent>
      <dc:title>Matplotlib v3.8.2, https://matplotlib.org/</dc:title>
     </cc:Agent>
    </dc:creator>
   </cc:Work>
  </rdf:RDF>
 </metadata>
 <defs>
  <style type="text/css">*{stroke-linejoin: round; stroke-linecap: butt}</style>
 </defs>
 <g id="figure_1">
  <g id="patch_1">
   <path d="M 0 276.820187 
L 423.78544 276.820187 
L 423.78544 -0 
L 0 -0 
z
" style="fill: #ffffff"/>
  </g>
  <g id="axes_1">
   <g id="patch_2">
    <path d="M 45.478125 238.3405 
L 416.58544 238.3405 
L 416.58544 7.2 
L 45.478125 7.2 
z
" style="fill: #ffffff"/>
   </g>
   <g id="matplotlib.axis_1">
    <g id="xtick_1">
     <g id="line2d_1">
      <defs>
       <path id="m5f58347ec2" d="M 0 0 
L 0 3.5 
" style="stroke: #000000; stroke-width: 0.8"/>
      </defs>
      <g>
       <use xlink:href="#m5f58347ec2" x="62.346639" y="238.3405" style="stroke: #000000; stroke-width: 0.8"/>
      </g>
     </g>
     <g id="text_1">
      <!-- $\mathdefault{10^{-2}}$ -->
      <g transform="translate(50.596639 252.938937) scale(0.1 -0.1)">
       <defs>
        <path id="DejaVuSans-31" d="M 794 531 
L 1825 531 
L 1825 4091 
L 703 3866 
L 703 4441 
L 1819 4666 
L 2450 4666 
L 2450 531 
L 3481 531 
L 3481 0 
L 794 0 
L 794 531 
z
" transform="scale(0.015625)"/>
        <path id="DejaVuSans-30" d="M 2034 4250 
Q 1547 4250 1301 3770 
Q 1056 3291 1056 2328 
Q 1056 1369 1301 889 
Q 1547 409 2034 409 
Q 2525 409 2770 889 
Q 3016 1369 3016 2328 
Q 3016 3291 2770 3770 
Q 2525 4250 2034 4250 
z
M 2034 4750 
Q 2819 4750 3233 4129 
Q 3647 3509 3647 2328 
Q 3647 1150 3233 529 
Q 2819 -91 2034 -91 
Q 1250 -91 836 529 
Q 422 1150 422 2328 
Q 422 3509 836 4129 
Q 1250 4750 2034 4750 
z
" transform="scale(0.015625)"/>
        <path id="DejaVuSans-2212" d="M 678 2272 
L 4684 2272 
L 4684 1741 
L 678 1741 
L 678 2272 
z
" transform="scale(0.015625)"/>
        <path id="DejaVuSans-32" d="M 1228 531 
L 3431 531 
L 3431 0 
L 469 0 
L 469 531 
Q 828 903 1448 1529 
Q 2069 2156 2228 2338 
Q 2531 2678 2651 2914 
Q 2772 3150 2772 3378 
Q 2772 3750 2511 3984 
Q 2250 4219 1831 4219 
Q 1534 4219 1204 4116 
Q 875 4013 500 3803 
L 500 4441 
Q 881 4594 1212 4672 
Q 1544 4750 1819 4750 
Q 2544 4750 2975 4387 
Q 3406 4025 3406 3419 
Q 3406 3131 3298 2873 
Q 3191 2616 2906 2266 
Q 2828 2175 2409 1742 
Q 1991 1309 1228 531 
z
" transform="scale(0.015625)"/>
       </defs>
       <use xlink:href="#DejaVuSans-31" transform="translate(0 0.765625)"/>
       <use xlink:href="#DejaVuSans-30" transform="translate(63.623047 0.765625)"/>
       <use xlink:href="#DejaVuSans-2212" transform="translate(128.203125 39.046875) scale(0.7)"/>
       <use xlink:href="#DejaVuSans-32" transform="translate(186.855469 39.046875) scale(0.7)"/>
      </g>
     </g>
    </g>
    <g id="xtick_2">
     <g id="line2d_2">
      <g>
       <use xlink:href="#m5f58347ec2" x="252.077567" y="238.3405" style="stroke: #000000; stroke-width: 0.8"/>
      </g>
     </g>
     <g id="text_2">
      <!-- $\mathdefault{10^{-1}}$ -->
      <g transform="translate(240.327567 252.938937) scale(0.1 -0.1)">
       <use xlink:href="#DejaVuSans-31" transform="translate(0 0.684375)"/>
       <use xlink:href="#DejaVuSans-30" transform="translate(63.623047 0.684375)"/>
       <use xlink:href="#DejaVuSans-2212" transform="translate(128.203125 38.965625) scale(0.7)"/>
       <use xlink:href="#DejaVuSans-31" transform="translate(186.855469 38.965625) scale(0.7)"/>
      </g>
     </g>
    </g>
    <g id="xtick_3">
     <g id="line2d_3">
      <defs>
       <path id="m048599d08b" d="M 0 0 
L 0 2 
" style="stroke: #000000; stroke-width: 0.6"/>
      </defs>
      <g>
       <use xlink:href="#m048599d08b" x="53.665028" y="238.3405" style="stroke: #000000; stroke-width: 0.6"/>
      </g>
     </g>
    </g>
    <g id="xtick_4">
     <g id="line2d_4">
      <g>
       <use xlink:href="#m048599d08b" x="119.46134" y="238.3405" style="stroke: #000000; stroke-width: 0.6"/>
      </g>
     </g>
    </g>
    <g id="xtick_5">
     <g id="line2d_5">
      <g>
       <use xlink:href="#m048599d08b" x="152.871298" y="238.3405" style="stroke: #000000; stroke-width: 0.6"/>
      </g>
     </g>
    </g>
    <g id="xtick_6">
     <g id="line2d_6">
      <g>
       <use xlink:href="#m048599d08b" x="176.57604" y="238.3405" style="stroke: #000000; stroke-width: 0.6"/>
      </g>
     </g>
    </g>
    <g id="xtick_7">
     <g id="line2d_7">
      <g>
       <use xlink:href="#m048599d08b" x="194.962867" y="238.3405" style="stroke: #000000; stroke-width: 0.6"/>
      </g>
     </g>
    </g>
    <g id="xtick_8">
     <g id="line2d_8">
      <g>
       <use xlink:href="#m048599d08b" x="209.985998" y="238.3405" style="stroke: #000000; stroke-width: 0.6"/>
      </g>
     </g>
    </g>
    <g id="xtick_9">
     <g id="line2d_9">
      <g>
       <use xlink:href="#m048599d08b" x="222.687875" y="238.3405" style="stroke: #000000; stroke-width: 0.6"/>
      </g>
     </g>
    </g>
    <g id="xtick_10">
     <g id="line2d_10">
      <g>
       <use xlink:href="#m048599d08b" x="233.69074" y="238.3405" style="stroke: #000000; stroke-width: 0.6"/>
      </g>
     </g>
    </g>
    <g id="xtick_11">
     <g id="line2d_11">
      <g>
       <use xlink:href="#m048599d08b" x="243.395956" y="238.3405" style="stroke: #000000; stroke-width: 0.6"/>
      </g>
     </g>
    </g>
    <g id="xtick_12">
     <g id="line2d_12">
      <g>
       <use xlink:href="#m048599d08b" x="309.192268" y="238.3405" style="stroke: #000000; stroke-width: 0.6"/>
      </g>
     </g>
    </g>
    <g id="xtick_13">
     <g id="line2d_13">
      <g>
       <use xlink:href="#m048599d08b" x="342.602226" y="238.3405" style="stroke: #000000; stroke-width: 0.6"/>
      </g>
     </g>
    </g>
    <g id="xtick_14">
     <g id="line2d_14">
      <g>
       <use xlink:href="#m048599d08b" x="366.306968" y="238.3405" style="stroke: #000000; stroke-width: 0.6"/>
      </g>
     </g>
    </g>
    <g id="xtick_15">
     <g id="line2d_15">
      <g>
       <use xlink:href="#m048599d08b" x="384.693795" y="238.3405" style="stroke: #000000; stroke-width: 0.6"/>
      </g>
     </g>
    </g>
    <g id="xtick_16">
     <g id="line2d_16">
      <g>
       <use xlink:href="#m048599d08b" x="399.716926" y="238.3405" style="stroke: #000000; stroke-width: 0.6"/>
      </g>
     </g>
    </g>
    <g id="xtick_17">
     <g id="line2d_17">
      <g>
       <use xlink:href="#m048599d08b" x="412.418802" y="238.3405" style="stroke: #000000; stroke-width: 0.6"/>
      </g>
     </g>
    </g>
    <g id="text_3">
     <!-- Q [1/Å] -->
     <g transform="translate(213.319283 267.5405) scale(0.1 -0.1)">
      <defs>
       <path id="DejaVuSans-51" d="M 2522 4238 
Q 1834 4238 1429 3725 
Q 1025 3213 1025 2328 
Q 1025 1447 1429 934 
Q 1834 422 2522 422 
Q 3209 422 3611 934 
Q 4013 1447 4013 2328 
Q 4013 3213 3611 3725 
Q 3209 4238 2522 4238 
z
M 3406 84 
L 4238 -825 
L 3475 -825 
L 2784 -78 
Q 2681 -84 2626 -87 
Q 2572 -91 2522 -91 
Q 1538 -91 948 567 
Q 359 1225 359 2328 
Q 359 3434 948 4092 
Q 1538 4750 2522 4750 
Q 3503 4750 4090 4092 
Q 4678 3434 4678 2328 
Q 4678 1516 4351 937 
Q 4025 359 3406 84 
z
" transform="scale(0.015625)"/>
       <path id="DejaVuSans-20" transform="scale(0.015625)"/>
       <path id="DejaVuSans-5b" d="M 550 4863 
L 1875 4863 
L 1875 4416 
L 1125 4416 
L 1125 -397 
L 1875 -397 
L 1875 -844 
L 550 -844 
L 550 4863 
z
" transform="scale(0.015625)"/>
       <path id="DejaVuSans-2f" d="M 1625 4666 
L 2156 4666 
L 531 -594 
L 0 -594 
L 1625 4666 
z
" transform="scale(0.015625)"/>
       <path id="DejaVuSans-c5" d="M 2663 5081 
Q 2663 5278 2523 5417 
Q 2384 5556 2188 5556 
Q 1988 5556 1852 5420 
Q 1716 5284 1716 5081 
Q 1716 4884 1853 4746 
Q 1991 4609 2188 4609 
Q 2384 4609 2523 4746 
Q 2663 4884 2663 5081 
z
M 2188 4044 
L 1338 1722 
L 3041 1722 
L 2188 4044 
z
M 1716 4366 
Q 1525 4494 1428 4673 
Q 1331 4853 1331 5081 
Q 1331 5441 1579 5691 
Q 1828 5941 2188 5941 
Q 2544 5941 2795 5689 
Q 3047 5438 3047 5081 
Q 3047 4863 2948 4678 
Q 2850 4494 2663 4366 
L 4325 0 
L 3669 0 
L 3244 1197 
L 1141 1197 
L 716 0 
L 50 0 
L 1716 4366 
z
" transform="scale(0.015625)"/>
       <path id="DejaVuSans-5d" d="M 1947 4863 
L 1947 -844 
L 622 -844 
L 622 -397 
L 1369 -397 
L 1369 4416 
L 622 4416 
L 622 4863 
L 1947 4863 
z
" transform="scale(0.015625)"/>
      </defs>
      <use xlink:href="#DejaVuSans-51"/>
      <use xlink:href="#DejaVuSans-20" x="78.710938"/>
      <use xlink:href="#DejaVuSans-5b" x="110.498047"/>
      <use xlink:href="#DejaVuSans-31" x="149.511719"/>
      <use xlink:href="#DejaVuSans-2f" x="213.134766"/>
      <use xlink:href="#DejaVuSans-c5" x="246.826172"/>
      <use xlink:href="#DejaVuSans-5d" x="315.234375"/>
     </g>
    </g>
   </g>
   <g id="matplotlib.axis_2">
    <g id="ytick_1">
     <g id="line2d_18">
      <defs>
       <path id="m961582632e" d="M 0 0 
L -3.5 0 
" style="stroke: #000000; stroke-width: 0.8"/>
      </defs>
      <g>
       <use xlink:href="#m961582632e" x="45.478125" y="214.652351" style="stroke: #000000; stroke-width: 0.8"/>
      </g>
     </g>
     <g id="text_4">
      <!-- $\mathdefault{10^{0}}$ -->
      <g transform="translate(20.878125 218.451569) scale(0.1 -0.1)">
       <use xlink:href="#DejaVuSans-31" transform="translate(0 0.765625)"/>
       <use xlink:href="#DejaVuSans-30" transform="translate(63.623047 0.765625)"/>
       <use xlink:href="#DejaVuSans-30" transform="translate(128.203125 39.046875) scale(0.7)"/>
      </g>
     </g>
    </g>
    <g id="ytick_2">
     <g id="line2d_19">
      <g>
       <use xlink:href="#m961582632e" x="45.478125" y="140.415154" style="stroke: #000000; stroke-width: 0.8"/>
      </g>
     </g>
     <g id="text_5">
      <!-- $\mathdefault{10^{1}}$ -->
      <g transform="translate(20.878125 144.214372) scale(0.1 -0.1)">
       <use xlink:href="#DejaVuSans-31" transform="translate(0 0.684375)"/>
       <use xlink:href="#DejaVuSans-30" transform="translate(63.623047 0.684375)"/>
       <use xlink:href="#DejaVuSans-31" transform="translate(128.203125 38.965625) scale(0.7)"/>
      </g>
     </g>
    </g>
    <g id="ytick_3">
     <g id="line2d_20">
      <g>
       <use xlink:href="#m961582632e" x="45.478125" y="66.177957" style="stroke: #000000; stroke-width: 0.8"/>
      </g>
     </g>
     <g id="text_6">
      <!-- $\mathdefault{10^{2}}$ -->
      <g transform="translate(20.878125 69.977176) scale(0.1 -0.1)">
       <use xlink:href="#DejaVuSans-31" transform="translate(0 0.765625)"/>
       <use xlink:href="#DejaVuSans-30" transform="translate(63.623047 0.765625)"/>
       <use xlink:href="#DejaVuSans-32" transform="translate(128.203125 39.046875) scale(0.7)"/>
      </g>
     </g>
    </g>
    <g id="ytick_4">
     <g id="line2d_21">
      <defs>
       <path id="m2e644a923a" d="M 0 0 
L -2 0 
" style="stroke: #000000; stroke-width: 0.6"/>
      </defs>
      <g>
       <use xlink:href="#m2e644a923a" x="45.478125" y="236.999974" style="stroke: #000000; stroke-width: 0.6"/>
      </g>
     </g>
    </g>
    <g id="ytick_5">
     <g id="line2d_22">
      <g>
       <use xlink:href="#m2e644a923a" x="45.478125" y="231.12178" style="stroke: #000000; stroke-width: 0.6"/>
      </g>
     </g>
    </g>
    <g id="ytick_6">
     <g id="line2d_23">
      <g>
       <use xlink:href="#m2e644a923a" x="45.478125" y="226.151838" style="stroke: #000000; stroke-width: 0.6"/>
      </g>
     </g>
    </g>
    <g id="ytick_7">
     <g id="line2d_24">
      <g>
       <use xlink:href="#m2e644a923a" x="45.478125" y="221.846678" style="stroke: #000000; stroke-width: 0.6"/>
      </g>
     </g>
    </g>
    <g id="ytick_8">
     <g id="line2d_25">
      <g>
       <use xlink:href="#m2e644a923a" x="45.478125" y="218.049258" style="stroke: #000000; stroke-width: 0.6"/>
      </g>
     </g>
    </g>
    <g id="ytick_9">
     <g id="line2d_26">
      <g>
       <use xlink:href="#m2e644a923a" x="45.478125" y="192.304728" style="stroke: #000000; stroke-width: 0.6"/>
      </g>
     </g>
    </g>
    <g id="ytick_10">
     <g id="line2d_27">
      <g>
       <use xlink:href="#m2e644a923a" x="45.478125" y="179.232206" style="stroke: #000000; stroke-width: 0.6"/>
      </g>
     </g>
    </g>
    <g id="ytick_11">
     <g id="line2d_28">
      <g>
       <use xlink:href="#m2e644a923a" x="45.478125" y="169.957104" style="stroke: #000000; stroke-width: 0.6"/>
      </g>
     </g>
    </g>
    <g id="ytick_12">
     <g id="line2d_29">
      <g>
       <use xlink:href="#m2e644a923a" x="45.478125" y="162.762777" style="stroke: #000000; stroke-width: 0.6"/>
      </g>
     </g>
    </g>
    <g id="ytick_13">
     <g id="line2d_30">
      <g>
       <use xlink:href="#m2e644a923a" x="45.478125" y="156.884583" style="stroke: #000000; stroke-width: 0.6"/>
      </g>
     </g>
    </g>
    <g id="ytick_14">
     <g id="line2d_31">
      <g>
       <use xlink:href="#m2e644a923a" x="45.478125" y="151.914641" style="stroke: #000000; stroke-width: 0.6"/>
      </g>
     </g>
    </g>
    <g id="ytick_15">
     <g id="line2d_32">
      <g>
       <use xlink:href="#m2e644a923a" x="45.478125" y="147.609481" style="stroke: #000000; stroke-width: 0.6"/>
      </g>
     </g>
    </g>
    <g id="ytick_16">
     <g id="line2d_33">
      <g>
       <use xlink:href="#m2e644a923a" x="45.478125" y="143.812062" style="stroke: #000000; stroke-width: 0.6"/>
      </g>
     </g>
    </g>
    <g id="ytick_17">
     <g id="line2d_34">
      <g>
       <use xlink:href="#m2e644a923a" x="45.478125" y="118.067531" style="stroke: #000000; stroke-width: 0.6"/>
      </g>
     </g>
    </g>
    <g id="ytick_18">
     <g id="line2d_35">
      <g>
       <use xlink:href="#m2e644a923a" x="45.478125" y="104.995009" style="stroke: #000000; stroke-width: 0.6"/>
      </g>
     </g>
    </g>
    <g id="ytick_19">
     <g id="line2d_36">
      <g>
       <use xlink:href="#m2e644a923a" x="45.478125" y="95.719908" style="stroke: #000000; stroke-width: 0.6"/>
      </g>
     </g>
    </g>
    <g id="ytick_20">
     <g id="line2d_37">
      <g>
       <use xlink:href="#m2e644a923a" x="45.478125" y="88.52558" style="stroke: #000000; stroke-width: 0.6"/>
      </g>
     </g>
    </g>
    <g id="ytick_21">
     <g id="line2d_38">
      <g>
       <use xlink:href="#m2e644a923a" x="45.478125" y="82.647386" style="stroke: #000000; stroke-width: 0.6"/>
      </g>
     </g>
    </g>
    <g id="ytick_22">
     <g id="line2d_39">
      <g>
       <use xlink:href="#m2e644a923a" x="45.478125" y="77.677444" style="stroke: #000000; stroke-width: 0.6"/>
      </g>
     </g>
    </g>
    <g id="ytick_23">
     <g id="line2d_40">
      <g>
       <use xlink:href="#m2e644a923a" x="45.478125" y="73.372285" style="stroke: #000000; stroke-width: 0.6"/>
      </g>
     </g>
    </g>
    <g id="ytick_24">
     <g id="line2d_41">
      <g>
       <use xlink:href="#m2e644a923a" x="45.478125" y="69.574865" style="stroke: #000000; stroke-width: 0.6"/>
      </g>
     </g>
    </g>
    <g id="ytick_25">
     <g id="line2d_42">
      <g>
       <use xlink:href="#m2e644a923a" x="45.478125" y="43.830334" style="stroke: #000000; stroke-width: 0.6"/>
      </g>
     </g>
    </g>
    <g id="ytick_26">
     <g id="line2d_43">
      <g>
       <use xlink:href="#m2e644a923a" x="45.478125" y="30.757812" style="stroke: #000000; stroke-width: 0.6"/>
      </g>
     </g>
    </g>
    <g id="ytick_27">
     <g id="line2d_44">
      <g>
       <use xlink:href="#m2e644a923a" x="45.478125" y="21.482711" style="stroke: #000000; stroke-width: 0.6"/>
      </g>
     </g>
    </g>
    <g id="ytick_28">
     <g id="line2d_45">
      <g>
       <use xlink:href="#m2e644a923a" x="45.478125" y="14.288383" style="stroke: #000000; stroke-width: 0.6"/>
      </g>
     </g>
    </g>
    <g id="ytick_29">
     <g id="line2d_46">
      <g>
       <use xlink:href="#m2e644a923a" x="45.478125" y="8.410189" style="stroke: #000000; stroke-width: 0.6"/>
      </g>
     </g>
    </g>
    <g id="text_7">
     <!-- [dimensionless] -->
     <g transform="translate(14.798438 162.247594) rotate(-90) scale(0.1 -0.1)">
      <defs>
       <path id="DejaVuSans-64" d="M 2906 2969 
L 2906 4863 
L 3481 4863 
L 3481 0 
L 2906 0 
L 2906 525 
Q 2725 213 2448 61 
Q 2172 -91 1784 -91 
Q 1150 -91 751 415 
Q 353 922 353 1747 
Q 353 2572 751 3078 
Q 1150 3584 1784 3584 
Q 2172 3584 2448 3432 
Q 2725 3281 2906 2969 
z
M 947 1747 
Q 947 1113 1208 752 
Q 1469 391 1925 391 
Q 2381 391 2643 752 
Q 2906 1113 2906 1747 
Q 2906 2381 2643 2742 
Q 2381 3103 1925 3103 
Q 1469 3103 1208 2742 
Q 947 2381 947 1747 
z
" transform="scale(0.015625)"/>
       <path id="DejaVuSans-69" d="M 603 3500 
L 1178 3500 
L 1178 0 
L 603 0 
L 603 3500 
z
M 603 4863 
L 1178 4863 
L 1178 4134 
L 603 4134 
L 603 4863 
z
" transform="scale(0.015625)"/>
       <path id="DejaVuSans-6d" d="M 3328 2828 
Q 3544 3216 3844 3400 
Q 4144 3584 4550 3584 
Q 5097 3584 5394 3201 
Q 5691 2819 5691 2113 
L 5691 0 
L 5113 0 
L 5113 2094 
Q 5113 2597 4934 2840 
Q 4756 3084 4391 3084 
Q 3944 3084 3684 2787 
Q 3425 2491 3425 1978 
L 3425 0 
L 2847 0 
L 2847 2094 
Q 2847 2600 2669 2842 
Q 2491 3084 2119 3084 
Q 1678 3084 1418 2786 
Q 1159 2488 1159 1978 
L 1159 0 
L 581 0 
L 581 3500 
L 1159 3500 
L 1159 2956 
Q 1356 3278 1631 3431 
Q 1906 3584 2284 3584 
Q 2666 3584 2933 3390 
Q 3200 3197 3328 2828 
z
" transform="scale(0.015625)"/>
       <path id="DejaVuSans-65" d="M 3597 1894 
L 3597 1613 
L 953 1613 
Q 991 1019 1311 708 
Q 1631 397 2203 397 
Q 2534 397 2845 478 
Q 3156 559 3463 722 
L 3463 178 
Q 3153 47 2828 -22 
Q 2503 -91 2169 -91 
Q 1331 -91 842 396 
Q 353 884 353 1716 
Q 353 2575 817 3079 
Q 1281 3584 2069 3584 
Q 2775 3584 3186 3129 
Q 3597 2675 3597 1894 
z
M 3022 2063 
Q 3016 2534 2758 2815 
Q 2500 3097 2075 3097 
Q 1594 3097 1305 2825 
Q 1016 2553 972 2059 
L 3022 2063 
z
" transform="scale(0.015625)"/>
       <path id="DejaVuSans-6e" d="M 3513 2113 
L 3513 0 
L 2938 0 
L 2938 2094 
Q 2938 2591 2744 2837 
Q 2550 3084 2163 3084 
Q 1697 3084 1428 2787 
Q 1159 2491 1159 1978 
L 1159 0 
L 581 0 
L 581 3500 
L 1159 3500 
L 1159 2956 
Q 1366 3272 1645 3428 
Q 1925 3584 2291 3584 
Q 2894 3584 3203 3211 
Q 3513 2838 3513 2113 
z
" transform="scale(0.015625)"/>
       <path id="DejaVuSans-73" d="M 2834 3397 
L 2834 2853 
Q 2591 2978 2328 3040 
Q 2066 3103 1784 3103 
Q 1356 3103 1142 2972 
Q 928 2841 928 2578 
Q 928 2378 1081 2264 
Q 1234 2150 1697 2047 
L 1894 2003 
Q 2506 1872 2764 1633 
Q 3022 1394 3022 966 
Q 3022 478 2636 193 
Q 2250 -91 1575 -91 
Q 1294 -91 989 -36 
Q 684 19 347 128 
L 347 722 
Q 666 556 975 473 
Q 1284 391 1588 391 
Q 1994 391 2212 530 
Q 2431 669 2431 922 
Q 2431 1156 2273 1281 
Q 2116 1406 1581 1522 
L 1381 1569 
Q 847 1681 609 1914 
Q 372 2147 372 2553 
Q 372 3047 722 3315 
Q 1072 3584 1716 3584 
Q 2034 3584 2315 3537 
Q 2597 3491 2834 3397 
z
" transform="scale(0.015625)"/>
       <path id="DejaVuSans-6f" d="M 1959 3097 
Q 1497 3097 1228 2736 
Q 959 2375 959 1747 
Q 959 1119 1226 758 
Q 1494 397 1959 397 
Q 2419 397 2687 759 
Q 2956 1122 2956 1747 
Q 2956 2369 2687 2733 
Q 2419 3097 1959 3097 
z
M 1959 3584 
Q 2709 3584 3137 3096 
Q 3566 2609 3566 1747 
Q 3566 888 3137 398 
Q 2709 -91 1959 -91 
Q 1206 -91 779 398 
Q 353 888 353 1747 
Q 353 2609 779 3096 
Q 1206 3584 1959 3584 
z
" transform="scale(0.015625)"/>
       <path id="DejaVuSans-6c" d="M 603 4863 
L 1178 4863 
L 1178 0 
L 603 0 
L 603 4863 
z
" transform="scale(0.015625)"/>
      </defs>
      <use xlink:href="#DejaVuSans-5b"/>
      <use xlink:href="#DejaVuSans-64" x="39.013672"/>
      <use xlink:href="#DejaVuSans-69" x="102.490234"/>
      <use xlink:href="#DejaVuSans-6d" x="130.273438"/>
      <use xlink:href="#DejaVuSans-65" x="227.685547"/>
      <use xlink:href="#DejaVuSans-6e" x="289.208984"/>
      <use xlink:href="#DejaVuSans-73" x="352.587891"/>
      <use xlink:href="#DejaVuSans-69" x="404.6875"/>
      <use xlink:href="#DejaVuSans-6f" x="432.470703"/>
      <use xlink:href="#DejaVuSans-6e" x="493.652344"/>
      <use xlink:href="#DejaVuSans-6c" x="557.03125"/>
      <use xlink:href="#DejaVuSans-65" x="584.814453"/>
      <use xlink:href="#DejaVuSans-73" x="646.337891"/>
      <use xlink:href="#DejaVuSans-73" x="698.4375"/>
      <use xlink:href="#DejaVuSans-5d" x="750.537109"/>
     </g>
    </g>
   </g>
   <g id="patch_3">
    <path d="M 45.478125 238.3405 
L 45.478125 7.2 
" style="fill: none; stroke: #000000; stroke-width: 0.8; stroke-linejoin: miter; stroke-linecap: square"/>
   </g>
   <g id="patch_4">
    <path d="M 416.58544 238.3405 
L 416.58544 7.2 
" style="fill: none; stroke: #000000; stroke-width: 0.8; stroke-linejoin: miter; stroke-linecap: square"/>
   </g>
   <g id="patch_5">
    <path d="M 45.478125 238.3405 
L 416.58544 238.3405 
" style="fill: none; stroke: #000000; stroke-width: 0.8; stroke-linejoin: miter; stroke-linecap: square"/>
   </g>
   <g id="patch_6">
    <path d="M 45.478125 7.2 
L 416.58544 7.2 
" style="fill: none; stroke: #000000; stroke-width: 0.8; stroke-linejoin: miter; stroke-linecap: square"/>
   </g>
   <g id="line2d_47">
    <path d="M 62.346639 49.92869 
L 62.346639 49.92869 
L 118.771804 49.92869 
L 118.771804 46.448534 
L 151.950628 46.448534 
L 151.950628 42.226786 
L 175.53956 42.226786 
L 175.53956 36.965437 
L 193.856822 36.965437 
L 193.856822 29.315708 
L 208.833544 29.315708 
L 208.833544 21.685524 
L 221.502256 21.685524 
L 221.502256 17.792545 
L 232.480239 17.792545 
L 232.480239 22.777939 
L 242.166096 22.777939 
L 242.166096 37.412099 
L 250.832217 37.412099 
L 250.832217 56.138746 
L 258.673014 56.138746 
L 258.673014 74.269587 
L 265.832108 74.269587 
L 265.832108 89.942727 
L 272.418614 89.942727 
L 272.418614 102.484333 
L 278.51738 102.484333 
L 278.51738 111.719021 
L 284.195688 111.719021 
L 284.195688 117.859416 
L 289.507791 117.859416 
L 289.507791 120.670007 
L 294.498075 120.670007 
L 294.498075 122.417893 
L 299.203317 122.417893 
L 299.203317 122.956366 
L 303.654327 122.956366 
L 303.654327 123.202585 
L 307.877176 123.202585 
L 307.877176 123.765027 
L 311.894119 123.765027 
L 311.894119 124.645857 
L 315.724306 124.645857 
L 315.724306 124.709555 
L 319.384333 124.709555 
L 319.384333 124.990554 
L 322.888678 124.990554 
L 322.888678 125.553442 
L 326.250048 125.553442 
L 326.250048 126.073664 
L 329.479652 126.073664 
L 329.479652 126.383229 
L 332.587433 126.383229 
L 332.587433 127.157692 
L 335.582247 127.157692 
L 335.582247 126.855396 
L 338.472021 126.855396 
L 338.472021 127.370465 
L 341.263874 127.370465 
L 341.263874 127.502618 
L 343.964225 127.502618 
L 343.964225 127.166663 
L 346.578882 127.166663 
L 346.578882 126.495583 
L 349.113117 126.495583 
L 349.113117 127.92841 
L 351.57173 127.92841 
L 351.57173 126.630223 
L 353.959104 126.630223 
L 353.959104 127.191921 
L 356.279251 127.191921 
L 356.279251 127.33092 
L 358.535853 127.33092 
L 358.535853 126.850507 
L 360.7323 126.850507 
L 360.7323 127.260245 
L 362.871714 127.260245 
L 362.871714 128.139058 
L 364.956984 128.139058 
L 364.956984 127.052439 
L 366.990782 127.052439 
L 366.990782 128.650429 
L 368.975588 128.650429 
L 368.975588 129.430808 
L 370.913706 129.430808 
L 370.913706 128.320011 
L 372.807284 128.320011 
L 372.807284 127.676064 
L 374.658322 127.676064 
L 374.658322 127.964783 
L 376.468689 127.964783 
L 376.468689 127.170275 
L 378.240135 127.170275 
L 378.240135 130.95496 
L 379.974298 130.95496 
L 379.974298 135.144478 
L 381.672715 135.144478 
L 381.672715 128.539004 
L 383.33683 128.539004 
L 383.33683 129.520916 
L 384.968002 129.520916 
L 384.968002 134.560947 
L 386.567508 134.560947 
L 386.567508 130.15547 
L 388.136555 130.15547 
L 388.136555 128.964219 
L 389.676282 128.964219 
L 389.676282 132.181729 
L 391.187765 132.181729 
L 391.187765 125.344117 
L 392.67202 125.344117 
L 392.67202 122.375199 
L 394.130012 122.375199 
L 394.130012 127.281039 
L 395.562653 127.281039 
L 395.562653 132.333271 
L 396.970811 132.333271 
L 396.970811 131.228089 
L 398.355308 131.228089 
L 398.355308 149.51742 
L 399.716926 149.51742 
" clip-path="url(#pd928df3750)" style="fill: none; stroke: #1f77b4; stroke-width: 1.5; stroke-linecap: square"/>
   </g>
   <g id="LineCollection_1">
    <path d="M 95.297548 50.149617 
L 95.297548 49.709268 
" clip-path="url(#pd928df3750)" style="fill: none; stroke: #1f77b4; stroke-width: 1.5"/>
    <path d="M 137.020028 46.60341 
L 137.020028 46.294398 
" clip-path="url(#pd928df3750)" style="fill: none; stroke: #1f77b4; stroke-width: 1.5"/>
    <path d="M 164.586347 42.353939 
L 164.586347 42.100132 
" clip-path="url(#pd928df3750)" style="fill: none; stroke: #1f77b4; stroke-width: 1.5"/>
    <path d="M 185.206136 37.075597 
L 185.206136 36.855653 
" clip-path="url(#pd928df3750)" style="fill: none; stroke: #1f77b4; stroke-width: 1.5"/>
    <path d="M 201.684984 29.414066 
L 201.684984 29.217648 
" clip-path="url(#pd928df3750)" style="fill: none; stroke: #1f77b4; stroke-width: 1.5"/>
    <path d="M 215.411134 21.776062 
L 215.411134 21.595239 
" clip-path="url(#pd928df3750)" style="fill: none; stroke: #1f77b4; stroke-width: 1.5"/>
    <path d="M 227.173936 17.878935 
L 227.173936 17.706386 
" clip-path="url(#pd928df3750)" style="fill: none; stroke: #1f77b4; stroke-width: 1.5"/>
    <path d="M 237.465405 22.863761 
L 237.465405 22.692343 
" clip-path="url(#pd928df3750)" style="fill: none; stroke: #1f77b4; stroke-width: 1.5"/>
    <path d="M 246.613034 37.501692 
L 246.613034 37.322755 
" clip-path="url(#pd928df3750)" style="fill: none; stroke: #1f77b4; stroke-width: 1.5"/>
    <path d="M 254.845843 56.234839 
L 254.845843 56.042938 
" clip-path="url(#pd928df3750)" style="fill: none; stroke: #1f77b4; stroke-width: 1.5"/>
    <path d="M 262.330287 74.378062 
L 262.330287 74.161475 
" clip-path="url(#pd928df3750)" style="fill: none; stroke: #1f77b4; stroke-width: 1.5"/>
    <path d="M 269.191154 90.067376 
L 269.191154 89.818558 
" clip-path="url(#pd928df3750)" style="fill: none; stroke: #1f77b4; stroke-width: 1.5"/>
    <path d="M 275.524409 102.627389 
L 275.524409 102.34191 
" clip-path="url(#pd928df3750)" style="fill: none; stroke: #1f77b4; stroke-width: 1.5"/>
    <path d="M 281.405437 111.881152 
L 281.405437 111.557702 
" clip-path="url(#pd928df3750)" style="fill: none; stroke: #1f77b4; stroke-width: 1.5"/>
    <path d="M 286.894539 118.038783 
L 286.894539 117.681041 
" clip-path="url(#pd928df3750)" style="fill: none; stroke: #1f77b4; stroke-width: 1.5"/>
    <path d="M 292.040705 120.860772 
L 292.040705 120.480365 
" clip-path="url(#pd928df3750)" style="fill: none; stroke: #1f77b4; stroke-width: 1.5"/>
    <path d="M 296.884277 122.618931 
L 296.884277 122.2181 
" clip-path="url(#pd928df3750)" style="fill: none; stroke: #1f77b4; stroke-width: 1.5"/>
    <path d="M 301.458873 123.165288 
L 301.458873 122.748789 
" clip-path="url(#pd928df3750)" style="fill: none; stroke: #1f77b4; stroke-width: 1.5"/>
    <path d="M 305.792801 123.42067 
L 305.792801 122.985965 
" clip-path="url(#pd928df3750)" style="fill: none; stroke: #1f77b4; stroke-width: 1.5"/>
    <path d="M 309.910124 123.994408 
L 309.910124 123.537267 
" clip-path="url(#pd928df3750)" style="fill: none; stroke: #1f77b4; stroke-width: 1.5"/>
    <path d="M 313.831466 124.888572 
L 313.831466 124.404955 
" clip-path="url(#pd928df3750)" style="fill: none; stroke: #1f77b4; stroke-width: 1.5"/>
    <path d="M 317.574639 124.964696 
L 317.574639 124.456418 
" clip-path="url(#pd928df3750)" style="fill: none; stroke: #1f77b4; stroke-width: 1.5"/>
    <path d="M 321.155134 125.260035 
L 321.155134 124.723306 
" clip-path="url(#pd928df3750)" style="fill: none; stroke: #1f77b4; stroke-width: 1.5"/>
    <path d="M 324.586502 125.840874 
L 324.586502 125.268549 
" clip-path="url(#pd928df3750)" style="fill: none; stroke: #1f77b4; stroke-width: 1.5"/>
    <path d="M 327.880672 126.378949 
L 327.880672 125.771242 
" clip-path="url(#pd928df3750)" style="fill: none; stroke: #1f77b4; stroke-width: 1.5"/>
    <path d="M 331.048193 126.707393 
L 331.048193 126.062293 
" clip-path="url(#pd928df3750)" style="fill: none; stroke: #1f77b4; stroke-width: 1.5"/>
    <path d="M 334.098445 127.504611 
L 334.098445 126.814468 
" clip-path="url(#pd928df3750)" style="fill: none; stroke: #1f77b4; stroke-width: 1.5"/>
    <path d="M 337.039802 127.223306 
L 337.039802 126.491638 
" clip-path="url(#pd928df3750)" style="fill: none; stroke: #1f77b4; stroke-width: 1.5"/>
    <path d="M 339.879771 127.766616 
L 339.879771 126.979122 
" clip-path="url(#pd928df3750)" style="fill: none; stroke: #1f77b4; stroke-width: 1.5"/>
    <path d="M 342.625111 127.929503 
L 342.625111 127.081311 
" clip-path="url(#pd928df3750)" style="fill: none; stroke: #1f77b4; stroke-width: 1.5"/>
    <path d="M 345.281924 127.629935 
L 345.281924 126.709954 
" clip-path="url(#pd928df3750)" style="fill: none; stroke: #1f77b4; stroke-width: 1.5"/>
    <path d="M 347.855742 126.996334 
L 347.855742 126.002491 
" clip-path="url(#pd928df3750)" style="fill: none; stroke: #1f77b4; stroke-width: 1.5"/>
    <path d="M 350.351593 128.491394 
L 350.351593 127.375089 
" clip-path="url(#pd928df3750)" style="fill: none; stroke: #1f77b4; stroke-width: 1.5"/>
    <path d="M 352.774063 127.246839 
L 352.774063 126.025179 
" clip-path="url(#pd928df3750)" style="fill: none; stroke: #1f77b4; stroke-width: 1.5"/>
    <path d="M 355.127343 127.881575 
L 355.127343 126.51671 
" clip-path="url(#pd928df3750)" style="fill: none; stroke: #1f77b4; stroke-width: 1.5"/>
    <path d="M 357.415277 128.088827 
L 357.415277 126.590422 
" clip-path="url(#pd928df3750)" style="fill: none; stroke: #1f77b4; stroke-width: 1.5"/>
    <path d="M 359.641395 127.686106 
L 359.641395 126.036019 
" clip-path="url(#pd928df3750)" style="fill: none; stroke: #1f77b4; stroke-width: 1.5"/>
    <path d="M 361.80895 128.178966 
L 361.80895 126.366981 
" clip-path="url(#pd928df3750)" style="fill: none; stroke: #1f77b4; stroke-width: 1.5"/>
    <path d="M 363.920946 129.14947 
L 363.920946 127.159352 
" clip-path="url(#pd928df3750)" style="fill: none; stroke: #1f77b4; stroke-width: 1.5"/>
    <path d="M 365.980158 128.145077 
L 365.980158 125.99562 
" clip-path="url(#pd928df3750)" style="fill: none; stroke: #1f77b4; stroke-width: 1.5"/>
    <path d="M 367.989161 129.856285 
L 367.989161 127.488052 
" clip-path="url(#pd928df3750)" style="fill: none; stroke: #1f77b4; stroke-width: 1.5"/>
    <path d="M 369.950345 130.744532 
L 369.950345 128.168525 
" clip-path="url(#pd928df3750)" style="fill: none; stroke: #1f77b4; stroke-width: 1.5"/>
    <path d="M 371.865934 129.754674 
L 371.865934 126.946478 
" clip-path="url(#pd928df3750)" style="fill: none; stroke: #1f77b4; stroke-width: 1.5"/>
    <path d="M 373.738 129.254062 
L 373.738 126.17171 
" clip-path="url(#pd928df3750)" style="fill: none; stroke: #1f77b4; stroke-width: 1.5"/>
    <path d="M 375.568477 129.756664 
L 375.568477 126.267269 
" clip-path="url(#pd928df3750)" style="fill: none; stroke: #1f77b4; stroke-width: 1.5"/>
    <path d="M 377.359173 129.158862 
L 377.359173 125.29725 
" clip-path="url(#pd928df3750)" style="fill: none; stroke: #1f77b4; stroke-width: 1.5"/>
    <path d="M 379.111779 133.286925 
L 379.111779 128.780349 
" clip-path="url(#pd928df3750)" style="fill: none; stroke: #1f77b4; stroke-width: 1.5"/>
    <path d="M 380.827883 137.855469 
L 380.827883 132.643868 
" clip-path="url(#pd928df3750)" style="fill: none; stroke: #1f77b4; stroke-width: 1.5"/>
    <path d="M 382.508974 131.316896 
L 382.508974 125.981586 
" clip-path="url(#pd928df3750)" style="fill: none; stroke: #1f77b4; stroke-width: 1.5"/>
    <path d="M 384.156452 132.643665 
L 384.156452 126.674098 
" clip-path="url(#pd928df3750)" style="fill: none; stroke: #1f77b4; stroke-width: 1.5"/>
    <path d="M 385.771636 138.532946 
L 385.771636 131.025054 
" clip-path="url(#pd928df3750)" style="fill: none; stroke: #1f77b4; stroke-width: 1.5"/>
    <path d="M 387.355766 134.249706 
L 387.355766 126.523061 
" clip-path="url(#pd928df3750)" style="fill: none; stroke: #1f77b4; stroke-width: 1.5"/>
    <path d="M 388.910015 133.308506 
L 388.910015 125.136399 
" clip-path="url(#pd928df3750)" style="fill: none; stroke: #1f77b4; stroke-width: 1.5"/>
    <path d="M 390.435489 137.216195 
L 390.435489 127.82826 
" clip-path="url(#pd928df3750)" style="fill: none; stroke: #1f77b4; stroke-width: 1.5"/>
    <path d="M 391.933234 130.762161 
L 391.933234 120.706922 
" clip-path="url(#pd928df3750)" style="fill: none; stroke: #1f77b4; stroke-width: 1.5"/>
    <path d="M 393.40424 128.602076 
L 393.40424 117.158487 
" clip-path="url(#pd928df3750)" style="fill: none; stroke: #1f77b4; stroke-width: 1.5"/>
    <path d="M 394.849446 136.148537 
L 394.849446 120.33377 
" clip-path="url(#pd928df3750)" style="fill: none; stroke: #1f77b4; stroke-width: 1.5"/>
    <path d="M 396.26974 144.248202 
L 396.26974 123.652933 
" clip-path="url(#pd928df3750)" style="fill: none; stroke: #1f77b4; stroke-width: 1.5"/>
    <path d="M 397.665967 154.41136 
L 397.665967 117.881764 
" clip-path="url(#pd928df3750)" style="fill: none; stroke: #1f77b4; stroke-width: 1.5"/>
    <path d="M 399.038929 227.834114 
L 399.038929 128.622481 
" clip-path="url(#pd928df3750)" style="fill: none; stroke: #1f77b4; stroke-width: 1.5"/>
   </g>
  </g>
 </g>
 <defs>
  <clipPath id="pd928df3750">
   <rect x="45.478125" y="7.2" width="371.107315" height="231.1405"/>
  </clipPath>
 </defs>
</svg>
