<?xml version="1.0" encoding="utf-8" standalone="no"?>
<!DOCTYPE svg PUBLIC "-//W3C//DTD SVG 1.1//EN"
  "http://www.w3.org/Graphics/SVG/1.1/DTD/svg11.dtd">
<svg xmlns:xlink="http://www.w3.org/1999/xlink" width="423.78544pt" height="280.132187pt" viewBox="0 0 423.78544 280.132187" xmlns="http://www.w3.org/2000/svg" version="1.1">
 <metadata>
  <rdf:RDF xmlns:dc="http://purl.org/dc/elements/1.1/" xmlns:cc="http://creativecommons.org/ns#" xmlns:rdf="http://www.w3.org/1999/02/22-rdf-syntax-ns#">
   <cc:Work>
    <dc:type rdf:resource="http://purl.org/dc/dcmitype/StillImage"/>
    <dc:date>2024-02-07T09:15:41.782174</dc:date>
    <dc:format>image/svg+xml</dc:format>
    <dc:creator>
     <cc:Agent>
      <dc:title>Matplotlib v3.8.2, https://matplotlib.org/</dc:title>
     </cc:Agent>
    </dc:creator>
   </cc:Work>
  </rdf:RDF>
 </metadata>
 <defs>
  <style type="text/css">*{stroke-linejoin: round; stroke-linecap: butt}</style>
 </defs>
 <g id="figure_1">
  <g id="patch_1">
   <path d="M 0 280.132187 
L 423.78544 280.132187 
L 423.78544 0 
L 0 0 
z
" style="fill: #ffffff"/>
  </g>
  <g id="axes_1">
   <g id="patch_2">
    <path d="M 45.478125 241.6525 
L 416.58544 241.6525 
L 416.58544 7.2 
L 45.478125 7.2 
z
" style="fill: #ffffff"/>
   </g>
   <g id="matplotlib.axis_1">
    <g id="xtick_1">
     <g id="line2d_1">
      <defs>
       <path id="m94aa06882c" d="M 0 0 
L 0 3.5 
" style="stroke: #000000; stroke-width: 0.8"/>
      </defs>
      <g>
       <use xlink:href="#m94aa06882c" x="56.628499" y="241.6525" style="stroke: #000000; stroke-width: 0.8"/>
      </g>
     </g>
     <g id="text_1">
      <!-- 0.0 -->
      <g transform="translate(48.676936 256.250937) scale(0.1 -0.1)">
       <defs>
        <path id="DejaVuSans-30" d="M 2034 4250 
Q 1547 4250 1301 3770 
Q 1056 3291 1056 2328 
Q 1056 1369 1301 889 
Q 1547 409 2034 409 
Q 2525 409 2770 889 
Q 3016 1369 3016 2328 
Q 3016 3291 2770 3770 
Q 2525 4250 2034 4250 
z
M 2034 4750 
Q 2819 4750 3233 4129 
Q 3647 3509 3647 2328 
Q 3647 1150 3233 529 
Q 2819 -91 2034 -91 
Q 1250 -91 836 529 
Q 422 1150 422 2328 
Q 422 3509 836 4129 
Q 1250 4750 2034 4750 
z
" transform="scale(0.015625)"/>
        <path id="DejaVuSans-2e" d="M 684 794 
L 1344 794 
L 1344 0 
L 684 0 
L 684 794 
z
" transform="scale(0.015625)"/>
       </defs>
       <use xlink:href="#DejaVuSans-30"/>
       <use xlink:href="#DejaVuSans-2e" x="63.623047"/>
       <use xlink:href="#DejaVuSans-30" x="95.410156"/>
      </g>
     </g>
    </g>
    <g id="xtick_2">
     <g id="line2d_2">
      <g>
       <use xlink:href="#m94aa06882c" x="113.809903" y="241.6525" style="stroke: #000000; stroke-width: 0.8"/>
      </g>
     </g>
     <g id="text_2">
      <!-- 0.1 -->
      <g transform="translate(105.858341 256.250937) scale(0.1 -0.1)">
       <defs>
        <path id="DejaVuSans-31" d="M 794 531 
L 1825 531 
L 1825 4091 
L 703 3866 
L 703 4441 
L 1819 4666 
L 2450 4666 
L 2450 531 
L 3481 531 
L 3481 0 
L 794 0 
L 794 531 
z
" transform="scale(0.015625)"/>
       </defs>
       <use xlink:href="#DejaVuSans-30"/>
       <use xlink:href="#DejaVuSans-2e" x="63.623047"/>
       <use xlink:href="#DejaVuSans-31" x="95.410156"/>
      </g>
     </g>
    </g>
    <g id="xtick_3">
     <g id="line2d_3">
      <g>
       <use xlink:href="#m94aa06882c" x="170.991308" y="241.6525" style="stroke: #000000; stroke-width: 0.8"/>
      </g>
     </g>
     <g id="text_3">
      <!-- 0.2 -->
      <g transform="translate(163.039745 256.250937) scale(0.1 -0.1)">
       <defs>
        <path id="DejaVuSans-32" d="M 1228 531 
L 3431 531 
L 3431 0 
L 469 0 
L 469 531 
Q 828 903 1448 1529 
Q 2069 2156 2228 2338 
Q 2531 2678 2651 2914 
Q 2772 3150 2772 3378 
Q 2772 3750 2511 3984 
Q 2250 4219 1831 4219 
Q 1534 4219 1204 4116 
Q 875 4013 500 3803 
L 500 4441 
Q 881 4594 1212 4672 
Q 1544 4750 1819 4750 
Q 2544 4750 2975 4387 
Q 3406 4025 3406 3419 
Q 3406 3131 3298 2873 
Q 3191 2616 2906 2266 
Q 2828 2175 2409 1742 
Q 1991 1309 1228 531 
z
" transform="scale(0.015625)"/>
       </defs>
       <use xlink:href="#DejaVuSans-30"/>
       <use xlink:href="#DejaVuSans-2e" x="63.623047"/>
       <use xlink:href="#DejaVuSans-32" x="95.410156"/>
      </g>
     </g>
    </g>
    <g id="xtick_4">
     <g id="line2d_4">
      <g>
       <use xlink:href="#m94aa06882c" x="228.172712" y="241.6525" style="stroke: #000000; stroke-width: 0.8"/>
      </g>
     </g>
     <g id="text_4">
      <!-- 0.3 -->
      <g transform="translate(220.22115 256.250937) scale(0.1 -0.1)">
       <defs>
        <path id="DejaVuSans-33" d="M 2597 2516 
Q 3050 2419 3304 2112 
Q 3559 1806 3559 1356 
Q 3559 666 3084 287 
Q 2609 -91 1734 -91 
Q 1441 -91 1130 -33 
Q 819 25 488 141 
L 488 750 
Q 750 597 1062 519 
Q 1375 441 1716 441 
Q 2309 441 2620 675 
Q 2931 909 2931 1356 
Q 2931 1769 2642 2001 
Q 2353 2234 1838 2234 
L 1294 2234 
L 1294 2753 
L 1863 2753 
Q 2328 2753 2575 2939 
Q 2822 3125 2822 3475 
Q 2822 3834 2567 4026 
Q 2313 4219 1838 4219 
Q 1578 4219 1281 4162 
Q 984 4106 628 3988 
L 628 4550 
Q 988 4650 1302 4700 
Q 1616 4750 1894 4750 
Q 2613 4750 3031 4423 
Q 3450 4097 3450 3541 
Q 3450 3153 3228 2886 
Q 3006 2619 2597 2516 
z
" transform="scale(0.015625)"/>
       </defs>
       <use xlink:href="#DejaVuSans-30"/>
       <use xlink:href="#DejaVuSans-2e" x="63.623047"/>
       <use xlink:href="#DejaVuSans-33" x="95.410156"/>
      </g>
     </g>
    </g>
    <g id="xtick_5">
     <g id="line2d_5">
      <g>
       <use xlink:href="#m94aa06882c" x="285.354117" y="241.6525" style="stroke: #000000; stroke-width: 0.8"/>
      </g>
     </g>
     <g id="text_5">
      <!-- 0.4 -->
      <g transform="translate(277.402554 256.250937) scale(0.1 -0.1)">
       <defs>
        <path id="DejaVuSans-34" d="M 2419 4116 
L 825 1625 
L 2419 1625 
L 2419 4116 
z
M 2253 4666 
L 3047 4666 
L 3047 1625 
L 3713 1625 
L 3713 1100 
L 3047 1100 
L 3047 0 
L 2419 0 
L 2419 1100 
L 313 1100 
L 313 1709 
L 2253 4666 
z
" transform="scale(0.015625)"/>
       </defs>
       <use xlink:href="#DejaVuSans-30"/>
       <use xlink:href="#DejaVuSans-2e" x="63.623047"/>
       <use xlink:href="#DejaVuSans-34" x="95.410156"/>
      </g>
     </g>
    </g>
    <g id="xtick_6">
     <g id="line2d_6">
      <g>
       <use xlink:href="#m94aa06882c" x="342.535521" y="241.6525" style="stroke: #000000; stroke-width: 0.8"/>
      </g>
     </g>
     <g id="text_6">
      <!-- 0.5 -->
      <g transform="translate(334.583959 256.250937) scale(0.1 -0.1)">
       <defs>
        <path id="DejaVuSans-35" d="M 691 4666 
L 3169 4666 
L 3169 4134 
L 1269 4134 
L 1269 2991 
Q 1406 3038 1543 3061 
Q 1681 3084 1819 3084 
Q 2600 3084 3056 2656 
Q 3513 2228 3513 1497 
Q 3513 744 3044 326 
Q 2575 -91 1722 -91 
Q 1428 -91 1123 -41 
Q 819 9 494 109 
L 494 744 
Q 775 591 1075 516 
Q 1375 441 1709 441 
Q 2250 441 2565 725 
Q 2881 1009 2881 1497 
Q 2881 1984 2565 2268 
Q 2250 2553 1709 2553 
Q 1456 2553 1204 2497 
Q 953 2441 691 2322 
L 691 4666 
z
" transform="scale(0.015625)"/>
       </defs>
       <use xlink:href="#DejaVuSans-30"/>
       <use xlink:href="#DejaVuSans-2e" x="63.623047"/>
       <use xlink:href="#DejaVuSans-35" x="95.410156"/>
      </g>
     </g>
    </g>
    <g id="xtick_7">
     <g id="line2d_7">
      <g>
       <use xlink:href="#m94aa06882c" x="399.716926" y="241.6525" style="stroke: #000000; stroke-width: 0.8"/>
      </g>
     </g>
     <g id="text_7">
      <!-- 0.6 -->
      <g transform="translate(391.765363 256.250937) scale(0.1 -0.1)">
       <defs>
        <path id="DejaVuSans-36" d="M 2113 2584 
Q 1688 2584 1439 2293 
Q 1191 2003 1191 1497 
Q 1191 994 1439 701 
Q 1688 409 2113 409 
Q 2538 409 2786 701 
Q 3034 994 3034 1497 
Q 3034 2003 2786 2293 
Q 2538 2584 2113 2584 
z
M 3366 4563 
L 3366 3988 
Q 3128 4100 2886 4159 
Q 2644 4219 2406 4219 
Q 1781 4219 1451 3797 
Q 1122 3375 1075 2522 
Q 1259 2794 1537 2939 
Q 1816 3084 2150 3084 
Q 2853 3084 3261 2657 
Q 3669 2231 3669 1497 
Q 3669 778 3244 343 
Q 2819 -91 2113 -91 
Q 1303 -91 875 529 
Q 447 1150 447 2328 
Q 447 3434 972 4092 
Q 1497 4750 2381 4750 
Q 2619 4750 2861 4703 
Q 3103 4656 3366 4563 
z
" transform="scale(0.015625)"/>
       </defs>
       <use xlink:href="#DejaVuSans-30"/>
       <use xlink:href="#DejaVuSans-2e" x="63.623047"/>
       <use xlink:href="#DejaVuSans-36" x="95.410156"/>
      </g>
     </g>
    </g>
    <g id="text_8">
     <!-- Q [1/Å] -->
     <g transform="translate(213.319283 270.8525) scale(0.1 -0.1)">
      <defs>
       <path id="DejaVuSans-51" d="M 2522 4238 
Q 1834 4238 1429 3725 
Q 1025 3213 1025 2328 
Q 1025 1447 1429 934 
Q 1834 422 2522 422 
Q 3209 422 3611 934 
Q 4013 1447 4013 2328 
Q 4013 3213 3611 3725 
Q 3209 4238 2522 4238 
z
M 3406 84 
L 4238 -825 
L 3475 -825 
L 2784 -78 
Q 2681 -84 2626 -87 
Q 2572 -91 2522 -91 
Q 1538 -91 948 567 
Q 359 1225 359 2328 
Q 359 3434 948 4092 
Q 1538 4750 2522 4750 
Q 3503 4750 4090 4092 
Q 4678 3434 4678 2328 
Q 4678 1516 4351 937 
Q 4025 359 3406 84 
z
" transform="scale(0.015625)"/>
       <path id="DejaVuSans-20" transform="scale(0.015625)"/>
       <path id="DejaVuSans-5b" d="M 550 4863 
L 1875 4863 
L 1875 4416 
L 1125 4416 
L 1125 -397 
L 1875 -397 
L 1875 -844 
L 550 -844 
L 550 4863 
z
" transform="scale(0.015625)"/>
       <path id="DejaVuSans-2f" d="M 1625 4666 
L 2156 4666 
L 531 -594 
L 0 -594 
L 1625 4666 
z
" transform="scale(0.015625)"/>
       <path id="DejaVuSans-c5" d="M 2663 5081 
Q 2663 5278 2523 5417 
Q 2384 5556 2188 5556 
Q 1988 5556 1852 5420 
Q 1716 5284 1716 5081 
Q 1716 4884 1853 4746 
Q 1991 4609 2188 4609 
Q 2384 4609 2523 4746 
Q 2663 4884 2663 5081 
z
M 2188 4044 
L 1338 1722 
L 3041 1722 
L 2188 4044 
z
M 1716 4366 
Q 1525 4494 1428 4673 
Q 1331 4853 1331 5081 
Q 1331 5441 1579 5691 
Q 1828 5941 2188 5941 
Q 2544 5941 2795 5689 
Q 3047 5438 3047 5081 
Q 3047 4863 2948 4678 
Q 2850 4494 2663 4366 
L 4325 0 
L 3669 0 
L 3244 1197 
L 1141 1197 
L 716 0 
L 50 0 
L 1716 4366 
z
" transform="scale(0.015625)"/>
       <path id="DejaVuSans-5d" d="M 1947 4863 
L 1947 -844 
L 622 -844 
L 622 -397 
L 1369 -397 
L 1369 4416 
L 622 4416 
L 622 4863 
L 1947 4863 
z
" transform="scale(0.015625)"/>
      </defs>
      <use xlink:href="#DejaVuSans-51"/>
      <use xlink:href="#DejaVuSans-20" x="78.710938"/>
      <use xlink:href="#DejaVuSans-5b" x="110.498047"/>
      <use xlink:href="#DejaVuSans-31" x="149.511719"/>
      <use xlink:href="#DejaVuSans-2f" x="213.134766"/>
      <use xlink:href="#DejaVuSans-c5" x="246.826172"/>
      <use xlink:href="#DejaVuSans-5d" x="315.234375"/>
     </g>
    </g>
   </g>
   <g id="matplotlib.axis_2">
    <g id="ytick_1">
     <g id="line2d_8">
      <defs>
       <path id="m89e47c34d4" d="M 0 0 
L -3.5 0 
" style="stroke: #000000; stroke-width: 0.8"/>
      </defs>
      <g>
       <use xlink:href="#m89e47c34d4" x="45.478125" y="230.975342" style="stroke: #000000; stroke-width: 0.8"/>
      </g>
     </g>
     <g id="text_9">
      <!-- $\mathdefault{10^{0}}$ -->
      <g transform="translate(20.878125 234.774561) scale(0.1 -0.1)">
       <use xlink:href="#DejaVuSans-31" transform="translate(0 0.765625)"/>
       <use xlink:href="#DejaVuSans-30" transform="translate(63.623047 0.765625)"/>
       <use xlink:href="#DejaVuSans-30" transform="translate(128.203125 39.046875) scale(0.7)"/>
      </g>
     </g>
    </g>
    <g id="ytick_2">
     <g id="line2d_9">
      <g>
       <use xlink:href="#m89e47c34d4" x="45.478125" y="137.890999" style="stroke: #000000; stroke-width: 0.8"/>
      </g>
     </g>
     <g id="text_10">
      <!-- $\mathdefault{10^{1}}$ -->
      <g transform="translate(20.878125 141.690217) scale(0.1 -0.1)">
       <use xlink:href="#DejaVuSans-31" transform="translate(0 0.684375)"/>
       <use xlink:href="#DejaVuSans-30" transform="translate(63.623047 0.684375)"/>
       <use xlink:href="#DejaVuSans-31" transform="translate(128.203125 38.965625) scale(0.7)"/>
      </g>
     </g>
    </g>
    <g id="ytick_3">
     <g id="line2d_10">
      <g>
       <use xlink:href="#m89e47c34d4" x="45.478125" y="44.806656" style="stroke: #000000; stroke-width: 0.8"/>
      </g>
     </g>
     <g id="text_11">
      <!-- $\mathdefault{10^{2}}$ -->
      <g transform="translate(20.878125 48.605874) scale(0.1 -0.1)">
       <use xlink:href="#DejaVuSans-31" transform="translate(0 0.765625)"/>
       <use xlink:href="#DejaVuSans-30" transform="translate(63.623047 0.765625)"/>
       <use xlink:href="#DejaVuSans-32" transform="translate(128.203125 39.046875) scale(0.7)"/>
      </g>
     </g>
    </g>
    <g id="ytick_4">
     <g id="line2d_11">
      <defs>
       <path id="m24a95e3f28" d="M 0 0 
L -2 0 
" style="stroke: #000000; stroke-width: 0.6"/>
      </defs>
      <g>
       <use xlink:href="#m24a95e3f28" x="45.478125" y="239.996147" style="stroke: #000000; stroke-width: 0.6"/>
      </g>
     </g>
    </g>
    <g id="ytick_5">
     <g id="line2d_12">
      <g>
       <use xlink:href="#m24a95e3f28" x="45.478125" y="235.234648" style="stroke: #000000; stroke-width: 0.6"/>
      </g>
     </g>
    </g>
    <g id="ytick_6">
     <g id="line2d_13">
      <g>
       <use xlink:href="#m24a95e3f28" x="45.478125" y="202.954162" style="stroke: #000000; stroke-width: 0.6"/>
      </g>
     </g>
    </g>
    <g id="ytick_7">
     <g id="line2d_14">
      <g>
       <use xlink:href="#m24a95e3f28" x="45.478125" y="186.562823" style="stroke: #000000; stroke-width: 0.6"/>
      </g>
     </g>
    </g>
    <g id="ytick_8">
     <g id="line2d_15">
      <g>
       <use xlink:href="#m24a95e3f28" x="45.478125" y="174.932983" style="stroke: #000000; stroke-width: 0.6"/>
      </g>
     </g>
    </g>
    <g id="ytick_9">
     <g id="line2d_16">
      <g>
       <use xlink:href="#m24a95e3f28" x="45.478125" y="165.912178" style="stroke: #000000; stroke-width: 0.6"/>
      </g>
     </g>
    </g>
    <g id="ytick_10">
     <g id="line2d_17">
      <g>
       <use xlink:href="#m24a95e3f28" x="45.478125" y="158.541644" style="stroke: #000000; stroke-width: 0.6"/>
      </g>
     </g>
    </g>
    <g id="ytick_11">
     <g id="line2d_18">
      <g>
       <use xlink:href="#m24a95e3f28" x="45.478125" y="152.309946" style="stroke: #000000; stroke-width: 0.6"/>
      </g>
     </g>
    </g>
    <g id="ytick_12">
     <g id="line2d_19">
      <g>
       <use xlink:href="#m24a95e3f28" x="45.478125" y="146.911804" style="stroke: #000000; stroke-width: 0.6"/>
      </g>
     </g>
    </g>
    <g id="ytick_13">
     <g id="line2d_20">
      <g>
       <use xlink:href="#m24a95e3f28" x="45.478125" y="142.150305" style="stroke: #000000; stroke-width: 0.6"/>
      </g>
     </g>
    </g>
    <g id="ytick_14">
     <g id="line2d_21">
      <g>
       <use xlink:href="#m24a95e3f28" x="45.478125" y="109.869819" style="stroke: #000000; stroke-width: 0.6"/>
      </g>
     </g>
    </g>
    <g id="ytick_15">
     <g id="line2d_22">
      <g>
       <use xlink:href="#m24a95e3f28" x="45.478125" y="93.47848" style="stroke: #000000; stroke-width: 0.6"/>
      </g>
     </g>
    </g>
    <g id="ytick_16">
     <g id="line2d_23">
      <g>
       <use xlink:href="#m24a95e3f28" x="45.478125" y="81.84864" style="stroke: #000000; stroke-width: 0.6"/>
      </g>
     </g>
    </g>
    <g id="ytick_17">
     <g id="line2d_24">
      <g>
       <use xlink:href="#m24a95e3f28" x="45.478125" y="72.827835" style="stroke: #000000; stroke-width: 0.6"/>
      </g>
     </g>
    </g>
    <g id="ytick_18">
     <g id="line2d_25">
      <g>
       <use xlink:href="#m24a95e3f28" x="45.478125" y="65.457301" style="stroke: #000000; stroke-width: 0.6"/>
      </g>
     </g>
    </g>
    <g id="ytick_19">
     <g id="line2d_26">
      <g>
       <use xlink:href="#m24a95e3f28" x="45.478125" y="59.225603" style="stroke: #000000; stroke-width: 0.6"/>
      </g>
     </g>
    </g>
    <g id="ytick_20">
     <g id="line2d_27">
      <g>
       <use xlink:href="#m24a95e3f28" x="45.478125" y="53.827461" style="stroke: #000000; stroke-width: 0.6"/>
      </g>
     </g>
    </g>
    <g id="ytick_21">
     <g id="line2d_28">
      <g>
       <use xlink:href="#m24a95e3f28" x="45.478125" y="49.065962" style="stroke: #000000; stroke-width: 0.6"/>
      </g>
     </g>
    </g>
    <g id="ytick_22">
     <g id="line2d_29">
      <g>
       <use xlink:href="#m24a95e3f28" x="45.478125" y="16.785476" style="stroke: #000000; stroke-width: 0.6"/>
      </g>
     </g>
    </g>
    <g id="text_12">
     <!-- [dimensionless] -->
     <g transform="translate(14.798438 163.903594) rotate(-90) scale(0.1 -0.1)">
      <defs>
       <path id="DejaVuSans-64" d="M 2906 2969 
L 2906 4863 
L 3481 4863 
L 3481 0 
L 2906 0 
L 2906 525 
Q 2725 213 2448 61 
Q 2172 -91 1784 -91 
Q 1150 -91 751 415 
Q 353 922 353 1747 
Q 353 2572 751 3078 
Q 1150 3584 1784 3584 
Q 2172 3584 2448 3432 
Q 2725 3281 2906 2969 
z
M 947 1747 
Q 947 1113 1208 752 
Q 1469 391 1925 391 
Q 2381 391 2643 752 
Q 2906 1113 2906 1747 
Q 2906 2381 2643 2742 
Q 2381 3103 1925 3103 
Q 1469 3103 1208 2742 
Q 947 2381 947 1747 
z
" transform="scale(0.015625)"/>
       <path id="DejaVuSans-69" d="M 603 3500 
L 1178 3500 
L 1178 0 
L 603 0 
L 603 3500 
z
M 603 4863 
L 1178 4863 
L 1178 4134 
L 603 4134 
L 603 4863 
z
" transform="scale(0.015625)"/>
       <path id="DejaVuSans-6d" d="M 3328 2828 
Q 3544 3216 3844 3400 
Q 4144 3584 4550 3584 
Q 5097 3584 5394 3201 
Q 5691 2819 5691 2113 
L 5691 0 
L 5113 0 
L 5113 2094 
Q 5113 2597 4934 2840 
Q 4756 3084 4391 3084 
Q 3944 3084 3684 2787 
Q 3425 2491 3425 1978 
L 3425 0 
L 2847 0 
L 2847 2094 
Q 2847 2600 2669 2842 
Q 2491 3084 2119 3084 
Q 1678 3084 1418 2786 
Q 1159 2488 1159 1978 
L 1159 0 
L 581 0 
L 581 3500 
L 1159 3500 
L 1159 2956 
Q 1356 3278 1631 3431 
Q 1906 3584 2284 3584 
Q 2666 3584 2933 3390 
Q 3200 3197 3328 2828 
z
" transform="scale(0.015625)"/>
       <path id="DejaVuSans-65" d="M 3597 1894 
L 3597 1613 
L 953 1613 
Q 991 1019 1311 708 
Q 1631 397 2203 397 
Q 2534 397 2845 478 
Q 3156 559 3463 722 
L 3463 178 
Q 3153 47 2828 -22 
Q 2503 -91 2169 -91 
Q 1331 -91 842 396 
Q 353 884 353 1716 
Q 353 2575 817 3079 
Q 1281 3584 2069 3584 
Q 2775 3584 3186 3129 
Q 3597 2675 3597 1894 
z
M 3022 2063 
Q 3016 2534 2758 2815 
Q 2500 3097 2075 3097 
Q 1594 3097 1305 2825 
Q 1016 2553 972 2059 
L 3022 2063 
z
" transform="scale(0.015625)"/>
       <path id="DejaVuSans-6e" d="M 3513 2113 
L 3513 0 
L 2938 0 
L 2938 2094 
Q 2938 2591 2744 2837 
Q 2550 3084 2163 3084 
Q 1697 3084 1428 2787 
Q 1159 2491 1159 1978 
L 1159 0 
L 581 0 
L 581 3500 
L 1159 3500 
L 1159 2956 
Q 1366 3272 1645 3428 
Q 1925 3584 2291 3584 
Q 2894 3584 3203 3211 
Q 3513 2838 3513 2113 
z
" transform="scale(0.015625)"/>
       <path id="DejaVuSans-73" d="M 2834 3397 
L 2834 2853 
Q 2591 2978 2328 3040 
Q 2066 3103 1784 3103 
Q 1356 3103 1142 2972 
Q 928 2841 928 2578 
Q 928 2378 1081 2264 
Q 1234 2150 1697 2047 
L 1894 2003 
Q 2506 1872 2764 1633 
Q 3022 1394 3022 966 
Q 3022 478 2636 193 
Q 2250 -91 1575 -91 
Q 1294 -91 989 -36 
Q 684 19 347 128 
L 347 722 
Q 666 556 975 473 
Q 1284 391 1588 391 
Q 1994 391 2212 530 
Q 2431 669 2431 922 
Q 2431 1156 2273 1281 
Q 2116 1406 1581 1522 
L 1381 1569 
Q 847 1681 609 1914 
Q 372 2147 372 2553 
Q 372 3047 722 3315 
Q 1072 3584 1716 3584 
Q 2034 3584 2315 3537 
Q 2597 3491 2834 3397 
z
" transform="scale(0.015625)"/>
       <path id="DejaVuSans-6f" d="M 1959 3097 
Q 1497 3097 1228 2736 
Q 959 2375 959 1747 
Q 959 1119 1226 758 
Q 1494 397 1959 397 
Q 2419 397 2687 759 
Q 2956 1122 2956 1747 
Q 2956 2369 2687 2733 
Q 2419 3097 1959 3097 
z
M 1959 3584 
Q 2709 3584 3137 3096 
Q 3566 2609 3566 1747 
Q 3566 888 3137 398 
Q 2709 -91 1959 -91 
Q 1206 -91 779 398 
Q 353 888 353 1747 
Q 353 2609 779 3096 
Q 1206 3584 1959 3584 
z
" transform="scale(0.015625)"/>
       <path id="DejaVuSans-6c" d="M 603 4863 
L 1178 4863 
L 1178 0 
L 603 0 
L 603 4863 
z
" transform="scale(0.015625)"/>
      </defs>
      <use xlink:href="#DejaVuSans-5b"/>
      <use xlink:href="#DejaVuSans-64" x="39.013672"/>
      <use xlink:href="#DejaVuSans-69" x="102.490234"/>
      <use xlink:href="#DejaVuSans-6d" x="130.273438"/>
      <use xlink:href="#DejaVuSans-65" x="227.685547"/>
      <use xlink:href="#DejaVuSans-6e" x="289.208984"/>
      <use xlink:href="#DejaVuSans-73" x="352.587891"/>
      <use xlink:href="#DejaVuSans-69" x="404.6875"/>
      <use xlink:href="#DejaVuSans-6f" x="432.470703"/>
      <use xlink:href="#DejaVuSans-6e" x="493.652344"/>
      <use xlink:href="#DejaVuSans-6c" x="557.03125"/>
      <use xlink:href="#DejaVuSans-65" x="584.814453"/>
      <use xlink:href="#DejaVuSans-73" x="646.337891"/>
      <use xlink:href="#DejaVuSans-73" x="698.4375"/>
      <use xlink:href="#DejaVuSans-5d" x="750.537109"/>
     </g>
    </g>
   </g>
   <g id="patch_3">
    <path d="M 45.478125 241.6525 
L 45.478125 7.2 
" style="fill: none; stroke: #000000; stroke-width: 0.8; stroke-linejoin: miter; stroke-linecap: square"/>
   </g>
   <g id="patch_4">
    <path d="M 416.58544 241.6525 
L 416.58544 7.2 
" style="fill: none; stroke: #000000; stroke-width: 0.8; stroke-linejoin: miter; stroke-linecap: square"/>
   </g>
   <g id="patch_5">
    <path d="M 45.478125 241.6525 
L 416.58544 241.6525 
" style="fill: none; stroke: #000000; stroke-width: 0.8; stroke-linejoin: miter; stroke-linecap: square"/>
   </g>
   <g id="patch_6">
    <path d="M 45.478125 7.2 
L 416.58544 7.2 
" style="fill: none; stroke: #000000; stroke-width: 0.8; stroke-linejoin: miter; stroke-linecap: square"/>
   </g>
   <g id="legend_1">
    <g id="patch_7">
     <path d="M 311.796378 44.834375 
L 409.58544 44.834375 
Q 411.58544 44.834375 411.58544 42.834375 
L 411.58544 14.2 
Q 411.58544 12.2 409.58544 12.2 
L 311.796378 12.2 
Q 309.796378 12.2 309.796378 14.2 
L 309.796378 42.834375 
Q 309.796378 44.834375 311.796378 44.834375 
z
" style="fill: #ffffff; opacity: 0.8; stroke: #cccccc; stroke-linejoin: miter"/>
    </g>
    <g id="line2d_30">
     <path d="M 313.796378 20.298437 
L 313.796378 20.298437 
L 323.796378 20.298437 
L 323.796378 20.298437 
L 333.796378 20.298437 
" style="fill: none; stroke: #1f77b4; stroke-width: 1.5; stroke-linecap: square"/>
    </g>
    <g id="text_13">
     <!-- upper_bound -->
     <g transform="translate(341.796378 23.798437) scale(0.1 -0.1)">
      <defs>
       <path id="DejaVuSans-75" d="M 544 1381 
L 544 3500 
L 1119 3500 
L 1119 1403 
Q 1119 906 1312 657 
Q 1506 409 1894 409 
Q 2359 409 2629 706 
Q 2900 1003 2900 1516 
L 2900 3500 
L 3475 3500 
L 3475 0 
L 2900 0 
L 2900 538 
Q 2691 219 2414 64 
Q 2138 -91 1772 -91 
Q 1169 -91 856 284 
Q 544 659 544 1381 
z
M 1991 3584 
L 1991 3584 
z
" transform="scale(0.015625)"/>
       <path id="DejaVuSans-70" d="M 1159 525 
L 1159 -1331 
L 581 -1331 
L 581 3500 
L 1159 3500 
L 1159 2969 
Q 1341 3281 1617 3432 
Q 1894 3584 2278 3584 
Q 2916 3584 3314 3078 
Q 3713 2572 3713 1747 
Q 3713 922 3314 415 
Q 2916 -91 2278 -91 
Q 1894 -91 1617 61 
Q 1341 213 1159 525 
z
M 3116 1747 
Q 3116 2381 2855 2742 
Q 2594 3103 2138 3103 
Q 1681 3103 1420 2742 
Q 1159 2381 1159 1747 
Q 1159 1113 1420 752 
Q 1681 391 2138 391 
Q 2594 391 2855 752 
Q 3116 1113 3116 1747 
z
" transform="scale(0.015625)"/>
       <path id="DejaVuSans-72" d="M 2631 2963 
Q 2534 3019 2420 3045 
Q 2306 3072 2169 3072 
Q 1681 3072 1420 2755 
Q 1159 2438 1159 1844 
L 1159 0 
L 581 0 
L 581 3500 
L 1159 3500 
L 1159 2956 
Q 1341 3275 1631 3429 
Q 1922 3584 2338 3584 
Q 2397 3584 2469 3576 
Q 2541 3569 2628 3553 
L 2631 2963 
z
" transform="scale(0.015625)"/>
       <path id="DejaVuSans-5f" d="M 3263 -1063 
L 3263 -1509 
L -63 -1509 
L -63 -1063 
L 3263 -1063 
z
" transform="scale(0.015625)"/>
       <path id="DejaVuSans-62" d="M 3116 1747 
Q 3116 2381 2855 2742 
Q 2594 3103 2138 3103 
Q 1681 3103 1420 2742 
Q 1159 2381 1159 1747 
Q 1159 1113 1420 752 
Q 1681 391 2138 391 
Q 2594 391 2855 752 
Q 3116 1113 3116 1747 
z
M 1159 2969 
Q 1341 3281 1617 3432 
Q 1894 3584 2278 3584 
Q 2916 3584 3314 3078 
Q 3713 2572 3713 1747 
Q 3713 922 3314 415 
Q 2916 -91 2278 -91 
Q 1894 -91 1617 61 
Q 1341 213 1159 525 
L 1159 0 
L 581 0 
L 581 4863 
L 1159 4863 
L 1159 2969 
z
" transform="scale(0.015625)"/>
      </defs>
      <use xlink:href="#DejaVuSans-75"/>
      <use xlink:href="#DejaVuSans-70" x="63.378906"/>
      <use xlink:href="#DejaVuSans-70" x="126.855469"/>
      <use xlink:href="#DejaVuSans-65" x="190.332031"/>
      <use xlink:href="#DejaVuSans-72" x="251.855469"/>
      <use xlink:href="#DejaVuSans-5f" x="292.96875"/>
      <use xlink:href="#DejaVuSans-62" x="342.96875"/>
      <use xlink:href="#DejaVuSans-6f" x="406.445312"/>
      <use xlink:href="#DejaVuSans-75" x="467.626953"/>
      <use xlink:href="#DejaVuSans-6e" x="531.005859"/>
      <use xlink:href="#DejaVuSans-64" x="594.384766"/>
     </g>
    </g>
    <g id="line2d_31">
     <path d="M 313.796378 35.254687 
L 313.796378 35.254687 
L 323.796378 35.254687 
L 323.796378 35.254687 
L 333.796378 35.254687 
" style="fill: none; stroke: #ff7f0e; stroke-width: 1.5; stroke-linecap: square"/>
    </g>
    <g id="text_14">
     <!-- drop -->
     <g transform="translate(341.796378 38.754687) scale(0.1 -0.1)">
      <use xlink:href="#DejaVuSans-64"/>
      <use xlink:href="#DejaVuSans-72" x="63.476562"/>
      <use xlink:href="#DejaVuSans-6f" x="102.339844"/>
      <use xlink:href="#DejaVuSans-70" x="163.521484"/>
     </g>
    </g>
   </g>
   <g id="line2d_32">
    <path d="M 62.346639 59.001163 
L 64.756427 59.001163 
L 64.756427 57.831504 
L 67.166215 57.831504 
L 67.166215 56.388588 
L 69.576003 56.388588 
L 69.576003 54.629652 
L 71.98579 54.629652 
L 71.98579 52.230679 
L 74.395578 52.230679 
L 74.395578 50.32867 
L 76.805366 50.32867 
L 76.805366 47.604402 
L 79.215154 47.604402 
L 79.215154 44.907912 
L 81.624941 44.907912 
L 81.624941 41.027779 
L 84.034729 41.027779 
L 84.034729 37.190227 
L 86.444517 37.190227 
L 86.444517 33.065445 
L 88.854305 33.065445 
L 88.854305 28.543145 
L 91.264092 28.543145 
L 91.264092 24.7257 
L 93.67388 24.7257 
L 93.67388 20.858555 
L 96.083668 20.858555 
L 96.083668 18.475509 
L 98.493456 18.475509 
L 98.493456 18.021161 
L 100.903244 18.021161 
L 100.903244 19.844798 
L 103.313031 19.844798 
L 103.313031 24.359491 
L 105.722819 24.359491 
L 105.722819 31.366423 
L 108.132607 31.366423 
L 108.132607 40.133959 
L 110.542395 40.133959 
L 110.542395 49.941467 
L 112.952182 49.941467 
L 112.952182 60.165132 
L 115.36197 60.165132 
L 115.36197 70.362991 
L 117.771758 70.362991 
L 117.771758 80.123797 
L 120.181546 80.123797 
L 120.181546 89.748885 
L 122.591333 89.748885 
L 122.591333 98.726581 
L 125.001121 98.726581 
L 125.001121 106.520096 
L 127.410909 106.520096 
L 127.410909 114.283587 
L 129.820697 114.283587 
L 129.820697 120.862874 
L 132.230484 120.862874 
L 132.230484 126.618293 
L 134.640272 126.618293 
L 134.640272 131.998253 
L 137.05006 131.998253 
L 137.05006 136.436759 
L 139.459848 136.436759 
L 139.459848 140.139593 
L 141.869635 140.139593 
L 141.869635 143.349486 
L 144.279423 143.349486 
L 144.279423 145.296733 
L 146.689211 145.296733 
L 146.689211 146.53238 
L 149.098999 146.53238 
L 149.098999 147.90338 
L 151.508786 147.90338 
L 151.508786 149.29552 
L 153.918574 149.29552 
L 153.918574 149.53724 
L 156.328362 149.53724 
L 156.328362 150.056067 
L 158.73815 150.056067 
L 158.73815 150.522888 
L 161.147938 150.522888 
L 161.147938 149.670185 
L 163.557725 149.670185 
L 163.557725 150.496534 
L 165.967513 150.496534 
L 165.967513 150.79363 
L 168.377301 150.79363 
L 168.377301 151.088792 
L 170.787089 151.088792 
L 170.787089 151.430697 
L 173.196876 151.430697 
L 173.196876 151.007026 
L 175.606664 151.007026 
L 175.606664 152.01123 
L 178.016452 152.01123 
L 178.016452 152.975021 
L 180.42624 152.975021 
L 180.42624 152.176744 
L 182.836027 152.176744 
L 182.836027 152.835075 
L 187.655603 152.828144 
L 187.655603 153.233679 
L 190.065391 153.233679 
L 190.065391 152.355259 
L 192.475178 152.355259 
L 192.475178 153.026076 
L 194.884966 153.026076 
L 194.884966 154.003014 
L 197.294754 154.003014 
L 197.294754 154.599108 
L 199.704542 154.599108 
L 199.704542 154.34564 
L 202.114329 154.34564 
L 202.114329 153.416607 
L 204.524117 153.416607 
L 204.524117 154.919635 
L 206.933905 154.919635 
L 206.933905 155.326509 
L 209.343693 155.326509 
L 209.343693 155.482432 
L 211.753481 155.482432 
L 211.753481 155.126262 
L 214.163268 155.126262 
L 214.163268 154.673642 
L 216.573056 154.673642 
L 216.573056 156.069152 
L 218.982844 156.069152 
L 218.982844 155.242758 
L 223.802419 155.219845 
L 223.802419 156.605828 
L 226.212207 156.605828 
L 226.212207 156.090843 
L 228.621995 156.090843 
L 228.621995 155.51125 
L 231.031783 155.51125 
L 231.031783 156.701249 
L 233.44157 156.701249 
L 233.44157 155.101359 
L 235.851358 155.101359 
L 235.851358 154.133282 
L 238.261146 154.133282 
L 238.261146 155.193594 
L 240.670934 155.193594 
L 240.670934 155.38291 
L 243.080721 155.38291 
L 243.080721 156.915333 
L 245.490509 156.915333 
L 245.490509 155.582749 
L 247.900297 155.582749 
L 247.900297 156.396411 
L 250.310085 156.396411 
L 250.310085 155.112774 
L 252.719872 155.112774 
L 252.719872 153.826949 
L 255.12966 153.826949 
L 255.12966 155.822294 
L 257.539448 155.822294 
L 257.539448 155.614947 
L 259.949236 155.614947 
L 259.949236 154.488942 
L 262.359024 154.488942 
L 262.359024 156.505703 
L 264.768811 156.505703 
L 264.768811 153.878682 
L 267.178599 153.878682 
L 267.178599 157.570503 
L 269.588387 157.570503 
L 269.588387 154.748999 
L 271.998175 154.748999 
L 271.998175 155.732763 
L 274.407962 155.732763 
L 274.407962 154.626089 
L 276.81775 154.626089 
L 276.81775 156.778775 
L 279.227538 156.778775 
L 279.227538 157.713824 
L 281.637326 157.713824 
L 281.637326 154.774046 
L 284.047113 154.774046 
L 284.047113 155.728707 
L 286.456901 155.728707 
L 286.456901 156.946984 
L 288.866689 156.946984 
L 288.866689 156.244895 
L 291.276477 156.244895 
L 291.276477 159.213784 
L 293.686264 159.213784 
L 293.686264 157.067522 
L 296.096052 157.067522 
L 296.096052 159.467589 
L 298.50584 159.467589 
L 298.50584 153.665098 
L 300.915628 153.665098 
L 300.915628 160.980331 
L 303.325415 160.980331 
L 303.325415 159.972592 
L 305.735203 159.972592 
L 305.735203 155.601892 
L 308.144991 155.601892 
L 308.144991 154.774603 
L 310.554779 154.774603 
L 310.554779 153.93917 
L 312.964567 153.93917 
L 312.964567 157.611087 
L 315.374354 157.611087 
L 315.374354 158.27073 
L 317.784142 158.27073 
L 317.784142 154.342438 
L 320.19393 154.342438 
L 320.19393 153.075041 
L 322.603718 153.075041 
L 322.603718 165.108854 
L 325.013505 165.108854 
L 325.013505 161.724164 
L 327.423293 161.724164 
L 327.423293 163.957575 
L 329.833081 163.957575 
L 329.833081 167.505037 
L 332.242869 167.505037 
L 332.242869 155.627965 
L 334.652656 155.627965 
L 334.652656 160.43758 
L 337.062444 160.43758 
L 337.062444 162.611995 
L 339.472232 162.611995 
L 339.472232 153.323385 
L 341.88202 153.323385 
L 341.88202 159.142956 
L 344.291807 159.142956 
L 344.291807 165.895387 
L 346.701595 165.895387 
L 346.701595 164.90847 
L 349.111383 164.90847 
L 349.111383 156.565976 
L 351.521171 156.565976 
L 351.521171 164.168474 
L 353.930958 164.168474 
L 353.930958 158.893495 
L 356.340746 158.893495 
L 356.340746 153.317026 
L 358.750534 153.317026 
L 358.750534 162.256978 
L 361.160322 162.256978 
L 361.160322 156.703222 
L 363.570109 156.703222 
L 363.570109 166.96508 
L 365.979897 166.96508 
L 365.979897 159.86391 
L 368.389685 159.86391 
L 368.389685 149.593988 
L 370.799473 149.593988 
L 370.799473 142.665974 
L 373.209261 142.665974 
L 373.209261 161.769374 
L 375.619048 161.769374 
L 375.619048 147.01196 
L 378.028836 147.01196 
L 378.028836 151.130405 
L 380.438624 151.130405 
L 380.438624 161.473702 
L 382.848412 161.473702 
L 382.848412 167.502968 
L 385.258199 167.502968 
L 385.258199 166.884274 
L 387.667987 166.884274 
L 387.667987 172.824504 
L 390.077775 172.824504 
L 390.077775 156.790202 
L 392.487563 156.790202 
L 392.487563 156.314706 
L 394.89735 156.314706 
L 394.89735 151.293171 
L 397.307138 151.293171 
L 397.307138 281.132187 
L 397.307138 281.132187 
" clip-path="url(#p077365d0a9)" style="fill: none; stroke: #1f77b4; stroke-width: 1.5; stroke-linecap: square"/>
   </g>
   <g id="LineCollection_1">
    <path d="M 63.551533 59.485589 
L 63.551533 58.522473 
" clip-path="url(#p077365d0a9)" style="fill: none; stroke: #1f77b4; stroke-width: 1.5"/>
    <path d="M 65.961321 58.213005 
L 65.961321 57.45357 
" clip-path="url(#p077365d0a9)" style="fill: none; stroke: #1f77b4; stroke-width: 1.5"/>
    <path d="M 68.371109 56.717255 
L 68.371109 56.062572 
" clip-path="url(#p077365d0a9)" style="fill: none; stroke: #1f77b4; stroke-width: 1.5"/>
    <path d="M 70.780896 54.92496 
L 70.780896 54.336485 
" clip-path="url(#p077365d0a9)" style="fill: none; stroke: #1f77b4; stroke-width: 1.5"/>
    <path d="M 73.190684 52.500266 
L 73.190684 51.962877 
" clip-path="url(#p077365d0a9)" style="fill: none; stroke: #1f77b4; stroke-width: 1.5"/>
    <path d="M 75.600472 50.578363 
L 75.600472 50.080509 
" clip-path="url(#p077365d0a9)" style="fill: none; stroke: #1f77b4; stroke-width: 1.5"/>
    <path d="M 78.01026 47.837215 
L 78.01026 47.372923 
" clip-path="url(#p077365d0a9)" style="fill: none; stroke: #1f77b4; stroke-width: 1.5"/>
    <path d="M 80.420048 45.126791 
L 80.420048 44.690211 
" clip-path="url(#p077365d0a9)" style="fill: none; stroke: #1f77b4; stroke-width: 1.5"/>
    <path d="M 82.829835 41.23472 
L 82.829835 40.821893 
" clip-path="url(#p077365d0a9)" style="fill: none; stroke: #1f77b4; stroke-width: 1.5"/>
    <path d="M 85.239623 37.387075 
L 85.239623 36.994332 
" clip-path="url(#p077365d0a9)" style="fill: none; stroke: #1f77b4; stroke-width: 1.5"/>
    <path d="M 87.649411 33.253811 
L 87.649411 32.877951 
" clip-path="url(#p077365d0a9)" style="fill: none; stroke: #1f77b4; stroke-width: 1.5"/>
    <path d="M 90.059199 28.724439 
L 90.059199 28.362661 
" clip-path="url(#p077365d0a9)" style="fill: none; stroke: #1f77b4; stroke-width: 1.5"/>
    <path d="M 92.468986 24.900787 
L 92.468986 24.551369 
" clip-path="url(#p077365d0a9)" style="fill: none; stroke: #1f77b4; stroke-width: 1.5"/>
    <path d="M 94.878774 21.029389 
L 94.878774 20.688441 
" clip-path="url(#p077365d0a9)" style="fill: none; stroke: #1f77b4; stroke-width: 1.5"/>
    <path d="M 97.288562 18.642726 
L 97.288562 18.308982 
" clip-path="url(#p077365d0a9)" style="fill: none; stroke: #1f77b4; stroke-width: 1.5"/>
    <path d="M 99.69835 18.186061 
L 99.69835 17.856932 
" clip-path="url(#p077365d0a9)" style="fill: none; stroke: #1f77b4; stroke-width: 1.5"/>
    <path d="M 102.108137 20.008539 
L 102.108137 19.681717 
" clip-path="url(#p077365d0a9)" style="fill: none; stroke: #1f77b4; stroke-width: 1.5"/>
    <path d="M 104.517925 24.523365 
L 104.517925 24.196279 
" clip-path="url(#p077365d0a9)" style="fill: none; stroke: #1f77b4; stroke-width: 1.5"/>
    <path d="M 106.927713 31.531492 
L 106.927713 31.202025 
" clip-path="url(#p077365d0a9)" style="fill: none; stroke: #1f77b4; stroke-width: 1.5"/>
    <path d="M 109.337501 40.302009 
L 109.337501 39.966605 
" clip-path="url(#p077365d0a9)" style="fill: none; stroke: #1f77b4; stroke-width: 1.5"/>
    <path d="M 111.747288 50.113925 
L 111.747288 49.769741 
" clip-path="url(#p077365d0a9)" style="fill: none; stroke: #1f77b4; stroke-width: 1.5"/>
    <path d="M 114.157076 60.343617 
L 114.157076 59.987432 
" clip-path="url(#p077365d0a9)" style="fill: none; stroke: #1f77b4; stroke-width: 1.5"/>
    <path d="M 116.566864 70.549367 
L 116.566864 70.17747 
" clip-path="url(#p077365d0a9)" style="fill: none; stroke: #1f77b4; stroke-width: 1.5"/>
    <path d="M 118.976652 80.31937 
L 118.976652 79.929166 
" clip-path="url(#p077365d0a9)" style="fill: none; stroke: #1f77b4; stroke-width: 1.5"/>
    <path d="M 121.386439 89.955835 
L 121.386439 89.542989 
" clip-path="url(#p077365d0a9)" style="fill: none; stroke: #1f77b4; stroke-width: 1.5"/>
    <path d="M 123.796227 98.946446 
L 123.796227 98.507905 
" clip-path="url(#p077365d0a9)" style="fill: none; stroke: #1f77b4; stroke-width: 1.5"/>
    <path d="M 126.206015 106.753405 
L 126.206015 106.288126 
" clip-path="url(#p077365d0a9)" style="fill: none; stroke: #1f77b4; stroke-width: 1.5"/>
    <path d="M 128.615803 114.532293 
L 128.615803 114.036402 
" clip-path="url(#p077365d0a9)" style="fill: none; stroke: #1f77b4; stroke-width: 1.5"/>
    <path d="M 131.025591 121.127076 
L 131.025591 120.600388 
" clip-path="url(#p077365d0a9)" style="fill: none; stroke: #1f77b4; stroke-width: 1.5"/>
    <path d="M 133.435378 126.898027 
L 133.435378 126.340482 
" clip-path="url(#p077365d0a9)" style="fill: none; stroke: #1f77b4; stroke-width: 1.5"/>
    <path d="M 135.845166 132.294902 
L 135.845166 131.703766 
" clip-path="url(#p077365d0a9)" style="fill: none; stroke: #1f77b4; stroke-width: 1.5"/>
    <path d="M 138.254954 136.748325 
L 138.254954 136.127577 
" clip-path="url(#p077365d0a9)" style="fill: none; stroke: #1f77b4; stroke-width: 1.5"/>
    <path d="M 140.664742 140.465321 
L 140.664742 139.816468 
" clip-path="url(#p077365d0a9)" style="fill: none; stroke: #1f77b4; stroke-width: 1.5"/>
    <path d="M 143.074529 143.690758 
L 143.074529 143.01107 
" clip-path="url(#p077365d0a9)" style="fill: none; stroke: #1f77b4; stroke-width: 1.5"/>
    <path d="M 145.484317 145.648505 
L 145.484317 144.947996 
" clip-path="url(#p077365d0a9)" style="fill: none; stroke: #1f77b4; stroke-width: 1.5"/>
    <path d="M 147.894105 146.892205 
L 147.894105 146.175729 
" clip-path="url(#p077365d0a9)" style="fill: none; stroke: #1f77b4; stroke-width: 1.5"/>
    <path d="M 150.303893 148.272998 
L 150.303893 147.537112 
" clip-path="url(#p077365d0a9)" style="fill: none; stroke: #1f77b4; stroke-width: 1.5"/>
    <path d="M 152.71368 149.674863 
L 152.71368 148.919703 
" clip-path="url(#p077365d0a9)" style="fill: none; stroke: #1f77b4; stroke-width: 1.5"/>
    <path d="M 155.123468 149.922845 
L 155.123468 149.155279 
" clip-path="url(#p077365d0a9)" style="fill: none; stroke: #1f77b4; stroke-width: 1.5"/>
    <path d="M 157.533256 150.44868 
L 157.533256 149.667231 
" clip-path="url(#p077365d0a9)" style="fill: none; stroke: #1f77b4; stroke-width: 1.5"/>
    <path d="M 159.943044 150.922648 
L 159.943044 150.127043 
" clip-path="url(#p077365d0a9)" style="fill: none; stroke: #1f77b4; stroke-width: 1.5"/>
    <path d="M 162.352831 150.072427 
L 162.352831 149.271906 
" clip-path="url(#p077365d0a9)" style="fill: none; stroke: #1f77b4; stroke-width: 1.5"/>
    <path d="M 164.762619 150.908482 
L 164.762619 150.088741 
" clip-path="url(#p077365d0a9)" style="fill: none; stroke: #1f77b4; stroke-width: 1.5"/>
    <path d="M 167.172407 151.216976 
L 167.172407 150.374671 
" clip-path="url(#p077365d0a9)" style="fill: none; stroke: #1f77b4; stroke-width: 1.5"/>
    <path d="M 169.582195 151.519286 
L 169.582195 150.662835 
" clip-path="url(#p077365d0a9)" style="fill: none; stroke: #1f77b4; stroke-width: 1.5"/>
    <path d="M 171.991982 151.871446 
L 171.991982 150.994701 
" clip-path="url(#p077365d0a9)" style="fill: none; stroke: #1f77b4; stroke-width: 1.5"/>
    <path d="M 174.40177 151.453512 
L 174.40177 150.565417 
" clip-path="url(#p077365d0a9)" style="fill: none; stroke: #1f77b4; stroke-width: 1.5"/>
    <path d="M 176.811558 152.472379 
L 176.811558 151.555283 
" clip-path="url(#p077365d0a9)" style="fill: none; stroke: #1f77b4; stroke-width: 1.5"/>
    <path d="M 179.221346 153.451027 
L 179.221346 152.504555 
" clip-path="url(#p077365d0a9)" style="fill: none; stroke: #1f77b4; stroke-width: 1.5"/>
    <path d="M 181.631134 152.65726 
L 181.631134 151.701872 
" clip-path="url(#p077365d0a9)" style="fill: none; stroke: #1f77b4; stroke-width: 1.5"/>
    <path d="M 184.040921 153.329449 
L 184.040921 152.346674 
" clip-path="url(#p077365d0a9)" style="fill: none; stroke: #1f77b4; stroke-width: 1.5"/>
    <path d="M 186.450709 153.335304 
L 186.450709 152.327268 
" clip-path="url(#p077365d0a9)" style="fill: none; stroke: #1f77b4; stroke-width: 1.5"/>
    <path d="M 188.860497 153.751584 
L 188.860497 152.722325 
" clip-path="url(#p077365d0a9)" style="fill: none; stroke: #1f77b4; stroke-width: 1.5"/>
    <path d="M 191.270285 152.883605 
L 191.270285 151.833729 
" clip-path="url(#p077365d0a9)" style="fill: none; stroke: #1f77b4; stroke-width: 1.5"/>
    <path d="M 193.680072 153.571569 
L 193.680072 152.487846 
" clip-path="url(#p077365d0a9)" style="fill: none; stroke: #1f77b4; stroke-width: 1.5"/>
    <path d="M 196.08986 154.565887 
L 196.08986 153.447871 
" clip-path="url(#p077365d0a9)" style="fill: none; stroke: #1f77b4; stroke-width: 1.5"/>
    <path d="M 198.499648 155.182111 
L 198.499648 154.024394 
" clip-path="url(#p077365d0a9)" style="fill: none; stroke: #1f77b4; stroke-width: 1.5"/>
    <path d="M 200.909436 154.93336 
L 200.909436 153.766341 
" clip-path="url(#p077365d0a9)" style="fill: none; stroke: #1f77b4; stroke-width: 1.5"/>
    <path d="M 203.319223 154.016437 
L 203.319223 152.825548 
" clip-path="url(#p077365d0a9)" style="fill: none; stroke: #1f77b4; stroke-width: 1.5"/>
    <path d="M 205.729011 155.543733 
L 205.729011 154.305026 
" clip-path="url(#p077365d0a9)" style="fill: none; stroke: #1f77b4; stroke-width: 1.5"/>
    <path d="M 208.138799 155.971941 
L 208.138799 154.69122 
" clip-path="url(#p077365d0a9)" style="fill: none; stroke: #1f77b4; stroke-width: 1.5"/>
    <path d="M 210.548587 156.141848 
L 210.548587 154.833599 
" clip-path="url(#p077365d0a9)" style="fill: none; stroke: #1f77b4; stroke-width: 1.5"/>
    <path d="M 212.958374 155.800705 
L 212.958374 154.462887 
" clip-path="url(#p077365d0a9)" style="fill: none; stroke: #1f77b4; stroke-width: 1.5"/>
    <path d="M 215.368162 155.358374 
L 215.368162 154.000314 
" clip-path="url(#p077365d0a9)" style="fill: none; stroke: #1f77b4; stroke-width: 1.5"/>
    <path d="M 217.77795 156.794224 
L 217.77795 155.356856 
" clip-path="url(#p077365d0a9)" style="fill: none; stroke: #1f77b4; stroke-width: 1.5"/>
    <path d="M 220.187738 155.974133 
L 220.187738 154.524381 
" clip-path="url(#p077365d0a9)" style="fill: none; stroke: #1f77b4; stroke-width: 1.5"/>
    <path d="M 222.597525 155.975385 
L 222.597525 154.478166 
" clip-path="url(#p077365d0a9)" style="fill: none; stroke: #1f77b4; stroke-width: 1.5"/>
    <path d="M 225.007313 157.399681 
L 225.007313 155.827264 
" clip-path="url(#p077365d0a9)" style="fill: none; stroke: #1f77b4; stroke-width: 1.5"/>
    <path d="M 227.417101 156.903807 
L 227.417101 155.293906 
" clip-path="url(#p077365d0a9)" style="fill: none; stroke: #1f77b4; stroke-width: 1.5"/>
    <path d="M 229.826889 156.346368 
L 229.826889 154.693037 
" clip-path="url(#p077365d0a9)" style="fill: none; stroke: #1f77b4; stroke-width: 1.5"/>
    <path d="M 232.236676 157.579008 
L 232.236676 155.842145 
" clip-path="url(#p077365d0a9)" style="fill: none; stroke: #1f77b4; stroke-width: 1.5"/>
    <path d="M 234.646464 155.993936 
L 234.646464 154.228065 
" clip-path="url(#p077365d0a9)" style="fill: none; stroke: #1f77b4; stroke-width: 1.5"/>
    <path d="M 237.056252 155.053187 
L 237.056252 153.233845 
" clip-path="url(#p077365d0a9)" style="fill: none; stroke: #1f77b4; stroke-width: 1.5"/>
    <path d="M 239.46604 156.166696 
L 239.46604 154.243366 
" clip-path="url(#p077365d0a9)" style="fill: none; stroke: #1f77b4; stroke-width: 1.5"/>
    <path d="M 241.875828 156.390132 
L 241.875828 154.400175 
" clip-path="url(#p077365d0a9)" style="fill: none; stroke: #1f77b4; stroke-width: 1.5"/>
    <path d="M 244.285615 157.983894 
L 244.285615 155.87429 
" clip-path="url(#p077365d0a9)" style="fill: none; stroke: #1f77b4; stroke-width: 1.5"/>
    <path d="M 246.695403 156.688863 
L 246.695403 154.506095 
" clip-path="url(#p077365d0a9)" style="fill: none; stroke: #1f77b4; stroke-width: 1.5"/>
    <path d="M 249.105191 157.566484 
L 249.105191 155.259254 
" clip-path="url(#p077365d0a9)" style="fill: none; stroke: #1f77b4; stroke-width: 1.5"/>
    <path d="M 251.514979 156.30834 
L 251.514979 153.951553 
" clip-path="url(#p077365d0a9)" style="fill: none; stroke: #1f77b4; stroke-width: 1.5"/>
    <path d="M 253.924766 155.076883 
L 253.924766 152.614506 
" clip-path="url(#p077365d0a9)" style="fill: none; stroke: #1f77b4; stroke-width: 1.5"/>
    <path d="M 256.334554 157.142968 
L 256.334554 154.543404 
" clip-path="url(#p077365d0a9)" style="fill: none; stroke: #1f77b4; stroke-width: 1.5"/>
    <path d="M 258.744342 157.006018 
L 258.744342 154.270154 
" clip-path="url(#p077365d0a9)" style="fill: none; stroke: #1f77b4; stroke-width: 1.5"/>
    <path d="M 261.15413 155.922373 
L 261.15413 153.104602 
" clip-path="url(#p077365d0a9)" style="fill: none; stroke: #1f77b4; stroke-width: 1.5"/>
    <path d="M 263.563917 158.010772 
L 263.563917 155.054662 
" clip-path="url(#p077365d0a9)" style="fill: none; stroke: #1f77b4; stroke-width: 1.5"/>
    <path d="M 265.973705 155.412686 
L 265.973705 152.400765 
" clip-path="url(#p077365d0a9)" style="fill: none; stroke: #1f77b4; stroke-width: 1.5"/>
    <path d="M 268.383493 159.257629 
L 268.383493 155.950975 
" clip-path="url(#p077365d0a9)" style="fill: none; stroke: #1f77b4; stroke-width: 1.5"/>
    <path d="M 270.793281 156.440396 
L 270.793281 153.125537 
" clip-path="url(#p077365d0a9)" style="fill: none; stroke: #1f77b4; stroke-width: 1.5"/>
    <path d="M 273.203068 157.500449 
L 273.203068 154.039145 
" clip-path="url(#p077365d0a9)" style="fill: none; stroke: #1f77b4; stroke-width: 1.5"/>
    <path d="M 275.612856 156.446503 
L 275.612856 152.88413 
" clip-path="url(#p077365d0a9)" style="fill: none; stroke: #1f77b4; stroke-width: 1.5"/>
    <path d="M 278.022644 158.69455 
L 278.022644 154.949694 
" clip-path="url(#p077365d0a9)" style="fill: none; stroke: #1f77b4; stroke-width: 1.5"/>
    <path d="M 280.432432 159.752567 
L 280.432432 155.77298 
" clip-path="url(#p077365d0a9)" style="fill: none; stroke: #1f77b4; stroke-width: 1.5"/>
    <path d="M 282.842219 156.83468 
L 282.842219 152.813375 
" clip-path="url(#p077365d0a9)" style="fill: none; stroke: #1f77b4; stroke-width: 1.5"/>
    <path d="M 285.252007 157.87687 
L 285.252007 153.688956 
" clip-path="url(#p077365d0a9)" style="fill: none; stroke: #1f77b4; stroke-width: 1.5"/>
    <path d="M 287.661795 159.140901 
L 287.661795 154.866028 
" clip-path="url(#p077365d0a9)" style="fill: none; stroke: #1f77b4; stroke-width: 1.5"/>
    <path d="M 290.071583 158.576867 
L 290.071583 154.040137 
" clip-path="url(#p077365d0a9)" style="fill: none; stroke: #1f77b4; stroke-width: 1.5"/>
    <path d="M 292.481371 161.680352 
L 292.481371 156.889097 
" clip-path="url(#p077365d0a9)" style="fill: none; stroke: #1f77b4; stroke-width: 1.5"/>
    <path d="M 294.891158 159.543309 
L 294.891158 154.734648 
" clip-path="url(#p077365d0a9)" style="fill: none; stroke: #1f77b4; stroke-width: 1.5"/>
    <path d="M 297.300946 162.10421 
L 297.300946 156.992453 
" clip-path="url(#p077365d0a9)" style="fill: none; stroke: #1f77b4; stroke-width: 1.5"/>
    <path d="M 299.710734 156.284249 
L 299.710734 151.205363 
" clip-path="url(#p077365d0a9)" style="fill: none; stroke: #1f77b4; stroke-width: 1.5"/>
    <path d="M 302.120522 163.920734 
L 302.120522 158.239374 
" clip-path="url(#p077365d0a9)" style="fill: none; stroke: #1f77b4; stroke-width: 1.5"/>
    <path d="M 304.530309 163.045697 
L 304.530309 157.116685 
" clip-path="url(#p077365d0a9)" style="fill: none; stroke: #1f77b4; stroke-width: 1.5"/>
    <path d="M 306.940097 158.604402 
L 306.940097 152.807048 
" clip-path="url(#p077365d0a9)" style="fill: none; stroke: #1f77b4; stroke-width: 1.5"/>
    <path d="M 309.349885 157.925135 
L 309.349885 151.85195 
" clip-path="url(#p077365d0a9)" style="fill: none; stroke: #1f77b4; stroke-width: 1.5"/>
    <path d="M 311.759673 157.260752 
L 311.759673 150.869904 
" clip-path="url(#p077365d0a9)" style="fill: none; stroke: #1f77b4; stroke-width: 1.5"/>
    <path d="M 314.16946 161.262534 
L 314.16946 154.262304 
" clip-path="url(#p077365d0a9)" style="fill: none; stroke: #1f77b4; stroke-width: 1.5"/>
    <path d="M 316.579248 162.155894 
L 316.579248 154.726432 
" clip-path="url(#p077365d0a9)" style="fill: none; stroke: #1f77b4; stroke-width: 1.5"/>
    <path d="M 318.989036 158.20637 
L 318.989036 150.815816 
" clip-path="url(#p077365d0a9)" style="fill: none; stroke: #1f77b4; stroke-width: 1.5"/>
    <path d="M 321.398824 157.01738 
L 321.398824 149.483227 
" clip-path="url(#p077365d0a9)" style="fill: none; stroke: #1f77b4; stroke-width: 1.5"/>
    <path d="M 323.808611 170.125898 
L 323.808611 160.646268 
" clip-path="url(#p077365d0a9)" style="fill: none; stroke: #1f77b4; stroke-width: 1.5"/>
    <path d="M 326.218399 166.598845 
L 326.218399 157.374541 
" clip-path="url(#p077365d0a9)" style="fill: none; stroke: #1f77b4; stroke-width: 1.5"/>
    <path d="M 328.628187 169.05842 
L 328.628187 159.428828 
" clip-path="url(#p077365d0a9)" style="fill: none; stroke: #1f77b4; stroke-width: 1.5"/>
    <path d="M 331.037975 172.98324 
L 331.037975 162.681378 
" clip-path="url(#p077365d0a9)" style="fill: none; stroke: #1f77b4; stroke-width: 1.5"/>
    <path d="M 333.447762 160.919534 
L 333.447762 150.949552 
" clip-path="url(#p077365d0a9)" style="fill: none; stroke: #1f77b4; stroke-width: 1.5"/>
    <path d="M 335.85755 166.087898 
L 335.85755 155.481027 
" clip-path="url(#p077365d0a9)" style="fill: none; stroke: #1f77b4; stroke-width: 1.5"/>
    <path d="M 338.267338 168.814267 
L 338.267338 157.235936 
" clip-path="url(#p077365d0a9)" style="fill: none; stroke: #1f77b4; stroke-width: 1.5"/>
    <path d="M 340.677126 159.162156 
L 340.677126 148.222465 
" clip-path="url(#p077365d0a9)" style="fill: none; stroke: #1f77b4; stroke-width: 1.5"/>
    <path d="M 343.086914 165.299011 
L 343.086914 153.801639 
" clip-path="url(#p077365d0a9)" style="fill: none; stroke: #1f77b4; stroke-width: 1.5"/>
    <path d="M 345.496701 173.81389 
L 345.496701 159.276782 
" clip-path="url(#p077365d0a9)" style="fill: none; stroke: #1f77b4; stroke-width: 1.5"/>
    <path d="M 347.906489 173.282402 
L 347.906489 157.975008 
" clip-path="url(#p077365d0a9)" style="fill: none; stroke: #1f77b4; stroke-width: 1.5"/>
    <path d="M 350.316277 163.973112 
L 350.316277 150.308154 
" clip-path="url(#p077365d0a9)" style="fill: none; stroke: #1f77b4; stroke-width: 1.5"/>
    <path d="M 352.726065 173.145717 
L 352.726065 156.827007 
" clip-path="url(#p077365d0a9)" style="fill: none; stroke: #1f77b4; stroke-width: 1.5"/>
    <path d="M 355.135852 167.403572 
L 355.135852 151.867066 
" clip-path="url(#p077365d0a9)" style="fill: none; stroke: #1f77b4; stroke-width: 1.5"/>
    <path d="M 357.54564 161.791792 
L 357.54564 146.314659 
" clip-path="url(#p077365d0a9)" style="fill: none; stroke: #1f77b4; stroke-width: 1.5"/>
    <path d="M 359.955428 171.467113 
L 359.955428 154.760714 
" clip-path="url(#p077365d0a9)" style="fill: none; stroke: #1f77b4; stroke-width: 1.5"/>
    <path d="M 362.365216 166.130913 
L 362.365216 149.063688 
" clip-path="url(#p077365d0a9)" style="fill: none; stroke: #1f77b4; stroke-width: 1.5"/>
    <path d="M 364.775003 177.834968 
L 364.775003 158.407199 
" clip-path="url(#p077365d0a9)" style="fill: none; stroke: #1f77b4; stroke-width: 1.5"/>
    <path d="M 367.184791 170.518738 
L 367.184791 151.439603 
" clip-path="url(#p077365d0a9)" style="fill: none; stroke: #1f77b4; stroke-width: 1.5"/>
    <path d="M 369.594579 160.046414 
L 369.594579 141.296451 
" clip-path="url(#p077365d0a9)" style="fill: none; stroke: #1f77b4; stroke-width: 1.5"/>
    <path d="M 372.004367 153.109656 
L 372.004367 134.373938 
" clip-path="url(#p077365d0a9)" style="fill: none; stroke: #1f77b4; stroke-width: 1.5"/>
    <path d="M 374.414154 176.423149 
L 374.414154 151.037149 
" clip-path="url(#p077365d0a9)" style="fill: none; stroke: #1f77b4; stroke-width: 1.5"/>
    <path d="M 376.823942 160.607908 
L 376.823942 136.85581 
" clip-path="url(#p077365d0a9)" style="fill: none; stroke: #1f77b4; stroke-width: 1.5"/>
    <path d="M 379.23373 168.551355 
L 379.23373 138.995429 
" clip-path="url(#p077365d0a9)" style="fill: none; stroke: #1f77b4; stroke-width: 1.5"/>
    <path d="M 381.643518 183.215988 
L 381.643518 147.412498 
" clip-path="url(#p077365d0a9)" style="fill: none; stroke: #1f77b4; stroke-width: 1.5"/>
    <path d="M 384.053305 197.041087 
L 384.053305 150.618374 
" clip-path="url(#p077365d0a9)" style="fill: none; stroke: #1f77b4; stroke-width: 1.5"/>
    <path d="M 386.463093 192.591965 
L 386.463093 151.294485 
" clip-path="url(#p077365d0a9)" style="fill: none; stroke: #1f77b4; stroke-width: 1.5"/>
    <path d="M 388.872881 206.609653 
L 388.872881 154.681053 
" clip-path="url(#p077365d0a9)" style="fill: none; stroke: #1f77b4; stroke-width: 1.5"/>
    <path d="M 391.282669 227.467332 
L 391.282669 132.450085 
" clip-path="url(#p077365d0a9)" style="fill: none; stroke: #1f77b4; stroke-width: 1.5"/>
    <path d="M 393.692457 226.888242 
L 393.692457 131.984478 
" clip-path="url(#p077365d0a9)" style="fill: none; stroke: #1f77b4; stroke-width: 1.5"/>
    <path d="M 396.102244 230.995568 
L 396.102244 126.189204 
" clip-path="url(#p077365d0a9)" style="fill: none; stroke: #1f77b4; stroke-width: 1.5"/>
    <path clip-path="url(#p077365d0a9)" style="fill: none; stroke: #1f77b4; stroke-width: 1.5"/>
   </g>
   <g id="line2d_33">
    <path d="M 62.346639 59.001163 
L 64.756427 59.001163 
L 64.756427 57.831504 
L 67.166215 57.831504 
L 67.166215 56.388588 
L 69.576003 56.388588 
L 69.576003 54.629652 
L 71.98579 54.629652 
L 71.98579 52.230679 
L 74.395578 52.230679 
L 74.395578 50.32867 
L 76.805366 50.32867 
L 76.805366 47.604402 
L 79.215154 47.604402 
L 79.215154 44.907912 
L 81.624941 44.907912 
L 81.624941 41.027779 
L 84.034729 41.027779 
L 84.034729 37.190227 
L 86.444517 37.190227 
L 86.444517 33.065445 
L 88.854305 33.065445 
L 88.854305 28.543145 
L 91.264092 28.543145 
L 91.264092 24.7257 
L 93.67388 24.7257 
L 93.67388 20.858555 
L 96.083668 20.858555 
L 96.083668 18.475509 
L 98.493456 18.475509 
L 98.493456 18.021161 
L 100.903244 18.021161 
L 100.903244 19.844798 
L 103.313031 19.844798 
L 103.313031 24.359491 
L 105.722819 24.359491 
L 105.722819 31.366423 
L 108.132607 31.366423 
L 108.132607 40.133959 
L 110.542395 40.133959 
L 110.542395 49.941467 
L 112.952182 49.941467 
L 112.952182 60.165132 
L 115.36197 60.165132 
L 115.36197 70.362991 
L 117.771758 70.362991 
L 117.771758 80.123797 
L 120.181546 80.123797 
L 120.181546 89.748885 
L 122.591333 89.748885 
L 122.591333 98.726581 
L 125.001121 98.726581 
L 125.001121 106.520096 
L 127.410909 106.520096 
L 127.410909 114.283587 
L 129.820697 114.283587 
L 129.820697 120.862874 
L 132.230484 120.862874 
L 132.230484 126.618293 
L 134.640272 126.618293 
L 134.640272 131.998253 
L 137.05006 131.998253 
L 137.05006 136.436759 
L 139.459848 136.436759 
L 139.459848 140.139593 
L 141.869635 140.139593 
L 141.869635 143.349486 
L 144.279423 143.349486 
L 144.279423 145.296733 
L 146.689211 145.296733 
L 146.689211 146.53238 
L 149.098999 146.53238 
L 149.098999 147.90338 
L 151.508786 147.90338 
L 151.508786 149.29552 
L 153.918574 149.29552 
L 153.918574 149.53724 
L 156.328362 149.53724 
L 156.328362 150.056067 
L 158.73815 150.056067 
L 158.73815 150.522888 
L 161.147938 150.522888 
L 161.147938 149.670185 
L 163.557725 149.670185 
L 163.557725 150.496534 
L 165.967513 150.496534 
L 165.967513 150.79363 
L 168.377301 150.79363 
L 168.377301 151.088792 
L 170.787089 151.088792 
L 170.787089 151.430697 
L 173.196876 151.430697 
L 173.196876 151.007026 
L 175.606664 151.007026 
L 175.606664 152.01123 
L 178.016452 152.01123 
L 178.016452 152.975021 
L 180.42624 152.975021 
L 180.42624 152.176744 
L 182.836027 152.176744 
L 182.836027 152.835075 
L 187.655603 152.828144 
L 187.655603 153.233679 
L 190.065391 153.233679 
L 190.065391 152.355259 
L 192.475178 152.355259 
L 192.475178 153.026076 
L 194.884966 153.026076 
L 194.884966 154.003014 
L 197.294754 154.003014 
L 197.294754 154.599108 
L 199.704542 154.599108 
L 199.704542 154.34564 
L 202.114329 154.34564 
L 202.114329 153.416607 
L 204.524117 153.416607 
L 204.524117 154.919635 
L 206.933905 154.919635 
L 206.933905 155.326509 
L 209.343693 155.326509 
L 209.343693 155.482432 
L 211.753481 155.482432 
L 211.753481 155.126262 
L 214.163268 155.126262 
L 214.163268 154.673642 
L 216.573056 154.673642 
L 216.573056 156.069152 
L 218.982844 156.069152 
L 218.982844 155.242758 
L 223.802419 155.219845 
L 223.802419 156.605828 
L 226.212207 156.605828 
L 226.212207 156.090843 
L 228.621995 156.090843 
L 228.621995 155.51125 
L 231.031783 155.51125 
L 231.031783 156.701249 
L 233.44157 156.701249 
L 233.44157 155.101359 
L 235.851358 155.101359 
L 235.851358 154.133282 
L 238.261146 154.133282 
L 238.261146 155.193594 
L 240.670934 155.193594 
L 240.670934 155.38291 
L 243.080721 155.38291 
L 243.080721 156.915333 
L 245.490509 156.915333 
L 245.490509 155.582749 
L 247.900297 155.582749 
L 247.900297 156.396411 
L 250.310085 156.396411 
L 250.310085 155.112774 
L 252.719872 155.112774 
L 252.719872 153.826949 
L 255.12966 153.826949 
L 255.12966 155.822294 
L 257.539448 155.822294 
L 257.539448 155.614947 
L 259.949236 155.614947 
L 259.949236 154.488942 
L 262.359024 154.488942 
L 262.359024 156.505703 
L 264.768811 156.505703 
L 264.768811 153.878682 
L 267.178599 153.878682 
L 267.178599 157.570503 
L 269.588387 157.570503 
L 269.588387 154.748999 
L 271.998175 154.748999 
L 271.998175 155.732763 
L 274.407962 155.732763 
L 274.407962 154.626089 
L 276.81775 154.626089 
L 276.81775 156.778775 
L 279.227538 156.778775 
L 279.227538 157.713824 
L 281.637326 157.713824 
L 281.637326 154.774046 
L 284.047113 154.774046 
L 284.047113 155.728707 
L 286.456901 155.728707 
L 286.456901 156.946984 
L 288.866689 156.946984 
L 288.866689 156.244895 
L 291.276477 156.244895 
L 291.276477 159.213784 
L 293.686264 159.213784 
L 293.686264 157.067522 
L 296.096052 157.067522 
L 296.096052 159.467589 
L 298.50584 159.467589 
L 298.50584 153.665098 
L 300.915628 153.665098 
L 300.915628 160.980331 
L 303.325415 160.980331 
L 303.325415 159.972592 
L 305.735203 159.972592 
L 305.735203 155.601892 
L 308.144991 155.601892 
L 308.144991 154.774603 
L 310.554779 154.774603 
L 310.554779 153.93917 
L 312.964567 153.93917 
L 312.964567 157.611087 
L 315.374354 157.611087 
L 315.374354 158.27073 
L 317.784142 158.27073 
L 317.784142 154.342438 
L 320.19393 154.342438 
L 320.19393 153.075041 
L 322.603718 153.075041 
L 322.603718 165.108854 
L 325.013505 165.108854 
L 325.013505 161.724164 
L 327.423293 161.724164 
L 327.423293 163.957575 
L 329.833081 163.957575 
L 329.833081 167.505037 
L 332.242869 167.505037 
L 332.242869 155.627965 
L 334.652656 155.627965 
L 334.652656 160.43758 
L 337.062444 160.43758 
L 337.062444 162.611995 
L 339.472232 162.611995 
L 339.472232 153.323385 
L 341.88202 153.323385 
L 341.88202 159.142956 
L 344.291807 159.142956 
L 344.291807 165.895387 
L 346.701595 165.895387 
L 346.701595 164.90847 
L 349.111383 164.90847 
L 349.111383 156.565976 
L 351.521171 156.565976 
L 351.521171 164.168474 
L 353.930958 164.168474 
L 353.930958 158.893495 
L 356.340746 158.893495 
L 356.340746 153.317026 
L 358.750534 153.317026 
L 358.750534 162.256978 
L 361.160322 162.256978 
L 361.160322 156.703222 
L 363.570109 156.703222 
L 363.570109 166.96508 
L 365.979897 166.96508 
L 365.979897 159.86391 
L 368.389685 159.86391 
L 368.389685 149.593988 
L 370.799473 149.593988 
L 370.799473 142.665974 
L 373.209261 142.665974 
L 373.209261 161.769374 
L 375.619048 161.769374 
L 375.619048 147.01196 
L 378.028836 147.01196 
L 378.028836 151.130405 
L 380.438624 151.130405 
L 380.438624 161.473702 
L 382.848412 161.473702 
L 382.848412 167.502968 
L 385.258199 167.502968 
L 385.258199 166.884274 
L 387.667987 166.884274 
L 387.667987 172.824504 
L 390.077775 172.824504 
L 390.077775 156.790202 
L 392.487563 156.790202 
L 392.487563 156.314706 
L 394.89735 156.314706 
L 394.89735 151.293171 
L 397.307138 151.293171 
L 397.307138 281.132187 
L 397.307138 281.132187 
" clip-path="url(#p077365d0a9)" style="fill: none; stroke: #ff7f0e; stroke-width: 1.5; stroke-linecap: square"/>
   </g>
   <g id="LineCollection_2">
    <path d="M 63.551533 59.291516 
L 63.551533 58.712881 
" clip-path="url(#p077365d0a9)" style="fill: none; stroke: #ff7f0e; stroke-width: 1.5"/>
    <path d="M 65.961321 58.050064 
L 65.961321 57.61412 
" clip-path="url(#p077365d0a9)" style="fill: none; stroke: #ff7f0e; stroke-width: 1.5"/>
    <path d="M 68.371109 56.571426 
L 68.371109 56.206574 
" clip-path="url(#p077365d0a9)" style="fill: none; stroke: #ff7f0e; stroke-width: 1.5"/>
    <path d="M 70.780896 54.7905 
L 70.780896 54.469441 
" clip-path="url(#p077365d0a9)" style="fill: none; stroke: #ff7f0e; stroke-width: 1.5"/>
    <path d="M 73.190684 52.374298 
L 73.190684 52.087568 
" clip-path="url(#p077365d0a9)" style="fill: none; stroke: #ff7f0e; stroke-width: 1.5"/>
    <path d="M 75.600472 50.45942 
L 75.600472 50.198341 
" clip-path="url(#p077365d0a9)" style="fill: none; stroke: #ff7f0e; stroke-width: 1.5"/>
    <path d="M 78.01026 47.723322 
L 78.01026 47.485831 
" clip-path="url(#p077365d0a9)" style="fill: none; stroke: #ff7f0e; stroke-width: 1.5"/>
    <path d="M 80.420048 45.016899 
L 80.420048 44.799217 
" clip-path="url(#p077365d0a9)" style="fill: none; stroke: #ff7f0e; stroke-width: 1.5"/>
    <path d="M 82.829835 41.126989 
L 82.829835 40.928813 
" clip-path="url(#p077365d0a9)" style="fill: none; stroke: #ff7f0e; stroke-width: 1.5"/>
    <path d="M 85.239623 37.281033 
L 85.239623 37.099624 
" clip-path="url(#p077365d0a9)" style="fill: none; stroke: #ff7f0e; stroke-width: 1.5"/>
    <path d="M 87.649411 33.148712 
L 87.649411 32.982348 
" clip-path="url(#p077365d0a9)" style="fill: none; stroke: #ff7f0e; stroke-width: 1.5"/>
    <path d="M 90.059199 28.619558 
L 90.059199 28.466876 
" clip-path="url(#p077365d0a9)" style="fill: none; stroke: #ff7f0e; stroke-width: 1.5"/>
    <path d="M 92.468986 24.79637 
L 92.468986 24.655154 
" clip-path="url(#p077365d0a9)" style="fill: none; stroke: #ff7f0e; stroke-width: 1.5"/>
    <path d="M 94.878774 20.92451 
L 94.878774 20.792707 
" clip-path="url(#p077365d0a9)" style="fill: none; stroke: #ff7f0e; stroke-width: 1.5"/>
    <path d="M 97.288562 18.538205 
L 97.288562 18.412911 
" clip-path="url(#p077365d0a9)" style="fill: none; stroke: #ff7f0e; stroke-width: 1.5"/>
    <path d="M 99.69835 18.082429 
L 99.69835 17.959987 
" clip-path="url(#p077365d0a9)" style="fill: none; stroke: #ff7f0e; stroke-width: 1.5"/>
    <path d="M 102.108137 19.906531 
L 102.108137 19.783158 
" clip-path="url(#p077365d0a9)" style="fill: none; stroke: #ff7f0e; stroke-width: 1.5"/>
    <path d="M 104.517925 24.424008 
L 104.517925 24.295077 
" clip-path="url(#p077365d0a9)" style="fill: none; stroke: #ff7f0e; stroke-width: 1.5"/>
    <path d="M 106.927713 31.435897 
L 106.927713 31.297068 
" clip-path="url(#p077365d0a9)" style="fill: none; stroke: #ff7f0e; stroke-width: 1.5"/>
    <path d="M 109.337501 40.210832 
L 109.337501 40.057232 
" clip-path="url(#p077365d0a9)" style="fill: none; stroke: #ff7f0e; stroke-width: 1.5"/>
    <path d="M 111.747288 50.027713 
L 111.747288 49.855404 
" clip-path="url(#p077365d0a9)" style="fill: none; stroke: #ff7f0e; stroke-width: 1.5"/>
    <path d="M 114.157076 60.26253 
L 114.157076 60.067969 
" clip-path="url(#p077365d0a9)" style="fill: none; stroke: #ff7f0e; stroke-width: 1.5"/>
    <path d="M 116.566864 70.473304 
L 116.566864 70.252978 
" clip-path="url(#p077365d0a9)" style="fill: none; stroke: #ff7f0e; stroke-width: 1.5"/>
    <path d="M 118.976652 80.248141 
L 118.976652 79.999835 
" clip-path="url(#p077365d0a9)" style="fill: none; stroke: #ff7f0e; stroke-width: 1.5"/>
    <path d="M 121.386439 89.88918 
L 121.386439 89.609075 
" clip-path="url(#p077365d0a9)" style="fill: none; stroke: #ff7f0e; stroke-width: 1.5"/>
    <path d="M 123.796227 98.883852 
L 123.796227 98.569919 
" clip-path="url(#p077365d0a9)" style="fill: none; stroke: #ff7f0e; stroke-width: 1.5"/>
    <path d="M 126.206015 106.694164 
L 126.206015 106.346775 
" clip-path="url(#p077365d0a9)" style="fill: none; stroke: #ff7f0e; stroke-width: 1.5"/>
    <path d="M 128.615803 114.476286 
L 128.615803 114.091802 
" clip-path="url(#p077365d0a9)" style="fill: none; stroke: #ff7f0e; stroke-width: 1.5"/>
    <path d="M 131.025591 121.073506 
L 131.025591 120.653335 
" clip-path="url(#p077365d0a9)" style="fill: none; stroke: #ff7f0e; stroke-width: 1.5"/>
    <path d="M 133.435378 126.846385 
L 133.435378 126.391481 
" clip-path="url(#p077365d0a9)" style="fill: none; stroke: #ff7f0e; stroke-width: 1.5"/>
    <path d="M 135.845166 132.244887 
L 135.845166 131.753115 
" clip-path="url(#p077365d0a9)" style="fill: none; stroke: #ff7f0e; stroke-width: 1.5"/>
    <path d="M 138.254954 136.699557 
L 138.254954 136.175659 
" clip-path="url(#p077365d0a9)" style="fill: none; stroke: #ff7f0e; stroke-width: 1.5"/>
    <path d="M 140.664742 140.417464 
L 140.664742 139.863619 
" clip-path="url(#p077365d0a9)" style="fill: none; stroke: #ff7f0e; stroke-width: 1.5"/>
    <path d="M 143.074529 143.643125 
L 143.074529 143.057964 
" clip-path="url(#p077365d0a9)" style="fill: none; stroke: #ff7f0e; stroke-width: 1.5"/>
    <path d="M 145.484317 145.600836 
L 145.484317 144.994902 
" clip-path="url(#p077365d0a9)" style="fill: none; stroke: #ff7f0e; stroke-width: 1.5"/>
    <path d="M 147.894105 146.844233 
L 147.894105 146.222915 
" clip-path="url(#p077365d0a9)" style="fill: none; stroke: #ff7f0e; stroke-width: 1.5"/>
    <path d="M 150.303893 148.224573 
L 150.303893 147.58472 
" clip-path="url(#p077365d0a9)" style="fill: none; stroke: #ff7f0e; stroke-width: 1.5"/>
    <path d="M 152.71368 149.626179 
L 152.71368 148.967543 
" clip-path="url(#p077365d0a9)" style="fill: none; stroke: #ff7f0e; stroke-width: 1.5"/>
    <path d="M 155.123468 149.873133 
L 155.123468 149.204115 
" clip-path="url(#p077365d0a9)" style="fill: none; stroke: #ff7f0e; stroke-width: 1.5"/>
    <path d="M 157.533256 150.398202 
L 157.533256 149.716803 
" clip-path="url(#p077365d0a9)" style="fill: none; stroke: #ff7f0e; stroke-width: 1.5"/>
    <path d="M 159.943044 150.871361 
L 159.943044 150.177393 
" clip-path="url(#p077365d0a9)" style="fill: none; stroke: #ff7f0e; stroke-width: 1.5"/>
    <path d="M 162.352831 150.019554 
L 162.352831 149.32381 
" clip-path="url(#p077365d0a9)" style="fill: none; stroke: #ff7f0e; stroke-width: 1.5"/>
    <path d="M 164.762619 150.854785 
L 164.762619 150.141429 
" clip-path="url(#p077365d0a9)" style="fill: none; stroke: #ff7f0e; stroke-width: 1.5"/>
    <path d="M 167.172407 151.161662 
L 167.172407 150.428918 
" clip-path="url(#p077365d0a9)" style="fill: none; stroke: #ff7f0e; stroke-width: 1.5"/>
    <path d="M 169.582195 151.463008 
L 169.582195 150.718009 
" clip-path="url(#p077365d0a9)" style="fill: none; stroke: #ff7f0e; stroke-width: 1.5"/>
    <path d="M 171.991982 151.813748 
L 171.991982 151.051242 
" clip-path="url(#p077365d0a9)" style="fill: none; stroke: #ff7f0e; stroke-width: 1.5"/>
    <path d="M 174.40177 151.394198 
L 174.40177 150.623527 
" clip-path="url(#p077365d0a9)" style="fill: none; stroke: #ff7f0e; stroke-width: 1.5"/>
    <path d="M 176.811558 152.411898 
L 176.811558 151.614494 
" clip-path="url(#p077365d0a9)" style="fill: none; stroke: #ff7f0e; stroke-width: 1.5"/>
    <path d="M 179.221346 153.389362 
L 179.221346 152.564884 
" clip-path="url(#p077365d0a9)" style="fill: none; stroke: #ff7f0e; stroke-width: 1.5"/>
    <path d="M 181.631134 152.593708 
L 181.631134 151.764036 
" clip-path="url(#p077365d0a9)" style="fill: none; stroke: #ff7f0e; stroke-width: 1.5"/>
    <path d="M 184.040921 153.264542 
L 184.040921 152.410122 
" clip-path="url(#p077365d0a9)" style="fill: none; stroke: #ff7f0e; stroke-width: 1.5"/>
    <path d="M 186.450709 153.26837 
L 186.450709 152.39266 
" clip-path="url(#p077365d0a9)" style="fill: none; stroke: #ff7f0e; stroke-width: 1.5"/>
    <path d="M 188.860497 153.683443 
L 188.860497 152.788864 
" clip-path="url(#p077365d0a9)" style="fill: none; stroke: #ff7f0e; stroke-width: 1.5"/>
    <path d="M 191.270285 152.812386 
L 191.270285 151.903243 
" clip-path="url(#p077365d0a9)" style="fill: none; stroke: #ff7f0e; stroke-width: 1.5"/>
    <path d="M 193.680072 153.498541 
L 193.680072 152.559069 
" clip-path="url(#p077365d0a9)" style="fill: none; stroke: #ff7f0e; stroke-width: 1.5"/>
    <path d="M 196.08986 154.491609 
L 196.08986 153.520254 
" clip-path="url(#p077365d0a9)" style="fill: none; stroke: #ff7f0e; stroke-width: 1.5"/>
    <path d="M 198.499648 155.105324 
L 198.499648 154.099153 
" clip-path="url(#p077365d0a9)" style="fill: none; stroke: #ff7f0e; stroke-width: 1.5"/>
    <path d="M 200.909436 154.855431 
L 200.909436 153.842197 
" clip-path="url(#p077365d0a9)" style="fill: none; stroke: #ff7f0e; stroke-width: 1.5"/>
    <path d="M 203.319223 153.934863 
L 203.319223 152.904911 
" clip-path="url(#p077365d0a9)" style="fill: none; stroke: #ff7f0e; stroke-width: 1.5"/>
    <path d="M 205.729011 155.460548 
L 205.729011 154.385864 
" clip-path="url(#p077365d0a9)" style="fill: none; stroke: #ff7f0e; stroke-width: 1.5"/>
    <path d="M 208.138799 155.886039 
L 208.138799 154.774618 
" clip-path="url(#p077365d0a9)" style="fill: none; stroke: #ff7f0e; stroke-width: 1.5"/>
    <path d="M 210.548587 156.053888 
L 210.548587 154.918941 
" clip-path="url(#p077365d0a9)" style="fill: none; stroke: #ff7f0e; stroke-width: 1.5"/>
    <path d="M 212.958374 155.709533 
L 212.958374 154.551287 
" clip-path="url(#p077365d0a9)" style="fill: none; stroke: #ff7f0e; stroke-width: 1.5"/>
    <path d="M 215.368162 155.264711 
L 215.368162 154.09109 
" clip-path="url(#p077365d0a9)" style="fill: none; stroke: #ff7f0e; stroke-width: 1.5"/>
    <path d="M 217.77795 156.696755 
L 217.77795 155.451144 
" clip-path="url(#p077365d0a9)" style="fill: none; stroke: #ff7f0e; stroke-width: 1.5"/>
    <path d="M 220.187738 155.873755 
L 220.187738 154.62146 
" clip-path="url(#p077365d0a9)" style="fill: none; stroke: #ff7f0e; stroke-width: 1.5"/>
    <path d="M 222.597525 155.871373 
L 222.597525 154.57865 
" clip-path="url(#p077365d0a9)" style="fill: none; stroke: #ff7f0e; stroke-width: 1.5"/>
    <path d="M 225.007313 157.292376 
L 225.007313 155.930745 
" clip-path="url(#p077365d0a9)" style="fill: none; stroke: #ff7f0e; stroke-width: 1.5"/>
    <path d="M 227.417101 156.792333 
L 227.417101 155.401318 
" clip-path="url(#p077365d0a9)" style="fill: none; stroke: #ff7f0e; stroke-width: 1.5"/>
    <path d="M 229.826889 156.230199 
L 229.826889 154.804865 
" clip-path="url(#p077365d0a9)" style="fill: none; stroke: #ff7f0e; stroke-width: 1.5"/>
    <path d="M 232.236676 157.458843 
L 232.236676 155.957592 
" clip-path="url(#p077365d0a9)" style="fill: none; stroke: #ff7f0e; stroke-width: 1.5"/>
    <path d="M 234.646464 155.86769 
L 234.646464 154.349285 
" clip-path="url(#p077365d0a9)" style="fill: none; stroke: #ff7f0e; stroke-width: 1.5"/>
    <path d="M 237.056252 154.920072 
L 237.056252 153.361514 
" clip-path="url(#p077365d0a9)" style="fill: none; stroke: #ff7f0e; stroke-width: 1.5"/>
    <path d="M 239.46604 156.027288 
L 239.46604 154.376746 
" clip-path="url(#p077365d0a9)" style="fill: none; stroke: #ff7f0e; stroke-width: 1.5"/>
    <path d="M 241.875828 156.246426 
L 241.875828 154.537455 
" clip-path="url(#p077365d0a9)" style="fill: none; stroke: #ff7f0e; stroke-width: 1.5"/>
    <path d="M 244.285615 157.8352 
L 244.285615 156.015932 
" clip-path="url(#p077365d0a9)" style="fill: none; stroke: #ff7f0e; stroke-width: 1.5"/>
    <path d="M 246.695403 156.52973 
L 246.695403 154.657444 
" clip-path="url(#p077365d0a9)" style="fill: none; stroke: #ff7f0e; stroke-width: 1.5"/>
    <path d="M 249.105191 157.399704 
L 249.105191 155.417417 
" clip-path="url(#p077365d0a9)" style="fill: none; stroke: #ff7f0e; stroke-width: 1.5"/>
    <path d="M 251.514979 156.133327 
L 251.514979 154.117352 
" clip-path="url(#p077365d0a9)" style="fill: none; stroke: #ff7f0e; stroke-width: 1.5"/>
    <path d="M 253.924766 154.8876 
L 253.924766 152.793417 
" clip-path="url(#p077365d0a9)" style="fill: none; stroke: #ff7f0e; stroke-width: 1.5"/>
    <path d="M 256.334554 156.949871 
L 256.334554 154.725317 
" clip-path="url(#p077365d0a9)" style="fill: none; stroke: #ff7f0e; stroke-width: 1.5"/>
    <path d="M 258.744342 156.800364 
L 258.744342 154.463301 
" clip-path="url(#p077365d0a9)" style="fill: none; stroke: #ff7f0e; stroke-width: 1.5"/>
    <path d="M 261.15413 155.704696 
L 261.15413 153.308685 
" clip-path="url(#p077365d0a9)" style="fill: none; stroke: #ff7f0e; stroke-width: 1.5"/>
    <path d="M 263.563917 157.789667 
L 263.563917 155.261266 
" clip-path="url(#p077365d0a9)" style="fill: none; stroke: #ff7f0e; stroke-width: 1.5"/>
    <path d="M 265.973705 155.174528 
L 265.973705 152.623086 
" clip-path="url(#p077365d0a9)" style="fill: none; stroke: #ff7f0e; stroke-width: 1.5"/>
    <path d="M 268.383493 159.011057 
L 268.383493 156.179521 
" clip-path="url(#p077365d0a9)" style="fill: none; stroke: #ff7f0e; stroke-width: 1.5"/>
    <path d="M 270.793281 156.177017 
L 270.793281 153.369709 
" clip-path="url(#p077365d0a9)" style="fill: none; stroke: #ff7f0e; stroke-width: 1.5"/>
    <path d="M 273.203068 157.229624 
L 273.203068 154.289353 
" clip-path="url(#p077365d0a9)" style="fill: none; stroke: #ff7f0e; stroke-width: 1.5"/>
    <path d="M 275.612856 156.161067 
L 275.612856 153.147269 
" clip-path="url(#p077365d0a9)" style="fill: none; stroke: #ff7f0e; stroke-width: 1.5"/>
    <path d="M 278.022644 158.401592 
L 278.022644 155.218596 
" clip-path="url(#p077365d0a9)" style="fill: none; stroke: #ff7f0e; stroke-width: 1.5"/>
    <path d="M 280.432432 159.444204 
L 280.432432 156.05448 
" clip-path="url(#p077365d0a9)" style="fill: none; stroke: #ff7f0e; stroke-width: 1.5"/>
    <path d="M 282.842219 156.503552 
L 282.842219 153.115507 
" clip-path="url(#p077365d0a9)" style="fill: none; stroke: #ff7f0e; stroke-width: 1.5"/>
    <path d="M 285.252007 157.534632 
L 285.252007 154.000018 
" clip-path="url(#p077365d0a9)" style="fill: none; stroke: #ff7f0e; stroke-width: 1.5"/>
    <path d="M 287.661795 158.800802 
L 287.661795 155.174463 
" clip-path="url(#p077365d0a9)" style="fill: none; stroke: #ff7f0e; stroke-width: 1.5"/>
    <path d="M 290.071583 158.205345 
L 290.071583 154.375135 
" clip-path="url(#p077365d0a9)" style="fill: none; stroke: #ff7f0e; stroke-width: 1.5"/>
    <path d="M 292.481371 161.303123 
L 292.481371 157.227142 
" clip-path="url(#p077365d0a9)" style="fill: none; stroke: #ff7f0e; stroke-width: 1.5"/>
    <path d="M 294.891158 159.152274 
L 294.891158 155.085028 
" clip-path="url(#p077365d0a9)" style="fill: none; stroke: #ff7f0e; stroke-width: 1.5"/>
    <path d="M 297.300946 161.705657 
L 297.300946 157.346953 
" clip-path="url(#p077365d0a9)" style="fill: none; stroke: #ff7f0e; stroke-width: 1.5"/>
    <path d="M 299.710734 155.840772 
L 299.710734 151.600561 
" clip-path="url(#p077365d0a9)" style="fill: none; stroke: #ff7f0e; stroke-width: 1.5"/>
    <path d="M 302.120522 163.48308 
L 302.120522 158.623534 
" clip-path="url(#p077365d0a9)" style="fill: none; stroke: #ff7f0e; stroke-width: 1.5"/>
    <path d="M 304.530309 162.575209 
L 304.530309 157.527445 
" clip-path="url(#p077365d0a9)" style="fill: none; stroke: #ff7f0e; stroke-width: 1.5"/>
    <path d="M 306.940097 158.105548 
L 306.940097 153.24429 
" clip-path="url(#p077365d0a9)" style="fill: none; stroke: #ff7f0e; stroke-width: 1.5"/>
    <path d="M 309.349885 157.394611 
L 309.349885 152.314112 
" clip-path="url(#p077365d0a9)" style="fill: none; stroke: #ff7f0e; stroke-width: 1.5"/>
    <path d="M 311.759673 156.689136 
L 311.759673 151.364415 
" clip-path="url(#p077365d0a9)" style="fill: none; stroke: #ff7f0e; stroke-width: 1.5"/>
    <path d="M 314.16946 160.670495 
L 314.16946 154.767011 
" clip-path="url(#p077365d0a9)" style="fill: none; stroke: #ff7f0e; stroke-width: 1.5"/>
    <path d="M 316.579248 161.529701 
L 316.579248 155.254996 
" clip-path="url(#p077365d0a9)" style="fill: none; stroke: #ff7f0e; stroke-width: 1.5"/>
    <path d="M 318.989036 157.540372 
L 318.989036 151.379039 
" clip-path="url(#p077365d0a9)" style="fill: none; stroke: #ff7f0e; stroke-width: 1.5"/>
    <path d="M 321.398824 156.322526 
L 321.398824 150.069144 
" clip-path="url(#p077365d0a9)" style="fill: none; stroke: #ff7f0e; stroke-width: 1.5"/>
    <path d="M 323.808611 169.390419 
L 323.808611 161.23764 
" clip-path="url(#p077365d0a9)" style="fill: none; stroke: #ff7f0e; stroke-width: 1.5"/>
    <path d="M 326.218399 165.848988 
L 326.218399 157.981519 
" clip-path="url(#p077365d0a9)" style="fill: none; stroke: #ff7f0e; stroke-width: 1.5"/>
    <path d="M 328.628187 168.310452 
L 328.628187 160.028166 
" clip-path="url(#p077365d0a9)" style="fill: none; stroke: #ff7f0e; stroke-width: 1.5"/>
    <path d="M 331.037975 172.237628 
L 331.037975 163.268871 
" clip-path="url(#p077365d0a9)" style="fill: none; stroke: #ff7f0e; stroke-width: 1.5"/>
    <path d="M 333.447762 160.004438 
L 333.447762 151.679343 
" clip-path="url(#p077365d0a9)" style="fill: none; stroke: #ff7f0e; stroke-width: 1.5"/>
    <path d="M 335.85755 165.200642 
L 335.85755 156.177024 
" clip-path="url(#p077365d0a9)" style="fill: none; stroke: #ff7f0e; stroke-width: 1.5"/>
    <path d="M 338.267338 167.86741 
L 338.267338 157.961855 
" clip-path="url(#p077365d0a9)" style="fill: none; stroke: #ff7f0e; stroke-width: 1.5"/>
    <path d="M 340.677126 158.116573 
L 340.677126 149.038746 
" clip-path="url(#p077365d0a9)" style="fill: none; stroke: #ff7f0e; stroke-width: 1.5"/>
    <path d="M 343.086914 164.314819 
L 343.086914 154.558332 
" clip-path="url(#p077365d0a9)" style="fill: none; stroke: #ff7f0e; stroke-width: 1.5"/>
    <path d="M 345.496701 172.635683 
L 345.496701 160.119952 
" clip-path="url(#p077365d0a9)" style="fill: none; stroke: #ff7f0e; stroke-width: 1.5"/>
    <path d="M 347.906489 172.000596 
L 347.906489 158.876816 
" clip-path="url(#p077365d0a9)" style="fill: none; stroke: #ff7f0e; stroke-width: 1.5"/>
    <path d="M 350.316277 162.707635 
L 350.316277 151.235495 
" clip-path="url(#p077365d0a9)" style="fill: none; stroke: #ff7f0e; stroke-width: 1.5"/>
    <path d="M 352.726065 171.759205 
L 352.726065 157.780224 
" clip-path="url(#p077365d0a9)" style="fill: none; stroke: #ff7f0e; stroke-width: 1.5"/>
    <path d="M 355.135852 165.998457 
L 355.135852 152.852565 
" clip-path="url(#p077365d0a9)" style="fill: none; stroke: #ff7f0e; stroke-width: 1.5"/>
    <path d="M 357.54564 160.228207 
L 357.54564 147.416664 
" clip-path="url(#p077365d0a9)" style="fill: none; stroke: #ff7f0e; stroke-width: 1.5"/>
    <path d="M 359.955428 170.037875 
L 359.955428 155.734694 
" clip-path="url(#p077365d0a9)" style="fill: none; stroke: #ff7f0e; stroke-width: 1.5"/>
    <path d="M 362.365216 164.490689 
L 362.365216 150.176326 
" clip-path="url(#p077365d0a9)" style="fill: none; stroke: #ff7f0e; stroke-width: 1.5"/>
    <path d="M 364.775003 176.2619 
L 364.775003 159.411577 
" clip-path="url(#p077365d0a9)" style="fill: none; stroke: #ff7f0e; stroke-width: 1.5"/>
    <path d="M 367.184791 168.751524 
L 367.184791 152.582414 
" clip-path="url(#p077365d0a9)" style="fill: none; stroke: #ff7f0e; stroke-width: 1.5"/>
    <path d="M 369.594579 157.954737 
L 369.594579 142.669555 
" clip-path="url(#p077365d0a9)" style="fill: none; stroke: #ff7f0e; stroke-width: 1.5"/>
    <path d="M 372.004367 150.727385 
L 372.004367 135.947923 
" clip-path="url(#p077365d0a9)" style="fill: none; stroke: #ff7f0e; stroke-width: 1.5"/>
    <path d="M 374.414154 173.92644 
L 374.414154 152.435503 
" clip-path="url(#p077365d0a9)" style="fill: none; stroke: #ff7f0e; stroke-width: 1.5"/>
    <path d="M 376.823942 157.626118 
L 376.823942 138.613043 
" clip-path="url(#p077365d0a9)" style="fill: none; stroke: #ff7f0e; stroke-width: 1.5"/>
    <path d="M 379.23373 164.674038 
L 379.23373 141.003355 
" clip-path="url(#p077365d0a9)" style="fill: none; stroke: #ff7f0e; stroke-width: 1.5"/>
    <path d="M 381.643518 179.038626 
L 381.643518 149.269603 
" clip-path="url(#p077365d0a9)" style="fill: none; stroke: #ff7f0e; stroke-width: 1.5"/>
    <path d="M 384.053305 191.524611 
L 384.053305 152.537852 
" clip-path="url(#p077365d0a9)" style="fill: none; stroke: #ff7f0e; stroke-width: 1.5"/>
    <path d="M 386.463093 188.094517 
L 386.463093 153.044566 
" clip-path="url(#p077365d0a9)" style="fill: none; stroke: #ff7f0e; stroke-width: 1.5"/>
    <path d="M 388.872881 200.845684 
L 388.872881 156.433165 
" clip-path="url(#p077365d0a9)" style="fill: none; stroke: #ff7f0e; stroke-width: 1.5"/>
    <path d="M 391.282669 200.448106 
L 391.282669 136.292185 
" clip-path="url(#p077365d0a9)" style="fill: none; stroke: #ff7f0e; stroke-width: 1.5"/>
    <path d="M 393.692457 202.274031 
L 393.692457 135.361677 
" clip-path="url(#p077365d0a9)" style="fill: none; stroke: #ff7f0e; stroke-width: 1.5"/>
    <path d="M 396.102244 200.934184 
L 396.102244 129.673338 
" clip-path="url(#p077365d0a9)" style="fill: none; stroke: #ff7f0e; stroke-width: 1.5"/>
    <path clip-path="url(#p077365d0a9)" style="fill: none; stroke: #ff7f0e; stroke-width: 1.5"/>
   </g>
  </g>
 </g>
 <defs>
  <clipPath id="p077365d0a9">
   <rect x="45.478125" y="7.2" width="371.107315" height="234.4525"/>
  </clipPath>
 </defs>
</svg>
