<?xml version="1.0" encoding="utf-8" standalone="no"?>
<!DOCTYPE svg PUBLIC "-//W3C//DTD SVG 1.1//EN"
  "http://www.w3.org/Graphics/SVG/1.1/DTD/svg11.dtd">
<svg xmlns:xlink="http://www.w3.org/1999/xlink" width="423.222263pt" height="276.820187pt" viewBox="0 0 423.222263 276.820187" xmlns="http://www.w3.org/2000/svg" version="1.1">
 <metadata>
  <rdf:RDF xmlns:dc="http://purl.org/dc/elements/1.1/" xmlns:cc="http://creativecommons.org/ns#" xmlns:rdf="http://www.w3.org/1999/02/22-rdf-syntax-ns#">
   <cc:Work>
    <dc:type rdf:resource="http://purl.org/dc/dcmitype/StillImage"/>
    <dc:date>2024-06-17T05:53:11.369854</dc:date>
    <dc:format>image/svg+xml</dc:format>
    <dc:creator>
     <cc:Agent>
      <dc:title>Matplotlib v3.9.0, https://matplotlib.org/</dc:title>
     </cc:Agent>
    </dc:creator>
   </cc:Work>
  </rdf:RDF>
 </metadata>
 <defs>
  <style type="text/css">*{stroke-linejoin: round; stroke-linecap: butt}</style>
 </defs>
 <g id="figure_1">
  <g id="patch_1">
   <path d="M 0 276.820187 
L 423.222263 276.820187 
L 423.222263 -0 
L 0 -0 
z
" style="fill: #ffffff"/>
  </g>
  <g id="axes_1">
   <g id="patch_2">
    <path d="M 45.478125 238.3405 
L 409.833723 238.3405 
L 409.833723 7.2 
L 45.478125 7.2 
z
" style="fill: #ffffff"/>
   </g>
   <g id="matplotlib.axis_1">
    <g id="xtick_1">
     <g id="line2d_1">
      <defs>
       <path id="m80c364fd39" d="M 0 0 
L 0 3.5 
" style="stroke: #000000; stroke-width: 0.8"/>
      </defs>
      <g>
       <use xlink:href="#m80c364fd39" x="119.323051" y="238.3405" style="stroke: #000000; stroke-width: 0.8"/>
      </g>
     </g>
     <g id="text_1">
      <!-- $\mathdefault{10^{-2}}$ -->
      <g transform="translate(107.573051 252.938937) scale(0.1 -0.1)">
       <defs>
        <path id="DejaVuSans-31" d="M 794 531 
L 1825 531 
L 1825 4091 
L 703 3866 
L 703 4441 
L 1819 4666 
L 2450 4666 
L 2450 531 
L 3481 531 
L 3481 0 
L 794 0 
L 794 531 
z
" transform="scale(0.015625)"/>
        <path id="DejaVuSans-30" d="M 2034 4250 
Q 1547 4250 1301 3770 
Q 1056 3291 1056 2328 
Q 1056 1369 1301 889 
Q 1547 409 2034 409 
Q 2525 409 2770 889 
Q 3016 1369 3016 2328 
Q 3016 3291 2770 3770 
Q 2525 4250 2034 4250 
z
M 2034 4750 
Q 2819 4750 3233 4129 
Q 3647 3509 3647 2328 
Q 3647 1150 3233 529 
Q 2819 -91 2034 -91 
Q 1250 -91 836 529 
Q 422 1150 422 2328 
Q 422 3509 836 4129 
Q 1250 4750 2034 4750 
z
" transform="scale(0.015625)"/>
        <path id="DejaVuSans-2212" d="M 678 2272 
L 4684 2272 
L 4684 1741 
L 678 1741 
L 678 2272 
z
" transform="scale(0.015625)"/>
        <path id="DejaVuSans-32" d="M 1228 531 
L 3431 531 
L 3431 0 
L 469 0 
L 469 531 
Q 828 903 1448 1529 
Q 2069 2156 2228 2338 
Q 2531 2678 2651 2914 
Q 2772 3150 2772 3378 
Q 2772 3750 2511 3984 
Q 2250 4219 1831 4219 
Q 1534 4219 1204 4116 
Q 875 4013 500 3803 
L 500 4441 
Q 881 4594 1212 4672 
Q 1544 4750 1819 4750 
Q 2544 4750 2975 4387 
Q 3406 4025 3406 3419 
Q 3406 3131 3298 2873 
Q 3191 2616 2906 2266 
Q 2828 2175 2409 1742 
Q 1991 1309 1228 531 
z
" transform="scale(0.015625)"/>
       </defs>
       <use xlink:href="#DejaVuSans-31" transform="translate(0 0.765625)"/>
       <use xlink:href="#DejaVuSans-30" transform="translate(63.623047 0.765625)"/>
       <use xlink:href="#DejaVuSans-2212" transform="translate(128.203125 39.046875) scale(0.7)"/>
       <use xlink:href="#DejaVuSans-32" transform="translate(186.855469 39.046875) scale(0.7)"/>
      </g>
     </g>
    </g>
    <g id="xtick_2">
     <g id="line2d_2">
      <g>
       <use xlink:href="#m80c364fd39" x="263.272657" y="238.3405" style="stroke: #000000; stroke-width: 0.8"/>
      </g>
     </g>
     <g id="text_2">
      <!-- $\mathdefault{10^{-1}}$ -->
      <g transform="translate(251.522657 252.938937) scale(0.1 -0.1)">
       <use xlink:href="#DejaVuSans-31" transform="translate(0 0.684375)"/>
       <use xlink:href="#DejaVuSans-30" transform="translate(63.623047 0.684375)"/>
       <use xlink:href="#DejaVuSans-2212" transform="translate(128.203125 38.965625) scale(0.7)"/>
       <use xlink:href="#DejaVuSans-31" transform="translate(186.855469 38.965625) scale(0.7)"/>
      </g>
     </g>
    </g>
    <g id="xtick_3">
     <g id="line2d_3">
      <g>
       <use xlink:href="#m80c364fd39" x="407.222263" y="238.3405" style="stroke: #000000; stroke-width: 0.8"/>
      </g>
     </g>
     <g id="text_3">
      <!-- $\mathdefault{10^{0}}$ -->
      <g transform="translate(398.422263 252.938937) scale(0.1 -0.1)">
       <use xlink:href="#DejaVuSans-31" transform="translate(0 0.765625)"/>
       <use xlink:href="#DejaVuSans-30" transform="translate(63.623047 0.765625)"/>
       <use xlink:href="#DejaVuSans-30" transform="translate(128.203125 39.046875) scale(0.7)"/>
      </g>
     </g>
    </g>
    <g id="xtick_4">
     <g id="line2d_4">
      <defs>
       <path id="m7014166904" d="M 0 0 
L 0 2 
" style="stroke: #000000; stroke-width: 0.6"/>
      </defs>
      <g>
       <use xlink:href="#m7014166904" x="62.039743" y="238.3405" style="stroke: #000000; stroke-width: 0.6"/>
      </g>
     </g>
    </g>
    <g id="xtick_5">
     <g id="line2d_5">
      <g>
       <use xlink:href="#m7014166904" x="75.989901" y="238.3405" style="stroke: #000000; stroke-width: 0.6"/>
      </g>
     </g>
    </g>
    <g id="xtick_6">
     <g id="line2d_6">
      <g>
       <use xlink:href="#m7014166904" x="87.38801" y="238.3405" style="stroke: #000000; stroke-width: 0.6"/>
      </g>
     </g>
    </g>
    <g id="xtick_7">
     <g id="line2d_7">
      <g>
       <use xlink:href="#m7014166904" x="97.024974" y="238.3405" style="stroke: #000000; stroke-width: 0.6"/>
      </g>
     </g>
    </g>
    <g id="xtick_8">
     <g id="line2d_8">
      <g>
       <use xlink:href="#m7014166904" x="105.372892" y="238.3405" style="stroke: #000000; stroke-width: 0.6"/>
      </g>
     </g>
    </g>
    <g id="xtick_9">
     <g id="line2d_9">
      <g>
       <use xlink:href="#m7014166904" x="112.736278" y="238.3405" style="stroke: #000000; stroke-width: 0.6"/>
      </g>
     </g>
    </g>
    <g id="xtick_10">
     <g id="line2d_10">
      <g>
       <use xlink:href="#m7014166904" x="162.6562" y="238.3405" style="stroke: #000000; stroke-width: 0.6"/>
      </g>
     </g>
    </g>
    <g id="xtick_11">
     <g id="line2d_11">
      <g>
       <use xlink:href="#m7014166904" x="188.004467" y="238.3405" style="stroke: #000000; stroke-width: 0.6"/>
      </g>
     </g>
    </g>
    <g id="xtick_12">
     <g id="line2d_12">
      <g>
       <use xlink:href="#m7014166904" x="205.989349" y="238.3405" style="stroke: #000000; stroke-width: 0.6"/>
      </g>
     </g>
    </g>
    <g id="xtick_13">
     <g id="line2d_13">
      <g>
       <use xlink:href="#m7014166904" x="219.939507" y="238.3405" style="stroke: #000000; stroke-width: 0.6"/>
      </g>
     </g>
    </g>
    <g id="xtick_14">
     <g id="line2d_14">
      <g>
       <use xlink:href="#m7014166904" x="231.337617" y="238.3405" style="stroke: #000000; stroke-width: 0.6"/>
      </g>
     </g>
    </g>
    <g id="xtick_15">
     <g id="line2d_15">
      <g>
       <use xlink:href="#m7014166904" x="240.974581" y="238.3405" style="stroke: #000000; stroke-width: 0.6"/>
      </g>
     </g>
    </g>
    <g id="xtick_16">
     <g id="line2d_16">
      <g>
       <use xlink:href="#m7014166904" x="249.322499" y="238.3405" style="stroke: #000000; stroke-width: 0.6"/>
      </g>
     </g>
    </g>
    <g id="xtick_17">
     <g id="line2d_17">
      <g>
       <use xlink:href="#m7014166904" x="256.685884" y="238.3405" style="stroke: #000000; stroke-width: 0.6"/>
      </g>
     </g>
    </g>
    <g id="xtick_18">
     <g id="line2d_18">
      <g>
       <use xlink:href="#m7014166904" x="306.605806" y="238.3405" style="stroke: #000000; stroke-width: 0.6"/>
      </g>
     </g>
    </g>
    <g id="xtick_19">
     <g id="line2d_19">
      <g>
       <use xlink:href="#m7014166904" x="331.954073" y="238.3405" style="stroke: #000000; stroke-width: 0.6"/>
      </g>
     </g>
    </g>
    <g id="xtick_20">
     <g id="line2d_20">
      <g>
       <use xlink:href="#m7014166904" x="349.938955" y="238.3405" style="stroke: #000000; stroke-width: 0.6"/>
      </g>
     </g>
    </g>
    <g id="xtick_21">
     <g id="line2d_21">
      <g>
       <use xlink:href="#m7014166904" x="363.889114" y="238.3405" style="stroke: #000000; stroke-width: 0.6"/>
      </g>
     </g>
    </g>
    <g id="xtick_22">
     <g id="line2d_22">
      <g>
       <use xlink:href="#m7014166904" x="375.287223" y="238.3405" style="stroke: #000000; stroke-width: 0.6"/>
      </g>
     </g>
    </g>
    <g id="xtick_23">
     <g id="line2d_23">
      <g>
       <use xlink:href="#m7014166904" x="384.924187" y="238.3405" style="stroke: #000000; stroke-width: 0.6"/>
      </g>
     </g>
    </g>
    <g id="xtick_24">
     <g id="line2d_24">
      <g>
       <use xlink:href="#m7014166904" x="393.272105" y="238.3405" style="stroke: #000000; stroke-width: 0.6"/>
      </g>
     </g>
    </g>
    <g id="xtick_25">
     <g id="line2d_25">
      <g>
       <use xlink:href="#m7014166904" x="400.63549" y="238.3405" style="stroke: #000000; stroke-width: 0.6"/>
      </g>
     </g>
    </g>
    <g id="text_4">
     <!-- Q [1/Å] -->
     <g transform="translate(209.943424 267.5405) scale(0.1 -0.1)">
      <defs>
       <path id="DejaVuSans-51" d="M 2522 4238 
Q 1834 4238 1429 3725 
Q 1025 3213 1025 2328 
Q 1025 1447 1429 934 
Q 1834 422 2522 422 
Q 3209 422 3611 934 
Q 4013 1447 4013 2328 
Q 4013 3213 3611 3725 
Q 3209 4238 2522 4238 
z
M 3406 84 
L 4238 -825 
L 3475 -825 
L 2784 -78 
Q 2681 -84 2626 -87 
Q 2572 -91 2522 -91 
Q 1538 -91 948 567 
Q 359 1225 359 2328 
Q 359 3434 948 4092 
Q 1538 4750 2522 4750 
Q 3503 4750 4090 4092 
Q 4678 3434 4678 2328 
Q 4678 1516 4351 937 
Q 4025 359 3406 84 
z
" transform="scale(0.015625)"/>
       <path id="DejaVuSans-20" transform="scale(0.015625)"/>
       <path id="DejaVuSans-5b" d="M 550 4863 
L 1875 4863 
L 1875 4416 
L 1125 4416 
L 1125 -397 
L 1875 -397 
L 1875 -844 
L 550 -844 
L 550 4863 
z
" transform="scale(0.015625)"/>
       <path id="DejaVuSans-2f" d="M 1625 4666 
L 2156 4666 
L 531 -594 
L 0 -594 
L 1625 4666 
z
" transform="scale(0.015625)"/>
       <path id="DejaVuSans-c5" d="M 2663 5081 
Q 2663 5278 2523 5417 
Q 2384 5556 2188 5556 
Q 1988 5556 1852 5420 
Q 1716 5284 1716 5081 
Q 1716 4884 1853 4746 
Q 1991 4609 2188 4609 
Q 2384 4609 2523 4746 
Q 2663 4884 2663 5081 
z
M 2188 4044 
L 1338 1722 
L 3041 1722 
L 2188 4044 
z
M 1716 4366 
Q 1525 4494 1428 4673 
Q 1331 4853 1331 5081 
Q 1331 5441 1579 5691 
Q 1828 5941 2188 5941 
Q 2544 5941 2795 5689 
Q 3047 5438 3047 5081 
Q 3047 4863 2948 4678 
Q 2850 4494 2663 4366 
L 4325 0 
L 3669 0 
L 3244 1197 
L 1141 1197 
L 716 0 
L 50 0 
L 1716 4366 
z
" transform="scale(0.015625)"/>
       <path id="DejaVuSans-5d" d="M 1947 4863 
L 1947 -844 
L 622 -844 
L 622 -397 
L 1369 -397 
L 1369 4416 
L 622 4416 
L 622 4863 
L 1947 4863 
z
" transform="scale(0.015625)"/>
      </defs>
      <use xlink:href="#DejaVuSans-51"/>
      <use xlink:href="#DejaVuSans-20" x="78.710938"/>
      <use xlink:href="#DejaVuSans-5b" x="110.498047"/>
      <use xlink:href="#DejaVuSans-31" x="149.511719"/>
      <use xlink:href="#DejaVuSans-2f" x="213.134766"/>
      <use xlink:href="#DejaVuSans-c5" x="246.826172"/>
      <use xlink:href="#DejaVuSans-5d" x="315.234375"/>
     </g>
    </g>
   </g>
   <g id="matplotlib.axis_2">
    <g id="ytick_1">
     <g id="line2d_26">
      <defs>
       <path id="ma81cfb0277" d="M 0 0 
L -3.5 0 
" style="stroke: #000000; stroke-width: 0.8"/>
      </defs>
      <g>
       <use xlink:href="#ma81cfb0277" x="45.478125" y="212.528667" style="stroke: #000000; stroke-width: 0.8"/>
      </g>
     </g>
     <g id="text_5">
      <!-- $\mathdefault{10^{1}}$ -->
      <g transform="translate(20.878125 216.327885) scale(0.1 -0.1)">
       <use xlink:href="#DejaVuSans-31" transform="translate(0 0.684375)"/>
       <use xlink:href="#DejaVuSans-30" transform="translate(63.623047 0.684375)"/>
       <use xlink:href="#DejaVuSans-31" transform="translate(128.203125 38.965625) scale(0.7)"/>
      </g>
     </g>
    </g>
    <g id="ytick_2">
     <g id="line2d_27">
      <g>
       <use xlink:href="#ma81cfb0277" x="45.478125" y="157.735116" style="stroke: #000000; stroke-width: 0.8"/>
      </g>
     </g>
     <g id="text_6">
      <!-- $\mathdefault{10^{2}}$ -->
      <g transform="translate(20.878125 161.534334) scale(0.1 -0.1)">
       <use xlink:href="#DejaVuSans-31" transform="translate(0 0.765625)"/>
       <use xlink:href="#DejaVuSans-30" transform="translate(63.623047 0.765625)"/>
       <use xlink:href="#DejaVuSans-32" transform="translate(128.203125 39.046875) scale(0.7)"/>
      </g>
     </g>
    </g>
    <g id="ytick_3">
     <g id="line2d_28">
      <g>
       <use xlink:href="#ma81cfb0277" x="45.478125" y="102.941565" style="stroke: #000000; stroke-width: 0.8"/>
      </g>
     </g>
     <g id="text_7">
      <!-- $\mathdefault{10^{3}}$ -->
      <g transform="translate(20.878125 106.740783) scale(0.1 -0.1)">
       <defs>
        <path id="DejaVuSans-33" d="M 2597 2516 
Q 3050 2419 3304 2112 
Q 3559 1806 3559 1356 
Q 3559 666 3084 287 
Q 2609 -91 1734 -91 
Q 1441 -91 1130 -33 
Q 819 25 488 141 
L 488 750 
Q 750 597 1062 519 
Q 1375 441 1716 441 
Q 2309 441 2620 675 
Q 2931 909 2931 1356 
Q 2931 1769 2642 2001 
Q 2353 2234 1838 2234 
L 1294 2234 
L 1294 2753 
L 1863 2753 
Q 2328 2753 2575 2939 
Q 2822 3125 2822 3475 
Q 2822 3834 2567 4026 
Q 2313 4219 1838 4219 
Q 1578 4219 1281 4162 
Q 984 4106 628 3988 
L 628 4550 
Q 988 4650 1302 4700 
Q 1616 4750 1894 4750 
Q 2613 4750 3031 4423 
Q 3450 4097 3450 3541 
Q 3450 3153 3228 2886 
Q 3006 2619 2597 2516 
z
" transform="scale(0.015625)"/>
       </defs>
       <use xlink:href="#DejaVuSans-31" transform="translate(0 0.765625)"/>
       <use xlink:href="#DejaVuSans-30" transform="translate(63.623047 0.765625)"/>
       <use xlink:href="#DejaVuSans-33" transform="translate(128.203125 39.046875) scale(0.7)"/>
      </g>
     </g>
    </g>
    <g id="ytick_4">
     <g id="line2d_29">
      <g>
       <use xlink:href="#ma81cfb0277" x="45.478125" y="48.148014" style="stroke: #000000; stroke-width: 0.8"/>
      </g>
     </g>
     <g id="text_8">
      <!-- $\mathdefault{10^{4}}$ -->
      <g transform="translate(20.878125 51.947232) scale(0.1 -0.1)">
       <defs>
        <path id="DejaVuSans-34" d="M 2419 4116 
L 825 1625 
L 2419 1625 
L 2419 4116 
z
M 2253 4666 
L 3047 4666 
L 3047 1625 
L 3713 1625 
L 3713 1100 
L 3047 1100 
L 3047 0 
L 2419 0 
L 2419 1100 
L 313 1100 
L 313 1709 
L 2253 4666 
z
" transform="scale(0.015625)"/>
       </defs>
       <use xlink:href="#DejaVuSans-31" transform="translate(0 0.684375)"/>
       <use xlink:href="#DejaVuSans-30" transform="translate(63.623047 0.684375)"/>
       <use xlink:href="#DejaVuSans-34" transform="translate(128.203125 38.965625) scale(0.7)"/>
      </g>
     </g>
    </g>
    <g id="ytick_5">
     <g id="line2d_30">
      <defs>
       <path id="mba3c998c0c" d="M 0 0 
L -2 0 
" style="stroke: #000000; stroke-width: 0.6"/>
      </defs>
      <g>
       <use xlink:href="#mba3c998c0c" x="45.478125" y="234.333213" style="stroke: #000000; stroke-width: 0.6"/>
      </g>
     </g>
    </g>
    <g id="ytick_6">
     <g id="line2d_31">
      <g>
       <use xlink:href="#mba3c998c0c" x="45.478125" y="229.023169" style="stroke: #000000; stroke-width: 0.6"/>
      </g>
     </g>
    </g>
    <g id="ytick_7">
     <g id="line2d_32">
      <g>
       <use xlink:href="#mba3c998c0c" x="45.478125" y="224.684547" style="stroke: #000000; stroke-width: 0.6"/>
      </g>
     </g>
    </g>
    <g id="ytick_8">
     <g id="line2d_33">
      <g>
       <use xlink:href="#mba3c998c0c" x="45.478125" y="221.016295" style="stroke: #000000; stroke-width: 0.6"/>
      </g>
     </g>
    </g>
    <g id="ytick_9">
     <g id="line2d_34">
      <g>
       <use xlink:href="#mba3c998c0c" x="45.478125" y="217.83871" style="stroke: #000000; stroke-width: 0.6"/>
      </g>
     </g>
    </g>
    <g id="ytick_10">
     <g id="line2d_35">
      <g>
       <use xlink:href="#mba3c998c0c" x="45.478125" y="215.035882" style="stroke: #000000; stroke-width: 0.6"/>
      </g>
     </g>
    </g>
    <g id="ytick_11">
     <g id="line2d_36">
      <g>
       <use xlink:href="#mba3c998c0c" x="45.478125" y="196.034164" style="stroke: #000000; stroke-width: 0.6"/>
      </g>
     </g>
    </g>
    <g id="ytick_12">
     <g id="line2d_37">
      <g>
       <use xlink:href="#mba3c998c0c" x="45.478125" y="186.385499" style="stroke: #000000; stroke-width: 0.6"/>
      </g>
     </g>
    </g>
    <g id="ytick_13">
     <g id="line2d_38">
      <g>
       <use xlink:href="#mba3c998c0c" x="45.478125" y="179.539662" style="stroke: #000000; stroke-width: 0.6"/>
      </g>
     </g>
    </g>
    <g id="ytick_14">
     <g id="line2d_39">
      <g>
       <use xlink:href="#mba3c998c0c" x="45.478125" y="174.229618" style="stroke: #000000; stroke-width: 0.6"/>
      </g>
     </g>
    </g>
    <g id="ytick_15">
     <g id="line2d_40">
      <g>
       <use xlink:href="#mba3c998c0c" x="45.478125" y="169.890996" style="stroke: #000000; stroke-width: 0.6"/>
      </g>
     </g>
    </g>
    <g id="ytick_16">
     <g id="line2d_41">
      <g>
       <use xlink:href="#mba3c998c0c" x="45.478125" y="166.222744" style="stroke: #000000; stroke-width: 0.6"/>
      </g>
     </g>
    </g>
    <g id="ytick_17">
     <g id="line2d_42">
      <g>
       <use xlink:href="#mba3c998c0c" x="45.478125" y="163.045159" style="stroke: #000000; stroke-width: 0.6"/>
      </g>
     </g>
    </g>
    <g id="ytick_18">
     <g id="line2d_43">
      <g>
       <use xlink:href="#mba3c998c0c" x="45.478125" y="160.242331" style="stroke: #000000; stroke-width: 0.6"/>
      </g>
     </g>
    </g>
    <g id="ytick_19">
     <g id="line2d_44">
      <g>
       <use xlink:href="#mba3c998c0c" x="45.478125" y="141.240613" style="stroke: #000000; stroke-width: 0.6"/>
      </g>
     </g>
    </g>
    <g id="ytick_20">
     <g id="line2d_45">
      <g>
       <use xlink:href="#mba3c998c0c" x="45.478125" y="131.591948" style="stroke: #000000; stroke-width: 0.6"/>
      </g>
     </g>
    </g>
    <g id="ytick_21">
     <g id="line2d_46">
      <g>
       <use xlink:href="#mba3c998c0c" x="45.478125" y="124.746111" style="stroke: #000000; stroke-width: 0.6"/>
      </g>
     </g>
    </g>
    <g id="ytick_22">
     <g id="line2d_47">
      <g>
       <use xlink:href="#mba3c998c0c" x="45.478125" y="119.436067" style="stroke: #000000; stroke-width: 0.6"/>
      </g>
     </g>
    </g>
    <g id="ytick_23">
     <g id="line2d_48">
      <g>
       <use xlink:href="#mba3c998c0c" x="45.478125" y="115.097445" style="stroke: #000000; stroke-width: 0.6"/>
      </g>
     </g>
    </g>
    <g id="ytick_24">
     <g id="line2d_49">
      <g>
       <use xlink:href="#mba3c998c0c" x="45.478125" y="111.429193" style="stroke: #000000; stroke-width: 0.6"/>
      </g>
     </g>
    </g>
    <g id="ytick_25">
     <g id="line2d_50">
      <g>
       <use xlink:href="#mba3c998c0c" x="45.478125" y="108.251608" style="stroke: #000000; stroke-width: 0.6"/>
      </g>
     </g>
    </g>
    <g id="ytick_26">
     <g id="line2d_51">
      <g>
       <use xlink:href="#mba3c998c0c" x="45.478125" y="105.44878" style="stroke: #000000; stroke-width: 0.6"/>
      </g>
     </g>
    </g>
    <g id="ytick_27">
     <g id="line2d_52">
      <g>
       <use xlink:href="#mba3c998c0c" x="45.478125" y="86.447062" style="stroke: #000000; stroke-width: 0.6"/>
      </g>
     </g>
    </g>
    <g id="ytick_28">
     <g id="line2d_53">
      <g>
       <use xlink:href="#mba3c998c0c" x="45.478125" y="76.798397" style="stroke: #000000; stroke-width: 0.6"/>
      </g>
     </g>
    </g>
    <g id="ytick_29">
     <g id="line2d_54">
      <g>
       <use xlink:href="#mba3c998c0c" x="45.478125" y="69.95256" style="stroke: #000000; stroke-width: 0.6"/>
      </g>
     </g>
    </g>
    <g id="ytick_30">
     <g id="line2d_55">
      <g>
       <use xlink:href="#mba3c998c0c" x="45.478125" y="64.642516" style="stroke: #000000; stroke-width: 0.6"/>
      </g>
     </g>
    </g>
    <g id="ytick_31">
     <g id="line2d_56">
      <g>
       <use xlink:href="#mba3c998c0c" x="45.478125" y="60.303894" style="stroke: #000000; stroke-width: 0.6"/>
      </g>
     </g>
    </g>
    <g id="ytick_32">
     <g id="line2d_57">
      <g>
       <use xlink:href="#mba3c998c0c" x="45.478125" y="56.635642" style="stroke: #000000; stroke-width: 0.6"/>
      </g>
     </g>
    </g>
    <g id="ytick_33">
     <g id="line2d_58">
      <g>
       <use xlink:href="#mba3c998c0c" x="45.478125" y="53.458057" style="stroke: #000000; stroke-width: 0.6"/>
      </g>
     </g>
    </g>
    <g id="ytick_34">
     <g id="line2d_59">
      <g>
       <use xlink:href="#mba3c998c0c" x="45.478125" y="50.655229" style="stroke: #000000; stroke-width: 0.6"/>
      </g>
     </g>
    </g>
    <g id="ytick_35">
     <g id="line2d_60">
      <g>
       <use xlink:href="#mba3c998c0c" x="45.478125" y="31.653511" style="stroke: #000000; stroke-width: 0.6"/>
      </g>
     </g>
    </g>
    <g id="ytick_36">
     <g id="line2d_61">
      <g>
       <use xlink:href="#mba3c998c0c" x="45.478125" y="22.004846" style="stroke: #000000; stroke-width: 0.6"/>
      </g>
     </g>
    </g>
    <g id="ytick_37">
     <g id="line2d_62">
      <g>
       <use xlink:href="#mba3c998c0c" x="45.478125" y="15.159009" style="stroke: #000000; stroke-width: 0.6"/>
      </g>
     </g>
    </g>
    <g id="ytick_38">
     <g id="line2d_63">
      <g>
       <use xlink:href="#mba3c998c0c" x="45.478125" y="9.848965" style="stroke: #000000; stroke-width: 0.6"/>
      </g>
     </g>
    </g>
    <g id="text_9">
     <!-- [dimensionless] -->
     <g transform="translate(14.798438 162.247594) rotate(-90) scale(0.1 -0.1)">
      <defs>
       <path id="DejaVuSans-64" d="M 2906 2969 
L 2906 4863 
L 3481 4863 
L 3481 0 
L 2906 0 
L 2906 525 
Q 2725 213 2448 61 
Q 2172 -91 1784 -91 
Q 1150 -91 751 415 
Q 353 922 353 1747 
Q 353 2572 751 3078 
Q 1150 3584 1784 3584 
Q 2172 3584 2448 3432 
Q 2725 3281 2906 2969 
z
M 947 1747 
Q 947 1113 1208 752 
Q 1469 391 1925 391 
Q 2381 391 2643 752 
Q 2906 1113 2906 1747 
Q 2906 2381 2643 2742 
Q 2381 3103 1925 3103 
Q 1469 3103 1208 2742 
Q 947 2381 947 1747 
z
" transform="scale(0.015625)"/>
       <path id="DejaVuSans-69" d="M 603 3500 
L 1178 3500 
L 1178 0 
L 603 0 
L 603 3500 
z
M 603 4863 
L 1178 4863 
L 1178 4134 
L 603 4134 
L 603 4863 
z
" transform="scale(0.015625)"/>
       <path id="DejaVuSans-6d" d="M 3328 2828 
Q 3544 3216 3844 3400 
Q 4144 3584 4550 3584 
Q 5097 3584 5394 3201 
Q 5691 2819 5691 2113 
L 5691 0 
L 5113 0 
L 5113 2094 
Q 5113 2597 4934 2840 
Q 4756 3084 4391 3084 
Q 3944 3084 3684 2787 
Q 3425 2491 3425 1978 
L 3425 0 
L 2847 0 
L 2847 2094 
Q 2847 2600 2669 2842 
Q 2491 3084 2119 3084 
Q 1678 3084 1418 2786 
Q 1159 2488 1159 1978 
L 1159 0 
L 581 0 
L 581 3500 
L 1159 3500 
L 1159 2956 
Q 1356 3278 1631 3431 
Q 1906 3584 2284 3584 
Q 2666 3584 2933 3390 
Q 3200 3197 3328 2828 
z
" transform="scale(0.015625)"/>
       <path id="DejaVuSans-65" d="M 3597 1894 
L 3597 1613 
L 953 1613 
Q 991 1019 1311 708 
Q 1631 397 2203 397 
Q 2534 397 2845 478 
Q 3156 559 3463 722 
L 3463 178 
Q 3153 47 2828 -22 
Q 2503 -91 2169 -91 
Q 1331 -91 842 396 
Q 353 884 353 1716 
Q 353 2575 817 3079 
Q 1281 3584 2069 3584 
Q 2775 3584 3186 3129 
Q 3597 2675 3597 1894 
z
M 3022 2063 
Q 3016 2534 2758 2815 
Q 2500 3097 2075 3097 
Q 1594 3097 1305 2825 
Q 1016 2553 972 2059 
L 3022 2063 
z
" transform="scale(0.015625)"/>
       <path id="DejaVuSans-6e" d="M 3513 2113 
L 3513 0 
L 2938 0 
L 2938 2094 
Q 2938 2591 2744 2837 
Q 2550 3084 2163 3084 
Q 1697 3084 1428 2787 
Q 1159 2491 1159 1978 
L 1159 0 
L 581 0 
L 581 3500 
L 1159 3500 
L 1159 2956 
Q 1366 3272 1645 3428 
Q 1925 3584 2291 3584 
Q 2894 3584 3203 3211 
Q 3513 2838 3513 2113 
z
" transform="scale(0.015625)"/>
       <path id="DejaVuSans-73" d="M 2834 3397 
L 2834 2853 
Q 2591 2978 2328 3040 
Q 2066 3103 1784 3103 
Q 1356 3103 1142 2972 
Q 928 2841 928 2578 
Q 928 2378 1081 2264 
Q 1234 2150 1697 2047 
L 1894 2003 
Q 2506 1872 2764 1633 
Q 3022 1394 3022 966 
Q 3022 478 2636 193 
Q 2250 -91 1575 -91 
Q 1294 -91 989 -36 
Q 684 19 347 128 
L 347 722 
Q 666 556 975 473 
Q 1284 391 1588 391 
Q 1994 391 2212 530 
Q 2431 669 2431 922 
Q 2431 1156 2273 1281 
Q 2116 1406 1581 1522 
L 1381 1569 
Q 847 1681 609 1914 
Q 372 2147 372 2553 
Q 372 3047 722 3315 
Q 1072 3584 1716 3584 
Q 2034 3584 2315 3537 
Q 2597 3491 2834 3397 
z
" transform="scale(0.015625)"/>
       <path id="DejaVuSans-6f" d="M 1959 3097 
Q 1497 3097 1228 2736 
Q 959 2375 959 1747 
Q 959 1119 1226 758 
Q 1494 397 1959 397 
Q 2419 397 2687 759 
Q 2956 1122 2956 1747 
Q 2956 2369 2687 2733 
Q 2419 3097 1959 3097 
z
M 1959 3584 
Q 2709 3584 3137 3096 
Q 3566 2609 3566 1747 
Q 3566 888 3137 398 
Q 2709 -91 1959 -91 
Q 1206 -91 779 398 
Q 353 888 353 1747 
Q 353 2609 779 3096 
Q 1206 3584 1959 3584 
z
" transform="scale(0.015625)"/>
       <path id="DejaVuSans-6c" d="M 603 4863 
L 1178 4863 
L 1178 0 
L 603 0 
L 603 4863 
z
" transform="scale(0.015625)"/>
      </defs>
      <use xlink:href="#DejaVuSans-5b"/>
      <use xlink:href="#DejaVuSans-64" x="39.013672"/>
      <use xlink:href="#DejaVuSans-69" x="102.490234"/>
      <use xlink:href="#DejaVuSans-6d" x="130.273438"/>
      <use xlink:href="#DejaVuSans-65" x="227.685547"/>
      <use xlink:href="#DejaVuSans-6e" x="289.208984"/>
      <use xlink:href="#DejaVuSans-73" x="352.587891"/>
      <use xlink:href="#DejaVuSans-69" x="404.6875"/>
      <use xlink:href="#DejaVuSans-6f" x="432.470703"/>
      <use xlink:href="#DejaVuSans-6e" x="493.652344"/>
      <use xlink:href="#DejaVuSans-6c" x="557.03125"/>
      <use xlink:href="#DejaVuSans-65" x="584.814453"/>
      <use xlink:href="#DejaVuSans-73" x="646.337891"/>
      <use xlink:href="#DejaVuSans-73" x="698.4375"/>
      <use xlink:href="#DejaVuSans-5d" x="750.537109"/>
     </g>
    </g>
   </g>
   <g id="patch_3">
    <path d="M 45.478125 238.3405 
L 45.478125 7.2 
" style="fill: none; stroke: #000000; stroke-width: 0.8; stroke-linejoin: miter; stroke-linecap: square"/>
   </g>
   <g id="patch_4">
    <path d="M 409.833723 238.3405 
L 409.833723 7.2 
" style="fill: none; stroke: #000000; stroke-width: 0.8; stroke-linejoin: miter; stroke-linecap: square"/>
   </g>
   <g id="patch_5">
    <path d="M 45.478125 238.3405 
L 409.833723 238.3405 
" style="fill: none; stroke: #000000; stroke-width: 0.8; stroke-linejoin: miter; stroke-linecap: square"/>
   </g>
   <g id="patch_6">
    <path d="M 45.478125 7.2 
L 409.833723 7.2 
" style="fill: none; stroke: #000000; stroke-width: 0.8; stroke-linejoin: miter; stroke-linecap: square"/>
   </g>
   <g id="line2d_64">
    <path d="M 64.405689 66.538427 
L 66.771634 66.538427 
L 66.771634 85.105411 
L 69.137579 85.105411 
L 69.137579 100.691429 
L 71.503525 100.691429 
L 71.503525 108.142249 
L 73.86947 108.142249 
L 73.86947 103.766169 
L 76.235416 103.766169 
L 76.235416 103.629917 
L 78.601361 103.629917 
L 78.601361 104.541135 
L 80.967307 104.541135 
L 80.967307 103.888287 
L 83.333252 103.888287 
L 83.333252 101.907542 
L 85.699197 101.907542 
L 85.699197 104.672294 
L 88.065143 104.672294 
L 88.065143 104.064854 
L 90.431088 104.064854 
L 90.431088 101.434256 
L 92.797034 101.434256 
L 92.797034 103.50586 
L 95.162979 103.50586 
L 95.162979 106.686385 
L 97.528925 106.686385 
L 97.528925 104.560635 
L 99.89487 104.560635 
L 99.89487 103.978924 
L 102.260816 103.978924 
L 102.260816 106.003532 
L 104.626761 106.003532 
L 104.626761 104.554317 
L 106.992706 104.554317 
L 106.992706 106.63338 
L 111.724597 106.688782 
L 111.724597 106.852579 
L 114.090543 106.852579 
L 114.090543 108.235855 
L 116.456488 108.235855 
L 116.456488 107.178786 
L 118.822434 107.178786 
L 118.822434 108.346811 
L 121.188379 108.346811 
L 121.188379 107.686934 
L 123.554325 107.686934 
L 123.554325 107.553699 
L 125.92027 107.553699 
L 125.92027 109.156914 
L 128.286215 109.156914 
L 128.286215 107.966791 
L 130.652161 107.966791 
L 130.652161 109.230958 
L 133.018106 109.230958 
L 133.018106 109.41502 
L 135.384052 109.41502 
L 135.384052 109.180013 
L 137.749997 109.180013 
L 137.749997 110.277106 
L 140.115943 110.277106 
L 140.115943 110.597016 
L 144.847833 110.520989 
L 144.847833 111.005954 
L 147.213779 111.005954 
L 147.213779 111.355344 
L 149.579724 111.355344 
L 149.579724 111.816564 
L 151.94567 111.816564 
L 151.94567 112.564265 
L 154.311615 112.564265 
L 154.311615 112.983057 
L 156.677561 112.983057 
L 156.677561 113.563211 
L 159.043506 113.563211 
L 159.043506 114.311987 
L 161.409452 114.311987 
L 161.409452 114.591154 
L 163.775397 114.591154 
L 163.775397 115.025031 
L 166.141342 115.025031 
L 166.141342 115.858325 
L 168.507288 115.858325 
L 168.507288 116.645881 
L 170.873233 116.645881 
L 170.873233 117.101339 
L 173.239179 117.101339 
L 173.239179 118.037461 
L 175.605124 118.037461 
L 175.605124 118.683291 
L 177.97107 118.683291 
L 177.97107 119.527441 
L 180.337015 119.527441 
L 180.337015 120.485392 
L 182.702961 120.485392 
L 182.702961 121.365271 
L 185.068906 121.365271 
L 185.068906 122.446339 
L 187.434851 122.446339 
L 187.434851 123.539014 
L 189.800797 123.539014 
L 189.800797 124.431289 
L 192.166742 124.431289 
L 192.166742 125.474592 
L 194.532688 125.474592 
L 194.532688 126.609066 
L 196.898633 126.609066 
L 196.898633 127.757654 
L 199.264579 127.757654 
L 199.264579 129.018739 
L 201.630524 129.018739 
L 201.630524 130.429392 
L 203.996469 130.429392 
L 203.996469 131.598303 
L 206.362415 131.598303 
L 206.362415 132.954113 
L 208.72836 132.954113 
L 208.72836 134.419316 
L 211.094306 134.419316 
L 211.094306 135.828907 
L 213.460251 135.828907 
L 213.460251 137.340804 
L 215.826197 137.340804 
L 215.826197 138.806445 
L 218.192142 138.806445 
L 218.192142 140.177337 
L 220.558088 140.177337 
L 220.558088 141.928266 
L 222.924033 141.928266 
L 222.924033 143.498323 
L 225.289978 143.498323 
L 225.289978 145.043965 
L 227.655924 145.043965 
L 227.655924 146.506922 
L 230.021869 146.506922 
L 230.021869 148.299179 
L 232.387815 148.299179 
L 232.387815 149.920573 
L 234.75376 149.920573 
L 234.75376 151.628066 
L 237.119706 151.628066 
L 237.119706 153.273247 
L 239.485651 153.273247 
L 239.485651 154.764004 
L 241.851597 154.764004 
L 241.851597 156.533461 
L 244.217542 156.533461 
L 244.217542 157.987103 
L 246.583487 157.987103 
L 246.583487 159.835879 
L 248.949433 159.835879 
L 248.949433 161.612625 
L 251.315378 161.612625 
L 251.315378 163.411297 
L 253.681324 163.411297 
L 253.681324 164.995125 
L 256.047269 164.995125 
L 256.047269 166.665327 
L 258.413215 166.665327 
L 258.413215 168.401516 
L 260.77916 168.401516 
L 260.77916 170.032714 
L 263.145105 170.032714 
L 263.145105 171.794003 
L 265.511051 171.794003 
L 265.511051 173.426425 
L 267.876996 173.426425 
L 267.876996 175.231258 
L 270.242942 175.231258 
L 270.242942 176.898658 
L 272.608887 176.898658 
L 272.608887 178.50071 
L 274.974833 178.50071 
L 274.974833 180.102634 
L 277.340778 180.102634 
L 277.340778 181.843736 
L 279.706724 181.843736 
L 279.706724 183.430129 
L 282.072669 183.430129 
L 282.072669 185.035823 
L 284.438614 185.035823 
L 284.438614 186.88214 
L 286.80456 186.88214 
L 286.80456 188.167396 
L 289.170505 188.167396 
L 289.170505 189.771184 
L 291.536451 189.771184 
L 291.536451 191.438674 
L 293.902396 191.438674 
L 293.902396 193.031794 
L 296.268342 193.031794 
L 296.268342 194.453854 
L 298.634287 194.453854 
L 298.634287 195.991626 
L 301.000233 195.991626 
L 301.000233 197.413632 
L 303.366178 197.413632 
L 303.366178 198.810502 
L 305.732123 198.810502 
L 305.732123 200.260802 
L 308.098069 200.260802 
L 308.098069 201.628271 
L 310.464014 201.628271 
L 310.464014 202.978197 
L 312.82996 202.978197 
L 312.82996 204.142085 
L 315.195905 204.142085 
L 315.195905 205.324556 
L 317.561851 205.324556 
L 317.561851 206.707569 
L 319.927796 206.707569 
L 319.927796 207.983343 
L 322.293741 207.983343 
L 322.293741 209.018122 
L 324.659687 209.018122 
L 324.659687 210.382401 
L 327.025632 210.382401 
L 327.025632 211.191305 
L 329.391578 211.191305 
L 329.391578 212.502768 
L 331.757523 212.502768 
L 331.757523 213.456062 
L 334.123469 213.456062 
L 334.123469 214.269987 
L 336.489414 214.269987 
L 336.489414 214.922877 
L 338.85536 214.922877 
L 338.85536 216.13486 
L 341.221305 216.13486 
L 341.221305 216.977204 
L 343.58725 216.977204 
L 343.58725 217.575341 
L 345.953196 217.575341 
L 345.953196 218.093383 
L 348.319141 218.093383 
L 348.319141 218.76359 
L 350.685087 218.76359 
L 350.685087 219.447083 
L 353.051032 219.447083 
L 353.051032 220.116372 
L 355.416978 220.116372 
L 355.416978 220.391124 
L 360.148869 220.494777 
L 360.148869 221.123555 
L 362.514814 221.123555 
L 362.514814 221.312142 
L 367.246705 221.233788 
L 367.246705 221.78038 
L 369.61265 221.78038 
L 369.61265 221.937304 
L 371.978596 221.937304 
L 371.978596 223.162198 
L 374.344541 223.162198 
L 374.344541 222.76463 
L 376.710487 222.76463 
L 376.710487 224.200433 
L 379.076432 224.200433 
L 379.076432 224.968966 
L 381.442377 224.968966 
L 381.442377 225.436976 
L 383.808323 225.436976 
L 383.808323 225.038176 
L 386.174268 225.038176 
L 386.174268 226.627953 
L 388.540214 226.627953 
L 388.540214 225.894925 
L 393.272105 225.838114 
L 393.272105 225.838114 
" clip-path="url(#p95235a376f)" style="fill: none; stroke: #1f77b4; stroke-width: 1.5; stroke-linecap: square"/>
   </g>
   <g id="LineCollection_1">
    <path clip-path="url(#p95235a376f)" style="fill: none; stroke: #1f77b4; stroke-width: 1.5"/>
    <path d="M 65.599853 277.820187 
L 65.599853 17.706386 
" clip-path="url(#p95235a376f)" style="fill: none; stroke: #1f77b4; stroke-width: 1.5"/>
    <path d="M 67.965798 277.820187 
L 67.965798 59.167511 
" clip-path="url(#p95235a376f)" style="fill: none; stroke: #1f77b4; stroke-width: 1.5"/>
    <path d="M 70.331744 277.820187 
L 70.331744 81.76514 
" clip-path="url(#p95235a376f)" style="fill: none; stroke: #1f77b4; stroke-width: 1.5"/>
    <path d="M 72.697689 277.820187 
L 72.697689 91.523655 
" clip-path="url(#p95235a376f)" style="fill: none; stroke: #1f77b4; stroke-width: 1.5"/>
    <path d="M 75.063635 133.073043 
L 75.063635 91.02506 
" clip-path="url(#p95235a376f)" style="fill: none; stroke: #1f77b4; stroke-width: 1.5"/>
    <path d="M 77.42958 120.323569 
L 77.42958 93.915238 
" clip-path="url(#p95235a376f)" style="fill: none; stroke: #1f77b4; stroke-width: 1.5"/>
    <path d="M 79.795526 117.267351 
L 79.795526 96.293954 
" clip-path="url(#p95235a376f)" style="fill: none; stroke: #1f77b4; stroke-width: 1.5"/>
    <path d="M 82.161471 113.89749 
L 82.161471 96.86421 
" clip-path="url(#p95235a376f)" style="fill: none; stroke: #1f77b4; stroke-width: 1.5"/>
    <path d="M 84.527417 109.960358 
L 84.527417 95.901643 
" clip-path="url(#p95235a376f)" style="fill: none; stroke: #1f77b4; stroke-width: 1.5"/>
    <path d="M 86.893362 111.261942 
L 86.893362 99.517297 
" clip-path="url(#p95235a376f)" style="fill: none; stroke: #1f77b4; stroke-width: 1.5"/>
    <path d="M 89.259307 109.746061 
L 89.259307 99.481968 
" clip-path="url(#p95235a376f)" style="fill: none; stroke: #1f77b4; stroke-width: 1.5"/>
    <path d="M 91.625253 106.385339 
L 91.625253 97.337985 
" clip-path="url(#p95235a376f)" style="fill: none; stroke: #1f77b4; stroke-width: 1.5"/>
    <path d="M 93.991198 107.829412 
L 93.991198 99.848377 
" clip-path="url(#p95235a376f)" style="fill: none; stroke: #1f77b4; stroke-width: 1.5"/>
    <path d="M 96.357144 110.48694 
L 96.357144 103.410054 
" clip-path="url(#p95235a376f)" style="fill: none; stroke: #1f77b4; stroke-width: 1.5"/>
    <path d="M 98.723089 108.005501 
L 98.723089 101.551977 
" clip-path="url(#p95235a376f)" style="fill: none; stroke: #1f77b4; stroke-width: 1.5"/>
    <path d="M 101.089035 107.051706 
L 101.089035 101.25793 
" clip-path="url(#p95235a376f)" style="fill: none; stroke: #1f77b4; stroke-width: 1.5"/>
    <path d="M 103.45498 108.77131 
L 103.45498 103.524394 
" clip-path="url(#p95235a376f)" style="fill: none; stroke: #1f77b4; stroke-width: 1.5"/>
    <path d="M 105.820925 107.08348 
L 105.820925 102.268324 
" clip-path="url(#p95235a376f)" style="fill: none; stroke: #1f77b4; stroke-width: 1.5"/>
    <path d="M 108.186871 108.91916 
L 108.186871 104.548047 
" clip-path="url(#p95235a376f)" style="fill: none; stroke: #1f77b4; stroke-width: 1.5"/>
    <path d="M 110.552816 108.804203 
L 110.552816 104.746157 
" clip-path="url(#p95235a376f)" style="fill: none; stroke: #1f77b4; stroke-width: 1.5"/>
    <path d="M 112.918762 108.780692 
L 112.918762 105.069049 
" clip-path="url(#p95235a376f)" style="fill: none; stroke: #1f77b4; stroke-width: 1.5"/>
    <path d="M 115.284707 110.021867 
L 115.284707 106.574582 
" clip-path="url(#p95235a376f)" style="fill: none; stroke: #1f77b4; stroke-width: 1.5"/>
    <path d="M 117.650653 108.836736 
L 117.650653 105.628863 
" clip-path="url(#p95235a376f)" style="fill: none; stroke: #1f77b4; stroke-width: 1.5"/>
    <path d="M 120.016598 109.869005 
L 120.016598 106.91616 
" clip-path="url(#p95235a376f)" style="fill: none; stroke: #1f77b4; stroke-width: 1.5"/>
    <path d="M 122.382544 109.105766 
L 122.382544 106.347958 
" clip-path="url(#p95235a376f)" style="fill: none; stroke: #1f77b4; stroke-width: 1.5"/>
    <path d="M 124.748489 108.876149 
L 124.748489 106.300888 
" clip-path="url(#p95235a376f)" style="fill: none; stroke: #1f77b4; stroke-width: 1.5"/>
    <path d="M 127.114434 110.38005 
L 127.114434 107.993585 
" clip-path="url(#p95235a376f)" style="fill: none; stroke: #1f77b4; stroke-width: 1.5"/>
    <path d="M 129.48038 109.117143 
L 129.48038 106.869493 
" clip-path="url(#p95235a376f)" style="fill: none; stroke: #1f77b4; stroke-width: 1.5"/>
    <path d="M 131.846325 110.30606 
L 131.846325 108.202335 
" clip-path="url(#p95235a376f)" style="fill: none; stroke: #1f77b4; stroke-width: 1.5"/>
    <path d="M 134.212271 110.414426 
L 134.212271 108.4559 
" clip-path="url(#p95235a376f)" style="fill: none; stroke: #1f77b4; stroke-width: 1.5"/>
    <path d="M 136.578216 110.125584 
L 136.578216 108.270583 
" clip-path="url(#p95235a376f)" style="fill: none; stroke: #1f77b4; stroke-width: 1.5"/>
    <path d="M 138.944162 111.163578 
L 138.944162 109.422474 
" clip-path="url(#p95235a376f)" style="fill: none; stroke: #1f77b4; stroke-width: 1.5"/>
    <path d="M 141.310107 111.428021 
L 141.310107 109.794055 
" clip-path="url(#p95235a376f)" style="fill: none; stroke: #1f77b4; stroke-width: 1.5"/>
    <path d="M 143.676053 111.308145 
L 143.676053 109.75904 
" clip-path="url(#p95235a376f)" style="fill: none; stroke: #1f77b4; stroke-width: 1.5"/>
    <path d="M 146.041998 111.747451 
L 146.041998 110.286865 
" clip-path="url(#p95235a376f)" style="fill: none; stroke: #1f77b4; stroke-width: 1.5"/>
    <path d="M 148.407943 112.055997 
L 148.407943 110.674732 
" clip-path="url(#p95235a376f)" style="fill: none; stroke: #1f77b4; stroke-width: 1.5"/>
    <path d="M 150.773889 112.482147 
L 150.773889 111.169092 
" clip-path="url(#p95235a376f)" style="fill: none; stroke: #1f77b4; stroke-width: 1.5"/>
    <path d="M 153.139834 113.19248 
L 153.139834 111.952209 
" clip-path="url(#p95235a376f)" style="fill: none; stroke: #1f77b4; stroke-width: 1.5"/>
    <path d="M 155.50578 113.582737 
L 155.50578 112.398119 
" clip-path="url(#p95235a376f)" style="fill: none; stroke: #1f77b4; stroke-width: 1.5"/>
    <path d="M 157.871725 114.132275 
L 157.871725 113.007438 
" clip-path="url(#p95235a376f)" style="fill: none; stroke: #1f77b4; stroke-width: 1.5"/>
    <path d="M 160.237671 114.854563 
L 160.237671 113.781506 
" clip-path="url(#p95235a376f)" style="fill: none; stroke: #1f77b4; stroke-width: 1.5"/>
    <path d="M 162.603616 115.108816 
L 162.603616 114.084513 
" clip-path="url(#p95235a376f)" style="fill: none; stroke: #1f77b4; stroke-width: 1.5"/>
    <path d="M 164.969561 115.51902 
L 164.969561 114.541088 
" clip-path="url(#p95235a376f)" style="fill: none; stroke: #1f77b4; stroke-width: 1.5"/>
    <path d="M 167.335507 116.331154 
L 167.335507 115.394708 
" clip-path="url(#p95235a376f)" style="fill: none; stroke: #1f77b4; stroke-width: 1.5"/>
    <path d="M 169.701452 117.097984 
L 169.701452 116.202208 
" clip-path="url(#p95235a376f)" style="fill: none; stroke: #1f77b4; stroke-width: 1.5"/>
    <path d="M 172.067398 117.534773 
L 172.067398 116.675659 
" clip-path="url(#p95235a376f)" style="fill: none; stroke: #1f77b4; stroke-width: 1.5"/>
    <path d="M 174.433343 118.453558 
L 174.433343 117.628514 
" clip-path="url(#p95235a376f)" style="fill: none; stroke: #1f77b4; stroke-width: 1.5"/>
    <path d="M 176.799289 119.08264 
L 176.799289 118.290533 
" clip-path="url(#p95235a376f)" style="fill: none; stroke: #1f77b4; stroke-width: 1.5"/>
    <path d="M 179.165234 119.911515 
L 179.165234 119.149469 
" clip-path="url(#p95235a376f)" style="fill: none; stroke: #1f77b4; stroke-width: 1.5"/>
    <path d="M 181.53118 120.854421 
L 181.53118 120.121999 
" clip-path="url(#p95235a376f)" style="fill: none; stroke: #1f77b4; stroke-width: 1.5"/>
    <path d="M 183.897125 121.72066 
L 183.897125 121.015111 
" clip-path="url(#p95235a376f)" style="fill: none; stroke: #1f77b4; stroke-width: 1.5"/>
    <path d="M 186.26307 122.789574 
L 186.26307 122.107985 
" clip-path="url(#p95235a376f)" style="fill: none; stroke: #1f77b4; stroke-width: 1.5"/>
    <path d="M 188.629016 123.868722 
L 188.629016 123.213813 
" clip-path="url(#p95235a376f)" style="fill: none; stroke: #1f77b4; stroke-width: 1.5"/>
    <path d="M 190.994961 124.749464 
L 190.994961 124.117311 
" clip-path="url(#p95235a376f)" style="fill: none; stroke: #1f77b4; stroke-width: 1.5"/>
    <path d="M 193.360907 125.781893 
L 193.360907 125.171208 
" clip-path="url(#p95235a376f)" style="fill: none; stroke: #1f77b4; stroke-width: 1.5"/>
    <path d="M 195.726852 126.904493 
L 195.726852 126.317261 
" clip-path="url(#p95235a376f)" style="fill: none; stroke: #1f77b4; stroke-width: 1.5"/>
    <path d="M 198.092798 128.042209 
L 198.092798 127.476461 
" clip-path="url(#p95235a376f)" style="fill: none; stroke: #1f77b4; stroke-width: 1.5"/>
    <path d="M 200.458743 129.293744 
L 200.458743 128.746875 
" clip-path="url(#p95235a376f)" style="fill: none; stroke: #1f77b4; stroke-width: 1.5"/>
    <path d="M 202.824689 130.694181 
L 202.824689 130.167516 
" clip-path="url(#p95235a376f)" style="fill: none; stroke: #1f77b4; stroke-width: 1.5"/>
    <path d="M 205.190634 131.853818 
L 205.190634 131.345503 
" clip-path="url(#p95235a376f)" style="fill: none; stroke: #1f77b4; stroke-width: 1.5"/>
    <path d="M 207.556579 133.201116 
L 207.556579 132.709649 
" clip-path="url(#p95235a376f)" style="fill: none; stroke: #1f77b4; stroke-width: 1.5"/>
    <path d="M 209.922525 134.657509 
L 209.922525 134.183483 
" clip-path="url(#p95235a376f)" style="fill: none; stroke: #1f77b4; stroke-width: 1.5"/>
    <path d="M 212.28847 136.059853 
L 212.28847 135.60018 
" clip-path="url(#p95235a376f)" style="fill: none; stroke: #1f77b4; stroke-width: 1.5"/>
    <path d="M 214.654416 137.563468 
L 214.654416 137.120204 
" clip-path="url(#p95235a376f)" style="fill: none; stroke: #1f77b4; stroke-width: 1.5"/>
    <path d="M 217.020361 139.021189 
L 217.020361 138.593621 
" clip-path="url(#p95235a376f)" style="fill: none; stroke: #1f77b4; stroke-width: 1.5"/>
    <path d="M 219.386307 140.385478 
L 219.386307 139.971 
" clip-path="url(#p95235a376f)" style="fill: none; stroke: #1f77b4; stroke-width: 1.5"/>
    <path d="M 221.752252 142.129357 
L 221.752252 141.728861 
" clip-path="url(#p95235a376f)" style="fill: none; stroke: #1f77b4; stroke-width: 1.5"/>
    <path d="M 224.118197 143.69258 
L 224.118197 143.30564 
" clip-path="url(#p95235a376f)" style="fill: none; stroke: #1f77b4; stroke-width: 1.5"/>
    <path d="M 226.484143 145.232266 
L 226.484143 144.857142 
" clip-path="url(#p95235a376f)" style="fill: none; stroke: #1f77b4; stroke-width: 1.5"/>
    <path d="M 228.850088 146.689187 
L 228.850088 146.326043 
" clip-path="url(#p95235a376f)" style="fill: none; stroke: #1f77b4; stroke-width: 1.5"/>
    <path d="M 231.216034 148.475968 
L 231.216034 148.123693 
" clip-path="url(#p95235a376f)" style="fill: none; stroke: #1f77b4; stroke-width: 1.5"/>
    <path d="M 233.581979 150.092269 
L 233.581979 149.750108 
" clip-path="url(#p95235a376f)" style="fill: none; stroke: #1f77b4; stroke-width: 1.5"/>
    <path d="M 235.947925 151.794707 
L 235.947925 151.462584 
" clip-path="url(#p95235a376f)" style="fill: none; stroke: #1f77b4; stroke-width: 1.5"/>
    <path d="M 238.31387 153.435346 
L 238.31387 153.112245 
" clip-path="url(#p95235a376f)" style="fill: none; stroke: #1f77b4; stroke-width: 1.5"/>
    <path d="M 240.679816 154.921445 
L 240.679816 154.607597 
" clip-path="url(#p95235a376f)" style="fill: none; stroke: #1f77b4; stroke-width: 1.5"/>
    <path d="M 243.045761 156.686639 
L 243.045761 156.381262 
" clip-path="url(#p95235a376f)" style="fill: none; stroke: #1f77b4; stroke-width: 1.5"/>
    <path d="M 245.411706 158.136458 
L 245.411706 157.838679 
" clip-path="url(#p95235a376f)" style="fill: none; stroke: #1f77b4; stroke-width: 1.5"/>
    <path d="M 247.777652 159.981596 
L 247.777652 159.691049 
" clip-path="url(#p95235a376f)" style="fill: none; stroke: #1f77b4; stroke-width: 1.5"/>
    <path d="M 250.143597 161.754996 
L 250.143597 161.471102 
" clip-path="url(#p95235a376f)" style="fill: none; stroke: #1f77b4; stroke-width: 1.5"/>
    <path d="M 252.509543 163.5507 
L 252.509543 163.272706 
" clip-path="url(#p95235a376f)" style="fill: none; stroke: #1f77b4; stroke-width: 1.5"/>
    <path d="M 254.875488 165.131598 
L 254.875488 164.85943 
" clip-path="url(#p95235a376f)" style="fill: none; stroke: #1f77b4; stroke-width: 1.5"/>
    <path d="M 257.241434 166.79904 
L 257.241434 166.53236 
" clip-path="url(#p95235a376f)" style="fill: none; stroke: #1f77b4; stroke-width: 1.5"/>
    <path d="M 259.607379 168.53276 
L 259.607379 168.27099 
" clip-path="url(#p95235a376f)" style="fill: none; stroke: #1f77b4; stroke-width: 1.5"/>
    <path d="M 261.973325 170.161713 
L 261.973325 169.904411 
" clip-path="url(#p95235a376f)" style="fill: none; stroke: #1f77b4; stroke-width: 1.5"/>
    <path d="M 264.33927 171.921073 
L 264.33927 171.667607 
" clip-path="url(#p95235a376f)" style="fill: none; stroke: #1f77b4; stroke-width: 1.5"/>
    <path d="M 266.705215 173.551449 
L 266.705215 173.302054 
" clip-path="url(#p95235a376f)" style="fill: none; stroke: #1f77b4; stroke-width: 1.5"/>
    <path d="M 269.071161 175.354709 
L 269.071161 175.108443 
" clip-path="url(#p95235a376f)" style="fill: none; stroke: #1f77b4; stroke-width: 1.5"/>
    <path d="M 271.437106 177.02072 
L 271.437106 176.777219 
" clip-path="url(#p95235a376f)" style="fill: none; stroke: #1f77b4; stroke-width: 1.5"/>
    <path d="M 273.803052 178.621223 
L 273.803052 178.380803 
" clip-path="url(#p95235a376f)" style="fill: none; stroke: #1f77b4; stroke-width: 1.5"/>
    <path d="M 276.168997 180.222011 
L 276.168997 179.983853 
" clip-path="url(#p95235a376f)" style="fill: none; stroke: #1f77b4; stroke-width: 1.5"/>
    <path d="M 278.534943 181.962263 
L 278.534943 181.725798 
" clip-path="url(#p95235a376f)" style="fill: none; stroke: #1f77b4; stroke-width: 1.5"/>
    <path d="M 280.900888 183.547725 
L 280.900888 183.31311 
" clip-path="url(#p95235a376f)" style="fill: none; stroke: #1f77b4; stroke-width: 1.5"/>
    <path d="M 283.266833 185.152845 
L 283.266833 184.919373 
" clip-path="url(#p95235a376f)" style="fill: none; stroke: #1f77b4; stroke-width: 1.5"/>
    <path d="M 285.632779 186.998911 
L 285.632779 186.765939 
" clip-path="url(#p95235a376f)" style="fill: none; stroke: #1f77b4; stroke-width: 1.5"/>
    <path d="M 287.998724 188.283469 
L 287.998724 188.051885 
" clip-path="url(#p95235a376f)" style="fill: none; stroke: #1f77b4; stroke-width: 1.5"/>
    <path d="M 290.36467 189.88729 
L 290.36467 189.655643 
" clip-path="url(#p95235a376f)" style="fill: none; stroke: #1f77b4; stroke-width: 1.5"/>
    <path d="M 292.730615 191.554834 
L 292.730615 191.323079 
" clip-path="url(#p95235a376f)" style="fill: none; stroke: #1f77b4; stroke-width: 1.5"/>
    <path d="M 295.096561 193.148247 
L 295.096561 192.915909 
" clip-path="url(#p95235a376f)" style="fill: none; stroke: #1f77b4; stroke-width: 1.5"/>
    <path d="M 297.462506 194.570677 
L 297.462506 194.337602 
" clip-path="url(#p95235a376f)" style="fill: none; stroke: #1f77b4; stroke-width: 1.5"/>
    <path d="M 299.828452 196.108922 
L 299.828452 195.874904 
" clip-path="url(#p95235a376f)" style="fill: none; stroke: #1f77b4; stroke-width: 1.5"/>
    <path d="M 302.194397 197.531644 
L 302.194397 197.296202 
" clip-path="url(#p95235a376f)" style="fill: none; stroke: #1f77b4; stroke-width: 1.5"/>
    <path d="M 304.560342 198.929529 
L 304.560342 198.692068 
" clip-path="url(#p95235a376f)" style="fill: none; stroke: #1f77b4; stroke-width: 1.5"/>
    <path d="M 306.926288 200.38086 
L 306.926288 200.141346 
" clip-path="url(#p95235a376f)" style="fill: none; stroke: #1f77b4; stroke-width: 1.5"/>
    <path d="M 309.292233 201.74983 
L 309.292233 201.507331 
" clip-path="url(#p95235a376f)" style="fill: none; stroke: #1f77b4; stroke-width: 1.5"/>
    <path d="M 311.658179 203.101241 
L 311.658179 202.855785 
" clip-path="url(#p95235a376f)" style="fill: none; stroke: #1f77b4; stroke-width: 1.5"/>
    <path d="M 314.024124 204.266628 
L 314.024124 204.018191 
" clip-path="url(#p95235a376f)" style="fill: none; stroke: #1f77b4; stroke-width: 1.5"/>
    <path d="M 316.39007 205.451154 
L 316.39007 205.198628 
" clip-path="url(#p95235a376f)" style="fill: none; stroke: #1f77b4; stroke-width: 1.5"/>
    <path d="M 318.756015 206.836511 
L 318.756015 206.579323 
" clip-path="url(#p95235a376f)" style="fill: none; stroke: #1f77b4; stroke-width: 1.5"/>
    <path d="M 321.121961 208.114908 
L 321.121961 207.852501 
" clip-path="url(#p95235a376f)" style="fill: none; stroke: #1f77b4; stroke-width: 1.5"/>
    <path d="M 323.487906 209.152516 
L 323.487906 208.884482 
" clip-path="url(#p95235a376f)" style="fill: none; stroke: #1f77b4; stroke-width: 1.5"/>
    <path d="M 325.853851 210.520096 
L 325.853851 210.245499 
" clip-path="url(#p95235a376f)" style="fill: none; stroke: #1f77b4; stroke-width: 1.5"/>
    <path d="M 328.219797 211.331968 
L 328.219797 211.051468 
" clip-path="url(#p95235a376f)" style="fill: none; stroke: #1f77b4; stroke-width: 1.5"/>
    <path d="M 330.585742 212.647957 
L 330.585742 212.35846 
" clip-path="url(#p95235a376f)" style="fill: none; stroke: #1f77b4; stroke-width: 1.5"/>
    <path d="M 332.951688 213.605017 
L 332.951688 213.308033 
" clip-path="url(#p95235a376f)" style="fill: none; stroke: #1f77b4; stroke-width: 1.5"/>
    <path d="M 335.317633 214.423301 
L 335.317633 214.117654 
" clip-path="url(#p95235a376f)" style="fill: none; stroke: #1f77b4; stroke-width: 1.5"/>
    <path d="M 337.683579 215.080626 
L 337.683579 214.766166 
" clip-path="url(#p95235a376f)" style="fill: none; stroke: #1f77b4; stroke-width: 1.5"/>
    <path d="M 340.049524 216.298831 
L 340.049524 215.972011 
" clip-path="url(#p95235a376f)" style="fill: none; stroke: #1f77b4; stroke-width: 1.5"/>
    <path d="M 342.415469 217.147543 
L 342.415469 216.808077 
" clip-path="url(#p95235a376f)" style="fill: none; stroke: #1f77b4; stroke-width: 1.5"/>
    <path d="M 344.781415 217.751995 
L 344.781415 217.399988 
" clip-path="url(#p95235a376f)" style="fill: none; stroke: #1f77b4; stroke-width: 1.5"/>
    <path d="M 347.14736 218.276968 
L 347.14736 217.911204 
" clip-path="url(#p95235a376f)" style="fill: none; stroke: #1f77b4; stroke-width: 1.5"/>
    <path d="M 349.513306 218.956006 
L 349.513306 218.572718 
" clip-path="url(#p95235a376f)" style="fill: none; stroke: #1f77b4; stroke-width: 1.5"/>
    <path d="M 351.879251 219.649135 
L 351.879251 219.246731 
" clip-path="url(#p95235a376f)" style="fill: none; stroke: #1f77b4; stroke-width: 1.5"/>
    <path d="M 354.245197 220.330083 
L 354.245197 219.904562 
" clip-path="url(#p95235a376f)" style="fill: none; stroke: #1f77b4; stroke-width: 1.5"/>
    <path d="M 356.611142 220.617706 
L 356.611142 220.166679 
" clip-path="url(#p95235a376f)" style="fill: none; stroke: #1f77b4; stroke-width: 1.5"/>
    <path d="M 358.977088 220.735238 
L 358.977088 220.256723 
" clip-path="url(#p95235a376f)" style="fill: none; stroke: #1f77b4; stroke-width: 1.5"/>
    <path d="M 361.343033 221.382974 
L 361.343033 220.866935 
" clip-path="url(#p95235a376f)" style="fill: none; stroke: #1f77b4; stroke-width: 1.5"/>
    <path d="M 363.708978 221.592802 
L 363.708978 221.034754 
" clip-path="url(#p95235a376f)" style="fill: none; stroke: #1f77b4; stroke-width: 1.5"/>
    <path d="M 366.074924 221.537982 
L 366.074924 220.933434 
" clip-path="url(#p95235a376f)" style="fill: none; stroke: #1f77b4; stroke-width: 1.5"/>
    <path d="M 368.440869 222.115022 
L 368.440869 221.450378 
" clip-path="url(#p95235a376f)" style="fill: none; stroke: #1f77b4; stroke-width: 1.5"/>
    <path d="M 370.806815 222.306499 
L 370.806815 221.573749 
" clip-path="url(#p95235a376f)" style="fill: none; stroke: #1f77b4; stroke-width: 1.5"/>
    <path d="M 373.17276 223.577347 
L 373.17276 222.754169 
" clip-path="url(#p95235a376f)" style="fill: none; stroke: #1f77b4; stroke-width: 1.5"/>
    <path d="M 375.538706 223.225029 
L 375.538706 222.312971 
" clip-path="url(#p95235a376f)" style="fill: none; stroke: #1f77b4; stroke-width: 1.5"/>
    <path d="M 377.904651 224.727919 
L 377.904651 223.684386 
" clip-path="url(#p95235a376f)" style="fill: none; stroke: #1f77b4; stroke-width: 1.5"/>
    <path d="M 380.270597 225.577197 
L 380.270597 224.375894 
" clip-path="url(#p95235a376f)" style="fill: none; stroke: #1f77b4; stroke-width: 1.5"/>
    <path d="M 382.636542 226.150416 
L 382.636542 224.744304 
" clip-path="url(#p95235a376f)" style="fill: none; stroke: #1f77b4; stroke-width: 1.5"/>
    <path d="M 385.002487 225.888852 
L 385.002487 224.216863 
" clip-path="url(#p95235a376f)" style="fill: none; stroke: #1f77b4; stroke-width: 1.5"/>
    <path d="M 387.368433 227.709178 
L 387.368433 225.593728 
" clip-path="url(#p95235a376f)" style="fill: none; stroke: #1f77b4; stroke-width: 1.5"/>
    <path d="M 389.734378 227.295809 
L 389.734378 224.571945 
" clip-path="url(#p95235a376f)" style="fill: none; stroke: #1f77b4; stroke-width: 1.5"/>
    <path d="M 392.100324 227.834114 
L 392.100324 223.996656 
" clip-path="url(#p95235a376f)" style="fill: none; stroke: #1f77b4; stroke-width: 1.5"/>
   </g>
  </g>
 </g>
 <defs>
  <clipPath id="p95235a376f">
   <rect x="45.478125" y="7.2" width="364.355598" height="231.1405"/>
  </clipPath>
 </defs>
</svg>
