<?xml version="1.0" encoding="utf-8" standalone="no"?>
<!DOCTYPE svg PUBLIC "-//W3C//DTD SVG 1.1//EN"
  "http://www.w3.org/Graphics/SVG/1.1/DTD/svg11.dtd">
<svg xmlns:xlink="http://www.w3.org/1999/xlink" width="393.8785pt" height="267.439687pt" viewBox="0 0 393.8785 267.439687" xmlns="http://www.w3.org/2000/svg" version="1.1">
 <metadata>
  <rdf:RDF xmlns:dc="http://purl.org/dc/elements/1.1/" xmlns:cc="http://creativecommons.org/ns#" xmlns:rdf="http://www.w3.org/1999/02/22-rdf-syntax-ns#">
   <cc:Work>
    <dc:type rdf:resource="http://purl.org/dc/dcmitype/StillImage"/>
    <dc:date>2024-10-07T09:42:51.473346</dc:date>
    <dc:format>image/svg+xml</dc:format>
    <dc:creator>
     <cc:Agent>
      <dc:title>Matplotlib v3.9.2, https://matplotlib.org/</dc:title>
     </cc:Agent>
    </dc:creator>
   </cc:Work>
  </rdf:RDF>
 </metadata>
 <defs>
  <style type="text/css">*{stroke-linejoin: round; stroke-linecap: butt}</style>
 </defs>
 <g id="figure_1">
  <g id="patch_1">
   <path d="M 0 267.439687 
L 393.8785 267.439687 
L 393.8785 0 
L 0 0 
z
" style="fill: #ffffff"/>
  </g>
  <g id="axes_1">
   <g id="patch_2">
    <path d="M 45.478125 228.96 
L 380.278125 228.96 
L 380.278125 7.2 
L 45.478125 7.2 
z
" style="fill: #ffffff"/>
   </g>
   <g id="matplotlib.axis_1">
    <g id="xtick_1">
     <g id="line2d_1">
      <defs>
       <path id="m7ef64cc299" d="M 0 0 
L 0 3.5 
" style="stroke: #000000; stroke-width: 0.8"/>
      </defs>
      <g>
       <use xlink:href="#m7ef64cc299" x="113.332938" y="228.96" style="stroke: #000000; stroke-width: 0.8"/>
      </g>
     </g>
     <g id="text_1">
      <!-- $\mathdefault{10^{-2}}$ -->
      <g transform="translate(101.582938 243.558437) scale(0.1 -0.1)">
       <defs>
        <path id="DejaVuSans-31" d="M 794 531 
L 1825 531 
L 1825 4091 
L 703 3866 
L 703 4441 
L 1819 4666 
L 2450 4666 
L 2450 531 
L 3481 531 
L 3481 0 
L 794 0 
L 794 531 
z
" transform="scale(0.015625)"/>
        <path id="DejaVuSans-30" d="M 2034 4250 
Q 1547 4250 1301 3770 
Q 1056 3291 1056 2328 
Q 1056 1369 1301 889 
Q 1547 409 2034 409 
Q 2525 409 2770 889 
Q 3016 1369 3016 2328 
Q 3016 3291 2770 3770 
Q 2525 4250 2034 4250 
z
M 2034 4750 
Q 2819 4750 3233 4129 
Q 3647 3509 3647 2328 
Q 3647 1150 3233 529 
Q 2819 -91 2034 -91 
Q 1250 -91 836 529 
Q 422 1150 422 2328 
Q 422 3509 836 4129 
Q 1250 4750 2034 4750 
z
" transform="scale(0.015625)"/>
        <path id="DejaVuSans-2212" d="M 678 2272 
L 4684 2272 
L 4684 1741 
L 678 1741 
L 678 2272 
z
" transform="scale(0.015625)"/>
        <path id="DejaVuSans-32" d="M 1228 531 
L 3431 531 
L 3431 0 
L 469 0 
L 469 531 
Q 828 903 1448 1529 
Q 2069 2156 2228 2338 
Q 2531 2678 2651 2914 
Q 2772 3150 2772 3378 
Q 2772 3750 2511 3984 
Q 2250 4219 1831 4219 
Q 1534 4219 1204 4116 
Q 875 4013 500 3803 
L 500 4441 
Q 881 4594 1212 4672 
Q 1544 4750 1819 4750 
Q 2544 4750 2975 4387 
Q 3406 4025 3406 3419 
Q 3406 3131 3298 2873 
Q 3191 2616 2906 2266 
Q 2828 2175 2409 1742 
Q 1991 1309 1228 531 
z
" transform="scale(0.015625)"/>
       </defs>
       <use xlink:href="#DejaVuSans-31" transform="translate(0 0.765625)"/>
       <use xlink:href="#DejaVuSans-30" transform="translate(63.623047 0.765625)"/>
       <use xlink:href="#DejaVuSans-2212" transform="translate(128.203125 39.046875) scale(0.7)"/>
       <use xlink:href="#DejaVuSans-32" transform="translate(186.855469 39.046875) scale(0.7)"/>
      </g>
     </g>
    </g>
    <g id="xtick_2">
     <g id="line2d_2">
      <g>
       <use xlink:href="#m7ef64cc299" x="245.605719" y="228.96" style="stroke: #000000; stroke-width: 0.8"/>
      </g>
     </g>
     <g id="text_2">
      <!-- $\mathdefault{10^{-1}}$ -->
      <g transform="translate(233.855719 243.558437) scale(0.1 -0.1)">
       <use xlink:href="#DejaVuSans-31" transform="translate(0 0.684375)"/>
       <use xlink:href="#DejaVuSans-30" transform="translate(63.623047 0.684375)"/>
       <use xlink:href="#DejaVuSans-2212" transform="translate(128.203125 38.965625) scale(0.7)"/>
       <use xlink:href="#DejaVuSans-31" transform="translate(186.855469 38.965625) scale(0.7)"/>
      </g>
     </g>
    </g>
    <g id="xtick_3">
     <g id="line2d_3">
      <g>
       <use xlink:href="#m7ef64cc299" x="377.8785" y="228.96" style="stroke: #000000; stroke-width: 0.8"/>
      </g>
     </g>
     <g id="text_3">
      <!-- $\mathdefault{10^{0}}$ -->
      <g transform="translate(369.0785 243.558437) scale(0.1 -0.1)">
       <use xlink:href="#DejaVuSans-31" transform="translate(0 0.765625)"/>
       <use xlink:href="#DejaVuSans-30" transform="translate(63.623047 0.765625)"/>
       <use xlink:href="#DejaVuSans-30" transform="translate(128.203125 39.046875) scale(0.7)"/>
      </g>
     </g>
    </g>
    <g id="xtick_4">
     <g id="line2d_4">
      <defs>
       <path id="m81d51c8dde" d="M 0 0 
L 0 2 
" style="stroke: #000000; stroke-width: 0.6"/>
      </defs>
      <g>
       <use xlink:href="#m81d51c8dde" x="60.696307" y="228.96" style="stroke: #000000; stroke-width: 0.6"/>
      </g>
     </g>
    </g>
    <g id="xtick_5">
     <g id="line2d_5">
      <g>
       <use xlink:href="#m81d51c8dde" x="73.514864" y="228.96" style="stroke: #000000; stroke-width: 0.6"/>
      </g>
     </g>
    </g>
    <g id="xtick_6">
     <g id="line2d_6">
      <g>
       <use xlink:href="#m81d51c8dde" x="83.988387" y="228.96" style="stroke: #000000; stroke-width: 0.6"/>
      </g>
     </g>
    </g>
    <g id="xtick_7">
     <g id="line2d_7">
      <g>
       <use xlink:href="#m81d51c8dde" x="92.843625" y="228.96" style="stroke: #000000; stroke-width: 0.6"/>
      </g>
     </g>
    </g>
    <g id="xtick_8">
     <g id="line2d_8">
      <g>
       <use xlink:href="#m81d51c8dde" x="100.514381" y="228.96" style="stroke: #000000; stroke-width: 0.6"/>
      </g>
     </g>
    </g>
    <g id="xtick_9">
     <g id="line2d_9">
      <g>
       <use xlink:href="#m81d51c8dde" x="107.280468" y="228.96" style="stroke: #000000; stroke-width: 0.6"/>
      </g>
     </g>
    </g>
    <g id="xtick_10">
     <g id="line2d_10">
      <g>
       <use xlink:href="#m81d51c8dde" x="153.151013" y="228.96" style="stroke: #000000; stroke-width: 0.6"/>
      </g>
     </g>
    </g>
    <g id="xtick_11">
     <g id="line2d_11">
      <g>
       <use xlink:href="#m81d51c8dde" x="176.443094" y="228.96" style="stroke: #000000; stroke-width: 0.6"/>
      </g>
     </g>
    </g>
    <g id="xtick_12">
     <g id="line2d_12">
      <g>
       <use xlink:href="#m81d51c8dde" x="192.969088" y="228.96" style="stroke: #000000; stroke-width: 0.6"/>
      </g>
     </g>
    </g>
    <g id="xtick_13">
     <g id="line2d_13">
      <g>
       <use xlink:href="#m81d51c8dde" x="205.787645" y="228.96" style="stroke: #000000; stroke-width: 0.6"/>
      </g>
     </g>
    </g>
    <g id="xtick_14">
     <g id="line2d_14">
      <g>
       <use xlink:href="#m81d51c8dde" x="216.261168" y="228.96" style="stroke: #000000; stroke-width: 0.6"/>
      </g>
     </g>
    </g>
    <g id="xtick_15">
     <g id="line2d_15">
      <g>
       <use xlink:href="#m81d51c8dde" x="225.116406" y="228.96" style="stroke: #000000; stroke-width: 0.6"/>
      </g>
     </g>
    </g>
    <g id="xtick_16">
     <g id="line2d_16">
      <g>
       <use xlink:href="#m81d51c8dde" x="232.787162" y="228.96" style="stroke: #000000; stroke-width: 0.6"/>
      </g>
     </g>
    </g>
    <g id="xtick_17">
     <g id="line2d_17">
      <g>
       <use xlink:href="#m81d51c8dde" x="239.553249" y="228.96" style="stroke: #000000; stroke-width: 0.6"/>
      </g>
     </g>
    </g>
    <g id="xtick_18">
     <g id="line2d_18">
      <g>
       <use xlink:href="#m81d51c8dde" x="285.423794" y="228.96" style="stroke: #000000; stroke-width: 0.6"/>
      </g>
     </g>
    </g>
    <g id="xtick_19">
     <g id="line2d_19">
      <g>
       <use xlink:href="#m81d51c8dde" x="308.715874" y="228.96" style="stroke: #000000; stroke-width: 0.6"/>
      </g>
     </g>
    </g>
    <g id="xtick_20">
     <g id="line2d_20">
      <g>
       <use xlink:href="#m81d51c8dde" x="325.241869" y="228.96" style="stroke: #000000; stroke-width: 0.6"/>
      </g>
     </g>
    </g>
    <g id="xtick_21">
     <g id="line2d_21">
      <g>
       <use xlink:href="#m81d51c8dde" x="338.060425" y="228.96" style="stroke: #000000; stroke-width: 0.6"/>
      </g>
     </g>
    </g>
    <g id="xtick_22">
     <g id="line2d_22">
      <g>
       <use xlink:href="#m81d51c8dde" x="348.533949" y="228.96" style="stroke: #000000; stroke-width: 0.6"/>
      </g>
     </g>
    </g>
    <g id="xtick_23">
     <g id="line2d_23">
      <g>
       <use xlink:href="#m81d51c8dde" x="357.389187" y="228.96" style="stroke: #000000; stroke-width: 0.6"/>
      </g>
     </g>
    </g>
    <g id="xtick_24">
     <g id="line2d_24">
      <g>
       <use xlink:href="#m81d51c8dde" x="365.059943" y="228.96" style="stroke: #000000; stroke-width: 0.6"/>
      </g>
     </g>
    </g>
    <g id="xtick_25">
     <g id="line2d_25">
      <g>
       <use xlink:href="#m81d51c8dde" x="371.82603" y="228.96" style="stroke: #000000; stroke-width: 0.6"/>
      </g>
     </g>
    </g>
    <g id="text_4">
     <!-- Q [1/Å] -->
     <g transform="translate(195.165625 258.16) scale(0.1 -0.1)">
      <defs>
       <path id="DejaVuSans-51" d="M 2522 4238 
Q 1834 4238 1429 3725 
Q 1025 3213 1025 2328 
Q 1025 1447 1429 934 
Q 1834 422 2522 422 
Q 3209 422 3611 934 
Q 4013 1447 4013 2328 
Q 4013 3213 3611 3725 
Q 3209 4238 2522 4238 
z
M 3406 84 
L 4238 -825 
L 3475 -825 
L 2784 -78 
Q 2681 -84 2626 -87 
Q 2572 -91 2522 -91 
Q 1538 -91 948 567 
Q 359 1225 359 2328 
Q 359 3434 948 4092 
Q 1538 4750 2522 4750 
Q 3503 4750 4090 4092 
Q 4678 3434 4678 2328 
Q 4678 1516 4351 937 
Q 4025 359 3406 84 
z
" transform="scale(0.015625)"/>
       <path id="DejaVuSans-20" transform="scale(0.015625)"/>
       <path id="DejaVuSans-5b" d="M 550 4863 
L 1875 4863 
L 1875 4416 
L 1125 4416 
L 1125 -397 
L 1875 -397 
L 1875 -844 
L 550 -844 
L 550 4863 
z
" transform="scale(0.015625)"/>
       <path id="DejaVuSans-2f" d="M 1625 4666 
L 2156 4666 
L 531 -594 
L 0 -594 
L 1625 4666 
z
" transform="scale(0.015625)"/>
       <path id="DejaVuSans-c5" d="M 2663 5081 
Q 2663 5278 2523 5417 
Q 2384 5556 2188 5556 
Q 1988 5556 1852 5420 
Q 1716 5284 1716 5081 
Q 1716 4884 1853 4746 
Q 1991 4609 2188 4609 
Q 2384 4609 2523 4746 
Q 2663 4884 2663 5081 
z
M 2188 4044 
L 1338 1722 
L 3041 1722 
L 2188 4044 
z
M 1716 4366 
Q 1525 4494 1428 4673 
Q 1331 4853 1331 5081 
Q 1331 5441 1579 5691 
Q 1828 5941 2188 5941 
Q 2544 5941 2795 5689 
Q 3047 5438 3047 5081 
Q 3047 4863 2948 4678 
Q 2850 4494 2663 4366 
L 4325 0 
L 3669 0 
L 3244 1197 
L 1141 1197 
L 716 0 
L 50 0 
L 1716 4366 
z
" transform="scale(0.015625)"/>
       <path id="DejaVuSans-5d" d="M 1947 4863 
L 1947 -844 
L 622 -844 
L 622 -397 
L 1369 -397 
L 1369 4416 
L 622 4416 
L 622 4863 
L 1947 4863 
z
" transform="scale(0.015625)"/>
      </defs>
      <use xlink:href="#DejaVuSans-51"/>
      <use xlink:href="#DejaVuSans-20" x="78.710938"/>
      <use xlink:href="#DejaVuSans-5b" x="110.498047"/>
      <use xlink:href="#DejaVuSans-31" x="149.511719"/>
      <use xlink:href="#DejaVuSans-2f" x="213.134766"/>
      <use xlink:href="#DejaVuSans-c5" x="246.826172"/>
      <use xlink:href="#DejaVuSans-5d" x="315.234375"/>
     </g>
    </g>
   </g>
   <g id="matplotlib.axis_2">
    <g id="ytick_1">
     <g id="line2d_26">
      <defs>
       <path id="m98dd36525e" d="M 0 0 
L -3.5 0 
" style="stroke: #000000; stroke-width: 0.8"/>
      </defs>
      <g>
       <use xlink:href="#m98dd36525e" x="45.478125" y="201.502672" style="stroke: #000000; stroke-width: 0.8"/>
      </g>
     </g>
     <g id="text_5">
      <!-- $\mathdefault{10^{1}}$ -->
      <g transform="translate(20.878125 205.30189) scale(0.1 -0.1)">
       <use xlink:href="#DejaVuSans-31" transform="translate(0 0.684375)"/>
       <use xlink:href="#DejaVuSans-30" transform="translate(63.623047 0.684375)"/>
       <use xlink:href="#DejaVuSans-31" transform="translate(128.203125 38.965625) scale(0.7)"/>
      </g>
     </g>
    </g>
    <g id="ytick_2">
     <g id="line2d_27">
      <g>
       <use xlink:href="#m98dd36525e" x="45.478125" y="139.520726" style="stroke: #000000; stroke-width: 0.8"/>
      </g>
     </g>
     <g id="text_6">
      <!-- $\mathdefault{10^{2}}$ -->
      <g transform="translate(20.878125 143.319944) scale(0.1 -0.1)">
       <use xlink:href="#DejaVuSans-31" transform="translate(0 0.765625)"/>
       <use xlink:href="#DejaVuSans-30" transform="translate(63.623047 0.765625)"/>
       <use xlink:href="#DejaVuSans-32" transform="translate(128.203125 39.046875) scale(0.7)"/>
      </g>
     </g>
    </g>
    <g id="ytick_3">
     <g id="line2d_28">
      <g>
       <use xlink:href="#m98dd36525e" x="45.478125" y="77.53878" style="stroke: #000000; stroke-width: 0.8"/>
      </g>
     </g>
     <g id="text_7">
      <!-- $\mathdefault{10^{3}}$ -->
      <g transform="translate(20.878125 81.337998) scale(0.1 -0.1)">
       <defs>
        <path id="DejaVuSans-33" d="M 2597 2516 
Q 3050 2419 3304 2112 
Q 3559 1806 3559 1356 
Q 3559 666 3084 287 
Q 2609 -91 1734 -91 
Q 1441 -91 1130 -33 
Q 819 25 488 141 
L 488 750 
Q 750 597 1062 519 
Q 1375 441 1716 441 
Q 2309 441 2620 675 
Q 2931 909 2931 1356 
Q 2931 1769 2642 2001 
Q 2353 2234 1838 2234 
L 1294 2234 
L 1294 2753 
L 1863 2753 
Q 2328 2753 2575 2939 
Q 2822 3125 2822 3475 
Q 2822 3834 2567 4026 
Q 2313 4219 1838 4219 
Q 1578 4219 1281 4162 
Q 984 4106 628 3988 
L 628 4550 
Q 988 4650 1302 4700 
Q 1616 4750 1894 4750 
Q 2613 4750 3031 4423 
Q 3450 4097 3450 3541 
Q 3450 3153 3228 2886 
Q 3006 2619 2597 2516 
z
" transform="scale(0.015625)"/>
       </defs>
       <use xlink:href="#DejaVuSans-31" transform="translate(0 0.765625)"/>
       <use xlink:href="#DejaVuSans-30" transform="translate(63.623047 0.765625)"/>
       <use xlink:href="#DejaVuSans-33" transform="translate(128.203125 39.046875) scale(0.7)"/>
      </g>
     </g>
    </g>
    <g id="ytick_4">
     <g id="line2d_29">
      <g>
       <use xlink:href="#m98dd36525e" x="45.478125" y="15.556834" style="stroke: #000000; stroke-width: 0.8"/>
      </g>
     </g>
     <g id="text_8">
      <!-- $\mathdefault{10^{4}}$ -->
      <g transform="translate(20.878125 19.356052) scale(0.1 -0.1)">
       <defs>
        <path id="DejaVuSans-34" d="M 2419 4116 
L 825 1625 
L 2419 1625 
L 2419 4116 
z
M 2253 4666 
L 3047 4666 
L 3047 1625 
L 3713 1625 
L 3713 1100 
L 3047 1100 
L 3047 0 
L 2419 0 
L 2419 1100 
L 313 1100 
L 313 1709 
L 2253 4666 
z
" transform="scale(0.015625)"/>
       </defs>
       <use xlink:href="#DejaVuSans-31" transform="translate(0 0.684375)"/>
       <use xlink:href="#DejaVuSans-30" transform="translate(63.623047 0.684375)"/>
       <use xlink:href="#DejaVuSans-34" transform="translate(128.203125 38.965625) scale(0.7)"/>
      </g>
     </g>
    </g>
    <g id="ytick_5">
     <g id="line2d_30">
      <defs>
       <path id="m8d6fc5b6bf" d="M 0 0 
L -2 0 
" style="stroke: #000000; stroke-width: 0.6"/>
      </defs>
      <g>
       <use xlink:href="#m8d6fc5b6bf" x="45.478125" y="226.167768" style="stroke: #000000; stroke-width: 0.6"/>
      </g>
     </g>
    </g>
    <g id="ytick_6">
     <g id="line2d_31">
      <g>
       <use xlink:href="#m8d6fc5b6bf" x="45.478125" y="220.161097" style="stroke: #000000; stroke-width: 0.6"/>
      </g>
     </g>
    </g>
    <g id="ytick_7">
     <g id="line2d_32">
      <g>
       <use xlink:href="#m8d6fc5b6bf" x="45.478125" y="215.253289" style="stroke: #000000; stroke-width: 0.6"/>
      </g>
     </g>
    </g>
    <g id="ytick_8">
     <g id="line2d_33">
      <g>
       <use xlink:href="#m8d6fc5b6bf" x="45.478125" y="211.103797" style="stroke: #000000; stroke-width: 0.6"/>
      </g>
     </g>
    </g>
    <g id="ytick_9">
     <g id="line2d_34">
      <g>
       <use xlink:href="#m8d6fc5b6bf" x="45.478125" y="207.509343" style="stroke: #000000; stroke-width: 0.6"/>
      </g>
     </g>
    </g>
    <g id="ytick_10">
     <g id="line2d_35">
      <g>
       <use xlink:href="#m8d6fc5b6bf" x="45.478125" y="204.33881" style="stroke: #000000; stroke-width: 0.6"/>
      </g>
     </g>
    </g>
    <g id="ytick_11">
     <g id="line2d_36">
      <g>
       <use xlink:href="#m8d6fc5b6bf" x="45.478125" y="182.844247" style="stroke: #000000; stroke-width: 0.6"/>
      </g>
     </g>
    </g>
    <g id="ytick_12">
     <g id="line2d_37">
      <g>
       <use xlink:href="#m8d6fc5b6bf" x="45.478125" y="171.929768" style="stroke: #000000; stroke-width: 0.6"/>
      </g>
     </g>
    </g>
    <g id="ytick_13">
     <g id="line2d_38">
      <g>
       <use xlink:href="#m8d6fc5b6bf" x="45.478125" y="164.185822" style="stroke: #000000; stroke-width: 0.6"/>
      </g>
     </g>
    </g>
    <g id="ytick_14">
     <g id="line2d_39">
      <g>
       <use xlink:href="#m8d6fc5b6bf" x="45.478125" y="158.179151" style="stroke: #000000; stroke-width: 0.6"/>
      </g>
     </g>
    </g>
    <g id="ytick_15">
     <g id="line2d_40">
      <g>
       <use xlink:href="#m8d6fc5b6bf" x="45.478125" y="153.271343" style="stroke: #000000; stroke-width: 0.6"/>
      </g>
     </g>
    </g>
    <g id="ytick_16">
     <g id="line2d_41">
      <g>
       <use xlink:href="#m8d6fc5b6bf" x="45.478125" y="149.121851" style="stroke: #000000; stroke-width: 0.6"/>
      </g>
     </g>
    </g>
    <g id="ytick_17">
     <g id="line2d_42">
      <g>
       <use xlink:href="#m8d6fc5b6bf" x="45.478125" y="145.527397" style="stroke: #000000; stroke-width: 0.6"/>
      </g>
     </g>
    </g>
    <g id="ytick_18">
     <g id="line2d_43">
      <g>
       <use xlink:href="#m8d6fc5b6bf" x="45.478125" y="142.356864" style="stroke: #000000; stroke-width: 0.6"/>
      </g>
     </g>
    </g>
    <g id="ytick_19">
     <g id="line2d_44">
      <g>
       <use xlink:href="#m8d6fc5b6bf" x="45.478125" y="120.862301" style="stroke: #000000; stroke-width: 0.6"/>
      </g>
     </g>
    </g>
    <g id="ytick_20">
     <g id="line2d_45">
      <g>
       <use xlink:href="#m8d6fc5b6bf" x="45.478125" y="109.947822" style="stroke: #000000; stroke-width: 0.6"/>
      </g>
     </g>
    </g>
    <g id="ytick_21">
     <g id="line2d_46">
      <g>
       <use xlink:href="#m8d6fc5b6bf" x="45.478125" y="102.203876" style="stroke: #000000; stroke-width: 0.6"/>
      </g>
     </g>
    </g>
    <g id="ytick_22">
     <g id="line2d_47">
      <g>
       <use xlink:href="#m8d6fc5b6bf" x="45.478125" y="96.197205" style="stroke: #000000; stroke-width: 0.6"/>
      </g>
     </g>
    </g>
    <g id="ytick_23">
     <g id="line2d_48">
      <g>
       <use xlink:href="#m8d6fc5b6bf" x="45.478125" y="91.289397" style="stroke: #000000; stroke-width: 0.6"/>
      </g>
     </g>
    </g>
    <g id="ytick_24">
     <g id="line2d_49">
      <g>
       <use xlink:href="#m8d6fc5b6bf" x="45.478125" y="87.139905" style="stroke: #000000; stroke-width: 0.6"/>
      </g>
     </g>
    </g>
    <g id="ytick_25">
     <g id="line2d_50">
      <g>
       <use xlink:href="#m8d6fc5b6bf" x="45.478125" y="83.545451" style="stroke: #000000; stroke-width: 0.6"/>
      </g>
     </g>
    </g>
    <g id="ytick_26">
     <g id="line2d_51">
      <g>
       <use xlink:href="#m8d6fc5b6bf" x="45.478125" y="80.374918" style="stroke: #000000; stroke-width: 0.6"/>
      </g>
     </g>
    </g>
    <g id="ytick_27">
     <g id="line2d_52">
      <g>
       <use xlink:href="#m8d6fc5b6bf" x="45.478125" y="58.880355" style="stroke: #000000; stroke-width: 0.6"/>
      </g>
     </g>
    </g>
    <g id="ytick_28">
     <g id="line2d_53">
      <g>
       <use xlink:href="#m8d6fc5b6bf" x="45.478125" y="47.965876" style="stroke: #000000; stroke-width: 0.6"/>
      </g>
     </g>
    </g>
    <g id="ytick_29">
     <g id="line2d_54">
      <g>
       <use xlink:href="#m8d6fc5b6bf" x="45.478125" y="40.22193" style="stroke: #000000; stroke-width: 0.6"/>
      </g>
     </g>
    </g>
    <g id="ytick_30">
     <g id="line2d_55">
      <g>
       <use xlink:href="#m8d6fc5b6bf" x="45.478125" y="34.215259" style="stroke: #000000; stroke-width: 0.6"/>
      </g>
     </g>
    </g>
    <g id="ytick_31">
     <g id="line2d_56">
      <g>
       <use xlink:href="#m8d6fc5b6bf" x="45.478125" y="29.307451" style="stroke: #000000; stroke-width: 0.6"/>
      </g>
     </g>
    </g>
    <g id="ytick_32">
     <g id="line2d_57">
      <g>
       <use xlink:href="#m8d6fc5b6bf" x="45.478125" y="25.157959" style="stroke: #000000; stroke-width: 0.6"/>
      </g>
     </g>
    </g>
    <g id="ytick_33">
     <g id="line2d_58">
      <g>
       <use xlink:href="#m8d6fc5b6bf" x="45.478125" y="21.563505" style="stroke: #000000; stroke-width: 0.6"/>
      </g>
     </g>
    </g>
    <g id="ytick_34">
     <g id="line2d_59">
      <g>
       <use xlink:href="#m8d6fc5b6bf" x="45.478125" y="18.392972" style="stroke: #000000; stroke-width: 0.6"/>
      </g>
     </g>
    </g>
    <g id="text_9">
     <!-- [dimensionless] -->
     <g transform="translate(14.798438 157.557344) rotate(-90) scale(0.1 -0.1)">
      <defs>
       <path id="DejaVuSans-64" d="M 2906 2969 
L 2906 4863 
L 3481 4863 
L 3481 0 
L 2906 0 
L 2906 525 
Q 2725 213 2448 61 
Q 2172 -91 1784 -91 
Q 1150 -91 751 415 
Q 353 922 353 1747 
Q 353 2572 751 3078 
Q 1150 3584 1784 3584 
Q 2172 3584 2448 3432 
Q 2725 3281 2906 2969 
z
M 947 1747 
Q 947 1113 1208 752 
Q 1469 391 1925 391 
Q 2381 391 2643 752 
Q 2906 1113 2906 1747 
Q 2906 2381 2643 2742 
Q 2381 3103 1925 3103 
Q 1469 3103 1208 2742 
Q 947 2381 947 1747 
z
" transform="scale(0.015625)"/>
       <path id="DejaVuSans-69" d="M 603 3500 
L 1178 3500 
L 1178 0 
L 603 0 
L 603 3500 
z
M 603 4863 
L 1178 4863 
L 1178 4134 
L 603 4134 
L 603 4863 
z
" transform="scale(0.015625)"/>
       <path id="DejaVuSans-6d" d="M 3328 2828 
Q 3544 3216 3844 3400 
Q 4144 3584 4550 3584 
Q 5097 3584 5394 3201 
Q 5691 2819 5691 2113 
L 5691 0 
L 5113 0 
L 5113 2094 
Q 5113 2597 4934 2840 
Q 4756 3084 4391 3084 
Q 3944 3084 3684 2787 
Q 3425 2491 3425 1978 
L 3425 0 
L 2847 0 
L 2847 2094 
Q 2847 2600 2669 2842 
Q 2491 3084 2119 3084 
Q 1678 3084 1418 2786 
Q 1159 2488 1159 1978 
L 1159 0 
L 581 0 
L 581 3500 
L 1159 3500 
L 1159 2956 
Q 1356 3278 1631 3431 
Q 1906 3584 2284 3584 
Q 2666 3584 2933 3390 
Q 3200 3197 3328 2828 
z
" transform="scale(0.015625)"/>
       <path id="DejaVuSans-65" d="M 3597 1894 
L 3597 1613 
L 953 1613 
Q 991 1019 1311 708 
Q 1631 397 2203 397 
Q 2534 397 2845 478 
Q 3156 559 3463 722 
L 3463 178 
Q 3153 47 2828 -22 
Q 2503 -91 2169 -91 
Q 1331 -91 842 396 
Q 353 884 353 1716 
Q 353 2575 817 3079 
Q 1281 3584 2069 3584 
Q 2775 3584 3186 3129 
Q 3597 2675 3597 1894 
z
M 3022 2063 
Q 3016 2534 2758 2815 
Q 2500 3097 2075 3097 
Q 1594 3097 1305 2825 
Q 1016 2553 972 2059 
L 3022 2063 
z
" transform="scale(0.015625)"/>
       <path id="DejaVuSans-6e" d="M 3513 2113 
L 3513 0 
L 2938 0 
L 2938 2094 
Q 2938 2591 2744 2837 
Q 2550 3084 2163 3084 
Q 1697 3084 1428 2787 
Q 1159 2491 1159 1978 
L 1159 0 
L 581 0 
L 581 3500 
L 1159 3500 
L 1159 2956 
Q 1366 3272 1645 3428 
Q 1925 3584 2291 3584 
Q 2894 3584 3203 3211 
Q 3513 2838 3513 2113 
z
" transform="scale(0.015625)"/>
       <path id="DejaVuSans-73" d="M 2834 3397 
L 2834 2853 
Q 2591 2978 2328 3040 
Q 2066 3103 1784 3103 
Q 1356 3103 1142 2972 
Q 928 2841 928 2578 
Q 928 2378 1081 2264 
Q 1234 2150 1697 2047 
L 1894 2003 
Q 2506 1872 2764 1633 
Q 3022 1394 3022 966 
Q 3022 478 2636 193 
Q 2250 -91 1575 -91 
Q 1294 -91 989 -36 
Q 684 19 347 128 
L 347 722 
Q 666 556 975 473 
Q 1284 391 1588 391 
Q 1994 391 2212 530 
Q 2431 669 2431 922 
Q 2431 1156 2273 1281 
Q 2116 1406 1581 1522 
L 1381 1569 
Q 847 1681 609 1914 
Q 372 2147 372 2553 
Q 372 3047 722 3315 
Q 1072 3584 1716 3584 
Q 2034 3584 2315 3537 
Q 2597 3491 2834 3397 
z
" transform="scale(0.015625)"/>
       <path id="DejaVuSans-6f" d="M 1959 3097 
Q 1497 3097 1228 2736 
Q 959 2375 959 1747 
Q 959 1119 1226 758 
Q 1494 397 1959 397 
Q 2419 397 2687 759 
Q 2956 1122 2956 1747 
Q 2956 2369 2687 2733 
Q 2419 3097 1959 3097 
z
M 1959 3584 
Q 2709 3584 3137 3096 
Q 3566 2609 3566 1747 
Q 3566 888 3137 398 
Q 2709 -91 1959 -91 
Q 1206 -91 779 398 
Q 353 888 353 1747 
Q 353 2609 779 3096 
Q 1206 3584 1959 3584 
z
" transform="scale(0.015625)"/>
       <path id="DejaVuSans-6c" d="M 603 4863 
L 1178 4863 
L 1178 0 
L 603 0 
L 603 4863 
z
" transform="scale(0.015625)"/>
      </defs>
      <use xlink:href="#DejaVuSans-5b"/>
      <use xlink:href="#DejaVuSans-64" x="39.013672"/>
      <use xlink:href="#DejaVuSans-69" x="102.490234"/>
      <use xlink:href="#DejaVuSans-6d" x="130.273438"/>
      <use xlink:href="#DejaVuSans-65" x="227.685547"/>
      <use xlink:href="#DejaVuSans-6e" x="289.208984"/>
      <use xlink:href="#DejaVuSans-73" x="352.587891"/>
      <use xlink:href="#DejaVuSans-69" x="404.6875"/>
      <use xlink:href="#DejaVuSans-6f" x="432.470703"/>
      <use xlink:href="#DejaVuSans-6e" x="493.652344"/>
      <use xlink:href="#DejaVuSans-6c" x="557.03125"/>
      <use xlink:href="#DejaVuSans-65" x="584.814453"/>
      <use xlink:href="#DejaVuSans-73" x="646.337891"/>
      <use xlink:href="#DejaVuSans-73" x="698.4375"/>
      <use xlink:href="#DejaVuSans-5d" x="750.537109"/>
     </g>
    </g>
   </g>
   <g id="patch_3">
    <path d="M 45.478125 228.96 
L 45.478125 7.2 
" style="fill: none; stroke: #000000; stroke-width: 0.8; stroke-linejoin: miter; stroke-linecap: square"/>
   </g>
   <g id="patch_4">
    <path d="M 380.278125 228.96 
L 380.278125 7.2 
" style="fill: none; stroke: #000000; stroke-width: 0.8; stroke-linejoin: miter; stroke-linecap: square"/>
   </g>
   <g id="patch_5">
    <path d="M 45.478125 228.96 
L 380.278125 228.96 
" style="fill: none; stroke: #000000; stroke-width: 0.8; stroke-linejoin: miter; stroke-linecap: square"/>
   </g>
   <g id="patch_6">
    <path d="M 45.478125 7.2 
L 380.278125 7.2 
" style="fill: none; stroke: #000000; stroke-width: 0.8; stroke-linejoin: miter; stroke-linecap: square"/>
   </g>
   <g id="line2d_60">
    <path d="M 62.870333 36.359895 
L 65.044359 36.359895 
L 65.044359 57.362692 
L 67.218385 57.362692 
L 67.218385 74.993447 
L 69.392411 74.993447 
L 69.392411 83.421745 
L 71.566437 83.421745 
L 71.566437 78.471565 
L 73.740463 78.471565 
L 73.740463 78.317437 
L 75.914489 78.317437 
L 75.914489 79.348198 
L 78.088515 79.348198 
L 78.088515 78.609703 
L 80.262541 78.609703 
L 80.262541 76.369104 
L 82.436567 76.369104 
L 82.436567 79.496565 
L 84.610593 79.496565 
L 84.610593 78.809434 
L 86.784619 78.809434 
L 86.784619 75.833726 
L 88.958644 75.833726 
L 88.958644 78.177105 
L 91.13267 78.177105 
L 91.13267 81.726859 
L 93.306696 81.726859 
L 93.306696 79.406657 
L 95.480722 79.406657 
L 95.480722 78.712231 
L 97.654748 78.712231 
L 97.654748 81.002448 
L 99.828774 81.002448 
L 99.828774 79.36311 
L 102.0028 79.36311 
L 102.0028 81.714926 
L 106.350852 81.777596 
L 106.350852 81.962882 
L 108.524878 81.962882 
L 108.524878 83.525238 
L 110.698904 83.525238 
L 110.698904 82.333925 
L 112.87293 82.333925 
L 112.87293 83.645562 
L 115.046956 83.645562 
L 115.046956 82.912994 
L 117.220982 82.912994 
L 117.220982 82.761348 
L 119.395008 82.761348 
L 119.395008 84.564733 
L 121.569034 84.564733 
L 121.569034 83.223268 
L 123.74306 83.223268 
L 123.74306 84.648698 
L 125.917086 84.648698 
L 125.917086 84.865365 
L 128.091112 84.865365 
L 128.091112 84.595653 
L 130.265138 84.595653 
L 130.265138 85.842945 
L 132.439164 85.842945 
L 132.439164 86.193106 
L 136.787216 86.112553 
L 136.787216 86.660735 
L 138.961242 86.660735 
L 138.961242 87.056723 
L 141.135268 87.056723 
L 141.135268 87.57815 
L 143.309294 87.57815 
L 143.309294 88.416442 
L 145.48332 88.416442 
L 145.48332 88.90553 
L 147.657346 88.90553 
L 147.657346 89.551583 
L 149.831372 89.551583 
L 149.831372 90.389159 
L 152.005398 90.389159 
L 152.005398 90.727937 
L 154.179424 90.727937 
L 154.179424 91.210229 
L 156.35345 91.210229 
L 156.35345 92.146699 
L 158.527476 92.146699 
L 158.527476 93.039269 
L 160.701502 93.039269 
L 160.701502 93.55758 
L 162.875528 93.55758 
L 162.875528 94.61623 
L 165.049554 94.61623 
L 165.049554 95.344267 
L 167.22358 95.344267 
L 167.22358 96.301393 
L 169.397606 96.301393 
L 169.397606 97.385278 
L 171.571631 97.385278 
L 171.571631 98.378812 
L 173.745657 98.378812 
L 173.745657 99.602704 
L 175.919683 99.602704 
L 175.919683 100.837842 
L 178.093709 100.837842 
L 178.093709 101.84791 
L 180.267735 101.84791 
L 180.267735 103.028028 
L 182.441761 103.028028 
L 182.441761 104.31191 
L 184.615787 104.31191 
L 184.615787 105.608109 
L 186.789813 105.608109 
L 186.789813 107.039571 
L 188.963839 107.039571 
L 188.963839 108.631962 
L 191.137865 108.631962 
L 191.137865 109.954159 
L 193.311891 109.954159 
L 193.311891 111.490149 
L 195.485917 111.490149 
L 195.485917 113.143653 
L 197.659943 113.143653 
L 197.659943 114.743764 
L 199.833969 114.743764 
L 199.833969 116.450817 
L 202.007995 116.450817 
L 202.007995 118.107332 
L 204.182021 118.107332 
L 204.182021 119.659475 
L 206.356047 119.659475 
L 206.356047 121.63936 
L 208.530073 121.63936 
L 208.530073 123.417642 
L 210.704099 123.417642 
L 210.704099 125.163963 
L 212.878125 125.163963 
L 212.878125 126.820615 
L 215.052151 126.820615 
L 215.052151 128.844855 
L 217.226177 128.844855 
L 217.226177 130.683412 
L 219.400203 130.683412 
L 219.400203 132.610526 
L 221.574229 132.610526 
L 221.574229 134.47456 
L 223.748255 134.47456 
L 223.748255 136.162917 
L 225.922281 136.162917 
L 225.922281 138.158264 
L 228.096307 138.158264 
L 228.096307 139.807824 
L 230.270333 139.807824 
L 230.270333 141.894992 
L 232.444359 141.894992 
L 232.444359 143.908804 
L 234.618385 143.908804 
L 234.618385 145.940758 
L 236.792411 145.940758 
L 236.792411 147.733126 
L 238.966437 147.733126 
L 238.966437 149.621809 
L 241.140463 149.621809 
L 241.140463 151.584458 
L 243.314489 151.584458 
L 243.314489 153.433614 
L 245.488515 153.433614 
L 245.488515 155.423783 
L 247.662541 155.423783 
L 247.662541 157.270228 
L 249.836567 157.270228 
L 249.836567 159.31174 
L 252.010593 159.31174 
L 252.010593 161.199001 
L 254.184619 161.199001 
L 254.184619 163.009581 
L 256.358644 163.009581 
L 256.358644 164.823289 
L 258.53267 164.823289 
L 258.53267 166.792709 
L 260.706696 166.792709 
L 260.706696 168.586524 
L 262.880722 168.586524 
L 262.880722 170.401281 
L 265.054748 170.401281 
L 265.054748 172.492639 
L 267.228774 172.492639 
L 267.228774 173.945291 
L 269.4028 173.945291 
L 269.4028 175.763724 
L 271.576826 175.763724 
L 271.576826 177.643733 
L 273.750852 177.643733 
L 273.750852 179.446832 
L 275.924878 179.446832 
L 275.924878 181.056569 
L 278.098904 181.056569 
L 278.098904 182.795525 
L 280.27293 182.795525 
L 280.27293 184.405267 
L 282.446956 184.405267 
L 282.446956 185.985455 
L 284.620982 185.985455 
L 284.620982 187.623586 
L 286.795008 187.623586 
L 286.795008 189.172245 
L 288.969034 189.172245 
L 288.969034 190.70221 
L 291.14306 190.70221 
L 291.14306 192.013761 
L 293.317086 192.013761 
L 293.317086 193.353245 
L 295.491112 193.353245 
L 295.491112 194.919233 
L 297.665138 194.919233 
L 297.665138 196.360657 
L 299.839164 196.360657 
L 299.839164 197.531105 
L 302.01319 197.531105 
L 302.01319 199.076174 
L 304.187216 199.076174 
L 304.187216 199.989489 
L 306.361242 199.989489 
L 306.361242 201.472432 
L 308.535268 201.472432 
L 308.535268 202.553029 
L 310.709294 202.553029 
L 310.709294 203.471611 
L 312.88332 203.471611 
L 312.88332 204.207985 
L 315.057346 204.207985 
L 315.057346 205.584906 
L 317.231372 205.584906 
L 317.231372 206.534169 
L 319.405398 206.534169 
L 319.405398 207.211708 
L 321.579424 207.211708 
L 321.579424 207.79669 
L 323.75345 207.79669 
L 323.75345 208.557393 
L 325.927476 208.557393 
L 325.927476 209.329122 
L 328.101502 209.329122 
L 328.101502 210.085114 
L 330.275528 210.085114 
L 330.275528 210.394825 
L 332.449554 210.394825 
L 332.449554 210.515452 
L 334.62358 210.515452 
L 334.62358 211.224681 
L 336.797606 211.224681 
L 336.797606 211.439033 
L 341.145657 211.349456 
L 341.145657 211.968504 
L 343.319683 211.968504 
L 343.319683 212.141711 
L 345.493709 212.141711 
L 345.493709 213.536205 
L 347.667735 213.536205 
L 347.667735 213.081497 
L 349.841761 213.081497 
L 349.841761 214.706118 
L 352.015787 214.706118 
L 352.015787 215.584773 
L 354.189813 215.584773 
L 354.189813 216.090308 
L 356.363839 216.090308 
L 356.363839 215.65331 
L 358.537865 215.65331 
L 358.537865 217.451651 
L 360.711891 217.451651 
L 360.711891 216.622456 
L 365.059943 216.558193 
L 365.059943 216.558193 
" clip-path="url(#p1c0a3b868d)" style="fill: none; stroke: #1f77b4; stroke-width: 1.5; stroke-linecap: square"/>
   </g>
   <g id="LineCollection_1">
    <path clip-path="url(#p1c0a3b868d)" style="fill: none; stroke: #1f77b4; stroke-width: 1.5"/>
    <path d="M 63.96763 268.439687 
L 63.96763 17.28 
" clip-path="url(#p1c0a3b868d)" style="fill: none; stroke: #1f77b4; stroke-width: 1.5"/>
    <path d="M 66.141656 72.622093 
L 66.141656 47.683791 
" clip-path="url(#p1c0a3b868d)" style="fill: none; stroke: #1f77b4; stroke-width: 1.5"/>
    <path d="M 68.315682 86.500008 
L 68.315682 66.958275 
" clip-path="url(#p1c0a3b868d)" style="fill: none; stroke: #1f77b4; stroke-width: 1.5"/>
    <path d="M 70.489708 94.052213 
L 70.489708 75.820936 
" clip-path="url(#p1c0a3b868d)" style="fill: none; stroke: #1f77b4; stroke-width: 1.5"/>
    <path d="M 72.663734 85.064708 
L 72.663734 73.179754 
" clip-path="url(#p1c0a3b868d)" style="fill: none; stroke: #1f77b4; stroke-width: 1.5"/>
    <path d="M 74.83776 83.032864 
L 74.83776 74.306207 
" clip-path="url(#p1c0a3b868d)" style="fill: none; stroke: #1f77b4; stroke-width: 1.5"/>
    <path d="M 77.011786 83.231587 
L 77.011786 75.955063 
" clip-path="url(#p1c0a3b868d)" style="fill: none; stroke: #1f77b4; stroke-width: 1.5"/>
    <path d="M 79.185812 81.781068 
L 79.185812 75.7729 
" clip-path="url(#p1c0a3b868d)" style="fill: none; stroke: #1f77b4; stroke-width: 1.5"/>
    <path d="M 81.359837 78.972789 
L 81.359837 73.995198 
" clip-path="url(#p1c0a3b868d)" style="fill: none; stroke: #1f77b4; stroke-width: 1.5"/>
    <path d="M 83.533863 81.797149 
L 83.533863 77.377213 
" clip-path="url(#p1c0a3b868d)" style="fill: none; stroke: #1f77b4; stroke-width: 1.5"/>
    <path d="M 85.707889 80.817188 
L 85.707889 76.941093 
" clip-path="url(#p1c0a3b868d)" style="fill: none; stroke: #1f77b4; stroke-width: 1.5"/>
    <path d="M 87.881915 77.555177 
L 87.881915 74.21578 
" clip-path="url(#p1c0a3b868d)" style="fill: none; stroke: #1f77b4; stroke-width: 1.5"/>
    <path d="M 90.055941 79.733215 
L 90.055941 76.706055 
" clip-path="url(#p1c0a3b868d)" style="fill: none; stroke: #1f77b4; stroke-width: 1.5"/>
    <path d="M 92.229967 83.182249 
L 92.229967 80.346138 
" clip-path="url(#p1c0a3b868d)" style="fill: none; stroke: #1f77b4; stroke-width: 1.5"/>
    <path d="M 94.403993 80.696992 
L 94.403993 78.175356 
" clip-path="url(#p1c0a3b868d)" style="fill: none; stroke: #1f77b4; stroke-width: 1.5"/>
    <path d="M 96.578019 79.862708 
L 96.578019 77.608916 
" clip-path="url(#p1c0a3b868d)" style="fill: none; stroke: #1f77b4; stroke-width: 1.5"/>
    <path d="M 98.752045 82.077825 
L 98.752045 79.968387 
" clip-path="url(#p1c0a3b868d)" style="fill: none; stroke: #1f77b4; stroke-width: 1.5"/>
    <path d="M 100.926071 80.335156 
L 100.926071 78.424946 
" clip-path="url(#p1c0a3b868d)" style="fill: none; stroke: #1f77b4; stroke-width: 1.5"/>
    <path d="M 103.100097 82.61732 
L 103.100097 80.841805 
" clip-path="url(#p1c0a3b868d)" style="fill: none; stroke: #1f77b4; stroke-width: 1.5"/>
    <path d="M 105.274123 82.616211 
L 105.274123 80.964321 
" clip-path="url(#p1c0a3b868d)" style="fill: none; stroke: #1f77b4; stroke-width: 1.5"/>
    <path d="M 107.448149 82.736554 
L 107.448149 81.210826 
" clip-path="url(#p1c0a3b868d)" style="fill: none; stroke: #1f77b4; stroke-width: 1.5"/>
    <path d="M 109.622175 84.249796 
L 109.622175 82.819672 
" clip-path="url(#p1c0a3b868d)" style="fill: none; stroke: #1f77b4; stroke-width: 1.5"/>
    <path d="M 111.796201 82.999239 
L 111.796201 81.684658 
" clip-path="url(#p1c0a3b868d)" style="fill: none; stroke: #1f77b4; stroke-width: 1.5"/>
    <path d="M 113.970227 84.270177 
L 113.970227 83.035113 
" clip-path="url(#p1c0a3b868d)" style="fill: none; stroke: #1f77b4; stroke-width: 1.5"/>
    <path d="M 116.144253 83.4885 
L 116.144253 82.349536 
" clip-path="url(#p1c0a3b868d)" style="fill: none; stroke: #1f77b4; stroke-width: 1.5"/>
    <path d="M 118.318279 83.299779 
L 118.318279 82.233476 
" clip-path="url(#p1c0a3b868d)" style="fill: none; stroke: #1f77b4; stroke-width: 1.5"/>
    <path d="M 120.492305 85.07393 
L 120.492305 84.06499 
" clip-path="url(#p1c0a3b868d)" style="fill: none; stroke: #1f77b4; stroke-width: 1.5"/>
    <path d="M 122.666331 83.694318 
L 122.666331 82.760319 
" clip-path="url(#p1c0a3b868d)" style="fill: none; stroke: #1f77b4; stroke-width: 1.5"/>
    <path d="M 124.840357 85.09767 
L 124.840357 84.207091 
" clip-path="url(#p1c0a3b868d)" style="fill: none; stroke: #1f77b4; stroke-width: 1.5"/>
    <path d="M 127.014383 85.285602 
L 127.014383 84.451587 
" clip-path="url(#p1c0a3b868d)" style="fill: none; stroke: #1f77b4; stroke-width: 1.5"/>
    <path d="M 129.188409 84.991137 
L 129.188409 84.205896 
" clip-path="url(#p1c0a3b868d)" style="fill: none; stroke: #1f77b4; stroke-width: 1.5"/>
    <path d="M 131.362435 86.220441 
L 131.362435 85.47067 
" clip-path="url(#p1c0a3b868d)" style="fill: none; stroke: #1f77b4; stroke-width: 1.5"/>
    <path d="M 133.536461 86.549494 
L 133.536461 85.841375 
" clip-path="url(#p1c0a3b868d)" style="fill: none; stroke: #1f77b4; stroke-width: 1.5"/>
    <path d="M 135.710487 86.450808 
L 135.710487 85.778496 
" clip-path="url(#p1c0a3b868d)" style="fill: none; stroke: #1f77b4; stroke-width: 1.5"/>
    <path d="M 137.884513 86.983405 
L 137.884513 86.341886 
" clip-path="url(#p1c0a3b868d)" style="fill: none; stroke: #1f77b4; stroke-width: 1.5"/>
    <path d="M 140.058539 87.364473 
L 140.058539 86.752452 
" clip-path="url(#p1c0a3b868d)" style="fill: none; stroke: #1f77b4; stroke-width: 1.5"/>
    <path d="M 142.232565 87.873417 
L 142.232565 87.286086 
" clip-path="url(#p1c0a3b868d)" style="fill: none; stroke: #1f77b4; stroke-width: 1.5"/>
    <path d="M 144.406591 88.699204 
L 144.406591 88.136619 
" clip-path="url(#p1c0a3b868d)" style="fill: none; stroke: #1f77b4; stroke-width: 1.5"/>
    <path d="M 146.580617 89.178609 
L 146.580617 88.635193 
" clip-path="url(#p1c0a3b868d)" style="fill: none; stroke: #1f77b4; stroke-width: 1.5"/>
    <path d="M 148.754643 89.81462 
L 148.754643 89.291092 
" clip-path="url(#p1c0a3b868d)" style="fill: none; stroke: #1f77b4; stroke-width: 1.5"/>
    <path d="M 150.928669 90.643498 
L 150.928669 90.137202 
" clip-path="url(#p1c0a3b868d)" style="fill: none; stroke: #1f77b4; stroke-width: 1.5"/>
    <path d="M 153.102695 90.973694 
L 153.102695 90.484404 
" clip-path="url(#p1c0a3b868d)" style="fill: none; stroke: #1f77b4; stroke-width: 1.5"/>
    <path d="M 155.276721 91.448842 
L 155.276721 90.973713 
" clip-path="url(#p1c0a3b868d)" style="fill: none; stroke: #1f77b4; stroke-width: 1.5"/>
    <path d="M 157.450747 92.378541 
L 157.450747 91.916836 
" clip-path="url(#p1c0a3b868d)" style="fill: none; stroke: #1f77b4; stroke-width: 1.5"/>
    <path d="M 159.624773 93.264847 
L 159.624773 92.815566 
" clip-path="url(#p1c0a3b868d)" style="fill: none; stroke: #1f77b4; stroke-width: 1.5"/>
    <path d="M 161.798799 93.777835 
L 161.798799 93.339112 
" clip-path="url(#p1c0a3b868d)" style="fill: none; stroke: #1f77b4; stroke-width: 1.5"/>
    <path d="M 163.972825 94.831124 
L 163.972825 94.403037 
" clip-path="url(#p1c0a3b868d)" style="fill: none; stroke: #1f77b4; stroke-width: 1.5"/>
    <path d="M 166.14685 95.554314 
L 166.14685 95.135847 
" clip-path="url(#p1c0a3b868d)" style="fill: none; stroke: #1f77b4; stroke-width: 1.5"/>
    <path d="M 168.320876 96.507069 
L 168.320876 96.097276 
" clip-path="url(#p1c0a3b868d)" style="fill: none; stroke: #1f77b4; stroke-width: 1.5"/>
    <path d="M 170.494902 97.586778 
L 170.494902 97.185276 
" clip-path="url(#p1c0a3b868d)" style="fill: none; stroke: #1f77b4; stroke-width: 1.5"/>
    <path d="M 172.668928 98.5768 
L 172.668928 98.18227 
" clip-path="url(#p1c0a3b868d)" style="fill: none; stroke: #1f77b4; stroke-width: 1.5"/>
    <path d="M 174.842954 99.797504 
L 174.842954 99.409303 
" clip-path="url(#p1c0a3b868d)" style="fill: none; stroke: #1f77b4; stroke-width: 1.5"/>
    <path d="M 177.01698 101.029529 
L 177.01698 100.64751 
" clip-path="url(#p1c0a3b868d)" style="fill: none; stroke: #1f77b4; stroke-width: 1.5"/>
    <path d="M 179.191006 102.037643 
L 179.191006 101.659505 
" clip-path="url(#p1c0a3b868d)" style="fill: none; stroke: #1f77b4; stroke-width: 1.5"/>
    <path d="M 181.365032 103.215323 
L 181.365032 102.842029 
" clip-path="url(#p1c0a3b868d)" style="fill: none; stroke: #1f77b4; stroke-width: 1.5"/>
    <path d="M 183.539058 104.49723 
L 183.539058 104.127858 
" clip-path="url(#p1c0a3b868d)" style="fill: none; stroke: #1f77b4; stroke-width: 1.5"/>
    <path d="M 185.713084 105.791986 
L 185.713084 105.425479 
" clip-path="url(#p1c0a3b868d)" style="fill: none; stroke: #1f77b4; stroke-width: 1.5"/>
    <path d="M 187.88711 107.222102 
L 187.88711 106.858269 
" clip-path="url(#p1c0a3b868d)" style="fill: none; stroke: #1f77b4; stroke-width: 1.5"/>
    <path d="M 190.061136 108.813488 
L 190.061136 108.451651 
" clip-path="url(#p1c0a3b868d)" style="fill: none; stroke: #1f77b4; stroke-width: 1.5"/>
    <path d="M 192.235162 110.134565 
L 192.235162 109.774954 
" clip-path="url(#p1c0a3b868d)" style="fill: none; stroke: #1f77b4; stroke-width: 1.5"/>
    <path d="M 194.409188 111.669536 
L 194.409188 111.31195 
" clip-path="url(#p1c0a3b868d)" style="fill: none; stroke: #1f77b4; stroke-width: 1.5"/>
    <path d="M 196.583214 113.322249 
L 196.583214 112.966234 
" clip-path="url(#p1c0a3b868d)" style="fill: none; stroke: #1f77b4; stroke-width: 1.5"/>
    <path d="M 198.75724 114.921893 
L 198.75724 114.566806 
" clip-path="url(#p1c0a3b868d)" style="fill: none; stroke: #1f77b4; stroke-width: 1.5"/>
    <path d="M 200.931266 116.627881 
L 200.931266 116.274911 
" clip-path="url(#p1c0a3b868d)" style="fill: none; stroke: #1f77b4; stroke-width: 1.5"/>
    <path d="M 203.105292 118.283841 
L 203.105292 117.931972 
" clip-path="url(#p1c0a3b868d)" style="fill: none; stroke: #1f77b4; stroke-width: 1.5"/>
    <path d="M 205.279318 119.835617 
L 205.279318 119.484479 
" clip-path="url(#p1c0a3b868d)" style="fill: none; stroke: #1f77b4; stroke-width: 1.5"/>
    <path d="M 207.453344 121.814876 
L 207.453344 121.464981 
" clip-path="url(#p1c0a3b868d)" style="fill: none; stroke: #1f77b4; stroke-width: 1.5"/>
    <path d="M 209.62737 123.592635 
L 209.62737 123.24378 
" clip-path="url(#p1c0a3b868d)" style="fill: none; stroke: #1f77b4; stroke-width: 1.5"/>
    <path d="M 211.801396 125.338543 
L 211.801396 124.990508 
" clip-path="url(#p1c0a3b868d)" style="fill: none; stroke: #1f77b4; stroke-width: 1.5"/>
    <path d="M 213.975422 126.994298 
L 213.975422 126.648044 
" clip-path="url(#p1c0a3b868d)" style="fill: none; stroke: #1f77b4; stroke-width: 1.5"/>
    <path d="M 216.149448 129.018053 
L 216.149448 128.672765 
" clip-path="url(#p1c0a3b868d)" style="fill: none; stroke: #1f77b4; stroke-width: 1.5"/>
    <path d="M 218.323474 130.856019 
L 218.323474 130.511905 
" clip-path="url(#p1c0a3b868d)" style="fill: none; stroke: #1f77b4; stroke-width: 1.5"/>
    <path d="M 220.4975 132.782367 
L 220.4975 132.439774 
" clip-path="url(#p1c0a3b868d)" style="fill: none; stroke: #1f77b4; stroke-width: 1.5"/>
    <path d="M 222.671526 134.645919 
L 222.671526 134.304284 
" clip-path="url(#p1c0a3b868d)" style="fill: none; stroke: #1f77b4; stroke-width: 1.5"/>
    <path d="M 224.845552 136.333494 
L 224.845552 135.993414 
" clip-path="url(#p1c0a3b868d)" style="fill: none; stroke: #1f77b4; stroke-width: 1.5"/>
    <path d="M 227.019578 138.328089 
L 227.019578 137.989504 
" clip-path="url(#p1c0a3b868d)" style="fill: none; stroke: #1f77b4; stroke-width: 1.5"/>
    <path d="M 229.193604 139.977112 
L 229.193604 139.639594 
" clip-path="url(#p1c0a3b868d)" style="fill: none; stroke: #1f77b4; stroke-width: 1.5"/>
    <path d="M 231.36763 142.06383 
L 231.36763 141.727206 
" clip-path="url(#p1c0a3b868d)" style="fill: none; stroke: #1f77b4; stroke-width: 1.5"/>
    <path d="M 233.541656 144.076989 
L 233.541656 143.741663 
" clip-path="url(#p1c0a3b868d)" style="fill: none; stroke: #1f77b4; stroke-width: 1.5"/>
    <path d="M 235.715682 146.108722 
L 235.715682 145.773835 
" clip-path="url(#p1c0a3b868d)" style="fill: none; stroke: #1f77b4; stroke-width: 1.5"/>
    <path d="M 237.889708 147.900613 
L 237.889708 147.566675 
" clip-path="url(#p1c0a3b868d)" style="fill: none; stroke: #1f77b4; stroke-width: 1.5"/>
    <path d="M 240.063734 149.788746 
L 240.063734 149.4559 
" clip-path="url(#p1c0a3b868d)" style="fill: none; stroke: #1f77b4; stroke-width: 1.5"/>
    <path d="M 242.23776 151.751301 
L 242.23776 151.418644 
" clip-path="url(#p1c0a3b868d)" style="fill: none; stroke: #1f77b4; stroke-width: 1.5"/>
    <path d="M 244.411786 153.600136 
L 244.411786 153.268115 
" clip-path="url(#p1c0a3b868d)" style="fill: none; stroke: #1f77b4; stroke-width: 1.5"/>
    <path d="M 246.585812 155.590246 
L 246.585812 155.258343 
" clip-path="url(#p1c0a3b868d)" style="fill: none; stroke: #1f77b4; stroke-width: 1.5"/>
    <path d="M 248.759837 157.436618 
L 248.759837 157.104861 
" clip-path="url(#p1c0a3b868d)" style="fill: none; stroke: #1f77b4; stroke-width: 1.5"/>
    <path d="M 250.933863 159.47815 
L 250.933863 159.146351 
" clip-path="url(#p1c0a3b868d)" style="fill: none; stroke: #1f77b4; stroke-width: 1.5"/>
    <path d="M 253.107889 161.365587 
L 253.107889 161.033438 
" clip-path="url(#p1c0a3b868d)" style="fill: none; stroke: #1f77b4; stroke-width: 1.5"/>
    <path d="M 255.281915 163.176287 
L 255.281915 162.843902 
" clip-path="url(#p1c0a3b868d)" style="fill: none; stroke: #1f77b4; stroke-width: 1.5"/>
    <path d="M 257.455941 164.990147 
L 257.455941 164.65746 
" clip-path="url(#p1c0a3b868d)" style="fill: none; stroke: #1f77b4; stroke-width: 1.5"/>
    <path d="M 259.629967 166.960055 
L 259.629967 166.626398 
" clip-path="url(#p1c0a3b868d)" style="fill: none; stroke: #1f77b4; stroke-width: 1.5"/>
    <path d="M 261.803993 168.754337 
L 261.803993 168.41975 
" clip-path="url(#p1c0a3b868d)" style="fill: none; stroke: #1f77b4; stroke-width: 1.5"/>
    <path d="M 263.978019 170.569566 
L 263.978019 170.234041 
" clip-path="url(#p1c0a3b868d)" style="fill: none; stroke: #1f77b4; stroke-width: 1.5"/>
    <path d="M 266.152045 172.661903 
L 266.152045 172.324432 
" clip-path="url(#p1c0a3b868d)" style="fill: none; stroke: #1f77b4; stroke-width: 1.5"/>
    <path d="M 268.326071 174.115049 
L 268.326071 173.776596 
" clip-path="url(#p1c0a3b868d)" style="fill: none; stroke: #1f77b4; stroke-width: 1.5"/>
    <path d="M 270.500097 175.93447 
L 270.500097 175.594054 
" clip-path="url(#p1c0a3b868d)" style="fill: none; stroke: #1f77b4; stroke-width: 1.5"/>
    <path d="M 272.674123 177.8157 
L 272.674123 177.472858 
" clip-path="url(#p1c0a3b868d)" style="fill: none; stroke: #1f77b4; stroke-width: 1.5"/>
    <path d="M 274.848149 179.620154 
L 274.848149 179.274618 
" clip-path="url(#p1c0a3b868d)" style="fill: none; stroke: #1f77b4; stroke-width: 1.5"/>
    <path d="M 277.022175 181.231275 
L 277.022175 180.88299 
" clip-path="url(#p1c0a3b868d)" style="fill: none; stroke: #1f77b4; stroke-width: 1.5"/>
    <path d="M 279.196201 182.971928 
L 279.196201 182.620271 
" clip-path="url(#p1c0a3b868d)" style="fill: none; stroke: #1f77b4; stroke-width: 1.5"/>
    <path d="M 281.370227 184.583499 
L 281.370227 184.228208 
" clip-path="url(#p1c0a3b868d)" style="fill: none; stroke: #1f77b4; stroke-width: 1.5"/>
    <path d="M 283.544253 186.165806 
L 283.544253 185.806304 
" clip-path="url(#p1c0a3b868d)" style="fill: none; stroke: #1f77b4; stroke-width: 1.5"/>
    <path d="M 285.718279 187.80635 
L 285.718279 187.442054 
" clip-path="url(#p1c0a3b868d)" style="fill: none; stroke: #1f77b4; stroke-width: 1.5"/>
    <path d="M 287.892305 189.357682 
L 287.892305 188.988076 
" clip-path="url(#p1c0a3b868d)" style="fill: none; stroke: #1f77b4; stroke-width: 1.5"/>
    <path d="M 290.066331 190.890614 
L 290.066331 190.515115 
" clip-path="url(#p1c0a3b868d)" style="fill: none; stroke: #1f77b4; stroke-width: 1.5"/>
    <path d="M 292.240357 192.205245 
L 292.240357 191.823629 
" clip-path="url(#p1c0a3b868d)" style="fill: none; stroke: #1f77b4; stroke-width: 1.5"/>
    <path d="M 294.414383 193.548318 
L 294.414383 193.159575 
" clip-path="url(#p1c0a3b868d)" style="fill: none; stroke: #1f77b4; stroke-width: 1.5"/>
    <path d="M 296.588409 195.118499 
L 296.588409 194.72143 
" clip-path="url(#p1c0a3b868d)" style="fill: none; stroke: #1f77b4; stroke-width: 1.5"/>
    <path d="M 298.762435 196.564437 
L 298.762435 196.158407 
" clip-path="url(#p1c0a3b868d)" style="fill: none; stroke: #1f77b4; stroke-width: 1.5"/>
    <path d="M 300.936461 197.739693 
L 300.936461 197.32412 
" clip-path="url(#p1c0a3b868d)" style="fill: none; stroke: #1f77b4; stroke-width: 1.5"/>
    <path d="M 303.110487 199.290365 
L 303.110487 198.863673 
" clip-path="url(#p1c0a3b868d)" style="fill: none; stroke: #1f77b4; stroke-width: 1.5"/>
    <path d="M 305.284513 200.209173 
L 305.284513 199.771584 
" clip-path="url(#p1c0a3b868d)" style="fill: none; stroke: #1f77b4; stroke-width: 1.5"/>
    <path d="M 307.458539 201.699061 
L 307.458539 201.247695 
" clip-path="url(#p1c0a3b868d)" style="fill: none; stroke: #1f77b4; stroke-width: 1.5"/>
    <path d="M 309.632565 202.78658 
L 309.632565 202.321488 
" clip-path="url(#p1c0a3b868d)" style="fill: none; stroke: #1f77b4; stroke-width: 1.5"/>
    <path d="M 311.806591 203.712458 
L 311.806591 203.232899 
" clip-path="url(#p1c0a3b868d)" style="fill: none; stroke: #1f77b4; stroke-width: 1.5"/>
    <path d="M 313.980617 204.456597 
L 313.980617 203.961648 
" clip-path="url(#p1c0a3b868d)" style="fill: none; stroke: #1f77b4; stroke-width: 1.5"/>
    <path d="M 316.154643 205.84285 
L 316.154643 205.329411 
" clip-path="url(#p1c0a3b868d)" style="fill: none; stroke: #1f77b4; stroke-width: 1.5"/>
    <path d="M 318.328669 206.80177 
L 318.328669 206.269201 
" clip-path="url(#p1c0a3b868d)" style="fill: none; stroke: #1f77b4; stroke-width: 1.5"/>
    <path d="M 320.502695 207.489779 
L 320.502695 206.93648 
" clip-path="url(#p1c0a3b868d)" style="fill: none; stroke: #1f77b4; stroke-width: 1.5"/>
    <path d="M 322.676721 208.086471 
L 322.676721 207.509996 
" clip-path="url(#p1c0a3b868d)" style="fill: none; stroke: #1f77b4; stroke-width: 1.5"/>
    <path d="M 324.850747 208.861086 
L 324.850747 208.257089 
" clip-path="url(#p1c0a3b868d)" style="fill: none; stroke: #1f77b4; stroke-width: 1.5"/>
    <path d="M 327.024773 209.648384 
L 327.024773 209.013602 
" clip-path="url(#p1c0a3b868d)" style="fill: none; stroke: #1f77b4; stroke-width: 1.5"/>
    <path d="M 329.198799 210.422295 
L 329.198799 209.752105 
" clip-path="url(#p1c0a3b868d)" style="fill: none; stroke: #1f77b4; stroke-width: 1.5"/>
    <path d="M 331.372825 210.751377 
L 331.372825 210.042934 
" clip-path="url(#p1c0a3b868d)" style="fill: none; stroke: #1f77b4; stroke-width: 1.5"/>
    <path d="M 333.54685 210.893866 
L 333.54685 210.142284 
" clip-path="url(#p1c0a3b868d)" style="fill: none; stroke: #1f77b4; stroke-width: 1.5"/>
    <path d="M 335.720876 211.630209 
L 335.720876 210.825172 
" clip-path="url(#p1c0a3b868d)" style="fill: none; stroke: #1f77b4; stroke-width: 1.5"/>
    <path d="M 337.894902 211.87643 
L 337.894902 211.008631 
" clip-path="url(#p1c0a3b868d)" style="fill: none; stroke: #1f77b4; stroke-width: 1.5"/>
    <path d="M 340.068928 211.824606 
L 340.068928 210.882548 
" clip-path="url(#p1c0a3b868d)" style="fill: none; stroke: #1f77b4; stroke-width: 1.5"/>
    <path d="M 342.242954 212.492625 
L 342.242954 211.454394 
" clip-path="url(#p1c0a3b868d)" style="fill: none; stroke: #1f77b4; stroke-width: 1.5"/>
    <path d="M 344.41698 212.723983 
L 344.41698 211.571767 
" clip-path="url(#p1c0a3b868d)" style="fill: none; stroke: #1f77b4; stroke-width: 1.5"/>
    <path d="M 346.591006 214.190453 
L 346.591006 212.897482 
" clip-path="url(#p1c0a3b868d)" style="fill: none; stroke: #1f77b4; stroke-width: 1.5"/>
    <path d="M 348.765032 213.807914 
L 348.765032 212.374169 
" clip-path="url(#p1c0a3b868d)" style="fill: none; stroke: #1f77b4; stroke-width: 1.5"/>
    <path d="M 350.939058 215.52383 
L 350.939058 213.912516 
" clip-path="url(#p1c0a3b868d)" style="fill: none; stroke: #1f77b4; stroke-width: 1.5"/>
    <path d="M 353.113084 216.504708 
L 353.113084 214.695241 
" clip-path="url(#p1c0a3b868d)" style="fill: none; stroke: #1f77b4; stroke-width: 1.5"/>
    <path d="M 355.28711 217.13342 
L 355.28711 215.086115 
" clip-path="url(#p1c0a3b868d)" style="fill: none; stroke: #1f77b4; stroke-width: 1.5"/>
    <path d="M 357.461136 216.846542 
L 357.461136 214.510735 
" clip-path="url(#p1c0a3b868d)" style="fill: none; stroke: #1f77b4; stroke-width: 1.5"/>
    <path d="M 359.635162 218.88 
L 359.635162 216.09529 
" clip-path="url(#p1c0a3b868d)" style="fill: none; stroke: #1f77b4; stroke-width: 1.5"/>
    <path d="M 361.809188 218.360066 
L 361.809188 214.990242 
" clip-path="url(#p1c0a3b868d)" style="fill: none; stroke: #1f77b4; stroke-width: 1.5"/>
    <path d="M 363.983214 218.808072 
L 363.983214 214.481944 
" clip-path="url(#p1c0a3b868d)" style="fill: none; stroke: #1f77b4; stroke-width: 1.5"/>
   </g>
  </g>
 </g>
 <defs>
  <clipPath id="p1c0a3b868d">
   <rect x="45.478125" y="7.2" width="334.8" height="221.76"/>
  </clipPath>
 </defs>
</svg>
