<?xml version="1.0" encoding="utf-8" standalone="no"?>
<!DOCTYPE svg PUBLIC "-//W3C//DTD SVG 1.1//EN"
  "http://www.w3.org/Graphics/SVG/1.1/DTD/svg11.dtd">
<svg xmlns:xlink="http://www.w3.org/1999/xlink" width="387.478125pt" height="267.439687pt" viewBox="0 0 387.478125 267.439687" xmlns="http://www.w3.org/2000/svg" version="1.1">
 <metadata>
  <rdf:RDF xmlns:dc="http://purl.org/dc/elements/1.1/" xmlns:cc="http://creativecommons.org/ns#" xmlns:rdf="http://www.w3.org/1999/02/22-rdf-syntax-ns#">
   <cc:Work>
    <dc:type rdf:resource="http://purl.org/dc/dcmitype/StillImage"/>
    <dc:date>2024-10-07T09:42:03.819142</dc:date>
    <dc:format>image/svg+xml</dc:format>
    <dc:creator>
     <cc:Agent>
      <dc:title>Matplotlib v3.9.2, https://matplotlib.org/</dc:title>
     </cc:Agent>
    </dc:creator>
   </cc:Work>
  </rdf:RDF>
 </metadata>
 <defs>
  <style type="text/css">*{stroke-linejoin: round; stroke-linecap: butt}</style>
 </defs>
 <g id="figure_1">
  <g id="patch_1">
   <path d="M 0 267.439687 
L 387.478125 267.439687 
L 387.478125 0 
L 0 0 
z
" style="fill: #ffffff"/>
  </g>
  <g id="axes_1">
   <g id="patch_2">
    <path d="M 45.478125 228.96 
L 380.278125 228.96 
L 380.278125 7.2 
L 45.478125 7.2 
z
" style="fill: #ffffff"/>
   </g>
   <g id="matplotlib.axis_1">
    <g id="xtick_1">
     <g id="line2d_1">
      <defs>
       <path id="m4cdc546c7d" d="M 0 0 
L 0 3.5 
" style="stroke: #000000; stroke-width: 0.8"/>
      </defs>
      <g>
       <use xlink:href="#m4cdc546c7d" x="100.395912" y="228.96" style="stroke: #000000; stroke-width: 0.8"/>
      </g>
     </g>
     <g id="text_1">
      <!-- 0.05 -->
      <g transform="translate(89.263099 243.558437) scale(0.1 -0.1)">
       <defs>
        <path id="DejaVuSans-30" d="M 2034 4250 
Q 1547 4250 1301 3770 
Q 1056 3291 1056 2328 
Q 1056 1369 1301 889 
Q 1547 409 2034 409 
Q 2525 409 2770 889 
Q 3016 1369 3016 2328 
Q 3016 3291 2770 3770 
Q 2525 4250 2034 4250 
z
M 2034 4750 
Q 2819 4750 3233 4129 
Q 3647 3509 3647 2328 
Q 3647 1150 3233 529 
Q 2819 -91 2034 -91 
Q 1250 -91 836 529 
Q 422 1150 422 2328 
Q 422 3509 836 4129 
Q 1250 4750 2034 4750 
z
" transform="scale(0.015625)"/>
        <path id="DejaVuSans-2e" d="M 684 794 
L 1344 794 
L 1344 0 
L 684 0 
L 684 794 
z
" transform="scale(0.015625)"/>
        <path id="DejaVuSans-35" d="M 691 4666 
L 3169 4666 
L 3169 4134 
L 1269 4134 
L 1269 2991 
Q 1406 3038 1543 3061 
Q 1681 3084 1819 3084 
Q 2600 3084 3056 2656 
Q 3513 2228 3513 1497 
Q 3513 744 3044 326 
Q 2575 -91 1722 -91 
Q 1428 -91 1123 -41 
Q 819 9 494 109 
L 494 744 
Q 775 591 1075 516 
Q 1375 441 1709 441 
Q 2250 441 2565 725 
Q 2881 1009 2881 1497 
Q 2881 1984 2565 2268 
Q 2250 2553 1709 2553 
Q 1456 2553 1204 2497 
Q 953 2441 691 2322 
L 691 4666 
z
" transform="scale(0.015625)"/>
       </defs>
       <use xlink:href="#DejaVuSans-30"/>
       <use xlink:href="#DejaVuSans-2e" x="63.623047"/>
       <use xlink:href="#DejaVuSans-30" x="95.410156"/>
       <use xlink:href="#DejaVuSans-35" x="159.033203"/>
      </g>
     </g>
    </g>
    <g id="xtick_2">
     <g id="line2d_2">
      <g>
       <use xlink:href="#m4cdc546c7d" x="166.561919" y="228.96" style="stroke: #000000; stroke-width: 0.8"/>
      </g>
     </g>
     <g id="text_2">
      <!-- 0.10 -->
      <g transform="translate(155.429107 243.558437) scale(0.1 -0.1)">
       <defs>
        <path id="DejaVuSans-31" d="M 794 531 
L 1825 531 
L 1825 4091 
L 703 3866 
L 703 4441 
L 1819 4666 
L 2450 4666 
L 2450 531 
L 3481 531 
L 3481 0 
L 794 0 
L 794 531 
z
" transform="scale(0.015625)"/>
       </defs>
       <use xlink:href="#DejaVuSans-30"/>
       <use xlink:href="#DejaVuSans-2e" x="63.623047"/>
       <use xlink:href="#DejaVuSans-31" x="95.410156"/>
       <use xlink:href="#DejaVuSans-30" x="159.033203"/>
      </g>
     </g>
    </g>
    <g id="xtick_3">
     <g id="line2d_3">
      <g>
       <use xlink:href="#m4cdc546c7d" x="232.727927" y="228.96" style="stroke: #000000; stroke-width: 0.8"/>
      </g>
     </g>
     <g id="text_3">
      <!-- 0.15 -->
      <g transform="translate(221.595115 243.558437) scale(0.1 -0.1)">
       <use xlink:href="#DejaVuSans-30"/>
       <use xlink:href="#DejaVuSans-2e" x="63.623047"/>
       <use xlink:href="#DejaVuSans-31" x="95.410156"/>
       <use xlink:href="#DejaVuSans-35" x="159.033203"/>
      </g>
     </g>
    </g>
    <g id="xtick_4">
     <g id="line2d_4">
      <g>
       <use xlink:href="#m4cdc546c7d" x="298.893935" y="228.96" style="stroke: #000000; stroke-width: 0.8"/>
      </g>
     </g>
     <g id="text_4">
      <!-- 0.20 -->
      <g transform="translate(287.761123 243.558437) scale(0.1 -0.1)">
       <defs>
        <path id="DejaVuSans-32" d="M 1228 531 
L 3431 531 
L 3431 0 
L 469 0 
L 469 531 
Q 828 903 1448 1529 
Q 2069 2156 2228 2338 
Q 2531 2678 2651 2914 
Q 2772 3150 2772 3378 
Q 2772 3750 2511 3984 
Q 2250 4219 1831 4219 
Q 1534 4219 1204 4116 
Q 875 4013 500 3803 
L 500 4441 
Q 881 4594 1212 4672 
Q 1544 4750 1819 4750 
Q 2544 4750 2975 4387 
Q 3406 4025 3406 3419 
Q 3406 3131 3298 2873 
Q 3191 2616 2906 2266 
Q 2828 2175 2409 1742 
Q 1991 1309 1228 531 
z
" transform="scale(0.015625)"/>
       </defs>
       <use xlink:href="#DejaVuSans-30"/>
       <use xlink:href="#DejaVuSans-2e" x="63.623047"/>
       <use xlink:href="#DejaVuSans-32" x="95.410156"/>
       <use xlink:href="#DejaVuSans-30" x="159.033203"/>
      </g>
     </g>
    </g>
    <g id="xtick_5">
     <g id="line2d_5">
      <g>
       <use xlink:href="#m4cdc546c7d" x="365.059943" y="228.96" style="stroke: #000000; stroke-width: 0.8"/>
      </g>
     </g>
     <g id="text_5">
      <!-- 0.25 -->
      <g transform="translate(353.927131 243.558437) scale(0.1 -0.1)">
       <use xlink:href="#DejaVuSans-30"/>
       <use xlink:href="#DejaVuSans-2e" x="63.623047"/>
       <use xlink:href="#DejaVuSans-32" x="95.410156"/>
       <use xlink:href="#DejaVuSans-35" x="159.033203"/>
      </g>
     </g>
    </g>
    <g id="text_6">
     <!-- Q [1/Å] -->
     <g transform="translate(195.165625 258.16) scale(0.1 -0.1)">
      <defs>
       <path id="DejaVuSans-51" d="M 2522 4238 
Q 1834 4238 1429 3725 
Q 1025 3213 1025 2328 
Q 1025 1447 1429 934 
Q 1834 422 2522 422 
Q 3209 422 3611 934 
Q 4013 1447 4013 2328 
Q 4013 3213 3611 3725 
Q 3209 4238 2522 4238 
z
M 3406 84 
L 4238 -825 
L 3475 -825 
L 2784 -78 
Q 2681 -84 2626 -87 
Q 2572 -91 2522 -91 
Q 1538 -91 948 567 
Q 359 1225 359 2328 
Q 359 3434 948 4092 
Q 1538 4750 2522 4750 
Q 3503 4750 4090 4092 
Q 4678 3434 4678 2328 
Q 4678 1516 4351 937 
Q 4025 359 3406 84 
z
" transform="scale(0.015625)"/>
       <path id="DejaVuSans-20" transform="scale(0.015625)"/>
       <path id="DejaVuSans-5b" d="M 550 4863 
L 1875 4863 
L 1875 4416 
L 1125 4416 
L 1125 -397 
L 1875 -397 
L 1875 -844 
L 550 -844 
L 550 4863 
z
" transform="scale(0.015625)"/>
       <path id="DejaVuSans-2f" d="M 1625 4666 
L 2156 4666 
L 531 -594 
L 0 -594 
L 1625 4666 
z
" transform="scale(0.015625)"/>
       <path id="DejaVuSans-c5" d="M 2663 5081 
Q 2663 5278 2523 5417 
Q 2384 5556 2188 5556 
Q 1988 5556 1852 5420 
Q 1716 5284 1716 5081 
Q 1716 4884 1853 4746 
Q 1991 4609 2188 4609 
Q 2384 4609 2523 4746 
Q 2663 4884 2663 5081 
z
M 2188 4044 
L 1338 1722 
L 3041 1722 
L 2188 4044 
z
M 1716 4366 
Q 1525 4494 1428 4673 
Q 1331 4853 1331 5081 
Q 1331 5441 1579 5691 
Q 1828 5941 2188 5941 
Q 2544 5941 2795 5689 
Q 3047 5438 3047 5081 
Q 3047 4863 2948 4678 
Q 2850 4494 2663 4366 
L 4325 0 
L 3669 0 
L 3244 1197 
L 1141 1197 
L 716 0 
L 50 0 
L 1716 4366 
z
" transform="scale(0.015625)"/>
       <path id="DejaVuSans-5d" d="M 1947 4863 
L 1947 -844 
L 622 -844 
L 622 -397 
L 1369 -397 
L 1369 4416 
L 622 4416 
L 622 4863 
L 1947 4863 
z
" transform="scale(0.015625)"/>
      </defs>
      <use xlink:href="#DejaVuSans-51"/>
      <use xlink:href="#DejaVuSans-20" x="78.710938"/>
      <use xlink:href="#DejaVuSans-5b" x="110.498047"/>
      <use xlink:href="#DejaVuSans-31" x="149.511719"/>
      <use xlink:href="#DejaVuSans-2f" x="213.134766"/>
      <use xlink:href="#DejaVuSans-c5" x="246.826172"/>
      <use xlink:href="#DejaVuSans-5d" x="315.234375"/>
     </g>
    </g>
   </g>
   <g id="matplotlib.axis_2">
    <g id="ytick_1">
     <g id="line2d_6">
      <defs>
       <path id="m3231b978c6" d="M 0 0 
L -3.5 0 
" style="stroke: #000000; stroke-width: 0.8"/>
      </defs>
      <g>
       <use xlink:href="#m3231b978c6" x="45.478125" y="92.618314" style="stroke: #000000; stroke-width: 0.8"/>
      </g>
     </g>
     <g id="text_7">
      <!-- $\mathdefault{10^{1}}$ -->
      <g transform="translate(20.878125 96.417533) scale(0.1 -0.1)">
       <use xlink:href="#DejaVuSans-31" transform="translate(0 0.684375)"/>
       <use xlink:href="#DejaVuSans-30" transform="translate(63.623047 0.684375)"/>
       <use xlink:href="#DejaVuSans-31" transform="translate(128.203125 38.965625) scale(0.7)"/>
      </g>
     </g>
    </g>
    <g id="ytick_2">
     <g id="line2d_7">
      <defs>
       <path id="m538a50039c" d="M 0 0 
L -2 0 
" style="stroke: #000000; stroke-width: 0.6"/>
      </defs>
      <g>
       <use xlink:href="#m538a50039c" x="45.478125" y="205.123004" style="stroke: #000000; stroke-width: 0.6"/>
      </g>
     </g>
    </g>
    <g id="ytick_3">
     <g id="line2d_8">
      <g>
       <use xlink:href="#m538a50039c" x="45.478125" y="176.779739" style="stroke: #000000; stroke-width: 0.6"/>
      </g>
     </g>
    </g>
    <g id="ytick_4">
     <g id="line2d_9">
      <g>
       <use xlink:href="#m538a50039c" x="45.478125" y="156.669872" style="stroke: #000000; stroke-width: 0.6"/>
      </g>
     </g>
    </g>
    <g id="ytick_5">
     <g id="line2d_10">
      <g>
       <use xlink:href="#m538a50039c" x="45.478125" y="141.071447" style="stroke: #000000; stroke-width: 0.6"/>
      </g>
     </g>
    </g>
    <g id="ytick_6">
     <g id="line2d_11">
      <g>
       <use xlink:href="#m538a50039c" x="45.478125" y="128.326606" style="stroke: #000000; stroke-width: 0.6"/>
      </g>
     </g>
    </g>
    <g id="ytick_7">
     <g id="line2d_12">
      <g>
       <use xlink:href="#m538a50039c" x="45.478125" y="117.550997" style="stroke: #000000; stroke-width: 0.6"/>
      </g>
     </g>
    </g>
    <g id="ytick_8">
     <g id="line2d_13">
      <g>
       <use xlink:href="#m538a50039c" x="45.478125" y="108.216739" style="stroke: #000000; stroke-width: 0.6"/>
      </g>
     </g>
    </g>
    <g id="ytick_9">
     <g id="line2d_14">
      <g>
       <use xlink:href="#m538a50039c" x="45.478125" y="99.98334" style="stroke: #000000; stroke-width: 0.6"/>
      </g>
     </g>
    </g>
    <g id="ytick_10">
     <g id="line2d_15">
      <g>
       <use xlink:href="#m538a50039c" x="45.478125" y="44.165182" style="stroke: #000000; stroke-width: 0.6"/>
      </g>
     </g>
    </g>
    <g id="ytick_11">
     <g id="line2d_16">
      <g>
       <use xlink:href="#m538a50039c" x="45.478125" y="15.821916" style="stroke: #000000; stroke-width: 0.6"/>
      </g>
     </g>
    </g>
    <g id="text_8">
     <!-- [dimensionless] -->
     <g transform="translate(14.798438 157.557344) rotate(-90) scale(0.1 -0.1)">
      <defs>
       <path id="DejaVuSans-64" d="M 2906 2969 
L 2906 4863 
L 3481 4863 
L 3481 0 
L 2906 0 
L 2906 525 
Q 2725 213 2448 61 
Q 2172 -91 1784 -91 
Q 1150 -91 751 415 
Q 353 922 353 1747 
Q 353 2572 751 3078 
Q 1150 3584 1784 3584 
Q 2172 3584 2448 3432 
Q 2725 3281 2906 2969 
z
M 947 1747 
Q 947 1113 1208 752 
Q 1469 391 1925 391 
Q 2381 391 2643 752 
Q 2906 1113 2906 1747 
Q 2906 2381 2643 2742 
Q 2381 3103 1925 3103 
Q 1469 3103 1208 2742 
Q 947 2381 947 1747 
z
" transform="scale(0.015625)"/>
       <path id="DejaVuSans-69" d="M 603 3500 
L 1178 3500 
L 1178 0 
L 603 0 
L 603 3500 
z
M 603 4863 
L 1178 4863 
L 1178 4134 
L 603 4134 
L 603 4863 
z
" transform="scale(0.015625)"/>
       <path id="DejaVuSans-6d" d="M 3328 2828 
Q 3544 3216 3844 3400 
Q 4144 3584 4550 3584 
Q 5097 3584 5394 3201 
Q 5691 2819 5691 2113 
L 5691 0 
L 5113 0 
L 5113 2094 
Q 5113 2597 4934 2840 
Q 4756 3084 4391 3084 
Q 3944 3084 3684 2787 
Q 3425 2491 3425 1978 
L 3425 0 
L 2847 0 
L 2847 2094 
Q 2847 2600 2669 2842 
Q 2491 3084 2119 3084 
Q 1678 3084 1418 2786 
Q 1159 2488 1159 1978 
L 1159 0 
L 581 0 
L 581 3500 
L 1159 3500 
L 1159 2956 
Q 1356 3278 1631 3431 
Q 1906 3584 2284 3584 
Q 2666 3584 2933 3390 
Q 3200 3197 3328 2828 
z
" transform="scale(0.015625)"/>
       <path id="DejaVuSans-65" d="M 3597 1894 
L 3597 1613 
L 953 1613 
Q 991 1019 1311 708 
Q 1631 397 2203 397 
Q 2534 397 2845 478 
Q 3156 559 3463 722 
L 3463 178 
Q 3153 47 2828 -22 
Q 2503 -91 2169 -91 
Q 1331 -91 842 396 
Q 353 884 353 1716 
Q 353 2575 817 3079 
Q 1281 3584 2069 3584 
Q 2775 3584 3186 3129 
Q 3597 2675 3597 1894 
z
M 3022 2063 
Q 3016 2534 2758 2815 
Q 2500 3097 2075 3097 
Q 1594 3097 1305 2825 
Q 1016 2553 972 2059 
L 3022 2063 
z
" transform="scale(0.015625)"/>
       <path id="DejaVuSans-6e" d="M 3513 2113 
L 3513 0 
L 2938 0 
L 2938 2094 
Q 2938 2591 2744 2837 
Q 2550 3084 2163 3084 
Q 1697 3084 1428 2787 
Q 1159 2491 1159 1978 
L 1159 0 
L 581 0 
L 581 3500 
L 1159 3500 
L 1159 2956 
Q 1366 3272 1645 3428 
Q 1925 3584 2291 3584 
Q 2894 3584 3203 3211 
Q 3513 2838 3513 2113 
z
" transform="scale(0.015625)"/>
       <path id="DejaVuSans-73" d="M 2834 3397 
L 2834 2853 
Q 2591 2978 2328 3040 
Q 2066 3103 1784 3103 
Q 1356 3103 1142 2972 
Q 928 2841 928 2578 
Q 928 2378 1081 2264 
Q 1234 2150 1697 2047 
L 1894 2003 
Q 2506 1872 2764 1633 
Q 3022 1394 3022 966 
Q 3022 478 2636 193 
Q 2250 -91 1575 -91 
Q 1294 -91 989 -36 
Q 684 19 347 128 
L 347 722 
Q 666 556 975 473 
Q 1284 391 1588 391 
Q 1994 391 2212 530 
Q 2431 669 2431 922 
Q 2431 1156 2273 1281 
Q 2116 1406 1581 1522 
L 1381 1569 
Q 847 1681 609 1914 
Q 372 2147 372 2553 
Q 372 3047 722 3315 
Q 1072 3584 1716 3584 
Q 2034 3584 2315 3537 
Q 2597 3491 2834 3397 
z
" transform="scale(0.015625)"/>
       <path id="DejaVuSans-6f" d="M 1959 3097 
Q 1497 3097 1228 2736 
Q 959 2375 959 1747 
Q 959 1119 1226 758 
Q 1494 397 1959 397 
Q 2419 397 2687 759 
Q 2956 1122 2956 1747 
Q 2956 2369 2687 2733 
Q 2419 3097 1959 3097 
z
M 1959 3584 
Q 2709 3584 3137 3096 
Q 3566 2609 3566 1747 
Q 3566 888 3137 398 
Q 2709 -91 1959 -91 
Q 1206 -91 779 398 
Q 353 888 353 1747 
Q 353 2609 779 3096 
Q 1206 3584 1959 3584 
z
" transform="scale(0.015625)"/>
       <path id="DejaVuSans-6c" d="M 603 4863 
L 1178 4863 
L 1178 0 
L 603 0 
L 603 4863 
z
" transform="scale(0.015625)"/>
      </defs>
      <use xlink:href="#DejaVuSans-5b"/>
      <use xlink:href="#DejaVuSans-64" x="39.013672"/>
      <use xlink:href="#DejaVuSans-69" x="102.490234"/>
      <use xlink:href="#DejaVuSans-6d" x="130.273438"/>
      <use xlink:href="#DejaVuSans-65" x="227.685547"/>
      <use xlink:href="#DejaVuSans-6e" x="289.208984"/>
      <use xlink:href="#DejaVuSans-73" x="352.587891"/>
      <use xlink:href="#DejaVuSans-69" x="404.6875"/>
      <use xlink:href="#DejaVuSans-6f" x="432.470703"/>
      <use xlink:href="#DejaVuSans-6e" x="493.652344"/>
      <use xlink:href="#DejaVuSans-6c" x="557.03125"/>
      <use xlink:href="#DejaVuSans-65" x="584.814453"/>
      <use xlink:href="#DejaVuSans-73" x="646.337891"/>
      <use xlink:href="#DejaVuSans-73" x="698.4375"/>
      <use xlink:href="#DejaVuSans-5d" x="750.537109"/>
     </g>
    </g>
   </g>
   <g id="patch_3">
    <path d="M 45.478125 228.96 
L 45.478125 7.2 
" style="fill: none; stroke: #000000; stroke-width: 0.8; stroke-linejoin: miter; stroke-linecap: square"/>
   </g>
   <g id="patch_4">
    <path d="M 380.278125 228.96 
L 380.278125 7.2 
" style="fill: none; stroke: #000000; stroke-width: 0.8; stroke-linejoin: miter; stroke-linecap: square"/>
   </g>
   <g id="patch_5">
    <path d="M 45.478125 228.96 
L 380.278125 228.96 
" style="fill: none; stroke: #000000; stroke-width: 0.8; stroke-linejoin: miter; stroke-linecap: square"/>
   </g>
   <g id="patch_6">
    <path d="M 45.478125 7.2 
L 380.278125 7.2 
" style="fill: none; stroke: #000000; stroke-width: 0.8; stroke-linejoin: miter; stroke-linecap: square"/>
   </g>
   <g id="legend_1">
    <g id="patch_7">
     <path d="M 286.285938 73.9125 
L 373.278125 73.9125 
Q 375.278125 73.9125 375.278125 71.9125 
L 375.278125 14.2 
Q 375.278125 12.2 373.278125 12.2 
L 286.285938 12.2 
Q 284.285938 12.2 284.285938 14.2 
L 284.285938 71.9125 
Q 284.285938 73.9125 286.285938 73.9125 
z
" style="fill: #ffffff; opacity: 0.8; stroke: #cccccc; stroke-linejoin: miter"/>
    </g>
    <g id="line2d_17">
     <path d="M 288.285938 20.298437 
L 288.285938 20.298437 
L 298.285938 20.298437 
L 298.285938 20.298437 
L 308.285938 20.298437 
" style="fill: none; stroke: #1f77b4; stroke-width: 1.5; stroke-linecap: square"/>
    </g>
    <g id="text_9">
     <!-- south-west -->
     <g transform="translate(316.285938 23.798437) scale(0.1 -0.1)">
      <defs>
       <path id="DejaVuSans-75" d="M 544 1381 
L 544 3500 
L 1119 3500 
L 1119 1403 
Q 1119 906 1312 657 
Q 1506 409 1894 409 
Q 2359 409 2629 706 
Q 2900 1003 2900 1516 
L 2900 3500 
L 3475 3500 
L 3475 0 
L 2900 0 
L 2900 538 
Q 2691 219 2414 64 
Q 2138 -91 1772 -91 
Q 1169 -91 856 284 
Q 544 659 544 1381 
z
M 1991 3584 
L 1991 3584 
z
" transform="scale(0.015625)"/>
       <path id="DejaVuSans-74" d="M 1172 4494 
L 1172 3500 
L 2356 3500 
L 2356 3053 
L 1172 3053 
L 1172 1153 
Q 1172 725 1289 603 
Q 1406 481 1766 481 
L 2356 481 
L 2356 0 
L 1766 0 
Q 1100 0 847 248 
Q 594 497 594 1153 
L 594 3053 
L 172 3053 
L 172 3500 
L 594 3500 
L 594 4494 
L 1172 4494 
z
" transform="scale(0.015625)"/>
       <path id="DejaVuSans-68" d="M 3513 2113 
L 3513 0 
L 2938 0 
L 2938 2094 
Q 2938 2591 2744 2837 
Q 2550 3084 2163 3084 
Q 1697 3084 1428 2787 
Q 1159 2491 1159 1978 
L 1159 0 
L 581 0 
L 581 4863 
L 1159 4863 
L 1159 2956 
Q 1366 3272 1645 3428 
Q 1925 3584 2291 3584 
Q 2894 3584 3203 3211 
Q 3513 2838 3513 2113 
z
" transform="scale(0.015625)"/>
       <path id="DejaVuSans-2d" d="M 313 2009 
L 1997 2009 
L 1997 1497 
L 313 1497 
L 313 2009 
z
" transform="scale(0.015625)"/>
       <path id="DejaVuSans-77" d="M 269 3500 
L 844 3500 
L 1563 769 
L 2278 3500 
L 2956 3500 
L 3675 769 
L 4391 3500 
L 4966 3500 
L 4050 0 
L 3372 0 
L 2619 2869 
L 1863 0 
L 1184 0 
L 269 3500 
z
" transform="scale(0.015625)"/>
      </defs>
      <use xlink:href="#DejaVuSans-73"/>
      <use xlink:href="#DejaVuSans-6f" x="52.099609"/>
      <use xlink:href="#DejaVuSans-75" x="113.28125"/>
      <use xlink:href="#DejaVuSans-74" x="176.660156"/>
      <use xlink:href="#DejaVuSans-68" x="215.869141"/>
      <use xlink:href="#DejaVuSans-2d" x="279.248047"/>
      <use xlink:href="#DejaVuSans-77" x="315.332031"/>
      <use xlink:href="#DejaVuSans-65" x="397.119141"/>
      <use xlink:href="#DejaVuSans-73" x="458.642578"/>
      <use xlink:href="#DejaVuSans-74" x="510.742188"/>
     </g>
    </g>
    <g id="line2d_18">
     <path d="M 288.285938 34.976562 
L 288.285938 34.976562 
L 298.285938 34.976562 
L 298.285938 34.976562 
L 308.285938 34.976562 
" style="fill: none; stroke: #ff7f0e; stroke-width: 1.5; stroke-linecap: square"/>
    </g>
    <g id="text_10">
     <!-- south-east -->
     <g transform="translate(316.285938 38.476562) scale(0.1 -0.1)">
      <defs>
       <path id="DejaVuSans-61" d="M 2194 1759 
Q 1497 1759 1228 1600 
Q 959 1441 959 1056 
Q 959 750 1161 570 
Q 1363 391 1709 391 
Q 2188 391 2477 730 
Q 2766 1069 2766 1631 
L 2766 1759 
L 2194 1759 
z
M 3341 1997 
L 3341 0 
L 2766 0 
L 2766 531 
Q 2569 213 2275 61 
Q 1981 -91 1556 -91 
Q 1019 -91 701 211 
Q 384 513 384 1019 
Q 384 1609 779 1909 
Q 1175 2209 1959 2209 
L 2766 2209 
L 2766 2266 
Q 2766 2663 2505 2880 
Q 2244 3097 1772 3097 
Q 1472 3097 1187 3025 
Q 903 2953 641 2809 
L 641 3341 
Q 956 3463 1253 3523 
Q 1550 3584 1831 3584 
Q 2591 3584 2966 3190 
Q 3341 2797 3341 1997 
z
" transform="scale(0.015625)"/>
      </defs>
      <use xlink:href="#DejaVuSans-73"/>
      <use xlink:href="#DejaVuSans-6f" x="52.099609"/>
      <use xlink:href="#DejaVuSans-75" x="113.28125"/>
      <use xlink:href="#DejaVuSans-74" x="176.660156"/>
      <use xlink:href="#DejaVuSans-68" x="215.869141"/>
      <use xlink:href="#DejaVuSans-2d" x="279.248047"/>
      <use xlink:href="#DejaVuSans-65" x="315.332031"/>
      <use xlink:href="#DejaVuSans-61" x="376.855469"/>
      <use xlink:href="#DejaVuSans-73" x="438.134766"/>
      <use xlink:href="#DejaVuSans-74" x="490.234375"/>
     </g>
    </g>
    <g id="line2d_19">
     <path d="M 288.285938 49.654687 
L 288.285938 49.654687 
L 298.285938 49.654687 
L 298.285938 49.654687 
L 308.285938 49.654687 
" style="fill: none; stroke: #2ca02c; stroke-width: 1.5; stroke-linecap: square"/>
    </g>
    <g id="text_11">
     <!-- north-east -->
     <g transform="translate(316.285938 53.154687) scale(0.1 -0.1)">
      <defs>
       <path id="DejaVuSans-72" d="M 2631 2963 
Q 2534 3019 2420 3045 
Q 2306 3072 2169 3072 
Q 1681 3072 1420 2755 
Q 1159 2438 1159 1844 
L 1159 0 
L 581 0 
L 581 3500 
L 1159 3500 
L 1159 2956 
Q 1341 3275 1631 3429 
Q 1922 3584 2338 3584 
Q 2397 3584 2469 3576 
Q 2541 3569 2628 3553 
L 2631 2963 
z
" transform="scale(0.015625)"/>
      </defs>
      <use xlink:href="#DejaVuSans-6e"/>
      <use xlink:href="#DejaVuSans-6f" x="63.378906"/>
      <use xlink:href="#DejaVuSans-72" x="124.560547"/>
      <use xlink:href="#DejaVuSans-74" x="165.673828"/>
      <use xlink:href="#DejaVuSans-68" x="204.882812"/>
      <use xlink:href="#DejaVuSans-2d" x="268.261719"/>
      <use xlink:href="#DejaVuSans-65" x="304.345703"/>
      <use xlink:href="#DejaVuSans-61" x="365.869141"/>
      <use xlink:href="#DejaVuSans-73" x="427.148438"/>
      <use xlink:href="#DejaVuSans-74" x="479.248047"/>
     </g>
    </g>
    <g id="line2d_20">
     <path d="M 288.285938 64.332812 
L 288.285938 64.332812 
L 298.285938 64.332812 
L 298.285938 64.332812 
L 308.285938 64.332812 
" style="fill: none; stroke: #d62728; stroke-width: 1.5; stroke-linecap: square"/>
    </g>
    <g id="text_12">
     <!-- north-west -->
     <g transform="translate(316.285938 67.832812) scale(0.1 -0.1)">
      <use xlink:href="#DejaVuSans-6e"/>
      <use xlink:href="#DejaVuSans-6f" x="63.378906"/>
      <use xlink:href="#DejaVuSans-72" x="124.560547"/>
      <use xlink:href="#DejaVuSans-74" x="165.673828"/>
      <use xlink:href="#DejaVuSans-68" x="204.882812"/>
      <use xlink:href="#DejaVuSans-2d" x="268.261719"/>
      <use xlink:href="#DejaVuSans-77" x="304.345703"/>
      <use xlink:href="#DejaVuSans-65" x="386.132812"/>
      <use xlink:href="#DejaVuSans-73" x="447.65625"/>
      <use xlink:href="#DejaVuSans-74" x="499.755859"/>
     </g>
    </g>
   </g>
   <g id="line2d_21">
    <path d="M 60.696307 93.219381 
L 65.044359 93.219381 
L 65.044359 90.362892 
L 69.392411 90.362892 
L 69.392411 86.664636 
L 73.740463 86.664636 
L 73.740463 84.370837 
L 78.088515 84.370837 
L 78.088515 81.931408 
L 82.436567 81.931408 
L 82.436567 77.440533 
L 86.784619 77.440533 
L 86.784619 73.810754 
L 91.13267 73.810754 
L 91.13267 67.807989 
L 95.480722 67.807989 
L 95.480722 62.030084 
L 99.828774 62.030084 
L 99.828774 55.243856 
L 104.176826 55.243856 
L 104.176826 49.12913 
L 108.524878 49.12913 
L 108.524878 41.975694 
L 112.87293 41.975694 
L 112.87293 35.681755 
L 117.220982 35.681755 
L 117.220982 29.356593 
L 121.569034 29.356593 
L 121.569034 23.888166 
L 125.917086 23.888166 
L 125.917086 19.342666 
L 130.265138 19.342666 
L 130.265138 17.767665 
L 134.61319 17.767665 
L 134.61319 17.651466 
L 138.961242 17.651466 
L 138.961242 21.2794 
L 143.309294 21.2794 
L 143.309294 27.342451 
L 147.657346 27.342451 
L 147.657346 35.27623 
L 152.005398 35.27623 
L 152.005398 46.069795 
L 156.35345 46.069795 
L 156.35345 57.476087 
L 160.701502 57.476087 
L 160.701502 70.812444 
L 165.049554 70.812444 
L 165.049554 83.015366 
L 169.397606 83.015366 
L 169.397606 94.727794 
L 173.745657 94.727794 
L 173.745657 107.813275 
L 178.093709 107.813275 
L 178.093709 119.47798 
L 182.441761 119.47798 
L 182.441761 131.957597 
L 186.789813 131.957597 
L 186.789813 140.497863 
L 191.137865 140.497863 
L 191.137865 151.536647 
L 195.485917 151.536647 
L 195.485917 160.492001 
L 199.833969 160.492001 
L 199.833969 168.852904 
L 204.182021 168.852904 
L 204.182021 178.490813 
L 208.530073 178.490813 
L 208.530073 185.594625 
L 212.878125 185.594625 
L 212.878125 188.546318 
L 217.226177 188.546318 
L 217.226177 194.546948 
L 221.574229 194.546948 
L 221.574229 200.962593 
L 225.922281 200.962593 
L 225.922281 205.153773 
L 230.270333 205.153773 
L 230.270333 206.97082 
L 234.618385 206.97082 
L 234.618385 212.277167 
L 238.966437 212.277167 
L 238.966437 214.486177 
L 243.314489 214.486177 
L 243.314489 211.832995 
L 247.662541 211.832995 
L 247.662541 213.555096 
L 252.010593 213.555096 
L 252.010593 216.337202 
L 256.358644 216.337202 
L 256.358644 214.067452 
L 260.706696 214.067452 
L 260.706696 214.964747 
L 265.054748 214.964747 
L 265.054748 211.958167 
L 269.4028 211.958167 
L 269.4028 212.131578 
L 273.750852 212.131578 
L 273.750852 212.32924 
L 278.098904 212.32924 
L 278.098904 211.544639 
L 282.446956 211.544639 
L 282.446956 209.130906 
L 286.795008 209.130906 
L 286.795008 213.864546 
L 291.14306 213.864546 
L 291.14306 211.304312 
L 295.491112 211.304312 
L 295.491112 212.480075 
L 299.839164 212.480075 
L 299.839164 209.33881 
L 304.187216 209.33881 
L 304.187216 207.824927 
L 308.535268 207.824927 
L 308.535268 208.586846 
L 312.88332 208.586846 
L 312.88332 208.075515 
L 317.231372 208.075515 
L 317.231372 205.03929 
L 321.579424 205.03929 
L 321.579424 206.162711 
L 325.927476 206.162711 
L 325.927476 209.573608 
L 330.275528 209.573608 
L 330.275528 204.348442 
L 334.62358 204.348442 
L 334.62358 209.4646 
L 338.971631 209.4646 
L 338.971631 203.735473 
L 343.319683 203.735473 
L 343.319683 208.8096 
L 347.667735 208.8096 
L 347.667735 212.464967 
L 352.015787 212.464967 
L 352.015787 206.012663 
L 356.363839 206.012663 
L 356.363839 204.295421 
L 360.711891 204.295421 
L 360.711891 208.512027 
L 365.059943 208.512027 
L 365.059943 208.512027 
" clip-path="url(#p6bae4c15a6)" style="fill: none; stroke: #1f77b4; stroke-width: 1.5; stroke-linecap: square"/>
   </g>
   <g id="LineCollection_1">
    <path d="M 62.870333 93.983582 
L 62.870333 92.463444 
" clip-path="url(#p6bae4c15a6)" style="fill: none; stroke: #1f77b4; stroke-width: 1.5"/>
    <path d="M 67.218385 91.073508 
L 67.218385 89.659428 
" clip-path="url(#p6bae4c15a6)" style="fill: none; stroke: #1f77b4; stroke-width: 1.5"/>
    <path d="M 71.566437 87.333362 
L 71.566437 86.002246 
" clip-path="url(#p6bae4c15a6)" style="fill: none; stroke: #1f77b4; stroke-width: 1.5"/>
    <path d="M 75.914489 85.007885 
L 75.914489 83.739543 
" clip-path="url(#p6bae4c15a6)" style="fill: none; stroke: #1f77b4; stroke-width: 1.5"/>
    <path d="M 80.262541 82.542627 
L 80.262541 81.325487 
" clip-path="url(#p6bae4c15a6)" style="fill: none; stroke: #1f77b4; stroke-width: 1.5"/>
    <path d="M 84.610593 78.022035 
L 84.610593 76.863828 
" clip-path="url(#p6bae4c15a6)" style="fill: none; stroke: #1f77b4; stroke-width: 1.5"/>
    <path d="M 88.958644 74.369497 
L 88.958644 73.256441 
" clip-path="url(#p6bae4c15a6)" style="fill: none; stroke: #1f77b4; stroke-width: 1.5"/>
    <path d="M 93.306696 68.342274 
L 93.306696 67.277757 
" clip-path="url(#p6bae4c15a6)" style="fill: none; stroke: #1f77b4; stroke-width: 1.5"/>
    <path d="M 97.654748 62.543725 
L 97.654748 61.52019 
" clip-path="url(#p6bae4c15a6)" style="fill: none; stroke: #1f77b4; stroke-width: 1.5"/>
    <path d="M 102.0028 55.737468 
L 102.0028 54.753706 
" clip-path="url(#p6bae4c15a6)" style="fill: none; stroke: #1f77b4; stroke-width: 1.5"/>
    <path d="M 106.350852 49.605825 
L 106.350852 48.655664 
" clip-path="url(#p6bae4c15a6)" style="fill: none; stroke: #1f77b4; stroke-width: 1.5"/>
    <path d="M 110.698904 42.436451 
L 110.698904 41.517955 
" clip-path="url(#p6bae4c15a6)" style="fill: none; stroke: #1f77b4; stroke-width: 1.5"/>
    <path d="M 115.046956 36.129657 
L 115.046956 35.236704 
" clip-path="url(#p6bae4c15a6)" style="fill: none; stroke: #1f77b4; stroke-width: 1.5"/>
    <path d="M 119.395008 29.792299 
L 119.395008 28.923587 
" clip-path="url(#p6bae4c15a6)" style="fill: none; stroke: #1f77b4; stroke-width: 1.5"/>
    <path d="M 123.74306 24.315427 
L 123.74306 23.4635 
" clip-path="url(#p6bae4c15a6)" style="fill: none; stroke: #1f77b4; stroke-width: 1.5"/>
    <path d="M 128.091112 19.762711 
L 128.091112 18.925129 
" clip-path="url(#p6bae4c15a6)" style="fill: none; stroke: #1f77b4; stroke-width: 1.5"/>
    <path d="M 132.439164 18.184958 
L 132.439164 17.352849 
" clip-path="url(#p6bae4c15a6)" style="fill: none; stroke: #1f77b4; stroke-width: 1.5"/>
    <path d="M 136.787216 18.067843 
L 136.787216 17.237554 
" clip-path="url(#p6bae4c15a6)" style="fill: none; stroke: #1f77b4; stroke-width: 1.5"/>
    <path d="M 141.135268 21.698833 
L 141.135268 20.862468 
" clip-path="url(#p6bae4c15a6)" style="fill: none; stroke: #1f77b4; stroke-width: 1.5"/>
    <path d="M 145.48332 27.770589 
L 145.48332 26.916918 
" clip-path="url(#p6bae4c15a6)" style="fill: none; stroke: #1f77b4; stroke-width: 1.5"/>
    <path d="M 149.831372 35.715419 
L 149.831372 34.839783 
" clip-path="url(#p6bae4c15a6)" style="fill: none; stroke: #1f77b4; stroke-width: 1.5"/>
    <path d="M 154.179424 46.525879 
L 154.179424 45.616667 
" clip-path="url(#p6bae4c15a6)" style="fill: none; stroke: #1f77b4; stroke-width: 1.5"/>
    <path d="M 158.527476 57.953376 
L 158.527476 57.002035 
" clip-path="url(#p6bae4c15a6)" style="fill: none; stroke: #1f77b4; stroke-width: 1.5"/>
    <path d="M 162.875528 71.317452 
L 162.875528 70.311059 
" clip-path="url(#p6bae4c15a6)" style="fill: none; stroke: #1f77b4; stroke-width: 1.5"/>
    <path d="M 167.22358 83.551375 
L 167.22358 82.483435 
" clip-path="url(#p6bae4c15a6)" style="fill: none; stroke: #1f77b4; stroke-width: 1.5"/>
    <path d="M 171.571631 95.297597 
L 171.571631 94.162598 
" clip-path="url(#p6bae4c15a6)" style="fill: none; stroke: #1f77b4; stroke-width: 1.5"/>
    <path d="M 175.919683 108.427358 
L 175.919683 107.20454 
" clip-path="url(#p6bae4c15a6)" style="fill: none; stroke: #1f77b4; stroke-width: 1.5"/>
    <path d="M 180.267735 120.13719 
L 180.267735 118.824927 
" clip-path="url(#p6bae4c15a6)" style="fill: none; stroke: #1f77b4; stroke-width: 1.5"/>
    <path d="M 184.615787 132.672152 
L 184.615787 131.250272 
" clip-path="url(#p6bae4c15a6)" style="fill: none; stroke: #1f77b4; stroke-width: 1.5"/>
    <path d="M 188.963839 141.257536 
L 188.963839 139.746357 
" clip-path="url(#p6bae4c15a6)" style="fill: none; stroke: #1f77b4; stroke-width: 1.5"/>
    <path d="M 193.311891 152.359937 
L 193.311891 150.72294 
" clip-path="url(#p6bae4c15a6)" style="fill: none; stroke: #1f77b4; stroke-width: 1.5"/>
    <path d="M 197.659943 161.373996 
L 197.659943 159.620996 
" clip-path="url(#p6bae4c15a6)" style="fill: none; stroke: #1f77b4; stroke-width: 1.5"/>
    <path d="M 202.007995 169.808661 
L 202.007995 167.910038 
" clip-path="url(#p6bae4c15a6)" style="fill: none; stroke: #1f77b4; stroke-width: 1.5"/>
    <path d="M 206.356047 179.505454 
L 206.356047 177.490689 
" clip-path="url(#p6bae4c15a6)" style="fill: none; stroke: #1f77b4; stroke-width: 1.5"/>
    <path d="M 210.704099 186.681273 
L 210.704099 184.52461 
" clip-path="url(#p6bae4c15a6)" style="fill: none; stroke: #1f77b4; stroke-width: 1.5"/>
    <path d="M 215.052151 189.68071 
L 215.052151 187.430042 
" clip-path="url(#p6bae4c15a6)" style="fill: none; stroke: #1f77b4; stroke-width: 1.5"/>
    <path d="M 219.400203 195.749279 
L 219.400203 193.364947 
" clip-path="url(#p6bae4c15a6)" style="fill: none; stroke: #1f77b4; stroke-width: 1.5"/>
    <path d="M 223.748255 202.246012 
L 223.748255 199.702313 
" clip-path="url(#p6bae4c15a6)" style="fill: none; stroke: #1f77b4; stroke-width: 1.5"/>
    <path d="M 228.096307 206.498209 
L 228.096307 203.834703 
" clip-path="url(#p6bae4c15a6)" style="fill: none; stroke: #1f77b4; stroke-width: 1.5"/>
    <path d="M 232.444359 208.360649 
L 232.444359 205.608087 
" clip-path="url(#p6bae4c15a6)" style="fill: none; stroke: #1f77b4; stroke-width: 1.5"/>
    <path d="M 236.792411 213.749477 
L 236.792411 210.835228 
" clip-path="url(#p6bae4c15a6)" style="fill: none; stroke: #1f77b4; stroke-width: 1.5"/>
    <path d="M 241.140463 216.013977 
L 241.140463 212.991055 
" clip-path="url(#p6bae4c15a6)" style="fill: none; stroke: #1f77b4; stroke-width: 1.5"/>
    <path d="M 245.488515 213.368159 
L 245.488515 210.330822 
" clip-path="url(#p6bae4c15a6)" style="fill: none; stroke: #1f77b4; stroke-width: 1.5"/>
    <path d="M 249.836567 215.149684 
L 249.836567 211.996073 
" clip-path="url(#p6bae4c15a6)" style="fill: none; stroke: #1f77b4; stroke-width: 1.5"/>
    <path d="M 254.184619 217.988583 
L 254.184619 214.723934 
" clip-path="url(#p6bae4c15a6)" style="fill: none; stroke: #1f77b4; stroke-width: 1.5"/>
    <path d="M 258.53267 215.742076 
L 258.53267 212.43201 
" clip-path="url(#p6bae4c15a6)" style="fill: none; stroke: #1f77b4; stroke-width: 1.5"/>
    <path d="M 262.880722 216.691376 
L 262.880722 213.279741 
" clip-path="url(#p6bae4c15a6)" style="fill: none; stroke: #1f77b4; stroke-width: 1.5"/>
    <path d="M 267.228774 213.690095 
L 267.228774 210.268115 
" clip-path="url(#p6bae4c15a6)" style="fill: none; stroke: #1f77b4; stroke-width: 1.5"/>
    <path d="M 271.576826 213.907871 
L 271.576826 210.399306 
" clip-path="url(#p6bae4c15a6)" style="fill: none; stroke: #1f77b4; stroke-width: 1.5"/>
    <path d="M 275.924878 214.168192 
L 275.924878 210.537429 
" clip-path="url(#p6bae4c15a6)" style="fill: none; stroke: #1f77b4; stroke-width: 1.5"/>
    <path d="M 280.27293 213.426795 
L 280.27293 209.711834 
" clip-path="url(#p6bae4c15a6)" style="fill: none; stroke: #1f77b4; stroke-width: 1.5"/>
    <path d="M 284.620982 211.044394 
L 284.620982 207.268404 
" clip-path="url(#p6bae4c15a6)" style="fill: none; stroke: #1f77b4; stroke-width: 1.5"/>
    <path d="M 288.969034 215.880756 
L 288.969034 211.904863 
" clip-path="url(#p6bae4c15a6)" style="fill: none; stroke: #1f77b4; stroke-width: 1.5"/>
    <path d="M 293.317086 213.366955 
L 293.317086 209.300792 
" clip-path="url(#p6bae4c15a6)" style="fill: none; stroke: #1f77b4; stroke-width: 1.5"/>
    <path d="M 297.665138 214.610144 
L 297.665138 210.412998 
" clip-path="url(#p6bae4c15a6)" style="fill: none; stroke: #1f77b4; stroke-width: 1.5"/>
    <path d="M 302.01319 211.512524 
L 302.01319 207.230657 
" clip-path="url(#p6bae4c15a6)" style="fill: none; stroke: #1f77b4; stroke-width: 1.5"/>
    <path d="M 306.361242 210.033412 
L 306.361242 205.684084 
" clip-path="url(#p6bae4c15a6)" style="fill: none; stroke: #1f77b4; stroke-width: 1.5"/>
    <path d="M 310.709294 210.917157 
L 310.709294 206.331719 
" clip-path="url(#p6bae4c15a6)" style="fill: none; stroke: #1f77b4; stroke-width: 1.5"/>
    <path d="M 315.057346 210.450381 
L 315.057346 205.778689 
" clip-path="url(#p6bae4c15a6)" style="fill: none; stroke: #1f77b4; stroke-width: 1.5"/>
    <path d="M 319.405398 207.472609 
L 319.405398 202.687837 
" clip-path="url(#p6bae4c15a6)" style="fill: none; stroke: #1f77b4; stroke-width: 1.5"/>
    <path d="M 323.75345 208.719285 
L 323.75345 203.696345 
" clip-path="url(#p6bae4c15a6)" style="fill: none; stroke: #1f77b4; stroke-width: 1.5"/>
    <path d="M 328.101502 212.239053 
L 328.101502 207.006077 
" clip-path="url(#p6bae4c15a6)" style="fill: none; stroke: #1f77b4; stroke-width: 1.5"/>
    <path d="M 332.449554 207.130115 
L 332.449554 201.673238 
" clip-path="url(#p6bae4c15a6)" style="fill: none; stroke: #1f77b4; stroke-width: 1.5"/>
    <path d="M 336.797606 212.357459 
L 336.797606 206.686717 
" clip-path="url(#p6bae4c15a6)" style="fill: none; stroke: #1f77b4; stroke-width: 1.5"/>
    <path d="M 341.145657 206.698303 
L 341.145657 200.893133 
" clip-path="url(#p6bae4c15a6)" style="fill: none; stroke: #1f77b4; stroke-width: 1.5"/>
    <path d="M 345.493709 212.068528 
L 345.493709 205.695863 
" clip-path="url(#p6bae4c15a6)" style="fill: none; stroke: #1f77b4; stroke-width: 1.5"/>
    <path d="M 349.841761 215.866971 
L 349.841761 209.220875 
" clip-path="url(#p6bae4c15a6)" style="fill: none; stroke: #1f77b4; stroke-width: 1.5"/>
    <path d="M 354.189813 209.478785 
L 354.189813 202.710319 
" clip-path="url(#p6bae4c15a6)" style="fill: none; stroke: #1f77b4; stroke-width: 1.5"/>
    <path d="M 358.537865 207.961544 
L 358.537865 200.812028 
" clip-path="url(#p6bae4c15a6)" style="fill: none; stroke: #1f77b4; stroke-width: 1.5"/>
    <path d="M 362.885917 212.36056 
L 362.885917 204.864366 
" clip-path="url(#p6bae4c15a6)" style="fill: none; stroke: #1f77b4; stroke-width: 1.5"/>
   </g>
   <g id="line2d_22">
    <path d="M 60.696307 95.457966 
L 65.044359 95.457966 
L 65.044359 90.091594 
L 69.392411 90.091594 
L 69.392411 87.710246 
L 73.740463 87.710246 
L 73.740463 84.409138 
L 78.088515 84.409138 
L 78.088515 82.364545 
L 82.436567 82.364545 
L 82.436567 77.632609 
L 86.784619 77.632609 
L 86.784619 73.857985 
L 91.13267 73.857985 
L 91.13267 68.271642 
L 95.480722 68.271642 
L 95.480722 62.656963 
L 99.828774 62.656963 
L 99.828774 56.505967 
L 104.176826 56.505967 
L 104.176826 49.6037 
L 108.524878 49.6037 
L 108.524878 42.513106 
L 112.87293 42.513106 
L 112.87293 36.375886 
L 117.220982 36.375886 
L 117.220982 30.214715 
L 121.569034 30.214715 
L 121.569034 24.563152 
L 125.917086 24.563152 
L 125.917086 20.4226 
L 130.265138 20.4226 
L 130.265138 18.128551 
L 134.61319 18.128551 
L 134.61319 18.445059 
L 138.961242 18.445059 
L 138.961242 20.293634 
L 143.309294 20.293634 
L 143.309294 26.274867 
L 147.657346 26.274867 
L 147.657346 34.193079 
L 152.005398 34.193079 
L 152.005398 44.20165 
L 156.35345 44.20165 
L 156.35345 55.07542 
L 160.701502 55.07542 
L 160.701502 67.655004 
L 165.049554 67.655004 
L 165.049554 80.142561 
L 169.397606 80.142561 
L 169.397606 92.704939 
L 173.745657 92.704939 
L 173.745657 105.806581 
L 178.093709 105.806581 
L 178.093709 117.222422 
L 182.441761 117.222422 
L 182.441761 129.582129 
L 186.789813 129.582129 
L 186.789813 141.067534 
L 191.137865 141.067534 
L 191.137865 150.374634 
L 195.485917 150.374634 
L 195.485917 158.904422 
L 199.833969 158.904422 
L 199.833969 166.862791 
L 204.182021 166.862791 
L 204.182021 179.187696 
L 208.530073 179.187696 
L 208.530073 182.8932 
L 212.878125 182.8932 
L 212.878125 190.268807 
L 217.226177 190.268807 
L 217.226177 193.909995 
L 221.574229 193.909995 
L 221.574229 200.627435 
L 225.922281 200.627435 
L 225.922281 203.572212 
L 230.270333 203.572212 
L 230.270333 206.696343 
L 234.618385 206.696343 
L 234.618385 210.202484 
L 243.314489 210.129497 
L 243.314489 211.944982 
L 247.662541 211.944982 
L 247.662541 213.262311 
L 252.010593 213.262311 
L 252.010593 214.544056 
L 256.358644 214.544056 
L 256.358644 214.306163 
L 260.706696 214.306163 
L 260.706696 216.175073 
L 265.054748 216.175073 
L 265.054748 212.393187 
L 269.4028 212.393187 
L 269.4028 214.458548 
L 273.750852 214.458548 
L 273.750852 213.553141 
L 278.098904 213.553141 
L 278.098904 212.188314 
L 282.446956 212.188314 
L 282.446956 211.597344 
L 286.795008 211.597344 
L 286.795008 215.489387 
L 291.14306 215.489387 
L 291.14306 213.619897 
L 295.491112 213.619897 
L 295.491112 211.387445 
L 299.839164 211.387445 
L 299.839164 213.94623 
L 304.187216 213.94623 
L 304.187216 209.658788 
L 308.535268 209.658788 
L 308.535268 206.137265 
L 312.88332 206.137265 
L 312.88332 208.403342 
L 317.231372 208.403342 
L 317.231372 206.415923 
L 321.579424 206.415923 
L 321.579424 209.634425 
L 325.927476 209.634425 
L 325.927476 202.647369 
L 330.275528 202.647369 
L 330.275528 206.110443 
L 334.62358 206.110443 
L 334.62358 208.960366 
L 338.971631 208.960366 
L 338.971631 205.353181 
L 343.319683 205.353181 
L 343.319683 205.679028 
L 347.667735 205.679028 
L 347.667735 204.304933 
L 352.015787 204.304933 
L 352.015787 208.964249 
L 356.363839 208.964249 
L 356.363839 205.574866 
L 360.711891 205.574866 
L 360.711891 202.475449 
L 365.059943 202.475449 
L 365.059943 202.475449 
" clip-path="url(#p6bae4c15a6)" style="fill: none; stroke: #ff7f0e; stroke-width: 1.5; stroke-linecap: square"/>
   </g>
   <g id="LineCollection_2">
    <path d="M 62.870333 96.23414 
L 62.870333 94.690317 
" clip-path="url(#p6bae4c15a6)" style="fill: none; stroke: #ff7f0e; stroke-width: 1.5"/>
    <path d="M 67.218385 90.802405 
L 67.218385 89.387939 
" clip-path="url(#p6bae4c15a6)" style="fill: none; stroke: #ff7f0e; stroke-width: 1.5"/>
    <path d="M 71.566437 88.381419 
L 71.566437 87.045456 
" clip-path="url(#p6bae4c15a6)" style="fill: none; stroke: #ff7f0e; stroke-width: 1.5"/>
    <path d="M 75.914489 85.046944 
L 75.914489 83.7771 
" clip-path="url(#p6bae4c15a6)" style="fill: none; stroke: #ff7f0e; stroke-width: 1.5"/>
    <path d="M 80.262541 82.977141 
L 80.262541 81.757272 
" clip-path="url(#p6bae4c15a6)" style="fill: none; stroke: #ff7f0e; stroke-width: 1.5"/>
    <path d="M 84.610593 78.215299 
L 84.610593 77.054735 
" clip-path="url(#p6bae4c15a6)" style="fill: none; stroke: #ff7f0e; stroke-width: 1.5"/>
    <path d="M 88.958644 74.415242 
L 88.958644 73.305134 
" clip-path="url(#p6bae4c15a6)" style="fill: none; stroke: #ff7f0e; stroke-width: 1.5"/>
    <path d="M 93.306696 68.807746 
L 93.306696 67.739617 
" clip-path="url(#p6bae4c15a6)" style="fill: none; stroke: #ff7f0e; stroke-width: 1.5"/>
    <path d="M 97.654748 63.172195 
L 97.654748 62.145501 
" clip-path="url(#p6bae4c15a6)" style="fill: none; stroke: #ff7f0e; stroke-width: 1.5"/>
    <path d="M 102.0028 57.001563 
L 102.0028 56.01386 
" clip-path="url(#p6bae4c15a6)" style="fill: none; stroke: #ff7f0e; stroke-width: 1.5"/>
    <path d="M 106.350852 50.08123 
L 106.350852 49.12941 
" clip-path="url(#p6bae4c15a6)" style="fill: none; stroke: #ff7f0e; stroke-width: 1.5"/>
    <path d="M 110.698904 42.974658 
L 110.698904 42.054581 
" clip-path="url(#p6bae4c15a6)" style="fill: none; stroke: #ff7f0e; stroke-width: 1.5"/>
    <path d="M 115.046956 36.8249 
L 115.046956 35.929739 
" clip-path="url(#p6bae4c15a6)" style="fill: none; stroke: #ff7f0e; stroke-width: 1.5"/>
    <path d="M 119.395008 30.651231 
L 119.395008 29.780908 
" clip-path="url(#p6bae4c15a6)" style="fill: none; stroke: #ff7f0e; stroke-width: 1.5"/>
    <path d="M 123.74306 24.991435 
L 123.74306 24.137477 
" clip-path="url(#p6bae4c15a6)" style="fill: none; stroke: #ff7f0e; stroke-width: 1.5"/>
    <path d="M 128.091112 20.844028 
L 128.091112 20.003697 
" clip-path="url(#p6bae4c15a6)" style="fill: none; stroke: #ff7f0e; stroke-width: 1.5"/>
    <path d="M 132.439164 18.546046 
L 132.439164 17.713535 
" clip-path="url(#p6bae4c15a6)" style="fill: none; stroke: #ff7f0e; stroke-width: 1.5"/>
    <path d="M 136.787216 18.861948 
L 136.787216 18.030642 
" clip-path="url(#p6bae4c15a6)" style="fill: none; stroke: #ff7f0e; stroke-width: 1.5"/>
    <path d="M 141.135268 20.713091 
L 141.135268 19.876678 
" clip-path="url(#p6bae4c15a6)" style="fill: none; stroke: #ff7f0e; stroke-width: 1.5"/>
    <path d="M 145.48332 26.700625 
L 145.48332 25.851686 
" clip-path="url(#p6bae4c15a6)" style="fill: none; stroke: #ff7f0e; stroke-width: 1.5"/>
    <path d="M 149.831372 34.630182 
L 149.831372 33.758693 
" clip-path="url(#p6bae4c15a6)" style="fill: none; stroke: #ff7f0e; stroke-width: 1.5"/>
    <path d="M 154.179424 44.654396 
L 154.179424 43.751818 
" clip-path="url(#p6bae4c15a6)" style="fill: none; stroke: #ff7f0e; stroke-width: 1.5"/>
    <path d="M 158.527476 55.548098 
L 158.527476 54.605917 
" clip-path="url(#p6bae4c15a6)" style="fill: none; stroke: #ff7f0e; stroke-width: 1.5"/>
    <path d="M 162.875528 68.153221 
L 162.875528 67.160312 
" clip-path="url(#p6bae4c15a6)" style="fill: none; stroke: #ff7f0e; stroke-width: 1.5"/>
    <path d="M 167.22358 80.67159 
L 167.22358 79.617505 
" clip-path="url(#p6bae4c15a6)" style="fill: none; stroke: #ff7f0e; stroke-width: 1.5"/>
    <path d="M 171.571631 93.26917 
L 171.571631 92.145226 
" clip-path="url(#p6bae4c15a6)" style="fill: none; stroke: #ff7f0e; stroke-width: 1.5"/>
    <path d="M 175.919683 106.412948 
L 175.919683 105.205428 
" clip-path="url(#p6bae4c15a6)" style="fill: none; stroke: #ff7f0e; stroke-width: 1.5"/>
    <path d="M 180.267735 117.87222 
L 180.267735 116.578609 
" clip-path="url(#p6bae4c15a6)" style="fill: none; stroke: #ff7f0e; stroke-width: 1.5"/>
    <path d="M 184.615787 130.286019 
L 184.615787 128.885256 
" clip-path="url(#p6bae4c15a6)" style="fill: none; stroke: #ff7f0e; stroke-width: 1.5"/>
    <path d="M 188.963839 141.8275 
L 188.963839 140.315741 
" clip-path="url(#p6bae4c15a6)" style="fill: none; stroke: #ff7f0e; stroke-width: 1.5"/>
    <path d="M 193.311891 151.189134 
L 193.311891 149.569515 
" clip-path="url(#p6bae4c15a6)" style="fill: none; stroke: #ff7f0e; stroke-width: 1.5"/>
    <path d="M 197.659943 159.776302 
L 197.659943 158.043283 
" clip-path="url(#p6bae4c15a6)" style="fill: none; stroke: #ff7f0e; stroke-width: 1.5"/>
    <path d="M 202.007995 167.808516 
L 202.007995 165.92969 
" clip-path="url(#p6bae4c15a6)" style="fill: none; stroke: #ff7f0e; stroke-width: 1.5"/>
    <path d="M 206.356047 180.200179 
L 206.356047 178.189668 
" clip-path="url(#p6bae4c15a6)" style="fill: none; stroke: #ff7f0e; stroke-width: 1.5"/>
    <path d="M 210.704099 183.955587 
L 210.704099 181.846718 
" clip-path="url(#p6bae4c15a6)" style="fill: none; stroke: #ff7f0e; stroke-width: 1.5"/>
    <path d="M 215.052151 191.414178 
L 215.052151 189.1419 
" clip-path="url(#p6bae4c15a6)" style="fill: none; stroke: #ff7f0e; stroke-width: 1.5"/>
    <path d="M 219.400203 195.101363 
L 219.400203 192.738592 
" clip-path="url(#p6bae4c15a6)" style="fill: none; stroke: #ff7f0e; stroke-width: 1.5"/>
    <path d="M 223.748255 201.901914 
L 223.748255 199.375777 
" clip-path="url(#p6bae4c15a6)" style="fill: none; stroke: #ff7f0e; stroke-width: 1.5"/>
    <path d="M 228.096307 204.900092 
L 228.096307 202.269087 
" clip-path="url(#p6bae4c15a6)" style="fill: none; stroke: #ff7f0e; stroke-width: 1.5"/>
    <path d="M 232.444359 208.079214 
L 232.444359 205.340298 
" clip-path="url(#p6bae4c15a6)" style="fill: none; stroke: #ff7f0e; stroke-width: 1.5"/>
    <path d="M 236.792411 211.645867 
L 236.792411 208.788302 
" clip-path="url(#p6bae4c15a6)" style="fill: none; stroke: #ff7f0e; stroke-width: 1.5"/>
    <path d="M 241.140463 211.611095 
L 241.140463 208.678652 
" clip-path="url(#p6bae4c15a6)" style="fill: none; stroke: #ff7f0e; stroke-width: 1.5"/>
    <path d="M 245.488515 213.47238 
L 245.488515 210.450246 
" clip-path="url(#p6bae4c15a6)" style="fill: none; stroke: #ff7f0e; stroke-width: 1.5"/>
    <path d="M 249.836567 214.839801 
L 249.836567 211.719635 
" clip-path="url(#p6bae4c15a6)" style="fill: none; stroke: #ff7f0e; stroke-width: 1.5"/>
    <path d="M 254.184619 216.178816 
L 254.184619 212.946655 
" clip-path="url(#p6bae4c15a6)" style="fill: none; stroke: #ff7f0e; stroke-width: 1.5"/>
    <path d="M 258.53267 215.971332 
L 258.53267 212.679739 
" clip-path="url(#p6bae4c15a6)" style="fill: none; stroke: #ff7f0e; stroke-width: 1.5"/>
    <path d="M 262.880722 217.903405 
L 262.880722 214.488444 
" clip-path="url(#p6bae4c15a6)" style="fill: none; stroke: #ff7f0e; stroke-width: 1.5"/>
    <path d="M 267.228774 214.124711 
L 267.228774 210.703519 
" clip-path="url(#p6bae4c15a6)" style="fill: none; stroke: #ff7f0e; stroke-width: 1.5"/>
    <path d="M 271.576826 216.261487 
L 271.576826 212.700943 
" clip-path="url(#p6bae4c15a6)" style="fill: none; stroke: #ff7f0e; stroke-width: 1.5"/>
    <path d="M 275.924878 215.390495 
L 275.924878 211.762846 
" clip-path="url(#p6bae4c15a6)" style="fill: none; stroke: #ff7f0e; stroke-width: 1.5"/>
    <path d="M 280.27293 214.070412 
L 280.27293 210.355564 
" clip-path="url(#p6bae4c15a6)" style="fill: none; stroke: #ff7f0e; stroke-width: 1.5"/>
    <path d="M 284.620982 213.530074 
L 284.620982 209.716617 
" clip-path="url(#p6bae4c15a6)" style="fill: none; stroke: #ff7f0e; stroke-width: 1.5"/>
    <path d="M 288.969034 217.511273 
L 288.969034 213.524342 
" clip-path="url(#p6bae4c15a6)" style="fill: none; stroke: #ff7f0e; stroke-width: 1.5"/>
    <path d="M 293.317086 215.702738 
L 293.317086 211.597326 
" clip-path="url(#p6bae4c15a6)" style="fill: none; stroke: #ff7f0e; stroke-width: 1.5"/>
    <path d="M 297.665138 213.493093 
L 297.665138 209.343373 
" clip-path="url(#p6bae4c15a6)" style="fill: none; stroke: #ff7f0e; stroke-width: 1.5"/>
    <path d="M 302.01319 216.165547 
L 302.01319 211.79521 
" clip-path="url(#p6bae4c15a6)" style="fill: none; stroke: #ff7f0e; stroke-width: 1.5"/>
    <path d="M 306.361242 211.890527 
L 306.361242 207.496101 
" clip-path="url(#p6bae4c15a6)" style="fill: none; stroke: #ff7f0e; stroke-width: 1.5"/>
    <path d="M 310.709294 208.406613 
L 310.709294 203.939284 
" clip-path="url(#p6bae4c15a6)" style="fill: none; stroke: #ff7f0e; stroke-width: 1.5"/>
    <path d="M 315.057346 210.773426 
L 315.057346 206.110988 
" clip-path="url(#p6bae4c15a6)" style="fill: none; stroke: #ff7f0e; stroke-width: 1.5"/>
    <path d="M 319.405398 208.839522 
L 319.405398 204.073543 
" clip-path="url(#p6bae4c15a6)" style="fill: none; stroke: #ff7f0e; stroke-width: 1.5"/>
    <path d="M 323.75345 212.196686 
L 323.75345 207.16277 
" clip-path="url(#p6bae4c15a6)" style="fill: none; stroke: #ff7f0e; stroke-width: 1.5"/>
    <path d="M 328.101502 205.233013 
L 328.101502 200.153963 
" clip-path="url(#p6bae4c15a6)" style="fill: none; stroke: #ff7f0e; stroke-width: 1.5"/>
    <path d="M 332.449554 208.832364 
L 332.449554 203.490545 
" clip-path="url(#p6bae4c15a6)" style="fill: none; stroke: #ff7f0e; stroke-width: 1.5"/>
    <path d="M 336.797606 211.859477 
L 336.797606 206.176719 
" clip-path="url(#p6bae4c15a6)" style="fill: none; stroke: #ff7f0e; stroke-width: 1.5"/>
    <path d="M 341.145657 208.325217 
L 341.145657 202.502373 
" clip-path="url(#p6bae4c15a6)" style="fill: none; stroke: #ff7f0e; stroke-width: 1.5"/>
    <path d="M 345.493709 208.760509 
L 345.493709 202.727669 
" clip-path="url(#p6bae4c15a6)" style="fill: none; stroke: #ff7f0e; stroke-width: 1.5"/>
    <path d="M 349.841761 207.545758 
L 349.841761 201.207725 
" clip-path="url(#p6bae4c15a6)" style="fill: none; stroke: #ff7f0e; stroke-width: 1.5"/>
    <path d="M 354.189813 212.500964 
L 354.189813 205.597888 
" clip-path="url(#p6bae4c15a6)" style="fill: none; stroke: #ff7f0e; stroke-width: 1.5"/>
    <path d="M 358.537865 209.18323 
L 358.537865 202.14366 
" clip-path="url(#p6bae4c15a6)" style="fill: none; stroke: #ff7f0e; stroke-width: 1.5"/>
    <path d="M 362.885917 206.173225 
L 362.885917 198.963492 
" clip-path="url(#p6bae4c15a6)" style="fill: none; stroke: #ff7f0e; stroke-width: 1.5"/>
   </g>
   <g id="line2d_23">
    <path d="M 60.696307 97.99949 
L 65.044359 97.99949 
L 65.044359 95.200514 
L 69.392411 95.200514 
L 69.392411 91.242672 
L 73.740463 91.242672 
L 73.740463 87.430237 
L 78.088515 87.430237 
L 78.088515 84.78265 
L 82.436567 84.78265 
L 82.436567 80.97181 
L 86.784619 80.97181 
L 86.784619 75.858819 
L 91.13267 75.858819 
L 91.13267 69.750598 
L 95.480722 69.750598 
L 95.480722 63.538053 
L 99.828774 63.538053 
L 99.828774 57.942958 
L 104.176826 57.942958 
L 104.176826 51.623356 
L 108.524878 51.623356 
L 108.524878 44.2722 
L 112.87293 44.2722 
L 112.87293 37.259288 
L 117.220982 37.259288 
L 117.220982 30.576029 
L 121.569034 30.576029 
L 121.569034 25.513979 
L 125.917086 25.513979 
L 125.917086 21.293226 
L 130.265138 21.293226 
L 130.265138 18.961722 
L 134.61319 18.961722 
L 134.61319 18.717077 
L 138.961242 18.717077 
L 138.961242 21.358789 
L 143.309294 21.358789 
L 143.309294 27.480089 
L 147.657346 27.480089 
L 147.657346 35.183204 
L 152.005398 35.183204 
L 152.005398 45.76051 
L 156.35345 45.76051 
L 156.35345 56.820333 
L 160.701502 56.820333 
L 160.701502 69.767595 
L 165.049554 69.767595 
L 165.049554 82.106065 
L 169.397606 82.106065 
L 169.397606 93.572281 
L 173.745657 93.572281 
L 173.745657 106.743091 
L 178.093709 106.743091 
L 178.093709 120.383396 
L 182.441761 120.383396 
L 182.441761 130.291316 
L 186.789813 130.291316 
L 186.789813 141.627719 
L 191.137865 141.627719 
L 191.137865 152.664505 
L 195.485917 152.664505 
L 195.485917 160.373344 
L 199.833969 160.373344 
L 199.833969 167.773026 
L 204.182021 167.773026 
L 204.182021 178.54387 
L 208.530073 178.54387 
L 208.530073 183.760855 
L 212.878125 183.760855 
L 212.878125 192.743681 
L 217.226177 192.743681 
L 217.226177 197.542441 
L 221.574229 197.542441 
L 221.574229 201.801868 
L 225.922281 201.801868 
L 225.922281 204.215225 
L 230.270333 204.215225 
L 230.270333 208.965781 
L 234.618385 208.965781 
L 234.618385 211.537204 
L 238.966437 211.537204 
L 238.966437 213.964455 
L 243.314489 213.964455 
L 243.314489 214.616362 
L 247.662541 214.616362 
L 247.662541 216.609045 
L 252.010593 216.609045 
L 252.010593 215.852877 
L 256.358644 215.852877 
L 256.358644 217.226937 
L 260.706696 217.226937 
L 260.706696 217.018665 
L 265.054748 217.018665 
L 265.054748 214.767756 
L 269.4028 214.767756 
L 269.4028 214.251618 
L 273.750852 214.251618 
L 273.750852 211.584757 
L 278.098904 211.584757 
L 278.098904 214.720679 
L 282.446956 214.720679 
L 282.446956 212.659905 
L 286.795008 212.659905 
L 286.795008 210.356431 
L 291.14306 210.356431 
L 291.14306 211.488158 
L 295.491112 211.488158 
L 295.491112 213.937235 
L 299.839164 213.937235 
L 299.839164 208.976294 
L 304.187216 208.976294 
L 304.187216 211.55927 
L 308.535268 211.55927 
L 308.535268 208.769362 
L 312.88332 208.769362 
L 312.88332 211.626554 
L 317.231372 211.626554 
L 317.231372 203.742156 
L 321.579424 203.742156 
L 321.579424 211.181799 
L 325.927476 211.181799 
L 325.927476 208.218603 
L 330.275528 208.218603 
L 330.275528 202.60235 
L 334.62358 202.60235 
L 334.62358 214.510605 
L 338.971631 214.510605 
L 338.971631 209.252706 
L 343.319683 209.252706 
L 343.319683 208.859012 
L 347.667735 208.859012 
L 347.667735 207.540953 
L 352.015787 207.540953 
L 352.015787 201.372279 
L 356.363839 201.372279 
L 356.363839 203.08659 
L 360.711891 203.08659 
L 360.711891 208.393937 
L 365.059943 208.393937 
L 365.059943 208.393937 
" clip-path="url(#p6bae4c15a6)" style="fill: none; stroke: #2ca02c; stroke-width: 1.5; stroke-linecap: square"/>
   </g>
   <g id="LineCollection_3">
    <path d="M 62.870333 98.814009 
L 62.870333 97.194354 
" clip-path="url(#p6bae4c15a6)" style="fill: none; stroke: #2ca02c; stroke-width: 1.5"/>
    <path d="M 67.218385 95.949209 
L 67.218385 94.459752 
" clip-path="url(#p6bae4c15a6)" style="fill: none; stroke: #2ca02c; stroke-width: 1.5"/>
    <path d="M 71.566437 91.939797 
L 71.566437 90.55243 
" clip-path="url(#p6bae4c15a6)" style="fill: none; stroke: #2ca02c; stroke-width: 1.5"/>
    <path d="M 75.914489 88.087736 
L 75.914489 86.778865 
" clip-path="url(#p6bae4c15a6)" style="fill: none; stroke: #2ca02c; stroke-width: 1.5"/>
    <path d="M 80.262541 85.409743 
L 80.262541 84.161132 
" clip-path="url(#p6bae4c15a6)" style="fill: none; stroke: #2ca02c; stroke-width: 1.5"/>
    <path d="M 84.610593 81.569349 
L 84.610593 80.379335 
" clip-path="url(#p6bae4c15a6)" style="fill: none; stroke: #2ca02c; stroke-width: 1.5"/>
    <path d="M 88.958644 76.427675 
L 88.958644 75.294554 
" clip-path="url(#p6bae4c15a6)" style="fill: none; stroke: #2ca02c; stroke-width: 1.5"/>
    <path d="M 93.306696 70.293434 
L 93.306696 69.211944 
" clip-path="url(#p6bae4c15a6)" style="fill: none; stroke: #2ca02c; stroke-width: 1.5"/>
    <path d="M 97.654748 64.05797 
L 97.654748 63.021974 
" clip-path="url(#p6bae4c15a6)" style="fill: none; stroke: #2ca02c; stroke-width: 1.5"/>
    <path d="M 102.0028 58.443979 
L 102.0028 57.445504 
" clip-path="url(#p6bae4c15a6)" style="fill: none; stroke: #2ca02c; stroke-width: 1.5"/>
    <path d="M 106.350852 52.106658 
L 106.350852 51.143372 
" clip-path="url(#p6bae4c15a6)" style="fill: none; stroke: #2ca02c; stroke-width: 1.5"/>
    <path d="M 110.698904 44.73847 
L 110.698904 43.80902 
" clip-path="url(#p6bae4c15a6)" style="fill: none; stroke: #2ca02c; stroke-width: 1.5"/>
    <path d="M 115.046956 37.710517 
L 115.046956 36.810953 
" clip-path="url(#p6bae4c15a6)" style="fill: none; stroke: #2ca02c; stroke-width: 1.5"/>
    <path d="M 119.395008 31.015355 
L 119.395008 30.139446 
" clip-path="url(#p6bae4c15a6)" style="fill: none; stroke: #2ca02c; stroke-width: 1.5"/>
    <path d="M 123.74306 25.943795 
L 123.74306 25.08679 
" clip-path="url(#p6bae4c15a6)" style="fill: none; stroke: #2ca02c; stroke-width: 1.5"/>
    <path d="M 128.091112 21.716248 
L 128.091112 20.872748 
" clip-path="url(#p6bae4c15a6)" style="fill: none; stroke: #2ca02c; stroke-width: 1.5"/>
    <path d="M 132.439164 19.380212 
L 132.439164 18.545723 
" clip-path="url(#p6bae4c15a6)" style="fill: none; stroke: #2ca02c; stroke-width: 1.5"/>
    <path d="M 136.787216 19.13521 
L 136.787216 18.301431 
" clip-path="url(#p6bae4c15a6)" style="fill: none; stroke: #2ca02c; stroke-width: 1.5"/>
    <path d="M 141.135268 21.779542 
L 141.135268 20.940553 
" clip-path="url(#p6bae4c15a6)" style="fill: none; stroke: #2ca02c; stroke-width: 1.5"/>
    <path d="M 145.48332 27.907124 
L 145.48332 27.055646 
" clip-path="url(#p6bae4c15a6)" style="fill: none; stroke: #2ca02c; stroke-width: 1.5"/>
    <path d="M 149.831372 35.622309 
L 149.831372 34.746841 
" clip-path="url(#p6bae4c15a6)" style="fill: none; stroke: #2ca02c; stroke-width: 1.5"/>
    <path d="M 154.179424 46.215694 
L 154.179424 45.308272 
" clip-path="url(#p6bae4c15a6)" style="fill: none; stroke: #2ca02c; stroke-width: 1.5"/>
    <path d="M 158.527476 57.296336 
L 158.527476 56.34755 
" clip-path="url(#p6bae4c15a6)" style="fill: none; stroke: #2ca02c; stroke-width: 1.5"/>
    <path d="M 162.875528 70.27073 
L 162.875528 69.268056 
" clip-path="url(#p6bae4c15a6)" style="fill: none; stroke: #2ca02c; stroke-width: 1.5"/>
    <path d="M 167.22358 82.639739 
L 167.22358 81.576435 
" clip-path="url(#p6bae4c15a6)" style="fill: none; stroke: #2ca02c; stroke-width: 1.5"/>
    <path d="M 171.571631 94.13994 
L 171.571631 93.009194 
" clip-path="url(#p6bae4c15a6)" style="fill: none; stroke: #2ca02c; stroke-width: 1.5"/>
    <path d="M 175.919683 107.352956 
L 175.919683 106.1385 
" clip-path="url(#p6bae4c15a6)" style="fill: none; stroke: #2ca02c; stroke-width: 1.5"/>
    <path d="M 180.267735 121.04564 
L 180.267735 119.727367 
" clip-path="url(#p6bae4c15a6)" style="fill: none; stroke: #2ca02c; stroke-width: 1.5"/>
    <path d="M 184.615787 130.99868 
L 184.615787 129.591038 
" clip-path="url(#p6bae4c15a6)" style="fill: none; stroke: #2ca02c; stroke-width: 1.5"/>
    <path d="M 188.963839 142.393751 
L 188.963839 140.86999 
" clip-path="url(#p6bae4c15a6)" style="fill: none; stroke: #2ca02c; stroke-width: 1.5"/>
    <path d="M 193.311891 153.490007 
L 193.311891 151.848638 
" clip-path="url(#p6bae4c15a6)" style="fill: none; stroke: #2ca02c; stroke-width: 1.5"/>
    <path d="M 197.659943 161.257478 
L 197.659943 159.500254 
" clip-path="url(#p6bae4c15a6)" style="fill: none; stroke: #2ca02c; stroke-width: 1.5"/>
    <path d="M 202.007995 168.71922 
L 202.007995 166.839468 
" clip-path="url(#p6bae4c15a6)" style="fill: none; stroke: #2ca02c; stroke-width: 1.5"/>
    <path d="M 206.356047 179.556171 
L 206.356047 177.546019 
" clip-path="url(#p6bae4c15a6)" style="fill: none; stroke: #2ca02c; stroke-width: 1.5"/>
    <path d="M 210.704099 184.835772 
L 210.704099 182.702218 
" clip-path="url(#p6bae4c15a6)" style="fill: none; stroke: #2ca02c; stroke-width: 1.5"/>
    <path d="M 215.052151 193.906929 
L 215.052151 191.599474 
" clip-path="url(#p6bae4c15a6)" style="fill: none; stroke: #2ca02c; stroke-width: 1.5"/>
    <path d="M 219.400203 198.764717 
L 219.400203 196.341171 
" clip-path="url(#p6bae4c15a6)" style="fill: none; stroke: #2ca02c; stroke-width: 1.5"/>
    <path d="M 223.748255 203.088646 
L 223.748255 200.538349 
" clip-path="url(#p6bae4c15a6)" style="fill: none; stroke: #2ca02c; stroke-width: 1.5"/>
    <path d="M 228.096307 205.548757 
L 228.096307 202.906661 
" clip-path="url(#p6bae4c15a6)" style="fill: none; stroke: #2ca02c; stroke-width: 1.5"/>
    <path d="M 232.444359 210.368794 
L 232.444359 207.590374 
" clip-path="url(#p6bae4c15a6)" style="fill: none; stroke: #2ca02c; stroke-width: 1.5"/>
    <path d="M 236.792411 212.999528 
L 236.792411 210.104844 
" clip-path="url(#p6bae4c15a6)" style="fill: none; stroke: #2ca02c; stroke-width: 1.5"/>
    <path d="M 241.140463 215.485482 
L 241.140463 212.475821 
" clip-path="url(#p6bae4c15a6)" style="fill: none; stroke: #2ca02c; stroke-width: 1.5"/>
    <path d="M 245.488515 216.173843 
L 245.488515 213.092828 
" clip-path="url(#p6bae4c15a6)" style="fill: none; stroke: #2ca02c; stroke-width: 1.5"/>
    <path d="M 249.836567 218.225189 
L 249.836567 215.029424 
" clip-path="url(#p6bae4c15a6)" style="fill: none; stroke: #2ca02c; stroke-width: 1.5"/>
    <path d="M 254.184619 217.497933 
L 254.184619 214.245646 
" clip-path="url(#p6bae4c15a6)" style="fill: none; stroke: #2ca02c; stroke-width: 1.5"/>
    <path d="M 258.53267 218.928641 
L 258.53267 215.565677 
" clip-path="url(#p6bae4c15a6)" style="fill: none; stroke: #2ca02c; stroke-width: 1.5"/>
    <path d="M 262.880722 218.755277 
L 262.880722 215.324153 
" clip-path="url(#p6bae4c15a6)" style="fill: none; stroke: #2ca02c; stroke-width: 1.5"/>
    <path d="M 267.228774 216.528185 
L 267.228774 213.050575 
" clip-path="url(#p6bae4c15a6)" style="fill: none; stroke: #2ca02c; stroke-width: 1.5"/>
    <path d="M 271.576826 216.042749 
L 271.576826 212.505238 
" clip-path="url(#p6bae4c15a6)" style="fill: none; stroke: #2ca02c; stroke-width: 1.5"/>
    <path d="M 275.924878 213.402762 
L 275.924878 209.812838 
" clip-path="url(#p6bae4c15a6)" style="fill: none; stroke: #2ca02c; stroke-width: 1.5"/>
    <path d="M 280.27293 216.627443 
L 280.27293 212.864548 
" clip-path="url(#p6bae4c15a6)" style="fill: none; stroke: #2ca02c; stroke-width: 1.5"/>
    <path d="M 284.620982 214.596177 
L 284.620982 210.775825 
" clip-path="url(#p6bae4c15a6)" style="fill: none; stroke: #2ca02c; stroke-width: 1.5"/>
    <path d="M 288.969034 212.312928 
L 288.969034 208.453206 
" clip-path="url(#p6bae4c15a6)" style="fill: none; stroke: #2ca02c; stroke-width: 1.5"/>
    <path d="M 293.317086 213.515161 
L 293.317086 209.51828 
" clip-path="url(#p6bae4c15a6)" style="fill: none; stroke: #2ca02c; stroke-width: 1.5"/>
    <path d="M 297.665138 216.064759 
L 297.665138 211.872554 
" clip-path="url(#p6bae4c15a6)" style="fill: none; stroke: #2ca02c; stroke-width: 1.5"/>
    <path d="M 302.01319 211.122119 
L 302.01319 206.894381 
" clip-path="url(#p6bae4c15a6)" style="fill: none; stroke: #2ca02c; stroke-width: 1.5"/>
    <path d="M 306.361242 213.793386 
L 306.361242 209.394351 
" clip-path="url(#p6bae4c15a6)" style="fill: none; stroke: #2ca02c; stroke-width: 1.5"/>
    <path d="M 310.709294 211.058576 
L 310.709294 206.552745 
" clip-path="url(#p6bae4c15a6)" style="fill: none; stroke: #2ca02c; stroke-width: 1.5"/>
    <path d="M 315.057346 214.035653 
L 315.057346 209.297722 
" clip-path="url(#p6bae4c15a6)" style="fill: none; stroke: #2ca02c; stroke-width: 1.5"/>
    <path d="M 319.405398 206.11131 
L 319.405398 201.450668 
" clip-path="url(#p6bae4c15a6)" style="fill: none; stroke: #2ca02c; stroke-width: 1.5"/>
    <path d="M 323.75345 213.755766 
L 323.75345 208.699255 
" clip-path="url(#p6bae4c15a6)" style="fill: none; stroke: #2ca02c; stroke-width: 1.5"/>
    <path d="M 328.101502 210.832262 
L 328.101502 205.699156 
" clip-path="url(#p6bae4c15a6)" style="fill: none; stroke: #2ca02c; stroke-width: 1.5"/>
    <path d="M 332.449554 205.271834 
L 332.449554 200.03107 
" clip-path="url(#p6bae4c15a6)" style="fill: none; stroke: #2ca02c; stroke-width: 1.5"/>
    <path d="M 336.797606 217.460259 
L 336.797606 211.680392 
" clip-path="url(#p6bae4c15a6)" style="fill: none; stroke: #2ca02c; stroke-width: 1.5"/>
    <path d="M 341.145657 212.260364 
L 341.145657 206.369136 
" clip-path="url(#p6bae4c15a6)" style="fill: none; stroke: #2ca02c; stroke-width: 1.5"/>
    <path d="M 345.493709 211.980234 
L 345.493709 205.871219 
" clip-path="url(#p6bae4c15a6)" style="fill: none; stroke: #2ca02c; stroke-width: 1.5"/>
    <path d="M 349.841761 210.747212 
L 349.841761 204.475324 
" clip-path="url(#p6bae4c15a6)" style="fill: none; stroke: #2ca02c; stroke-width: 1.5"/>
    <path d="M 354.189813 204.690963 
L 354.189813 198.204035 
" clip-path="url(#p6bae4c15a6)" style="fill: none; stroke: #2ca02c; stroke-width: 1.5"/>
    <path d="M 358.537865 206.5366 
L 358.537865 199.798871 
" clip-path="url(#p6bae4c15a6)" style="fill: none; stroke: #2ca02c; stroke-width: 1.5"/>
    <path d="M 362.885917 212.152833 
L 362.885917 204.826891 
" clip-path="url(#p6bae4c15a6)" style="fill: none; stroke: #2ca02c; stroke-width: 1.5"/>
   </g>
   <g id="line2d_24">
    <path d="M 60.696307 92.614668 
L 65.044359 92.614668 
L 65.044359 89.522461 
L 69.392411 89.522461 
L 69.392411 85.973785 
L 73.740463 85.973785 
L 73.740463 83.14077 
L 78.088515 83.14077 
L 78.088515 81.501484 
L 82.436567 81.501484 
L 82.436567 76.313982 
L 86.784619 76.313982 
L 86.784619 72.217678 
L 91.13267 72.217678 
L 91.13267 66.047654 
L 95.480722 66.047654 
L 95.480722 60.501188 
L 99.828774 60.501188 
L 99.828774 54.249839 
L 104.176826 54.249839 
L 104.176826 47.651531 
L 108.524878 47.651531 
L 108.524878 41.014814 
L 112.87293 41.014814 
L 112.87293 34.512168 
L 117.220982 34.512168 
L 117.220982 29.204562 
L 121.569034 29.204562 
L 121.569034 23.156796 
L 125.917086 23.156796 
L 125.917086 19.339483 
L 130.265138 19.339483 
L 130.265138 17.677005 
L 134.61319 17.677005 
L 134.61319 18.917877 
L 138.961242 18.917877 
L 138.961242 22.370117 
L 143.309294 22.370117 
L 143.309294 28.377594 
L 147.657346 28.377594 
L 147.657346 36.906226 
L 152.005398 36.906226 
L 152.005398 46.800589 
L 156.35345 46.800589 
L 156.35345 59.63749 
L 160.701502 59.63749 
L 160.701502 72.336296 
L 165.049554 72.336296 
L 165.049554 84.106097 
L 169.397606 84.106097 
L 169.397606 97.629981 
L 173.745657 97.629981 
L 173.745657 109.871594 
L 178.093709 109.871594 
L 178.093709 121.571684 
L 182.441761 121.571684 
L 182.441761 132.521831 
L 186.789813 132.521831 
L 186.789813 143.687813 
L 191.137865 143.687813 
L 191.137865 153.539742 
L 195.485917 153.539742 
L 195.485917 162.733565 
L 199.833969 162.733565 
L 199.833969 169.432596 
L 204.182021 169.432596 
L 204.182021 180.220187 
L 208.530073 180.220187 
L 208.530073 187.123914 
L 212.878125 187.123914 
L 212.878125 190.822655 
L 217.226177 190.822655 
L 217.226177 197.621994 
L 221.574229 197.621994 
L 221.574229 202.407091 
L 225.922281 202.407091 
L 225.922281 205.14091 
L 230.270333 205.14091 
L 230.270333 206.419721 
L 234.618385 206.419721 
L 234.618385 211.880494 
L 238.966437 211.880494 
L 238.966437 212.237494 
L 243.314489 212.237494 
L 243.314489 212.800527 
L 247.662541 212.800527 
L 247.662541 211.376791 
L 252.010593 211.376791 
L 252.010593 214.12528 
L 256.358644 214.12528 
L 256.358644 213.360842 
L 260.706696 213.360842 
L 260.706696 214.197652 
L 265.054748 214.197652 
L 265.054748 213.070356 
L 269.4028 213.070356 
L 269.4028 212.246822 
L 273.750852 212.246822 
L 273.750852 211.759579 
L 278.098904 211.759579 
L 278.098904 211.395211 
L 282.446956 211.395211 
L 282.446956 212.471257 
L 286.795008 212.471257 
L 286.795008 208.688363 
L 291.14306 208.688363 
L 291.14306 213.518271 
L 295.491112 213.518271 
L 295.491112 205.062666 
L 299.839164 205.062666 
L 299.839164 209.424054 
L 304.187216 209.424054 
L 304.187216 208.486351 
L 308.535268 208.486351 
L 308.535268 206.14904 
L 312.88332 206.14904 
L 312.88332 211.164294 
L 317.231372 211.164294 
L 317.231372 210.710316 
L 321.579424 210.710316 
L 321.579424 208.276521 
L 325.927476 208.276521 
L 325.927476 209.38777 
L 330.275528 209.38777 
L 330.275528 208.140984 
L 334.62358 208.140984 
L 334.62358 205.338 
L 338.971631 205.338 
L 338.971631 204.102133 
L 343.319683 204.102133 
L 343.319683 202.284257 
L 347.667735 202.284257 
L 347.667735 200.962812 
L 352.015787 200.962812 
L 352.015787 201.202761 
L 356.363839 201.202761 
L 356.363839 206.015878 
L 360.711891 206.015878 
L 360.711891 202.658179 
L 365.059943 202.658179 
L 365.059943 202.658179 
" clip-path="url(#p6bae4c15a6)" style="fill: none; stroke: #d62728; stroke-width: 1.5; stroke-linecap: square"/>
   </g>
   <g id="LineCollection_4">
    <path d="M 62.870333 93.37591 
L 62.870333 91.861626 
" clip-path="url(#p6bae4c15a6)" style="fill: none; stroke: #d62728; stroke-width: 1.5"/>
    <path d="M 67.218385 90.232021 
L 67.218385 88.820032 
" clip-path="url(#p6bae4c15a6)" style="fill: none; stroke: #d62728; stroke-width: 1.5"/>
    <path d="M 71.566437 86.641473 
L 71.566437 85.312414 
" clip-path="url(#p6bae4c15a6)" style="fill: none; stroke: #d62728; stroke-width: 1.5"/>
    <path d="M 75.914489 83.776325 
L 75.914489 82.510942 
" clip-path="url(#p6bae4c15a6)" style="fill: none; stroke: #d62728; stroke-width: 1.5"/>
    <path d="M 80.262541 82.113419 
L 80.262541 80.894859 
" clip-path="url(#p6bae4c15a6)" style="fill: none; stroke: #d62728; stroke-width: 1.5"/>
    <path d="M 84.610593 76.894528 
L 84.610593 75.738217 
" clip-path="url(#p6bae4c15a6)" style="fill: none; stroke: #d62728; stroke-width: 1.5"/>
    <path d="M 88.958644 72.774547 
L 88.958644 71.665209 
" clip-path="url(#p6bae4c15a6)" style="fill: none; stroke: #d62728; stroke-width: 1.5"/>
    <path d="M 93.306696 66.578087 
L 93.306696 65.521216 
" clip-path="url(#p6bae4c15a6)" style="fill: none; stroke: #d62728; stroke-width: 1.5"/>
    <path d="M 97.654748 61.011893 
L 97.654748 59.994188 
" clip-path="url(#p6bae4c15a6)" style="fill: none; stroke: #d62728; stroke-width: 1.5"/>
    <path d="M 102.0028 54.741723 
L 102.0028 53.761392 
" clip-path="url(#p6bae4c15a6)" style="fill: none; stroke: #d62728; stroke-width: 1.5"/>
    <path d="M 106.350852 48.125904 
L 106.350852 47.180354 
" clip-path="url(#p6bae4c15a6)" style="fill: none; stroke: #d62728; stroke-width: 1.5"/>
    <path d="M 110.698904 41.473789 
L 110.698904 40.558834 
" clip-path="url(#p6bae4c15a6)" style="fill: none; stroke: #d62728; stroke-width: 1.5"/>
    <path d="M 115.046956 34.957956 
L 115.046956 34.069204 
" clip-path="url(#p6bae4c15a6)" style="fill: none; stroke: #d62728; stroke-width: 1.5"/>
    <path d="M 119.395008 29.639833 
L 119.395008 28.771985 
" clip-path="url(#p6bae4c15a6)" style="fill: none; stroke: #d62728; stroke-width: 1.5"/>
    <path d="M 123.74306 23.582269 
L 123.74306 22.733898 
" clip-path="url(#p6bae4c15a6)" style="fill: none; stroke: #d62728; stroke-width: 1.5"/>
    <path d="M 128.091112 19.759076 
L 128.091112 18.922393 
" clip-path="url(#p6bae4c15a6)" style="fill: none; stroke: #d62728; stroke-width: 1.5"/>
    <path d="M 132.439164 18.093113 
L 132.439164 17.26336 
" clip-path="url(#p6bae4c15a6)" style="fill: none; stroke: #d62728; stroke-width: 1.5"/>
    <path d="M 136.787216 19.334314 
L 136.787216 18.503907 
" clip-path="url(#p6bae4c15a6)" style="fill: none; stroke: #d62728; stroke-width: 1.5"/>
    <path d="M 141.135268 22.789733 
L 141.135268 21.953004 
" clip-path="url(#p6bae4c15a6)" style="fill: none; stroke: #d62728; stroke-width: 1.5"/>
    <path d="M 145.48332 28.805343 
L 145.48332 27.952447 
" clip-path="url(#p6bae4c15a6)" style="fill: none; stroke: #d62728; stroke-width: 1.5"/>
    <path d="M 149.831372 37.3462 
L 149.831372 36.469003 
" clip-path="url(#p6bae4c15a6)" style="fill: none; stroke: #d62728; stroke-width: 1.5"/>
    <path d="M 154.179424 47.256242 
L 154.179424 46.347886 
" clip-path="url(#p6bae4c15a6)" style="fill: none; stroke: #d62728; stroke-width: 1.5"/>
    <path d="M 158.527476 60.11636 
L 158.527476 59.161879 
" clip-path="url(#p6bae4c15a6)" style="fill: none; stroke: #d62728; stroke-width: 1.5"/>
    <path d="M 162.875528 72.843094 
L 162.875528 71.833145 
" clip-path="url(#p6bae4c15a6)" style="fill: none; stroke: #d62728; stroke-width: 1.5"/>
    <path d="M 167.22358 84.64258 
L 167.22358 83.573699 
" clip-path="url(#p6bae4c15a6)" style="fill: none; stroke: #d62728; stroke-width: 1.5"/>
    <path d="M 171.571631 98.20564 
L 171.571631 97.059025 
" clip-path="url(#p6bae4c15a6)" style="fill: none; stroke: #d62728; stroke-width: 1.5"/>
    <path d="M 175.919683 110.488989 
L 175.919683 109.259605 
" clip-path="url(#p6bae4c15a6)" style="fill: none; stroke: #d62728; stroke-width: 1.5"/>
    <path d="M 180.267735 122.234893 
L 180.267735 120.914709 
" clip-path="url(#p6bae4c15a6)" style="fill: none; stroke: #d62728; stroke-width: 1.5"/>
    <path d="M 184.615787 133.234472 
L 184.615787 131.816383 
" clip-path="url(#p6bae4c15a6)" style="fill: none; stroke: #d62728; stroke-width: 1.5"/>
    <path d="M 188.963839 144.458796 
L 188.963839 142.92524 
" clip-path="url(#p6bae4c15a6)" style="fill: none; stroke: #d62728; stroke-width: 1.5"/>
    <path d="M 193.311891 154.36741 
L 193.311891 152.72176 
" clip-path="url(#p6bae4c15a6)" style="fill: none; stroke: #d62728; stroke-width: 1.5"/>
    <path d="M 197.659943 163.625069 
L 197.659943 161.853288 
" clip-path="url(#p6bae4c15a6)" style="fill: none; stroke: #d62728; stroke-width: 1.5"/>
    <path d="M 202.007995 170.384164 
L 202.007995 168.493808 
" clip-path="url(#p6bae4c15a6)" style="fill: none; stroke: #d62728; stroke-width: 1.5"/>
    <path d="M 206.356047 181.238432 
L 206.356047 179.216561 
" clip-path="url(#p6bae4c15a6)" style="fill: none; stroke: #d62728; stroke-width: 1.5"/>
    <path d="M 210.704099 188.214478 
L 210.704099 186.050104 
" clip-path="url(#p6bae4c15a6)" style="fill: none; stroke: #d62728; stroke-width: 1.5"/>
    <path d="M 215.052151 191.968182 
L 215.052151 189.695597 
" clip-path="url(#p6bae4c15a6)" style="fill: none; stroke: #d62728; stroke-width: 1.5"/>
    <path d="M 219.400203 198.840775 
L 219.400203 196.424098 
" clip-path="url(#p6bae4c15a6)" style="fill: none; stroke: #d62728; stroke-width: 1.5"/>
    <path d="M 223.748255 203.692573 
L 223.748255 201.144822 
" clip-path="url(#p6bae4c15a6)" style="fill: none; stroke: #d62728; stroke-width: 1.5"/>
    <path d="M 228.096307 206.47564 
L 228.096307 203.831193 
" clip-path="url(#p6bae4c15a6)" style="fill: none; stroke: #d62728; stroke-width: 1.5"/>
    <path d="M 232.444359 207.800233 
L 232.444359 205.065946 
" clip-path="url(#p6bae4c15a6)" style="fill: none; stroke: #d62728; stroke-width: 1.5"/>
    <path d="M 236.792411 213.333049 
L 236.792411 210.457508 
" clip-path="url(#p6bae4c15a6)" style="fill: none; stroke: #d62728; stroke-width: 1.5"/>
    <path d="M 241.140463 213.73595 
L 241.140463 210.770485 
" clip-path="url(#p6bae4c15a6)" style="fill: none; stroke: #d62728; stroke-width: 1.5"/>
    <path d="M 245.488515 214.334278 
L 245.488515 211.299706 
" clip-path="url(#p6bae4c15a6)" style="fill: none; stroke: #d62728; stroke-width: 1.5"/>
    <path d="M 249.836567 212.929918 
L 249.836567 209.857422 
" clip-path="url(#p6bae4c15a6)" style="fill: none; stroke: #d62728; stroke-width: 1.5"/>
    <path d="M 254.184619 215.743172 
L 254.184619 212.543988 
" clip-path="url(#p6bae4c15a6)" style="fill: none; stroke: #d62728; stroke-width: 1.5"/>
    <path d="M 258.53267 215.013064 
L 258.53267 211.746771 
" clip-path="url(#p6bae4c15a6)" style="fill: none; stroke: #d62728; stroke-width: 1.5"/>
    <path d="M 262.880722 215.902833 
L 262.880722 212.533078 
" clip-path="url(#p6bae4c15a6)" style="fill: none; stroke: #d62728; stroke-width: 1.5"/>
    <path d="M 267.228774 214.799254 
L 267.228774 211.383188 
" clip-path="url(#p6bae4c15a6)" style="fill: none; stroke: #d62728; stroke-width: 1.5"/>
    <path d="M 271.576826 214.0114 
L 271.576826 210.525693 
" clip-path="url(#p6bae4c15a6)" style="fill: none; stroke: #d62728; stroke-width: 1.5"/>
    <path d="M 275.924878 213.572477 
L 275.924878 209.992512 
" clip-path="url(#p6bae4c15a6)" style="fill: none; stroke: #d62728; stroke-width: 1.5"/>
    <path d="M 280.27293 213.252725 
L 280.27293 209.585781 
" clip-path="url(#p6bae4c15a6)" style="fill: none; stroke: #d62728; stroke-width: 1.5"/>
    <path d="M 284.620982 214.38375 
L 284.620982 210.609698 
" clip-path="url(#p6bae4c15a6)" style="fill: none; stroke: #d62728; stroke-width: 1.5"/>
    <path d="M 288.969034 210.641726 
L 288.969034 206.788104 
" clip-path="url(#p6bae4c15a6)" style="fill: none; stroke: #d62728; stroke-width: 1.5"/>
    <path d="M 293.317086 215.562915 
L 293.317086 211.531737 
" clip-path="url(#p6bae4c15a6)" style="fill: none; stroke: #d62728; stroke-width: 1.5"/>
    <path d="M 297.665138 207.080864 
L 297.665138 203.101104 
" clip-path="url(#p6bae4c15a6)" style="fill: none; stroke: #d62728; stroke-width: 1.5"/>
    <path d="M 302.01319 211.556479 
L 302.01319 207.354759 
" clip-path="url(#p6bae4c15a6)" style="fill: none; stroke: #d62728; stroke-width: 1.5"/>
    <path d="M 306.361242 210.689734 
L 306.361242 206.350302 
" clip-path="url(#p6bae4c15a6)" style="fill: none; stroke: #d62728; stroke-width: 1.5"/>
    <path d="M 310.709294 208.384982 
L 310.709294 203.98241 
" clip-path="url(#p6bae4c15a6)" style="fill: none; stroke: #d62728; stroke-width: 1.5"/>
    <path d="M 315.057346 213.570686 
L 315.057346 208.837993 
" clip-path="url(#p6bae4c15a6)" style="fill: none; stroke: #d62728; stroke-width: 1.5"/>
    <path d="M 319.405398 213.179907 
L 319.405398 208.325003 
" clip-path="url(#p6bae4c15a6)" style="fill: none; stroke: #d62728; stroke-width: 1.5"/>
    <path d="M 323.75345 210.833993 
L 323.75345 205.809323 
" clip-path="url(#p6bae4c15a6)" style="fill: none; stroke: #d62728; stroke-width: 1.5"/>
    <path d="M 328.101502 212.034253 
L 328.101502 206.837836 
" clip-path="url(#p6bae4c15a6)" style="fill: none; stroke: #d62728; stroke-width: 1.5"/>
    <path d="M 332.449554 210.880673 
L 332.449554 205.504634 
" clip-path="url(#p6bae4c15a6)" style="fill: none; stroke: #d62728; stroke-width: 1.5"/>
    <path d="M 336.797606 208.165585 
L 336.797606 202.620357 
" clip-path="url(#p6bae4c15a6)" style="fill: none; stroke: #d62728; stroke-width: 1.5"/>
    <path d="M 341.145657 206.987708 
L 341.145657 201.330962 
" clip-path="url(#p6bae4c15a6)" style="fill: none; stroke: #d62728; stroke-width: 1.5"/>
    <path d="M 345.493709 205.288504 
L 345.493709 199.403821 
" clip-path="url(#p6bae4c15a6)" style="fill: none; stroke: #d62728; stroke-width: 1.5"/>
    <path d="M 349.841761 204.082311 
L 349.841761 197.976598 
" clip-path="url(#p6bae4c15a6)" style="fill: none; stroke: #d62728; stroke-width: 1.5"/>
    <path d="M 354.189813 204.512132 
L 354.189813 198.043007 
" clip-path="url(#p6bae4c15a6)" style="fill: none; stroke: #d62728; stroke-width: 1.5"/>
    <path d="M 358.537865 209.524803 
L 358.537865 202.674705 
" clip-path="url(#p6bae4c15a6)" style="fill: none; stroke: #d62728; stroke-width: 1.5"/>
    <path d="M 362.885917 206.313311 
L 362.885917 199.184706 
" clip-path="url(#p6bae4c15a6)" style="fill: none; stroke: #d62728; stroke-width: 1.5"/>
   </g>
  </g>
 </g>
 <defs>
  <clipPath id="p6bae4c15a6">
   <rect x="45.478125" y="7.2" width="334.8" height="221.76"/>
  </clipPath>
 </defs>
</svg>
