<?xml version="1.0" encoding="utf-8" standalone="no"?>
<!DOCTYPE svg PUBLIC "-//W3C//DTD SVG 1.1//EN"
  "http://www.w3.org/Graphics/SVG/1.1/DTD/svg11.dtd">
<svg xmlns:xlink="http://www.w3.org/1999/xlink" width="610.376563pt" height="267.439687pt" viewBox="0 0 610.376563 267.439687" xmlns="http://www.w3.org/2000/svg" version="1.1">
 <metadata>
  <rdf:RDF xmlns:dc="http://purl.org/dc/elements/1.1/" xmlns:cc="http://creativecommons.org/ns#" xmlns:rdf="http://www.w3.org/1999/02/22-rdf-syntax-ns#">
   <cc:Work>
    <dc:type rdf:resource="http://purl.org/dc/dcmitype/StillImage"/>
    <dc:date>2024-10-07T09:42:54.935860</dc:date>
    <dc:format>image/svg+xml</dc:format>
    <dc:creator>
     <cc:Agent>
      <dc:title>Matplotlib v3.9.2, https://matplotlib.org/</dc:title>
     </cc:Agent>
    </dc:creator>
   </cc:Work>
  </rdf:RDF>
 </metadata>
 <defs>
  <style type="text/css">*{stroke-linejoin: round; stroke-linecap: butt}</style>
 </defs>
 <g id="figure_1">
  <g id="patch_1">
   <path d="M 0 267.439687 
L 610.376563 267.439687 
L 610.376563 0 
L 0 0 
z
" style="fill: #ffffff"/>
  </g>
  <g id="axes_1">
   <g id="patch_2">
    <path d="M 51.378125 228.96 
L 386.178125 228.96 
L 386.178125 7.2 
L 51.378125 7.2 
z
" style="fill: #ffffff"/>
   </g>
   <g id="matplotlib.axis_1">
    <g id="xtick_1">
     <g id="line2d_1">
      <defs>
       <path id="mff2ba0a3c4" d="M 0 0 
L 0 3.5 
" style="stroke: #000000; stroke-width: 0.8"/>
      </defs>
      <g>
       <use xlink:href="#mff2ba0a3c4" x="119.232938" y="228.96" style="stroke: #000000; stroke-width: 0.8"/>
      </g>
     </g>
     <g id="text_1">
      <!-- $\mathdefault{10^{-2}}$ -->
      <g transform="translate(107.482938 243.558437) scale(0.1 -0.1)">
       <defs>
        <path id="DejaVuSans-31" d="M 794 531 
L 1825 531 
L 1825 4091 
L 703 3866 
L 703 4441 
L 1819 4666 
L 2450 4666 
L 2450 531 
L 3481 531 
L 3481 0 
L 794 0 
L 794 531 
z
" transform="scale(0.015625)"/>
        <path id="DejaVuSans-30" d="M 2034 4250 
Q 1547 4250 1301 3770 
Q 1056 3291 1056 2328 
Q 1056 1369 1301 889 
Q 1547 409 2034 409 
Q 2525 409 2770 889 
Q 3016 1369 3016 2328 
Q 3016 3291 2770 3770 
Q 2525 4250 2034 4250 
z
M 2034 4750 
Q 2819 4750 3233 4129 
Q 3647 3509 3647 2328 
Q 3647 1150 3233 529 
Q 2819 -91 2034 -91 
Q 1250 -91 836 529 
Q 422 1150 422 2328 
Q 422 3509 836 4129 
Q 1250 4750 2034 4750 
z
" transform="scale(0.015625)"/>
        <path id="DejaVuSans-2212" d="M 678 2272 
L 4684 2272 
L 4684 1741 
L 678 1741 
L 678 2272 
z
" transform="scale(0.015625)"/>
        <path id="DejaVuSans-32" d="M 1228 531 
L 3431 531 
L 3431 0 
L 469 0 
L 469 531 
Q 828 903 1448 1529 
Q 2069 2156 2228 2338 
Q 2531 2678 2651 2914 
Q 2772 3150 2772 3378 
Q 2772 3750 2511 3984 
Q 2250 4219 1831 4219 
Q 1534 4219 1204 4116 
Q 875 4013 500 3803 
L 500 4441 
Q 881 4594 1212 4672 
Q 1544 4750 1819 4750 
Q 2544 4750 2975 4387 
Q 3406 4025 3406 3419 
Q 3406 3131 3298 2873 
Q 3191 2616 2906 2266 
Q 2828 2175 2409 1742 
Q 1991 1309 1228 531 
z
" transform="scale(0.015625)"/>
       </defs>
       <use xlink:href="#DejaVuSans-31" transform="translate(0 0.765625)"/>
       <use xlink:href="#DejaVuSans-30" transform="translate(63.623047 0.765625)"/>
       <use xlink:href="#DejaVuSans-2212" transform="translate(128.203125 39.046875) scale(0.7)"/>
       <use xlink:href="#DejaVuSans-32" transform="translate(186.855469 39.046875) scale(0.7)"/>
      </g>
     </g>
    </g>
    <g id="xtick_2">
     <g id="line2d_2">
      <g>
       <use xlink:href="#mff2ba0a3c4" x="251.505719" y="228.96" style="stroke: #000000; stroke-width: 0.8"/>
      </g>
     </g>
     <g id="text_2">
      <!-- $\mathdefault{10^{-1}}$ -->
      <g transform="translate(239.755719 243.558437) scale(0.1 -0.1)">
       <use xlink:href="#DejaVuSans-31" transform="translate(0 0.684375)"/>
       <use xlink:href="#DejaVuSans-30" transform="translate(63.623047 0.684375)"/>
       <use xlink:href="#DejaVuSans-2212" transform="translate(128.203125 38.965625) scale(0.7)"/>
       <use xlink:href="#DejaVuSans-31" transform="translate(186.855469 38.965625) scale(0.7)"/>
      </g>
     </g>
    </g>
    <g id="xtick_3">
     <g id="line2d_3">
      <g>
       <use xlink:href="#mff2ba0a3c4" x="383.7785" y="228.96" style="stroke: #000000; stroke-width: 0.8"/>
      </g>
     </g>
     <g id="text_3">
      <!-- $\mathdefault{10^{0}}$ -->
      <g transform="translate(374.9785 243.558437) scale(0.1 -0.1)">
       <use xlink:href="#DejaVuSans-31" transform="translate(0 0.765625)"/>
       <use xlink:href="#DejaVuSans-30" transform="translate(63.623047 0.765625)"/>
       <use xlink:href="#DejaVuSans-30" transform="translate(128.203125 39.046875) scale(0.7)"/>
      </g>
     </g>
    </g>
    <g id="xtick_4">
     <g id="line2d_4">
      <defs>
       <path id="m58583684ab" d="M 0 0 
L 0 2 
" style="stroke: #000000; stroke-width: 0.6"/>
      </defs>
      <g>
       <use xlink:href="#m58583684ab" x="66.596307" y="228.96" style="stroke: #000000; stroke-width: 0.6"/>
      </g>
     </g>
    </g>
    <g id="xtick_5">
     <g id="line2d_5">
      <g>
       <use xlink:href="#m58583684ab" x="79.414864" y="228.96" style="stroke: #000000; stroke-width: 0.6"/>
      </g>
     </g>
    </g>
    <g id="xtick_6">
     <g id="line2d_6">
      <g>
       <use xlink:href="#m58583684ab" x="89.888387" y="228.96" style="stroke: #000000; stroke-width: 0.6"/>
      </g>
     </g>
    </g>
    <g id="xtick_7">
     <g id="line2d_7">
      <g>
       <use xlink:href="#m58583684ab" x="98.743625" y="228.96" style="stroke: #000000; stroke-width: 0.6"/>
      </g>
     </g>
    </g>
    <g id="xtick_8">
     <g id="line2d_8">
      <g>
       <use xlink:href="#m58583684ab" x="106.414381" y="228.96" style="stroke: #000000; stroke-width: 0.6"/>
      </g>
     </g>
    </g>
    <g id="xtick_9">
     <g id="line2d_9">
      <g>
       <use xlink:href="#m58583684ab" x="113.180468" y="228.96" style="stroke: #000000; stroke-width: 0.6"/>
      </g>
     </g>
    </g>
    <g id="xtick_10">
     <g id="line2d_10">
      <g>
       <use xlink:href="#m58583684ab" x="159.051013" y="228.96" style="stroke: #000000; stroke-width: 0.6"/>
      </g>
     </g>
    </g>
    <g id="xtick_11">
     <g id="line2d_11">
      <g>
       <use xlink:href="#m58583684ab" x="182.343094" y="228.96" style="stroke: #000000; stroke-width: 0.6"/>
      </g>
     </g>
    </g>
    <g id="xtick_12">
     <g id="line2d_12">
      <g>
       <use xlink:href="#m58583684ab" x="198.869088" y="228.96" style="stroke: #000000; stroke-width: 0.6"/>
      </g>
     </g>
    </g>
    <g id="xtick_13">
     <g id="line2d_13">
      <g>
       <use xlink:href="#m58583684ab" x="211.687645" y="228.96" style="stroke: #000000; stroke-width: 0.6"/>
      </g>
     </g>
    </g>
    <g id="xtick_14">
     <g id="line2d_14">
      <g>
       <use xlink:href="#m58583684ab" x="222.161168" y="228.96" style="stroke: #000000; stroke-width: 0.6"/>
      </g>
     </g>
    </g>
    <g id="xtick_15">
     <g id="line2d_15">
      <g>
       <use xlink:href="#m58583684ab" x="231.016406" y="228.96" style="stroke: #000000; stroke-width: 0.6"/>
      </g>
     </g>
    </g>
    <g id="xtick_16">
     <g id="line2d_16">
      <g>
       <use xlink:href="#m58583684ab" x="238.687162" y="228.96" style="stroke: #000000; stroke-width: 0.6"/>
      </g>
     </g>
    </g>
    <g id="xtick_17">
     <g id="line2d_17">
      <g>
       <use xlink:href="#m58583684ab" x="245.453249" y="228.96" style="stroke: #000000; stroke-width: 0.6"/>
      </g>
     </g>
    </g>
    <g id="xtick_18">
     <g id="line2d_18">
      <g>
       <use xlink:href="#m58583684ab" x="291.323794" y="228.96" style="stroke: #000000; stroke-width: 0.6"/>
      </g>
     </g>
    </g>
    <g id="xtick_19">
     <g id="line2d_19">
      <g>
       <use xlink:href="#m58583684ab" x="314.615874" y="228.96" style="stroke: #000000; stroke-width: 0.6"/>
      </g>
     </g>
    </g>
    <g id="xtick_20">
     <g id="line2d_20">
      <g>
       <use xlink:href="#m58583684ab" x="331.141869" y="228.96" style="stroke: #000000; stroke-width: 0.6"/>
      </g>
     </g>
    </g>
    <g id="xtick_21">
     <g id="line2d_21">
      <g>
       <use xlink:href="#m58583684ab" x="343.960425" y="228.96" style="stroke: #000000; stroke-width: 0.6"/>
      </g>
     </g>
    </g>
    <g id="xtick_22">
     <g id="line2d_22">
      <g>
       <use xlink:href="#m58583684ab" x="354.433949" y="228.96" style="stroke: #000000; stroke-width: 0.6"/>
      </g>
     </g>
    </g>
    <g id="xtick_23">
     <g id="line2d_23">
      <g>
       <use xlink:href="#m58583684ab" x="363.289187" y="228.96" style="stroke: #000000; stroke-width: 0.6"/>
      </g>
     </g>
    </g>
    <g id="xtick_24">
     <g id="line2d_24">
      <g>
       <use xlink:href="#m58583684ab" x="370.959943" y="228.96" style="stroke: #000000; stroke-width: 0.6"/>
      </g>
     </g>
    </g>
    <g id="xtick_25">
     <g id="line2d_25">
      <g>
       <use xlink:href="#m58583684ab" x="377.72603" y="228.96" style="stroke: #000000; stroke-width: 0.6"/>
      </g>
     </g>
    </g>
    <g id="text_4">
     <!-- Q [1/Å] -->
     <g transform="translate(201.065625 258.16) scale(0.1 -0.1)">
      <defs>
       <path id="DejaVuSans-51" d="M 2522 4238 
Q 1834 4238 1429 3725 
Q 1025 3213 1025 2328 
Q 1025 1447 1429 934 
Q 1834 422 2522 422 
Q 3209 422 3611 934 
Q 4013 1447 4013 2328 
Q 4013 3213 3611 3725 
Q 3209 4238 2522 4238 
z
M 3406 84 
L 4238 -825 
L 3475 -825 
L 2784 -78 
Q 2681 -84 2626 -87 
Q 2572 -91 2522 -91 
Q 1538 -91 948 567 
Q 359 1225 359 2328 
Q 359 3434 948 4092 
Q 1538 4750 2522 4750 
Q 3503 4750 4090 4092 
Q 4678 3434 4678 2328 
Q 4678 1516 4351 937 
Q 4025 359 3406 84 
z
" transform="scale(0.015625)"/>
       <path id="DejaVuSans-20" transform="scale(0.015625)"/>
       <path id="DejaVuSans-5b" d="M 550 4863 
L 1875 4863 
L 1875 4416 
L 1125 4416 
L 1125 -397 
L 1875 -397 
L 1875 -844 
L 550 -844 
L 550 4863 
z
" transform="scale(0.015625)"/>
       <path id="DejaVuSans-2f" d="M 1625 4666 
L 2156 4666 
L 531 -594 
L 0 -594 
L 1625 4666 
z
" transform="scale(0.015625)"/>
       <path id="DejaVuSans-c5" d="M 2663 5081 
Q 2663 5278 2523 5417 
Q 2384 5556 2188 5556 
Q 1988 5556 1852 5420 
Q 1716 5284 1716 5081 
Q 1716 4884 1853 4746 
Q 1991 4609 2188 4609 
Q 2384 4609 2523 4746 
Q 2663 4884 2663 5081 
z
M 2188 4044 
L 1338 1722 
L 3041 1722 
L 2188 4044 
z
M 1716 4366 
Q 1525 4494 1428 4673 
Q 1331 4853 1331 5081 
Q 1331 5441 1579 5691 
Q 1828 5941 2188 5941 
Q 2544 5941 2795 5689 
Q 3047 5438 3047 5081 
Q 3047 4863 2948 4678 
Q 2850 4494 2663 4366 
L 4325 0 
L 3669 0 
L 3244 1197 
L 1141 1197 
L 716 0 
L 50 0 
L 1716 4366 
z
" transform="scale(0.015625)"/>
       <path id="DejaVuSans-5d" d="M 1947 4863 
L 1947 -844 
L 622 -844 
L 622 -397 
L 1369 -397 
L 1369 4416 
L 622 4416 
L 622 4863 
L 1947 4863 
z
" transform="scale(0.015625)"/>
      </defs>
      <use xlink:href="#DejaVuSans-51"/>
      <use xlink:href="#DejaVuSans-20" x="78.710938"/>
      <use xlink:href="#DejaVuSans-5b" x="110.498047"/>
      <use xlink:href="#DejaVuSans-31" x="149.511719"/>
      <use xlink:href="#DejaVuSans-2f" x="213.134766"/>
      <use xlink:href="#DejaVuSans-c5" x="246.826172"/>
      <use xlink:href="#DejaVuSans-5d" x="315.234375"/>
     </g>
    </g>
   </g>
   <g id="matplotlib.axis_2">
    <g id="ytick_1">
     <g id="line2d_26">
      <defs>
       <path id="ma97811b25b" d="M 0 0 
L -3.5 0 
" style="stroke: #000000; stroke-width: 0.8"/>
      </defs>
      <g>
       <use xlink:href="#ma97811b25b" x="51.378125" y="201.640789" style="stroke: #000000; stroke-width: 0.8"/>
      </g>
     </g>
     <g id="text_5">
      <!-- $\mathdefault{10^{-3}}$ -->
      <g transform="translate(20.878125 205.440008) scale(0.1 -0.1)">
       <defs>
        <path id="DejaVuSans-33" d="M 2597 2516 
Q 3050 2419 3304 2112 
Q 3559 1806 3559 1356 
Q 3559 666 3084 287 
Q 2609 -91 1734 -91 
Q 1441 -91 1130 -33 
Q 819 25 488 141 
L 488 750 
Q 750 597 1062 519 
Q 1375 441 1716 441 
Q 2309 441 2620 675 
Q 2931 909 2931 1356 
Q 2931 1769 2642 2001 
Q 2353 2234 1838 2234 
L 1294 2234 
L 1294 2753 
L 1863 2753 
Q 2328 2753 2575 2939 
Q 2822 3125 2822 3475 
Q 2822 3834 2567 4026 
Q 2313 4219 1838 4219 
Q 1578 4219 1281 4162 
Q 984 4106 628 3988 
L 628 4550 
Q 988 4650 1302 4700 
Q 1616 4750 1894 4750 
Q 2613 4750 3031 4423 
Q 3450 4097 3450 3541 
Q 3450 3153 3228 2886 
Q 3006 2619 2597 2516 
z
" transform="scale(0.015625)"/>
       </defs>
       <use xlink:href="#DejaVuSans-31" transform="translate(0 0.765625)"/>
       <use xlink:href="#DejaVuSans-30" transform="translate(63.623047 0.765625)"/>
       <use xlink:href="#DejaVuSans-2212" transform="translate(128.203125 39.046875) scale(0.7)"/>
       <use xlink:href="#DejaVuSans-33" transform="translate(186.855469 39.046875) scale(0.7)"/>
      </g>
     </g>
    </g>
    <g id="ytick_2">
     <g id="line2d_27">
      <g>
       <use xlink:href="#ma97811b25b" x="51.378125" y="154.640105" style="stroke: #000000; stroke-width: 0.8"/>
      </g>
     </g>
     <g id="text_6">
      <!-- $\mathdefault{10^{-1}}$ -->
      <g transform="translate(20.878125 158.439323) scale(0.1 -0.1)">
       <use xlink:href="#DejaVuSans-31" transform="translate(0 0.684375)"/>
       <use xlink:href="#DejaVuSans-30" transform="translate(63.623047 0.684375)"/>
       <use xlink:href="#DejaVuSans-2212" transform="translate(128.203125 38.965625) scale(0.7)"/>
       <use xlink:href="#DejaVuSans-31" transform="translate(186.855469 38.965625) scale(0.7)"/>
      </g>
     </g>
    </g>
    <g id="ytick_3">
     <g id="line2d_28">
      <g>
       <use xlink:href="#ma97811b25b" x="51.378125" y="107.63942" style="stroke: #000000; stroke-width: 0.8"/>
      </g>
     </g>
     <g id="text_7">
      <!-- $\mathdefault{10^{1}}$ -->
      <g transform="translate(26.778125 111.438639) scale(0.1 -0.1)">
       <use xlink:href="#DejaVuSans-31" transform="translate(0 0.684375)"/>
       <use xlink:href="#DejaVuSans-30" transform="translate(63.623047 0.684375)"/>
       <use xlink:href="#DejaVuSans-31" transform="translate(128.203125 38.965625) scale(0.7)"/>
      </g>
     </g>
    </g>
    <g id="ytick_4">
     <g id="line2d_29">
      <g>
       <use xlink:href="#ma97811b25b" x="51.378125" y="60.638736" style="stroke: #000000; stroke-width: 0.8"/>
      </g>
     </g>
     <g id="text_8">
      <!-- $\mathdefault{10^{3}}$ -->
      <g transform="translate(26.778125 64.437955) scale(0.1 -0.1)">
       <use xlink:href="#DejaVuSans-31" transform="translate(0 0.765625)"/>
       <use xlink:href="#DejaVuSans-30" transform="translate(63.623047 0.765625)"/>
       <use xlink:href="#DejaVuSans-33" transform="translate(128.203125 39.046875) scale(0.7)"/>
      </g>
     </g>
    </g>
    <g id="ytick_5">
     <g id="line2d_30">
      <g>
       <use xlink:href="#ma97811b25b" x="51.378125" y="13.638052" style="stroke: #000000; stroke-width: 0.8"/>
      </g>
     </g>
     <g id="text_9">
      <!-- $\mathdefault{10^{5}}$ -->
      <g transform="translate(26.778125 17.437271) scale(0.1 -0.1)">
       <defs>
        <path id="DejaVuSans-35" d="M 691 4666 
L 3169 4666 
L 3169 4134 
L 1269 4134 
L 1269 2991 
Q 1406 3038 1543 3061 
Q 1681 3084 1819 3084 
Q 2600 3084 3056 2656 
Q 3513 2228 3513 1497 
Q 3513 744 3044 326 
Q 2575 -91 1722 -91 
Q 1428 -91 1123 -41 
Q 819 9 494 109 
L 494 744 
Q 775 591 1075 516 
Q 1375 441 1709 441 
Q 2250 441 2565 725 
Q 2881 1009 2881 1497 
Q 2881 1984 2565 2268 
Q 2250 2553 1709 2553 
Q 1456 2553 1204 2497 
Q 953 2441 691 2322 
L 691 4666 
z
" transform="scale(0.015625)"/>
       </defs>
       <use xlink:href="#DejaVuSans-31" transform="translate(0 0.684375)"/>
       <use xlink:href="#DejaVuSans-30" transform="translate(63.623047 0.684375)"/>
       <use xlink:href="#DejaVuSans-35" transform="translate(128.203125 38.965625) scale(0.7)"/>
      </g>
     </g>
    </g>
    <g id="text_10">
     <!-- [counts] -->
     <g transform="translate(14.798438 138.6925) rotate(-90) scale(0.1 -0.1)">
      <defs>
       <path id="DejaVuSans-63" d="M 3122 3366 
L 3122 2828 
Q 2878 2963 2633 3030 
Q 2388 3097 2138 3097 
Q 1578 3097 1268 2742 
Q 959 2388 959 1747 
Q 959 1106 1268 751 
Q 1578 397 2138 397 
Q 2388 397 2633 464 
Q 2878 531 3122 666 
L 3122 134 
Q 2881 22 2623 -34 
Q 2366 -91 2075 -91 
Q 1284 -91 818 406 
Q 353 903 353 1747 
Q 353 2603 823 3093 
Q 1294 3584 2113 3584 
Q 2378 3584 2631 3529 
Q 2884 3475 3122 3366 
z
" transform="scale(0.015625)"/>
       <path id="DejaVuSans-6f" d="M 1959 3097 
Q 1497 3097 1228 2736 
Q 959 2375 959 1747 
Q 959 1119 1226 758 
Q 1494 397 1959 397 
Q 2419 397 2687 759 
Q 2956 1122 2956 1747 
Q 2956 2369 2687 2733 
Q 2419 3097 1959 3097 
z
M 1959 3584 
Q 2709 3584 3137 3096 
Q 3566 2609 3566 1747 
Q 3566 888 3137 398 
Q 2709 -91 1959 -91 
Q 1206 -91 779 398 
Q 353 888 353 1747 
Q 353 2609 779 3096 
Q 1206 3584 1959 3584 
z
" transform="scale(0.015625)"/>
       <path id="DejaVuSans-75" d="M 544 1381 
L 544 3500 
L 1119 3500 
L 1119 1403 
Q 1119 906 1312 657 
Q 1506 409 1894 409 
Q 2359 409 2629 706 
Q 2900 1003 2900 1516 
L 2900 3500 
L 3475 3500 
L 3475 0 
L 2900 0 
L 2900 538 
Q 2691 219 2414 64 
Q 2138 -91 1772 -91 
Q 1169 -91 856 284 
Q 544 659 544 1381 
z
M 1991 3584 
L 1991 3584 
z
" transform="scale(0.015625)"/>
       <path id="DejaVuSans-6e" d="M 3513 2113 
L 3513 0 
L 2938 0 
L 2938 2094 
Q 2938 2591 2744 2837 
Q 2550 3084 2163 3084 
Q 1697 3084 1428 2787 
Q 1159 2491 1159 1978 
L 1159 0 
L 581 0 
L 581 3500 
L 1159 3500 
L 1159 2956 
Q 1366 3272 1645 3428 
Q 1925 3584 2291 3584 
Q 2894 3584 3203 3211 
Q 3513 2838 3513 2113 
z
" transform="scale(0.015625)"/>
       <path id="DejaVuSans-74" d="M 1172 4494 
L 1172 3500 
L 2356 3500 
L 2356 3053 
L 1172 3053 
L 1172 1153 
Q 1172 725 1289 603 
Q 1406 481 1766 481 
L 2356 481 
L 2356 0 
L 1766 0 
Q 1100 0 847 248 
Q 594 497 594 1153 
L 594 3053 
L 172 3053 
L 172 3500 
L 594 3500 
L 594 4494 
L 1172 4494 
z
" transform="scale(0.015625)"/>
       <path id="DejaVuSans-73" d="M 2834 3397 
L 2834 2853 
Q 2591 2978 2328 3040 
Q 2066 3103 1784 3103 
Q 1356 3103 1142 2972 
Q 928 2841 928 2578 
Q 928 2378 1081 2264 
Q 1234 2150 1697 2047 
L 1894 2003 
Q 2506 1872 2764 1633 
Q 3022 1394 3022 966 
Q 3022 478 2636 193 
Q 2250 -91 1575 -91 
Q 1294 -91 989 -36 
Q 684 19 347 128 
L 347 722 
Q 666 556 975 473 
Q 1284 391 1588 391 
Q 1994 391 2212 530 
Q 2431 669 2431 922 
Q 2431 1156 2273 1281 
Q 2116 1406 1581 1522 
L 1381 1569 
Q 847 1681 609 1914 
Q 372 2147 372 2553 
Q 372 3047 722 3315 
Q 1072 3584 1716 3584 
Q 2034 3584 2315 3537 
Q 2597 3491 2834 3397 
z
" transform="scale(0.015625)"/>
      </defs>
      <use xlink:href="#DejaVuSans-5b"/>
      <use xlink:href="#DejaVuSans-63" x="39.013672"/>
      <use xlink:href="#DejaVuSans-6f" x="93.994141"/>
      <use xlink:href="#DejaVuSans-75" x="155.175781"/>
      <use xlink:href="#DejaVuSans-6e" x="218.554688"/>
      <use xlink:href="#DejaVuSans-74" x="281.933594"/>
      <use xlink:href="#DejaVuSans-73" x="321.142578"/>
      <use xlink:href="#DejaVuSans-5d" x="373.242188"/>
     </g>
    </g>
   </g>
   <g id="patch_3">
    <path d="M 51.378125 228.96 
L 51.378125 7.2 
" style="fill: none; stroke: #000000; stroke-width: 0.8; stroke-linejoin: miter; stroke-linecap: square"/>
   </g>
   <g id="patch_4">
    <path d="M 386.178125 228.96 
L 386.178125 7.2 
" style="fill: none; stroke: #000000; stroke-width: 0.8; stroke-linejoin: miter; stroke-linecap: square"/>
   </g>
   <g id="patch_5">
    <path d="M 51.378125 228.96 
L 386.178125 228.96 
" style="fill: none; stroke: #000000; stroke-width: 0.8; stroke-linejoin: miter; stroke-linecap: square"/>
   </g>
   <g id="patch_6">
    <path d="M 51.378125 7.2 
L 386.178125 7.2 
" style="fill: none; stroke: #000000; stroke-width: 0.8; stroke-linejoin: miter; stroke-linecap: square"/>
   </g>
   <g id="legend_1">
    <g id="patch_7">
     <path d="M 58.378125 223.96 
L 601.176563 223.96 
Q 603.176563 223.96 603.176563 221.96 
L 603.176563 193.60375 
Q 603.176563 191.60375 601.176563 191.60375 
L 58.378125 191.60375 
Q 56.378125 191.60375 56.378125 193.60375 
L 56.378125 221.96 
Q 56.378125 223.96 58.378125 223.96 
z
" style="fill: #ffffff; opacity: 0.8; stroke: #cccccc; stroke-linejoin: miter"/>
    </g>
    <g id="line2d_31">
     <path d="M 60.378125 199.702187 
L 60.378125 199.702187 
L 70.378125 199.702187 
L 70.378125 199.702187 
L 80.378125 199.702187 
" style="fill: none; stroke: #1f77b4; stroke-width: 1.5; stroke-linecap: square"/>
    </g>
    <g id="text_11">
     <!-- ess.sans.types.WavelengthScaledQ[ess.reduce.nexus.types.SampleRun, ess.sans.types.Numerator] -->
     <g transform="translate(88.378125 203.202187) scale(0.1 -0.1)">
      <defs>
       <path id="DejaVuSans-65" d="M 3597 1894 
L 3597 1613 
L 953 1613 
Q 991 1019 1311 708 
Q 1631 397 2203 397 
Q 2534 397 2845 478 
Q 3156 559 3463 722 
L 3463 178 
Q 3153 47 2828 -22 
Q 2503 -91 2169 -91 
Q 1331 -91 842 396 
Q 353 884 353 1716 
Q 353 2575 817 3079 
Q 1281 3584 2069 3584 
Q 2775 3584 3186 3129 
Q 3597 2675 3597 1894 
z
M 3022 2063 
Q 3016 2534 2758 2815 
Q 2500 3097 2075 3097 
Q 1594 3097 1305 2825 
Q 1016 2553 972 2059 
L 3022 2063 
z
" transform="scale(0.015625)"/>
       <path id="DejaVuSans-2e" d="M 684 794 
L 1344 794 
L 1344 0 
L 684 0 
L 684 794 
z
" transform="scale(0.015625)"/>
       <path id="DejaVuSans-61" d="M 2194 1759 
Q 1497 1759 1228 1600 
Q 959 1441 959 1056 
Q 959 750 1161 570 
Q 1363 391 1709 391 
Q 2188 391 2477 730 
Q 2766 1069 2766 1631 
L 2766 1759 
L 2194 1759 
z
M 3341 1997 
L 3341 0 
L 2766 0 
L 2766 531 
Q 2569 213 2275 61 
Q 1981 -91 1556 -91 
Q 1019 -91 701 211 
Q 384 513 384 1019 
Q 384 1609 779 1909 
Q 1175 2209 1959 2209 
L 2766 2209 
L 2766 2266 
Q 2766 2663 2505 2880 
Q 2244 3097 1772 3097 
Q 1472 3097 1187 3025 
Q 903 2953 641 2809 
L 641 3341 
Q 956 3463 1253 3523 
Q 1550 3584 1831 3584 
Q 2591 3584 2966 3190 
Q 3341 2797 3341 1997 
z
" transform="scale(0.015625)"/>
       <path id="DejaVuSans-79" d="M 2059 -325 
Q 1816 -950 1584 -1140 
Q 1353 -1331 966 -1331 
L 506 -1331 
L 506 -850 
L 844 -850 
Q 1081 -850 1212 -737 
Q 1344 -625 1503 -206 
L 1606 56 
L 191 3500 
L 800 3500 
L 1894 763 
L 2988 3500 
L 3597 3500 
L 2059 -325 
z
" transform="scale(0.015625)"/>
       <path id="DejaVuSans-70" d="M 1159 525 
L 1159 -1331 
L 581 -1331 
L 581 3500 
L 1159 3500 
L 1159 2969 
Q 1341 3281 1617 3432 
Q 1894 3584 2278 3584 
Q 2916 3584 3314 3078 
Q 3713 2572 3713 1747 
Q 3713 922 3314 415 
Q 2916 -91 2278 -91 
Q 1894 -91 1617 61 
Q 1341 213 1159 525 
z
M 3116 1747 
Q 3116 2381 2855 2742 
Q 2594 3103 2138 3103 
Q 1681 3103 1420 2742 
Q 1159 2381 1159 1747 
Q 1159 1113 1420 752 
Q 1681 391 2138 391 
Q 2594 391 2855 752 
Q 3116 1113 3116 1747 
z
" transform="scale(0.015625)"/>
       <path id="DejaVuSans-57" d="M 213 4666 
L 850 4666 
L 1831 722 
L 2809 4666 
L 3519 4666 
L 4500 722 
L 5478 4666 
L 6119 4666 
L 4947 0 
L 4153 0 
L 3169 4050 
L 2175 0 
L 1381 0 
L 213 4666 
z
" transform="scale(0.015625)"/>
       <path id="DejaVuSans-76" d="M 191 3500 
L 800 3500 
L 1894 563 
L 2988 3500 
L 3597 3500 
L 2284 0 
L 1503 0 
L 191 3500 
z
" transform="scale(0.015625)"/>
       <path id="DejaVuSans-6c" d="M 603 4863 
L 1178 4863 
L 1178 0 
L 603 0 
L 603 4863 
z
" transform="scale(0.015625)"/>
       <path id="DejaVuSans-67" d="M 2906 1791 
Q 2906 2416 2648 2759 
Q 2391 3103 1925 3103 
Q 1463 3103 1205 2759 
Q 947 2416 947 1791 
Q 947 1169 1205 825 
Q 1463 481 1925 481 
Q 2391 481 2648 825 
Q 2906 1169 2906 1791 
z
M 3481 434 
Q 3481 -459 3084 -895 
Q 2688 -1331 1869 -1331 
Q 1566 -1331 1297 -1286 
Q 1028 -1241 775 -1147 
L 775 -588 
Q 1028 -725 1275 -790 
Q 1522 -856 1778 -856 
Q 2344 -856 2625 -561 
Q 2906 -266 2906 331 
L 2906 616 
Q 2728 306 2450 153 
Q 2172 0 1784 0 
Q 1141 0 747 490 
Q 353 981 353 1791 
Q 353 2603 747 3093 
Q 1141 3584 1784 3584 
Q 2172 3584 2450 3431 
Q 2728 3278 2906 2969 
L 2906 3500 
L 3481 3500 
L 3481 434 
z
" transform="scale(0.015625)"/>
       <path id="DejaVuSans-68" d="M 3513 2113 
L 3513 0 
L 2938 0 
L 2938 2094 
Q 2938 2591 2744 2837 
Q 2550 3084 2163 3084 
Q 1697 3084 1428 2787 
Q 1159 2491 1159 1978 
L 1159 0 
L 581 0 
L 581 4863 
L 1159 4863 
L 1159 2956 
Q 1366 3272 1645 3428 
Q 1925 3584 2291 3584 
Q 2894 3584 3203 3211 
Q 3513 2838 3513 2113 
z
" transform="scale(0.015625)"/>
       <path id="DejaVuSans-53" d="M 3425 4513 
L 3425 3897 
Q 3066 4069 2747 4153 
Q 2428 4238 2131 4238 
Q 1616 4238 1336 4038 
Q 1056 3838 1056 3469 
Q 1056 3159 1242 3001 
Q 1428 2844 1947 2747 
L 2328 2669 
Q 3034 2534 3370 2195 
Q 3706 1856 3706 1288 
Q 3706 609 3251 259 
Q 2797 -91 1919 -91 
Q 1588 -91 1214 -16 
Q 841 59 441 206 
L 441 856 
Q 825 641 1194 531 
Q 1563 422 1919 422 
Q 2459 422 2753 634 
Q 3047 847 3047 1241 
Q 3047 1584 2836 1778 
Q 2625 1972 2144 2069 
L 1759 2144 
Q 1053 2284 737 2584 
Q 422 2884 422 3419 
Q 422 4038 858 4394 
Q 1294 4750 2059 4750 
Q 2388 4750 2728 4690 
Q 3069 4631 3425 4513 
z
" transform="scale(0.015625)"/>
       <path id="DejaVuSans-64" d="M 2906 2969 
L 2906 4863 
L 3481 4863 
L 3481 0 
L 2906 0 
L 2906 525 
Q 2725 213 2448 61 
Q 2172 -91 1784 -91 
Q 1150 -91 751 415 
Q 353 922 353 1747 
Q 353 2572 751 3078 
Q 1150 3584 1784 3584 
Q 2172 3584 2448 3432 
Q 2725 3281 2906 2969 
z
M 947 1747 
Q 947 1113 1208 752 
Q 1469 391 1925 391 
Q 2381 391 2643 752 
Q 2906 1113 2906 1747 
Q 2906 2381 2643 2742 
Q 2381 3103 1925 3103 
Q 1469 3103 1208 2742 
Q 947 2381 947 1747 
z
" transform="scale(0.015625)"/>
       <path id="DejaVuSans-72" d="M 2631 2963 
Q 2534 3019 2420 3045 
Q 2306 3072 2169 3072 
Q 1681 3072 1420 2755 
Q 1159 2438 1159 1844 
L 1159 0 
L 581 0 
L 581 3500 
L 1159 3500 
L 1159 2956 
Q 1341 3275 1631 3429 
Q 1922 3584 2338 3584 
Q 2397 3584 2469 3576 
Q 2541 3569 2628 3553 
L 2631 2963 
z
" transform="scale(0.015625)"/>
       <path id="DejaVuSans-78" d="M 3513 3500 
L 2247 1797 
L 3578 0 
L 2900 0 
L 1881 1375 
L 863 0 
L 184 0 
L 1544 1831 
L 300 3500 
L 978 3500 
L 1906 2253 
L 2834 3500 
L 3513 3500 
z
" transform="scale(0.015625)"/>
       <path id="DejaVuSans-6d" d="M 3328 2828 
Q 3544 3216 3844 3400 
Q 4144 3584 4550 3584 
Q 5097 3584 5394 3201 
Q 5691 2819 5691 2113 
L 5691 0 
L 5113 0 
L 5113 2094 
Q 5113 2597 4934 2840 
Q 4756 3084 4391 3084 
Q 3944 3084 3684 2787 
Q 3425 2491 3425 1978 
L 3425 0 
L 2847 0 
L 2847 2094 
Q 2847 2600 2669 2842 
Q 2491 3084 2119 3084 
Q 1678 3084 1418 2786 
Q 1159 2488 1159 1978 
L 1159 0 
L 581 0 
L 581 3500 
L 1159 3500 
L 1159 2956 
Q 1356 3278 1631 3431 
Q 1906 3584 2284 3584 
Q 2666 3584 2933 3390 
Q 3200 3197 3328 2828 
z
" transform="scale(0.015625)"/>
       <path id="DejaVuSans-52" d="M 2841 2188 
Q 3044 2119 3236 1894 
Q 3428 1669 3622 1275 
L 4263 0 
L 3584 0 
L 2988 1197 
Q 2756 1666 2539 1819 
Q 2322 1972 1947 1972 
L 1259 1972 
L 1259 0 
L 628 0 
L 628 4666 
L 2053 4666 
Q 2853 4666 3247 4331 
Q 3641 3997 3641 3322 
Q 3641 2881 3436 2590 
Q 3231 2300 2841 2188 
z
M 1259 4147 
L 1259 2491 
L 2053 2491 
Q 2509 2491 2742 2702 
Q 2975 2913 2975 3322 
Q 2975 3731 2742 3939 
Q 2509 4147 2053 4147 
L 1259 4147 
z
" transform="scale(0.015625)"/>
       <path id="DejaVuSans-2c" d="M 750 794 
L 1409 794 
L 1409 256 
L 897 -744 
L 494 -744 
L 750 256 
L 750 794 
z
" transform="scale(0.015625)"/>
       <path id="DejaVuSans-4e" d="M 628 4666 
L 1478 4666 
L 3547 763 
L 3547 4666 
L 4159 4666 
L 4159 0 
L 3309 0 
L 1241 3903 
L 1241 0 
L 628 0 
L 628 4666 
z
" transform="scale(0.015625)"/>
      </defs>
      <use xlink:href="#DejaVuSans-65"/>
      <use xlink:href="#DejaVuSans-73" x="61.523438"/>
      <use xlink:href="#DejaVuSans-73" x="113.623047"/>
      <use xlink:href="#DejaVuSans-2e" x="165.722656"/>
      <use xlink:href="#DejaVuSans-73" x="197.509766"/>
      <use xlink:href="#DejaVuSans-61" x="249.609375"/>
      <use xlink:href="#DejaVuSans-6e" x="310.888672"/>
      <use xlink:href="#DejaVuSans-73" x="374.267578"/>
      <use xlink:href="#DejaVuSans-2e" x="426.367188"/>
      <use xlink:href="#DejaVuSans-74" x="458.154297"/>
      <use xlink:href="#DejaVuSans-79" x="497.363281"/>
      <use xlink:href="#DejaVuSans-70" x="556.542969"/>
      <use xlink:href="#DejaVuSans-65" x="620.019531"/>
      <use xlink:href="#DejaVuSans-73" x="681.542969"/>
      <use xlink:href="#DejaVuSans-2e" x="733.642578"/>
      <use xlink:href="#DejaVuSans-57" x="765.429688"/>
      <use xlink:href="#DejaVuSans-61" x="857.931641"/>
      <use xlink:href="#DejaVuSans-76" x="919.210938"/>
      <use xlink:href="#DejaVuSans-65" x="978.390625"/>
      <use xlink:href="#DejaVuSans-6c" x="1039.914062"/>
      <use xlink:href="#DejaVuSans-65" x="1067.697266"/>
      <use xlink:href="#DejaVuSans-6e" x="1129.220703"/>
      <use xlink:href="#DejaVuSans-67" x="1192.599609"/>
      <use xlink:href="#DejaVuSans-74" x="1256.076172"/>
      <use xlink:href="#DejaVuSans-68" x="1295.285156"/>
      <use xlink:href="#DejaVuSans-53" x="1358.664062"/>
      <use xlink:href="#DejaVuSans-63" x="1422.140625"/>
      <use xlink:href="#DejaVuSans-61" x="1477.121094"/>
      <use xlink:href="#DejaVuSans-6c" x="1538.400391"/>
      <use xlink:href="#DejaVuSans-65" x="1566.183594"/>
      <use xlink:href="#DejaVuSans-64" x="1627.707031"/>
      <use xlink:href="#DejaVuSans-51" x="1691.183594"/>
      <use xlink:href="#DejaVuSans-5b" x="1769.894531"/>
      <use xlink:href="#DejaVuSans-65" x="1808.908203"/>
      <use xlink:href="#DejaVuSans-73" x="1870.431641"/>
      <use xlink:href="#DejaVuSans-73" x="1922.53125"/>
      <use xlink:href="#DejaVuSans-2e" x="1974.630859"/>
      <use xlink:href="#DejaVuSans-72" x="2006.417969"/>
      <use xlink:href="#DejaVuSans-65" x="2045.28125"/>
      <use xlink:href="#DejaVuSans-64" x="2106.804688"/>
      <use xlink:href="#DejaVuSans-75" x="2170.28125"/>
      <use xlink:href="#DejaVuSans-63" x="2233.660156"/>
      <use xlink:href="#DejaVuSans-65" x="2288.640625"/>
      <use xlink:href="#DejaVuSans-2e" x="2350.164062"/>
      <use xlink:href="#DejaVuSans-6e" x="2381.951172"/>
      <use xlink:href="#DejaVuSans-65" x="2445.330078"/>
      <use xlink:href="#DejaVuSans-78" x="2505.103516"/>
      <use xlink:href="#DejaVuSans-75" x="2564.283203"/>
      <use xlink:href="#DejaVuSans-73" x="2627.662109"/>
      <use xlink:href="#DejaVuSans-2e" x="2679.761719"/>
      <use xlink:href="#DejaVuSans-74" x="2711.548828"/>
      <use xlink:href="#DejaVuSans-79" x="2750.757812"/>
      <use xlink:href="#DejaVuSans-70" x="2809.9375"/>
      <use xlink:href="#DejaVuSans-65" x="2873.414062"/>
      <use xlink:href="#DejaVuSans-73" x="2934.9375"/>
      <use xlink:href="#DejaVuSans-2e" x="2987.037109"/>
      <use xlink:href="#DejaVuSans-53" x="3018.824219"/>
      <use xlink:href="#DejaVuSans-61" x="3082.300781"/>
      <use xlink:href="#DejaVuSans-6d" x="3143.580078"/>
      <use xlink:href="#DejaVuSans-70" x="3240.992188"/>
      <use xlink:href="#DejaVuSans-6c" x="3304.46875"/>
      <use xlink:href="#DejaVuSans-65" x="3332.251953"/>
      <use xlink:href="#DejaVuSans-52" x="3393.775391"/>
      <use xlink:href="#DejaVuSans-75" x="3458.757812"/>
      <use xlink:href="#DejaVuSans-6e" x="3522.136719"/>
      <use xlink:href="#DejaVuSans-2c" x="3585.515625"/>
      <use xlink:href="#DejaVuSans-20" x="3617.302734"/>
      <use xlink:href="#DejaVuSans-65" x="3649.089844"/>
      <use xlink:href="#DejaVuSans-73" x="3710.613281"/>
      <use xlink:href="#DejaVuSans-73" x="3762.712891"/>
      <use xlink:href="#DejaVuSans-2e" x="3814.8125"/>
      <use xlink:href="#DejaVuSans-73" x="3846.599609"/>
      <use xlink:href="#DejaVuSans-61" x="3898.699219"/>
      <use xlink:href="#DejaVuSans-6e" x="3959.978516"/>
      <use xlink:href="#DejaVuSans-73" x="4023.357422"/>
      <use xlink:href="#DejaVuSans-2e" x="4075.457031"/>
      <use xlink:href="#DejaVuSans-74" x="4107.244141"/>
      <use xlink:href="#DejaVuSans-79" x="4146.453125"/>
      <use xlink:href="#DejaVuSans-70" x="4205.632812"/>
      <use xlink:href="#DejaVuSans-65" x="4269.109375"/>
      <use xlink:href="#DejaVuSans-73" x="4330.632812"/>
      <use xlink:href="#DejaVuSans-2e" x="4382.732422"/>
      <use xlink:href="#DejaVuSans-4e" x="4414.519531"/>
      <use xlink:href="#DejaVuSans-75" x="4489.324219"/>
      <use xlink:href="#DejaVuSans-6d" x="4552.703125"/>
      <use xlink:href="#DejaVuSans-65" x="4650.115234"/>
      <use xlink:href="#DejaVuSans-72" x="4711.638672"/>
      <use xlink:href="#DejaVuSans-61" x="4752.751953"/>
      <use xlink:href="#DejaVuSans-74" x="4814.03125"/>
      <use xlink:href="#DejaVuSans-6f" x="4853.240234"/>
      <use xlink:href="#DejaVuSans-72" x="4914.421875"/>
      <use xlink:href="#DejaVuSans-5d" x="4955.535156"/>
     </g>
    </g>
    <g id="line2d_32">
     <path d="M 60.378125 214.380312 
L 60.378125 214.380312 
L 70.378125 214.380312 
L 70.378125 214.380312 
L 80.378125 214.380312 
" style="fill: none; stroke: #ff7f0e; stroke-width: 1.5; stroke-linecap: square"/>
    </g>
    <g id="text_12">
     <!-- ess.sans.types.WavelengthScaledQ[ess.reduce.nexus.types.SampleRun, ess.sans.types.Denominator] -->
     <g transform="translate(88.378125 217.880312) scale(0.1 -0.1)">
      <defs>
       <path id="DejaVuSans-44" d="M 1259 4147 
L 1259 519 
L 2022 519 
Q 2988 519 3436 956 
Q 3884 1394 3884 2338 
Q 3884 3275 3436 3711 
Q 2988 4147 2022 4147 
L 1259 4147 
z
M 628 4666 
L 1925 4666 
Q 3281 4666 3915 4102 
Q 4550 3538 4550 2338 
Q 4550 1131 3912 565 
Q 3275 0 1925 0 
L 628 0 
L 628 4666 
z
" transform="scale(0.015625)"/>
       <path id="DejaVuSans-69" d="M 603 3500 
L 1178 3500 
L 1178 0 
L 603 0 
L 603 3500 
z
M 603 4863 
L 1178 4863 
L 1178 4134 
L 603 4134 
L 603 4863 
z
" transform="scale(0.015625)"/>
      </defs>
      <use xlink:href="#DejaVuSans-65"/>
      <use xlink:href="#DejaVuSans-73" x="61.523438"/>
      <use xlink:href="#DejaVuSans-73" x="113.623047"/>
      <use xlink:href="#DejaVuSans-2e" x="165.722656"/>
      <use xlink:href="#DejaVuSans-73" x="197.509766"/>
      <use xlink:href="#DejaVuSans-61" x="249.609375"/>
      <use xlink:href="#DejaVuSans-6e" x="310.888672"/>
      <use xlink:href="#DejaVuSans-73" x="374.267578"/>
      <use xlink:href="#DejaVuSans-2e" x="426.367188"/>
      <use xlink:href="#DejaVuSans-74" x="458.154297"/>
      <use xlink:href="#DejaVuSans-79" x="497.363281"/>
      <use xlink:href="#DejaVuSans-70" x="556.542969"/>
      <use xlink:href="#DejaVuSans-65" x="620.019531"/>
      <use xlink:href="#DejaVuSans-73" x="681.542969"/>
      <use xlink:href="#DejaVuSans-2e" x="733.642578"/>
      <use xlink:href="#DejaVuSans-57" x="765.429688"/>
      <use xlink:href="#DejaVuSans-61" x="857.931641"/>
      <use xlink:href="#DejaVuSans-76" x="919.210938"/>
      <use xlink:href="#DejaVuSans-65" x="978.390625"/>
      <use xlink:href="#DejaVuSans-6c" x="1039.914062"/>
      <use xlink:href="#DejaVuSans-65" x="1067.697266"/>
      <use xlink:href="#DejaVuSans-6e" x="1129.220703"/>
      <use xlink:href="#DejaVuSans-67" x="1192.599609"/>
      <use xlink:href="#DejaVuSans-74" x="1256.076172"/>
      <use xlink:href="#DejaVuSans-68" x="1295.285156"/>
      <use xlink:href="#DejaVuSans-53" x="1358.664062"/>
      <use xlink:href="#DejaVuSans-63" x="1422.140625"/>
      <use xlink:href="#DejaVuSans-61" x="1477.121094"/>
      <use xlink:href="#DejaVuSans-6c" x="1538.400391"/>
      <use xlink:href="#DejaVuSans-65" x="1566.183594"/>
      <use xlink:href="#DejaVuSans-64" x="1627.707031"/>
      <use xlink:href="#DejaVuSans-51" x="1691.183594"/>
      <use xlink:href="#DejaVuSans-5b" x="1769.894531"/>
      <use xlink:href="#DejaVuSans-65" x="1808.908203"/>
      <use xlink:href="#DejaVuSans-73" x="1870.431641"/>
      <use xlink:href="#DejaVuSans-73" x="1922.53125"/>
      <use xlink:href="#DejaVuSans-2e" x="1974.630859"/>
      <use xlink:href="#DejaVuSans-72" x="2006.417969"/>
      <use xlink:href="#DejaVuSans-65" x="2045.28125"/>
      <use xlink:href="#DejaVuSans-64" x="2106.804688"/>
      <use xlink:href="#DejaVuSans-75" x="2170.28125"/>
      <use xlink:href="#DejaVuSans-63" x="2233.660156"/>
      <use xlink:href="#DejaVuSans-65" x="2288.640625"/>
      <use xlink:href="#DejaVuSans-2e" x="2350.164062"/>
      <use xlink:href="#DejaVuSans-6e" x="2381.951172"/>
      <use xlink:href="#DejaVuSans-65" x="2445.330078"/>
      <use xlink:href="#DejaVuSans-78" x="2505.103516"/>
      <use xlink:href="#DejaVuSans-75" x="2564.283203"/>
      <use xlink:href="#DejaVuSans-73" x="2627.662109"/>
      <use xlink:href="#DejaVuSans-2e" x="2679.761719"/>
      <use xlink:href="#DejaVuSans-74" x="2711.548828"/>
      <use xlink:href="#DejaVuSans-79" x="2750.757812"/>
      <use xlink:href="#DejaVuSans-70" x="2809.9375"/>
      <use xlink:href="#DejaVuSans-65" x="2873.414062"/>
      <use xlink:href="#DejaVuSans-73" x="2934.9375"/>
      <use xlink:href="#DejaVuSans-2e" x="2987.037109"/>
      <use xlink:href="#DejaVuSans-53" x="3018.824219"/>
      <use xlink:href="#DejaVuSans-61" x="3082.300781"/>
      <use xlink:href="#DejaVuSans-6d" x="3143.580078"/>
      <use xlink:href="#DejaVuSans-70" x="3240.992188"/>
      <use xlink:href="#DejaVuSans-6c" x="3304.46875"/>
      <use xlink:href="#DejaVuSans-65" x="3332.251953"/>
      <use xlink:href="#DejaVuSans-52" x="3393.775391"/>
      <use xlink:href="#DejaVuSans-75" x="3458.757812"/>
      <use xlink:href="#DejaVuSans-6e" x="3522.136719"/>
      <use xlink:href="#DejaVuSans-2c" x="3585.515625"/>
      <use xlink:href="#DejaVuSans-20" x="3617.302734"/>
      <use xlink:href="#DejaVuSans-65" x="3649.089844"/>
      <use xlink:href="#DejaVuSans-73" x="3710.613281"/>
      <use xlink:href="#DejaVuSans-73" x="3762.712891"/>
      <use xlink:href="#DejaVuSans-2e" x="3814.8125"/>
      <use xlink:href="#DejaVuSans-73" x="3846.599609"/>
      <use xlink:href="#DejaVuSans-61" x="3898.699219"/>
      <use xlink:href="#DejaVuSans-6e" x="3959.978516"/>
      <use xlink:href="#DejaVuSans-73" x="4023.357422"/>
      <use xlink:href="#DejaVuSans-2e" x="4075.457031"/>
      <use xlink:href="#DejaVuSans-74" x="4107.244141"/>
      <use xlink:href="#DejaVuSans-79" x="4146.453125"/>
      <use xlink:href="#DejaVuSans-70" x="4205.632812"/>
      <use xlink:href="#DejaVuSans-65" x="4269.109375"/>
      <use xlink:href="#DejaVuSans-73" x="4330.632812"/>
      <use xlink:href="#DejaVuSans-2e" x="4382.732422"/>
      <use xlink:href="#DejaVuSans-44" x="4414.519531"/>
      <use xlink:href="#DejaVuSans-65" x="4491.521484"/>
      <use xlink:href="#DejaVuSans-6e" x="4553.044922"/>
      <use xlink:href="#DejaVuSans-6f" x="4616.423828"/>
      <use xlink:href="#DejaVuSans-6d" x="4677.605469"/>
      <use xlink:href="#DejaVuSans-69" x="4775.017578"/>
      <use xlink:href="#DejaVuSans-6e" x="4802.800781"/>
      <use xlink:href="#DejaVuSans-61" x="4866.179688"/>
      <use xlink:href="#DejaVuSans-74" x="4927.458984"/>
      <use xlink:href="#DejaVuSans-6f" x="4966.667969"/>
      <use xlink:href="#DejaVuSans-72" x="5027.849609"/>
      <use xlink:href="#DejaVuSans-5d" x="5068.962891"/>
     </g>
    </g>
   </g>
   <g id="line2d_33">
    <path d="M 68.770333 268.439687 
L 68.770333 131.139763 
L 70.944359 131.139763 
L 70.944359 112.852942 
L 73.118385 112.852942 
L 73.118385 107.63942 
L 75.292411 107.63942 
L 75.292411 104.961713 
L 77.466437 104.961713 
L 77.466437 98.287694 
L 79.640463 98.287694 
L 79.640463 91.213386 
L 81.814489 91.213386 
L 81.814489 87.634558 
L 83.988515 87.634558 
L 83.988515 83.353609 
L 86.162541 83.353609 
L 86.162541 78.544913 
L 88.336567 78.544913 
L 88.336567 76.232159 
L 90.510593 76.232159 
L 90.510593 73.202422 
L 92.684619 73.202422 
L 92.684619 69.492507 
L 94.858644 69.492507 
L 94.858644 67.795021 
L 97.03267 67.795021 
L 97.03267 66.429619 
L 99.206696 66.429619 
L 99.206696 63.615745 
L 101.380722 63.615745 
L 101.380722 61.044743 
L 103.554748 61.044743 
L 103.554748 59.712491 
L 105.728774 59.712491 
L 105.728774 57.168292 
L 107.9028 57.168292 
L 107.9028 55.970227 
L 110.076826 55.970227 
L 110.076826 54.261287 
L 112.250852 54.261287 
L 112.250852 52.339672 
L 114.424878 52.339672 
L 114.424878 51.173337 
L 116.598904 51.173337 
L 116.598904 49.104746 
L 118.77293 49.104746 
L 118.77293 47.670876 
L 120.946956 47.670876 
L 120.946956 45.787676 
L 123.120982 45.787676 
L 123.120982 44.151649 
L 125.295008 44.151649 
L 125.295008 42.996095 
L 127.469034 42.996095 
L 127.469034 41.050506 
L 129.64306 41.050506 
L 129.64306 39.995874 
L 131.817086 39.995874 
L 131.817086 38.365659 
L 133.991112 38.365659 
L 133.991112 36.908309 
L 136.165138 36.908309 
L 136.165138 35.843275 
L 138.339164 35.843275 
L 138.339164 34.45127 
L 140.51319 34.45127 
L 140.51319 33.098641 
L 142.687216 33.098641 
L 142.687216 31.877016 
L 144.861242 31.877016 
L 144.861242 30.677692 
L 147.035268 30.677692 
L 147.035268 29.615824 
L 149.209294 29.615824 
L 149.209294 28.518115 
L 151.38332 28.518115 
L 151.38332 27.591768 
L 153.557346 27.591768 
L 153.557346 26.576223 
L 155.731372 26.576223 
L 155.731372 25.709443 
L 157.905398 25.709443 
L 157.905398 24.703237 
L 160.079424 24.703237 
L 160.079424 23.781047 
L 162.25345 23.781047 
L 162.25345 23.038885 
L 164.427476 23.038885 
L 164.427476 22.251194 
L 166.601502 22.251194 
L 166.601502 21.44973 
L 168.775528 21.44973 
L 168.775528 20.798247 
L 170.949554 20.798247 
L 170.949554 20.033093 
L 173.12358 20.033093 
L 173.12358 19.397303 
L 175.297606 19.397303 
L 175.297606 18.790351 
L 177.471631 18.790351 
L 177.471631 18.193048 
L 179.645657 18.193048 
L 179.645657 17.722003 
L 181.819683 17.722003 
L 181.819683 17.196254 
L 183.993709 17.196254 
L 183.993709 16.709496 
L 186.167735 16.709496 
L 186.167735 16.279745 
L 188.341761 16.279745 
L 188.341761 15.844277 
L 190.515787 15.844277 
L 190.515787 15.478813 
L 192.689813 15.478813 
L 192.689813 15.210644 
L 194.863839 15.210644 
L 194.863839 14.94296 
L 197.037865 14.94296 
L 197.037865 14.623386 
L 199.211891 14.623386 
L 199.211891 14.384751 
L 201.385917 14.384751 
L 201.385917 14.176284 
L 203.559943 14.176284 
L 203.559943 14.046289 
L 205.733969 14.046289 
L 205.733969 13.827385 
L 207.907995 13.827385 
L 207.907995 13.654293 
L 210.082021 13.654293 
L 210.082021 13.512577 
L 214.430073 13.435745 
L 214.430073 13.318256 
L 218.778125 13.2358 
L 218.778125 13.075179 
L 227.474229 12.970059 
L 227.474229 12.961841 
L 229.648255 12.961841 
L 229.648255 12.845781 
L 240.518385 12.901461 
L 240.518385 13.004531 
L 247.040463 13.052892 
L 247.040463 13.14593 
L 251.388515 13.210322 
L 251.388515 13.348568 
L 255.736567 13.432343 
L 255.736567 13.58979 
L 257.910593 13.58979 
L 257.910593 13.747433 
L 262.258644 13.842368 
L 262.258644 13.995639 
L 264.43267 13.995639 
L 264.43267 14.22049 
L 266.606696 14.22049 
L 266.606696 14.378275 
L 268.780722 14.378275 
L 268.780722 14.588712 
L 270.954748 14.588712 
L 270.954748 14.894595 
L 275.3028 14.995985 
L 275.3028 15.280654 
L 277.476826 15.280654 
L 277.476826 15.568805 
L 279.650852 15.568805 
L 279.650852 15.871551 
L 281.824878 15.871551 
L 281.824878 16.148121 
L 283.998904 16.148121 
L 283.998904 16.447168 
L 286.17293 16.447168 
L 286.17293 16.761894 
L 288.346956 16.761894 
L 288.346956 17.121177 
L 290.520982 17.121177 
L 290.520982 17.479732 
L 292.695008 17.479732 
L 292.695008 17.886411 
L 294.869034 17.886411 
L 294.869034 18.289183 
L 297.04306 18.289183 
L 297.04306 18.654304 
L 299.217086 18.654304 
L 299.217086 19.098286 
L 301.391112 19.098286 
L 301.391112 19.597907 
L 303.565138 19.597907 
L 303.565138 20.105924 
L 305.739164 20.105924 
L 305.739164 20.624558 
L 307.91319 20.624558 
L 307.91319 21.217401 
L 310.087216 21.217401 
L 310.087216 21.675125 
L 312.261242 21.675125 
L 312.261242 22.422077 
L 314.435268 22.422077 
L 314.435268 22.956154 
L 316.609294 22.956154 
L 316.609294 23.554996 
L 318.78332 23.554996 
L 318.78332 24.112835 
L 320.957346 24.112835 
L 320.957346 24.954686 
L 323.131372 24.954686 
L 323.131372 25.732116 
L 325.305398 25.732116 
L 325.305398 26.408998 
L 327.479424 26.408998 
L 327.479424 27.126325 
L 329.65345 27.126325 
L 329.65345 28.044644 
L 331.827476 28.044644 
L 331.827476 28.892421 
L 334.001502 28.892421 
L 334.001502 29.958996 
L 336.175528 29.958996 
L 336.175528 30.97684 
L 338.349554 30.97684 
L 338.349554 31.96209 
L 340.52358 31.96209 
L 340.52358 33.262074 
L 342.697606 33.262074 
L 342.697606 34.505534 
L 344.871631 34.505534 
L 344.871631 35.775181 
L 347.045657 35.775181 
L 347.045657 37.292645 
L 349.219683 37.292645 
L 349.219683 38.642162 
L 351.393709 38.642162 
L 351.393709 40.334986 
L 353.567735 40.334986 
L 353.567735 41.639155 
L 355.741761 41.639155 
L 355.741761 43.457517 
L 357.915787 43.457517 
L 357.915787 44.800869 
L 360.089813 44.800869 
L 360.089813 46.268021 
L 362.263839 46.268021 
L 362.263839 47.685208 
L 364.437865 47.685208 
L 364.437865 49.358409 
L 366.611891 49.358409 
L 366.611891 50.969489 
L 368.785917 50.969489 
L 368.785917 52.435162 
L 370.959943 52.435162 
L 370.959943 52.435162 
" clip-path="url(#p98af9fffd7)" style="fill: none; stroke: #1f77b4; stroke-width: 1.5; stroke-linecap: square"/>
   </g>
   <g id="LineCollection_1">
    <path clip-path="url(#p98af9fffd7)" style="fill: none; stroke: #1f77b4; stroke-width: 1.5"/>
    <path d="M 69.86763 268.439687 
L 69.86763 124.065455 
" clip-path="url(#p98af9fffd7)" style="fill: none; stroke: #1f77b4; stroke-width: 1.5"/>
    <path d="M 72.041656 118.207741 
L 72.041656 109.358929 
" clip-path="url(#p98af9fffd7)" style="fill: none; stroke: #1f77b4; stroke-width: 1.5"/>
    <path d="M 74.215682 111.519058 
L 74.215682 104.8351 
" clip-path="url(#p98af9fffd7)" style="fill: none; stroke: #1f77b4; stroke-width: 1.5"/>
    <path d="M 76.389708 108.276954 
L 76.389708 102.463393 
" clip-path="url(#p98af9fffd7)" style="fill: none; stroke: #1f77b4; stroke-width: 1.5"/>
    <path d="M 78.563734 100.565113 
L 78.563734 96.426908 
" clip-path="url(#p98af9fffd7)" style="fill: none; stroke: #1f77b4; stroke-width: 1.5"/>
    <path d="M 80.73776 92.769577 
L 80.73776 89.863386 
" clip-path="url(#p98af9fffd7)" style="fill: none; stroke: #1f77b4; stroke-width: 1.5"/>
    <path d="M 82.911786 88.923915 
L 82.911786 86.48997 
" clip-path="url(#p98af9fffd7)" style="fill: none; stroke: #1f77b4; stroke-width: 1.5"/>
    <path d="M 85.085812 84.386206 
L 85.085812 82.415952 
" clip-path="url(#p98af9fffd7)" style="fill: none; stroke: #1f77b4; stroke-width: 1.5"/>
    <path d="M 87.259837 79.35195 
L 87.259837 77.797043 
" clip-path="url(#p98af9fffd7)" style="fill: none; stroke: #1f77b4; stroke-width: 1.5"/>
    <path d="M 89.433863 76.949631 
L 89.433863 75.561829 
" clip-path="url(#p98af9fffd7)" style="fill: none; stroke: #1f77b4; stroke-width: 1.5"/>
    <path d="M 91.607889 73.817877 
L 91.607889 72.62198 
" clip-path="url(#p98af9fffd7)" style="fill: none; stroke: #1f77b4; stroke-width: 1.5"/>
    <path d="M 93.781915 70.003072 
L 93.781915 69.00627 
" clip-path="url(#p98af9fffd7)" style="fill: none; stroke: #1f77b4; stroke-width: 1.5"/>
    <path d="M 95.955941 68.263894 
L 95.955941 67.346745 
" clip-path="url(#p98af9fffd7)" style="fill: none; stroke: #1f77b4; stroke-width: 1.5"/>
    <path d="M 98.129967 66.867494 
L 98.129967 66.00976 
" clip-path="url(#p98af9fffd7)" style="fill: none; stroke: #1f77b4; stroke-width: 1.5"/>
    <path d="M 100.303993 63.996169 
L 100.303993 63.248994 
" clip-path="url(#p98af9fffd7)" style="fill: none; stroke: #1f77b4; stroke-width: 1.5"/>
    <path d="M 102.478019 61.379398 
L 102.478019 60.720713 
" clip-path="url(#p98af9fffd7)" style="fill: none; stroke: #1f77b4; stroke-width: 1.5"/>
    <path d="M 104.652045 60.025674 
L 104.652045 59.408633 
" clip-path="url(#p98af9fffd7)" style="fill: none; stroke: #1f77b4; stroke-width: 1.5"/>
    <path d="M 106.826071 57.444273 
L 106.826071 56.899578 
" clip-path="url(#p98af9fffd7)" style="fill: none; stroke: #1f77b4; stroke-width: 1.5"/>
    <path d="M 109.000097 56.230274 
L 109.000097 55.716641 
" clip-path="url(#p98af9fffd7)" style="fill: none; stroke: #1f77b4; stroke-width: 1.5"/>
    <path d="M 111.174123 54.500202 
L 111.174123 54.027837 
" clip-path="url(#p98af9fffd7)" style="fill: none; stroke: #1f77b4; stroke-width: 1.5"/>
    <path d="M 113.348149 52.556891 
L 113.348149 52.126979 
" clip-path="url(#p98af9fffd7)" style="fill: none; stroke: #1f77b4; stroke-width: 1.5"/>
    <path d="M 115.522175 51.378371 
L 115.522175 50.972341 
" clip-path="url(#p98af9fffd7)" style="fill: none; stroke: #1f77b4; stroke-width: 1.5"/>
    <path d="M 117.696201 49.289839 
L 117.696201 48.92295 
" clip-path="url(#p98af9fffd7)" style="fill: none; stroke: #1f77b4; stroke-width: 1.5"/>
    <path d="M 119.870227 47.843306 
L 119.870227 47.50131 
" clip-path="url(#p98af9fffd7)" style="fill: none; stroke: #1f77b4; stroke-width: 1.5"/>
    <path d="M 122.044253 45.944792 
L 122.044253 45.632941 
" clip-path="url(#p98af9fffd7)" style="fill: none; stroke: #1f77b4; stroke-width: 1.5"/>
    <path d="M 124.218279 44.296577 
L 124.218279 44.008749 
" clip-path="url(#p98af9fffd7)" style="fill: none; stroke: #1f77b4; stroke-width: 1.5"/>
    <path d="M 126.392305 43.132993 
L 126.392305 42.861009 
" clip-path="url(#p98af9fffd7)" style="fill: none; stroke: #1f77b4; stroke-width: 1.5"/>
    <path d="M 128.566331 41.174882 
L 128.566331 40.927627 
" clip-path="url(#p98af9fffd7)" style="fill: none; stroke: #1f77b4; stroke-width: 1.5"/>
    <path d="M 130.740357 40.11395 
L 130.740357 39.879148 
" clip-path="url(#p98af9fffd7)" style="fill: none; stroke: #1f77b4; stroke-width: 1.5"/>
    <path d="M 132.914383 38.474624 
L 132.914383 38.257845 
" clip-path="url(#p98af9fffd7)" style="fill: none; stroke: #1f77b4; stroke-width: 1.5"/>
    <path d="M 135.088409 37.009728 
L 135.088409 36.807888 
" clip-path="url(#p98af9fffd7)" style="fill: none; stroke: #1f77b4; stroke-width: 1.5"/>
    <path d="M 137.262435 35.939514 
L 137.262435 35.747935 
" clip-path="url(#p98af9fffd7)" style="fill: none; stroke: #1f77b4; stroke-width: 1.5"/>
    <path d="M 139.436461 34.541136 
L 139.436461 34.362188 
" clip-path="url(#p98af9fffd7)" style="fill: none; stroke: #1f77b4; stroke-width: 1.5"/>
    <path d="M 141.610487 33.182721 
L 141.610487 33.015248 
" clip-path="url(#p98af9fffd7)" style="fill: none; stroke: #1f77b4; stroke-width: 1.5"/>
    <path d="M 143.784513 31.956193 
L 143.784513 31.798449 
" clip-path="url(#p98af9fffd7)" style="fill: none; stroke: #1f77b4; stroke-width: 1.5"/>
    <path d="M 145.958539 30.752334 
L 145.958539 30.603592 
" clip-path="url(#p98af9fffd7)" style="fill: none; stroke: #1f77b4; stroke-width: 1.5"/>
    <path d="M 148.132565 29.686669 
L 148.132565 29.545467 
" clip-path="url(#p98af9fffd7)" style="fill: none; stroke: #1f77b4; stroke-width: 1.5"/>
    <path d="M 150.306591 28.585239 
L 150.306591 28.451429 
" clip-path="url(#p98af9fffd7)" style="fill: none; stroke: #1f77b4; stroke-width: 1.5"/>
    <path d="M 152.480617 27.655904 
L 152.480617 27.528032 
" clip-path="url(#p98af9fffd7)" style="fill: none; stroke: #1f77b4; stroke-width: 1.5"/>
    <path d="M 154.654643 26.637237 
L 154.654643 26.515571 
" clip-path="url(#p98af9fffd7)" style="fill: none; stroke: #1f77b4; stroke-width: 1.5"/>
    <path d="M 156.828669 25.767913 
L 156.828669 25.651305 
" clip-path="url(#p98af9fffd7)" style="fill: none; stroke: #1f77b4; stroke-width: 1.5"/>
    <path d="M 159.002695 24.758888 
L 159.002695 24.647888 
" clip-path="url(#p98af9fffd7)" style="fill: none; stroke: #1f77b4; stroke-width: 1.5"/>
    <path d="M 161.176721 23.834232 
L 161.176721 23.728137 
" clip-path="url(#p98af9fffd7)" style="fill: none; stroke: #1f77b4; stroke-width: 1.5"/>
    <path d="M 163.350747 23.090167 
L 163.350747 22.98786 
" clip-path="url(#p98af9fffd7)" style="fill: none; stroke: #1f77b4; stroke-width: 1.5"/>
    <path d="M 165.524773 22.30053 
L 165.524773 22.202095 
" clip-path="url(#p98af9fffd7)" style="fill: none; stroke: #1f77b4; stroke-width: 1.5"/>
    <path d="M 167.698799 21.497161 
L 167.698799 21.402517 
" clip-path="url(#p98af9fffd7)" style="fill: none; stroke: #1f77b4; stroke-width: 1.5"/>
    <path d="M 169.872825 20.844186 
L 169.872825 20.752514 
" clip-path="url(#p98af9fffd7)" style="fill: none; stroke: #1f77b4; stroke-width: 1.5"/>
    <path d="M 172.04685 20.077337 
L 172.04685 19.989039 
" clip-path="url(#p98af9fffd7)" style="fill: none; stroke: #1f77b4; stroke-width: 1.5"/>
    <path d="M 174.220876 19.440189 
L 174.220876 19.354597 
" clip-path="url(#p98af9fffd7)" style="fill: none; stroke: #1f77b4; stroke-width: 1.5"/>
    <path d="M 176.394902 18.831977 
L 176.394902 18.748894 
" clip-path="url(#p98af9fffd7)" style="fill: none; stroke: #1f77b4; stroke-width: 1.5"/>
    <path d="M 178.568928 18.233472 
L 178.568928 18.152785 
" clip-path="url(#p98af9fffd7)" style="fill: none; stroke: #1f77b4; stroke-width: 1.5"/>
    <path d="M 180.742954 17.761502 
L 180.742954 17.682656 
" clip-path="url(#p98af9fffd7)" style="fill: none; stroke: #1f77b4; stroke-width: 1.5"/>
    <path d="M 182.91698 17.234747 
L 182.91698 17.157906 
" clip-path="url(#p98af9fffd7)" style="fill: none; stroke: #1f77b4; stroke-width: 1.5"/>
    <path d="M 185.091006 16.747081 
L 185.091006 16.67205 
" clip-path="url(#p98af9fffd7)" style="fill: none; stroke: #1f77b4; stroke-width: 1.5"/>
    <path d="M 187.265032 16.316545 
L 187.265032 16.243077 
" clip-path="url(#p98af9fffd7)" style="fill: none; stroke: #1f77b4; stroke-width: 1.5"/>
    <path d="M 189.439058 15.880298 
L 189.439058 15.808382 
" clip-path="url(#p98af9fffd7)" style="fill: none; stroke: #1f77b4; stroke-width: 1.5"/>
    <path d="M 191.613084 15.514195 
L 191.613084 15.443554 
" clip-path="url(#p98af9fffd7)" style="fill: none; stroke: #1f77b4; stroke-width: 1.5"/>
    <path d="M 193.78711 15.245563 
L 193.78711 15.175844 
" clip-path="url(#p98af9fffd7)" style="fill: none; stroke: #1f77b4; stroke-width: 1.5"/>
    <path d="M 195.961136 14.977424 
L 195.961136 14.908613 
" clip-path="url(#p98af9fffd7)" style="fill: none; stroke: #1f77b4; stroke-width: 1.5"/>
    <path d="M 198.135162 14.657313 
L 198.135162 14.589571 
" clip-path="url(#p98af9fffd7)" style="fill: none; stroke: #1f77b4; stroke-width: 1.5"/>
    <path d="M 200.309188 14.418283 
L 200.309188 14.351329 
" clip-path="url(#p98af9fffd7)" style="fill: none; stroke: #1f77b4; stroke-width: 1.5"/>
    <path d="M 202.483214 14.209475 
L 202.483214 14.1432 
" clip-path="url(#p98af9fffd7)" style="fill: none; stroke: #1f77b4; stroke-width: 1.5"/>
    <path d="M 204.65724 14.079269 
L 204.65724 14.013415 
" clip-path="url(#p98af9fffd7)" style="fill: none; stroke: #1f77b4; stroke-width: 1.5"/>
    <path d="M 206.831266 13.860012 
L 206.831266 13.794862 
" clip-path="url(#p98af9fffd7)" style="fill: none; stroke: #1f77b4; stroke-width: 1.5"/>
    <path d="M 209.005292 13.686644 
L 209.005292 13.622043 
" clip-path="url(#p98af9fffd7)" style="fill: none; stroke: #1f77b4; stroke-width: 1.5"/>
    <path d="M 211.179318 13.544705 
L 211.179318 13.480551 
" clip-path="url(#p98af9fffd7)" style="fill: none; stroke: #1f77b4; stroke-width: 1.5"/>
    <path d="M 213.353344 13.467751 
L 213.353344 13.403839 
" clip-path="url(#p98af9fffd7)" style="fill: none; stroke: #1f77b4; stroke-width: 1.5"/>
    <path d="M 215.52737 13.350078 
L 215.52737 13.286533 
" clip-path="url(#p98af9fffd7)" style="fill: none; stroke: #1f77b4; stroke-width: 1.5"/>
    <path d="M 217.701396 13.267494 
L 217.701396 13.204204 
" clip-path="url(#p98af9fffd7)" style="fill: none; stroke: #1f77b4; stroke-width: 1.5"/>
    <path d="M 219.875422 13.106624 
L 219.875422 13.04383 
" clip-path="url(#p98af9fffd7)" style="fill: none; stroke: #1f77b4; stroke-width: 1.5"/>
    <path d="M 222.049448 13.114365 
L 222.049448 13.051548 
" clip-path="url(#p98af9fffd7)" style="fill: none; stroke: #1f77b4; stroke-width: 1.5"/>
    <path d="M 224.223474 13.046247 
L 224.223474 12.983639 
" clip-path="url(#p98af9fffd7)" style="fill: none; stroke: #1f77b4; stroke-width: 1.5"/>
    <path d="M 226.3975 13.001342 
L 226.3975 12.938871 
" clip-path="url(#p98af9fffd7)" style="fill: none; stroke: #1f77b4; stroke-width: 1.5"/>
    <path d="M 228.571526 12.993112 
L 228.571526 12.930665 
" clip-path="url(#p98af9fffd7)" style="fill: none; stroke: #1f77b4; stroke-width: 1.5"/>
    <path d="M 230.745552 12.876873 
L 230.745552 12.814782 
" clip-path="url(#p98af9fffd7)" style="fill: none; stroke: #1f77b4; stroke-width: 1.5"/>
    <path d="M 232.919578 12.873847 
L 232.919578 12.811765 
" clip-path="url(#p98af9fffd7)" style="fill: none; stroke: #1f77b4; stroke-width: 1.5"/>
    <path d="M 235.093604 12.826962 
L 235.093604 12.765022 
" clip-path="url(#p98af9fffd7)" style="fill: none; stroke: #1f77b4; stroke-width: 1.5"/>
    <path d="M 237.26763 12.885295 
L 237.26763 12.823177 
" clip-path="url(#p98af9fffd7)" style="fill: none; stroke: #1f77b4; stroke-width: 1.5"/>
    <path d="M 239.441656 12.932639 
L 239.441656 12.870379 
" clip-path="url(#p98af9fffd7)" style="fill: none; stroke: #1f77b4; stroke-width: 1.5"/>
    <path d="M 241.615682 13.035867 
L 241.615682 12.973291 
" clip-path="url(#p98af9fffd7)" style="fill: none; stroke: #1f77b4; stroke-width: 1.5"/>
    <path d="M 243.789708 13.039614 
L 243.789708 12.977027 
" clip-path="url(#p98af9fffd7)" style="fill: none; stroke: #1f77b4; stroke-width: 1.5"/>
    <path d="M 245.963734 13.084302 
L 245.963734 13.021578 
" clip-path="url(#p98af9fffd7)" style="fill: none; stroke: #1f77b4; stroke-width: 1.5"/>
    <path d="M 248.13776 13.177484 
L 248.13776 13.114473 
" clip-path="url(#p98af9fffd7)" style="fill: none; stroke: #1f77b4; stroke-width: 1.5"/>
    <path d="M 250.311786 13.241976 
L 250.311786 13.178766 
" clip-path="url(#p98af9fffd7)" style="fill: none; stroke: #1f77b4; stroke-width: 1.5"/>
    <path d="M 252.485812 13.380437 
L 252.485812 13.316798 
" clip-path="url(#p98af9fffd7)" style="fill: none; stroke: #1f77b4; stroke-width: 1.5"/>
    <path d="M 254.659837 13.464344 
L 254.659837 13.400443 
" clip-path="url(#p98af9fffd7)" style="fill: none; stroke: #1f77b4; stroke-width: 1.5"/>
    <path d="M 256.833863 13.622039 
L 256.833863 13.557642 
" clip-path="url(#p98af9fffd7)" style="fill: none; stroke: #1f77b4; stroke-width: 1.5"/>
    <path d="M 259.007889 13.779932 
L 259.007889 13.715036 
" clip-path="url(#p98af9fffd7)" style="fill: none; stroke: #1f77b4; stroke-width: 1.5"/>
    <path d="M 261.181915 13.875019 
L 261.181915 13.809821 
" clip-path="url(#p98af9fffd7)" style="fill: none; stroke: #1f77b4; stroke-width: 1.5"/>
    <path d="M 263.355941 14.028536 
L 263.355941 13.962847 
" clip-path="url(#p98af9fffd7)" style="fill: none; stroke: #1f77b4; stroke-width: 1.5"/>
    <path d="M 265.529967 14.253753 
L 265.529967 14.187335 
" clip-path="url(#p98af9fffd7)" style="fill: none; stroke: #1f77b4; stroke-width: 1.5"/>
    <path d="M 267.703993 14.411796 
L 267.703993 14.344863 
" clip-path="url(#p98af9fffd7)" style="fill: none; stroke: #1f77b4; stroke-width: 1.5"/>
    <path d="M 269.878019 14.622581 
L 269.878019 14.554955 
" clip-path="url(#p98af9fffd7)" style="fill: none; stroke: #1f77b4; stroke-width: 1.5"/>
    <path d="M 272.052045 14.928977 
L 272.052045 14.860329 
" clip-path="url(#p98af9fffd7)" style="fill: none; stroke: #1f77b4; stroke-width: 1.5"/>
    <path d="M 274.226071 15.030538 
L 274.226071 14.961548 
" clip-path="url(#p98af9fffd7)" style="fill: none; stroke: #1f77b4; stroke-width: 1.5"/>
    <path d="M 276.400097 15.315693 
L 276.400097 15.245736 
" clip-path="url(#p98af9fffd7)" style="fill: none; stroke: #1f77b4; stroke-width: 1.5"/>
    <path d="M 278.574123 15.604344 
L 278.574123 15.533391 
" clip-path="url(#p98af9fffd7)" style="fill: none; stroke: #1f77b4; stroke-width: 1.5"/>
    <path d="M 280.748149 15.907622 
L 280.748149 15.835608 
" clip-path="url(#p98af9fffd7)" style="fill: none; stroke: #1f77b4; stroke-width: 1.5"/>
    <path d="M 282.922175 16.184685 
L 282.922175 16.111689 
" clip-path="url(#p98af9fffd7)" style="fill: none; stroke: #1f77b4; stroke-width: 1.5"/>
    <path d="M 285.096201 16.484272 
L 285.096201 16.410199 
" clip-path="url(#p98af9fffd7)" style="fill: none; stroke: #1f77b4; stroke-width: 1.5"/>
    <path d="M 287.270227 16.799575 
L 287.270227 16.724352 
" clip-path="url(#p98af9fffd7)" style="fill: none; stroke: #1f77b4; stroke-width: 1.5"/>
    <path d="M 289.444253 17.159528 
L 289.444253 17.082969 
" clip-path="url(#p98af9fffd7)" style="fill: none; stroke: #1f77b4; stroke-width: 1.5"/>
    <path d="M 291.618279 17.518764 
L 291.618279 17.440848 
" clip-path="url(#p98af9fffd7)" style="fill: none; stroke: #1f77b4; stroke-width: 1.5"/>
    <path d="M 293.792305 17.926231 
L 293.792305 17.846746 
" clip-path="url(#p98af9fffd7)" style="fill: none; stroke: #1f77b4; stroke-width: 1.5"/>
    <path d="M 295.966331 18.329798 
L 295.966331 18.248729 
" clip-path="url(#p98af9fffd7)" style="fill: none; stroke: #1f77b4; stroke-width: 1.5"/>
    <path d="M 298.140357 18.695653 
L 298.140357 18.613122 
" clip-path="url(#p98af9fffd7)" style="fill: none; stroke: #1f77b4; stroke-width: 1.5"/>
    <path d="M 300.314383 19.140547 
L 300.314383 19.0562 
" clip-path="url(#p98af9fffd7)" style="fill: none; stroke: #1f77b4; stroke-width: 1.5"/>
    <path d="M 302.488409 19.641216 
L 302.488409 19.55478 
" clip-path="url(#p98af9fffd7)" style="fill: none; stroke: #1f77b4; stroke-width: 1.5"/>
    <path d="M 304.662435 20.150327 
L 304.662435 20.061712 
" clip-path="url(#p98af9fffd7)" style="fill: none; stroke: #1f77b4; stroke-width: 1.5"/>
    <path d="M 306.836461 20.670107 
L 306.836461 20.579212 
" clip-path="url(#p98af9fffd7)" style="fill: none; stroke: #1f77b4; stroke-width: 1.5"/>
    <path d="M 309.010487 21.264295 
L 309.010487 21.170722 
" clip-path="url(#p98af9fffd7)" style="fill: none; stroke: #1f77b4; stroke-width: 1.5"/>
    <path d="M 311.184513 21.723085 
L 311.184513 21.62739 
" clip-path="url(#p98af9fffd7)" style="fill: none; stroke: #1f77b4; stroke-width: 1.5"/>
    <path d="M 313.358539 22.471829 
L 313.358539 22.372567 
" clip-path="url(#p98af9fffd7)" style="fill: none; stroke: #1f77b4; stroke-width: 1.5"/>
    <path d="M 315.532565 23.007227 
L 315.532565 22.905335 
" clip-path="url(#p98af9fffd7)" style="fill: none; stroke: #1f77b4; stroke-width: 1.5"/>
    <path d="M 317.706591 23.607595 
L 317.706591 23.502667 
" clip-path="url(#p98af9fffd7)" style="fill: none; stroke: #1f77b4; stroke-width: 1.5"/>
    <path d="M 319.880617 24.166894 
L 319.880617 24.05906 
" clip-path="url(#p98af9fffd7)" style="fill: none; stroke: #1f77b4; stroke-width: 1.5"/>
    <path d="M 322.054643 25.011027 
L 322.054643 24.898653 
" clip-path="url(#p98af9fffd7)" style="fill: none; stroke: #1f77b4; stroke-width: 1.5"/>
    <path d="M 324.228669 25.790652 
L 324.228669 25.673914 
" clip-path="url(#p98af9fffd7)" style="fill: none; stroke: #1f77b4; stroke-width: 1.5"/>
    <path d="M 326.402695 26.469513 
L 326.402695 26.34884 
" clip-path="url(#p98af9fffd7)" style="fill: none; stroke: #1f77b4; stroke-width: 1.5"/>
    <path d="M 328.576721 27.189011 
L 328.576721 27.064021 
" clip-path="url(#p98af9fffd7)" style="fill: none; stroke: #1f77b4; stroke-width: 1.5"/>
    <path d="M 330.750747 28.110225 
L 330.750747 27.979483 
" clip-path="url(#p98af9fffd7)" style="fill: none; stroke: #1f77b4; stroke-width: 1.5"/>
    <path d="M 332.924773 28.960792 
L 332.924773 28.824505 
" clip-path="url(#p98af9fffd7)" style="fill: none; stroke: #1f77b4; stroke-width: 1.5"/>
    <path d="M 335.098799 30.031047 
L 335.098799 29.887451 
" clip-path="url(#p98af9fffd7)" style="fill: none; stroke: #1f77b4; stroke-width: 1.5"/>
    <path d="M 337.272825 31.052589 
L 337.272825 30.90165 
" clip-path="url(#p98af9fffd7)" style="fill: none; stroke: #1f77b4; stroke-width: 1.5"/>
    <path d="M 339.44685 32.0416 
L 339.44685 31.883195 
" clip-path="url(#p98af9fffd7)" style="fill: none; stroke: #1f77b4; stroke-width: 1.5"/>
    <path d="M 341.620876 33.346834 
L 341.620876 33.178013 
" clip-path="url(#p98af9fffd7)" style="fill: none; stroke: #1f77b4; stroke-width: 1.5"/>
    <path d="M 343.794902 34.595641 
L 343.794902 34.416216 
" clip-path="url(#p98af9fffd7)" style="fill: none; stroke: #1f77b4; stroke-width: 1.5"/>
    <path d="M 345.968928 35.871097 
L 345.968928 35.680157 
" clip-path="url(#p98af9fffd7)" style="fill: none; stroke: #1f77b4; stroke-width: 1.5"/>
    <path d="M 348.142954 37.396001 
L 348.142954 37.190325 
" clip-path="url(#p98af9fffd7)" style="fill: none; stroke: #1f77b4; stroke-width: 1.5"/>
    <path d="M 350.31698 38.752621 
L 350.31698 38.532886 
" clip-path="url(#p98af9fffd7)" style="fill: none; stroke: #1f77b4; stroke-width: 1.5"/>
    <path d="M 352.491006 40.455053 
L 352.491006 40.216316 
" clip-path="url(#p98af9fffd7)" style="fill: none; stroke: #1f77b4; stroke-width: 1.5"/>
    <path d="M 354.665032 41.767193 
L 354.665032 41.512703 
" clip-path="url(#p98af9fffd7)" style="fill: none; stroke: #1f77b4; stroke-width: 1.5"/>
    <path d="M 356.839058 43.597568 
L 356.839058 43.319363 
" clip-path="url(#p98af9fffd7)" style="fill: none; stroke: #1f77b4; stroke-width: 1.5"/>
    <path d="M 359.013084 44.950515 
L 359.013084 44.653385 
" clip-path="url(#p98af9fffd7)" style="fill: none; stroke: #1f77b4; stroke-width: 1.5"/>
    <path d="M 361.18711 46.428908 
L 361.18711 46.109631 
" clip-path="url(#p98af9fffd7)" style="fill: none; stroke: #1f77b4; stroke-width: 1.5"/>
    <path d="M 363.361136 47.85776 
L 363.361136 47.515524 
" clip-path="url(#p98af9fffd7)" style="fill: none; stroke: #1f77b4; stroke-width: 1.5"/>
    <path d="M 365.535162 49.545838 
L 365.535162 49.17436 
" clip-path="url(#p98af9fffd7)" style="fill: none; stroke: #1f77b4; stroke-width: 1.5"/>
    <path d="M 367.709188 51.172465 
L 367.709188 50.770471 
" clip-path="url(#p98af9fffd7)" style="fill: none; stroke: #1f77b4; stroke-width: 1.5"/>
    <path d="M 369.883214 52.653411 
L 369.883214 52.221483 
" clip-path="url(#p98af9fffd7)" style="fill: none; stroke: #1f77b4; stroke-width: 1.5"/>
   </g>
   <g id="line2d_34">
    <path d="M 68.770333 268.439687 
L 68.770333 217.253688 
L 70.944359 217.253688 
L 70.944359 191.003695 
L 73.118385 191.003695 
L 73.118385 180.180821 
L 75.292411 180.180821 
L 75.292411 175.909931 
L 77.466437 175.909931 
L 77.466437 168.851689 
L 79.640463 168.851689 
L 79.640463 161.835818 
L 81.814489 161.835818 
L 81.814489 157.594316 
L 83.988515 157.594316 
L 83.988515 153.63937 
L 86.162541 153.63937 
L 86.162541 149.972638 
L 88.336567 149.972638 
L 88.336567 146.228809 
L 90.510593 146.228809 
L 90.510593 143.43358 
L 92.684619 143.43358 
L 92.684619 140.86108 
L 94.858644 140.86108 
L 94.858644 138.136668 
L 97.03267 138.136668 
L 97.03267 135.451318 
L 99.206696 135.451318 
L 99.206696 133.518461 
L 101.380722 133.518461 
L 101.380722 131.196889 
L 103.554748 131.196889 
L 103.554748 128.965727 
L 105.728774 128.965727 
L 105.728774 127.09452 
L 107.9028 127.09452 
L 107.9028 124.887875 
L 110.076826 124.887875 
L 110.076826 123.215451 
L 112.250852 123.215451 
L 112.250852 121.195039 
L 114.424878 121.195039 
L 114.424878 119.445061 
L 116.598904 119.445061 
L 116.598904 117.817414 
L 118.77293 117.817414 
L 118.77293 115.888084 
L 120.946956 115.888084 
L 120.946956 114.2797 
L 123.120982 114.2797 
L 123.120982 112.696926 
L 125.295008 112.696926 
L 125.295008 110.858642 
L 127.469034 110.858642 
L 127.469034 109.411254 
L 129.64306 109.411254 
L 129.64306 107.829584 
L 131.817086 107.829584 
L 131.817086 106.114178 
L 133.991112 106.114178 
L 133.991112 104.758711 
L 136.165138 104.758711 
L 136.165138 103.217391 
L 138.339164 103.217391 
L 138.339164 101.680441 
L 140.51319 101.680441 
L 140.51319 100.359935 
L 142.687216 100.359935 
L 142.687216 98.934108 
L 144.861242 98.934108 
L 144.861242 97.588449 
L 147.035268 97.588449 
L 147.035268 96.324614 
L 149.209294 96.324614 
L 149.209294 94.908501 
L 151.38332 94.908501 
L 151.38332 93.801552 
L 153.557346 93.801552 
L 153.557346 92.538946 
L 155.731372 92.538946 
L 155.731372 91.350268 
L 157.905398 91.350268 
L 157.905398 90.211468 
L 160.079424 90.211468 
L 160.079424 89.108775 
L 162.25345 89.108775 
L 162.25345 88.011606 
L 164.427476 88.011606 
L 164.427476 86.887824 
L 166.601502 86.887824 
L 166.601502 85.888453 
L 168.775528 85.888453 
L 168.775528 84.835306 
L 170.949554 84.835306 
L 170.949554 83.79849 
L 173.12358 83.79849 
L 173.12358 82.794034 
L 175.297606 82.794034 
L 175.297606 81.774394 
L 177.471631 81.774394 
L 177.471631 80.802187 
L 179.645657 80.802187 
L 179.645657 79.868198 
L 181.819683 79.868198 
L 181.819683 78.873613 
L 183.993709 78.873613 
L 183.993709 78.003418 
L 186.167735 78.003418 
L 186.167735 77.126887 
L 188.341761 77.126887 
L 188.341761 76.203952 
L 190.515787 76.203952 
L 190.515787 75.344741 
L 192.689813 75.344741 
L 192.689813 74.534598 
L 194.863839 74.534598 
L 194.863839 73.665507 
L 197.037865 73.665507 
L 197.037865 72.842164 
L 199.211891 72.842164 
L 199.211891 72.022955 
L 201.385917 72.022955 
L 201.385917 71.189521 
L 203.559943 71.189521 
L 203.559943 70.454294 
L 205.733969 70.454294 
L 205.733969 69.59132 
L 207.907995 69.59132 
L 207.907995 68.793882 
L 210.082021 68.793882 
L 210.082021 68.073806 
L 212.256047 68.073806 
L 212.256047 67.253506 
L 214.430073 67.253506 
L 214.430073 66.468705 
L 216.604099 66.468705 
L 216.604099 65.728706 
L 218.778125 65.728706 
L 218.778125 64.943668 
L 220.952151 64.943668 
L 220.952151 64.181425 
L 223.126177 64.181425 
L 223.126177 63.429219 
L 225.300203 63.429219 
L 225.300203 62.650655 
L 227.474229 62.650655 
L 227.474229 61.937565 
L 229.648255 61.937565 
L 229.648255 61.184847 
L 231.822281 61.184847 
L 231.822281 60.426699 
L 233.996307 60.426699 
L 233.996307 59.75453 
L 236.170333 59.75453 
L 236.170333 59.024952 
L 238.344359 59.024952 
L 238.344359 58.310453 
L 240.518385 58.310453 
L 240.518385 57.638822 
L 242.692411 57.638822 
L 242.692411 56.967267 
L 244.866437 56.967267 
L 244.866437 56.287187 
L 247.040463 56.287187 
L 247.040463 55.639217 
L 249.214489 55.639217 
L 249.214489 55.001844 
L 251.388515 55.001844 
L 251.388515 54.391517 
L 253.562541 54.391517 
L 253.562541 53.771983 
L 255.736567 53.771983 
L 255.736567 53.161375 
L 257.910593 53.161375 
L 257.910593 52.608167 
L 260.084619 52.608167 
L 260.084619 52.022301 
L 262.258644 52.022301 
L 262.258644 51.481528 
L 264.43267 51.481528 
L 264.43267 50.960891 
L 266.606696 50.960891 
L 266.606696 50.447548 
L 268.780722 50.447548 
L 268.780722 49.965004 
L 270.954748 49.965004 
L 270.954748 49.490416 
L 273.128774 49.490416 
L 273.128774 49.040237 
L 275.3028 49.040237 
L 275.3028 48.635868 
L 277.476826 48.635868 
L 277.476826 48.218587 
L 279.650852 48.218587 
L 279.650852 47.845057 
L 281.824878 47.845057 
L 281.824878 47.511321 
L 283.998904 47.511321 
L 283.998904 47.164148 
L 286.17293 47.164148 
L 286.17293 46.872727 
L 288.346956 46.872727 
L 288.346956 46.630232 
L 290.520982 46.630232 
L 290.520982 46.378533 
L 292.695008 46.378533 
L 292.695008 46.20864 
L 294.869034 46.20864 
L 294.869034 46.034832 
L 297.04306 46.034832 
L 297.04306 45.906674 
L 301.391112 45.851657 
L 301.391112 45.780505 
L 310.087216 45.88105 
L 310.087216 46.009544 
L 312.261242 46.009544 
L 312.261242 46.206845 
L 314.435268 46.206845 
L 314.435268 46.378577 
L 316.609294 46.378577 
L 316.609294 46.657471 
L 318.78332 46.657471 
L 318.78332 46.973793 
L 320.957346 46.973793 
L 320.957346 47.341367 
L 323.131372 47.341367 
L 323.131372 47.801389 
L 325.305398 47.801389 
L 325.305398 48.289829 
L 327.479424 48.289829 
L 327.479424 48.838779 
L 329.65345 48.838779 
L 329.65345 49.512152 
L 331.827476 49.512152 
L 331.827476 50.219842 
L 334.001502 50.219842 
L 334.001502 51.080746 
L 336.175528 51.080746 
L 336.175528 52.110059 
L 338.349554 52.110059 
L 338.349554 53.205877 
L 340.52358 53.205877 
L 340.52358 54.488349 
L 342.697606 54.488349 
L 342.697606 55.945138 
L 344.871631 55.945138 
L 344.871631 57.505412 
L 347.045657 57.505412 
L 347.045657 59.172485 
L 349.219683 59.172485 
L 349.219683 60.985875 
L 351.393709 60.985875 
L 351.393709 62.870695 
L 353.567735 62.870695 
L 353.567735 64.919386 
L 355.741761 64.919386 
L 355.741761 67.119295 
L 357.915787 67.119295 
L 357.915787 69.646011 
L 360.089813 69.646011 
L 360.089813 72.620558 
L 362.263839 72.620558 
L 362.263839 76.182908 
L 364.437865 76.182908 
L 364.437865 80.49785 
L 366.611891 80.49785 
L 366.611891 85.83379 
L 368.785917 85.83379 
L 368.785917 92.827353 
L 370.959943 92.827353 
L 370.959943 92.827353 
" clip-path="url(#p98af9fffd7)" style="fill: none; stroke: #ff7f0e; stroke-width: 1.5; stroke-linecap: square"/>
   </g>
   <g id="LineCollection_2">
    <path clip-path="url(#p98af9fffd7)" style="fill: none; stroke: #ff7f0e; stroke-width: 1.5"/>
    <path d="M 69.86763 220.23365 
L 69.86763 214.950045 
" clip-path="url(#p98af9fffd7)" style="fill: none; stroke: #ff7f0e; stroke-width: 1.5"/>
    <path d="M 72.041656 192.583576 
L 72.041656 189.63591 
" clip-path="url(#p98af9fffd7)" style="fill: none; stroke: #ff7f0e; stroke-width: 1.5"/>
    <path d="M 74.215682 181.24928 
L 74.215682 179.213693 
" clip-path="url(#p98af9fffd7)" style="fill: none; stroke: #ff7f0e; stroke-width: 1.5"/>
    <path d="M 76.389708 176.764188 
L 76.389708 175.121687 
" clip-path="url(#p98af9fffd7)" style="fill: none; stroke: #ff7f0e; stroke-width: 1.5"/>
    <path d="M 78.563734 169.640135 
L 78.563734 168.119808 
" clip-path="url(#p98af9fffd7)" style="fill: none; stroke: #ff7f0e; stroke-width: 1.5"/>
    <path d="M 80.73776 162.583336 
L 80.73776 161.139334 
" clip-path="url(#p98af9fffd7)" style="fill: none; stroke: #ff7f0e; stroke-width: 1.5"/>
    <path d="M 82.911786 158.240327 
L 82.911786 156.986772 
" clip-path="url(#p98af9fffd7)" style="fill: none; stroke: #ff7f0e; stroke-width: 1.5"/>
    <path d="M 85.085812 154.206118 
L 85.085812 153.102445 
" clip-path="url(#p98af9fffd7)" style="fill: none; stroke: #ff7f0e; stroke-width: 1.5"/>
    <path d="M 87.259837 150.489572 
L 87.259837 149.48063 
" clip-path="url(#p98af9fffd7)" style="fill: none; stroke: #ff7f0e; stroke-width: 1.5"/>
    <path d="M 89.433863 146.694929 
L 89.433863 145.783051 
" clip-path="url(#p98af9fffd7)" style="fill: none; stroke: #ff7f0e; stroke-width: 1.5"/>
    <path d="M 91.607889 143.859317 
L 91.607889 143.024894 
" clip-path="url(#p98af9fffd7)" style="fill: none; stroke: #ff7f0e; stroke-width: 1.5"/>
    <path d="M 93.781915 141.250928 
L 93.781915 140.485577 
" clip-path="url(#p98af9fffd7)" style="fill: none; stroke: #ff7f0e; stroke-width: 1.5"/>
    <path d="M 95.955941 138.484463 
L 95.955941 137.800336 
" clip-path="url(#p98af9fffd7)" style="fill: none; stroke: #ff7f0e; stroke-width: 1.5"/>
    <path d="M 98.129967 135.777187 
L 98.129967 135.135533 
" clip-path="url(#p98af9fffd7)" style="fill: none; stroke: #ff7f0e; stroke-width: 1.5"/>
    <path d="M 100.303993 133.818171 
L 100.303993 133.227301 
" clip-path="url(#p98af9fffd7)" style="fill: none; stroke: #ff7f0e; stroke-width: 1.5"/>
    <path d="M 102.478019 131.470568 
L 102.478019 130.930358 
" clip-path="url(#p98af9fffd7)" style="fill: none; stroke: #ff7f0e; stroke-width: 1.5"/>
    <path d="M 104.652045 129.221925 
L 104.652045 128.715804 
" clip-path="url(#p98af9fffd7)" style="fill: none; stroke: #ff7f0e; stroke-width: 1.5"/>
    <path d="M 106.826071 127.334022 
L 106.826071 126.860509 
" clip-path="url(#p98af9fffd7)" style="fill: none; stroke: #ff7f0e; stroke-width: 1.5"/>
    <path d="M 109.000097 125.107677 
L 109.000097 124.672706 
" clip-path="url(#p98af9fffd7)" style="fill: none; stroke: #ff7f0e; stroke-width: 1.5"/>
    <path d="M 111.174123 123.422257 
L 111.174123 123.012752 
" clip-path="url(#p98af9fffd7)" style="fill: none; stroke: #ff7f0e; stroke-width: 1.5"/>
    <path d="M 113.348149 121.389963 
L 113.348149 121.003767 
" clip-path="url(#p98af9fffd7)" style="fill: none; stroke: #ff7f0e; stroke-width: 1.5"/>
    <path d="M 115.522175 119.62582 
L 115.522175 119.267448 
" clip-path="url(#p98af9fffd7)" style="fill: none; stroke: #ff7f0e; stroke-width: 1.5"/>
    <path d="M 117.696201 117.987157 
L 117.696201 117.650447 
" clip-path="url(#p98af9fffd7)" style="fill: none; stroke: #ff7f0e; stroke-width: 1.5"/>
    <path d="M 119.870227 116.048955 
L 119.870227 115.729709 
" clip-path="url(#p98af9fffd7)" style="fill: none; stroke: #ff7f0e; stroke-width: 1.5"/>
    <path d="M 122.044253 114.429895 
L 122.044253 114.131683 
" clip-path="url(#p98af9fffd7)" style="fill: none; stroke: #ff7f0e; stroke-width: 1.5"/>
    <path d="M 124.218279 112.839669 
L 124.218279 112.556151 
" clip-path="url(#p98af9fffd7)" style="fill: none; stroke: #ff7f0e; stroke-width: 1.5"/>
    <path d="M 126.392305 110.993837 
L 126.392305 110.725214 
" clip-path="url(#p98af9fffd7)" style="fill: none; stroke: #ff7f0e; stroke-width: 1.5"/>
    <path d="M 128.566331 109.538696 
L 128.566331 109.285384 
" clip-path="url(#p98af9fffd7)" style="fill: none; stroke: #ff7f0e; stroke-width: 1.5"/>
    <path d="M 130.740357 107.951463 
L 130.740357 107.709144 
" clip-path="url(#p98af9fffd7)" style="fill: none; stroke: #ff7f0e; stroke-width: 1.5"/>
    <path d="M 132.914383 106.229798 
L 132.914383 105.999854 
" clip-path="url(#p98af9fffd7)" style="fill: none; stroke: #ff7f0e; stroke-width: 1.5"/>
    <path d="M 135.088409 104.868605 
L 135.088409 104.649989 
" clip-path="url(#p98af9fffd7)" style="fill: none; stroke: #ff7f0e; stroke-width: 1.5"/>
    <path d="M 137.262435 103.322843 
L 137.262435 103.113017 
" clip-path="url(#p98af9fffd7)" style="fill: none; stroke: #ff7f0e; stroke-width: 1.5"/>
    <path d="M 139.436461 101.780964 
L 139.436461 101.580898 
" clip-path="url(#p98af9fffd7)" style="fill: none; stroke: #ff7f0e; stroke-width: 1.5"/>
    <path d="M 141.610487 100.456428 
L 141.610487 100.264345 
" clip-path="url(#p98af9fffd7)" style="fill: none; stroke: #ff7f0e; stroke-width: 1.5"/>
    <path d="M 143.784513 99.027047 
L 143.784513 98.842008 
" clip-path="url(#p98af9fffd7)" style="fill: none; stroke: #ff7f0e; stroke-width: 1.5"/>
    <path d="M 145.958539 97.67783 
L 145.958539 97.499845 
" clip-path="url(#p98af9fffd7)" style="fill: none; stroke: #ff7f0e; stroke-width: 1.5"/>
    <path d="M 148.132565 96.411031 
L 148.132565 96.238923 
" clip-path="url(#p98af9fffd7)" style="fill: none; stroke: #ff7f0e; stroke-width: 1.5"/>
    <path d="M 150.306591 94.991856 
L 150.306591 94.825821 
" clip-path="url(#p98af9fffd7)" style="fill: none; stroke: #ff7f0e; stroke-width: 1.5"/>
    <path d="M 152.480617 93.882599 
L 152.480617 93.721144 
" clip-path="url(#p98af9fffd7)" style="fill: none; stroke: #ff7f0e; stroke-width: 1.5"/>
    <path d="M 154.654643 92.617625 
L 154.654643 92.460869 
" clip-path="url(#p98af9fffd7)" style="fill: none; stroke: #ff7f0e; stroke-width: 1.5"/>
    <path d="M 156.828669 91.426767 
L 156.828669 91.274338 
" clip-path="url(#p98af9fffd7)" style="fill: none; stroke: #ff7f0e; stroke-width: 1.5"/>
    <path d="M 159.002695 90.286041 
L 159.002695 90.137435 
" clip-path="url(#p98af9fffd7)" style="fill: none; stroke: #ff7f0e; stroke-width: 1.5"/>
    <path d="M 161.176721 89.181808 
L 161.176721 89.036261 
" clip-path="url(#p98af9fffd7)" style="fill: none; stroke: #ff7f0e; stroke-width: 1.5"/>
    <path d="M 163.350747 88.082857 
L 163.350747 87.940849 
" clip-path="url(#p98af9fffd7)" style="fill: none; stroke: #ff7f0e; stroke-width: 1.5"/>
    <path d="M 165.524773 86.95755 
L 165.524773 86.818571 
" clip-path="url(#p98af9fffd7)" style="fill: none; stroke: #ff7f0e; stroke-width: 1.5"/>
    <path d="M 167.698799 85.95706 
L 167.698799 85.820305 
" clip-path="url(#p98af9fffd7)" style="fill: none; stroke: #ff7f0e; stroke-width: 1.5"/>
    <path d="M 169.872825 84.902478 
L 169.872825 84.768573 
" clip-path="url(#p98af9fffd7)" style="fill: none; stroke: #ff7f0e; stroke-width: 1.5"/>
    <path d="M 172.04685 83.86459 
L 172.04685 83.732816 
" clip-path="url(#p98af9fffd7)" style="fill: none; stroke: #ff7f0e; stroke-width: 1.5"/>
    <path d="M 174.220876 82.859062 
L 174.220876 82.729418 
" clip-path="url(#p98af9fffd7)" style="fill: none; stroke: #ff7f0e; stroke-width: 1.5"/>
    <path d="M 176.394902 81.838361 
L 176.394902 81.710826 
" clip-path="url(#p98af9fffd7)" style="fill: none; stroke: #ff7f0e; stroke-width: 1.5"/>
    <path d="M 178.568928 80.865347 
L 178.568928 80.739415 
" clip-path="url(#p98af9fffd7)" style="fill: none; stroke: #ff7f0e; stroke-width: 1.5"/>
    <path d="M 180.742954 79.930516 
L 180.742954 79.806258 
" clip-path="url(#p98af9fffd7)" style="fill: none; stroke: #ff7f0e; stroke-width: 1.5"/>
    <path d="M 182.91698 78.935175 
L 182.91698 78.812421 
" clip-path="url(#p98af9fffd7)" style="fill: none; stroke: #ff7f0e; stroke-width: 1.5"/>
    <path d="M 185.091006 78.064674 
L 185.091006 77.942527 
" clip-path="url(#p98af9fffd7)" style="fill: none; stroke: #ff7f0e; stroke-width: 1.5"/>
    <path d="M 187.265032 77.187541 
L 187.265032 77.066591 
" clip-path="url(#p98af9fffd7)" style="fill: none; stroke: #ff7f0e; stroke-width: 1.5"/>
    <path d="M 189.439058 76.264203 
L 189.439058 76.144054 
" clip-path="url(#p98af9fffd7)" style="fill: none; stroke: #ff7f0e; stroke-width: 1.5"/>
    <path d="M 191.613084 75.404741 
L 191.613084 75.285092 
" clip-path="url(#p98af9fffd7)" style="fill: none; stroke: #ff7f0e; stroke-width: 1.5"/>
    <path d="M 193.78711 74.594279 
L 193.78711 74.475264 
" clip-path="url(#p98af9fffd7)" style="fill: none; stroke: #ff7f0e; stroke-width: 1.5"/>
    <path d="M 195.961136 73.725011 
L 195.961136 73.606347 
" clip-path="url(#p98af9fffd7)" style="fill: none; stroke: #ff7f0e; stroke-width: 1.5"/>
    <path d="M 198.135162 72.90149 
L 198.135162 72.78318 
" clip-path="url(#p98af9fffd7)" style="fill: none; stroke: #ff7f0e; stroke-width: 1.5"/>
    <path d="M 200.309188 72.082062 
L 200.309188 71.964189 
" clip-path="url(#p98af9fffd7)" style="fill: none; stroke: #ff7f0e; stroke-width: 1.5"/>
    <path d="M 202.483214 71.248477 
L 202.483214 71.130905 
" clip-path="url(#p98af9fffd7)" style="fill: none; stroke: #ff7f0e; stroke-width: 1.5"/>
    <path d="M 204.65724 70.513163 
L 204.65724 70.395762 
" clip-path="url(#p98af9fffd7)" style="fill: none; stroke: #ff7f0e; stroke-width: 1.5"/>
    <path d="M 206.831266 69.649921 
L 206.831266 69.533053 
" clip-path="url(#p98af9fffd7)" style="fill: none; stroke: #ff7f0e; stroke-width: 1.5"/>
    <path d="M 209.005292 68.852394 
L 209.005292 68.735703 
" clip-path="url(#p98af9fffd7)" style="fill: none; stroke: #ff7f0e; stroke-width: 1.5"/>
    <path d="M 211.179318 68.132274 
L 211.179318 68.015671 
" clip-path="url(#p98af9fffd7)" style="fill: none; stroke: #ff7f0e; stroke-width: 1.5"/>
    <path d="M 213.353344 67.311765 
L 213.353344 67.195578 
" clip-path="url(#p98af9fffd7)" style="fill: none; stroke: #ff7f0e; stroke-width: 1.5"/>
    <path d="M 215.52737 66.526832 
L 215.52737 66.410906 
" clip-path="url(#p98af9fffd7)" style="fill: none; stroke: #ff7f0e; stroke-width: 1.5"/>
    <path d="M 217.701396 65.786722 
L 217.701396 65.671018 
" clip-path="url(#p98af9fffd7)" style="fill: none; stroke: #ff7f0e; stroke-width: 1.5"/>
    <path d="M 219.875422 65.00143 
L 219.875422 64.88623 
" clip-path="url(#p98af9fffd7)" style="fill: none; stroke: #ff7f0e; stroke-width: 1.5"/>
    <path d="M 222.049448 64.238973 
L 222.049448 64.124198 
" clip-path="url(#p98af9fffd7)" style="fill: none; stroke: #ff7f0e; stroke-width: 1.5"/>
    <path d="M 224.223474 63.486559 
L 224.223474 63.372199 
" clip-path="url(#p98af9fffd7)" style="fill: none; stroke: #ff7f0e; stroke-width: 1.5"/>
    <path d="M 226.3975 62.707705 
L 226.3975 62.593923 
" clip-path="url(#p98af9fffd7)" style="fill: none; stroke: #ff7f0e; stroke-width: 1.5"/>
    <path d="M 228.571526 61.994413 
L 228.571526 61.881033 
" clip-path="url(#p98af9fffd7)" style="fill: none; stroke: #ff7f0e; stroke-width: 1.5"/>
    <path d="M 230.745552 61.241451 
L 230.745552 61.128556 
" clip-path="url(#p98af9fffd7)" style="fill: none; stroke: #ff7f0e; stroke-width: 1.5"/>
    <path d="M 232.919578 60.482979 
L 232.919578 60.370728 
" clip-path="url(#p98af9fffd7)" style="fill: none; stroke: #ff7f0e; stroke-width: 1.5"/>
    <path d="M 235.093604 59.810617 
L 235.093604 59.698749 
" clip-path="url(#p98af9fffd7)" style="fill: none; stroke: #ff7f0e; stroke-width: 1.5"/>
    <path d="M 237.26763 59.08079 
L 237.26763 58.969417 
" clip-path="url(#p98af9fffd7)" style="fill: none; stroke: #ff7f0e; stroke-width: 1.5"/>
    <path d="M 239.441656 58.365967 
L 239.441656 58.25524 
" clip-path="url(#p98af9fffd7)" style="fill: none; stroke: #ff7f0e; stroke-width: 1.5"/>
    <path d="M 241.615682 57.694152 
L 241.615682 57.58379 
" clip-path="url(#p98af9fffd7)" style="fill: none; stroke: #ff7f0e; stroke-width: 1.5"/>
    <path d="M 243.789708 57.022381 
L 243.789708 56.912449 
" clip-path="url(#p98af9fffd7)" style="fill: none; stroke: #ff7f0e; stroke-width: 1.5"/>
    <path d="M 245.963734 56.342029 
L 245.963734 56.232637 
" clip-path="url(#p98af9fffd7)" style="fill: none; stroke: #ff7f0e; stroke-width: 1.5"/>
    <path d="M 248.13776 55.693932 
L 248.13776 55.584794 
" clip-path="url(#p98af9fffd7)" style="fill: none; stroke: #ff7f0e; stroke-width: 1.5"/>
    <path d="M 250.311786 55.056361 
L 250.311786 54.947616 
" clip-path="url(#p98af9fffd7)" style="fill: none; stroke: #ff7f0e; stroke-width: 1.5"/>
    <path d="M 252.485812 54.445876 
L 252.485812 54.337445 
" clip-path="url(#p98af9fffd7)" style="fill: none; stroke: #ff7f0e; stroke-width: 1.5"/>
    <path d="M 254.659837 53.826235 
L 254.659837 53.718018 
" clip-path="url(#p98af9fffd7)" style="fill: none; stroke: #ff7f0e; stroke-width: 1.5"/>
    <path d="M 256.833863 53.215482 
L 256.833863 53.107554 
" clip-path="url(#p98af9fffd7)" style="fill: none; stroke: #ff7f0e; stroke-width: 1.5"/>
    <path d="M 259.007889 52.662195 
L 259.007889 52.554423 
" clip-path="url(#p98af9fffd7)" style="fill: none; stroke: #ff7f0e; stroke-width: 1.5"/>
    <path d="M 261.181915 52.076284 
L 261.181915 51.968602 
" clip-path="url(#p98af9fffd7)" style="fill: none; stroke: #ff7f0e; stroke-width: 1.5"/>
    <path d="M 263.355941 51.535434 
L 263.355941 51.427906 
" clip-path="url(#p98af9fffd7)" style="fill: none; stroke: #ff7f0e; stroke-width: 1.5"/>
    <path d="M 265.529967 51.014785 
L 265.529967 50.90728 
" clip-path="url(#p98af9fffd7)" style="fill: none; stroke: #ff7f0e; stroke-width: 1.5"/>
    <path d="M 267.703993 50.501481 
L 267.703993 50.393899 
" clip-path="url(#p98af9fffd7)" style="fill: none; stroke: #ff7f0e; stroke-width: 1.5"/>
    <path d="M 269.878019 50.018933 
L 269.878019 49.911359 
" clip-path="url(#p98af9fffd7)" style="fill: none; stroke: #ff7f0e; stroke-width: 1.5"/>
    <path d="M 272.052045 49.544443 
L 272.052045 49.436674 
" clip-path="url(#p98af9fffd7)" style="fill: none; stroke: #ff7f0e; stroke-width: 1.5"/>
    <path d="M 274.226071 49.094376 
L 274.226071 48.986384 
" clip-path="url(#p98af9fffd7)" style="fill: none; stroke: #ff7f0e; stroke-width: 1.5"/>
    <path d="M 276.400097 48.690137 
L 276.400097 48.581887 
" clip-path="url(#p98af9fffd7)" style="fill: none; stroke: #ff7f0e; stroke-width: 1.5"/>
    <path d="M 278.574123 48.273071 
L 278.574123 48.164393 
" clip-path="url(#p98af9fffd7)" style="fill: none; stroke: #ff7f0e; stroke-width: 1.5"/>
    <path d="M 280.748149 47.899794 
L 280.748149 47.790611 
" clip-path="url(#p98af9fffd7)" style="fill: none; stroke: #ff7f0e; stroke-width: 1.5"/>
    <path d="M 282.922175 47.566357 
L 282.922175 47.45658 
" clip-path="url(#p98af9fffd7)" style="fill: none; stroke: #ff7f0e; stroke-width: 1.5"/>
    <path d="M 285.096201 47.219577 
L 285.096201 47.109018 
" clip-path="url(#p98af9fffd7)" style="fill: none; stroke: #ff7f0e; stroke-width: 1.5"/>
    <path d="M 287.270227 46.928593 
L 287.270227 46.817165 
" clip-path="url(#p98af9fffd7)" style="fill: none; stroke: #ff7f0e; stroke-width: 1.5"/>
    <path d="M 289.444253 46.686613 
L 289.444253 46.574162 
" clip-path="url(#p98af9fffd7)" style="fill: none; stroke: #ff7f0e; stroke-width: 1.5"/>
    <path d="M 291.618279 46.435536 
L 291.618279 46.321846 
" clip-path="url(#p98af9fffd7)" style="fill: none; stroke: #ff7f0e; stroke-width: 1.5"/>
    <path d="M 293.792305 46.26631 
L 293.792305 46.151295 
" clip-path="url(#p98af9fffd7)" style="fill: none; stroke: #ff7f0e; stroke-width: 1.5"/>
    <path d="M 295.966331 46.093307 
L 295.966331 45.976691 
" clip-path="url(#p98af9fffd7)" style="fill: none; stroke: #ff7f0e; stroke-width: 1.5"/>
    <path d="M 298.140357 45.966048 
L 298.140357 45.847644 
" clip-path="url(#p98af9fffd7)" style="fill: none; stroke: #ff7f0e; stroke-width: 1.5"/>
    <path d="M 300.314383 45.912032 
L 300.314383 45.791637 
" clip-path="url(#p98af9fffd7)" style="fill: none; stroke: #ff7f0e; stroke-width: 1.5"/>
    <path d="M 302.488409 45.84204 
L 302.488409 45.719339 
" clip-path="url(#p98af9fffd7)" style="fill: none; stroke: #ff7f0e; stroke-width: 1.5"/>
    <path d="M 304.662435 45.831869 
L 304.662435 45.706647 
" clip-path="url(#p98af9fffd7)" style="fill: none; stroke: #ff7f0e; stroke-width: 1.5"/>
    <path d="M 306.836461 45.904706 
L 306.836461 45.776673 
" clip-path="url(#p98af9fffd7)" style="fill: none; stroke: #ff7f0e; stroke-width: 1.5"/>
    <path d="M 309.010487 45.946845 
L 309.010487 45.815678 
" clip-path="url(#p98af9fffd7)" style="fill: none; stroke: #ff7f0e; stroke-width: 1.5"/>
    <path d="M 311.184513 46.077093 
L 311.184513 45.94244 
" clip-path="url(#p98af9fffd7)" style="fill: none; stroke: #ff7f0e; stroke-width: 1.5"/>
    <path d="M 313.358539 46.276302 
L 313.358539 46.137858 
" clip-path="url(#p98af9fffd7)" style="fill: none; stroke: #ff7f0e; stroke-width: 1.5"/>
    <path d="M 315.532565 46.450208 
L 315.532565 46.307445 
" clip-path="url(#p98af9fffd7)" style="fill: none; stroke: #ff7f0e; stroke-width: 1.5"/>
    <path d="M 317.706591 46.731335 
L 317.706591 46.584138 
" clip-path="url(#p98af9fffd7)" style="fill: none; stroke: #ff7f0e; stroke-width: 1.5"/>
    <path d="M 319.880617 47.050132 
L 319.880617 46.898021 
" clip-path="url(#p98af9fffd7)" style="fill: none; stroke: #ff7f0e; stroke-width: 1.5"/>
    <path d="M 322.054643 47.420281 
L 322.054643 47.263059 
" clip-path="url(#p98af9fffd7)" style="fill: none; stroke: #ff7f0e; stroke-width: 1.5"/>
    <path d="M 324.228669 47.883096 
L 324.228669 47.720332 
" clip-path="url(#p98af9fffd7)" style="fill: none; stroke: #ff7f0e; stroke-width: 1.5"/>
    <path d="M 326.402695 48.374806 
L 326.402695 48.205554 
" clip-path="url(#p98af9fffd7)" style="fill: none; stroke: #ff7f0e; stroke-width: 1.5"/>
    <path d="M 328.576721 48.927486 
L 328.576721 48.750836 
" clip-path="url(#p98af9fffd7)" style="fill: none; stroke: #ff7f0e; stroke-width: 1.5"/>
    <path d="M 330.750747 49.605089 
L 330.750747 49.420054 
" clip-path="url(#p98af9fffd7)" style="fill: none; stroke: #ff7f0e; stroke-width: 1.5"/>
    <path d="M 332.924773 50.317575 
L 332.924773 50.123036 
" clip-path="url(#p98af9fffd7)" style="fill: none; stroke: #ff7f0e; stroke-width: 1.5"/>
    <path d="M 335.098799 51.18385 
L 335.098799 50.978673 
" clip-path="url(#p98af9fffd7)" style="fill: none; stroke: #ff7f0e; stroke-width: 1.5"/>
    <path d="M 337.272825 52.21904 
L 337.272825 52.00223 
" clip-path="url(#p98af9fffd7)" style="fill: none; stroke: #ff7f0e; stroke-width: 1.5"/>
    <path d="M 339.44685 53.321727 
L 339.44685 53.091327 
" clip-path="url(#p98af9fffd7)" style="fill: none; stroke: #ff7f0e; stroke-width: 1.5"/>
    <path d="M 341.620876 54.612 
L 341.620876 54.366178 
" clip-path="url(#p98af9fffd7)" style="fill: none; stroke: #ff7f0e; stroke-width: 1.5"/>
    <path d="M 343.794902 56.078469 
L 343.794902 55.813525 
" clip-path="url(#p98af9fffd7)" style="fill: none; stroke: #ff7f0e; stroke-width: 1.5"/>
    <path d="M 345.968928 57.650805 
L 345.968928 57.362061 
" clip-path="url(#p98af9fffd7)" style="fill: none; stroke: #ff7f0e; stroke-width: 1.5"/>
    <path d="M 348.142954 59.333178 
L 348.142954 59.014283 
" clip-path="url(#p98af9fffd7)" style="fill: none; stroke: #ff7f0e; stroke-width: 1.5"/>
    <path d="M 350.31698 61.165481 
L 350.31698 60.809374 
" clip-path="url(#p98af9fffd7)" style="fill: none; stroke: #ff7f0e; stroke-width: 1.5"/>
    <path d="M 352.491006 63.072141 
L 352.491006 62.673149 
" clip-path="url(#p98af9fffd7)" style="fill: none; stroke: #ff7f0e; stroke-width: 1.5"/>
    <path d="M 354.665032 65.144288 
L 354.665032 64.699333 
" clip-path="url(#p98af9fffd7)" style="fill: none; stroke: #ff7f0e; stroke-width: 1.5"/>
    <path d="M 356.839058 67.36963 
L 356.839058 66.874953 
" clip-path="url(#p98af9fffd7)" style="fill: none; stroke: #ff7f0e; stroke-width: 1.5"/>
    <path d="M 359.013084 69.923798 
L 359.013084 69.375584 
" clip-path="url(#p98af9fffd7)" style="fill: none; stroke: #ff7f0e; stroke-width: 1.5"/>
    <path d="M 361.18711 72.929414 
L 361.18711 72.320774 
" clip-path="url(#p98af9fffd7)" style="fill: none; stroke: #ff7f0e; stroke-width: 1.5"/>
    <path d="M 363.361136 76.527823 
L 363.361136 75.84927 
" clip-path="url(#p98af9fffd7)" style="fill: none; stroke: #ff7f0e; stroke-width: 1.5"/>
    <path d="M 365.535162 80.887746 
L 365.535162 80.122302 
" clip-path="url(#p98af9fffd7)" style="fill: none; stroke: #ff7f0e; stroke-width: 1.5"/>
    <path d="M 367.709188 86.280915 
L 367.709188 85.405434 
" clip-path="url(#p98af9fffd7)" style="fill: none; stroke: #ff7f0e; stroke-width: 1.5"/>
    <path d="M 369.883214 93.332408 
L 369.883214 92.346117 
" clip-path="url(#p98af9fffd7)" style="fill: none; stroke: #ff7f0e; stroke-width: 1.5"/>
   </g>
  </g>
 </g>
 <defs>
  <clipPath id="p98af9fffd7">
   <rect x="51.378125" y="7.2" width="334.8" height="221.76"/>
  </clipPath>
 </defs>
</svg>
