<?xml version="1.0" encoding="utf-8" standalone="no"?>
<!DOCTYPE svg PUBLIC "-//W3C//DTD SVG 1.1//EN"
  "http://www.w3.org/Graphics/SVG/1.1/DTD/svg11.dtd">
<svg xmlns:xlink="http://www.w3.org/1999/xlink" width="387.478125pt" height="267.439688pt" viewBox="0 0 387.478125 267.439688" xmlns="http://www.w3.org/2000/svg" version="1.1">
 <metadata>
  <rdf:RDF xmlns:dc="http://purl.org/dc/elements/1.1/" xmlns:cc="http://creativecommons.org/ns#" xmlns:rdf="http://www.w3.org/1999/02/22-rdf-syntax-ns#">
   <cc:Work>
    <dc:type rdf:resource="http://purl.org/dc/dcmitype/StillImage"/>
    <dc:date>2024-10-07T09:42:18.568153</dc:date>
    <dc:format>image/svg+xml</dc:format>
    <dc:creator>
     <cc:Agent>
      <dc:title>Matplotlib v3.9.2, https://matplotlib.org/</dc:title>
     </cc:Agent>
    </dc:creator>
   </cc:Work>
  </rdf:RDF>
 </metadata>
 <defs>
  <style type="text/css">*{stroke-linejoin: round; stroke-linecap: butt}</style>
 </defs>
 <g id="figure_1">
  <g id="patch_1">
   <path d="M 0 267.439688 
L 387.478125 267.439688 
L 387.478125 0 
L 0 0 
z
" style="fill: #ffffff"/>
  </g>
  <g id="axes_1">
   <g id="patch_2">
    <path d="M 45.478125 228.96 
L 380.278125 228.96 
L 380.278125 7.2 
L 45.478125 7.2 
z
" style="fill: #ffffff"/>
   </g>
   <g id="matplotlib.axis_1">
    <g id="xtick_1">
     <g id="line2d_1">
      <defs>
       <path id="m6a58602b41" d="M 0 0 
L 0 3.5 
" style="stroke: #000000; stroke-width: 0.8"/>
      </defs>
      <g>
       <use xlink:href="#m6a58602b41" x="55.537601" y="228.96" style="stroke: #000000; stroke-width: 0.8"/>
      </g>
     </g>
     <g id="text_1">
      <!-- 0.0 -->
      <g transform="translate(47.586039 243.558438) scale(0.1 -0.1)">
       <defs>
        <path id="DejaVuSans-30" d="M 2034 4250 
Q 1547 4250 1301 3770 
Q 1056 3291 1056 2328 
Q 1056 1369 1301 889 
Q 1547 409 2034 409 
Q 2525 409 2770 889 
Q 3016 1369 3016 2328 
Q 3016 3291 2770 3770 
Q 2525 4250 2034 4250 
z
M 2034 4750 
Q 2819 4750 3233 4129 
Q 3647 3509 3647 2328 
Q 3647 1150 3233 529 
Q 2819 -91 2034 -91 
Q 1250 -91 836 529 
Q 422 1150 422 2328 
Q 422 3509 836 4129 
Q 1250 4750 2034 4750 
z
" transform="scale(0.015625)"/>
        <path id="DejaVuSans-2e" d="M 684 794 
L 1344 794 
L 1344 0 
L 684 0 
L 684 794 
z
" transform="scale(0.015625)"/>
       </defs>
       <use xlink:href="#DejaVuSans-30"/>
       <use xlink:href="#DejaVuSans-2e" x="63.623047"/>
       <use xlink:href="#DejaVuSans-30" x="95.410156"/>
      </g>
     </g>
    </g>
    <g id="xtick_2">
     <g id="line2d_2">
      <g>
       <use xlink:href="#m6a58602b41" x="107.124658" y="228.96" style="stroke: #000000; stroke-width: 0.8"/>
      </g>
     </g>
     <g id="text_2">
      <!-- 0.1 -->
      <g transform="translate(99.173096 243.558438) scale(0.1 -0.1)">
       <defs>
        <path id="DejaVuSans-31" d="M 794 531 
L 1825 531 
L 1825 4091 
L 703 3866 
L 703 4441 
L 1819 4666 
L 2450 4666 
L 2450 531 
L 3481 531 
L 3481 0 
L 794 0 
L 794 531 
z
" transform="scale(0.015625)"/>
       </defs>
       <use xlink:href="#DejaVuSans-30"/>
       <use xlink:href="#DejaVuSans-2e" x="63.623047"/>
       <use xlink:href="#DejaVuSans-31" x="95.410156"/>
      </g>
     </g>
    </g>
    <g id="xtick_3">
     <g id="line2d_3">
      <g>
       <use xlink:href="#m6a58602b41" x="158.711715" y="228.96" style="stroke: #000000; stroke-width: 0.8"/>
      </g>
     </g>
     <g id="text_3">
      <!-- 0.2 -->
      <g transform="translate(150.760153 243.558438) scale(0.1 -0.1)">
       <defs>
        <path id="DejaVuSans-32" d="M 1228 531 
L 3431 531 
L 3431 0 
L 469 0 
L 469 531 
Q 828 903 1448 1529 
Q 2069 2156 2228 2338 
Q 2531 2678 2651 2914 
Q 2772 3150 2772 3378 
Q 2772 3750 2511 3984 
Q 2250 4219 1831 4219 
Q 1534 4219 1204 4116 
Q 875 4013 500 3803 
L 500 4441 
Q 881 4594 1212 4672 
Q 1544 4750 1819 4750 
Q 2544 4750 2975 4387 
Q 3406 4025 3406 3419 
Q 3406 3131 3298 2873 
Q 3191 2616 2906 2266 
Q 2828 2175 2409 1742 
Q 1991 1309 1228 531 
z
" transform="scale(0.015625)"/>
       </defs>
       <use xlink:href="#DejaVuSans-30"/>
       <use xlink:href="#DejaVuSans-2e" x="63.623047"/>
       <use xlink:href="#DejaVuSans-32" x="95.410156"/>
      </g>
     </g>
    </g>
    <g id="xtick_4">
     <g id="line2d_4">
      <g>
       <use xlink:href="#m6a58602b41" x="210.298772" y="228.96" style="stroke: #000000; stroke-width: 0.8"/>
      </g>
     </g>
     <g id="text_4">
      <!-- 0.3 -->
      <g transform="translate(202.34721 243.558438) scale(0.1 -0.1)">
       <defs>
        <path id="DejaVuSans-33" d="M 2597 2516 
Q 3050 2419 3304 2112 
Q 3559 1806 3559 1356 
Q 3559 666 3084 287 
Q 2609 -91 1734 -91 
Q 1441 -91 1130 -33 
Q 819 25 488 141 
L 488 750 
Q 750 597 1062 519 
Q 1375 441 1716 441 
Q 2309 441 2620 675 
Q 2931 909 2931 1356 
Q 2931 1769 2642 2001 
Q 2353 2234 1838 2234 
L 1294 2234 
L 1294 2753 
L 1863 2753 
Q 2328 2753 2575 2939 
Q 2822 3125 2822 3475 
Q 2822 3834 2567 4026 
Q 2313 4219 1838 4219 
Q 1578 4219 1281 4162 
Q 984 4106 628 3988 
L 628 4550 
Q 988 4650 1302 4700 
Q 1616 4750 1894 4750 
Q 2613 4750 3031 4423 
Q 3450 4097 3450 3541 
Q 3450 3153 3228 2886 
Q 3006 2619 2597 2516 
z
" transform="scale(0.015625)"/>
       </defs>
       <use xlink:href="#DejaVuSans-30"/>
       <use xlink:href="#DejaVuSans-2e" x="63.623047"/>
       <use xlink:href="#DejaVuSans-33" x="95.410156"/>
      </g>
     </g>
    </g>
    <g id="xtick_5">
     <g id="line2d_5">
      <g>
       <use xlink:href="#m6a58602b41" x="261.885829" y="228.96" style="stroke: #000000; stroke-width: 0.8"/>
      </g>
     </g>
     <g id="text_5">
      <!-- 0.4 -->
      <g transform="translate(253.934267 243.558438) scale(0.1 -0.1)">
       <defs>
        <path id="DejaVuSans-34" d="M 2419 4116 
L 825 1625 
L 2419 1625 
L 2419 4116 
z
M 2253 4666 
L 3047 4666 
L 3047 1625 
L 3713 1625 
L 3713 1100 
L 3047 1100 
L 3047 0 
L 2419 0 
L 2419 1100 
L 313 1100 
L 313 1709 
L 2253 4666 
z
" transform="scale(0.015625)"/>
       </defs>
       <use xlink:href="#DejaVuSans-30"/>
       <use xlink:href="#DejaVuSans-2e" x="63.623047"/>
       <use xlink:href="#DejaVuSans-34" x="95.410156"/>
      </g>
     </g>
    </g>
    <g id="xtick_6">
     <g id="line2d_6">
      <g>
       <use xlink:href="#m6a58602b41" x="313.472886" y="228.96" style="stroke: #000000; stroke-width: 0.8"/>
      </g>
     </g>
     <g id="text_6">
      <!-- 0.5 -->
      <g transform="translate(305.521324 243.558438) scale(0.1 -0.1)">
       <defs>
        <path id="DejaVuSans-35" d="M 691 4666 
L 3169 4666 
L 3169 4134 
L 1269 4134 
L 1269 2991 
Q 1406 3038 1543 3061 
Q 1681 3084 1819 3084 
Q 2600 3084 3056 2656 
Q 3513 2228 3513 1497 
Q 3513 744 3044 326 
Q 2575 -91 1722 -91 
Q 1428 -91 1123 -41 
Q 819 9 494 109 
L 494 744 
Q 775 591 1075 516 
Q 1375 441 1709 441 
Q 2250 441 2565 725 
Q 2881 1009 2881 1497 
Q 2881 1984 2565 2268 
Q 2250 2553 1709 2553 
Q 1456 2553 1204 2497 
Q 953 2441 691 2322 
L 691 4666 
z
" transform="scale(0.015625)"/>
       </defs>
       <use xlink:href="#DejaVuSans-30"/>
       <use xlink:href="#DejaVuSans-2e" x="63.623047"/>
       <use xlink:href="#DejaVuSans-35" x="95.410156"/>
      </g>
     </g>
    </g>
    <g id="xtick_7">
     <g id="line2d_7">
      <g>
       <use xlink:href="#m6a58602b41" x="365.059943" y="228.96" style="stroke: #000000; stroke-width: 0.8"/>
      </g>
     </g>
     <g id="text_7">
      <!-- 0.6 -->
      <g transform="translate(357.108381 243.558438) scale(0.1 -0.1)">
       <defs>
        <path id="DejaVuSans-36" d="M 2113 2584 
Q 1688 2584 1439 2293 
Q 1191 2003 1191 1497 
Q 1191 994 1439 701 
Q 1688 409 2113 409 
Q 2538 409 2786 701 
Q 3034 994 3034 1497 
Q 3034 2003 2786 2293 
Q 2538 2584 2113 2584 
z
M 3366 4563 
L 3366 3988 
Q 3128 4100 2886 4159 
Q 2644 4219 2406 4219 
Q 1781 4219 1451 3797 
Q 1122 3375 1075 2522 
Q 1259 2794 1537 2939 
Q 1816 3084 2150 3084 
Q 2853 3084 3261 2657 
Q 3669 2231 3669 1497 
Q 3669 778 3244 343 
Q 2819 -91 2113 -91 
Q 1303 -91 875 529 
Q 447 1150 447 2328 
Q 447 3434 972 4092 
Q 1497 4750 2381 4750 
Q 2619 4750 2861 4703 
Q 3103 4656 3366 4563 
z
" transform="scale(0.015625)"/>
       </defs>
       <use xlink:href="#DejaVuSans-30"/>
       <use xlink:href="#DejaVuSans-2e" x="63.623047"/>
       <use xlink:href="#DejaVuSans-36" x="95.410156"/>
      </g>
     </g>
    </g>
    <g id="text_8">
     <!-- Q [1/Å] -->
     <g transform="translate(195.165625 258.16) scale(0.1 -0.1)">
      <defs>
       <path id="DejaVuSans-51" d="M 2522 4238 
Q 1834 4238 1429 3725 
Q 1025 3213 1025 2328 
Q 1025 1447 1429 934 
Q 1834 422 2522 422 
Q 3209 422 3611 934 
Q 4013 1447 4013 2328 
Q 4013 3213 3611 3725 
Q 3209 4238 2522 4238 
z
M 3406 84 
L 4238 -825 
L 3475 -825 
L 2784 -78 
Q 2681 -84 2626 -87 
Q 2572 -91 2522 -91 
Q 1538 -91 948 567 
Q 359 1225 359 2328 
Q 359 3434 948 4092 
Q 1538 4750 2522 4750 
Q 3503 4750 4090 4092 
Q 4678 3434 4678 2328 
Q 4678 1516 4351 937 
Q 4025 359 3406 84 
z
" transform="scale(0.015625)"/>
       <path id="DejaVuSans-20" transform="scale(0.015625)"/>
       <path id="DejaVuSans-5b" d="M 550 4863 
L 1875 4863 
L 1875 4416 
L 1125 4416 
L 1125 -397 
L 1875 -397 
L 1875 -844 
L 550 -844 
L 550 4863 
z
" transform="scale(0.015625)"/>
       <path id="DejaVuSans-2f" d="M 1625 4666 
L 2156 4666 
L 531 -594 
L 0 -594 
L 1625 4666 
z
" transform="scale(0.015625)"/>
       <path id="DejaVuSans-c5" d="M 2663 5081 
Q 2663 5278 2523 5417 
Q 2384 5556 2188 5556 
Q 1988 5556 1852 5420 
Q 1716 5284 1716 5081 
Q 1716 4884 1853 4746 
Q 1991 4609 2188 4609 
Q 2384 4609 2523 4746 
Q 2663 4884 2663 5081 
z
M 2188 4044 
L 1338 1722 
L 3041 1722 
L 2188 4044 
z
M 1716 4366 
Q 1525 4494 1428 4673 
Q 1331 4853 1331 5081 
Q 1331 5441 1579 5691 
Q 1828 5941 2188 5941 
Q 2544 5941 2795 5689 
Q 3047 5438 3047 5081 
Q 3047 4863 2948 4678 
Q 2850 4494 2663 4366 
L 4325 0 
L 3669 0 
L 3244 1197 
L 1141 1197 
L 716 0 
L 50 0 
L 1716 4366 
z
" transform="scale(0.015625)"/>
       <path id="DejaVuSans-5d" d="M 1947 4863 
L 1947 -844 
L 622 -844 
L 622 -397 
L 1369 -397 
L 1369 4416 
L 622 4416 
L 622 4863 
L 1947 4863 
z
" transform="scale(0.015625)"/>
      </defs>
      <use xlink:href="#DejaVuSans-51"/>
      <use xlink:href="#DejaVuSans-20" x="78.710938"/>
      <use xlink:href="#DejaVuSans-5b" x="110.498047"/>
      <use xlink:href="#DejaVuSans-31" x="149.511719"/>
      <use xlink:href="#DejaVuSans-2f" x="213.134766"/>
      <use xlink:href="#DejaVuSans-c5" x="246.826172"/>
      <use xlink:href="#DejaVuSans-5d" x="315.234375"/>
     </g>
    </g>
   </g>
   <g id="matplotlib.axis_2">
    <g id="ytick_1">
     <g id="line2d_8">
      <defs>
       <path id="m2f9b6f215b" d="M 0 0 
L -3.5 0 
" style="stroke: #000000; stroke-width: 0.8"/>
      </defs>
      <g>
       <use xlink:href="#m2f9b6f215b" x="45.478125" y="148.234528" style="stroke: #000000; stroke-width: 0.8"/>
      </g>
     </g>
     <g id="text_9">
      <!-- $\mathdefault{10^{1}}$ -->
      <g transform="translate(20.878125 152.033747) scale(0.1 -0.1)">
       <use xlink:href="#DejaVuSans-31" transform="translate(0 0.684375)"/>
       <use xlink:href="#DejaVuSans-30" transform="translate(63.623047 0.684375)"/>
       <use xlink:href="#DejaVuSans-31" transform="translate(128.203125 38.965625) scale(0.7)"/>
      </g>
     </g>
    </g>
    <g id="ytick_2">
     <g id="line2d_9">
      <g>
       <use xlink:href="#m2f9b6f215b" x="45.478125" y="46.75792" style="stroke: #000000; stroke-width: 0.8"/>
      </g>
     </g>
     <g id="text_10">
      <!-- $\mathdefault{10^{2}}$ -->
      <g transform="translate(20.878125 50.557139) scale(0.1 -0.1)">
       <use xlink:href="#DejaVuSans-31" transform="translate(0 0.765625)"/>
       <use xlink:href="#DejaVuSans-30" transform="translate(63.623047 0.765625)"/>
       <use xlink:href="#DejaVuSans-32" transform="translate(128.203125 39.046875) scale(0.7)"/>
      </g>
     </g>
    </g>
    <g id="ytick_3">
     <g id="line2d_10">
      <defs>
       <path id="m13eea9c159" d="M 0 0 
L -2 0 
" style="stroke: #000000; stroke-width: 0.6"/>
      </defs>
      <g>
       <use xlink:href="#m13eea9c159" x="45.478125" y="219.163633" style="stroke: #000000; stroke-width: 0.6"/>
      </g>
     </g>
    </g>
    <g id="ytick_4">
     <g id="line2d_11">
      <g>
       <use xlink:href="#m13eea9c159" x="45.478125" y="201.294489" style="stroke: #000000; stroke-width: 0.6"/>
      </g>
     </g>
    </g>
    <g id="ytick_5">
     <g id="line2d_12">
      <g>
       <use xlink:href="#m13eea9c159" x="45.478125" y="188.61613" style="stroke: #000000; stroke-width: 0.6"/>
      </g>
     </g>
    </g>
    <g id="ytick_6">
     <g id="line2d_13">
      <g>
       <use xlink:href="#m13eea9c159" x="45.478125" y="178.782031" style="stroke: #000000; stroke-width: 0.6"/>
      </g>
     </g>
    </g>
    <g id="ytick_7">
     <g id="line2d_14">
      <g>
       <use xlink:href="#m13eea9c159" x="45.478125" y="170.746986" style="stroke: #000000; stroke-width: 0.6"/>
      </g>
     </g>
    </g>
    <g id="ytick_8">
     <g id="line2d_15">
      <g>
       <use xlink:href="#m13eea9c159" x="45.478125" y="163.953453" style="stroke: #000000; stroke-width: 0.6"/>
      </g>
     </g>
    </g>
    <g id="ytick_9">
     <g id="line2d_16">
      <g>
       <use xlink:href="#m13eea9c159" x="45.478125" y="158.068627" style="stroke: #000000; stroke-width: 0.6"/>
      </g>
     </g>
    </g>
    <g id="ytick_10">
     <g id="line2d_17">
      <g>
       <use xlink:href="#m13eea9c159" x="45.478125" y="152.877843" style="stroke: #000000; stroke-width: 0.6"/>
      </g>
     </g>
    </g>
    <g id="ytick_11">
     <g id="line2d_18">
      <g>
       <use xlink:href="#m13eea9c159" x="45.478125" y="117.687025" style="stroke: #000000; stroke-width: 0.6"/>
      </g>
     </g>
    </g>
    <g id="ytick_12">
     <g id="line2d_19">
      <g>
       <use xlink:href="#m13eea9c159" x="45.478125" y="99.817882" style="stroke: #000000; stroke-width: 0.6"/>
      </g>
     </g>
    </g>
    <g id="ytick_13">
     <g id="line2d_20">
      <g>
       <use xlink:href="#m13eea9c159" x="45.478125" y="87.139522" style="stroke: #000000; stroke-width: 0.6"/>
      </g>
     </g>
    </g>
    <g id="ytick_14">
     <g id="line2d_21">
      <g>
       <use xlink:href="#m13eea9c159" x="45.478125" y="77.305423" style="stroke: #000000; stroke-width: 0.6"/>
      </g>
     </g>
    </g>
    <g id="ytick_15">
     <g id="line2d_22">
      <g>
       <use xlink:href="#m13eea9c159" x="45.478125" y="69.270379" style="stroke: #000000; stroke-width: 0.6"/>
      </g>
     </g>
    </g>
    <g id="ytick_16">
     <g id="line2d_23">
      <g>
       <use xlink:href="#m13eea9c159" x="45.478125" y="62.476846" style="stroke: #000000; stroke-width: 0.6"/>
      </g>
     </g>
    </g>
    <g id="ytick_17">
     <g id="line2d_24">
      <g>
       <use xlink:href="#m13eea9c159" x="45.478125" y="56.59202" style="stroke: #000000; stroke-width: 0.6"/>
      </g>
     </g>
    </g>
    <g id="ytick_18">
     <g id="line2d_25">
      <g>
       <use xlink:href="#m13eea9c159" x="45.478125" y="51.401235" style="stroke: #000000; stroke-width: 0.6"/>
      </g>
     </g>
    </g>
    <g id="ytick_19">
     <g id="line2d_26">
      <g>
       <use xlink:href="#m13eea9c159" x="45.478125" y="16.210418" style="stroke: #000000; stroke-width: 0.6"/>
      </g>
     </g>
    </g>
    <g id="text_11">
     <!-- [dimensionless] -->
     <g transform="translate(14.798438 157.557344) rotate(-90) scale(0.1 -0.1)">
      <defs>
       <path id="DejaVuSans-64" d="M 2906 2969 
L 2906 4863 
L 3481 4863 
L 3481 0 
L 2906 0 
L 2906 525 
Q 2725 213 2448 61 
Q 2172 -91 1784 -91 
Q 1150 -91 751 415 
Q 353 922 353 1747 
Q 353 2572 751 3078 
Q 1150 3584 1784 3584 
Q 2172 3584 2448 3432 
Q 2725 3281 2906 2969 
z
M 947 1747 
Q 947 1113 1208 752 
Q 1469 391 1925 391 
Q 2381 391 2643 752 
Q 2906 1113 2906 1747 
Q 2906 2381 2643 2742 
Q 2381 3103 1925 3103 
Q 1469 3103 1208 2742 
Q 947 2381 947 1747 
z
" transform="scale(0.015625)"/>
       <path id="DejaVuSans-69" d="M 603 3500 
L 1178 3500 
L 1178 0 
L 603 0 
L 603 3500 
z
M 603 4863 
L 1178 4863 
L 1178 4134 
L 603 4134 
L 603 4863 
z
" transform="scale(0.015625)"/>
       <path id="DejaVuSans-6d" d="M 3328 2828 
Q 3544 3216 3844 3400 
Q 4144 3584 4550 3584 
Q 5097 3584 5394 3201 
Q 5691 2819 5691 2113 
L 5691 0 
L 5113 0 
L 5113 2094 
Q 5113 2597 4934 2840 
Q 4756 3084 4391 3084 
Q 3944 3084 3684 2787 
Q 3425 2491 3425 1978 
L 3425 0 
L 2847 0 
L 2847 2094 
Q 2847 2600 2669 2842 
Q 2491 3084 2119 3084 
Q 1678 3084 1418 2786 
Q 1159 2488 1159 1978 
L 1159 0 
L 581 0 
L 581 3500 
L 1159 3500 
L 1159 2956 
Q 1356 3278 1631 3431 
Q 1906 3584 2284 3584 
Q 2666 3584 2933 3390 
Q 3200 3197 3328 2828 
z
" transform="scale(0.015625)"/>
       <path id="DejaVuSans-65" d="M 3597 1894 
L 3597 1613 
L 953 1613 
Q 991 1019 1311 708 
Q 1631 397 2203 397 
Q 2534 397 2845 478 
Q 3156 559 3463 722 
L 3463 178 
Q 3153 47 2828 -22 
Q 2503 -91 2169 -91 
Q 1331 -91 842 396 
Q 353 884 353 1716 
Q 353 2575 817 3079 
Q 1281 3584 2069 3584 
Q 2775 3584 3186 3129 
Q 3597 2675 3597 1894 
z
M 3022 2063 
Q 3016 2534 2758 2815 
Q 2500 3097 2075 3097 
Q 1594 3097 1305 2825 
Q 1016 2553 972 2059 
L 3022 2063 
z
" transform="scale(0.015625)"/>
       <path id="DejaVuSans-6e" d="M 3513 2113 
L 3513 0 
L 2938 0 
L 2938 2094 
Q 2938 2591 2744 2837 
Q 2550 3084 2163 3084 
Q 1697 3084 1428 2787 
Q 1159 2491 1159 1978 
L 1159 0 
L 581 0 
L 581 3500 
L 1159 3500 
L 1159 2956 
Q 1366 3272 1645 3428 
Q 1925 3584 2291 3584 
Q 2894 3584 3203 3211 
Q 3513 2838 3513 2113 
z
" transform="scale(0.015625)"/>
       <path id="DejaVuSans-73" d="M 2834 3397 
L 2834 2853 
Q 2591 2978 2328 3040 
Q 2066 3103 1784 3103 
Q 1356 3103 1142 2972 
Q 928 2841 928 2578 
Q 928 2378 1081 2264 
Q 1234 2150 1697 2047 
L 1894 2003 
Q 2506 1872 2764 1633 
Q 3022 1394 3022 966 
Q 3022 478 2636 193 
Q 2250 -91 1575 -91 
Q 1294 -91 989 -36 
Q 684 19 347 128 
L 347 722 
Q 666 556 975 473 
Q 1284 391 1588 391 
Q 1994 391 2212 530 
Q 2431 669 2431 922 
Q 2431 1156 2273 1281 
Q 2116 1406 1581 1522 
L 1381 1569 
Q 847 1681 609 1914 
Q 372 2147 372 2553 
Q 372 3047 722 3315 
Q 1072 3584 1716 3584 
Q 2034 3584 2315 3537 
Q 2597 3491 2834 3397 
z
" transform="scale(0.015625)"/>
       <path id="DejaVuSans-6f" d="M 1959 3097 
Q 1497 3097 1228 2736 
Q 959 2375 959 1747 
Q 959 1119 1226 758 
Q 1494 397 1959 397 
Q 2419 397 2687 759 
Q 2956 1122 2956 1747 
Q 2956 2369 2687 2733 
Q 2419 3097 1959 3097 
z
M 1959 3584 
Q 2709 3584 3137 3096 
Q 3566 2609 3566 1747 
Q 3566 888 3137 398 
Q 2709 -91 1959 -91 
Q 1206 -91 779 398 
Q 353 888 353 1747 
Q 353 2609 779 3096 
Q 1206 3584 1959 3584 
z
" transform="scale(0.015625)"/>
       <path id="DejaVuSans-6c" d="M 603 4863 
L 1178 4863 
L 1178 0 
L 603 0 
L 603 4863 
z
" transform="scale(0.015625)"/>
      </defs>
      <use xlink:href="#DejaVuSans-5b"/>
      <use xlink:href="#DejaVuSans-64" x="39.013672"/>
      <use xlink:href="#DejaVuSans-69" x="102.490234"/>
      <use xlink:href="#DejaVuSans-6d" x="130.273438"/>
      <use xlink:href="#DejaVuSans-65" x="227.685547"/>
      <use xlink:href="#DejaVuSans-6e" x="289.208984"/>
      <use xlink:href="#DejaVuSans-73" x="352.587891"/>
      <use xlink:href="#DejaVuSans-69" x="404.6875"/>
      <use xlink:href="#DejaVuSans-6f" x="432.470703"/>
      <use xlink:href="#DejaVuSans-6e" x="493.652344"/>
      <use xlink:href="#DejaVuSans-6c" x="557.03125"/>
      <use xlink:href="#DejaVuSans-65" x="584.814453"/>
      <use xlink:href="#DejaVuSans-73" x="646.337891"/>
      <use xlink:href="#DejaVuSans-73" x="698.4375"/>
      <use xlink:href="#DejaVuSans-5d" x="750.537109"/>
     </g>
    </g>
   </g>
   <g id="patch_3">
    <path d="M 45.478125 228.96 
L 45.478125 7.2 
" style="fill: none; stroke: #000000; stroke-width: 0.8; stroke-linejoin: miter; stroke-linecap: square"/>
   </g>
   <g id="patch_4">
    <path d="M 380.278125 228.96 
L 380.278125 7.2 
" style="fill: none; stroke: #000000; stroke-width: 0.8; stroke-linejoin: miter; stroke-linecap: square"/>
   </g>
   <g id="patch_5">
    <path d="M 45.478125 228.96 
L 380.278125 228.96 
" style="fill: none; stroke: #000000; stroke-width: 0.8; stroke-linejoin: miter; stroke-linecap: square"/>
   </g>
   <g id="patch_6">
    <path d="M 45.478125 7.2 
L 380.278125 7.2 
" style="fill: none; stroke: #000000; stroke-width: 0.8; stroke-linejoin: miter; stroke-linecap: square"/>
   </g>
   <g id="legend_1">
    <g id="patch_7">
     <path d="M 275.489063 44.834375 
L 373.278125 44.834375 
Q 375.278125 44.834375 375.278125 42.834375 
L 375.278125 14.2 
Q 375.278125 12.2 373.278125 12.2 
L 275.489063 12.2 
Q 273.489063 12.2 273.489063 14.2 
L 273.489063 42.834375 
Q 273.489063 44.834375 275.489063 44.834375 
z
" style="fill: #ffffff; opacity: 0.8; stroke: #cccccc; stroke-linejoin: miter"/>
    </g>
    <g id="line2d_27">
     <path d="M 277.489063 20.298438 
L 277.489063 20.298438 
L 287.489063 20.298438 
L 287.489063 20.298438 
L 297.489063 20.298438 
" style="fill: none; stroke: #1f77b4; stroke-width: 1.5; stroke-linecap: square"/>
    </g>
    <g id="text_12">
     <!-- upper_bound -->
     <g transform="translate(305.489063 23.798438) scale(0.1 -0.1)">
      <defs>
       <path id="DejaVuSans-75" d="M 544 1381 
L 544 3500 
L 1119 3500 
L 1119 1403 
Q 1119 906 1312 657 
Q 1506 409 1894 409 
Q 2359 409 2629 706 
Q 2900 1003 2900 1516 
L 2900 3500 
L 3475 3500 
L 3475 0 
L 2900 0 
L 2900 538 
Q 2691 219 2414 64 
Q 2138 -91 1772 -91 
Q 1169 -91 856 284 
Q 544 659 544 1381 
z
M 1991 3584 
L 1991 3584 
z
" transform="scale(0.015625)"/>
       <path id="DejaVuSans-70" d="M 1159 525 
L 1159 -1331 
L 581 -1331 
L 581 3500 
L 1159 3500 
L 1159 2969 
Q 1341 3281 1617 3432 
Q 1894 3584 2278 3584 
Q 2916 3584 3314 3078 
Q 3713 2572 3713 1747 
Q 3713 922 3314 415 
Q 2916 -91 2278 -91 
Q 1894 -91 1617 61 
Q 1341 213 1159 525 
z
M 3116 1747 
Q 3116 2381 2855 2742 
Q 2594 3103 2138 3103 
Q 1681 3103 1420 2742 
Q 1159 2381 1159 1747 
Q 1159 1113 1420 752 
Q 1681 391 2138 391 
Q 2594 391 2855 752 
Q 3116 1113 3116 1747 
z
" transform="scale(0.015625)"/>
       <path id="DejaVuSans-72" d="M 2631 2963 
Q 2534 3019 2420 3045 
Q 2306 3072 2169 3072 
Q 1681 3072 1420 2755 
Q 1159 2438 1159 1844 
L 1159 0 
L 581 0 
L 581 3500 
L 1159 3500 
L 1159 2956 
Q 1341 3275 1631 3429 
Q 1922 3584 2338 3584 
Q 2397 3584 2469 3576 
Q 2541 3569 2628 3553 
L 2631 2963 
z
" transform="scale(0.015625)"/>
       <path id="DejaVuSans-5f" d="M 3263 -1063 
L 3263 -1509 
L -63 -1509 
L -63 -1063 
L 3263 -1063 
z
" transform="scale(0.015625)"/>
       <path id="DejaVuSans-62" d="M 3116 1747 
Q 3116 2381 2855 2742 
Q 2594 3103 2138 3103 
Q 1681 3103 1420 2742 
Q 1159 2381 1159 1747 
Q 1159 1113 1420 752 
Q 1681 391 2138 391 
Q 2594 391 2855 752 
Q 3116 1113 3116 1747 
z
M 1159 2969 
Q 1341 3281 1617 3432 
Q 1894 3584 2278 3584 
Q 2916 3584 3314 3078 
Q 3713 2572 3713 1747 
Q 3713 922 3314 415 
Q 2916 -91 2278 -91 
Q 1894 -91 1617 61 
Q 1341 213 1159 525 
L 1159 0 
L 581 0 
L 581 4863 
L 1159 4863 
L 1159 2969 
z
" transform="scale(0.015625)"/>
      </defs>
      <use xlink:href="#DejaVuSans-75"/>
      <use xlink:href="#DejaVuSans-70" x="63.378906"/>
      <use xlink:href="#DejaVuSans-70" x="126.855469"/>
      <use xlink:href="#DejaVuSans-65" x="190.332031"/>
      <use xlink:href="#DejaVuSans-72" x="251.855469"/>
      <use xlink:href="#DejaVuSans-5f" x="292.96875"/>
      <use xlink:href="#DejaVuSans-62" x="342.96875"/>
      <use xlink:href="#DejaVuSans-6f" x="406.445312"/>
      <use xlink:href="#DejaVuSans-75" x="467.626953"/>
      <use xlink:href="#DejaVuSans-6e" x="531.005859"/>
      <use xlink:href="#DejaVuSans-64" x="594.384766"/>
     </g>
    </g>
    <g id="line2d_28">
     <path d="M 277.489063 35.254688 
L 277.489063 35.254688 
L 287.489063 35.254688 
L 287.489063 35.254688 
L 297.489063 35.254688 
" style="fill: none; stroke: #ff7f0e; stroke-width: 1.5; stroke-linecap: square"/>
    </g>
    <g id="text_13">
     <!-- dropped -->
     <g transform="translate(305.489063 38.754688) scale(0.1 -0.1)">
      <use xlink:href="#DejaVuSans-64"/>
      <use xlink:href="#DejaVuSans-72" x="63.476562"/>
      <use xlink:href="#DejaVuSans-6f" x="102.339844"/>
      <use xlink:href="#DejaVuSans-70" x="163.521484"/>
      <use xlink:href="#DejaVuSans-70" x="226.998047"/>
      <use xlink:href="#DejaVuSans-65" x="290.474609"/>
      <use xlink:href="#DejaVuSans-64" x="351.998047"/>
     </g>
    </g>
   </g>
   <g id="line2d_29">
    <path d="M 60.696307 62.232167 
L 62.870333 62.232167 
L 62.870333 60.958283 
L 65.044359 60.958283 
L 65.044359 59.38234 
L 67.218385 59.38234 
L 67.218385 57.467518 
L 69.392411 57.467518 
L 69.392411 54.851507 
L 71.566437 54.851507 
L 71.566437 52.777788 
L 73.740463 52.777788 
L 73.740463 49.805914 
L 75.914489 49.805914 
L 75.914489 46.871232 
L 78.088515 46.871232 
L 78.088515 42.635851 
L 80.262541 42.635851 
L 80.262541 38.456701 
L 82.436567 38.456701 
L 82.436567 33.957458 
L 84.610593 33.957458 
L 84.610593 29.027159 
L 86.784619 29.027159 
L 86.784619 24.867091 
L 88.958644 24.867091 
L 88.958644 20.650757 
L 91.13267 20.650757 
L 91.13267 18.052307 
L 93.306696 18.052307 
L 93.306696 17.558858 
L 95.480722 17.558858 
L 95.480722 19.544107 
L 97.654748 19.544107 
L 97.654748 24.466856 
L 99.828774 24.466856 
L 99.828774 32.10661 
L 102.0028 32.10661 
L 102.0028 41.665542 
L 104.176826 41.665542 
L 104.176826 52.355191 
L 106.350852 52.355191 
L 106.350852 63.502503 
L 108.524878 63.502503 
L 108.524878 74.617253 
L 110.698904 74.617253 
L 110.698904 85.256292 
L 112.87293 85.256292 
L 112.87293 95.755058 
L 115.046956 95.755058 
L 115.046956 105.538994 
L 117.220982 105.538994 
L 117.220982 114.037412 
L 119.395008 114.037412 
L 119.395008 122.496622 
L 121.569034 122.496622 
L 121.569034 129.672316 
L 123.74306 129.672316 
L 123.74306 135.944322 
L 125.917086 135.944322 
L 125.917086 141.812993 
L 128.091112 141.812993 
L 128.091112 146.646017 
L 130.265138 146.646017 
L 130.265138 150.688682 
L 132.439164 150.688682 
L 132.439164 154.18607 
L 134.61319 154.18607 
L 134.61319 156.301904 
L 136.787216 156.301904 
L 136.787216 157.662564 
L 138.961242 157.662564 
L 138.961242 159.146364 
L 141.135268 159.146364 
L 141.135268 160.667563 
L 143.309294 160.667563 
L 143.309294 160.925503 
L 145.48332 160.925503 
L 145.48332 161.503946 
L 147.657346 161.503946 
L 147.657346 162.004103 
L 149.831372 162.004103 
L 149.831372 161.073298 
L 152.005398 161.073298 
L 152.005398 161.978666 
L 154.179424 161.978666 
L 154.179424 162.299787 
L 156.35345 162.299787 
L 156.35345 162.622987 
L 158.527476 162.622987 
L 158.527476 162.996304 
L 160.701502 162.996304 
L 160.701502 162.530942 
L 162.875528 162.530942 
L 162.875528 163.626613 
L 165.049554 163.626613 
L 165.049554 164.675271 
L 167.22358 164.675271 
L 167.22358 163.808945 
L 169.397606 163.808945 
L 169.397606 164.523095 
L 173.745657 164.521459 
L 173.745657 164.965872 
L 175.919683 164.965872 
L 175.919683 163.999 
L 178.093709 163.999 
L 178.093709 164.739378 
L 180.267735 164.739378 
L 180.267735 165.787942 
L 182.441761 165.787942 
L 182.441761 166.454933 
L 184.615787 166.454933 
L 184.615787 166.17268 
L 186.789813 166.17268 
L 186.789813 165.166425 
L 188.963839 165.166425 
L 188.963839 166.791645 
L 191.137865 166.791645 
L 191.137865 167.234773 
L 193.311891 167.234773 
L 193.311891 167.42438 
L 195.485917 167.42438 
L 195.485917 167.024439 
L 197.659943 167.024439 
L 197.659943 166.524096 
L 199.833969 166.524096 
L 199.833969 168.052528 
L 202.007995 168.052528 
L 202.007995 167.15678 
L 206.356047 167.098158 
L 206.356047 168.665505 
L 208.530073 168.665505 
L 208.530073 168.0748 
L 210.704099 168.0748 
L 210.704099 167.444013 
L 212.878125 167.444013 
L 212.878125 168.747525 
L 215.052151 168.747525 
L 215.052151 166.979265 
L 217.226177 166.979265 
L 217.226177 165.9517 
L 219.400203 165.9517 
L 219.400203 167.085815 
L 221.574229 167.085815 
L 221.574229 167.303471 
L 223.748255 167.303471 
L 223.748255 168.974054 
L 225.922281 168.974054 
L 225.922281 167.521325 
L 228.096307 167.521325 
L 228.096307 168.408346 
L 230.270333 168.408346 
L 230.270333 167.008979 
L 232.444359 167.008979 
L 232.444359 165.60723 
L 234.618385 165.60723 
L 234.618385 167.763704 
L 236.792411 167.763704 
L 236.792411 167.589862 
L 238.966437 167.589862 
L 238.966437 166.315129 
L 241.140463 166.315129 
L 241.140463 168.52749 
L 243.314489 168.52749 
L 243.314489 165.663622 
L 245.488515 165.663622 
L 245.488515 169.704675 
L 247.662541 169.704675 
L 247.662541 166.595232 
L 249.836567 166.595232 
L 249.836567 167.684865 
L 252.010593 167.684865 
L 252.010593 166.478417 
L 254.184619 166.478417 
L 254.184619 168.825182 
L 256.358644 168.825182 
L 256.358644 169.844531 
L 258.53267 169.844531 
L 258.53267 166.664433 
L 260.706696 166.664433 
L 260.706696 167.654375 
L 262.880722 167.654375 
L 262.880722 169.008555 
L 265.054748 169.008555 
L 265.054748 168.24317 
L 267.228774 168.24317 
L 267.228774 171.479724 
L 269.4028 171.479724 
L 269.4028 169.139961 
L 271.576826 169.139961 
L 271.576826 171.756412 
L 273.750852 171.756412 
L 273.750852 165.430782 
L 275.924878 165.430782 
L 275.924878 173.40554 
L 278.098904 173.40554 
L 278.098904 172.306948 
L 280.27293 172.306948 
L 280.27293 167.542196 
L 282.446956 167.542196 
L 282.446956 166.640317 
L 284.620982 166.640317 
L 284.620982 165.729562 
L 286.795008 165.729562 
L 286.795008 169.732534 
L 288.969034 169.732534 
L 288.969034 170.451648 
L 291.14306 170.451648 
L 291.14306 166.169192 
L 293.317086 166.169192 
L 293.317086 164.787526 
L 295.491112 164.787526 
L 295.491112 177.906283 
L 297.665138 177.906283 
L 297.665138 174.216435 
L 299.839164 174.216435 
L 299.839164 176.651202 
L 302.01319 176.651202 
L 302.01319 180.518496 
L 304.187216 180.518496 
L 304.187216 167.570617 
L 306.361242 167.570617 
L 306.361242 172.813857 
L 308.535268 172.813857 
L 308.535268 175.184311 
L 310.709294 175.184311 
L 310.709294 165.058262 
L 312.88332 165.058262 
L 312.88332 171.402511 
L 315.057346 171.402511 
L 315.057346 178.763726 
L 317.231372 178.763726 
L 317.231372 177.687831 
L 319.405398 177.687831 
L 319.405398 168.867648 
L 321.579424 168.867648 
L 321.579424 176.581358 
L 323.75345 176.581358 
L 323.75345 171.130559 
L 325.927476 171.130559 
L 325.927476 165.051331 
L 328.101502 165.051331 
L 328.101502 174.797284 
L 330.275528 174.797284 
L 330.275528 168.742816 
L 332.449554 168.742816 
L 332.449554 179.929858 
L 334.62358 179.929858 
L 334.62358 172.188466 
L 336.797606 172.188466 
L 336.797606 160.992629 
L 338.971631 160.992629 
L 338.971631 153.440003 
L 341.145657 153.440003 
L 341.145657 174.265724 
L 343.319683 174.265724 
L 343.319683 158.177812 
L 345.493709 158.177812 
L 345.493709 162.667566 
L 347.667735 162.667566 
L 347.667735 173.943393 
L 349.841761 173.943393 
L 349.841761 180.51624 
L 352.015787 180.51624 
L 352.015787 179.841771 
L 354.189813 179.841771 
L 354.189813 186.317556 
L 356.363839 186.317556 
L 356.363839 168.837637 
L 358.537865 168.837637 
L 358.537865 168.319276 
L 360.711891 168.319276 
L 360.711891 162.845008 
L 362.885917 162.845008 
L 362.885917 268.439688 
L 362.885917 268.439688 
" clip-path="url(#p92381bfca9)" style="fill: none; stroke: #1f77b4; stroke-width: 1.5; stroke-linecap: square"/>
   </g>
   <g id="LineCollection_1">
    <path d="M 61.78332 62.717766 
L 61.78332 61.751862 
" clip-path="url(#p92381bfca9)" style="fill: none; stroke: #1f77b4; stroke-width: 1.5"/>
    <path d="M 63.957346 61.353829 
L 63.957346 60.566255 
" clip-path="url(#p92381bfca9)" style="fill: none; stroke: #1f77b4; stroke-width: 1.5"/>
    <path d="M 66.131372 59.740791 
L 66.131372 59.026782 
" clip-path="url(#p92381bfca9)" style="fill: none; stroke: #1f77b4; stroke-width: 1.5"/>
    <path d="M 68.305398 57.809181 
L 68.305398 57.128483 
" clip-path="url(#p92381bfca9)" style="fill: none; stroke: #1f77b4; stroke-width: 1.5"/>
    <path d="M 70.479424 55.182431 
L 70.479424 54.523049 
" clip-path="url(#p92381bfca9)" style="fill: none; stroke: #1f77b4; stroke-width: 1.5"/>
    <path d="M 72.65345 53.101643 
L 72.65345 52.456296 
" clip-path="url(#p92381bfca9)" style="fill: none; stroke: #1f77b4; stroke-width: 1.5"/>
    <path d="M 74.827476 50.12376 
L 74.827476 49.490345 
" clip-path="url(#p92381bfca9)" style="fill: none; stroke: #1f77b4; stroke-width: 1.5"/>
    <path d="M 77.001502 47.183379 
L 77.001502 46.56128 
" clip-path="url(#p92381bfca9)" style="fill: none; stroke: #1f77b4; stroke-width: 1.5"/>
    <path d="M 79.175528 42.942109 
L 79.175528 42.331707 
" clip-path="url(#p92381bfca9)" style="fill: none; stroke: #1f77b4; stroke-width: 1.5"/>
    <path d="M 81.349554 38.757648 
L 81.349554 38.157796 
" clip-path="url(#p92381bfca9)" style="fill: none; stroke: #1f77b4; stroke-width: 1.5"/>
    <path d="M 83.52358 34.253569 
L 83.52358 33.663323 
" clip-path="url(#p92381bfca9)" style="fill: none; stroke: #1f77b4; stroke-width: 1.5"/>
    <path d="M 85.697606 29.318984 
L 85.697606 28.737253 
" clip-path="url(#p92381bfca9)" style="fill: none; stroke: #1f77b4; stroke-width: 1.5"/>
    <path d="M 87.871631 25.154569 
L 87.871631 24.581477 
" clip-path="url(#p92381bfca9)" style="fill: none; stroke: #1f77b4; stroke-width: 1.5"/>
    <path d="M 90.045657 20.93512 
L 90.045657 20.368218 
" clip-path="url(#p92381bfca9)" style="fill: none; stroke: #1f77b4; stroke-width: 1.5"/>
    <path d="M 92.219683 18.334333 
L 92.219683 17.772074 
" clip-path="url(#p92381bfca9)" style="fill: none; stroke: #1f77b4; stroke-width: 1.5"/>
    <path d="M 94.393709 17.839489 
L 94.393709 17.280002 
" clip-path="url(#p92381bfca9)" style="fill: none; stroke: #1f77b4; stroke-width: 1.5"/>
    <path d="M 96.567735 19.823965 
L 96.567735 19.266015 
" clip-path="url(#p92381bfca9)" style="fill: none; stroke: #1f77b4; stroke-width: 1.5"/>
    <path d="M 98.741761 24.747074 
L 98.741761 24.188409 
" clip-path="url(#p92381bfca9)" style="fill: none; stroke: #1f77b4; stroke-width: 1.5"/>
    <path d="M 100.915787 32.387723 
L 100.915787 31.82728 
" clip-path="url(#p92381bfca9)" style="fill: none; stroke: #1f77b4; stroke-width: 1.5"/>
    <path d="M 103.089813 41.949158 
L 103.089813 41.383741 
" clip-path="url(#p92381bfca9)" style="fill: none; stroke: #1f77b4; stroke-width: 1.5"/>
    <path d="M 105.263839 52.642335 
L 105.263839 52.069906 
" clip-path="url(#p92381bfca9)" style="fill: none; stroke: #1f77b4; stroke-width: 1.5"/>
    <path d="M 107.437865 63.794511 
L 107.437865 63.212417 
" clip-path="url(#p92381bfca9)" style="fill: none; stroke: #1f77b4; stroke-width: 1.5"/>
    <path d="M 109.611891 74.915624 
L 109.611891 74.320889 
" clip-path="url(#p92381bfca9)" style="fill: none; stroke: #1f77b4; stroke-width: 1.5"/>
    <path d="M 111.785917 85.562385 
L 111.785917 84.95231 
" clip-path="url(#p92381bfca9)" style="fill: none; stroke: #1f77b4; stroke-width: 1.5"/>
    <path d="M 113.959943 96.070765 
L 113.959943 95.441597 
" clip-path="url(#p92381bfca9)" style="fill: none; stroke: #1f77b4; stroke-width: 1.5"/>
    <path d="M 116.133969 105.865794 
L 116.133969 105.214601 
" clip-path="url(#p92381bfca9)" style="fill: none; stroke: #1f77b4; stroke-width: 1.5"/>
    <path d="M 118.307995 114.376201 
L 118.307995 113.701208 
" clip-path="url(#p92381bfca9)" style="fill: none; stroke: #1f77b4; stroke-width: 1.5"/>
    <path d="M 120.482021 122.849168 
L 120.482021 122.146873 
" clip-path="url(#p92381bfca9)" style="fill: none; stroke: #1f77b4; stroke-width: 1.5"/>
    <path d="M 122.656047 130.039435 
L 122.656047 129.30823 
" clip-path="url(#p92381bfca9)" style="fill: none; stroke: #1f77b4; stroke-width: 1.5"/>
    <path d="M 124.830073 136.325934 
L 124.830073 135.565987 
" clip-path="url(#p92381bfca9)" style="fill: none; stroke: #1f77b4; stroke-width: 1.5"/>
    <path d="M 127.004099 142.210732 
L 127.004099 141.418811 
" clip-path="url(#p92381bfca9)" style="fill: none; stroke: #1f77b4; stroke-width: 1.5"/>
    <path d="M 129.178125 147.058457 
L 129.178125 146.237401 
" clip-path="url(#p92381bfca9)" style="fill: none; stroke: #1f77b4; stroke-width: 1.5"/>
    <path d="M 131.352151 151.114577 
L 131.352151 150.266864 
" clip-path="url(#p92381bfca9)" style="fill: none; stroke: #1f77b4; stroke-width: 1.5"/>
    <path d="M 133.526177 154.628254 
L 133.526177 153.748278 
" clip-path="url(#p92381bfca9)" style="fill: none; stroke: #1f77b4; stroke-width: 1.5"/>
    <path d="M 135.700203 156.754674 
L 135.700203 155.853739 
" clip-path="url(#p92381bfca9)" style="fill: none; stroke: #1f77b4; stroke-width: 1.5"/>
    <path d="M 137.874229 158.123799 
L 137.874229 157.206106 
" clip-path="url(#p92381bfca9)" style="fill: none; stroke: #1f77b4; stroke-width: 1.5"/>
    <path d="M 140.048255 159.617813 
L 140.048255 158.679905 
" clip-path="url(#p92381bfca9)" style="fill: none; stroke: #1f77b4; stroke-width: 1.5"/>
    <path d="M 142.222281 161.14901 
L 142.222281 160.191319 
" clip-path="url(#p92381bfca9)" style="fill: none; stroke: #1f77b4; stroke-width: 1.5"/>
    <path d="M 144.396307 161.414113 
L 144.396307 160.442251 
" clip-path="url(#p92381bfca9)" style="fill: none; stroke: #1f77b4; stroke-width: 1.5"/>
    <path d="M 146.570333 162.000016 
L 146.570333 161.013398 
" clip-path="url(#p92381bfca9)" style="fill: none; stroke: #1f77b4; stroke-width: 1.5"/>
    <path d="M 148.744359 162.507758 
L 148.744359 161.506138 
" clip-path="url(#p92381bfca9)" style="fill: none; stroke: #1f77b4; stroke-width: 1.5"/>
    <path d="M 150.918385 161.579941 
L 150.918385 160.572413 
" clip-path="url(#p92381bfca9)" style="fill: none; stroke: #1f77b4; stroke-width: 1.5"/>
    <path d="M 153.092411 162.496003 
L 153.092411 161.467331 
" clip-path="url(#p92381bfca9)" style="fill: none; stroke: #1f77b4; stroke-width: 1.5"/>
    <path d="M 155.266437 162.829086 
L 155.266437 161.776771 
" clip-path="url(#p92381bfca9)" style="fill: none; stroke: #1f77b4; stroke-width: 1.5"/>
    <path d="M 157.440463 163.159881 
L 157.440463 162.092554 
" clip-path="url(#p92381bfca9)" style="fill: none; stroke: #1f77b4; stroke-width: 1.5"/>
    <path d="M 159.614489 163.544471 
L 159.614489 162.454872 
" clip-path="url(#p92381bfca9)" style="fill: none; stroke: #1f77b4; stroke-width: 1.5"/>
    <path d="M 161.788515 163.085268 
L 161.788515 161.983503 
" clip-path="url(#p92381bfca9)" style="fill: none; stroke: #1f77b4; stroke-width: 1.5"/>
    <path d="M 163.962541 164.196193 
L 163.962541 163.0643 
" clip-path="url(#p92381bfca9)" style="fill: none; stroke: #1f77b4; stroke-width: 1.5"/>
    <path d="M 166.136567 165.260437 
L 166.136567 164.097774 
" clip-path="url(#p92381bfca9)" style="fill: none; stroke: #1f77b4; stroke-width: 1.5"/>
    <path d="M 168.310593 164.398812 
L 168.310593 163.226869 
" clip-path="url(#p92381bfca9)" style="fill: none; stroke: #1f77b4; stroke-width: 1.5"/>
    <path d="M 170.484619 165.12707 
L 170.484619 163.927286 
" clip-path="url(#p92381bfca9)" style="fill: none; stroke: #1f77b4; stroke-width: 1.5"/>
    <path d="M 172.658644 165.13776 
L 172.658644 163.913658 
" clip-path="url(#p92381bfca9)" style="fill: none; stroke: #1f77b4; stroke-width: 1.5"/>
    <path d="M 174.83267 165.593614 
L 174.83267 164.346946 
" clip-path="url(#p92381bfca9)" style="fill: none; stroke: #1f77b4; stroke-width: 1.5"/>
    <path d="M 177.006696 164.637444 
L 177.006696 163.369674 
" clip-path="url(#p92381bfca9)" style="fill: none; stroke: #1f77b4; stroke-width: 1.5"/>
    <path d="M 179.180722 165.395542 
L 179.180722 164.092841 
" clip-path="url(#p92381bfca9)" style="fill: none; stroke: #1f77b4; stroke-width: 1.5"/>
    <path d="M 181.354748 166.46165 
L 181.354748 165.124378 
" clip-path="url(#p92381bfca9)" style="fill: none; stroke: #1f77b4; stroke-width: 1.5"/>
    <path d="M 183.528774 167.150788 
L 183.528774 165.769894 
" clip-path="url(#p92381bfca9)" style="fill: none; stroke: #1f77b4; stroke-width: 1.5"/>
    <path d="M 185.7028 166.873392 
L 185.7028 165.482936 
" clip-path="url(#p92381bfca9)" style="fill: none; stroke: #1f77b4; stroke-width: 1.5"/>
    <path d="M 187.876826 165.879505 
L 187.876826 164.464698 
" clip-path="url(#p92381bfca9)" style="fill: none; stroke: #1f77b4; stroke-width: 1.5"/>
    <path d="M 190.050852 167.531746 
L 190.050852 166.063768 
" clip-path="url(#p92381bfca9)" style="fill: none; stroke: #1f77b4; stroke-width: 1.5"/>
    <path d="M 192.224878 167.997212 
L 192.224878 166.4853 
" clip-path="url(#p92381bfca9)" style="fill: none; stroke: #1f77b4; stroke-width: 1.5"/>
    <path d="M 194.398904 168.201992 
L 194.398904 166.660251 
" clip-path="url(#p92381bfca9)" style="fill: none; stroke: #1f77b4; stroke-width: 1.5"/>
    <path d="M 196.57293 167.817486 
L 196.57293 166.245411 
" clip-path="url(#p92381bfca9)" style="fill: none; stroke: #1f77b4; stroke-width: 1.5"/>
    <path d="M 198.746956 167.328063 
L 198.746956 165.734532 
" clip-path="url(#p92381bfca9)" style="fill: none; stroke: #1f77b4; stroke-width: 1.5"/>
    <path d="M 200.920982 168.897868 
L 200.920982 167.223099 
" clip-path="url(#p92381bfca9)" style="fill: none; stroke: #1f77b4; stroke-width: 1.5"/>
    <path d="M 203.095008 168.010725 
L 203.095008 166.319067 
" clip-path="url(#p92381bfca9)" style="fill: none; stroke: #1f77b4; stroke-width: 1.5"/>
    <path d="M 205.269034 167.973507 
L 205.269034 166.239858 
" clip-path="url(#p92381bfca9)" style="fill: none; stroke: #1f77b4; stroke-width: 1.5"/>
    <path d="M 207.44306 169.5829 
L 207.44306 167.766817 
" clip-path="url(#p92381bfca9)" style="fill: none; stroke: #1f77b4; stroke-width: 1.5"/>
    <path d="M 209.617086 169.01069 
L 209.617086 167.158371 
" clip-path="url(#p92381bfca9)" style="fill: none; stroke: #1f77b4; stroke-width: 1.5"/>
    <path d="M 211.791112 168.400551 
L 211.791112 166.507795 
" clip-path="url(#p92381bfca9)" style="fill: none; stroke: #1f77b4; stroke-width: 1.5"/>
    <path d="M 213.965138 169.74872 
L 213.965138 167.768572 
" clip-path="url(#p92381bfca9)" style="fill: none; stroke: #1f77b4; stroke-width: 1.5"/>
    <path d="M 216.139164 167.991224 
L 216.139164 165.990022 
" clip-path="url(#p92381bfca9)" style="fill: none; stroke: #1f77b4; stroke-width: 1.5"/>
    <path d="M 218.31319 166.989083 
L 218.31319 164.938176 
" clip-path="url(#p92381bfca9)" style="fill: none; stroke: #1f77b4; stroke-width: 1.5"/>
    <path d="M 220.487216 168.179082 
L 220.487216 166.019014 
" clip-path="url(#p92381bfca9)" style="fill: none; stroke: #1f77b4; stroke-width: 1.5"/>
    <path d="M 222.661242 168.426109 
L 222.661242 166.208721 
" clip-path="url(#p92381bfca9)" style="fill: none; stroke: #1f77b4; stroke-width: 1.5"/>
    <path d="M 224.835268 170.157074 
L 224.835268 167.821963 
" clip-path="url(#p92381bfca9)" style="fill: none; stroke: #1f77b4; stroke-width: 1.5"/>
    <path d="M 227.009294 168.739965 
L 227.009294 166.335478 
" clip-path="url(#p92381bfca9)" style="fill: none; stroke: #1f77b4; stroke-width: 1.5"/>
    <path d="M 229.18332 169.689709 
L 229.18332 167.163188 
" clip-path="url(#p92381bfca9)" style="fill: none; stroke: #1f77b4; stroke-width: 1.5"/>
    <path d="M 231.357346 168.311842 
L 231.357346 165.743529 
" clip-path="url(#p92381bfca9)" style="fill: none; stroke: #1f77b4; stroke-width: 1.5"/>
    <path d="M 233.531372 166.962136 
L 233.531372 164.292739 
" clip-path="url(#p92381bfca9)" style="fill: none; stroke: #1f77b4; stroke-width: 1.5"/>
    <path d="M 235.705398 169.190524 
L 235.705398 166.381634 
" clip-path="url(#p92381bfca9)" style="fill: none; stroke: #1f77b4; stroke-width: 1.5"/>
    <path d="M 237.879424 169.084937 
L 237.879424 166.143846 
" clip-path="url(#p92381bfca9)" style="fill: none; stroke: #1f77b4; stroke-width: 1.5"/>
    <path d="M 240.05345 167.853035 
L 240.05345 164.829087 
" clip-path="url(#p92381bfca9)" style="fill: none; stroke: #1f77b4; stroke-width: 1.5"/>
    <path d="M 242.227476 170.146756 
L 242.227476 166.965617 
" clip-path="url(#p92381bfca9)" style="fill: none; stroke: #1f77b4; stroke-width: 1.5"/>
    <path d="M 244.401502 167.308427 
L 244.401502 164.078002 
" clip-path="url(#p92381bfca9)" style="fill: none; stroke: #1f77b4; stroke-width: 1.5"/>
    <path d="M 246.575528 171.511522 
L 246.575528 167.968998 
" clip-path="url(#p92381bfca9)" style="fill: none; stroke: #1f77b4; stroke-width: 1.5"/>
    <path d="M 248.749554 168.417185 
L 248.749554 164.84562 
" clip-path="url(#p92381bfca9)" style="fill: none; stroke: #1f77b4; stroke-width: 1.5"/>
    <path d="M 250.92358 169.590361 
L 250.92358 165.858354 
" clip-path="url(#p92381bfca9)" style="fill: none; stroke: #1f77b4; stroke-width: 1.5"/>
    <path d="M 253.097606 168.432346 
L 253.097606 164.607452 
" clip-path="url(#p92381bfca9)" style="fill: none; stroke: #1f77b4; stroke-width: 1.5"/>
    <path d="M 255.271631 170.911645 
L 255.271631 166.833051 
" clip-path="url(#p92381bfca9)" style="fill: none; stroke: #1f77b4; stroke-width: 1.5"/>
    <path d="M 257.445657 172.055914 
L 257.445657 167.738828 
" clip-path="url(#p92381bfca9)" style="fill: none; stroke: #1f77b4; stroke-width: 1.5"/>
    <path d="M 259.619683 168.89508 
L 259.619683 164.541273 
" clip-path="url(#p92381bfca9)" style="fill: none; stroke: #1f77b4; stroke-width: 1.5"/>
    <path d="M 261.793709 169.987469 
L 261.793709 165.438609 
" clip-path="url(#p92381bfca9)" style="fill: none; stroke: #1f77b4; stroke-width: 1.5"/>
    <path d="M 263.967735 171.391542 
L 263.967735 166.747838 
" clip-path="url(#p92381bfca9)" style="fill: none; stroke: #1f77b4; stroke-width: 1.5"/>
    <path d="M 266.141761 170.766282 
L 266.141761 165.856721 
" clip-path="url(#p92381bfca9)" style="fill: none; stroke: #1f77b4; stroke-width: 1.5"/>
    <path d="M 268.315787 174.171794 
L 268.315787 168.942676 
" clip-path="url(#p92381bfca9)" style="fill: none; stroke: #1f77b4; stroke-width: 1.5"/>
    <path d="M 270.489813 171.822672 
L 270.489813 166.611227 
" clip-path="url(#p92381bfca9)" style="fill: none; stroke: #1f77b4; stroke-width: 1.5"/>
    <path d="M 272.663839 174.591397 
L 272.663839 169.092827 
" clip-path="url(#p92381bfca9)" style="fill: none; stroke: #1f77b4; stroke-width: 1.5"/>
    <path d="M 274.837865 168.22592 
L 274.837865 162.802399 
" clip-path="url(#p92381bfca9)" style="fill: none; stroke: #1f77b4; stroke-width: 1.5"/>
    <path d="M 277.011891 176.547686 
L 277.011891 170.47259 
" clip-path="url(#p92381bfca9)" style="fill: none; stroke: #1f77b4; stroke-width: 1.5"/>
    <path d="M 279.185917 175.573371 
L 279.185917 169.266009 
" clip-path="url(#p92381bfca9)" style="fill: none; stroke: #1f77b4; stroke-width: 1.5"/>
    <path d="M 281.359943 170.723691 
L 281.359943 164.574992 
" clip-path="url(#p92381bfca9)" style="fill: none; stroke: #1f77b4; stroke-width: 1.5"/>
    <path d="M 283.533969 169.935279 
L 283.533969 163.574659 
" clip-path="url(#p92381bfca9)" style="fill: none; stroke: #1f77b4; stroke-width: 1.5"/>
    <path d="M 285.707995 169.175644 
L 285.707995 162.533512 
" clip-path="url(#p92381bfca9)" style="fill: none; stroke: #1f77b4; stroke-width: 1.5"/>
    <path d="M 287.882021 173.502846 
L 287.882021 166.259511 
" clip-path="url(#p92381bfca9)" style="fill: none; stroke: #1f77b4; stroke-width: 1.5"/>
    <path d="M 290.056047 174.436155 
L 290.056047 166.797707 
" clip-path="url(#p92381bfca9)" style="fill: none; stroke: #1f77b4; stroke-width: 1.5"/>
    <path d="M 292.230073 170.086841 
L 292.230073 162.571548 
" clip-path="url(#p92381bfca9)" style="fill: none; stroke: #1f77b4; stroke-width: 1.5"/>
    <path d="M 294.404099 168.759938 
L 294.404099 161.143757 
" clip-path="url(#p92381bfca9)" style="fill: none; stroke: #1f77b4; stroke-width: 1.5"/>
    <path d="M 296.578125 182.997901 
L 296.578125 173.342461 
" clip-path="url(#p92381bfca9)" style="fill: none; stroke: #1f77b4; stroke-width: 1.5"/>
    <path d="M 298.752151 179.11915 
L 298.752151 169.80494 
" clip-path="url(#p92381bfca9)" style="fill: none; stroke: #1f77b4; stroke-width: 1.5"/>
    <path d="M 300.926177 181.773524 
L 300.926177 172.062734 
" clip-path="url(#p92381bfca9)" style="fill: none; stroke: #1f77b4; stroke-width: 1.5"/>
    <path d="M 303.100203 186.014682 
L 303.100203 175.632375 
" clip-path="url(#p92381bfca9)" style="fill: none; stroke: #1f77b4; stroke-width: 1.5"/>
    <path d="M 305.274229 172.730719 
L 305.274229 162.951863 
" clip-path="url(#p92381bfca9)" style="fill: none; stroke: #1f77b4; stroke-width: 1.5"/>
    <path d="M 307.448255 178.35101 
L 307.448255 167.895394 
" clip-path="url(#p92381bfca9)" style="fill: none; stroke: #1f77b4; stroke-width: 1.5"/>
    <path d="M 309.622281 181.251736 
L 309.622281 169.852026 
" clip-path="url(#p92381bfca9)" style="fill: none; stroke: #1f77b4; stroke-width: 1.5"/>
    <path d="M 311.796307 170.618341 
L 311.796307 160.121724 
" clip-path="url(#p92381bfca9)" style="fill: none; stroke: #1f77b4; stroke-width: 1.5"/>
    <path d="M 313.970333 177.339637 
L 313.970333 166.171092 
" clip-path="url(#p92381bfca9)" style="fill: none; stroke: #1f77b4; stroke-width: 1.5"/>
    <path d="M 316.144359 186.422735 
L 316.144359 172.240768 
" clip-path="url(#p92381bfca9)" style="fill: none; stroke: #1f77b4; stroke-width: 1.5"/>
    <path d="M 318.318385 185.724915 
L 318.318385 170.892841 
" clip-path="url(#p92381bfca9)" style="fill: none; stroke: #1f77b4; stroke-width: 1.5"/>
    <path d="M 320.492411 175.835438 
L 320.492411 162.85258 
" clip-path="url(#p92381bfca9)" style="fill: none; stroke: #1f77b4; stroke-width: 1.5"/>
    <path d="M 322.666437 185.131415 
L 322.666437 169.423609 
" clip-path="url(#p92381bfca9)" style="fill: none; stroke: #1f77b4; stroke-width: 1.5"/>
    <path d="M 324.840463 179.118638 
L 324.840463 164.370603 
" clip-path="url(#p92381bfca9)" style="fill: none; stroke: #1f77b4; stroke-width: 1.5"/>
    <path d="M 327.014489 172.84718 
L 327.014489 158.429449 
" clip-path="url(#p92381bfca9)" style="fill: none; stroke: #1f77b4; stroke-width: 1.5"/>
    <path d="M 329.188515 183.502345 
L 329.188515 167.531329 
" clip-path="url(#p92381bfca9)" style="fill: none; stroke: #1f77b4; stroke-width: 1.5"/>
    <path d="M 331.362541 177.466341 
L 331.362541 161.464014 
" clip-path="url(#p92381bfca9)" style="fill: none; stroke: #1f77b4; stroke-width: 1.5"/>
    <path d="M 333.536567 190.271512 
L 333.536567 171.559662 
" clip-path="url(#p92381bfca9)" style="fill: none; stroke: #1f77b4; stroke-width: 1.5"/>
    <path d="M 335.710593 182.093658 
L 335.710593 164.106091 
" clip-path="url(#p92381bfca9)" style="fill: none; stroke: #1f77b4; stroke-width: 1.5"/>
    <path d="M 337.884619 170.333235 
L 337.884619 153.28968 
" clip-path="url(#p92381bfca9)" style="fill: none; stroke: #1f77b4; stroke-width: 1.5"/>
    <path d="M 340.058644 162.486965 
L 340.058644 145.937636 
" clip-path="url(#p92381bfca9)" style="fill: none; stroke: #1f77b4; stroke-width: 1.5"/>
    <path d="M 342.23267 187.743456 
L 342.23267 163.958869 
" clip-path="url(#p92381bfca9)" style="fill: none; stroke: #1f77b4; stroke-width: 1.5"/>
    <path d="M 344.406696 169.983114 
L 344.406696 148.875973 
" clip-path="url(#p92381bfca9)" style="fill: none; stroke: #1f77b4; stroke-width: 1.5"/>
    <path d="M 346.580722 177.735005 
L 346.580722 151.459813 
" clip-path="url(#p92381bfca9)" style="fill: none; stroke: #1f77b4; stroke-width: 1.5"/>
    <path d="M 348.754748 193.389209 
L 348.754748 160.497357 
" clip-path="url(#p92381bfca9)" style="fill: none; stroke: #1f77b4; stroke-width: 1.5"/>
    <path d="M 350.928774 207.021129 
L 350.928774 164.081465 
" clip-path="url(#p92381bfca9)" style="fill: none; stroke: #1f77b4; stroke-width: 1.5"/>
    <path d="M 353.1028 203.214323 
L 353.1028 164.64966 
" clip-path="url(#p92381bfca9)" style="fill: none; stroke: #1f77b4; stroke-width: 1.5"/>
    <path d="M 355.276826 217.106985 
L 355.276826 168.368062 
" clip-path="url(#p92381bfca9)" style="fill: none; stroke: #1f77b4; stroke-width: 1.5"/>
    <path d="M 357.450852 217.150615 
L 357.450852 146.345941 
" clip-path="url(#p92381bfca9)" style="fill: none; stroke: #1f77b4; stroke-width: 1.5"/>
    <path d="M 359.624878 218.88 
L 359.624878 145.390239 
" clip-path="url(#p92381bfca9)" style="fill: none; stroke: #1f77b4; stroke-width: 1.5"/>
    <path d="M 361.798904 217.254139 
L 361.798904 139.225972 
" clip-path="url(#p92381bfca9)" style="fill: none; stroke: #1f77b4; stroke-width: 1.5"/>
    <path clip-path="url(#p92381bfca9)" style="fill: none; stroke: #1f77b4; stroke-width: 1.5"/>
   </g>
   <g id="line2d_30">
    <path d="M 60.696307 62.232167 
L 62.870333 62.232167 
L 62.870333 60.958283 
L 65.044359 60.958283 
L 65.044359 59.38234 
L 67.218385 59.38234 
L 67.218385 57.467518 
L 69.392411 57.467518 
L 69.392411 54.851507 
L 71.566437 54.851507 
L 71.566437 52.777788 
L 73.740463 52.777788 
L 73.740463 49.805914 
L 75.914489 49.805914 
L 75.914489 46.871232 
L 78.088515 46.871232 
L 78.088515 42.635851 
L 80.262541 42.635851 
L 80.262541 38.456701 
L 82.436567 38.456701 
L 82.436567 33.957458 
L 84.610593 33.957458 
L 84.610593 29.027159 
L 86.784619 29.027159 
L 86.784619 24.867091 
L 88.958644 24.867091 
L 88.958644 20.650757 
L 91.13267 20.650757 
L 91.13267 18.052307 
L 93.306696 18.052307 
L 93.306696 17.558858 
L 95.480722 17.558858 
L 95.480722 19.544107 
L 97.654748 19.544107 
L 97.654748 24.466856 
L 99.828774 24.466856 
L 99.828774 32.10661 
L 102.0028 32.10661 
L 102.0028 41.665542 
L 104.176826 41.665542 
L 104.176826 52.355191 
L 106.350852 52.355191 
L 106.350852 63.502503 
L 108.524878 63.502503 
L 108.524878 74.617253 
L 110.698904 74.617253 
L 110.698904 85.256292 
L 112.87293 85.256292 
L 112.87293 95.755058 
L 115.046956 95.755058 
L 115.046956 105.538994 
L 117.220982 105.538994 
L 117.220982 114.037412 
L 119.395008 114.037412 
L 119.395008 122.496622 
L 121.569034 122.496622 
L 121.569034 129.672316 
L 123.74306 129.672316 
L 123.74306 135.944322 
L 125.917086 135.944322 
L 125.917086 141.812993 
L 128.091112 141.812993 
L 128.091112 146.646017 
L 130.265138 146.646017 
L 130.265138 150.688682 
L 132.439164 150.688682 
L 132.439164 154.18607 
L 134.61319 154.18607 
L 134.61319 156.301904 
L 136.787216 156.301904 
L 136.787216 157.662564 
L 138.961242 157.662564 
L 138.961242 159.146364 
L 141.135268 159.146364 
L 141.135268 160.667563 
L 143.309294 160.667563 
L 143.309294 160.925503 
L 145.48332 160.925503 
L 145.48332 161.503946 
L 147.657346 161.503946 
L 147.657346 162.004103 
L 149.831372 162.004103 
L 149.831372 161.073298 
L 152.005398 161.073298 
L 152.005398 161.978666 
L 154.179424 161.978666 
L 154.179424 162.299787 
L 156.35345 162.299787 
L 156.35345 162.622987 
L 158.527476 162.622987 
L 158.527476 162.996304 
L 160.701502 162.996304 
L 160.701502 162.530942 
L 162.875528 162.530942 
L 162.875528 163.626613 
L 165.049554 163.626613 
L 165.049554 164.675271 
L 167.22358 164.675271 
L 167.22358 163.808945 
L 169.397606 163.808945 
L 169.397606 164.523095 
L 173.745657 164.521459 
L 173.745657 164.965872 
L 175.919683 164.965872 
L 175.919683 163.999 
L 178.093709 163.999 
L 178.093709 164.739378 
L 180.267735 164.739378 
L 180.267735 165.787942 
L 182.441761 165.787942 
L 182.441761 166.454933 
L 184.615787 166.454933 
L 184.615787 166.17268 
L 186.789813 166.17268 
L 186.789813 165.166425 
L 188.963839 165.166425 
L 188.963839 166.791645 
L 191.137865 166.791645 
L 191.137865 167.234773 
L 193.311891 167.234773 
L 193.311891 167.42438 
L 195.485917 167.42438 
L 195.485917 167.024439 
L 197.659943 167.024439 
L 197.659943 166.524096 
L 199.833969 166.524096 
L 199.833969 168.052528 
L 202.007995 168.052528 
L 202.007995 167.15678 
L 206.356047 167.098158 
L 206.356047 168.665505 
L 208.530073 168.665505 
L 208.530073 168.0748 
L 210.704099 168.0748 
L 210.704099 167.444013 
L 212.878125 167.444013 
L 212.878125 168.747525 
L 215.052151 168.747525 
L 215.052151 166.979265 
L 217.226177 166.979265 
L 217.226177 165.9517 
L 219.400203 165.9517 
L 219.400203 167.085815 
L 221.574229 167.085815 
L 221.574229 167.303471 
L 223.748255 167.303471 
L 223.748255 168.974054 
L 225.922281 168.974054 
L 225.922281 167.521325 
L 228.096307 167.521325 
L 228.096307 168.408346 
L 230.270333 168.408346 
L 230.270333 167.008979 
L 232.444359 167.008979 
L 232.444359 165.60723 
L 234.618385 165.60723 
L 234.618385 167.763704 
L 236.792411 167.763704 
L 236.792411 167.589862 
L 238.966437 167.589862 
L 238.966437 166.315129 
L 241.140463 166.315129 
L 241.140463 168.52749 
L 243.314489 168.52749 
L 243.314489 165.663622 
L 245.488515 165.663622 
L 245.488515 169.704675 
L 247.662541 169.704675 
L 247.662541 166.595232 
L 249.836567 166.595232 
L 249.836567 167.684865 
L 252.010593 167.684865 
L 252.010593 166.478417 
L 254.184619 166.478417 
L 254.184619 168.825182 
L 256.358644 168.825182 
L 256.358644 169.844531 
L 258.53267 169.844531 
L 258.53267 166.664433 
L 260.706696 166.664433 
L 260.706696 167.654375 
L 262.880722 167.654375 
L 262.880722 169.008555 
L 265.054748 169.008555 
L 265.054748 168.24317 
L 267.228774 168.24317 
L 267.228774 171.479724 
L 269.4028 171.479724 
L 269.4028 169.139961 
L 271.576826 169.139961 
L 271.576826 171.756412 
L 273.750852 171.756412 
L 273.750852 165.430782 
L 275.924878 165.430782 
L 275.924878 173.40554 
L 278.098904 173.40554 
L 278.098904 172.306948 
L 280.27293 172.306948 
L 280.27293 167.542196 
L 282.446956 167.542196 
L 282.446956 166.640317 
L 284.620982 166.640317 
L 284.620982 165.729562 
L 286.795008 165.729562 
L 286.795008 169.732534 
L 288.969034 169.732534 
L 288.969034 170.451648 
L 291.14306 170.451648 
L 291.14306 166.169192 
L 293.317086 166.169192 
L 293.317086 164.787526 
L 295.491112 164.787526 
L 295.491112 177.906283 
L 297.665138 177.906283 
L 297.665138 174.216435 
L 299.839164 174.216435 
L 299.839164 176.651202 
L 302.01319 176.651202 
L 302.01319 180.518496 
L 304.187216 180.518496 
L 304.187216 167.570617 
L 306.361242 167.570617 
L 306.361242 172.813857 
L 308.535268 172.813857 
L 308.535268 175.184311 
L 310.709294 175.184311 
L 310.709294 165.058262 
L 312.88332 165.058262 
L 312.88332 171.402511 
L 315.057346 171.402511 
L 315.057346 178.763726 
L 317.231372 178.763726 
L 317.231372 177.687831 
L 319.405398 177.687831 
L 319.405398 168.867648 
L 321.579424 168.867648 
L 321.579424 176.581358 
L 323.75345 176.581358 
L 323.75345 171.130559 
L 325.927476 171.130559 
L 325.927476 165.051331 
L 328.101502 165.051331 
L 328.101502 174.797284 
L 330.275528 174.797284 
L 330.275528 168.742816 
L 332.449554 168.742816 
L 332.449554 179.929858 
L 334.62358 179.929858 
L 334.62358 172.188466 
L 336.797606 172.188466 
L 336.797606 160.992629 
L 338.971631 160.992629 
L 338.971631 153.440003 
L 341.145657 153.440003 
L 341.145657 174.265724 
L 343.319683 174.265724 
L 343.319683 158.177812 
L 345.493709 158.177812 
L 345.493709 162.667566 
L 347.667735 162.667566 
L 347.667735 173.943393 
L 349.841761 173.943393 
L 349.841761 180.51624 
L 352.015787 180.51624 
L 352.015787 179.841771 
L 354.189813 179.841771 
L 354.189813 186.317556 
L 356.363839 186.317556 
L 356.363839 168.837637 
L 358.537865 168.837637 
L 358.537865 168.319276 
L 360.711891 168.319276 
L 360.711891 162.845008 
L 362.885917 162.845008 
L 362.885917 268.439688 
L 362.885917 268.439688 
" clip-path="url(#p92381bfca9)" style="fill: none; stroke: #ff7f0e; stroke-width: 1.5; stroke-linecap: square"/>
   </g>
   <g id="LineCollection_2">
    <path d="M 61.78332 62.5487 
L 61.78332 61.917892 
" clip-path="url(#p92381bfca9)" style="fill: none; stroke: #ff7f0e; stroke-width: 1.5"/>
    <path d="M 63.957346 61.196549 
L 63.957346 60.721297 
" clip-path="url(#p92381bfca9)" style="fill: none; stroke: #ff7f0e; stroke-width: 1.5"/>
    <path d="M 66.131372 59.58166 
L 66.131372 59.183919 
" clip-path="url(#p92381bfca9)" style="fill: none; stroke: #ff7f0e; stroke-width: 1.5"/>
    <path d="M 68.305398 57.642871 
L 68.305398 57.292859 
" clip-path="url(#p92381bfca9)" style="fill: none; stroke: #ff7f0e; stroke-width: 1.5"/>
    <path d="M 70.479424 55.008074 
L 70.479424 54.695494 
" clip-path="url(#p92381bfca9)" style="fill: none; stroke: #ff7f0e; stroke-width: 1.5"/>
    <path d="M 72.65345 52.920325 
L 72.65345 52.635711 
" clip-path="url(#p92381bfca9)" style="fill: none; stroke: #ff7f0e; stroke-width: 1.5"/>
    <path d="M 74.827476 49.935554 
L 74.827476 49.676655 
" clip-path="url(#p92381bfca9)" style="fill: none; stroke: #ff7f0e; stroke-width: 1.5"/>
    <path d="M 77.001502 46.990047 
L 77.001502 46.752736 
" clip-path="url(#p92381bfca9)" style="fill: none; stroke: #ff7f0e; stroke-width: 1.5"/>
    <path d="M 79.175528 42.744003 
L 79.175528 42.527965 
" clip-path="url(#p92381bfca9)" style="fill: none; stroke: #ff7f0e; stroke-width: 1.5"/>
    <path d="M 81.349554 38.555696 
L 81.349554 38.357928 
" clip-path="url(#p92381bfca9)" style="fill: none; stroke: #ff7f0e; stroke-width: 1.5"/>
    <path d="M 83.52358 34.048234 
L 83.52358 33.866868 
" clip-path="url(#p92381bfca9)" style="fill: none; stroke: #ff7f0e; stroke-width: 1.5"/>
    <path d="M 85.697606 29.110463 
L 85.697606 28.944012 
" clip-path="url(#p92381bfca9)" style="fill: none; stroke: #ff7f0e; stroke-width: 1.5"/>
    <path d="M 87.871631 24.944131 
L 87.871631 24.790186 
" clip-path="url(#p92381bfca9)" style="fill: none; stroke: #ff7f0e; stroke-width: 1.5"/>
    <path d="M 90.045657 20.722659 
L 90.045657 20.578973 
" clip-path="url(#p92381bfca9)" style="fill: none; stroke: #ff7f0e; stroke-width: 1.5"/>
    <path d="M 92.219683 18.120654 
L 92.219683 17.984067 
" clip-path="url(#p92381bfca9)" style="fill: none; stroke: #ff7f0e; stroke-width: 1.5"/>
    <path d="M 94.393709 17.625647 
L 94.393709 17.492169 
" clip-path="url(#p92381bfca9)" style="fill: none; stroke: #ff7f0e; stroke-width: 1.5"/>
    <path d="M 96.567735 19.611405 
L 96.567735 19.476911 
" clip-path="url(#p92381bfca9)" style="fill: none; stroke: #ff7f0e; stroke-width: 1.5"/>
    <path d="M 98.741761 24.537192 
L 98.741761 24.396633 
" clip-path="url(#p92381bfca9)" style="fill: none; stroke: #ff7f0e; stroke-width: 1.5"/>
    <path d="M 100.915787 32.182348 
L 100.915787 32.031003 
" clip-path="url(#p92381bfca9)" style="fill: none; stroke: #ff7f0e; stroke-width: 1.5"/>
    <path d="M 103.089813 41.749347 
L 103.089813 41.581897 
" clip-path="url(#p92381bfca9)" style="fill: none; stroke: #ff7f0e; stroke-width: 1.5"/>
    <path d="M 105.263839 52.449214 
L 105.263839 52.261369 
" clip-path="url(#p92381bfca9)" style="fill: none; stroke: #ff7f0e; stroke-width: 1.5"/>
    <path d="M 107.437865 63.608683 
L 107.437865 63.396578 
" clip-path="url(#p92381bfca9)" style="fill: none; stroke: #ff7f0e; stroke-width: 1.5"/>
    <path d="M 109.611891 74.737511 
L 109.611891 74.497322 
" clip-path="url(#p92381bfca9)" style="fill: none; stroke: #ff7f0e; stroke-width: 1.5"/>
    <path d="M 111.785917 85.391847 
L 111.785917 85.121153 
" clip-path="url(#p92381bfca9)" style="fill: none; stroke: #ff7f0e; stroke-width: 1.5"/>
    <path d="M 113.959943 95.908005 
L 113.959943 95.602639 
" clip-path="url(#p92381bfca9)" style="fill: none; stroke: #ff7f0e; stroke-width: 1.5"/>
    <path d="M 116.133969 105.710448 
L 116.133969 105.368205 
" clip-path="url(#p92381bfca9)" style="fill: none; stroke: #ff7f0e; stroke-width: 1.5"/>
    <path d="M 118.307995 114.227175 
L 118.307995 113.848463 
" clip-path="url(#p92381bfca9)" style="fill: none; stroke: #ff7f0e; stroke-width: 1.5"/>
    <path d="M 120.482021 122.706693 
L 120.482021 122.287547 
" clip-path="url(#p92381bfca9)" style="fill: none; stroke: #ff7f0e; stroke-width: 1.5"/>
    <path d="M 122.656047 129.901937 
L 122.656047 129.443886 
" clip-path="url(#p92381bfca9)" style="fill: none; stroke: #ff7f0e; stroke-width: 1.5"/>
    <path d="M 124.830073 136.192976 
L 124.830073 135.697064 
" clip-path="url(#p92381bfca9)" style="fill: none; stroke: #ff7f0e; stroke-width: 1.5"/>
    <path d="M 127.004099 142.081871 
L 127.004099 141.545745 
" clip-path="url(#p92381bfca9)" style="fill: none; stroke: #ff7f0e; stroke-width: 1.5"/>
    <path d="M 129.178125 146.93249 
L 129.178125 146.361394 
" clip-path="url(#p92381bfca9)" style="fill: none; stroke: #ff7f0e; stroke-width: 1.5"/>
    <path d="M 131.352151 150.991619 
L 131.352151 150.387814 
" clip-path="url(#p92381bfca9)" style="fill: none; stroke: #ff7f0e; stroke-width: 1.5"/>
    <path d="M 133.526177 154.506182 
L 133.526177 153.868266 
" clip-path="url(#p92381bfca9)" style="fill: none; stroke: #ff7f0e; stroke-width: 1.5"/>
    <path d="M 135.700203 156.633406 
L 135.700203 155.972877 
" clip-path="url(#p92381bfca9)" style="fill: none; stroke: #ff7f0e; stroke-width: 1.5"/>
    <path d="M 137.874229 158.002565 
L 137.874229 157.325166 
" clip-path="url(#p92381bfca9)" style="fill: none; stroke: #ff7f0e; stroke-width: 1.5"/>
    <path d="M 140.048255 159.496505 
L 140.048255 158.798984 
" clip-path="url(#p92381bfca9)" style="fill: none; stroke: #ff7f0e; stroke-width: 1.5"/>
    <path d="M 142.222281 161.028035 
L 142.222281 160.310017 
" clip-path="url(#p92381bfca9)" style="fill: none; stroke: #ff7f0e; stroke-width: 1.5"/>
    <path d="M 144.396307 161.291654 
L 144.396307 160.562369 
" clip-path="url(#p92381bfca9)" style="fill: none; stroke: #ff7f0e; stroke-width: 1.5"/>
    <path d="M 146.570333 161.876965 
L 146.570333 161.134057 
" clip-path="url(#p92381bfca9)" style="fill: none; stroke: #ff7f0e; stroke-width: 1.5"/>
    <path d="M 148.744359 162.383979 
L 148.744359 161.627473 
" clip-path="url(#p92381bfca9)" style="fill: none; stroke: #ff7f0e; stroke-width: 1.5"/>
    <path d="M 150.918385 161.45415 
L 150.918385 160.695709 
" clip-path="url(#p92381bfca9)" style="fill: none; stroke: #ff7f0e; stroke-width: 1.5"/>
    <path d="M 153.092411 162.36923 
L 153.092411 161.591532 
" clip-path="url(#p92381bfca9)" style="fill: none; stroke: #ff7f0e; stroke-width: 1.5"/>
    <path d="M 155.266437 162.701002 
L 155.266437 161.902192 
" clip-path="url(#p92381bfca9)" style="fill: none; stroke: #ff7f0e; stroke-width: 1.5"/>
    <path d="M 157.440463 163.03094 
L 157.440463 162.218775 
" clip-path="url(#p92381bfca9)" style="fill: none; stroke: #ff7f0e; stroke-width: 1.5"/>
    <path d="M 159.614489 163.413891 
L 159.614489 162.582637 
" clip-path="url(#p92381bfca9)" style="fill: none; stroke: #ff7f0e; stroke-width: 1.5"/>
    <path d="M 161.788515 162.953002 
L 161.788515 162.112886 
" clip-path="url(#p92381bfca9)" style="fill: none; stroke: #ff7f0e; stroke-width: 1.5"/>
    <path d="M 163.962541 164.063403 
L 163.962541 163.194109 
" clip-path="url(#p92381bfca9)" style="fill: none; stroke: #ff7f0e; stroke-width: 1.5"/>
    <path d="M 166.136567 165.126968 
L 166.136567 164.228157 
" clip-path="url(#p92381bfca9)" style="fill: none; stroke: #ff7f0e; stroke-width: 1.5"/>
    <path d="M 168.310593 164.263525 
L 168.310593 163.359007 
" clip-path="url(#p92381bfca9)" style="fill: none; stroke: #ff7f0e; stroke-width: 1.5"/>
    <path d="M 170.484619 164.991281 
L 170.484619 164.059831 
" clip-path="url(#p92381bfca9)" style="fill: none; stroke: #ff7f0e; stroke-width: 1.5"/>
    <path d="M 172.658644 165.001348 
L 172.658644 164.046739 
" clip-path="url(#p92381bfca9)" style="fill: none; stroke: #ff7f0e; stroke-width: 1.5"/>
    <path d="M 174.83267 165.456214 
L 174.83267 164.480926 
" clip-path="url(#p92381bfca9)" style="fill: none; stroke: #ff7f0e; stroke-width: 1.5"/>
    <path d="M 177.006696 164.497341 
L 177.006696 163.506232 
" clip-path="url(#p92381bfca9)" style="fill: none; stroke: #ff7f0e; stroke-width: 1.5"/>
    <path d="M 179.180722 165.254475 
L 179.180722 164.230233 
" clip-path="url(#p92381bfca9)" style="fill: none; stroke: #ff7f0e; stroke-width: 1.5"/>
    <path d="M 181.354748 166.320511 
L 181.354748 165.261732 
" clip-path="url(#p92381bfca9)" style="fill: none; stroke: #ff7f0e; stroke-width: 1.5"/>
    <path d="M 183.528774 167.00683 
L 183.528774 165.909862 
" clip-path="url(#p92381bfca9)" style="fill: none; stroke: #ff7f0e; stroke-width: 1.5"/>
    <path d="M 185.7028 166.728433 
L 185.7028 165.623849 
" clip-path="url(#p92381bfca9)" style="fill: none; stroke: #ff7f0e; stroke-width: 1.5"/>
    <path d="M 187.876826 165.731406 
L 187.876826 164.608594 
" clip-path="url(#p92381bfca9)" style="fill: none; stroke: #ff7f0e; stroke-width: 1.5"/>
    <path d="M 190.050852 167.381325 
L 190.050852 166.209751 
" clip-path="url(#p92381bfca9)" style="fill: none; stroke: #ff7f0e; stroke-width: 1.5"/>
    <path d="M 192.224878 167.844692 
L 192.224878 166.63318 
" clip-path="url(#p92381bfca9)" style="fill: none; stroke: #ff7f0e; stroke-width: 1.5"/>
    <path d="M 194.398904 168.047419 
L 194.398904 166.810027 
" clip-path="url(#p92381bfca9)" style="fill: none; stroke: #ff7f0e; stroke-width: 1.5"/>
    <path d="M 196.57293 167.660295 
L 196.57293 166.397627 
" clip-path="url(#p92381bfca9)" style="fill: none; stroke: #ff7f0e; stroke-width: 1.5"/>
    <path d="M 198.746956 167.168455 
L 198.746956 165.889022 
" clip-path="url(#p92381bfca9)" style="fill: none; stroke: #ff7f0e; stroke-width: 1.5"/>
    <path d="M 200.920982 168.736632 
L 200.920982 167.378882 
" clip-path="url(#p92381bfca9)" style="fill: none; stroke: #ff7f0e; stroke-width: 1.5"/>
    <path d="M 203.095008 167.844902 
L 203.095008 166.479237 
" clip-path="url(#p92381bfca9)" style="fill: none; stroke: #ff7f0e; stroke-width: 1.5"/>
    <path d="M 205.269034 167.808075 
L 205.269034 166.399496 
" clip-path="url(#p92381bfca9)" style="fill: none; stroke: #ff7f0e; stroke-width: 1.5"/>
    <path d="M 207.44306 169.414162 
L 207.44306 167.929353 
" clip-path="url(#p92381bfca9)" style="fill: none; stroke: #ff7f0e; stroke-width: 1.5"/>
    <path d="M 209.617086 168.839535 
L 209.617086 167.323108 
" clip-path="url(#p92381bfca9)" style="fill: none; stroke: #ff7f0e; stroke-width: 1.5"/>
    <path d="M 211.791112 168.227779 
L 211.791112 166.673942 
" clip-path="url(#p92381bfca9)" style="fill: none; stroke: #ff7f0e; stroke-width: 1.5"/>
    <path d="M 213.965138 169.573422 
L 213.965138 167.936822 
" clip-path="url(#p92381bfca9)" style="fill: none; stroke: #ff7f0e; stroke-width: 1.5"/>
    <path d="M 216.139164 167.814687 
L 216.139164 166.159385 
" clip-path="url(#p92381bfca9)" style="fill: none; stroke: #ff7f0e; stroke-width: 1.5"/>
    <path d="M 218.31319 166.809425 
L 218.31319 165.11035 
" clip-path="url(#p92381bfca9)" style="fill: none; stroke: #ff7f0e; stroke-width: 1.5"/>
    <path d="M 220.487216 167.994672 
L 220.487216 166.195323 
" clip-path="url(#p92381bfca9)" style="fill: none; stroke: #ff7f0e; stroke-width: 1.5"/>
    <path d="M 222.661242 168.244838 
L 222.661242 166.381792 
" clip-path="url(#p92381bfca9)" style="fill: none; stroke: #ff7f0e; stroke-width: 1.5"/>
    <path d="M 224.835268 169.976853 
L 224.835268 167.993566 
" clip-path="url(#p92381bfca9)" style="fill: none; stroke: #ff7f0e; stroke-width: 1.5"/>
    <path d="M 227.009294 168.553685 
L 227.009294 166.512596 
" clip-path="url(#p92381bfca9)" style="fill: none; stroke: #ff7f0e; stroke-width: 1.5"/>
    <path d="M 229.18332 169.502093 
L 229.18332 167.341087 
" clip-path="url(#p92381bfca9)" style="fill: none; stroke: #ff7f0e; stroke-width: 1.5"/>
    <path d="M 231.357346 168.121544 
L 231.357346 165.923811 
" clip-path="url(#p92381bfca9)" style="fill: none; stroke: #ff7f0e; stroke-width: 1.5"/>
    <path d="M 233.531372 166.763507 
L 233.531372 164.480515 
" clip-path="url(#p92381bfca9)" style="fill: none; stroke: #ff7f0e; stroke-width: 1.5"/>
    <path d="M 235.705398 168.992942 
L 235.705398 166.567824 
" clip-path="url(#p92381bfca9)" style="fill: none; stroke: #ff7f0e; stroke-width: 1.5"/>
    <path d="M 237.879424 168.882153 
L 237.879424 166.334388 
" clip-path="url(#p92381bfca9)" style="fill: none; stroke: #ff7f0e; stroke-width: 1.5"/>
    <path d="M 240.05345 167.640491 
L 240.05345 165.028465 
" clip-path="url(#p92381bfca9)" style="fill: none; stroke: #ff7f0e; stroke-width: 1.5"/>
    <path d="M 242.227476 169.927213 
L 242.227476 167.170858 
" clip-path="url(#p92381bfca9)" style="fill: none; stroke: #ff7f0e; stroke-width: 1.5"/>
    <path d="M 244.401502 167.076301 
L 244.401502 164.294824 
" clip-path="url(#p92381bfca9)" style="fill: none; stroke: #ff7f0e; stroke-width: 1.5"/>
    <path d="M 246.575528 171.275106 
L 246.575528 168.188285 
" clip-path="url(#p92381bfca9)" style="fill: none; stroke: #ff7f0e; stroke-width: 1.5"/>
    <path d="M 248.749554 168.151996 
L 248.749554 165.091588 
" clip-path="url(#p92381bfca9)" style="fill: none; stroke: #ff7f0e; stroke-width: 1.5"/>
    <path d="M 250.92358 169.31668 
L 250.92358 166.11132 
" clip-path="url(#p92381bfca9)" style="fill: none; stroke: #ff7f0e; stroke-width: 1.5"/>
    <path d="M 253.097606 168.151784 
L 253.097606 164.86627 
" clip-path="url(#p92381bfca9)" style="fill: none; stroke: #ff7f0e; stroke-width: 1.5"/>
    <path d="M 255.271631 170.594307 
L 255.271631 167.124343 
" clip-path="url(#p92381bfca9)" style="fill: none; stroke: #ff7f0e; stroke-width: 1.5"/>
    <path d="M 257.445657 171.730919 
L 257.445657 168.035584 
" clip-path="url(#p92381bfca9)" style="fill: none; stroke: #ff7f0e; stroke-width: 1.5"/>
    <path d="M 259.619683 168.549869 
L 259.619683 164.856362 
" clip-path="url(#p92381bfca9)" style="fill: none; stroke: #ff7f0e; stroke-width: 1.5"/>
    <path d="M 261.793709 169.623115 
L 261.793709 165.769834 
" clip-path="url(#p92381bfca9)" style="fill: none; stroke: #ff7f0e; stroke-width: 1.5"/>
    <path d="M 263.967735 171.02951 
L 263.967735 167.076227 
" clip-path="url(#p92381bfca9)" style="fill: none; stroke: #ff7f0e; stroke-width: 1.5"/>
    <path d="M 266.141761 170.380368 
L 266.141761 166.204838 
" clip-path="url(#p92381bfca9)" style="fill: none; stroke: #ff7f0e; stroke-width: 1.5"/>
    <path d="M 268.315787 173.757434 
L 268.315787 169.313971 
" clip-path="url(#p92381bfca9)" style="fill: none; stroke: #ff7f0e; stroke-width: 1.5"/>
    <path d="M 270.489813 171.412669 
L 270.489813 166.978731 
" clip-path="url(#p92381bfca9)" style="fill: none; stroke: #ff7f0e; stroke-width: 1.5"/>
    <path d="M 272.663839 174.196258 
L 272.663839 169.444585 
" clip-path="url(#p92381bfca9)" style="fill: none; stroke: #ff7f0e; stroke-width: 1.5"/>
    <path d="M 274.837865 167.80261 
L 274.837865 163.18011 
" clip-path="url(#p92381bfca9)" style="fill: none; stroke: #ff7f0e; stroke-width: 1.5"/>
    <path d="M 277.011891 176.133932 
L 277.011891 170.836259 
" clip-path="url(#p92381bfca9)" style="fill: none; stroke: #ff7f0e; stroke-width: 1.5"/>
    <path d="M 279.185917 175.144212 
L 279.185917 169.641351 
" clip-path="url(#p92381bfca9)" style="fill: none; stroke: #ff7f0e; stroke-width: 1.5"/>
    <path d="M 281.359943 170.271577 
L 281.359943 164.972038 
" clip-path="url(#p92381bfca9)" style="fill: none; stroke: #ff7f0e; stroke-width: 1.5"/>
    <path d="M 283.533969 169.49654 
L 283.533969 163.957993 
" clip-path="url(#p92381bfca9)" style="fill: none; stroke: #ff7f0e; stroke-width: 1.5"/>
    <path d="M 285.707995 168.727457 
L 285.707995 162.922674 
" clip-path="url(#p92381bfca9)" style="fill: none; stroke: #ff7f0e; stroke-width: 1.5"/>
    <path d="M 287.882021 173.06777 
L 287.882021 166.632044 
" clip-path="url(#p92381bfca9)" style="fill: none; stroke: #ff7f0e; stroke-width: 1.5"/>
    <path d="M 290.056047 174.004439 
L 290.056047 167.164025 
" clip-path="url(#p92381bfca9)" style="fill: none; stroke: #ff7f0e; stroke-width: 1.5"/>
    <path d="M 292.230073 169.655443 
L 292.230073 162.938621 
" clip-path="url(#p92381bfca9)" style="fill: none; stroke: #ff7f0e; stroke-width: 1.5"/>
    <path d="M 294.404099 168.327796 
L 294.404099 161.510626 
" clip-path="url(#p92381bfca9)" style="fill: none; stroke: #ff7f0e; stroke-width: 1.5"/>
    <path d="M 296.578125 182.573863 
L 296.578125 173.68605 
" clip-path="url(#p92381bfca9)" style="fill: none; stroke: #ff7f0e; stroke-width: 1.5"/>
    <path d="M 298.752151 178.713144 
L 298.752151 170.136361 
" clip-path="url(#p92381bfca9)" style="fill: none; stroke: #ff7f0e; stroke-width: 1.5"/>
    <path d="M 300.926177 181.396526 
L 300.926177 172.367526 
" clip-path="url(#p92381bfca9)" style="fill: none; stroke: #ff7f0e; stroke-width: 1.5"/>
    <path d="M 303.100203 185.677767 
L 303.100203 175.900408 
" clip-path="url(#p92381bfca9)" style="fill: none; stroke: #ff7f0e; stroke-width: 1.5"/>
    <path d="M 305.274229 172.341662 
L 305.274229 163.265996 
" clip-path="url(#p92381bfca9)" style="fill: none; stroke: #ff7f0e; stroke-width: 1.5"/>
    <path d="M 307.448255 178.006344 
L 307.448255 168.16918 
" clip-path="url(#p92381bfca9)" style="fill: none; stroke: #ff7f0e; stroke-width: 1.5"/>
    <path d="M 309.622281 180.913542 
L 309.622281 170.114925 
" clip-path="url(#p92381bfca9)" style="fill: none; stroke: #ff7f0e; stroke-width: 1.5"/>
    <path d="M 311.796307 170.283594 
L 311.796307 160.387329 
" clip-path="url(#p92381bfca9)" style="fill: none; stroke: #ff7f0e; stroke-width: 1.5"/>
    <path d="M 313.970333 177.040657 
L 313.970333 166.404549 
" clip-path="url(#p92381bfca9)" style="fill: none; stroke: #ff7f0e; stroke-width: 1.5"/>
    <path d="M 316.144359 186.111714 
L 316.144359 172.46759 
" clip-path="url(#p92381bfca9)" style="fill: none; stroke: #ff7f0e; stroke-width: 1.5"/>
    <path d="M 318.318385 185.419365 
L 318.318385 171.112378 
" clip-path="url(#p92381bfca9)" style="fill: none; stroke: #ff7f0e; stroke-width: 1.5"/>
    <path d="M 320.492411 175.563028 
L 320.492411 163.056581 
" clip-path="url(#p92381bfca9)" style="fill: none; stroke: #ff7f0e; stroke-width: 1.5"/>
    <path d="M 322.666437 184.856438 
L 322.666437 169.617168 
" clip-path="url(#p92381bfca9)" style="fill: none; stroke: #ff7f0e; stroke-width: 1.5"/>
    <path d="M 324.840463 178.876087 
L 324.840463 164.544994 
" clip-path="url(#p92381bfca9)" style="fill: none; stroke: #ff7f0e; stroke-width: 1.5"/>
    <path d="M 327.014489 172.585606 
L 327.014489 158.619006 
" clip-path="url(#p92381bfca9)" style="fill: none; stroke: #ff7f0e; stroke-width: 1.5"/>
    <path d="M 329.188515 183.279689 
L 329.188515 167.686966 
" clip-path="url(#p92381bfca9)" style="fill: none; stroke: #ff7f0e; stroke-width: 1.5"/>
    <path d="M 331.362541 177.232383 
L 331.362541 161.62747 
" clip-path="url(#p92381bfca9)" style="fill: none; stroke: #ff7f0e; stroke-width: 1.5"/>
    <path d="M 333.536567 190.064856 
L 333.536567 171.695348 
" clip-path="url(#p92381bfca9)" style="fill: none; stroke: #ff7f0e; stroke-width: 1.5"/>
    <path d="M 335.710593 181.877368 
L 335.710593 164.250487 
" clip-path="url(#p92381bfca9)" style="fill: none; stroke: #ff7f0e; stroke-width: 1.5"/>
    <path d="M 337.884619 170.107165 
L 337.884619 153.443906 
" clip-path="url(#p92381bfca9)" style="fill: none; stroke: #ff7f0e; stroke-width: 1.5"/>
    <path d="M 340.058644 162.228211 
L 340.058644 146.116267 
" clip-path="url(#p92381bfca9)" style="fill: none; stroke: #ff7f0e; stroke-width: 1.5"/>
    <path d="M 342.23267 187.518843 
L 342.23267 164.090332 
" clip-path="url(#p92381bfca9)" style="fill: none; stroke: #ff7f0e; stroke-width: 1.5"/>
    <path d="M 344.406696 169.748918 
L 344.406696 149.021669 
" clip-path="url(#p92381bfca9)" style="fill: none; stroke: #ff7f0e; stroke-width: 1.5"/>
    <path d="M 346.580722 177.432259 
L 346.580722 151.627487 
" clip-path="url(#p92381bfca9)" style="fill: none; stroke: #ff7f0e; stroke-width: 1.5"/>
    <path d="M 348.754748 193.091928 
L 348.754748 160.639001 
" clip-path="url(#p92381bfca9)" style="fill: none; stroke: #ff7f0e; stroke-width: 1.5"/>
    <path d="M 350.928774 206.703616 
L 350.928774 164.201905 
" clip-path="url(#p92381bfca9)" style="fill: none; stroke: #ff7f0e; stroke-width: 1.5"/>
    <path d="M 353.1028 202.964281 
L 353.1028 164.754307 
" clip-path="url(#p92381bfca9)" style="fill: none; stroke: #ff7f0e; stroke-width: 1.5"/>
    <path d="M 355.276826 216.865058 
L 355.276826 168.448414 
" clip-path="url(#p92381bfca9)" style="fill: none; stroke: #ff7f0e; stroke-width: 1.5"/>
    <path d="M 357.450852 216.431628 
L 357.450852 146.491571 
" clip-path="url(#p92381bfca9)" style="fill: none; stroke: #ff7f0e; stroke-width: 1.5"/>
    <path d="M 359.624878 218.422196 
L 359.624878 145.477167 
" clip-path="url(#p92381bfca9)" style="fill: none; stroke: #ff7f0e; stroke-width: 1.5"/>
    <path d="M 361.798904 216.961541 
L 361.798904 139.275981 
" clip-path="url(#p92381bfca9)" style="fill: none; stroke: #ff7f0e; stroke-width: 1.5"/>
    <path clip-path="url(#p92381bfca9)" style="fill: none; stroke: #ff7f0e; stroke-width: 1.5"/>
   </g>
  </g>
 </g>
 <defs>
  <clipPath id="p92381bfca9">
   <rect x="45.478125" y="7.2" width="334.8" height="221.76"/>
  </clipPath>
 </defs>
</svg>
