<?xml version="1.0" encoding="utf-8" standalone="no"?>
<!DOCTYPE svg PUBLIC "-//W3C//DTD SVG 1.1//EN"
  "http://www.w3.org/Graphics/SVG/1.1/DTD/svg11.dtd">
<svg xmlns:xlink="http://www.w3.org/1999/xlink" width="392.14375pt" height="270.998865pt" viewBox="0 0 392.14375 270.998865" xmlns="http://www.w3.org/2000/svg" version="1.1">
 <metadata>
  <rdf:RDF xmlns:dc="http://purl.org/dc/elements/1.1/" xmlns:cc="http://creativecommons.org/ns#" xmlns:rdf="http://www.w3.org/1999/02/22-rdf-syntax-ns#">
   <cc:Work>
    <dc:type rdf:resource="http://purl.org/dc/dcmitype/StillImage"/>
    <dc:date>2024-10-07T09:44:30.848016</dc:date>
    <dc:format>image/svg+xml</dc:format>
    <dc:creator>
     <cc:Agent>
      <dc:title>Matplotlib v3.9.2, https://matplotlib.org/</dc:title>
     </cc:Agent>
    </dc:creator>
   </cc:Work>
  </rdf:RDF>
 </metadata>
 <defs>
  <style type="text/css">*{stroke-linejoin: round; stroke-linecap: butt}</style>
 </defs>
 <g id="figure_1">
  <g id="patch_1">
   <path d="M 0 270.998865 
L 392.14375 270.998865 
L 392.14375 0 
L 0 0 
z
" style="fill: #ffffff"/>
  </g>
  <g id="axes_1">
   <g id="patch_2">
    <path d="M 50.14375 231.75824 
L 384.94375 231.75824 
L 384.94375 9.99824 
L 50.14375 9.99824 
z
" style="fill: #ffffff"/>
   </g>
   <g id="matplotlib.axis_1">
    <g id="xtick_1">
     <g id="line2d_1">
      <defs>
       <path id="m48b1cc7010" d="M 0 0 
L 0 3.5 
" style="stroke: #000000; stroke-width: 0.8"/>
      </defs>
      <g>
       <use xlink:href="#m48b1cc7010" x="90.725568" y="231.75824" style="stroke: #000000; stroke-width: 0.8"/>
      </g>
     </g>
     <g id="text_1">
      <!-- 2 -->
      <g transform="translate(87.544318 246.356677) scale(0.1 -0.1)">
       <defs>
        <path id="DejaVuSans-32" d="M 1228 531 
L 3431 531 
L 3431 0 
L 469 0 
L 469 531 
Q 828 903 1448 1529 
Q 2069 2156 2228 2338 
Q 2531 2678 2651 2914 
Q 2772 3150 2772 3378 
Q 2772 3750 2511 3984 
Q 2250 4219 1831 4219 
Q 1534 4219 1204 4116 
Q 875 4013 500 3803 
L 500 4441 
Q 881 4594 1212 4672 
Q 1544 4750 1819 4750 
Q 2544 4750 2975 4387 
Q 3406 4025 3406 3419 
Q 3406 3131 3298 2873 
Q 3191 2616 2906 2266 
Q 2828 2175 2409 1742 
Q 1991 1309 1228 531 
z
" transform="scale(0.015625)"/>
       </defs>
       <use xlink:href="#DejaVuSans-32"/>
      </g>
     </g>
    </g>
    <g id="xtick_2">
     <g id="line2d_2">
      <g>
       <use xlink:href="#m48b1cc7010" x="141.452841" y="231.75824" style="stroke: #000000; stroke-width: 0.8"/>
      </g>
     </g>
     <g id="text_2">
      <!-- 4 -->
      <g transform="translate(138.271591 246.356677) scale(0.1 -0.1)">
       <defs>
        <path id="DejaVuSans-34" d="M 2419 4116 
L 825 1625 
L 2419 1625 
L 2419 4116 
z
M 2253 4666 
L 3047 4666 
L 3047 1625 
L 3713 1625 
L 3713 1100 
L 3047 1100 
L 3047 0 
L 2419 0 
L 2419 1100 
L 313 1100 
L 313 1709 
L 2253 4666 
z
" transform="scale(0.015625)"/>
       </defs>
       <use xlink:href="#DejaVuSans-34"/>
      </g>
     </g>
    </g>
    <g id="xtick_3">
     <g id="line2d_3">
      <g>
       <use xlink:href="#m48b1cc7010" x="192.180114" y="231.75824" style="stroke: #000000; stroke-width: 0.8"/>
      </g>
     </g>
     <g id="text_3">
      <!-- 6 -->
      <g transform="translate(188.998864 246.356677) scale(0.1 -0.1)">
       <defs>
        <path id="DejaVuSans-36" d="M 2113 2584 
Q 1688 2584 1439 2293 
Q 1191 2003 1191 1497 
Q 1191 994 1439 701 
Q 1688 409 2113 409 
Q 2538 409 2786 701 
Q 3034 994 3034 1497 
Q 3034 2003 2786 2293 
Q 2538 2584 2113 2584 
z
M 3366 4563 
L 3366 3988 
Q 3128 4100 2886 4159 
Q 2644 4219 2406 4219 
Q 1781 4219 1451 3797 
Q 1122 3375 1075 2522 
Q 1259 2794 1537 2939 
Q 1816 3084 2150 3084 
Q 2853 3084 3261 2657 
Q 3669 2231 3669 1497 
Q 3669 778 3244 343 
Q 2819 -91 2113 -91 
Q 1303 -91 875 529 
Q 447 1150 447 2328 
Q 447 3434 972 4092 
Q 1497 4750 2381 4750 
Q 2619 4750 2861 4703 
Q 3103 4656 3366 4563 
z
" transform="scale(0.015625)"/>
       </defs>
       <use xlink:href="#DejaVuSans-36"/>
      </g>
     </g>
    </g>
    <g id="xtick_4">
     <g id="line2d_4">
      <g>
       <use xlink:href="#m48b1cc7010" x="242.907386" y="231.75824" style="stroke: #000000; stroke-width: 0.8"/>
      </g>
     </g>
     <g id="text_4">
      <!-- 8 -->
      <g transform="translate(239.726136 246.356677) scale(0.1 -0.1)">
       <defs>
        <path id="DejaVuSans-38" d="M 2034 2216 
Q 1584 2216 1326 1975 
Q 1069 1734 1069 1313 
Q 1069 891 1326 650 
Q 1584 409 2034 409 
Q 2484 409 2743 651 
Q 3003 894 3003 1313 
Q 3003 1734 2745 1975 
Q 2488 2216 2034 2216 
z
M 1403 2484 
Q 997 2584 770 2862 
Q 544 3141 544 3541 
Q 544 4100 942 4425 
Q 1341 4750 2034 4750 
Q 2731 4750 3128 4425 
Q 3525 4100 3525 3541 
Q 3525 3141 3298 2862 
Q 3072 2584 2669 2484 
Q 3125 2378 3379 2068 
Q 3634 1759 3634 1313 
Q 3634 634 3220 271 
Q 2806 -91 2034 -91 
Q 1263 -91 848 271 
Q 434 634 434 1313 
Q 434 1759 690 2068 
Q 947 2378 1403 2484 
z
M 1172 3481 
Q 1172 3119 1398 2916 
Q 1625 2713 2034 2713 
Q 2441 2713 2670 2916 
Q 2900 3119 2900 3481 
Q 2900 3844 2670 4047 
Q 2441 4250 2034 4250 
Q 1625 4250 1398 4047 
Q 1172 3844 1172 3481 
z
" transform="scale(0.015625)"/>
       </defs>
       <use xlink:href="#DejaVuSans-38"/>
      </g>
     </g>
    </g>
    <g id="xtick_5">
     <g id="line2d_5">
      <g>
       <use xlink:href="#m48b1cc7010" x="293.634659" y="231.75824" style="stroke: #000000; stroke-width: 0.8"/>
      </g>
     </g>
     <g id="text_5">
      <!-- 10 -->
      <g transform="translate(287.272159 246.356677) scale(0.1 -0.1)">
       <defs>
        <path id="DejaVuSans-31" d="M 794 531 
L 1825 531 
L 1825 4091 
L 703 3866 
L 703 4441 
L 1819 4666 
L 2450 4666 
L 2450 531 
L 3481 531 
L 3481 0 
L 794 0 
L 794 531 
z
" transform="scale(0.015625)"/>
        <path id="DejaVuSans-30" d="M 2034 4250 
Q 1547 4250 1301 3770 
Q 1056 3291 1056 2328 
Q 1056 1369 1301 889 
Q 1547 409 2034 409 
Q 2525 409 2770 889 
Q 3016 1369 3016 2328 
Q 3016 3291 2770 3770 
Q 2525 4250 2034 4250 
z
M 2034 4750 
Q 2819 4750 3233 4129 
Q 3647 3509 3647 2328 
Q 3647 1150 3233 529 
Q 2819 -91 2034 -91 
Q 1250 -91 836 529 
Q 422 1150 422 2328 
Q 422 3509 836 4129 
Q 1250 4750 2034 4750 
z
" transform="scale(0.015625)"/>
       </defs>
       <use xlink:href="#DejaVuSans-31"/>
       <use xlink:href="#DejaVuSans-30" x="63.623047"/>
      </g>
     </g>
    </g>
    <g id="xtick_6">
     <g id="line2d_6">
      <g>
       <use xlink:href="#m48b1cc7010" x="344.361932" y="231.75824" style="stroke: #000000; stroke-width: 0.8"/>
      </g>
     </g>
     <g id="text_6">
      <!-- 12 -->
      <g transform="translate(337.999432 246.356677) scale(0.1 -0.1)">
       <use xlink:href="#DejaVuSans-31"/>
       <use xlink:href="#DejaVuSans-32" x="63.623047"/>
      </g>
     </g>
    </g>
    <g id="text_7">
     <!-- wavelength [Å] -->
     <g transform="translate(179.50625 261.719177) scale(0.1 -0.1)">
      <defs>
       <path id="DejaVuSans-77" d="M 269 3500 
L 844 3500 
L 1563 769 
L 2278 3500 
L 2956 3500 
L 3675 769 
L 4391 3500 
L 4966 3500 
L 4050 0 
L 3372 0 
L 2619 2869 
L 1863 0 
L 1184 0 
L 269 3500 
z
" transform="scale(0.015625)"/>
       <path id="DejaVuSans-61" d="M 2194 1759 
Q 1497 1759 1228 1600 
Q 959 1441 959 1056 
Q 959 750 1161 570 
Q 1363 391 1709 391 
Q 2188 391 2477 730 
Q 2766 1069 2766 1631 
L 2766 1759 
L 2194 1759 
z
M 3341 1997 
L 3341 0 
L 2766 0 
L 2766 531 
Q 2569 213 2275 61 
Q 1981 -91 1556 -91 
Q 1019 -91 701 211 
Q 384 513 384 1019 
Q 384 1609 779 1909 
Q 1175 2209 1959 2209 
L 2766 2209 
L 2766 2266 
Q 2766 2663 2505 2880 
Q 2244 3097 1772 3097 
Q 1472 3097 1187 3025 
Q 903 2953 641 2809 
L 641 3341 
Q 956 3463 1253 3523 
Q 1550 3584 1831 3584 
Q 2591 3584 2966 3190 
Q 3341 2797 3341 1997 
z
" transform="scale(0.015625)"/>
       <path id="DejaVuSans-76" d="M 191 3500 
L 800 3500 
L 1894 563 
L 2988 3500 
L 3597 3500 
L 2284 0 
L 1503 0 
L 191 3500 
z
" transform="scale(0.015625)"/>
       <path id="DejaVuSans-65" d="M 3597 1894 
L 3597 1613 
L 953 1613 
Q 991 1019 1311 708 
Q 1631 397 2203 397 
Q 2534 397 2845 478 
Q 3156 559 3463 722 
L 3463 178 
Q 3153 47 2828 -22 
Q 2503 -91 2169 -91 
Q 1331 -91 842 396 
Q 353 884 353 1716 
Q 353 2575 817 3079 
Q 1281 3584 2069 3584 
Q 2775 3584 3186 3129 
Q 3597 2675 3597 1894 
z
M 3022 2063 
Q 3016 2534 2758 2815 
Q 2500 3097 2075 3097 
Q 1594 3097 1305 2825 
Q 1016 2553 972 2059 
L 3022 2063 
z
" transform="scale(0.015625)"/>
       <path id="DejaVuSans-6c" d="M 603 4863 
L 1178 4863 
L 1178 0 
L 603 0 
L 603 4863 
z
" transform="scale(0.015625)"/>
       <path id="DejaVuSans-6e" d="M 3513 2113 
L 3513 0 
L 2938 0 
L 2938 2094 
Q 2938 2591 2744 2837 
Q 2550 3084 2163 3084 
Q 1697 3084 1428 2787 
Q 1159 2491 1159 1978 
L 1159 0 
L 581 0 
L 581 3500 
L 1159 3500 
L 1159 2956 
Q 1366 3272 1645 3428 
Q 1925 3584 2291 3584 
Q 2894 3584 3203 3211 
Q 3513 2838 3513 2113 
z
" transform="scale(0.015625)"/>
       <path id="DejaVuSans-67" d="M 2906 1791 
Q 2906 2416 2648 2759 
Q 2391 3103 1925 3103 
Q 1463 3103 1205 2759 
Q 947 2416 947 1791 
Q 947 1169 1205 825 
Q 1463 481 1925 481 
Q 2391 481 2648 825 
Q 2906 1169 2906 1791 
z
M 3481 434 
Q 3481 -459 3084 -895 
Q 2688 -1331 1869 -1331 
Q 1566 -1331 1297 -1286 
Q 1028 -1241 775 -1147 
L 775 -588 
Q 1028 -725 1275 -790 
Q 1522 -856 1778 -856 
Q 2344 -856 2625 -561 
Q 2906 -266 2906 331 
L 2906 616 
Q 2728 306 2450 153 
Q 2172 0 1784 0 
Q 1141 0 747 490 
Q 353 981 353 1791 
Q 353 2603 747 3093 
Q 1141 3584 1784 3584 
Q 2172 3584 2450 3431 
Q 2728 3278 2906 2969 
L 2906 3500 
L 3481 3500 
L 3481 434 
z
" transform="scale(0.015625)"/>
       <path id="DejaVuSans-74" d="M 1172 4494 
L 1172 3500 
L 2356 3500 
L 2356 3053 
L 1172 3053 
L 1172 1153 
Q 1172 725 1289 603 
Q 1406 481 1766 481 
L 2356 481 
L 2356 0 
L 1766 0 
Q 1100 0 847 248 
Q 594 497 594 1153 
L 594 3053 
L 172 3053 
L 172 3500 
L 594 3500 
L 594 4494 
L 1172 4494 
z
" transform="scale(0.015625)"/>
       <path id="DejaVuSans-68" d="M 3513 2113 
L 3513 0 
L 2938 0 
L 2938 2094 
Q 2938 2591 2744 2837 
Q 2550 3084 2163 3084 
Q 1697 3084 1428 2787 
Q 1159 2491 1159 1978 
L 1159 0 
L 581 0 
L 581 4863 
L 1159 4863 
L 1159 2956 
Q 1366 3272 1645 3428 
Q 1925 3584 2291 3584 
Q 2894 3584 3203 3211 
Q 3513 2838 3513 2113 
z
" transform="scale(0.015625)"/>
       <path id="DejaVuSans-20" transform="scale(0.015625)"/>
       <path id="DejaVuSans-5b" d="M 550 4863 
L 1875 4863 
L 1875 4416 
L 1125 4416 
L 1125 -397 
L 1875 -397 
L 1875 -844 
L 550 -844 
L 550 4863 
z
" transform="scale(0.015625)"/>
       <path id="DejaVuSans-c5" d="M 2663 5081 
Q 2663 5278 2523 5417 
Q 2384 5556 2188 5556 
Q 1988 5556 1852 5420 
Q 1716 5284 1716 5081 
Q 1716 4884 1853 4746 
Q 1991 4609 2188 4609 
Q 2384 4609 2523 4746 
Q 2663 4884 2663 5081 
z
M 2188 4044 
L 1338 1722 
L 3041 1722 
L 2188 4044 
z
M 1716 4366 
Q 1525 4494 1428 4673 
Q 1331 4853 1331 5081 
Q 1331 5441 1579 5691 
Q 1828 5941 2188 5941 
Q 2544 5941 2795 5689 
Q 3047 5438 3047 5081 
Q 3047 4863 2948 4678 
Q 2850 4494 2663 4366 
L 4325 0 
L 3669 0 
L 3244 1197 
L 1141 1197 
L 716 0 
L 50 0 
L 1716 4366 
z
" transform="scale(0.015625)"/>
       <path id="DejaVuSans-5d" d="M 1947 4863 
L 1947 -844 
L 622 -844 
L 622 -397 
L 1369 -397 
L 1369 4416 
L 622 4416 
L 622 4863 
L 1947 4863 
z
" transform="scale(0.015625)"/>
      </defs>
      <use xlink:href="#DejaVuSans-77"/>
      <use xlink:href="#DejaVuSans-61" x="81.787109"/>
      <use xlink:href="#DejaVuSans-76" x="143.066406"/>
      <use xlink:href="#DejaVuSans-65" x="202.246094"/>
      <use xlink:href="#DejaVuSans-6c" x="263.769531"/>
      <use xlink:href="#DejaVuSans-65" x="291.552734"/>
      <use xlink:href="#DejaVuSans-6e" x="353.076172"/>
      <use xlink:href="#DejaVuSans-67" x="416.455078"/>
      <use xlink:href="#DejaVuSans-74" x="479.931641"/>
      <use xlink:href="#DejaVuSans-68" x="519.140625"/>
      <use xlink:href="#DejaVuSans-20" x="582.519531"/>
      <use xlink:href="#DejaVuSans-5b" x="614.306641"/>
      <use xlink:href="#DejaVuSans-c5" x="653.320312"/>
      <use xlink:href="#DejaVuSans-5d" x="721.728516"/>
     </g>
    </g>
   </g>
   <g id="matplotlib.axis_2">
    <g id="ytick_1">
     <g id="line2d_7">
      <defs>
       <path id="m593318e827" d="M 0 0 
L -3.5 0 
" style="stroke: #000000; stroke-width: 0.8"/>
      </defs>
      <g>
       <use xlink:href="#m593318e827" x="50.14375" y="219.319534" style="stroke: #000000; stroke-width: 0.8"/>
      </g>
     </g>
     <g id="text_8">
      <!-- 0.55 -->
      <g transform="translate(20.878125 223.118753) scale(0.1 -0.1)">
       <defs>
        <path id="DejaVuSans-2e" d="M 684 794 
L 1344 794 
L 1344 0 
L 684 0 
L 684 794 
z
" transform="scale(0.015625)"/>
        <path id="DejaVuSans-35" d="M 691 4666 
L 3169 4666 
L 3169 4134 
L 1269 4134 
L 1269 2991 
Q 1406 3038 1543 3061 
Q 1681 3084 1819 3084 
Q 2600 3084 3056 2656 
Q 3513 2228 3513 1497 
Q 3513 744 3044 326 
Q 2575 -91 1722 -91 
Q 1428 -91 1123 -41 
Q 819 9 494 109 
L 494 744 
Q 775 591 1075 516 
Q 1375 441 1709 441 
Q 2250 441 2565 725 
Q 2881 1009 2881 1497 
Q 2881 1984 2565 2268 
Q 2250 2553 1709 2553 
Q 1456 2553 1204 2497 
Q 953 2441 691 2322 
L 691 4666 
z
" transform="scale(0.015625)"/>
       </defs>
       <use xlink:href="#DejaVuSans-30"/>
       <use xlink:href="#DejaVuSans-2e" x="63.623047"/>
       <use xlink:href="#DejaVuSans-35" x="95.410156"/>
       <use xlink:href="#DejaVuSans-35" x="159.033203"/>
      </g>
     </g>
    </g>
    <g id="ytick_2">
     <g id="line2d_8">
      <g>
       <use xlink:href="#m593318e827" x="50.14375" y="193.279495" style="stroke: #000000; stroke-width: 0.8"/>
      </g>
     </g>
     <g id="text_9">
      <!-- 0.60 -->
      <g transform="translate(20.878125 197.078713) scale(0.1 -0.1)">
       <use xlink:href="#DejaVuSans-30"/>
       <use xlink:href="#DejaVuSans-2e" x="63.623047"/>
       <use xlink:href="#DejaVuSans-36" x="95.410156"/>
       <use xlink:href="#DejaVuSans-30" x="159.033203"/>
      </g>
     </g>
    </g>
    <g id="ytick_3">
     <g id="line2d_9">
      <g>
       <use xlink:href="#m593318e827" x="50.14375" y="167.239455" style="stroke: #000000; stroke-width: 0.8"/>
      </g>
     </g>
     <g id="text_10">
      <!-- 0.65 -->
      <g transform="translate(20.878125 171.038674) scale(0.1 -0.1)">
       <use xlink:href="#DejaVuSans-30"/>
       <use xlink:href="#DejaVuSans-2e" x="63.623047"/>
       <use xlink:href="#DejaVuSans-36" x="95.410156"/>
       <use xlink:href="#DejaVuSans-35" x="159.033203"/>
      </g>
     </g>
    </g>
    <g id="ytick_4">
     <g id="line2d_10">
      <g>
       <use xlink:href="#m593318e827" x="50.14375" y="141.199416" style="stroke: #000000; stroke-width: 0.8"/>
      </g>
     </g>
     <g id="text_11">
      <!-- 0.70 -->
      <g transform="translate(20.878125 144.998635) scale(0.1 -0.1)">
       <defs>
        <path id="DejaVuSans-37" d="M 525 4666 
L 3525 4666 
L 3525 4397 
L 1831 0 
L 1172 0 
L 2766 4134 
L 525 4134 
L 525 4666 
z
" transform="scale(0.015625)"/>
       </defs>
       <use xlink:href="#DejaVuSans-30"/>
       <use xlink:href="#DejaVuSans-2e" x="63.623047"/>
       <use xlink:href="#DejaVuSans-37" x="95.410156"/>
       <use xlink:href="#DejaVuSans-30" x="159.033203"/>
      </g>
     </g>
    </g>
    <g id="ytick_5">
     <g id="line2d_11">
      <g>
       <use xlink:href="#m593318e827" x="50.14375" y="115.159376" style="stroke: #000000; stroke-width: 0.8"/>
      </g>
     </g>
     <g id="text_12">
      <!-- 0.75 -->
      <g transform="translate(20.878125 118.958595) scale(0.1 -0.1)">
       <use xlink:href="#DejaVuSans-30"/>
       <use xlink:href="#DejaVuSans-2e" x="63.623047"/>
       <use xlink:href="#DejaVuSans-37" x="95.410156"/>
       <use xlink:href="#DejaVuSans-35" x="159.033203"/>
      </g>
     </g>
    </g>
    <g id="ytick_6">
     <g id="line2d_12">
      <g>
       <use xlink:href="#m593318e827" x="50.14375" y="89.119337" style="stroke: #000000; stroke-width: 0.8"/>
      </g>
     </g>
     <g id="text_13">
      <!-- 0.80 -->
      <g transform="translate(20.878125 92.918556) scale(0.1 -0.1)">
       <use xlink:href="#DejaVuSans-30"/>
       <use xlink:href="#DejaVuSans-2e" x="63.623047"/>
       <use xlink:href="#DejaVuSans-38" x="95.410156"/>
       <use xlink:href="#DejaVuSans-30" x="159.033203"/>
      </g>
     </g>
    </g>
    <g id="ytick_7">
     <g id="line2d_13">
      <g>
       <use xlink:href="#m593318e827" x="50.14375" y="63.079298" style="stroke: #000000; stroke-width: 0.8"/>
      </g>
     </g>
     <g id="text_14">
      <!-- 0.85 -->
      <g transform="translate(20.878125 66.878516) scale(0.1 -0.1)">
       <use xlink:href="#DejaVuSans-30"/>
       <use xlink:href="#DejaVuSans-2e" x="63.623047"/>
       <use xlink:href="#DejaVuSans-38" x="95.410156"/>
       <use xlink:href="#DejaVuSans-35" x="159.033203"/>
      </g>
     </g>
    </g>
    <g id="ytick_8">
     <g id="line2d_14">
      <g>
       <use xlink:href="#m593318e827" x="50.14375" y="37.039258" style="stroke: #000000; stroke-width: 0.8"/>
      </g>
     </g>
     <g id="text_15">
      <!-- 0.90 -->
      <g transform="translate(20.878125 40.838477) scale(0.1 -0.1)">
       <defs>
        <path id="DejaVuSans-39" d="M 703 97 
L 703 672 
Q 941 559 1184 500 
Q 1428 441 1663 441 
Q 2288 441 2617 861 
Q 2947 1281 2994 2138 
Q 2813 1869 2534 1725 
Q 2256 1581 1919 1581 
Q 1219 1581 811 2004 
Q 403 2428 403 3163 
Q 403 3881 828 4315 
Q 1253 4750 1959 4750 
Q 2769 4750 3195 4129 
Q 3622 3509 3622 2328 
Q 3622 1225 3098 567 
Q 2575 -91 1691 -91 
Q 1453 -91 1209 -44 
Q 966 3 703 97 
z
M 1959 2075 
Q 2384 2075 2632 2365 
Q 2881 2656 2881 3163 
Q 2881 3666 2632 3958 
Q 2384 4250 1959 4250 
Q 1534 4250 1286 3958 
Q 1038 3666 1038 3163 
Q 1038 2656 1286 2365 
Q 1534 2075 1959 2075 
z
" transform="scale(0.015625)"/>
       </defs>
       <use xlink:href="#DejaVuSans-30"/>
       <use xlink:href="#DejaVuSans-2e" x="63.623047"/>
       <use xlink:href="#DejaVuSans-39" x="95.410156"/>
       <use xlink:href="#DejaVuSans-30" x="159.033203"/>
      </g>
     </g>
    </g>
    <g id="ytick_9">
     <g id="line2d_15">
      <g>
       <use xlink:href="#m593318e827" x="50.14375" y="10.999219" style="stroke: #000000; stroke-width: 0.8"/>
      </g>
     </g>
     <g id="text_16">
      <!-- 0.95 -->
      <g transform="translate(20.878125 14.798438) scale(0.1 -0.1)">
       <use xlink:href="#DejaVuSans-30"/>
       <use xlink:href="#DejaVuSans-2e" x="63.623047"/>
       <use xlink:href="#DejaVuSans-39" x="95.410156"/>
       <use xlink:href="#DejaVuSans-35" x="159.033203"/>
      </g>
     </g>
    </g>
    <g id="text_17">
     <!-- [dimensionless] -->
     <g transform="translate(14.798438 160.355584) rotate(-90) scale(0.1 -0.1)">
      <defs>
       <path id="DejaVuSans-64" d="M 2906 2969 
L 2906 4863 
L 3481 4863 
L 3481 0 
L 2906 0 
L 2906 525 
Q 2725 213 2448 61 
Q 2172 -91 1784 -91 
Q 1150 -91 751 415 
Q 353 922 353 1747 
Q 353 2572 751 3078 
Q 1150 3584 1784 3584 
Q 2172 3584 2448 3432 
Q 2725 3281 2906 2969 
z
M 947 1747 
Q 947 1113 1208 752 
Q 1469 391 1925 391 
Q 2381 391 2643 752 
Q 2906 1113 2906 1747 
Q 2906 2381 2643 2742 
Q 2381 3103 1925 3103 
Q 1469 3103 1208 2742 
Q 947 2381 947 1747 
z
" transform="scale(0.015625)"/>
       <path id="DejaVuSans-69" d="M 603 3500 
L 1178 3500 
L 1178 0 
L 603 0 
L 603 3500 
z
M 603 4863 
L 1178 4863 
L 1178 4134 
L 603 4134 
L 603 4863 
z
" transform="scale(0.015625)"/>
       <path id="DejaVuSans-6d" d="M 3328 2828 
Q 3544 3216 3844 3400 
Q 4144 3584 4550 3584 
Q 5097 3584 5394 3201 
Q 5691 2819 5691 2113 
L 5691 0 
L 5113 0 
L 5113 2094 
Q 5113 2597 4934 2840 
Q 4756 3084 4391 3084 
Q 3944 3084 3684 2787 
Q 3425 2491 3425 1978 
L 3425 0 
L 2847 0 
L 2847 2094 
Q 2847 2600 2669 2842 
Q 2491 3084 2119 3084 
Q 1678 3084 1418 2786 
Q 1159 2488 1159 1978 
L 1159 0 
L 581 0 
L 581 3500 
L 1159 3500 
L 1159 2956 
Q 1356 3278 1631 3431 
Q 1906 3584 2284 3584 
Q 2666 3584 2933 3390 
Q 3200 3197 3328 2828 
z
" transform="scale(0.015625)"/>
       <path id="DejaVuSans-73" d="M 2834 3397 
L 2834 2853 
Q 2591 2978 2328 3040 
Q 2066 3103 1784 3103 
Q 1356 3103 1142 2972 
Q 928 2841 928 2578 
Q 928 2378 1081 2264 
Q 1234 2150 1697 2047 
L 1894 2003 
Q 2506 1872 2764 1633 
Q 3022 1394 3022 966 
Q 3022 478 2636 193 
Q 2250 -91 1575 -91 
Q 1294 -91 989 -36 
Q 684 19 347 128 
L 347 722 
Q 666 556 975 473 
Q 1284 391 1588 391 
Q 1994 391 2212 530 
Q 2431 669 2431 922 
Q 2431 1156 2273 1281 
Q 2116 1406 1581 1522 
L 1381 1569 
Q 847 1681 609 1914 
Q 372 2147 372 2553 
Q 372 3047 722 3315 
Q 1072 3584 1716 3584 
Q 2034 3584 2315 3537 
Q 2597 3491 2834 3397 
z
" transform="scale(0.015625)"/>
       <path id="DejaVuSans-6f" d="M 1959 3097 
Q 1497 3097 1228 2736 
Q 959 2375 959 1747 
Q 959 1119 1226 758 
Q 1494 397 1959 397 
Q 2419 397 2687 759 
Q 2956 1122 2956 1747 
Q 2956 2369 2687 2733 
Q 2419 3097 1959 3097 
z
M 1959 3584 
Q 2709 3584 3137 3096 
Q 3566 2609 3566 1747 
Q 3566 888 3137 398 
Q 2709 -91 1959 -91 
Q 1206 -91 779 398 
Q 353 888 353 1747 
Q 353 2609 779 3096 
Q 1206 3584 1959 3584 
z
" transform="scale(0.015625)"/>
      </defs>
      <use xlink:href="#DejaVuSans-5b"/>
      <use xlink:href="#DejaVuSans-64" x="39.013672"/>
      <use xlink:href="#DejaVuSans-69" x="102.490234"/>
      <use xlink:href="#DejaVuSans-6d" x="130.273438"/>
      <use xlink:href="#DejaVuSans-65" x="227.685547"/>
      <use xlink:href="#DejaVuSans-6e" x="289.208984"/>
      <use xlink:href="#DejaVuSans-73" x="352.587891"/>
      <use xlink:href="#DejaVuSans-69" x="404.6875"/>
      <use xlink:href="#DejaVuSans-6f" x="432.470703"/>
      <use xlink:href="#DejaVuSans-6e" x="493.652344"/>
      <use xlink:href="#DejaVuSans-6c" x="557.03125"/>
      <use xlink:href="#DejaVuSans-65" x="584.814453"/>
      <use xlink:href="#DejaVuSans-73" x="646.337891"/>
      <use xlink:href="#DejaVuSans-73" x="698.4375"/>
      <use xlink:href="#DejaVuSans-5d" x="750.537109"/>
     </g>
    </g>
   </g>
   <g id="patch_3">
    <path d="M 50.14375 231.75824 
L 50.14375 9.99824 
" style="fill: none; stroke: #000000; stroke-width: 0.8; stroke-linejoin: miter; stroke-linecap: square"/>
   </g>
   <g id="patch_4">
    <path d="M 384.94375 231.75824 
L 384.94375 9.99824 
" style="fill: none; stroke: #000000; stroke-width: 0.8; stroke-linejoin: miter; stroke-linecap: square"/>
   </g>
   <g id="patch_5">
    <path d="M 50.14375 231.75824 
L 384.94375 231.75824 
" style="fill: none; stroke: #000000; stroke-width: 0.8; stroke-linejoin: miter; stroke-linecap: square"/>
   </g>
   <g id="patch_6">
    <path d="M 50.14375 9.99824 
L 384.94375 9.99824 
" style="fill: none; stroke: #000000; stroke-width: 0.8; stroke-linejoin: miter; stroke-linecap: square"/>
   </g>
   <g id="line2d_16">
    <path d="M 65.361932 32.868137 
L 66.88375 32.868137 
L 66.88375 46.790478 
L 68.405568 46.790478 
L 68.405568 60.907825 
L 69.927386 60.907825 
L 69.927386 54.604407 
L 71.449205 54.604407 
L 71.449205 56.131401 
L 72.971023 56.131401 
L 72.971023 51.922955 
L 74.492841 51.922955 
L 74.492841 63.277334 
L 76.014659 63.277334 
L 76.014659 60.57378 
L 77.536477 60.57378 
L 77.536477 75.287199 
L 79.058295 75.287199 
L 79.058295 78.303005 
L 80.580114 78.303005 
L 80.580114 79.29235 
L 82.101932 79.29235 
L 82.101932 72.914275 
L 83.62375 72.914275 
L 83.62375 77.803661 
L 85.145568 77.803661 
L 85.145568 86.091294 
L 86.667386 86.091294 
L 86.667386 78.903019 
L 88.189205 78.903019 
L 88.189205 80.567095 
L 89.711023 80.567095 
L 89.711023 77.366371 
L 91.232841 77.366371 
L 91.232841 84.55598 
L 92.754659 84.55598 
L 92.754659 89.834138 
L 94.276477 89.834138 
L 94.276477 87.567472 
L 95.798295 87.567472 
L 95.798295 86.735387 
L 97.320114 86.735387 
L 97.320114 84.928703 
L 98.841932 84.928703 
L 98.841932 88.750271 
L 100.36375 88.750271 
L 100.36375 84.941337 
L 101.885568 84.941337 
L 101.885568 87.087374 
L 103.407386 87.087374 
L 103.407386 83.321962 
L 104.929205 83.321962 
L 104.929205 91.796995 
L 106.451023 91.796995 
L 106.451023 84.016623 
L 107.972841 84.016623 
L 107.972841 85.147985 
L 109.494659 85.147985 
L 109.494659 99.51311 
L 111.016477 99.51311 
L 111.016477 92.791865 
L 112.538295 92.791865 
L 112.538295 88.549832 
L 114.060114 88.549832 
L 114.060114 91.197913 
L 115.581932 91.197913 
L 115.581932 93.667595 
L 117.10375 93.667595 
L 117.10375 91.267727 
L 118.625568 91.267727 
L 118.625568 94.205804 
L 120.147386 94.205804 
L 120.147386 90.911363 
L 121.669205 90.911363 
L 121.669205 94.554469 
L 123.191023 94.554469 
L 123.191023 93.650739 
L 124.712841 93.650739 
L 124.712841 96.466883 
L 126.234659 96.466883 
L 126.234659 101.152912 
L 127.756477 101.152912 
L 127.756477 97.924932 
L 129.278295 97.924932 
L 129.278295 95.114594 
L 130.800114 95.114594 
L 130.800114 99.138028 
L 132.321932 99.138028 
L 132.321932 106.521496 
L 133.84375 106.521496 
L 133.84375 97.636923 
L 135.365568 97.636923 
L 135.365568 98.044755 
L 136.887386 98.044755 
L 136.887386 104.919907 
L 138.409205 104.919907 
L 138.409205 112.669082 
L 139.931023 112.669082 
L 139.931023 107.546104 
L 141.452841 107.546104 
L 141.452841 105.554967 
L 142.974659 105.554967 
L 142.974659 107.329864 
L 144.496477 107.329864 
L 144.496477 108.406747 
L 146.018295 108.406747 
L 146.018295 109.588118 
L 147.540114 109.588118 
L 147.540114 111.881295 
L 149.061932 111.881295 
L 149.061932 109.987227 
L 150.58375 109.987227 
L 150.58375 108.889701 
L 152.105568 108.889701 
L 152.105568 106.075513 
L 153.627386 106.075513 
L 153.627386 111.615667 
L 155.149205 111.615667 
L 155.149205 107.971878 
L 156.671023 107.971878 
L 156.671023 111.440558 
L 158.192841 111.440558 
L 158.192841 110.835268 
L 159.714659 110.835268 
L 159.714659 114.533039 
L 161.236477 114.533039 
L 161.236477 114.775292 
L 162.758295 114.775292 
L 162.758295 125.770793 
L 164.280114 125.770793 
L 164.280114 108.559288 
L 165.801932 108.559288 
L 165.801932 108.823426 
L 167.32375 108.823426 
L 167.32375 113.937216 
L 168.845568 113.937216 
L 168.845568 116.165577 
L 170.367386 116.165577 
L 170.367386 110.214083 
L 171.889205 110.214083 
L 171.889205 121.536085 
L 173.411023 121.536085 
L 173.411023 111.325019 
L 174.932841 111.325019 
L 174.932841 110.322575 
L 176.454659 110.322575 
L 176.454659 115.35162 
L 177.976477 115.35162 
L 177.976477 117.010854 
L 179.498295 117.010854 
L 179.498295 119.954115 
L 181.020114 119.954115 
L 181.020114 121.269806 
L 182.541932 121.269806 
L 182.541932 121.61934 
L 184.06375 121.61934 
L 184.06375 125.972504 
L 185.585568 125.972504 
L 185.585568 115.300711 
L 187.107386 115.300711 
L 187.107386 126.944838 
L 188.629205 126.944838 
L 188.629205 127.211117 
L 190.151023 127.211117 
L 190.151023 125.67422 
L 191.672841 125.67422 
L 191.672841 134.048553 
L 193.194659 134.048553 
L 193.194659 128.220359 
L 194.716477 128.220359 
L 194.716477 127.62019 
L 196.238295 127.62019 
L 196.238295 123.982703 
L 197.760114 123.982703 
L 197.760114 123.7059 
L 199.281932 123.7059 
L 199.281932 130.377075 
L 200.80375 130.377075 
L 200.80375 118.186048 
L 202.325568 118.186048 
L 202.325568 134.788039 
L 203.847386 134.788039 
L 203.847386 130.260294 
L 205.369205 130.260294 
L 205.369205 131.200157 
L 206.891023 131.200157 
L 206.891023 136.08765 
L 208.412841 136.08765 
L 208.412841 132.794016 
L 209.934659 132.794016 
L 209.934659 134.026265 
L 211.456477 134.026265 
L 211.456477 131.28068 
L 212.978295 131.28068 
L 212.978295 134.544421 
L 214.500114 134.544421 
L 214.500114 132.484153 
L 216.021932 132.484153 
L 216.021932 147.374698 
L 217.54375 147.374698 
L 217.54375 133.312668 
L 219.065568 133.312668 
L 219.065568 142.348354 
L 220.587386 142.348354 
L 220.587386 146.277296 
L 222.109205 146.277296 
L 222.109205 139.30731 
L 223.631023 139.30731 
L 223.631023 139.421731 
L 225.152841 139.421731 
L 225.152841 141.228415 
L 226.674659 141.228415 
L 226.674659 144.695047 
L 228.196477 144.695047 
L 228.196477 145.822839 
L 229.718295 145.822839 
L 229.718295 149.047932 
L 231.240114 149.047932 
L 231.240114 143.4 
L 232.761932 143.4 
L 232.761932 147.72982 
L 234.28375 147.72982 
L 234.28375 142.973139 
L 235.805568 142.973139 
L 235.805568 153.802254 
L 237.327386 153.802254 
L 237.327386 148.259089 
L 238.849205 148.259089 
L 238.849205 142.197117 
L 240.371023 142.197117 
L 240.371023 150.722221 
L 241.892841 150.722221 
L 241.892841 139.41661 
L 243.414659 139.41661 
L 243.414659 140.535027 
L 244.936477 140.535027 
L 244.936477 144.036705 
L 246.458295 144.036705 
L 246.458295 148.314965 
L 247.980114 148.314965 
L 247.980114 153.902768 
L 249.501932 153.902768 
L 249.501932 140.699271 
L 251.02375 140.699271 
L 251.02375 146.321221 
L 252.545568 146.321221 
L 252.545568 148.485138 
L 254.067386 148.485138 
L 254.067386 142.372505 
L 255.589205 142.372505 
L 255.589205 145.28224 
L 257.111023 145.28224 
L 257.111023 151.554803 
L 258.632841 151.554803 
L 258.632841 147.549683 
L 260.154659 147.549683 
L 260.154659 149.339604 
L 263.198295 149.28795 
L 263.198295 155.516401 
L 264.720114 155.516401 
L 264.720114 147.787528 
L 266.241932 147.787528 
L 266.241932 123.171634 
L 267.76375 123.171634 
L 267.76375 157.286207 
L 269.285568 157.286207 
L 269.285568 163.53049 
L 270.807386 163.53049 
L 270.807386 134.257467 
L 272.329205 134.257467 
L 272.329205 136.501907 
L 273.851023 136.501907 
L 273.851023 160.3302 
L 275.372841 160.3302 
L 275.372841 140.25512 
L 276.894659 140.25512 
L 276.894659 152.478679 
L 278.416477 152.478679 
L 278.416477 159.005694 
L 279.938295 159.005694 
L 279.938295 150.965002 
L 281.460114 150.965002 
L 281.460114 148.423768 
L 282.981932 148.423768 
L 282.981932 174.47533 
L 284.50375 174.47533 
L 284.50375 148.894646 
L 286.025568 148.894646 
L 286.025568 161.830498 
L 287.547386 161.830498 
L 287.547386 154.286418 
L 289.069205 154.286418 
L 289.069205 143.187547 
L 290.591023 143.187547 
L 290.591023 134.604084 
L 292.112841 134.604084 
L 292.112841 159.236958 
L 293.634659 159.236958 
L 293.634659 158.063099 
L 295.156477 158.063099 
L 295.156477 148.395147 
L 296.678295 148.395147 
L 296.678295 153.138014 
L 298.200114 153.138014 
L 298.200114 148.32285 
L 299.721932 148.32285 
L 299.721932 154.905181 
L 301.24375 154.905181 
L 301.24375 155.913275 
L 302.765568 155.913275 
L 302.765568 159.614523 
L 305.809205 159.568643 
L 305.809205 158.282132 
L 307.331023 158.282132 
L 307.331023 178.559886 
L 308.852841 178.559886 
L 308.852841 155.472259 
L 310.374659 155.472259 
L 310.374659 153.369744 
L 311.896477 153.369744 
L 311.896477 163.108938 
L 313.418295 163.108938 
L 313.418295 157.783347 
L 314.940114 157.783347 
L 314.940114 158.926474 
L 316.461932 158.926474 
L 316.461932 160.750573 
L 317.98375 160.750573 
L 317.98375 156.89281 
L 319.505568 156.89281 
L 319.505568 167.199703 
L 321.027386 167.199703 
L 321.027386 155.071071 
L 322.549205 155.071071 
L 322.549205 169.435327 
L 324.071023 169.435327 
L 324.071023 168.96746 
L 325.592841 168.96746 
L 325.592841 180.058912 
L 327.114659 180.058912 
L 327.114659 149.651795 
L 328.636477 149.651795 
L 328.636477 167.134669 
L 330.158295 167.134669 
L 330.158295 151.493308 
L 331.680114 151.493308 
L 331.680114 162.31131 
L 333.201932 162.31131 
L 333.201932 181.617103 
L 334.72375 181.617103 
L 334.72375 182.432394 
L 336.245568 182.432394 
L 336.245568 145.597101 
L 337.767386 145.597101 
L 337.767386 159.315681 
L 339.289205 159.315681 
L 339.289205 138.513469 
L 340.811023 138.513469 
L 340.811023 179.186162 
L 342.332841 179.186162 
L 342.332841 158.488345 
L 343.854659 158.488345 
L 343.854659 182.401476 
L 345.376477 182.401476 
L 345.376477 151.332199 
L 346.898295 151.332199 
L 346.898295 159.905574 
L 348.420114 159.905574 
L 348.420114 181.992899 
L 349.941932 181.992899 
L 349.941932 172.528491 
L 351.46375 172.528491 
L 351.46375 165.49254 
L 352.985568 165.49254 
L 352.985568 123.040667 
L 354.507386 123.040667 
L 354.507386 198.47811 
L 356.029205 198.47811 
L 356.029205 164.457471 
L 357.551023 164.457471 
L 357.551023 171.263275 
L 359.072841 171.263275 
L 359.072841 196.939134 
L 360.594659 196.939134 
L 360.594659 208.040085 
L 362.116477 208.040085 
L 362.116477 181.187169 
L 363.638295 181.187169 
L 363.638295 189.790066 
L 366.681932 189.680797 
L 366.681932 195.804233 
L 368.20375 195.804233 
L 368.20375 173.404407 
L 369.725568 173.404407 
L 369.725568 173.404407 
" clip-path="url(#p4955c37083)" style="fill: none; stroke: #1f77b4; stroke-width: 1.5; stroke-linecap: square"/>
   </g>
   <g id="LineCollection_1">
    <path d="M 66.122841 45.658029 
L 66.122841 20.078246 
" clip-path="url(#p4955c37083)" style="fill: none; stroke: #1f77b4; stroke-width: 1.5"/>
    <path d="M 67.644659 57.897078 
L 67.644659 35.683877 
" clip-path="url(#p4955c37083)" style="fill: none; stroke: #1f77b4; stroke-width: 1.5"/>
    <path d="M 69.166477 70.979387 
L 69.166477 50.836263 
" clip-path="url(#p4955c37083)" style="fill: none; stroke: #1f77b4; stroke-width: 1.5"/>
    <path d="M 70.688295 64.352386 
L 70.688295 44.856428 
" clip-path="url(#p4955c37083)" style="fill: none; stroke: #1f77b4; stroke-width: 1.5"/>
    <path d="M 72.210114 65.468071 
L 72.210114 46.794731 
" clip-path="url(#p4955c37083)" style="fill: none; stroke: #1f77b4; stroke-width: 1.5"/>
    <path d="M 73.731932 60.90261 
L 73.731932 42.9433 
" clip-path="url(#p4955c37083)" style="fill: none; stroke: #1f77b4; stroke-width: 1.5"/>
    <path d="M 75.25375 71.675662 
L 75.25375 54.879006 
" clip-path="url(#p4955c37083)" style="fill: none; stroke: #1f77b4; stroke-width: 1.5"/>
    <path d="M 76.775568 68.741962 
L 76.775568 52.405598 
" clip-path="url(#p4955c37083)" style="fill: none; stroke: #1f77b4; stroke-width: 1.5"/>
    <path d="M 78.297386 82.924684 
L 78.297386 67.649713 
" clip-path="url(#p4955c37083)" style="fill: none; stroke: #1f77b4; stroke-width: 1.5"/>
    <path d="M 79.819205 85.644318 
L 79.819205 70.961693 
" clip-path="url(#p4955c37083)" style="fill: none; stroke: #1f77b4; stroke-width: 1.5"/>
    <path d="M 81.341023 86.321037 
L 81.341023 72.263663 
" clip-path="url(#p4955c37083)" style="fill: none; stroke: #1f77b4; stroke-width: 1.5"/>
    <path d="M 82.862841 79.76329 
L 82.862841 66.06526 
" clip-path="url(#p4955c37083)" style="fill: none; stroke: #1f77b4; stroke-width: 1.5"/>
    <path d="M 84.384659 84.301403 
L 84.384659 71.305919 
" clip-path="url(#p4955c37083)" style="fill: none; stroke: #1f77b4; stroke-width: 1.5"/>
    <path d="M 85.906477 92.202095 
L 85.906477 79.980492 
" clip-path="url(#p4955c37083)" style="fill: none; stroke: #1f77b4; stroke-width: 1.5"/>
    <path d="M 87.428295 84.822135 
L 87.428295 72.983903 
" clip-path="url(#p4955c37083)" style="fill: none; stroke: #1f77b4; stroke-width: 1.5"/>
    <path d="M 88.950114 86.116127 
L 88.950114 75.018063 
" clip-path="url(#p4955c37083)" style="fill: none; stroke: #1f77b4; stroke-width: 1.5"/>
    <path d="M 90.471932 82.673709 
L 90.471932 72.059033 
" clip-path="url(#p4955c37083)" style="fill: none; stroke: #1f77b4; stroke-width: 1.5"/>
    <path d="M 91.99375 89.482151 
L 91.99375 79.629809 
" clip-path="url(#p4955c37083)" style="fill: none; stroke: #1f77b4; stroke-width: 1.5"/>
    <path d="M 93.515568 94.409999 
L 93.515568 85.258278 
" clip-path="url(#p4955c37083)" style="fill: none; stroke: #1f77b4; stroke-width: 1.5"/>
    <path d="M 95.037386 91.873545 
L 95.037386 83.261398 
" clip-path="url(#p4955c37083)" style="fill: none; stroke: #1f77b4; stroke-width: 1.5"/>
    <path d="M 96.559205 90.808365 
L 96.559205 82.662409 
" clip-path="url(#p4955c37083)" style="fill: none; stroke: #1f77b4; stroke-width: 1.5"/>
    <path d="M 98.081023 88.791526 
L 98.081023 81.065881 
" clip-path="url(#p4955c37083)" style="fill: none; stroke: #1f77b4; stroke-width: 1.5"/>
    <path d="M 99.602841 92.387324 
L 99.602841 85.113218 
" clip-path="url(#p4955c37083)" style="fill: none; stroke: #1f77b4; stroke-width: 1.5"/>
    <path d="M 101.124659 88.462883 
L 101.124659 81.419792 
" clip-path="url(#p4955c37083)" style="fill: none; stroke: #1f77b4; stroke-width: 1.5"/>
    <path d="M 102.646477 90.449269 
L 102.646477 83.725479 
" clip-path="url(#p4955c37083)" style="fill: none; stroke: #1f77b4; stroke-width: 1.5"/>
    <path d="M 104.168295 86.625808 
L 104.168295 80.018115 
" clip-path="url(#p4955c37083)" style="fill: none; stroke: #1f77b4; stroke-width: 1.5"/>
    <path d="M 105.690114 94.993622 
L 105.690114 88.600368 
" clip-path="url(#p4955c37083)" style="fill: none; stroke: #1f77b4; stroke-width: 1.5"/>
    <path d="M 107.211932 87.248452 
L 107.211932 80.784794 
" clip-path="url(#p4955c37083)" style="fill: none; stroke: #1f77b4; stroke-width: 1.5"/>
    <path d="M 108.73375 88.366404 
L 108.73375 81.929566 
" clip-path="url(#p4955c37083)" style="fill: none; stroke: #1f77b4; stroke-width: 1.5"/>
    <path d="M 110.255568 102.630921 
L 110.255568 96.395299 
" clip-path="url(#p4955c37083)" style="fill: none; stroke: #1f77b4; stroke-width: 1.5"/>
    <path d="M 111.777386 95.98337 
L 111.777386 89.60036 
" clip-path="url(#p4955c37083)" style="fill: none; stroke: #1f77b4; stroke-width: 1.5"/>
    <path d="M 113.299205 91.775762 
L 113.299205 85.323901 
" clip-path="url(#p4955c37083)" style="fill: none; stroke: #1f77b4; stroke-width: 1.5"/>
    <path d="M 114.821023 94.398731 
L 114.821023 87.997095 
" clip-path="url(#p4955c37083)" style="fill: none; stroke: #1f77b4; stroke-width: 1.5"/>
    <path d="M 116.342841 96.869034 
L 116.342841 90.466156 
" clip-path="url(#p4955c37083)" style="fill: none; stroke: #1f77b4; stroke-width: 1.5"/>
    <path d="M 117.864659 94.508309 
L 117.864659 88.027144 
" clip-path="url(#p4955c37083)" style="fill: none; stroke: #1f77b4; stroke-width: 1.5"/>
    <path d="M 119.386477 97.456972 
L 119.386477 90.954636 
" clip-path="url(#p4955c37083)" style="fill: none; stroke: #1f77b4; stroke-width: 1.5"/>
    <path d="M 120.908295 94.219586 
L 120.908295 87.603139 
" clip-path="url(#p4955c37083)" style="fill: none; stroke: #1f77b4; stroke-width: 1.5"/>
    <path d="M 122.430114 97.869522 
L 122.430114 91.239416 
" clip-path="url(#p4955c37083)" style="fill: none; stroke: #1f77b4; stroke-width: 1.5"/>
    <path d="M 123.951932 97.015397 
L 123.951932 90.286081 
" clip-path="url(#p4955c37083)" style="fill: none; stroke: #1f77b4; stroke-width: 1.5"/>
    <path d="M 125.47375 99.841909 
L 125.47375 93.091856 
" clip-path="url(#p4955c37083)" style="fill: none; stroke: #1f77b4; stroke-width: 1.5"/>
    <path d="M 126.995568 104.518843 
L 126.995568 97.786981 
" clip-path="url(#p4955c37083)" style="fill: none; stroke: #1f77b4; stroke-width: 1.5"/>
    <path d="M 128.517386 101.358256 
L 128.517386 94.491609 
" clip-path="url(#p4955c37083)" style="fill: none; stroke: #1f77b4; stroke-width: 1.5"/>
    <path d="M 130.039205 98.611864 
L 130.039205 91.617323 
" clip-path="url(#p4955c37083)" style="fill: none; stroke: #1f77b4; stroke-width: 1.5"/>
    <path d="M 131.561023 102.644953 
L 131.561023 95.631104 
" clip-path="url(#p4955c37083)" style="fill: none; stroke: #1f77b4; stroke-width: 1.5"/>
    <path d="M 133.082841 110.005076 
L 133.082841 103.037915 
" clip-path="url(#p4955c37083)" style="fill: none; stroke: #1f77b4; stroke-width: 1.5"/>
    <path d="M 134.604659 101.237409 
L 134.604659 94.036438 
" clip-path="url(#p4955c37083)" style="fill: none; stroke: #1f77b4; stroke-width: 1.5"/>
    <path d="M 136.126477 101.686588 
L 136.126477 94.402921 
" clip-path="url(#p4955c37083)" style="fill: none; stroke: #1f77b4; stroke-width: 1.5"/>
    <path d="M 137.648295 108.52241 
L 137.648295 101.317404 
" clip-path="url(#p4955c37083)" style="fill: none; stroke: #1f77b4; stroke-width: 1.5"/>
    <path d="M 139.170114 116.231355 
L 139.170114 109.10681 
" clip-path="url(#p4955c37083)" style="fill: none; stroke: #1f77b4; stroke-width: 1.5"/>
    <path d="M 140.691932 111.174217 
L 140.691932 103.917991 
" clip-path="url(#p4955c37083)" style="fill: none; stroke: #1f77b4; stroke-width: 1.5"/>
    <path d="M 142.21375 109.164548 
L 142.21375 101.945387 
" clip-path="url(#p4955c37083)" style="fill: none; stroke: #1f77b4; stroke-width: 1.5"/>
    <path d="M 143.735568 110.908993 
L 143.735568 103.750736 
" clip-path="url(#p4955c37083)" style="fill: none; stroke: #1f77b4; stroke-width: 1.5"/>
    <path d="M 145.257386 111.961415 
L 145.257386 104.85208 
" clip-path="url(#p4955c37083)" style="fill: none; stroke: #1f77b4; stroke-width: 1.5"/>
    <path d="M 146.779205 113.166812 
L 146.779205 106.009424 
" clip-path="url(#p4955c37083)" style="fill: none; stroke: #1f77b4; stroke-width: 1.5"/>
    <path d="M 148.301023 115.456046 
L 148.301023 108.306543 
" clip-path="url(#p4955c37083)" style="fill: none; stroke: #1f77b4; stroke-width: 1.5"/>
    <path d="M 149.822841 113.615619 
L 149.822841 106.358835 
" clip-path="url(#p4955c37083)" style="fill: none; stroke: #1f77b4; stroke-width: 1.5"/>
    <path d="M 151.344659 112.549849 
L 151.344659 105.229553 
" clip-path="url(#p4955c37083)" style="fill: none; stroke: #1f77b4; stroke-width: 1.5"/>
    <path d="M 152.866477 109.794518 
L 152.866477 102.356509 
" clip-path="url(#p4955c37083)" style="fill: none; stroke: #1f77b4; stroke-width: 1.5"/>
    <path d="M 154.388295 115.308937 
L 154.388295 107.922397 
" clip-path="url(#p4955c37083)" style="fill: none; stroke: #1f77b4; stroke-width: 1.5"/>
    <path d="M 155.910114 111.742909 
L 155.910114 104.200847 
" clip-path="url(#p4955c37083)" style="fill: none; stroke: #1f77b4; stroke-width: 1.5"/>
    <path d="M 157.431932 115.218884 
L 157.431932 107.662233 
" clip-path="url(#p4955c37083)" style="fill: none; stroke: #1f77b4; stroke-width: 1.5"/>
    <path d="M 158.95375 114.643021 
L 158.95375 107.027514 
" clip-path="url(#p4955c37083)" style="fill: none; stroke: #1f77b4; stroke-width: 1.5"/>
    <path d="M 160.475568 118.335174 
L 160.475568 110.730904 
" clip-path="url(#p4955c37083)" style="fill: none; stroke: #1f77b4; stroke-width: 1.5"/>
    <path d="M 161.997386 118.594966 
L 161.997386 110.955618 
" clip-path="url(#p4955c37083)" style="fill: none; stroke: #1f77b4; stroke-width: 1.5"/>
    <path d="M 163.519205 129.539154 
L 163.519205 122.002431 
" clip-path="url(#p4955c37083)" style="fill: none; stroke: #1f77b4; stroke-width: 1.5"/>
    <path d="M 165.041023 112.541468 
L 165.041023 104.577109 
" clip-path="url(#p4955c37083)" style="fill: none; stroke: #1f77b4; stroke-width: 1.5"/>
    <path d="M 166.562841 112.841459 
L 166.562841 104.805393 
" clip-path="url(#p4955c37083)" style="fill: none; stroke: #1f77b4; stroke-width: 1.5"/>
    <path d="M 168.084659 117.954411 
L 168.084659 109.920021 
" clip-path="url(#p4955c37083)" style="fill: none; stroke: #1f77b4; stroke-width: 1.5"/>
    <path d="M 169.606477 120.210306 
L 169.606477 112.120847 
" clip-path="url(#p4955c37083)" style="fill: none; stroke: #1f77b4; stroke-width: 1.5"/>
    <path d="M 171.128295 114.389997 
L 171.128295 106.03817 
" clip-path="url(#p4955c37083)" style="fill: none; stroke: #1f77b4; stroke-width: 1.5"/>
    <path d="M 172.650114 125.635356 
L 172.650114 117.436814 
" clip-path="url(#p4955c37083)" style="fill: none; stroke: #1f77b4; stroke-width: 1.5"/>
    <path d="M 174.171932 115.580556 
L 174.171932 107.069483 
" clip-path="url(#p4955c37083)" style="fill: none; stroke: #1f77b4; stroke-width: 1.5"/>
    <path d="M 175.69375 114.669376 
L 175.69375 105.975775 
" clip-path="url(#p4955c37083)" style="fill: none; stroke: #1f77b4; stroke-width: 1.5"/>
    <path d="M 177.215568 119.690629 
L 177.215568 111.012611 
" clip-path="url(#p4955c37083)" style="fill: none; stroke: #1f77b4; stroke-width: 1.5"/>
    <path d="M 178.737386 121.380129 
L 178.737386 112.641579 
" clip-path="url(#p4955c37083)" style="fill: none; stroke: #1f77b4; stroke-width: 1.5"/>
    <path d="M 180.259205 124.35704 
L 180.259205 115.55119 
" clip-path="url(#p4955c37083)" style="fill: none; stroke: #1f77b4; stroke-width: 1.5"/>
    <path d="M 181.781023 125.720939 
L 181.781023 116.818672 
" clip-path="url(#p4955c37083)" style="fill: none; stroke: #1f77b4; stroke-width: 1.5"/>
    <path d="M 183.302841 126.127032 
L 183.302841 117.111648 
" clip-path="url(#p4955c37083)" style="fill: none; stroke: #1f77b4; stroke-width: 1.5"/>
    <path d="M 184.824659 130.480569 
L 184.824659 121.46444 
" clip-path="url(#p4955c37083)" style="fill: none; stroke: #1f77b4; stroke-width: 1.5"/>
    <path d="M 186.346477 119.994905 
L 186.346477 110.606518 
" clip-path="url(#p4955c37083)" style="fill: none; stroke: #1f77b4; stroke-width: 1.5"/>
    <path d="M 187.868295 131.569621 
L 187.868295 122.320054 
" clip-path="url(#p4955c37083)" style="fill: none; stroke: #1f77b4; stroke-width: 1.5"/>
    <path d="M 189.390114 131.872933 
L 189.390114 122.549301 
" clip-path="url(#p4955c37083)" style="fill: none; stroke: #1f77b4; stroke-width: 1.5"/>
    <path d="M 190.911932 130.421837 
L 190.911932 120.926604 
" clip-path="url(#p4955c37083)" style="fill: none; stroke: #1f77b4; stroke-width: 1.5"/>
    <path d="M 192.43375 138.77562 
L 192.43375 129.321486 
" clip-path="url(#p4955c37083)" style="fill: none; stroke: #1f77b4; stroke-width: 1.5"/>
    <path d="M 193.955568 133.083732 
L 193.955568 123.356986 
" clip-path="url(#p4955c37083)" style="fill: none; stroke: #1f77b4; stroke-width: 1.5"/>
    <path d="M 195.477386 132.553688 
L 195.477386 122.686693 
" clip-path="url(#p4955c37083)" style="fill: none; stroke: #1f77b4; stroke-width: 1.5"/>
    <path d="M 196.999205 129.042976 
L 196.999205 118.92243 
" clip-path="url(#p4955c37083)" style="fill: none; stroke: #1f77b4; stroke-width: 1.5"/>
    <path d="M 198.521023 128.83071 
L 198.521023 118.58109 
" clip-path="url(#p4955c37083)" style="fill: none; stroke: #1f77b4; stroke-width: 1.5"/>
    <path d="M 200.042841 135.478137 
L 200.042841 125.276012 
" clip-path="url(#p4955c37083)" style="fill: none; stroke: #1f77b4; stroke-width: 1.5"/>
    <path d="M 201.564659 123.531381 
L 201.564659 112.840714 
" clip-path="url(#p4955c37083)" style="fill: none; stroke: #1f77b4; stroke-width: 1.5"/>
    <path d="M 203.086477 139.956526 
L 203.086477 129.619553 
" clip-path="url(#p4955c37083)" style="fill: none; stroke: #1f77b4; stroke-width: 1.5"/>
    <path d="M 204.608295 135.601778 
L 204.608295 124.91881 
" clip-path="url(#p4955c37083)" style="fill: none; stroke: #1f77b4; stroke-width: 1.5"/>
    <path d="M 206.130114 136.584231 
L 206.130114 125.816083 
" clip-path="url(#p4955c37083)" style="fill: none; stroke: #1f77b4; stroke-width: 1.5"/>
    <path d="M 207.651932 141.47548 
L 207.651932 130.69982 
" clip-path="url(#p4955c37083)" style="fill: none; stroke: #1f77b4; stroke-width: 1.5"/>
    <path d="M 209.17375 138.314862 
L 209.17375 127.27317 
" clip-path="url(#p4955c37083)" style="fill: none; stroke: #1f77b4; stroke-width: 1.5"/>
    <path d="M 210.695568 139.58135 
L 210.695568 128.47118 
" clip-path="url(#p4955c37083)" style="fill: none; stroke: #1f77b4; stroke-width: 1.5"/>
    <path d="M 212.217386 136.961207 
L 212.217386 125.600154 
" clip-path="url(#p4955c37083)" style="fill: none; stroke: #1f77b4; stroke-width: 1.5"/>
    <path d="M 213.739205 140.233484 
L 213.739205 128.855357 
" clip-path="url(#p4955c37083)" style="fill: none; stroke: #1f77b4; stroke-width: 1.5"/>
    <path d="M 215.261023 138.279815 
L 215.261023 126.688492 
" clip-path="url(#p4955c37083)" style="fill: none; stroke: #1f77b4; stroke-width: 1.5"/>
    <path d="M 216.782841 153.013908 
L 216.782841 141.735489 
" clip-path="url(#p4955c37083)" style="fill: none; stroke: #1f77b4; stroke-width: 1.5"/>
    <path d="M 218.304659 139.261926 
L 218.304659 127.36341 
" clip-path="url(#p4955c37083)" style="fill: none; stroke: #1f77b4; stroke-width: 1.5"/>
    <path d="M 219.826477 148.244561 
L 219.826477 136.452147 
" clip-path="url(#p4955c37083)" style="fill: none; stroke: #1f77b4; stroke-width: 1.5"/>
    <path d="M 221.348295 152.204825 
L 221.348295 140.349767 
" clip-path="url(#p4955c37083)" style="fill: none; stroke: #1f77b4; stroke-width: 1.5"/>
    <path d="M 222.870114 145.408675 
L 222.870114 133.205945 
" clip-path="url(#p4955c37083)" style="fill: none; stroke: #1f77b4; stroke-width: 1.5"/>
    <path d="M 224.391932 145.612684 
L 224.391932 133.230779 
" clip-path="url(#p4955c37083)" style="fill: none; stroke: #1f77b4; stroke-width: 1.5"/>
    <path d="M 225.91375 147.465745 
L 225.91375 134.991086 
" clip-path="url(#p4955c37083)" style="fill: none; stroke: #1f77b4; stroke-width: 1.5"/>
    <path d="M 227.435568 150.930607 
L 227.435568 138.459487 
" clip-path="url(#p4955c37083)" style="fill: none; stroke: #1f77b4; stroke-width: 1.5"/>
    <path d="M 228.957386 152.15106 
L 228.957386 139.494618 
" clip-path="url(#p4955c37083)" style="fill: none; stroke: #1f77b4; stroke-width: 1.5"/>
    <path d="M 230.479205 155.389128 
L 230.479205 142.706736 
" clip-path="url(#p4955c37083)" style="fill: none; stroke: #1f77b4; stroke-width: 1.5"/>
    <path d="M 232.001023 149.901746 
L 232.001023 136.898253 
" clip-path="url(#p4955c37083)" style="fill: none; stroke: #1f77b4; stroke-width: 1.5"/>
    <path d="M 233.522841 154.252769 
L 233.522841 141.206872 
" clip-path="url(#p4955c37083)" style="fill: none; stroke: #1f77b4; stroke-width: 1.5"/>
    <path d="M 235.044659 149.670296 
L 235.044659 136.275982 
" clip-path="url(#p4955c37083)" style="fill: none; stroke: #1f77b4; stroke-width: 1.5"/>
    <path d="M 236.566477 160.381047 
L 236.566477 147.223461 
" clip-path="url(#p4955c37083)" style="fill: none; stroke: #1f77b4; stroke-width: 1.5"/>
    <path d="M 238.088295 155.03351 
L 238.088295 141.484668 
" clip-path="url(#p4955c37083)" style="fill: none; stroke: #1f77b4; stroke-width: 1.5"/>
    <path d="M 239.610114 149.173311 
L 239.610114 135.220922 
" clip-path="url(#p4955c37083)" style="fill: none; stroke: #1f77b4; stroke-width: 1.5"/>
    <path d="M 241.131932 157.635804 
L 241.131932 143.808639 
" clip-path="url(#p4955c37083)" style="fill: none; stroke: #1f77b4; stroke-width: 1.5"/>
    <path d="M 242.65375 146.637447 
L 242.65375 132.195772 
" clip-path="url(#p4955c37083)" style="fill: none; stroke: #1f77b4; stroke-width: 1.5"/>
    <path d="M 244.175568 147.786379 
L 244.175568 133.283675 
" clip-path="url(#p4955c37083)" style="fill: none; stroke: #1f77b4; stroke-width: 1.5"/>
    <path d="M 245.697386 151.37125 
L 245.697386 136.70216 
" clip-path="url(#p4955c37083)" style="fill: none; stroke: #1f77b4; stroke-width: 1.5"/>
    <path d="M 247.219205 155.602574 
L 247.219205 141.027355 
" clip-path="url(#p4955c37083)" style="fill: none; stroke: #1f77b4; stroke-width: 1.5"/>
    <path d="M 248.741023 161.187429 
L 248.741023 146.618108 
" clip-path="url(#p4955c37083)" style="fill: none; stroke: #1f77b4; stroke-width: 1.5"/>
    <path d="M 250.262841 148.341785 
L 250.262841 133.056757 
" clip-path="url(#p4955c37083)" style="fill: none; stroke: #1f77b4; stroke-width: 1.5"/>
    <path d="M 251.784659 153.954205 
L 251.784659 138.688237 
" clip-path="url(#p4955c37083)" style="fill: none; stroke: #1f77b4; stroke-width: 1.5"/>
    <path d="M 253.306477 156.158539 
L 253.306477 140.811737 
" clip-path="url(#p4955c37083)" style="fill: none; stroke: #1f77b4; stroke-width: 1.5"/>
    <path d="M 254.828295 150.265343 
L 254.828295 134.479667 
" clip-path="url(#p4955c37083)" style="fill: none; stroke: #1f77b4; stroke-width: 1.5"/>
    <path d="M 256.350114 153.252311 
L 256.350114 137.312169 
" clip-path="url(#p4955c37083)" style="fill: none; stroke: #1f77b4; stroke-width: 1.5"/>
    <path d="M 257.871932 159.411166 
L 257.871932 143.698439 
" clip-path="url(#p4955c37083)" style="fill: none; stroke: #1f77b4; stroke-width: 1.5"/>
    <path d="M 259.39375 155.617319 
L 259.39375 139.482046 
" clip-path="url(#p4955c37083)" style="fill: none; stroke: #1f77b4; stroke-width: 1.5"/>
    <path d="M 260.915568 157.470597 
L 260.915568 141.208611 
" clip-path="url(#p4955c37083)" style="fill: none; stroke: #1f77b4; stroke-width: 1.5"/>
    <path d="M 262.437386 157.498877 
L 262.437386 141.077023 
" clip-path="url(#p4955c37083)" style="fill: none; stroke: #1f77b4; stroke-width: 1.5"/>
    <path d="M 263.959205 163.742756 
L 263.959205 147.290046 
" clip-path="url(#p4955c37083)" style="fill: none; stroke: #1f77b4; stroke-width: 1.5"/>
    <path d="M 265.481023 156.266876 
L 265.481023 139.308179 
" clip-path="url(#p4955c37083)" style="fill: none; stroke: #1f77b4; stroke-width: 1.5"/>
    <path d="M 267.002841 132.305847 
L 267.002841 114.03742 
" clip-path="url(#p4955c37083)" style="fill: none; stroke: #1f77b4; stroke-width: 1.5"/>
    <path d="M 268.524659 165.715174 
L 268.524659 148.85724 
" clip-path="url(#p4955c37083)" style="fill: none; stroke: #1f77b4; stroke-width: 1.5"/>
    <path d="M 270.046477 171.940025 
L 270.046477 155.120955 
" clip-path="url(#p4955c37083)" style="fill: none; stroke: #1f77b4; stroke-width: 1.5"/>
    <path d="M 271.568295 143.495703 
L 271.568295 125.019231 
" clip-path="url(#p4955c37083)" style="fill: none; stroke: #1f77b4; stroke-width: 1.5"/>
    <path d="M 273.090114 145.785278 
L 273.090114 127.218536 
" clip-path="url(#p4955c37083)" style="fill: none; stroke: #1f77b4; stroke-width: 1.5"/>
    <path d="M 274.611932 169.143345 
L 274.611932 151.517055 
" clip-path="url(#p4955c37083)" style="fill: none; stroke: #1f77b4; stroke-width: 1.5"/>
    <path d="M 276.13375 149.579591 
L 276.13375 130.930649 
" clip-path="url(#p4955c37083)" style="fill: none; stroke: #1f77b4; stroke-width: 1.5"/>
    <path d="M 277.655568 161.685469 
L 277.655568 143.271889 
" clip-path="url(#p4955c37083)" style="fill: none; stroke: #1f77b4; stroke-width: 1.5"/>
    <path d="M 279.177386 168.139659 
L 279.177386 149.871728 
" clip-path="url(#p4955c37083)" style="fill: none; stroke: #1f77b4; stroke-width: 1.5"/>
    <path d="M 280.699205 160.368816 
L 280.699205 141.561187 
" clip-path="url(#p4955c37083)" style="fill: none; stroke: #1f77b4; stroke-width: 1.5"/>
    <path d="M 282.221023 157.984283 
L 282.221023 138.863252 
" clip-path="url(#p4955c37083)" style="fill: none; stroke: #1f77b4; stroke-width: 1.5"/>
    <path d="M 283.742841 183.472399 
L 283.742841 165.47826 
" clip-path="url(#p4955c37083)" style="fill: none; stroke: #1f77b4; stroke-width: 1.5"/>
    <path d="M 285.264659 158.698345 
L 285.264659 139.090946 
" clip-path="url(#p4955c37083)" style="fill: none; stroke: #1f77b4; stroke-width: 1.5"/>
    <path d="M 286.786477 171.321913 
L 286.786477 152.339082 
" clip-path="url(#p4955c37083)" style="fill: none; stroke: #1f77b4; stroke-width: 1.5"/>
    <path d="M 288.308295 164.195413 
L 288.308295 144.377424 
" clip-path="url(#p4955c37083)" style="fill: none; stroke: #1f77b4; stroke-width: 1.5"/>
    <path d="M 289.830114 153.540879 
L 289.830114 132.834216 
" clip-path="url(#p4955c37083)" style="fill: none; stroke: #1f77b4; stroke-width: 1.5"/>
    <path d="M 291.351932 145.30369 
L 291.351932 123.904477 
" clip-path="url(#p4955c37083)" style="fill: none; stroke: #1f77b4; stroke-width: 1.5"/>
    <path d="M 292.87375 169.307402 
L 292.87375 149.166513 
" clip-path="url(#p4955c37083)" style="fill: none; stroke: #1f77b4; stroke-width: 1.5"/>
    <path d="M 294.395568 168.241601 
L 294.395568 147.884597 
" clip-path="url(#p4955c37083)" style="fill: none; stroke: #1f77b4; stroke-width: 1.5"/>
    <path d="M 295.917386 158.964408 
L 295.917386 137.825886 
" clip-path="url(#p4955c37083)" style="fill: none; stroke: #1f77b4; stroke-width: 1.5"/>
    <path d="M 297.439205 163.750455 
L 297.439205 142.525574 
" clip-path="url(#p4955c37083)" style="fill: none; stroke: #1f77b4; stroke-width: 1.5"/>
    <path d="M 298.961023 159.108909 
L 298.961023 137.53679 
" clip-path="url(#p4955c37083)" style="fill: none; stroke: #1f77b4; stroke-width: 1.5"/>
    <path d="M 300.482841 165.667121 
L 300.482841 144.143242 
" clip-path="url(#p4955c37083)" style="fill: none; stroke: #1f77b4; stroke-width: 1.5"/>
    <path d="M 302.004659 166.810745 
L 302.004659 145.015806 
" clip-path="url(#p4955c37083)" style="fill: none; stroke: #1f77b4; stroke-width: 1.5"/>
    <path d="M 303.526477 170.379939 
L 303.526477 148.849107 
" clip-path="url(#p4955c37083)" style="fill: none; stroke: #1f77b4; stroke-width: 1.5"/>
    <path d="M 305.048295 170.576529 
L 305.048295 148.560757 
" clip-path="url(#p4955c37083)" style="fill: none; stroke: #1f77b4; stroke-width: 1.5"/>
    <path d="M 306.570114 169.409438 
L 306.570114 147.154827 
" clip-path="url(#p4955c37083)" style="fill: none; stroke: #1f77b4; stroke-width: 1.5"/>
    <path d="M 308.091932 189.120983 
L 308.091932 167.99879 
" clip-path="url(#p4955c37083)" style="fill: none; stroke: #1f77b4; stroke-width: 1.5"/>
    <path d="M 309.61375 166.952607 
L 309.61375 143.991911 
" clip-path="url(#p4955c37083)" style="fill: none; stroke: #1f77b4; stroke-width: 1.5"/>
    <path d="M 311.135568 165.08536 
L 311.135568 141.654127 
" clip-path="url(#p4955c37083)" style="fill: none; stroke: #1f77b4; stroke-width: 1.5"/>
    <path d="M 312.657386 174.596022 
L 312.657386 151.621854 
" clip-path="url(#p4955c37083)" style="fill: none; stroke: #1f77b4; stroke-width: 1.5"/>
    <path d="M 314.179205 169.687048 
L 314.179205 145.879646 
" clip-path="url(#p4955c37083)" style="fill: none; stroke: #1f77b4; stroke-width: 1.5"/>
    <path d="M 315.701023 170.628184 
L 315.701023 147.224765 
" clip-path="url(#p4955c37083)" style="fill: none; stroke: #1f77b4; stroke-width: 1.5"/>
    <path d="M 317.222841 172.567511 
L 317.222841 148.933635 
" clip-path="url(#p4955c37083)" style="fill: none; stroke: #1f77b4; stroke-width: 1.5"/>
    <path d="M 318.744659 169.036684 
L 318.744659 144.748936 
" clip-path="url(#p4955c37083)" style="fill: none; stroke: #1f77b4; stroke-width: 1.5"/>
    <path d="M 320.266477 179.15661 
L 320.266477 155.242796 
" clip-path="url(#p4955c37083)" style="fill: none; stroke: #1f77b4; stroke-width: 1.5"/>
    <path d="M 321.788295 167.499849 
L 321.788295 142.642292 
" clip-path="url(#p4955c37083)" style="fill: none; stroke: #1f77b4; stroke-width: 1.5"/>
    <path d="M 323.310114 181.425977 
L 323.310114 157.444677 
" clip-path="url(#p4955c37083)" style="fill: none; stroke: #1f77b4; stroke-width: 1.5"/>
    <path d="M 324.831932 181.264464 
L 324.831932 156.670455 
" clip-path="url(#p4955c37083)" style="fill: none; stroke: #1f77b4; stroke-width: 1.5"/>
    <path d="M 326.35375 191.963016 
L 326.35375 168.154807 
" clip-path="url(#p4955c37083)" style="fill: none; stroke: #1f77b4; stroke-width: 1.5"/>
    <path d="M 327.875568 162.905829 
L 327.875568 136.397761 
" clip-path="url(#p4955c37083)" style="fill: none; stroke: #1f77b4; stroke-width: 1.5"/>
    <path d="M 329.397386 179.674362 
L 329.397386 154.594977 
" clip-path="url(#p4955c37083)" style="fill: none; stroke: #1f77b4; stroke-width: 1.5"/>
    <path d="M 330.919205 164.813151 
L 330.919205 138.173465 
" clip-path="url(#p4955c37083)" style="fill: none; stroke: #1f77b4; stroke-width: 1.5"/>
    <path d="M 332.441023 175.429224 
L 332.441023 149.193395 
" clip-path="url(#p4955c37083)" style="fill: none; stroke: #1f77b4; stroke-width: 1.5"/>
    <path d="M 333.962841 194.116099 
L 333.962841 169.118107 
" clip-path="url(#p4955c37083)" style="fill: none; stroke: #1f77b4; stroke-width: 1.5"/>
    <path d="M 335.484659 195.077195 
L 335.484659 169.787593 
" clip-path="url(#p4955c37083)" style="fill: none; stroke: #1f77b4; stroke-width: 1.5"/>
    <path d="M 337.006477 159.835171 
L 337.006477 131.359031 
" clip-path="url(#p4955c37083)" style="fill: none; stroke: #1f77b4; stroke-width: 1.5"/>
    <path d="M 338.528295 173.023923 
L 338.528295 145.607438 
" clip-path="url(#p4955c37083)" style="fill: none; stroke: #1f77b4; stroke-width: 1.5"/>
    <path d="M 340.050114 153.207083 
L 340.050114 123.819856 
" clip-path="url(#p4955c37083)" style="fill: none; stroke: #1f77b4; stroke-width: 1.5"/>
    <path d="M 341.571932 192.429052 
L 341.571932 165.943272 
" clip-path="url(#p4955c37083)" style="fill: none; stroke: #1f77b4; stroke-width: 1.5"/>
    <path d="M 343.09375 172.75277 
L 343.09375 144.22392 
" clip-path="url(#p4955c37083)" style="fill: none; stroke: #1f77b4; stroke-width: 1.5"/>
    <path d="M 344.615568 195.804419 
L 344.615568 168.998533 
" clip-path="url(#p4955c37083)" style="fill: none; stroke: #1f77b4; stroke-width: 1.5"/>
    <path d="M 346.137386 166.080043 
L 346.137386 136.584355 
" clip-path="url(#p4955c37083)" style="fill: none; stroke: #1f77b4; stroke-width: 1.5"/>
    <path d="M 347.659205 174.512208 
L 347.659205 145.298941 
" clip-path="url(#p4955c37083)" style="fill: none; stroke: #1f77b4; stroke-width: 1.5"/>
    <path d="M 349.181023 195.812428 
L 349.181023 168.173371 
" clip-path="url(#p4955c37083)" style="fill: none; stroke: #1f77b4; stroke-width: 1.5"/>
    <path d="M 350.702841 186.719128 
L 350.702841 158.337853 
" clip-path="url(#p4955c37083)" style="fill: none; stroke: #1f77b4; stroke-width: 1.5"/>
    <path d="M 352.224659 180.326402 
L 352.224659 150.658678 
" clip-path="url(#p4955c37083)" style="fill: none; stroke: #1f77b4; stroke-width: 1.5"/>
    <path d="M 353.746477 139.763195 
L 353.746477 106.318139 
" clip-path="url(#p4955c37083)" style="fill: none; stroke: #1f77b4; stroke-width: 1.5"/>
    <path d="M 355.268295 211.976291 
L 355.268295 184.97993 
" clip-path="url(#p4955c37083)" style="fill: none; stroke: #1f77b4; stroke-width: 1.5"/>
    <path d="M 356.790114 179.94418 
L 356.790114 148.970761 
" clip-path="url(#p4955c37083)" style="fill: none; stroke: #1f77b4; stroke-width: 1.5"/>
    <path d="M 358.311932 186.303443 
L 358.311932 156.223107 
" clip-path="url(#p4955c37083)" style="fill: none; stroke: #1f77b4; stroke-width: 1.5"/>
    <path d="M 359.83375 210.876902 
L 359.83375 183.001366 
" clip-path="url(#p4955c37083)" style="fill: none; stroke: #1f77b4; stroke-width: 1.5"/>
    <path d="M 361.355568 221.678234 
L 361.355568 194.401935 
" clip-path="url(#p4955c37083)" style="fill: none; stroke: #1f77b4; stroke-width: 1.5"/>
    <path d="M 362.877386 196.125612 
L 362.877386 166.248727 
" clip-path="url(#p4955c37083)" style="fill: none; stroke: #1f77b4; stroke-width: 1.5"/>
    <path d="M 364.399205 204.447018 
L 364.399205 175.133113 
" clip-path="url(#p4955c37083)" style="fill: none; stroke: #1f77b4; stroke-width: 1.5"/>
    <path d="M 365.921023 204.845755 
L 365.921023 174.51584 
" clip-path="url(#p4955c37083)" style="fill: none; stroke: #1f77b4; stroke-width: 1.5"/>
    <path d="M 367.442841 210.720729 
L 367.442841 180.887737 
" clip-path="url(#p4955c37083)" style="fill: none; stroke: #1f77b4; stroke-width: 1.5"/>
    <path d="M 368.964659 189.423768 
L 368.964659 157.385045 
" clip-path="url(#p4955c37083)" style="fill: none; stroke: #1f77b4; stroke-width: 1.5"/>
   </g>
  </g>
 </g>
 <defs>
  <clipPath id="p4955c37083">
   <rect x="50.14375" y="9.99824" width="334.8" height="221.76"/>
  </clipPath>
 </defs>
</svg>
