<?xml version="1.0" encoding="utf-8" standalone="no"?>
<!DOCTYPE svg PUBLIC "-//W3C//DTD SVG 1.1//EN"
  "http://www.w3.org/Graphics/SVG/1.1/DTD/svg11.dtd">
<svg xmlns:xlink="http://www.w3.org/1999/xlink" width="424.006071pt" height="280.132187pt" viewBox="0 0 424.006071 280.132187" xmlns="http://www.w3.org/2000/svg" version="1.1">
 <metadata>
  <rdf:RDF xmlns:dc="http://purl.org/dc/elements/1.1/" xmlns:cc="http://creativecommons.org/ns#" xmlns:rdf="http://www.w3.org/1999/02/22-rdf-syntax-ns#">
   <cc:Work>
    <dc:type rdf:resource="http://purl.org/dc/dcmitype/StillImage"/>
    <dc:date>2024-06-17T05:51:30.555822</dc:date>
    <dc:format>image/svg+xml</dc:format>
    <dc:creator>
     <cc:Agent>
      <dc:title>Matplotlib v3.9.0, https://matplotlib.org/</dc:title>
     </cc:Agent>
    </dc:creator>
   </cc:Work>
  </rdf:RDF>
 </metadata>
 <defs>
  <style type="text/css">*{stroke-linejoin: round; stroke-linecap: butt}</style>
 </defs>
 <g id="figure_1">
  <g id="patch_1">
   <path d="M 0 280.132187 
L 424.006071 280.132187 
L 424.006071 0 
L 0 0 
z
" style="fill: #ffffff"/>
  </g>
  <g id="axes_1">
   <g id="patch_2">
    <path d="M 51.378125 241.6525 
L 416.806071 241.6525 
L 416.806071 7.2 
L 51.378125 7.2 
z
" style="fill: #ffffff"/>
   </g>
   <g id="matplotlib.axis_1">
    <g id="xtick_1">
     <g id="line2d_1">
      <defs>
       <path id="mfdc71394ee" d="M 0 0 
L 0 3.5 
" style="stroke: #000000; stroke-width: 0.8"/>
      </defs>
      <g>
       <use xlink:href="#mfdc71394ee" x="62.357855" y="241.6525" style="stroke: #000000; stroke-width: 0.8"/>
      </g>
     </g>
     <g id="text_1">
      <!-- 0.0 -->
      <g transform="translate(54.406293 256.250937) scale(0.1 -0.1)">
       <defs>
        <path id="DejaVuSans-30" d="M 2034 4250 
Q 1547 4250 1301 3770 
Q 1056 3291 1056 2328 
Q 1056 1369 1301 889 
Q 1547 409 2034 409 
Q 2525 409 2770 889 
Q 3016 1369 3016 2328 
Q 3016 3291 2770 3770 
Q 2525 4250 2034 4250 
z
M 2034 4750 
Q 2819 4750 3233 4129 
Q 3647 3509 3647 2328 
Q 3647 1150 3233 529 
Q 2819 -91 2034 -91 
Q 1250 -91 836 529 
Q 422 1150 422 2328 
Q 422 3509 836 4129 
Q 1250 4750 2034 4750 
z
" transform="scale(0.015625)"/>
        <path id="DejaVuSans-2e" d="M 684 794 
L 1344 794 
L 1344 0 
L 684 0 
L 684 794 
z
" transform="scale(0.015625)"/>
       </defs>
       <use xlink:href="#DejaVuSans-30"/>
       <use xlink:href="#DejaVuSans-2e" x="63.623047"/>
       <use xlink:href="#DejaVuSans-30" x="95.410156"/>
      </g>
     </g>
    </g>
    <g id="xtick_2">
     <g id="line2d_2">
      <g>
       <use xlink:href="#mfdc71394ee" x="118.664164" y="241.6525" style="stroke: #000000; stroke-width: 0.8"/>
      </g>
     </g>
     <g id="text_2">
      <!-- 0.1 -->
      <g transform="translate(110.712602 256.250937) scale(0.1 -0.1)">
       <defs>
        <path id="DejaVuSans-31" d="M 794 531 
L 1825 531 
L 1825 4091 
L 703 3866 
L 703 4441 
L 1819 4666 
L 2450 4666 
L 2450 531 
L 3481 531 
L 3481 0 
L 794 0 
L 794 531 
z
" transform="scale(0.015625)"/>
       </defs>
       <use xlink:href="#DejaVuSans-30"/>
       <use xlink:href="#DejaVuSans-2e" x="63.623047"/>
       <use xlink:href="#DejaVuSans-31" x="95.410156"/>
      </g>
     </g>
    </g>
    <g id="xtick_3">
     <g id="line2d_3">
      <g>
       <use xlink:href="#mfdc71394ee" x="174.970473" y="241.6525" style="stroke: #000000; stroke-width: 0.8"/>
      </g>
     </g>
     <g id="text_3">
      <!-- 0.2 -->
      <g transform="translate(167.018911 256.250937) scale(0.1 -0.1)">
       <defs>
        <path id="DejaVuSans-32" d="M 1228 531 
L 3431 531 
L 3431 0 
L 469 0 
L 469 531 
Q 828 903 1448 1529 
Q 2069 2156 2228 2338 
Q 2531 2678 2651 2914 
Q 2772 3150 2772 3378 
Q 2772 3750 2511 3984 
Q 2250 4219 1831 4219 
Q 1534 4219 1204 4116 
Q 875 4013 500 3803 
L 500 4441 
Q 881 4594 1212 4672 
Q 1544 4750 1819 4750 
Q 2544 4750 2975 4387 
Q 3406 4025 3406 3419 
Q 3406 3131 3298 2873 
Q 3191 2616 2906 2266 
Q 2828 2175 2409 1742 
Q 1991 1309 1228 531 
z
" transform="scale(0.015625)"/>
       </defs>
       <use xlink:href="#DejaVuSans-30"/>
       <use xlink:href="#DejaVuSans-2e" x="63.623047"/>
       <use xlink:href="#DejaVuSans-32" x="95.410156"/>
      </g>
     </g>
    </g>
    <g id="xtick_4">
     <g id="line2d_4">
      <g>
       <use xlink:href="#mfdc71394ee" x="231.276783" y="241.6525" style="stroke: #000000; stroke-width: 0.8"/>
      </g>
     </g>
     <g id="text_4">
      <!-- 0.3 -->
      <g transform="translate(223.32522 256.250937) scale(0.1 -0.1)">
       <defs>
        <path id="DejaVuSans-33" d="M 2597 2516 
Q 3050 2419 3304 2112 
Q 3559 1806 3559 1356 
Q 3559 666 3084 287 
Q 2609 -91 1734 -91 
Q 1441 -91 1130 -33 
Q 819 25 488 141 
L 488 750 
Q 750 597 1062 519 
Q 1375 441 1716 441 
Q 2309 441 2620 675 
Q 2931 909 2931 1356 
Q 2931 1769 2642 2001 
Q 2353 2234 1838 2234 
L 1294 2234 
L 1294 2753 
L 1863 2753 
Q 2328 2753 2575 2939 
Q 2822 3125 2822 3475 
Q 2822 3834 2567 4026 
Q 2313 4219 1838 4219 
Q 1578 4219 1281 4162 
Q 984 4106 628 3988 
L 628 4550 
Q 988 4650 1302 4700 
Q 1616 4750 1894 4750 
Q 2613 4750 3031 4423 
Q 3450 4097 3450 3541 
Q 3450 3153 3228 2886 
Q 3006 2619 2597 2516 
z
" transform="scale(0.015625)"/>
       </defs>
       <use xlink:href="#DejaVuSans-30"/>
       <use xlink:href="#DejaVuSans-2e" x="63.623047"/>
       <use xlink:href="#DejaVuSans-33" x="95.410156"/>
      </g>
     </g>
    </g>
    <g id="xtick_5">
     <g id="line2d_5">
      <g>
       <use xlink:href="#mfdc71394ee" x="287.583092" y="241.6525" style="stroke: #000000; stroke-width: 0.8"/>
      </g>
     </g>
     <g id="text_5">
      <!-- 0.4 -->
      <g transform="translate(279.631529 256.250937) scale(0.1 -0.1)">
       <defs>
        <path id="DejaVuSans-34" d="M 2419 4116 
L 825 1625 
L 2419 1625 
L 2419 4116 
z
M 2253 4666 
L 3047 4666 
L 3047 1625 
L 3713 1625 
L 3713 1100 
L 3047 1100 
L 3047 0 
L 2419 0 
L 2419 1100 
L 313 1100 
L 313 1709 
L 2253 4666 
z
" transform="scale(0.015625)"/>
       </defs>
       <use xlink:href="#DejaVuSans-30"/>
       <use xlink:href="#DejaVuSans-2e" x="63.623047"/>
       <use xlink:href="#DejaVuSans-34" x="95.410156"/>
      </g>
     </g>
    </g>
    <g id="xtick_6">
     <g id="line2d_6">
      <g>
       <use xlink:href="#mfdc71394ee" x="343.889401" y="241.6525" style="stroke: #000000; stroke-width: 0.8"/>
      </g>
     </g>
     <g id="text_6">
      <!-- 0.5 -->
      <g transform="translate(335.937838 256.250937) scale(0.1 -0.1)">
       <defs>
        <path id="DejaVuSans-35" d="M 691 4666 
L 3169 4666 
L 3169 4134 
L 1269 4134 
L 1269 2991 
Q 1406 3038 1543 3061 
Q 1681 3084 1819 3084 
Q 2600 3084 3056 2656 
Q 3513 2228 3513 1497 
Q 3513 744 3044 326 
Q 2575 -91 1722 -91 
Q 1428 -91 1123 -41 
Q 819 9 494 109 
L 494 744 
Q 775 591 1075 516 
Q 1375 441 1709 441 
Q 2250 441 2565 725 
Q 2881 1009 2881 1497 
Q 2881 1984 2565 2268 
Q 2250 2553 1709 2553 
Q 1456 2553 1204 2497 
Q 953 2441 691 2322 
L 691 4666 
z
" transform="scale(0.015625)"/>
       </defs>
       <use xlink:href="#DejaVuSans-30"/>
       <use xlink:href="#DejaVuSans-2e" x="63.623047"/>
       <use xlink:href="#DejaVuSans-35" x="95.410156"/>
      </g>
     </g>
    </g>
    <g id="xtick_7">
     <g id="line2d_7">
      <g>
       <use xlink:href="#mfdc71394ee" x="400.19571" y="241.6525" style="stroke: #000000; stroke-width: 0.8"/>
      </g>
     </g>
     <g id="text_7">
      <!-- 0.6 -->
      <g transform="translate(392.244147 256.250937) scale(0.1 -0.1)">
       <defs>
        <path id="DejaVuSans-36" d="M 2113 2584 
Q 1688 2584 1439 2293 
Q 1191 2003 1191 1497 
Q 1191 994 1439 701 
Q 1688 409 2113 409 
Q 2538 409 2786 701 
Q 3034 994 3034 1497 
Q 3034 2003 2786 2293 
Q 2538 2584 2113 2584 
z
M 3366 4563 
L 3366 3988 
Q 3128 4100 2886 4159 
Q 2644 4219 2406 4219 
Q 1781 4219 1451 3797 
Q 1122 3375 1075 2522 
Q 1259 2794 1537 2939 
Q 1816 3084 2150 3084 
Q 2853 3084 3261 2657 
Q 3669 2231 3669 1497 
Q 3669 778 3244 343 
Q 2819 -91 2113 -91 
Q 1303 -91 875 529 
Q 447 1150 447 2328 
Q 447 3434 972 4092 
Q 1497 4750 2381 4750 
Q 2619 4750 2861 4703 
Q 3103 4656 3366 4563 
z
" transform="scale(0.015625)"/>
       </defs>
       <use xlink:href="#DejaVuSans-30"/>
       <use xlink:href="#DejaVuSans-2e" x="63.623047"/>
       <use xlink:href="#DejaVuSans-36" x="95.410156"/>
      </g>
     </g>
    </g>
    <g id="text_8">
     <!-- Q [1/Å] -->
     <g transform="translate(216.379598 270.8525) scale(0.1 -0.1)">
      <defs>
       <path id="DejaVuSans-51" d="M 2522 4238 
Q 1834 4238 1429 3725 
Q 1025 3213 1025 2328 
Q 1025 1447 1429 934 
Q 1834 422 2522 422 
Q 3209 422 3611 934 
Q 4013 1447 4013 2328 
Q 4013 3213 3611 3725 
Q 3209 4238 2522 4238 
z
M 3406 84 
L 4238 -825 
L 3475 -825 
L 2784 -78 
Q 2681 -84 2626 -87 
Q 2572 -91 2522 -91 
Q 1538 -91 948 567 
Q 359 1225 359 2328 
Q 359 3434 948 4092 
Q 1538 4750 2522 4750 
Q 3503 4750 4090 4092 
Q 4678 3434 4678 2328 
Q 4678 1516 4351 937 
Q 4025 359 3406 84 
z
" transform="scale(0.015625)"/>
       <path id="DejaVuSans-20" transform="scale(0.015625)"/>
       <path id="DejaVuSans-5b" d="M 550 4863 
L 1875 4863 
L 1875 4416 
L 1125 4416 
L 1125 -397 
L 1875 -397 
L 1875 -844 
L 550 -844 
L 550 4863 
z
" transform="scale(0.015625)"/>
       <path id="DejaVuSans-2f" d="M 1625 4666 
L 2156 4666 
L 531 -594 
L 0 -594 
L 1625 4666 
z
" transform="scale(0.015625)"/>
       <path id="DejaVuSans-c5" d="M 2663 5081 
Q 2663 5278 2523 5417 
Q 2384 5556 2188 5556 
Q 1988 5556 1852 5420 
Q 1716 5284 1716 5081 
Q 1716 4884 1853 4746 
Q 1991 4609 2188 4609 
Q 2384 4609 2523 4746 
Q 2663 4884 2663 5081 
z
M 2188 4044 
L 1338 1722 
L 3041 1722 
L 2188 4044 
z
M 1716 4366 
Q 1525 4494 1428 4673 
Q 1331 4853 1331 5081 
Q 1331 5441 1579 5691 
Q 1828 5941 2188 5941 
Q 2544 5941 2795 5689 
Q 3047 5438 3047 5081 
Q 3047 4863 2948 4678 
Q 2850 4494 2663 4366 
L 4325 0 
L 3669 0 
L 3244 1197 
L 1141 1197 
L 716 0 
L 50 0 
L 1716 4366 
z
" transform="scale(0.015625)"/>
       <path id="DejaVuSans-5d" d="M 1947 4863 
L 1947 -844 
L 622 -844 
L 622 -397 
L 1369 -397 
L 1369 4416 
L 622 4416 
L 622 4863 
L 1947 4863 
z
" transform="scale(0.015625)"/>
      </defs>
      <use xlink:href="#DejaVuSans-51"/>
      <use xlink:href="#DejaVuSans-20" x="78.710938"/>
      <use xlink:href="#DejaVuSans-5b" x="110.498047"/>
      <use xlink:href="#DejaVuSans-31" x="149.511719"/>
      <use xlink:href="#DejaVuSans-2f" x="213.134766"/>
      <use xlink:href="#DejaVuSans-c5" x="246.826172"/>
      <use xlink:href="#DejaVuSans-5d" x="315.234375"/>
     </g>
    </g>
   </g>
   <g id="matplotlib.axis_2">
    <g id="ytick_1">
     <g id="line2d_8">
      <defs>
       <path id="md4d55c4353" d="M 0 0 
L -3.5 0 
" style="stroke: #000000; stroke-width: 0.8"/>
      </defs>
      <g>
       <use xlink:href="#md4d55c4353" x="51.378125" y="219.742836" style="stroke: #000000; stroke-width: 0.8"/>
      </g>
     </g>
     <g id="text_9">
      <!-- $\mathdefault{10^{-1}}$ -->
      <g transform="translate(20.878125 223.542055) scale(0.1 -0.1)">
       <defs>
        <path id="DejaVuSans-2212" d="M 678 2272 
L 4684 2272 
L 4684 1741 
L 678 1741 
L 678 2272 
z
" transform="scale(0.015625)"/>
       </defs>
       <use xlink:href="#DejaVuSans-31" transform="translate(0 0.684375)"/>
       <use xlink:href="#DejaVuSans-30" transform="translate(63.623047 0.684375)"/>
       <use xlink:href="#DejaVuSans-2212" transform="translate(128.203125 38.965625) scale(0.7)"/>
       <use xlink:href="#DejaVuSans-31" transform="translate(186.855469 38.965625) scale(0.7)"/>
      </g>
     </g>
    </g>
    <g id="ytick_2">
     <g id="line2d_9">
      <g>
       <use xlink:href="#md4d55c4353" x="51.378125" y="158.382334" style="stroke: #000000; stroke-width: 0.8"/>
      </g>
     </g>
     <g id="text_10">
      <!-- $\mathdefault{10^{0}}$ -->
      <g transform="translate(26.778125 162.181553) scale(0.1 -0.1)">
       <use xlink:href="#DejaVuSans-31" transform="translate(0 0.765625)"/>
       <use xlink:href="#DejaVuSans-30" transform="translate(63.623047 0.765625)"/>
       <use xlink:href="#DejaVuSans-30" transform="translate(128.203125 39.046875) scale(0.7)"/>
      </g>
     </g>
    </g>
    <g id="ytick_3">
     <g id="line2d_10">
      <g>
       <use xlink:href="#md4d55c4353" x="51.378125" y="97.021832" style="stroke: #000000; stroke-width: 0.8"/>
      </g>
     </g>
     <g id="text_11">
      <!-- $\mathdefault{10^{1}}$ -->
      <g transform="translate(26.778125 100.821051) scale(0.1 -0.1)">
       <use xlink:href="#DejaVuSans-31" transform="translate(0 0.684375)"/>
       <use xlink:href="#DejaVuSans-30" transform="translate(63.623047 0.684375)"/>
       <use xlink:href="#DejaVuSans-31" transform="translate(128.203125 38.965625) scale(0.7)"/>
      </g>
     </g>
    </g>
    <g id="ytick_4">
     <g id="line2d_11">
      <g>
       <use xlink:href="#md4d55c4353" x="51.378125" y="35.66133" style="stroke: #000000; stroke-width: 0.8"/>
      </g>
     </g>
     <g id="text_12">
      <!-- $\mathdefault{10^{2}}$ -->
      <g transform="translate(26.778125 39.460549) scale(0.1 -0.1)">
       <use xlink:href="#DejaVuSans-31" transform="translate(0 0.765625)"/>
       <use xlink:href="#DejaVuSans-30" transform="translate(63.623047 0.765625)"/>
       <use xlink:href="#DejaVuSans-32" transform="translate(128.203125 39.046875) scale(0.7)"/>
      </g>
     </g>
    </g>
    <g id="ytick_5">
     <g id="line2d_12">
      <defs>
       <path id="mf1f6143321" d="M 0 0 
L -2 0 
" style="stroke: #000000; stroke-width: 0.6"/>
      </defs>
      <g>
       <use xlink:href="#mf1f6143321" x="51.378125" y="238.214188" style="stroke: #000000; stroke-width: 0.6"/>
      </g>
     </g>
    </g>
    <g id="ytick_6">
     <g id="line2d_13">
      <g>
       <use xlink:href="#mf1f6143321" x="51.378125" y="233.355587" style="stroke: #000000; stroke-width: 0.6"/>
      </g>
     </g>
    </g>
    <g id="ytick_7">
     <g id="line2d_14">
      <g>
       <use xlink:href="#mf1f6143321" x="51.378125" y="229.247698" style="stroke: #000000; stroke-width: 0.6"/>
      </g>
     </g>
    </g>
    <g id="ytick_8">
     <g id="line2d_15">
      <g>
       <use xlink:href="#mf1f6143321" x="51.378125" y="225.689283" style="stroke: #000000; stroke-width: 0.6"/>
      </g>
     </g>
    </g>
    <g id="ytick_9">
     <g id="line2d_16">
      <g>
       <use xlink:href="#mf1f6143321" x="51.378125" y="222.550538" style="stroke: #000000; stroke-width: 0.6"/>
      </g>
     </g>
    </g>
    <g id="ytick_10">
     <g id="line2d_17">
      <g>
       <use xlink:href="#mf1f6143321" x="51.378125" y="201.271484" style="stroke: #000000; stroke-width: 0.6"/>
      </g>
     </g>
    </g>
    <g id="ytick_11">
     <g id="line2d_18">
      <g>
       <use xlink:href="#mf1f6143321" x="51.378125" y="190.466436" style="stroke: #000000; stroke-width: 0.6"/>
      </g>
     </g>
    </g>
    <g id="ytick_12">
     <g id="line2d_19">
      <g>
       <use xlink:href="#mf1f6143321" x="51.378125" y="182.800133" style="stroke: #000000; stroke-width: 0.6"/>
      </g>
     </g>
    </g>
    <g id="ytick_13">
     <g id="line2d_20">
      <g>
       <use xlink:href="#mf1f6143321" x="51.378125" y="176.853686" style="stroke: #000000; stroke-width: 0.6"/>
      </g>
     </g>
    </g>
    <g id="ytick_14">
     <g id="line2d_21">
      <g>
       <use xlink:href="#mf1f6143321" x="51.378125" y="171.995085" style="stroke: #000000; stroke-width: 0.6"/>
      </g>
     </g>
    </g>
    <g id="ytick_15">
     <g id="line2d_22">
      <g>
       <use xlink:href="#mf1f6143321" x="51.378125" y="167.887196" style="stroke: #000000; stroke-width: 0.6"/>
      </g>
     </g>
    </g>
    <g id="ytick_16">
     <g id="line2d_23">
      <g>
       <use xlink:href="#mf1f6143321" x="51.378125" y="164.328781" style="stroke: #000000; stroke-width: 0.6"/>
      </g>
     </g>
    </g>
    <g id="ytick_17">
     <g id="line2d_24">
      <g>
       <use xlink:href="#mf1f6143321" x="51.378125" y="161.190037" style="stroke: #000000; stroke-width: 0.6"/>
      </g>
     </g>
    </g>
    <g id="ytick_18">
     <g id="line2d_25">
      <g>
       <use xlink:href="#mf1f6143321" x="51.378125" y="139.910982" style="stroke: #000000; stroke-width: 0.6"/>
      </g>
     </g>
    </g>
    <g id="ytick_19">
     <g id="line2d_26">
      <g>
       <use xlink:href="#mf1f6143321" x="51.378125" y="129.105934" style="stroke: #000000; stroke-width: 0.6"/>
      </g>
     </g>
    </g>
    <g id="ytick_20">
     <g id="line2d_27">
      <g>
       <use xlink:href="#mf1f6143321" x="51.378125" y="121.439631" style="stroke: #000000; stroke-width: 0.6"/>
      </g>
     </g>
    </g>
    <g id="ytick_21">
     <g id="line2d_28">
      <g>
       <use xlink:href="#mf1f6143321" x="51.378125" y="115.493184" style="stroke: #000000; stroke-width: 0.6"/>
      </g>
     </g>
    </g>
    <g id="ytick_22">
     <g id="line2d_29">
      <g>
       <use xlink:href="#mf1f6143321" x="51.378125" y="110.634583" style="stroke: #000000; stroke-width: 0.6"/>
      </g>
     </g>
    </g>
    <g id="ytick_23">
     <g id="line2d_30">
      <g>
       <use xlink:href="#mf1f6143321" x="51.378125" y="106.526694" style="stroke: #000000; stroke-width: 0.6"/>
      </g>
     </g>
    </g>
    <g id="ytick_24">
     <g id="line2d_31">
      <g>
       <use xlink:href="#mf1f6143321" x="51.378125" y="102.968279" style="stroke: #000000; stroke-width: 0.6"/>
      </g>
     </g>
    </g>
    <g id="ytick_25">
     <g id="line2d_32">
      <g>
       <use xlink:href="#mf1f6143321" x="51.378125" y="99.829535" style="stroke: #000000; stroke-width: 0.6"/>
      </g>
     </g>
    </g>
    <g id="ytick_26">
     <g id="line2d_33">
      <g>
       <use xlink:href="#mf1f6143321" x="51.378125" y="78.55048" style="stroke: #000000; stroke-width: 0.6"/>
      </g>
     </g>
    </g>
    <g id="ytick_27">
     <g id="line2d_34">
      <g>
       <use xlink:href="#mf1f6143321" x="51.378125" y="67.745432" style="stroke: #000000; stroke-width: 0.6"/>
      </g>
     </g>
    </g>
    <g id="ytick_28">
     <g id="line2d_35">
      <g>
       <use xlink:href="#mf1f6143321" x="51.378125" y="60.079129" style="stroke: #000000; stroke-width: 0.6"/>
      </g>
     </g>
    </g>
    <g id="ytick_29">
     <g id="line2d_36">
      <g>
       <use xlink:href="#mf1f6143321" x="51.378125" y="54.132682" style="stroke: #000000; stroke-width: 0.6"/>
      </g>
     </g>
    </g>
    <g id="ytick_30">
     <g id="line2d_37">
      <g>
       <use xlink:href="#mf1f6143321" x="51.378125" y="49.274081" style="stroke: #000000; stroke-width: 0.6"/>
      </g>
     </g>
    </g>
    <g id="ytick_31">
     <g id="line2d_38">
      <g>
       <use xlink:href="#mf1f6143321" x="51.378125" y="45.166192" style="stroke: #000000; stroke-width: 0.6"/>
      </g>
     </g>
    </g>
    <g id="ytick_32">
     <g id="line2d_39">
      <g>
       <use xlink:href="#mf1f6143321" x="51.378125" y="41.607777" style="stroke: #000000; stroke-width: 0.6"/>
      </g>
     </g>
    </g>
    <g id="ytick_33">
     <g id="line2d_40">
      <g>
       <use xlink:href="#mf1f6143321" x="51.378125" y="38.469033" style="stroke: #000000; stroke-width: 0.6"/>
      </g>
     </g>
    </g>
    <g id="ytick_34">
     <g id="line2d_41">
      <g>
       <use xlink:href="#mf1f6143321" x="51.378125" y="17.189978" style="stroke: #000000; stroke-width: 0.6"/>
      </g>
     </g>
    </g>
    <g id="text_13">
     <!-- [dimensionless] -->
     <g transform="translate(14.798438 163.903594) rotate(-90) scale(0.1 -0.1)">
      <defs>
       <path id="DejaVuSans-64" d="M 2906 2969 
L 2906 4863 
L 3481 4863 
L 3481 0 
L 2906 0 
L 2906 525 
Q 2725 213 2448 61 
Q 2172 -91 1784 -91 
Q 1150 -91 751 415 
Q 353 922 353 1747 
Q 353 2572 751 3078 
Q 1150 3584 1784 3584 
Q 2172 3584 2448 3432 
Q 2725 3281 2906 2969 
z
M 947 1747 
Q 947 1113 1208 752 
Q 1469 391 1925 391 
Q 2381 391 2643 752 
Q 2906 1113 2906 1747 
Q 2906 2381 2643 2742 
Q 2381 3103 1925 3103 
Q 1469 3103 1208 2742 
Q 947 2381 947 1747 
z
" transform="scale(0.015625)"/>
       <path id="DejaVuSans-69" d="M 603 3500 
L 1178 3500 
L 1178 0 
L 603 0 
L 603 3500 
z
M 603 4863 
L 1178 4863 
L 1178 4134 
L 603 4134 
L 603 4863 
z
" transform="scale(0.015625)"/>
       <path id="DejaVuSans-6d" d="M 3328 2828 
Q 3544 3216 3844 3400 
Q 4144 3584 4550 3584 
Q 5097 3584 5394 3201 
Q 5691 2819 5691 2113 
L 5691 0 
L 5113 0 
L 5113 2094 
Q 5113 2597 4934 2840 
Q 4756 3084 4391 3084 
Q 3944 3084 3684 2787 
Q 3425 2491 3425 1978 
L 3425 0 
L 2847 0 
L 2847 2094 
Q 2847 2600 2669 2842 
Q 2491 3084 2119 3084 
Q 1678 3084 1418 2786 
Q 1159 2488 1159 1978 
L 1159 0 
L 581 0 
L 581 3500 
L 1159 3500 
L 1159 2956 
Q 1356 3278 1631 3431 
Q 1906 3584 2284 3584 
Q 2666 3584 2933 3390 
Q 3200 3197 3328 2828 
z
" transform="scale(0.015625)"/>
       <path id="DejaVuSans-65" d="M 3597 1894 
L 3597 1613 
L 953 1613 
Q 991 1019 1311 708 
Q 1631 397 2203 397 
Q 2534 397 2845 478 
Q 3156 559 3463 722 
L 3463 178 
Q 3153 47 2828 -22 
Q 2503 -91 2169 -91 
Q 1331 -91 842 396 
Q 353 884 353 1716 
Q 353 2575 817 3079 
Q 1281 3584 2069 3584 
Q 2775 3584 3186 3129 
Q 3597 2675 3597 1894 
z
M 3022 2063 
Q 3016 2534 2758 2815 
Q 2500 3097 2075 3097 
Q 1594 3097 1305 2825 
Q 1016 2553 972 2059 
L 3022 2063 
z
" transform="scale(0.015625)"/>
       <path id="DejaVuSans-6e" d="M 3513 2113 
L 3513 0 
L 2938 0 
L 2938 2094 
Q 2938 2591 2744 2837 
Q 2550 3084 2163 3084 
Q 1697 3084 1428 2787 
Q 1159 2491 1159 1978 
L 1159 0 
L 581 0 
L 581 3500 
L 1159 3500 
L 1159 2956 
Q 1366 3272 1645 3428 
Q 1925 3584 2291 3584 
Q 2894 3584 3203 3211 
Q 3513 2838 3513 2113 
z
" transform="scale(0.015625)"/>
       <path id="DejaVuSans-73" d="M 2834 3397 
L 2834 2853 
Q 2591 2978 2328 3040 
Q 2066 3103 1784 3103 
Q 1356 3103 1142 2972 
Q 928 2841 928 2578 
Q 928 2378 1081 2264 
Q 1234 2150 1697 2047 
L 1894 2003 
Q 2506 1872 2764 1633 
Q 3022 1394 3022 966 
Q 3022 478 2636 193 
Q 2250 -91 1575 -91 
Q 1294 -91 989 -36 
Q 684 19 347 128 
L 347 722 
Q 666 556 975 473 
Q 1284 391 1588 391 
Q 1994 391 2212 530 
Q 2431 669 2431 922 
Q 2431 1156 2273 1281 
Q 2116 1406 1581 1522 
L 1381 1569 
Q 847 1681 609 1914 
Q 372 2147 372 2553 
Q 372 3047 722 3315 
Q 1072 3584 1716 3584 
Q 2034 3584 2315 3537 
Q 2597 3491 2834 3397 
z
" transform="scale(0.015625)"/>
       <path id="DejaVuSans-6f" d="M 1959 3097 
Q 1497 3097 1228 2736 
Q 959 2375 959 1747 
Q 959 1119 1226 758 
Q 1494 397 1959 397 
Q 2419 397 2687 759 
Q 2956 1122 2956 1747 
Q 2956 2369 2687 2733 
Q 2419 3097 1959 3097 
z
M 1959 3584 
Q 2709 3584 3137 3096 
Q 3566 2609 3566 1747 
Q 3566 888 3137 398 
Q 2709 -91 1959 -91 
Q 1206 -91 779 398 
Q 353 888 353 1747 
Q 353 2609 779 3096 
Q 1206 3584 1959 3584 
z
" transform="scale(0.015625)"/>
       <path id="DejaVuSans-6c" d="M 603 4863 
L 1178 4863 
L 1178 0 
L 603 0 
L 603 4863 
z
" transform="scale(0.015625)"/>
      </defs>
      <use xlink:href="#DejaVuSans-5b"/>
      <use xlink:href="#DejaVuSans-64" x="39.013672"/>
      <use xlink:href="#DejaVuSans-69" x="102.490234"/>
      <use xlink:href="#DejaVuSans-6d" x="130.273438"/>
      <use xlink:href="#DejaVuSans-65" x="227.685547"/>
      <use xlink:href="#DejaVuSans-6e" x="289.208984"/>
      <use xlink:href="#DejaVuSans-73" x="352.587891"/>
      <use xlink:href="#DejaVuSans-69" x="404.6875"/>
      <use xlink:href="#DejaVuSans-6f" x="432.470703"/>
      <use xlink:href="#DejaVuSans-6e" x="493.652344"/>
      <use xlink:href="#DejaVuSans-6c" x="557.03125"/>
      <use xlink:href="#DejaVuSans-65" x="584.814453"/>
      <use xlink:href="#DejaVuSans-73" x="646.337891"/>
      <use xlink:href="#DejaVuSans-73" x="698.4375"/>
      <use xlink:href="#DejaVuSans-5d" x="750.537109"/>
     </g>
    </g>
   </g>
   <g id="patch_3">
    <path d="M 51.378125 241.6525 
L 51.378125 7.2 
" style="fill: none; stroke: #000000; stroke-width: 0.8; stroke-linejoin: miter; stroke-linecap: square"/>
   </g>
   <g id="patch_4">
    <path d="M 416.806071 241.6525 
L 416.806071 7.2 
" style="fill: none; stroke: #000000; stroke-width: 0.8; stroke-linejoin: miter; stroke-linecap: square"/>
   </g>
   <g id="patch_5">
    <path d="M 51.378125 241.6525 
L 416.806071 241.6525 
" style="fill: none; stroke: #000000; stroke-width: 0.8; stroke-linejoin: miter; stroke-linecap: square"/>
   </g>
   <g id="patch_6">
    <path d="M 51.378125 7.2 
L 416.806071 7.2 
" style="fill: none; stroke: #000000; stroke-width: 0.8; stroke-linejoin: miter; stroke-linecap: square"/>
   </g>
   <g id="legend_1">
    <g id="patch_7">
     <path d="M 312.017009 44.834375 
L 409.806071 44.834375 
Q 411.806071 44.834375 411.806071 42.834375 
L 411.806071 14.2 
Q 411.806071 12.2 409.806071 12.2 
L 312.017009 12.2 
Q 310.017009 12.2 310.017009 14.2 
L 310.017009 42.834375 
Q 310.017009 44.834375 312.017009 44.834375 
z
" style="fill: #ffffff; opacity: 0.8; stroke: #cccccc; stroke-linejoin: miter"/>
    </g>
    <g id="line2d_42">
     <path d="M 314.017009 20.298437 
L 314.017009 20.298437 
L 324.017009 20.298437 
L 324.017009 20.298437 
L 334.017009 20.298437 
" style="fill: none; stroke: #1f77b4; stroke-width: 1.5; stroke-linecap: square"/>
    </g>
    <g id="text_14">
     <!-- upper_bound -->
     <g transform="translate(342.017009 23.798437) scale(0.1 -0.1)">
      <defs>
       <path id="DejaVuSans-75" d="M 544 1381 
L 544 3500 
L 1119 3500 
L 1119 1403 
Q 1119 906 1312 657 
Q 1506 409 1894 409 
Q 2359 409 2629 706 
Q 2900 1003 2900 1516 
L 2900 3500 
L 3475 3500 
L 3475 0 
L 2900 0 
L 2900 538 
Q 2691 219 2414 64 
Q 2138 -91 1772 -91 
Q 1169 -91 856 284 
Q 544 659 544 1381 
z
M 1991 3584 
L 1991 3584 
z
" transform="scale(0.015625)"/>
       <path id="DejaVuSans-70" d="M 1159 525 
L 1159 -1331 
L 581 -1331 
L 581 3500 
L 1159 3500 
L 1159 2969 
Q 1341 3281 1617 3432 
Q 1894 3584 2278 3584 
Q 2916 3584 3314 3078 
Q 3713 2572 3713 1747 
Q 3713 922 3314 415 
Q 2916 -91 2278 -91 
Q 1894 -91 1617 61 
Q 1341 213 1159 525 
z
M 3116 1747 
Q 3116 2381 2855 2742 
Q 2594 3103 2138 3103 
Q 1681 3103 1420 2742 
Q 1159 2381 1159 1747 
Q 1159 1113 1420 752 
Q 1681 391 2138 391 
Q 2594 391 2855 752 
Q 3116 1113 3116 1747 
z
" transform="scale(0.015625)"/>
       <path id="DejaVuSans-72" d="M 2631 2963 
Q 2534 3019 2420 3045 
Q 2306 3072 2169 3072 
Q 1681 3072 1420 2755 
Q 1159 2438 1159 1844 
L 1159 0 
L 581 0 
L 581 3500 
L 1159 3500 
L 1159 2956 
Q 1341 3275 1631 3429 
Q 1922 3584 2338 3584 
Q 2397 3584 2469 3576 
Q 2541 3569 2628 3553 
L 2631 2963 
z
" transform="scale(0.015625)"/>
       <path id="DejaVuSans-5f" d="M 3263 -1063 
L 3263 -1509 
L -63 -1509 
L -63 -1063 
L 3263 -1063 
z
" transform="scale(0.015625)"/>
       <path id="DejaVuSans-62" d="M 3116 1747 
Q 3116 2381 2855 2742 
Q 2594 3103 2138 3103 
Q 1681 3103 1420 2742 
Q 1159 2381 1159 1747 
Q 1159 1113 1420 752 
Q 1681 391 2138 391 
Q 2594 391 2855 752 
Q 3116 1113 3116 1747 
z
M 1159 2969 
Q 1341 3281 1617 3432 
Q 1894 3584 2278 3584 
Q 2916 3584 3314 3078 
Q 3713 2572 3713 1747 
Q 3713 922 3314 415 
Q 2916 -91 2278 -91 
Q 1894 -91 1617 61 
Q 1341 213 1159 525 
L 1159 0 
L 581 0 
L 581 4863 
L 1159 4863 
L 1159 2969 
z
" transform="scale(0.015625)"/>
      </defs>
      <use xlink:href="#DejaVuSans-75"/>
      <use xlink:href="#DejaVuSans-70" x="63.378906"/>
      <use xlink:href="#DejaVuSans-70" x="126.855469"/>
      <use xlink:href="#DejaVuSans-65" x="190.332031"/>
      <use xlink:href="#DejaVuSans-72" x="251.855469"/>
      <use xlink:href="#DejaVuSans-5f" x="292.96875"/>
      <use xlink:href="#DejaVuSans-62" x="342.96875"/>
      <use xlink:href="#DejaVuSans-6f" x="406.445312"/>
      <use xlink:href="#DejaVuSans-75" x="467.626953"/>
      <use xlink:href="#DejaVuSans-6e" x="531.005859"/>
      <use xlink:href="#DejaVuSans-64" x="594.384766"/>
     </g>
    </g>
    <g id="line2d_43">
     <path d="M 314.017009 35.254687 
L 314.017009 35.254687 
L 324.017009 35.254687 
L 324.017009 35.254687 
L 334.017009 35.254687 
" style="fill: none; stroke: #ff7f0e; stroke-width: 1.5; stroke-linecap: square"/>
    </g>
    <g id="text_15">
     <!-- dropped -->
     <g transform="translate(342.017009 38.754687) scale(0.1 -0.1)">
      <use xlink:href="#DejaVuSans-64"/>
      <use xlink:href="#DejaVuSans-72" x="63.476562"/>
      <use xlink:href="#DejaVuSans-6f" x="102.339844"/>
      <use xlink:href="#DejaVuSans-70" x="163.521484"/>
      <use xlink:href="#DejaVuSans-70" x="226.998047"/>
      <use xlink:href="#DejaVuSans-65" x="290.474609"/>
      <use xlink:href="#DejaVuSans-64" x="351.998047"/>
     </g>
    </g>
   </g>
   <g id="line2d_44">
    <path d="M 67.988486 45.018241 
L 70.361395 45.018241 
L 70.361395 44.247215 
L 72.734304 44.247215 
L 72.734304 43.296052 
L 75.107212 43.296052 
L 75.107212 42.136576 
L 77.480121 42.136576 
L 77.480121 40.555188 
L 79.85303 40.555188 
L 79.85303 39.301399 
L 82.225939 39.301399 
L 82.225939 37.505585 
L 84.598847 37.505585 
L 84.598847 35.728078 
L 86.971756 35.728078 
L 86.971756 33.170323 
L 89.344665 33.170323 
L 89.344665 30.640638 
L 91.717574 30.640638 
L 91.717574 27.921613 
L 94.090482 27.921613 
L 94.090482 24.940546 
L 96.463391 24.940546 
L 96.463391 22.424115 
L 98.8363 22.424115 
L 98.8363 19.87492 
L 101.209209 19.87492 
L 101.209209 18.304035 
L 103.582117 18.304035 
L 103.582117 18.004533 
L 105.955026 18.004533 
L 105.955026 19.206659 
L 108.327935 19.206659 
L 108.327935 22.182714 
L 110.700844 22.182714 
L 110.700844 26.80163 
L 113.073752 26.80163 
L 113.073752 32.581124 
L 115.446661 32.581124 
L 115.446661 39.046158 
L 117.81957 39.046158 
L 117.81957 45.785521 
L 120.192478 45.785521 
L 120.192478 52.507875 
L 122.565387 52.507875 
L 122.565387 58.942125 
L 124.938296 58.942125 
L 124.938296 65.28691 
L 127.311205 65.28691 
L 127.311205 71.204941 
L 129.684113 71.204941 
L 129.684113 76.342369 
L 132.057022 76.342369 
L 132.057022 81.460002 
L 134.429931 81.460002 
L 134.429931 85.79702 
L 136.80284 85.79702 
L 136.80284 89.590949 
L 139.175748 89.590949 
L 139.175748 93.137379 
L 141.548657 93.137379 
L 141.548657 96.063209 
L 143.921566 96.063209 
L 143.921566 98.504087 
L 146.294475 98.504087 
L 146.294475 100.620027 
L 148.667383 100.620027 
L 148.667383 101.903637 
L 151.040292 101.903637 
L 151.040292 102.718166 
L 153.413201 102.718166 
L 153.413201 103.621918 
L 155.78611 103.621918 
L 155.78611 104.539607 
L 158.159018 104.539607 
L 158.159018 104.698947 
L 160.531927 104.698947 
L 160.531927 105.040954 
L 162.904836 105.040954 
L 162.904836 105.348678 
L 165.277745 105.348678 
L 165.277745 104.786583 
L 167.650653 104.786583 
L 167.650653 105.331308 
L 170.023562 105.331308 
L 170.023562 105.527151 
L 172.396471 105.527151 
L 172.396471 105.72172 
L 174.76938 105.72172 
L 174.76938 105.947099 
L 177.142288 105.947099 
L 177.142288 105.667818 
L 179.515197 105.667818 
L 179.515197 106.329784 
L 181.888106 106.329784 
L 181.888106 106.965105 
L 184.261014 106.965105 
L 184.261014 106.43889 
L 186.633923 106.43889 
L 186.633923 106.872855 
L 191.379741 106.868285 
L 191.379741 107.135613 
L 193.752649 107.135613 
L 193.752649 106.556563 
L 196.125558 106.556563 
L 196.125558 106.998761 
L 198.498467 106.998761 
L 198.498467 107.642751 
L 200.871376 107.642751 
L 200.871376 108.035693 
L 203.244284 108.035693 
L 203.244284 107.868608 
L 205.617193 107.868608 
L 205.617193 107.256197 
L 207.990102 107.256197 
L 207.990102 108.246982 
L 210.363011 108.246982 
L 210.363011 108.51519 
L 215.108828 108.617972 
L 215.108828 108.383187 
L 217.481737 108.383187 
L 217.481737 108.084824 
L 219.854646 108.084824 
L 219.854646 109.004734 
L 222.227554 109.004734 
L 222.227554 108.459982 
L 226.973372 108.444879 
L 226.973372 109.358508 
L 229.346281 109.358508 
L 229.346281 109.019034 
L 231.719189 109.019034 
L 231.719189 108.636972 
L 234.092098 108.636972 
L 234.092098 109.421409 
L 236.465007 109.421409 
L 236.465007 108.366774 
L 238.837916 108.366774 
L 238.837916 107.728624 
L 241.210824 107.728624 
L 241.210824 108.427572 
L 243.583733 108.427572 
L 243.583733 108.55237 
L 245.956642 108.55237 
L 245.956642 109.562533 
L 248.32955 109.562533 
L 248.32955 108.684102 
L 250.702459 108.684102 
L 250.702459 109.220462 
L 253.075368 109.220462 
L 253.075368 108.374298 
L 255.448277 108.374298 
L 255.448277 107.526694 
L 257.821185 107.526694 
L 257.821185 108.842008 
L 260.194094 108.842008 
L 260.194094 108.705325 
L 262.567003 108.705325 
L 262.567003 107.963072 
L 264.939912 107.963072 
L 264.939912 109.292506 
L 267.31282 109.292506 
L 267.31282 107.560793 
L 269.685729 107.560793 
L 269.685729 109.994412 
L 272.058638 109.994412 
L 272.058638 108.1345 
L 274.431547 108.1345 
L 274.431547 108.78299 
L 276.804455 108.78299 
L 276.804455 108.05348 
L 279.177364 108.05348 
L 279.177364 109.472513 
L 281.550273 109.472513 
L 281.550273 110.088889 
L 283.923182 110.088889 
L 283.923182 108.15101 
L 286.29609 108.15101 
L 286.29609 108.780317 
L 288.668999 108.780317 
L 288.668999 109.583395 
L 291.041908 109.583395 
L 291.041908 109.120584 
L 293.414817 109.120584 
L 293.414817 111.077652 
L 295.787725 111.077652 
L 295.787725 109.662853 
L 298.160634 109.662853 
L 298.160634 111.244959 
L 300.533543 111.244959 
L 300.533543 107.42 
L 302.906452 107.42 
L 302.906452 112.242147 
L 305.27936 112.242147 
L 305.27936 111.577855 
L 307.652269 111.577855 
L 307.652269 108.696722 
L 310.025178 108.696722 
L 310.025178 108.151377 
L 312.398086 108.151377 
L 312.398086 107.600665 
L 314.770995 107.600665 
L 314.770995 110.021167 
L 317.143904 110.021167 
L 317.143904 110.455999 
L 319.516813 110.455999 
L 319.516813 107.866499 
L 321.889721 107.866499 
L 321.889721 107.031038 
L 324.26263 107.031038 
L 324.26263 114.96364 
L 326.635539 114.96364 
L 326.635539 112.732476 
L 329.008448 112.732476 
L 329.008448 114.204722 
L 331.381356 114.204722 
L 331.381356 116.543183 
L 333.754265 116.543183 
L 333.754265 108.713907 
L 336.127174 108.713907 
L 336.127174 111.88437 
L 338.500083 111.88437 
L 338.500083 113.317728 
L 340.872991 113.317728 
L 340.872991 107.194746 
L 343.2459 107.194746 
L 343.2459 111.030963 
L 345.618809 111.030963 
L 345.618809 115.482116 
L 347.991718 115.482116 
L 347.991718 114.831547 
L 350.364626 114.831547 
L 350.364626 109.332238 
L 352.737535 109.332238 
L 352.737535 114.343746 
L 355.110444 114.343746 
L 355.110444 110.86652 
L 357.483353 110.86652 
L 357.483353 107.190555 
L 359.856261 107.190555 
L 359.856261 113.083702 
L 362.22917 113.083702 
L 362.22917 109.422708 
L 364.602079 109.422708 
L 364.602079 116.187248 
L 366.974988 116.187248 
L 366.974988 111.506211 
L 369.347896 111.506211 
L 369.347896 104.736354 
L 371.720805 104.736354 
L 371.720805 100.16946 
L 374.093714 100.16946 
L 374.093714 112.76228 
L 376.466622 112.76228 
L 376.466622 103.034301 
L 378.839531 103.034301 
L 378.839531 105.749149 
L 381.21244 105.749149 
L 381.21244 112.567374 
L 383.585349 112.567374 
L 383.585349 116.541819 
L 385.958257 116.541819 
L 385.958257 116.133984 
L 388.331166 116.133984 
L 388.331166 120.049737 
L 390.704075 120.049737 
L 390.704075 109.480044 
L 393.076984 109.480044 
L 393.076984 109.166604 
L 395.449892 109.166604 
L 395.449892 105.856444 
L 397.822801 105.856444 
L 397.822801 281.132187 
L 397.822801 281.132187 
" clip-path="url(#p2acb0c28cd)" style="fill: none; stroke: #1f77b4; stroke-width: 1.5; stroke-linecap: square"/>
   </g>
   <g id="LineCollection_1">
    <path d="M 69.174941 45.427752 
L 69.174941 44.614928 
" clip-path="url(#p2acb0c28cd)" style="fill: none; stroke: #1f77b4; stroke-width: 1.5"/>
    <path d="M 71.547849 44.572699 
L 71.547849 43.925658 
" clip-path="url(#p2acb0c28cd)" style="fill: none; stroke: #1f77b4; stroke-width: 1.5"/>
    <path d="M 73.920758 43.577999 
L 73.920758 43.017057 
" clip-path="url(#p2acb0c28cd)" style="fill: none; stroke: #1f77b4; stroke-width: 1.5"/>
    <path d="M 76.293667 42.390847 
L 76.293667 41.884709 
" clip-path="url(#p2acb0c28cd)" style="fill: none; stroke: #1f77b4; stroke-width: 1.5"/>
    <path d="M 78.666576 40.788177 
L 78.666576 40.324219 
" clip-path="url(#p2acb0c28cd)" style="fill: none; stroke: #1f77b4; stroke-width: 1.5"/>
    <path d="M 81.039484 39.517788 
L 81.039484 39.086753 
" clip-path="url(#p2acb0c28cd)" style="fill: none; stroke: #1f77b4; stroke-width: 1.5"/>
    <path d="M 83.412393 37.708115 
L 83.412393 37.304583 
" clip-path="url(#p2acb0c28cd)" style="fill: none; stroke: #1f77b4; stroke-width: 1.5"/>
    <path d="M 85.785302 35.91919 
L 85.785302 35.538326 
" clip-path="url(#p2acb0c28cd)" style="fill: none; stroke: #1f77b4; stroke-width: 1.5"/>
    <path d="M 88.15821 33.351941 
L 88.15821 32.989935 
" clip-path="url(#p2acb0c28cd)" style="fill: none; stroke: #1f77b4; stroke-width: 1.5"/>
    <path d="M 90.531119 30.814225 
L 90.531119 30.468173 
" clip-path="url(#p2acb0c28cd)" style="fill: none; stroke: #1f77b4; stroke-width: 1.5"/>
    <path d="M 92.904028 28.088527 
L 92.904028 27.755738 
" clip-path="url(#p2acb0c28cd)" style="fill: none; stroke: #1f77b4; stroke-width: 1.5"/>
    <path d="M 95.276937 25.101979 
L 95.276937 24.780084 
" clip-path="url(#p2acb0c28cd)" style="fill: none; stroke: #1f77b4; stroke-width: 1.5"/>
    <path d="M 97.649845 22.580652 
L 97.649845 22.268492 
" clip-path="url(#p2acb0c28cd)" style="fill: none; stroke: #1f77b4; stroke-width: 1.5"/>
    <path d="M 100.022754 20.028229 
L 100.022754 19.722487 
" clip-path="url(#p2acb0c28cd)" style="fill: none; stroke: #1f77b4; stroke-width: 1.5"/>
    <path d="M 102.395663 18.454441 
L 102.395663 18.154473 
" clip-path="url(#p2acb0c28cd)" style="fill: none; stroke: #1f77b4; stroke-width: 1.5"/>
    <path d="M 104.768572 18.152956 
L 104.768572 17.856932 
" clip-path="url(#p2acb0c28cd)" style="fill: none; stroke: #1f77b4; stroke-width: 1.5"/>
    <path d="M 107.14148 19.353874 
L 107.14148 19.060252 
" clip-path="url(#p2acb0c28cd)" style="fill: none; stroke: #1f77b4; stroke-width: 1.5"/>
    <path d="M 109.514389 22.329535 
L 109.514389 22.036697 
" clip-path="url(#p2acb0c28cd)" style="fill: none; stroke: #1f77b4; stroke-width: 1.5"/>
    <path d="M 111.887298 26.948628 
L 111.887298 26.655439 
" clip-path="url(#p2acb0c28cd)" style="fill: none; stroke: #1f77b4; stroke-width: 1.5"/>
    <path d="M 114.260207 32.729449 
L 114.260207 32.43362 
" clip-path="url(#p2acb0c28cd)" style="fill: none; stroke: #1f77b4; stroke-width: 1.5"/>
    <path d="M 116.633115 39.196624 
L 116.633115 38.896537 
" clip-path="url(#p2acb0c28cd)" style="fill: none; stroke: #1f77b4; stroke-width: 1.5"/>
    <path d="M 119.006024 45.939101 
L 119.006024 45.632821 
" clip-path="url(#p2acb0c28cd)" style="fill: none; stroke: #1f77b4; stroke-width: 1.5"/>
    <path d="M 121.378933 52.665745 
L 121.378933 52.350934 
" clip-path="url(#p2acb0c28cd)" style="fill: none; stroke: #1f77b4; stroke-width: 1.5"/>
    <path d="M 123.751842 59.105048 
L 123.751842 58.780192 
" clip-path="url(#p2acb0c28cd)" style="fill: none; stroke: #1f77b4; stroke-width: 1.5"/>
    <path d="M 126.12475 65.456289 
L 126.12475 65.118601 
" clip-path="url(#p2acb0c28cd)" style="fill: none; stroke: #1f77b4; stroke-width: 1.5"/>
    <path d="M 128.497659 71.381814 
L 128.497659 71.029233 
" clip-path="url(#p2acb0c28cd)" style="fill: none; stroke: #1f77b4; stroke-width: 1.5"/>
    <path d="M 130.870568 76.527194 
L 130.870568 76.158817 
" clip-path="url(#p2acb0c28cd)" style="fill: none; stroke: #1f77b4; stroke-width: 1.5"/>
    <path d="M 133.243477 81.654014 
L 133.243477 81.267392 
" clip-path="url(#p2acb0c28cd)" style="fill: none; stroke: #1f77b4; stroke-width: 1.5"/>
    <path d="M 135.616385 86.000501 
L 135.616385 85.595081 
" clip-path="url(#p2acb0c28cd)" style="fill: none; stroke: #1f77b4; stroke-width: 1.5"/>
    <path d="M 137.989294 89.804066 
L 137.989294 89.379524 
" clip-path="url(#p2acb0c28cd)" style="fill: none; stroke: #1f77b4; stroke-width: 1.5"/>
    <path d="M 140.362203 93.361135 
L 140.362203 92.915487 
" clip-path="url(#p2acb0c28cd)" style="fill: none; stroke: #1f77b4; stroke-width: 1.5"/>
    <path d="M 142.735112 96.296391 
L 142.735112 95.83205 
" clip-path="url(#p2acb0c28cd)" style="fill: none; stroke: #1f77b4; stroke-width: 1.5"/>
    <path d="M 145.10802 98.746319 
L 145.10802 98.264037 
" clip-path="url(#p2acb0c28cd)" style="fill: none; stroke: #1f77b4; stroke-width: 1.5"/>
    <path d="M 147.480929 100.87256 
L 147.480929 100.369864 
" clip-path="url(#p2acb0c28cd)" style="fill: none; stroke: #1f77b4; stroke-width: 1.5"/>
    <path d="M 149.853838 102.163213 
L 149.853838 101.646565 
" clip-path="url(#p2acb0c28cd)" style="fill: none; stroke: #1f77b4; stroke-width: 1.5"/>
    <path d="M 152.226746 102.983281 
L 152.226746 102.455663 
" clip-path="url(#p2acb0c28cd)" style="fill: none; stroke: #1f77b4; stroke-width: 1.5"/>
    <path d="M 154.599655 103.893811 
L 154.599655 103.352771 
" clip-path="url(#p2acb0c28cd)" style="fill: none; stroke: #1f77b4; stroke-width: 1.5"/>
    <path d="M 156.972564 104.818131 
L 156.972564 104.263964 
" clip-path="url(#p2acb0c28cd)" style="fill: none; stroke: #1f77b4; stroke-width: 1.5"/>
    <path d="M 159.345473 104.982186 
L 159.345473 104.418687 
" clip-path="url(#p2acb0c28cd)" style="fill: none; stroke: #1f77b4; stroke-width: 1.5"/>
    <path d="M 161.718381 105.32927 
L 161.718381 104.755724 
" clip-path="url(#p2acb0c28cd)" style="fill: none; stroke: #1f77b4; stroke-width: 1.5"/>
    <path d="M 164.09129 105.642186 
L 164.09129 105.058369 
" clip-path="url(#p2acb0c28cd)" style="fill: none; stroke: #1f77b4; stroke-width: 1.5"/>
    <path d="M 166.464199 105.082569 
L 166.464199 104.493849 
" clip-path="url(#p2acb0c28cd)" style="fill: none; stroke: #1f77b4; stroke-width: 1.5"/>
    <path d="M 168.837108 105.634204 
L 168.837108 105.031815 
" clip-path="url(#p2acb0c28cd)" style="fill: none; stroke: #1f77b4; stroke-width: 1.5"/>
    <path d="M 171.210016 105.838498 
L 171.210016 105.2194 
" clip-path="url(#p2acb0c28cd)" style="fill: none; stroke: #1f77b4; stroke-width: 1.5"/>
    <path d="M 173.582925 106.03834 
L 173.582925 105.408818 
" clip-path="url(#p2acb0c28cd)" style="fill: none; stroke: #1f77b4; stroke-width: 1.5"/>
    <path d="M 175.955834 106.271304 
L 175.955834 105.626792 
" clip-path="url(#p2acb0c28cd)" style="fill: none; stroke: #1f77b4; stroke-width: 1.5"/>
    <path d="M 178.328743 105.99669 
L 178.328743 105.342956 
" clip-path="url(#p2acb0c28cd)" style="fill: none; stroke: #1f77b4; stroke-width: 1.5"/>
    <path d="M 180.701651 106.669054 
L 180.701651 105.994779 
" clip-path="url(#p2acb0c28cd)" style="fill: none; stroke: #1f77b4; stroke-width: 1.5"/>
    <path d="M 183.07456 107.314915 
L 183.07456 106.619828 
" clip-path="url(#p2acb0c28cd)" style="fill: none; stroke: #1f77b4; stroke-width: 1.5"/>
    <path d="M 185.447469 106.792686 
L 185.447469 106.08973 
" clip-path="url(#p2acb0c28cd)" style="fill: none; stroke: #1f77b4; stroke-width: 1.5"/>
    <path d="M 187.820378 107.236611 
L 187.820378 106.513997 
" clip-path="url(#p2acb0c28cd)" style="fill: none; stroke: #1f77b4; stroke-width: 1.5"/>
    <path d="M 190.193286 107.24163 
L 190.193286 106.500099 
" clip-path="url(#p2acb0c28cd)" style="fill: none; stroke: #1f77b4; stroke-width: 1.5"/>
    <path d="M 192.566195 107.516761 
L 192.566195 106.759839 
" clip-path="url(#p2acb0c28cd)" style="fill: none; stroke: #1f77b4; stroke-width: 1.5"/>
    <path d="M 194.939104 106.946272 
L 194.939104 106.172471 
" clip-path="url(#p2acb0c28cd)" style="fill: none; stroke: #1f77b4; stroke-width: 1.5"/>
    <path d="M 197.312013 107.400863 
L 197.312013 106.602636 
" clip-path="url(#p2acb0c28cd)" style="fill: none; stroke: #1f77b4; stroke-width: 1.5"/>
    <path d="M 199.684921 108.057115 
L 199.684921 107.234732 
" clip-path="url(#p2acb0c28cd)" style="fill: none; stroke: #1f77b4; stroke-width: 1.5"/>
    <path d="M 202.05783 108.464804 
L 202.05783 107.613382 
" clip-path="url(#p2acb0c28cd)" style="fill: none; stroke: #1f77b4; stroke-width: 1.5"/>
    <path d="M 204.430739 108.301461 
L 204.430739 107.442674 
" clip-path="url(#p2acb0c28cd)" style="fill: none; stroke: #1f77b4; stroke-width: 1.5"/>
    <path d="M 206.803648 107.699016 
L 206.803648 106.820617 
" clip-path="url(#p2acb0c28cd)" style="fill: none; stroke: #1f77b4; stroke-width: 1.5"/>
    <path d="M 209.176556 108.706856 
L 209.176556 107.794911 
" clip-path="url(#p2acb0c28cd)" style="fill: none; stroke: #1f77b4; stroke-width: 1.5"/>
    <path d="M 211.549465 108.990725 
L 211.549465 108.047992 
" clip-path="url(#p2acb0c28cd)" style="fill: none; stroke: #1f77b4; stroke-width: 1.5"/>
    <path d="M 213.922374 109.103914 
L 213.922374 108.140733 
" clip-path="url(#p2acb0c28cd)" style="fill: none; stroke: #1f77b4; stroke-width: 1.5"/>
    <path d="M 216.295282 108.880826 
L 216.295282 107.894672 
" clip-path="url(#p2acb0c28cd)" style="fill: none; stroke: #1f77b4; stroke-width: 1.5"/>
    <path d="M 218.668191 108.590621 
L 218.668191 107.588449 
" clip-path="url(#p2acb0c28cd)" style="fill: none; stroke: #1f77b4; stroke-width: 1.5"/>
    <path d="M 221.0411 109.539461 
L 221.0411 108.480526 
" clip-path="url(#p2acb0c28cd)" style="fill: none; stroke: #1f77b4; stroke-width: 1.5"/>
    <path d="M 223.414009 109.000415 
L 223.414009 107.930292 
" clip-path="url(#p2acb0c28cd)" style="fill: none; stroke: #1f77b4; stroke-width: 1.5"/>
    <path d="M 225.786917 109.003337 
L 225.786917 107.897884 
" clip-path="url(#p2acb0c28cd)" style="fill: none; stroke: #1f77b4; stroke-width: 1.5"/>
    <path d="M 228.159826 109.944281 
L 228.159826 108.785334 
" clip-path="url(#p2acb0c28cd)" style="fill: none; stroke: #1f77b4; stroke-width: 1.5"/>
    <path d="M 230.532735 109.619728 
L 230.532735 108.431582 
" clip-path="url(#p2acb0c28cd)" style="fill: none; stroke: #1f77b4; stroke-width: 1.5"/>
    <path d="M 232.905644 109.254886 
L 232.905644 108.033061 
" clip-path="url(#p2acb0c28cd)" style="fill: none; stroke: #1f77b4; stroke-width: 1.5"/>
    <path d="M 235.278552 110.0699 
L 235.278552 108.788325 
" clip-path="url(#p2acb0c28cd)" style="fill: none; stroke: #1f77b4; stroke-width: 1.5"/>
    <path d="M 237.651461 109.028284 
L 237.651461 107.721287 
" clip-path="url(#p2acb0c28cd)" style="fill: none; stroke: #1f77b4; stroke-width: 1.5"/>
    <path d="M 240.02437 108.411918 
L 240.02437 107.062414 
" clip-path="url(#p2acb0c28cd)" style="fill: none; stroke: #1f77b4; stroke-width: 1.5"/>
    <path d="M 242.397279 109.149691 
L 242.397279 107.724505 
" clip-path="url(#p2acb0c28cd)" style="fill: none; stroke: #1f77b4; stroke-width: 1.5"/>
    <path d="M 244.770187 109.299523 
L 244.770187 107.825596 
" clip-path="url(#p2acb0c28cd)" style="fill: none; stroke: #1f77b4; stroke-width: 1.5"/>
    <path d="M 247.143096 110.353295 
L 247.143096 108.79456 
" clip-path="url(#p2acb0c28cd)" style="fill: none; stroke: #1f77b4; stroke-width: 1.5"/>
    <path d="M 249.516005 109.505322 
L 249.516005 107.887434 
" clip-path="url(#p2acb0c28cd)" style="fill: none; stroke: #1f77b4; stroke-width: 1.5"/>
    <path d="M 251.888914 110.088408 
L 251.888914 108.379896 
" clip-path="url(#p2acb0c28cd)" style="fill: none; stroke: #1f77b4; stroke-width: 1.5"/>
    <path d="M 254.261822 109.263496 
L 254.261822 107.513815 
" clip-path="url(#p2acb0c28cd)" style="fill: none; stroke: #1f77b4; stroke-width: 1.5"/>
    <path d="M 256.634731 108.459528 
L 256.634731 106.625412 
" clip-path="url(#p2acb0c28cd)" style="fill: none; stroke: #1f77b4; stroke-width: 1.5"/>
    <path d="M 259.00764 109.824205 
L 259.00764 107.894729 
" clip-path="url(#p2acb0c28cd)" style="fill: none; stroke: #1f77b4; stroke-width: 1.5"/>
    <path d="M 261.380549 109.74106 
L 261.380549 107.708344 
" clip-path="url(#p2acb0c28cd)" style="fill: none; stroke: #1f77b4; stroke-width: 1.5"/>
    <path d="M 263.753457 109.033269 
L 263.753457 106.9342 
" clip-path="url(#p2acb0c28cd)" style="fill: none; stroke: #1f77b4; stroke-width: 1.5"/>
    <path d="M 266.126366 110.412482 
L 266.126366 108.217707 
" clip-path="url(#p2acb0c28cd)" style="fill: none; stroke: #1f77b4; stroke-width: 1.5"/>
    <path d="M 268.499275 108.708749 
L 268.499275 106.460252 
" clip-path="url(#p2acb0c28cd)" style="fill: none; stroke: #1f77b4; stroke-width: 1.5"/>
    <path d="M 270.872184 111.249341 
L 270.872184 108.795932 
" clip-path="url(#p2acb0c28cd)" style="fill: none; stroke: #1f77b4; stroke-width: 1.5"/>
    <path d="M 273.245092 109.40075 
L 273.245092 106.925698 
" clip-path="url(#p2acb0c28cd)" style="fill: none; stroke: #1f77b4; stroke-width: 1.5"/>
    <path d="M 275.618001 110.104196 
L 275.618001 107.524206 
" clip-path="url(#p2acb0c28cd)" style="fill: none; stroke: #1f77b4; stroke-width: 1.5"/>
    <path d="M 277.99091 109.417407 
L 277.99091 106.755975 
" clip-path="url(#p2acb0c28cd)" style="fill: none; stroke: #1f77b4; stroke-width: 1.5"/>
    <path d="M 280.363818 110.904251 
L 280.363818 108.113792 
" clip-path="url(#p2acb0c28cd)" style="fill: none; stroke: #1f77b4; stroke-width: 1.5"/>
    <path d="M 282.736727 111.610921 
L 282.736727 108.649111 
" clip-path="url(#p2acb0c28cd)" style="fill: none; stroke: #1f77b4; stroke-width: 1.5"/>
    <path d="M 285.109636 109.699145 
L 285.109636 106.687897 
" clip-path="url(#p2acb0c28cd)" style="fill: none; stroke: #1f77b4; stroke-width: 1.5"/>
    <path d="M 287.482545 110.392833 
L 287.482545 107.259834 
" clip-path="url(#p2acb0c28cd)" style="fill: none; stroke: #1f77b4; stroke-width: 1.5"/>
    <path d="M 289.855453 111.225583 
L 289.855453 108.036557 
" clip-path="url(#p2acb0c28cd)" style="fill: none; stroke: #1f77b4; stroke-width: 1.5"/>
    <path d="M 292.228362 110.871278 
L 292.228362 107.477847 
" clip-path="url(#p2acb0c28cd)" style="fill: none; stroke: #1f77b4; stroke-width: 1.5"/>
    <path d="M 294.601271 112.921638 
L 294.601271 109.353047 
" clip-path="url(#p2acb0c28cd)" style="fill: none; stroke: #1f77b4; stroke-width: 1.5"/>
    <path d="M 296.97418 111.519979 
L 296.97418 107.92676 
" clip-path="url(#p2acb0c28cd)" style="fill: none; stroke: #1f77b4; stroke-width: 1.5"/>
    <path d="M 299.347088 113.213898 
L 299.347088 109.41154 
" clip-path="url(#p2acb0c28cd)" style="fill: none; stroke: #1f77b4; stroke-width: 1.5"/>
    <path d="M 301.719997 109.399657 
L 301.719997 105.577292 
" clip-path="url(#p2acb0c28cd)" style="fill: none; stroke: #1f77b4; stroke-width: 1.5"/>
    <path d="M 304.092906 114.434847 
L 304.092906 110.216231 
" clip-path="url(#p2acb0c28cd)" style="fill: none; stroke: #1f77b4; stroke-width: 1.5"/>
    <path d="M 306.465815 113.876359 
L 306.465815 109.461956 
" clip-path="url(#p2acb0c28cd)" style="fill: none; stroke: #1f77b4; stroke-width: 1.5"/>
    <path d="M 308.838723 110.962017 
L 308.838723 106.608995 
" clip-path="url(#p2acb0c28cd)" style="fill: none; stroke: #1f77b4; stroke-width: 1.5"/>
    <path d="M 311.211632 110.532105 
L 311.211632 105.966005 
" clip-path="url(#p2acb0c28cd)" style="fill: none; stroke: #1f77b4; stroke-width: 1.5"/>
    <path d="M 313.584541 110.117036 
L 313.584541 105.301544 
" clip-path="url(#p2acb0c28cd)" style="fill: none; stroke: #1f77b4; stroke-width: 1.5"/>
    <path d="M 315.95745 112.769931 
L 315.95745 107.529611 
" clip-path="url(#p2acb0c28cd)" style="fill: none; stroke: #1f77b4; stroke-width: 1.5"/>
    <path d="M 318.330358 113.379257 
L 318.330358 107.821948 
" clip-path="url(#p2acb0c28cd)" style="fill: none; stroke: #1f77b4; stroke-width: 1.5"/>
    <path d="M 320.703267 110.79541 
L 320.703267 105.22786 
" clip-path="url(#p2acb0c28cd)" style="fill: none; stroke: #1f77b4; stroke-width: 1.5"/>
    <path d="M 323.076176 110.027158 
L 323.076176 104.337988 
" clip-path="url(#p2acb0c28cd)" style="fill: none; stroke: #1f77b4; stroke-width: 1.5"/>
    <path d="M 325.449085 118.703451 
L 325.449085 111.684658 
" clip-path="url(#p2acb0c28cd)" style="fill: none; stroke: #1f77b4; stroke-width: 1.5"/>
    <path d="M 327.821993 116.384208 
L 327.821993 109.521377 
" clip-path="url(#p2acb0c28cd)" style="fill: none; stroke: #1f77b4; stroke-width: 1.5"/>
    <path d="M 330.194902 118.007283 
L 330.194902 110.877621 
" clip-path="url(#p2acb0c28cd)" style="fill: none; stroke: #1f77b4; stroke-width: 1.5"/>
    <path d="M 332.567811 120.59733 
L 332.567811 113.025146 
" clip-path="url(#p2acb0c28cd)" style="fill: none; stroke: #1f77b4; stroke-width: 1.5"/>
    <path d="M 334.94072 112.730687 
L 334.94072 105.224029 
" clip-path="url(#p2acb0c28cd)" style="fill: none; stroke: #1f77b4; stroke-width: 1.5"/>
    <path d="M 337.313628 116.128541 
L 337.313628 108.224199 
" clip-path="url(#p2acb0c28cd)" style="fill: none; stroke: #1f77b4; stroke-width: 1.5"/>
    <path d="M 339.686537 117.963946 
L 339.686537 109.362584 
" clip-path="url(#p2acb0c28cd)" style="fill: none; stroke: #1f77b4; stroke-width: 1.5"/>
    <path d="M 342.059446 111.646805 
L 342.059446 103.381089 
" clip-path="url(#p2acb0c28cd)" style="fill: none; stroke: #1f77b4; stroke-width: 1.5"/>
    <path d="M 344.432354 115.665603 
L 344.432354 107.084207 
" clip-path="url(#p2acb0c28cd)" style="fill: none; stroke: #1f77b4; stroke-width: 1.5"/>
    <path d="M 346.805263 121.403729 
L 346.805263 110.640083 
" clip-path="url(#p2acb0c28cd)" style="fill: none; stroke: #1f77b4; stroke-width: 1.5"/>
    <path d="M 349.178172 121.114681 
L 349.178172 109.750828 
" clip-path="url(#p2acb0c28cd)" style="fill: none; stroke: #1f77b4; stroke-width: 1.5"/>
    <path d="M 351.551081 114.955753 
L 351.551081 104.691119 
" clip-path="url(#p2acb0c28cd)" style="fill: none; stroke: #1f77b4; stroke-width: 1.5"/>
    <path d="M 353.923989 121.088716 
L 353.923989 108.965787 
" clip-path="url(#p2acb0c28cd)" style="fill: none; stroke: #1f77b4; stroke-width: 1.5"/>
    <path d="M 356.296898 117.30694 
L 356.296898 105.683618 
" clip-path="url(#p2acb0c28cd)" style="fill: none; stroke: #1f77b4; stroke-width: 1.5"/>
    <path d="M 358.669807 113.689794 
L 358.669807 101.969695 
" clip-path="url(#p2acb0c28cd)" style="fill: none; stroke: #1f77b4; stroke-width: 1.5"/>
    <path d="M 361.042716 120.008309 
L 361.042716 107.592388 
" clip-path="url(#p2acb0c28cd)" style="fill: none; stroke: #1f77b4; stroke-width: 1.5"/>
    <path d="M 363.415624 116.606545 
L 363.415624 103.769991 
" clip-path="url(#p2acb0c28cd)" style="fill: none; stroke: #1f77b4; stroke-width: 1.5"/>
    <path d="M 365.788533 124.305532 
L 365.788533 109.973247 
" clip-path="url(#p2acb0c28cd)" style="fill: none; stroke: #1f77b4; stroke-width: 1.5"/>
    <path d="M 368.161442 119.586258 
L 368.161442 105.314567 
" clip-path="url(#p2acb0c28cd)" style="fill: none; stroke: #1f77b4; stroke-width: 1.5"/>
    <path d="M 370.534351 112.85092 
L 370.534351 98.524525 
" clip-path="url(#p2acb0c28cd)" style="fill: none; stroke: #1f77b4; stroke-width: 1.5"/>
    <path d="M 372.907259 108.425784 
L 372.907259 93.875171 
" clip-path="url(#p2acb0c28cd)" style="fill: none; stroke: #1f77b4; stroke-width: 1.5"/>
    <path d="M 375.280168 123.944485 
L 375.280168 104.909381 
" clip-path="url(#p2acb0c28cd)" style="fill: none; stroke: #1f77b4; stroke-width: 1.5"/>
    <path d="M 377.653077 113.76154 
L 377.653077 95.406988 
" clip-path="url(#p2acb0c28cd)" style="fill: none; stroke: #1f77b4; stroke-width: 1.5"/>
    <path d="M 380.025986 119.588825 
L 380.025986 96.685994 
" clip-path="url(#p2acb0c28cd)" style="fill: none; stroke: #1f77b4; stroke-width: 1.5"/>
    <path d="M 382.398894 129.53919 
L 382.398894 102.281528 
" clip-path="url(#p2acb0c28cd)" style="fill: none; stroke: #1f77b4; stroke-width: 1.5"/>
    <path d="M 384.771803 139.681317 
L 384.771803 104.346306 
" clip-path="url(#p2acb0c28cd)" style="fill: none; stroke: #1f77b4; stroke-width: 1.5"/>
    <path d="M 387.144712 136.001396 
L 387.144712 104.879374 
" clip-path="url(#p2acb0c28cd)" style="fill: none; stroke: #1f77b4; stroke-width: 1.5"/>
    <path d="M 389.517621 146.249178 
L 389.517621 107.097431 
" clip-path="url(#p2acb0c28cd)" style="fill: none; stroke: #1f77b4; stroke-width: 1.5"/>
    <path d="M 391.890529 197.654762 
L 391.890529 91.500335 
" clip-path="url(#p2acb0c28cd)" style="fill: none; stroke: #1f77b4; stroke-width: 1.5"/>
    <path d="M 394.263438 188.737751 
L 394.263438 91.376654 
" clip-path="url(#p2acb0c28cd)" style="fill: none; stroke: #1f77b4; stroke-width: 1.5"/>
    <path d="M 396.636347 230.995568 
L 396.636347 87.507054 
" clip-path="url(#p2acb0c28cd)" style="fill: none; stroke: #1f77b4; stroke-width: 1.5"/>
    <path clip-path="url(#p2acb0c28cd)" style="fill: none; stroke: #1f77b4; stroke-width: 1.5"/>
   </g>
   <g id="line2d_45">
    <path d="M 67.988486 45.018241 
L 70.361395 45.018241 
L 70.361395 44.247215 
L 72.734304 44.247215 
L 72.734304 43.296052 
L 75.107212 43.296052 
L 75.107212 42.136576 
L 77.480121 42.136576 
L 77.480121 40.555188 
L 79.85303 40.555188 
L 79.85303 39.301399 
L 82.225939 39.301399 
L 82.225939 37.505585 
L 84.598847 37.505585 
L 84.598847 35.728078 
L 86.971756 35.728078 
L 86.971756 33.170323 
L 89.344665 33.170323 
L 89.344665 30.640638 
L 91.717574 30.640638 
L 91.717574 27.921613 
L 94.090482 27.921613 
L 94.090482 24.940546 
L 96.463391 24.940546 
L 96.463391 22.424115 
L 98.8363 22.424115 
L 98.8363 19.87492 
L 101.209209 19.87492 
L 101.209209 18.304035 
L 103.582117 18.304035 
L 103.582117 18.004533 
L 105.955026 18.004533 
L 105.955026 19.206659 
L 108.327935 19.206659 
L 108.327935 22.182714 
L 110.700844 22.182714 
L 110.700844 26.80163 
L 113.073752 26.80163 
L 113.073752 32.581124 
L 115.446661 32.581124 
L 115.446661 39.046158 
L 117.81957 39.046158 
L 117.81957 45.785521 
L 120.192478 45.785521 
L 120.192478 52.507875 
L 122.565387 52.507875 
L 122.565387 58.942125 
L 124.938296 58.942125 
L 124.938296 65.28691 
L 127.311205 65.28691 
L 127.311205 71.204941 
L 129.684113 71.204941 
L 129.684113 76.342369 
L 132.057022 76.342369 
L 132.057022 81.460002 
L 134.429931 81.460002 
L 134.429931 85.79702 
L 136.80284 85.79702 
L 136.80284 89.590949 
L 139.175748 89.590949 
L 139.175748 93.137379 
L 141.548657 93.137379 
L 141.548657 96.063209 
L 143.921566 96.063209 
L 143.921566 98.504087 
L 146.294475 98.504087 
L 146.294475 100.620027 
L 148.667383 100.620027 
L 148.667383 101.903637 
L 151.040292 101.903637 
L 151.040292 102.718166 
L 153.413201 102.718166 
L 153.413201 103.621918 
L 155.78611 103.621918 
L 155.78611 104.539607 
L 158.159018 104.539607 
L 158.159018 104.698947 
L 160.531927 104.698947 
L 160.531927 105.040954 
L 162.904836 105.040954 
L 162.904836 105.348678 
L 165.277745 105.348678 
L 165.277745 104.786583 
L 167.650653 104.786583 
L 167.650653 105.331308 
L 170.023562 105.331308 
L 170.023562 105.527151 
L 172.396471 105.527151 
L 172.396471 105.72172 
L 174.76938 105.72172 
L 174.76938 105.947099 
L 177.142288 105.947099 
L 177.142288 105.667818 
L 179.515197 105.667818 
L 179.515197 106.329784 
L 181.888106 106.329784 
L 181.888106 106.965105 
L 184.261014 106.965105 
L 184.261014 106.43889 
L 186.633923 106.43889 
L 186.633923 106.872855 
L 191.379741 106.868285 
L 191.379741 107.135613 
L 193.752649 107.135613 
L 193.752649 106.556563 
L 196.125558 106.556563 
L 196.125558 106.998761 
L 198.498467 106.998761 
L 198.498467 107.642751 
L 200.871376 107.642751 
L 200.871376 108.035693 
L 203.244284 108.035693 
L 203.244284 107.868608 
L 205.617193 107.868608 
L 205.617193 107.256197 
L 207.990102 107.256197 
L 207.990102 108.246982 
L 210.363011 108.246982 
L 210.363011 108.51519 
L 215.108828 108.617972 
L 215.108828 108.383187 
L 217.481737 108.383187 
L 217.481737 108.084824 
L 219.854646 108.084824 
L 219.854646 109.004734 
L 222.227554 109.004734 
L 222.227554 108.459982 
L 226.973372 108.444879 
L 226.973372 109.358508 
L 229.346281 109.358508 
L 229.346281 109.019034 
L 231.719189 109.019034 
L 231.719189 108.636972 
L 234.092098 108.636972 
L 234.092098 109.421409 
L 236.465007 109.421409 
L 236.465007 108.366774 
L 238.837916 108.366774 
L 238.837916 107.728624 
L 241.210824 107.728624 
L 241.210824 108.427572 
L 243.583733 108.427572 
L 243.583733 108.55237 
L 245.956642 108.55237 
L 245.956642 109.562533 
L 248.32955 109.562533 
L 248.32955 108.684102 
L 250.702459 108.684102 
L 250.702459 109.220462 
L 253.075368 109.220462 
L 253.075368 108.374298 
L 255.448277 108.374298 
L 255.448277 107.526694 
L 257.821185 107.526694 
L 257.821185 108.842008 
L 260.194094 108.842008 
L 260.194094 108.705325 
L 262.567003 108.705325 
L 262.567003 107.963072 
L 264.939912 107.963072 
L 264.939912 109.292506 
L 267.31282 109.292506 
L 267.31282 107.560793 
L 269.685729 107.560793 
L 269.685729 109.994412 
L 272.058638 109.994412 
L 272.058638 108.1345 
L 274.431547 108.1345 
L 274.431547 108.78299 
L 276.804455 108.78299 
L 276.804455 108.05348 
L 279.177364 108.05348 
L 279.177364 109.472513 
L 281.550273 109.472513 
L 281.550273 110.088889 
L 283.923182 110.088889 
L 283.923182 108.15101 
L 286.29609 108.15101 
L 286.29609 108.780317 
L 288.668999 108.780317 
L 288.668999 109.583395 
L 291.041908 109.583395 
L 291.041908 109.120584 
L 293.414817 109.120584 
L 293.414817 111.077652 
L 295.787725 111.077652 
L 295.787725 109.662853 
L 298.160634 109.662853 
L 298.160634 111.244959 
L 300.533543 111.244959 
L 300.533543 107.42 
L 302.906452 107.42 
L 302.906452 112.242147 
L 305.27936 112.242147 
L 305.27936 111.577855 
L 307.652269 111.577855 
L 307.652269 108.696722 
L 310.025178 108.696722 
L 310.025178 108.151377 
L 312.398086 108.151377 
L 312.398086 107.600665 
L 314.770995 107.600665 
L 314.770995 110.021167 
L 317.143904 110.021167 
L 317.143904 110.455999 
L 319.516813 110.455999 
L 319.516813 107.866499 
L 321.889721 107.866499 
L 321.889721 107.031038 
L 324.26263 107.031038 
L 324.26263 114.96364 
L 326.635539 114.96364 
L 326.635539 112.732476 
L 329.008448 112.732476 
L 329.008448 114.204722 
L 331.381356 114.204722 
L 331.381356 116.543183 
L 333.754265 116.543183 
L 333.754265 108.713907 
L 336.127174 108.713907 
L 336.127174 111.88437 
L 338.500083 111.88437 
L 338.500083 113.317728 
L 340.872991 113.317728 
L 340.872991 107.194746 
L 343.2459 107.194746 
L 343.2459 111.030963 
L 345.618809 111.030963 
L 345.618809 115.482116 
L 347.991718 115.482116 
L 347.991718 114.831547 
L 350.364626 114.831547 
L 350.364626 109.332238 
L 352.737535 109.332238 
L 352.737535 114.343746 
L 355.110444 114.343746 
L 355.110444 110.86652 
L 357.483353 110.86652 
L 357.483353 107.190555 
L 359.856261 107.190555 
L 359.856261 113.083702 
L 362.22917 113.083702 
L 362.22917 109.422708 
L 364.602079 109.422708 
L 364.602079 116.187248 
L 366.974988 116.187248 
L 366.974988 111.506211 
L 369.347896 111.506211 
L 369.347896 104.736354 
L 371.720805 104.736354 
L 371.720805 100.16946 
L 374.093714 100.16946 
L 374.093714 112.76228 
L 376.466622 112.76228 
L 376.466622 103.034301 
L 378.839531 103.034301 
L 378.839531 105.749149 
L 381.21244 105.749149 
L 381.21244 112.567374 
L 383.585349 112.567374 
L 383.585349 116.541819 
L 385.958257 116.541819 
L 385.958257 116.133984 
L 388.331166 116.133984 
L 388.331166 120.049737 
L 390.704075 120.049737 
L 390.704075 109.480044 
L 393.076984 109.480044 
L 393.076984 109.166604 
L 395.449892 109.166604 
L 395.449892 105.856444 
L 397.822801 105.856444 
L 397.822801 281.132187 
L 397.822801 281.132187 
" clip-path="url(#p2acb0c28cd)" style="fill: none; stroke: #ff7f0e; stroke-width: 1.5; stroke-linecap: square"/>
   </g>
   <g id="LineCollection_2">
    <path d="M 69.174941 45.20964 
L 69.174941 44.828206 
" clip-path="url(#p2acb0c28cd)" style="fill: none; stroke: #ff7f0e; stroke-width: 1.5"/>
    <path d="M 71.547849 44.391288 
L 71.547849 44.103917 
" clip-path="url(#p2acb0c28cd)" style="fill: none; stroke: #ff7f0e; stroke-width: 1.5"/>
    <path d="M 73.920758 43.416578 
L 73.920758 43.176069 
" clip-path="url(#p2acb0c28cd)" style="fill: none; stroke: #ff7f0e; stroke-width: 1.5"/>
    <path d="M 76.293667 42.242606 
L 76.293667 42.030967 
" clip-path="url(#p2acb0c28cd)" style="fill: none; stroke: #ff7f0e; stroke-width: 1.5"/>
    <path d="M 78.666576 40.64986 
L 78.666576 40.460851 
" clip-path="url(#p2acb0c28cd)" style="fill: none; stroke: #ff7f0e; stroke-width: 1.5"/>
    <path d="M 81.039484 39.387588 
L 81.039484 39.215489 
" clip-path="url(#p2acb0c28cd)" style="fill: none; stroke: #ff7f0e; stroke-width: 1.5"/>
    <path d="M 83.412393 37.583976 
L 83.412393 37.427424 
" clip-path="url(#p2acb0c28cd)" style="fill: none; stroke: #ff7f0e; stroke-width: 1.5"/>
    <path d="M 85.785302 35.799922 
L 85.785302 35.656427 
" clip-path="url(#p2acb0c28cd)" style="fill: none; stroke: #ff7f0e; stroke-width: 1.5"/>
    <path d="M 88.15821 33.235722 
L 88.15821 33.105085 
" clip-path="url(#p2acb0c28cd)" style="fill: none; stroke: #ff7f0e; stroke-width: 1.5"/>
    <path d="M 90.531119 30.700497 
L 90.531119 30.580913 
" clip-path="url(#p2acb0c28cd)" style="fill: none; stroke: #ff7f0e; stroke-width: 1.5"/>
    <path d="M 92.904028 27.976504 
L 92.904028 27.866835 
" clip-path="url(#p2acb0c28cd)" style="fill: none; stroke: #ff7f0e; stroke-width: 1.5"/>
    <path d="M 95.276937 24.990916 
L 95.276937 24.89027 
" clip-path="url(#p2acb0c28cd)" style="fill: none; stroke: #ff7f0e; stroke-width: 1.5"/>
    <path d="M 97.649845 22.470701 
L 97.649845 22.37761 
" clip-path="url(#p2acb0c28cd)" style="fill: none; stroke: #ff7f0e; stroke-width: 1.5"/>
    <path d="M 100.022754 19.918397 
L 100.022754 19.831514 
" clip-path="url(#p2acb0c28cd)" style="fill: none; stroke: #ff7f0e; stroke-width: 1.5"/>
    <path d="M 102.395663 18.345363 
L 102.395663 18.262771 
" clip-path="url(#p2acb0c28cd)" style="fill: none; stroke: #ff7f0e; stroke-width: 1.5"/>
    <path d="M 104.768572 18.04492 
L 104.768572 17.964207 
" clip-path="url(#p2acb0c28cd)" style="fill: none; stroke: #ff7f0e; stroke-width: 1.5"/>
    <path d="M 107.14148 19.247354 
L 107.14148 19.166026 
" clip-path="url(#p2acb0c28cd)" style="fill: none; stroke: #ff7f0e; stroke-width: 1.5"/>
    <path d="M 109.514389 22.225242 
L 109.514389 22.140253 
" clip-path="url(#p2acb0c28cd)" style="fill: none; stroke: #ff7f0e; stroke-width: 1.5"/>
    <path d="M 111.887298 26.847427 
L 111.887298 26.755913 
" clip-path="url(#p2acb0c28cd)" style="fill: none; stroke: #ff7f0e; stroke-width: 1.5"/>
    <path d="M 114.260207 32.631799 
L 114.260207 32.530546 
" clip-path="url(#p2acb0c28cd)" style="fill: none; stroke: #ff7f0e; stroke-width: 1.5"/>
    <path d="M 116.633115 39.103012 
L 116.633115 38.989425 
" clip-path="url(#p2acb0c28cd)" style="fill: none; stroke: #ff7f0e; stroke-width: 1.5"/>
    <path d="M 119.006024 45.849723 
L 119.006024 45.721473 
" clip-path="url(#p2acb0c28cd)" style="fill: none; stroke: #ff7f0e; stroke-width: 1.5"/>
    <path d="M 121.378933 52.580592 
L 121.378933 52.435355 
" clip-path="url(#p2acb0c28cd)" style="fill: none; stroke: #ff7f0e; stroke-width: 1.5"/>
    <path d="M 123.751842 59.024092 
L 123.751842 58.860409 
" clip-path="url(#p2acb0c28cd)" style="fill: none; stroke: #ff7f0e; stroke-width: 1.5"/>
    <path d="M 126.12475 65.37939 
L 126.12475 65.194749 
" clip-path="url(#p2acb0c28cd)" style="fill: none; stroke: #ff7f0e; stroke-width: 1.5"/>
    <path d="M 128.497659 71.308613 
L 128.497659 71.10167 
" clip-path="url(#p2acb0c28cd)" style="fill: none; stroke: #ff7f0e; stroke-width: 1.5"/>
    <path d="M 130.870568 76.457113 
L 130.870568 76.228116 
" clip-path="url(#p2acb0c28cd)" style="fill: none; stroke: #ff7f0e; stroke-width: 1.5"/>
    <path d="M 133.243477 81.587028 
L 133.243477 81.333579 
" clip-path="url(#p2acb0c28cd)" style="fill: none; stroke: #ff7f0e; stroke-width: 1.5"/>
    <path d="M 135.616385 85.935866 
L 135.616385 85.658894 
" clip-path="url(#p2acb0c28cd)" style="fill: none; stroke: #ff7f0e; stroke-width: 1.5"/>
    <path d="M 137.989294 89.741306 
L 137.989294 89.441436 
" clip-path="url(#p2acb0c28cd)" style="fill: none; stroke: #ff7f0e; stroke-width: 1.5"/>
    <path d="M 140.362203 93.299959 
L 140.362203 92.975786 
" clip-path="url(#p2acb0c28cd)" style="fill: none; stroke: #ff7f0e; stroke-width: 1.5"/>
    <path d="M 142.735112 96.236443 
L 142.735112 95.891095 
" clip-path="url(#p2acb0c28cd)" style="fill: none; stroke: #ff7f0e; stroke-width: 1.5"/>
    <path d="M 145.10802 98.687257 
L 145.10802 98.322168 
" clip-path="url(#p2acb0c28cd)" style="fill: none; stroke: #ff7f0e; stroke-width: 1.5"/>
    <path d="M 147.480929 100.813593 
L 147.480929 100.427857 
" clip-path="url(#p2acb0c28cd)" style="fill: none; stroke: #ff7f0e; stroke-width: 1.5"/>
    <path d="M 149.853838 102.104097 
L 149.853838 101.704673 
" clip-path="url(#p2acb0c28cd)" style="fill: none; stroke: #ff7f0e; stroke-width: 1.5"/>
    <path d="M 152.226746 102.923737 
L 152.226746 102.514168 
" clip-path="url(#p2acb0c28cd)" style="fill: none; stroke: #ff7f0e; stroke-width: 1.5"/>
    <path d="M 154.599655 103.833645 
L 154.599655 103.411859 
" clip-path="url(#p2acb0c28cd)" style="fill: none; stroke: #ff7f0e; stroke-width: 1.5"/>
    <path d="M 156.972564 104.757576 
L 156.972564 104.323407 
" clip-path="url(#p2acb0c28cd)" style="fill: none; stroke: #ff7f0e; stroke-width: 1.5"/>
    <path d="M 159.345473 104.920366 
L 159.345473 104.479353 
" clip-path="url(#p2acb0c28cd)" style="fill: none; stroke: #ff7f0e; stroke-width: 1.5"/>
    <path d="M 161.718381 105.266487 
L 161.718381 104.817314 
" clip-path="url(#p2acb0c28cd)" style="fill: none; stroke: #ff7f0e; stroke-width: 1.5"/>
    <path d="M 164.09129 105.578389 
L 164.09129 105.120931 
" clip-path="url(#p2acb0c28cd)" style="fill: none; stroke: #ff7f0e; stroke-width: 1.5"/>
    <path d="M 166.464199 105.016884 
L 166.464199 104.558255 
" clip-path="url(#p2acb0c28cd)" style="fill: none; stroke: #ff7f0e; stroke-width: 1.5"/>
    <path d="M 168.837108 105.567465 
L 168.837108 105.097225 
" clip-path="url(#p2acb0c28cd)" style="fill: none; stroke: #ff7f0e; stroke-width: 1.5"/>
    <path d="M 171.210016 105.769755 
L 171.210016 105.286737 
" clip-path="url(#p2acb0c28cd)" style="fill: none; stroke: #ff7f0e; stroke-width: 1.5"/>
    <path d="M 173.582925 105.968401 
L 173.582925 105.477302 
" clip-path="url(#p2acb0c28cd)" style="fill: none; stroke: #ff7f0e; stroke-width: 1.5"/>
    <path d="M 175.955834 106.199604 
L 175.955834 105.696965 
" clip-path="url(#p2acb0c28cd)" style="fill: none; stroke: #ff7f0e; stroke-width: 1.5"/>
    <path d="M 178.328743 105.923039 
L 178.328743 105.415019 
" clip-path="url(#p2acb0c28cd)" style="fill: none; stroke: #ff7f0e; stroke-width: 1.5"/>
    <path d="M 180.701651 106.593901 
L 180.701651 106.068259 
" clip-path="url(#p2acb0c28cd)" style="fill: none; stroke: #ff7f0e; stroke-width: 1.5"/>
    <path d="M 183.07456 107.238235 
L 183.07456 106.694747 
" clip-path="url(#p2acb0c28cd)" style="fill: none; stroke: #ff7f0e; stroke-width: 1.5"/>
    <path d="M 185.447469 106.71375 
L 185.447469 106.166836 
" clip-path="url(#p2acb0c28cd)" style="fill: none; stroke: #ff7f0e; stroke-width: 1.5"/>
    <path d="M 187.820378 107.155957 
L 187.820378 106.592729 
" clip-path="url(#p2acb0c28cd)" style="fill: none; stroke: #ff7f0e; stroke-width: 1.5"/>
    <path d="M 190.193286 107.15848 
L 190.193286 106.581217 
" clip-path="url(#p2acb0c28cd)" style="fill: none; stroke: #ff7f0e; stroke-width: 1.5"/>
    <path d="M 192.566195 107.432093 
L 192.566195 106.842394 
" clip-path="url(#p2acb0c28cd)" style="fill: none; stroke: #ff7f0e; stroke-width: 1.5"/>
    <path d="M 194.939104 106.857899 
L 194.939104 106.258597 
" clip-path="url(#p2acb0c28cd)" style="fill: none; stroke: #ff7f0e; stroke-width: 1.5"/>
    <path d="M 197.312013 107.310207 
L 197.312013 106.690912 
" clip-path="url(#p2acb0c28cd)" style="fill: none; stroke: #ff7f0e; stroke-width: 1.5"/>
    <path d="M 199.684921 107.964829 
L 199.684921 107.32452 
" clip-path="url(#p2acb0c28cd)" style="fill: none; stroke: #ff7f0e; stroke-width: 1.5"/>
    <path d="M 202.05783 108.369386 
L 202.05783 107.706126 
" clip-path="url(#p2acb0c28cd)" style="fill: none; stroke: #ff7f0e; stroke-width: 1.5"/>
    <path d="M 204.430739 108.204659 
L 204.430739 107.536743 
" clip-path="url(#p2acb0c28cd)" style="fill: none; stroke: #ff7f0e; stroke-width: 1.5"/>
    <path d="M 206.803648 107.597828 
L 206.803648 106.918891 
" clip-path="url(#p2acb0c28cd)" style="fill: none; stroke: #ff7f0e; stroke-width: 1.5"/>
    <path d="M 209.176556 108.603548 
L 209.176556 107.895125 
" clip-path="url(#p2acb0c28cd)" style="fill: none; stroke: #ff7f0e; stroke-width: 1.5"/>
    <path d="M 211.549465 108.884028 
L 211.549465 108.151387 
" clip-path="url(#p2acb0c28cd)" style="fill: none; stroke: #ff7f0e; stroke-width: 1.5"/>
    <path d="M 213.922374 108.994671 
L 213.922374 108.246523 
" clip-path="url(#p2acb0c28cd)" style="fill: none; stroke: #ff7f0e; stroke-width: 1.5"/>
    <path d="M 216.295282 108.767675 
L 216.295282 108.004168 
" clip-path="url(#p2acb0c28cd)" style="fill: none; stroke: #ff7f0e; stroke-width: 1.5"/>
    <path d="M 218.668191 108.474454 
L 218.668191 107.70081 
" clip-path="url(#p2acb0c28cd)" style="fill: none; stroke: #ff7f0e; stroke-width: 1.5"/>
    <path d="M 221.0411 109.418445 
L 221.0411 108.597348 
" clip-path="url(#p2acb0c28cd)" style="fill: none; stroke: #ff7f0e; stroke-width: 1.5"/>
    <path d="M 223.414009 108.87593 
L 223.414009 108.050427 
" clip-path="url(#p2acb0c28cd)" style="fill: none; stroke: #ff7f0e; stroke-width: 1.5"/>
    <path d="M 225.786917 108.874362 
L 225.786917 108.022208 
" clip-path="url(#p2acb0c28cd)" style="fill: none; stroke: #ff7f0e; stroke-width: 1.5"/>
    <path d="M 228.159826 109.811074 
L 228.159826 108.913499 
" clip-path="url(#p2acb0c28cd)" style="fill: none; stroke: #ff7f0e; stroke-width: 1.5"/>
    <path d="M 230.532735 109.48145 
L 230.532735 108.564505 
" clip-path="url(#p2acb0c28cd)" style="fill: none; stroke: #ff7f0e; stroke-width: 1.5"/>
    <path d="M 232.905644 109.110898 
L 232.905644 108.171327 
" clip-path="url(#p2acb0c28cd)" style="fill: none; stroke: #ff7f0e; stroke-width: 1.5"/>
    <path d="M 235.278552 109.920809 
L 235.278552 108.931196 
" clip-path="url(#p2acb0c28cd)" style="fill: none; stroke: #ff7f0e; stroke-width: 1.5"/>
    <path d="M 237.651461 108.871933 
L 237.651461 107.871012 
" clip-path="url(#p2acb0c28cd)" style="fill: none; stroke: #ff7f0e; stroke-width: 1.5"/>
    <path d="M 240.02437 108.247269 
L 240.02437 107.219881 
" clip-path="url(#p2acb0c28cd)" style="fill: none; stroke: #ff7f0e; stroke-width: 1.5"/>
    <path d="M 242.397279 108.977137 
L 242.397279 107.889112 
" clip-path="url(#p2acb0c28cd)" style="fill: none; stroke: #ff7f0e; stroke-width: 1.5"/>
    <path d="M 244.770187 109.121593 
L 244.770187 107.995053 
" clip-path="url(#p2acb0c28cd)" style="fill: none; stroke: #ff7f0e; stroke-width: 1.5"/>
    <path d="M 247.143096 110.168901 
L 247.143096 108.969655 
" clip-path="url(#p2acb0c28cd)" style="fill: none; stroke: #ff7f0e; stroke-width: 1.5"/>
    <path d="M 249.516005 109.308345 
L 249.516005 108.074147 
" clip-path="url(#p2acb0c28cd)" style="fill: none; stroke: #ff7f0e; stroke-width: 1.5"/>
    <path d="M 251.888914 109.881825 
L 251.888914 108.575116 
" clip-path="url(#p2acb0c28cd)" style="fill: none; stroke: #ff7f0e; stroke-width: 1.5"/>
    <path d="M 254.261822 109.04704 
L 254.261822 107.718123 
" clip-path="url(#p2acb0c28cd)" style="fill: none; stroke: #ff7f0e; stroke-width: 1.5"/>
    <path d="M 256.634731 108.225867 
L 256.634731 106.845396 
" clip-path="url(#p2acb0c28cd)" style="fill: none; stroke: #ff7f0e; stroke-width: 1.5"/>
    <path d="M 259.00764 109.585298 
L 259.00764 108.118888 
" clip-path="url(#p2acb0c28cd)" style="fill: none; stroke: #ff7f0e; stroke-width: 1.5"/>
    <path d="M 261.380549 109.486744 
L 261.380549 107.946169 
" clip-path="url(#p2acb0c28cd)" style="fill: none; stroke: #ff7f0e; stroke-width: 1.5"/>
    <path d="M 263.753457 108.764489 
L 263.753457 107.185056 
" clip-path="url(#p2acb0c28cd)" style="fill: none; stroke: #ff7f0e; stroke-width: 1.5"/>
    <path d="M 266.126366 110.138885 
L 266.126366 108.472182 
" clip-path="url(#p2acb0c28cd)" style="fill: none; stroke: #ff7f0e; stroke-width: 1.5"/>
    <path d="M 268.499275 108.415006 
L 268.499275 106.733113 
" clip-path="url(#p2acb0c28cd)" style="fill: none; stroke: #ff7f0e; stroke-width: 1.5"/>
    <path d="M 270.872184 110.944015 
L 270.872184 109.077486 
" clip-path="url(#p2acb0c28cd)" style="fill: none; stroke: #ff7f0e; stroke-width: 1.5"/>
    <path d="M 273.245092 109.075838 
L 273.245092 107.225283 
" clip-path="url(#p2acb0c28cd)" style="fill: none; stroke: #ff7f0e; stroke-width: 1.5"/>
    <path d="M 275.618001 109.76971 
L 275.618001 107.831505 
" clip-path="url(#p2acb0c28cd)" style="fill: none; stroke: #ff7f0e; stroke-width: 1.5"/>
    <path d="M 277.99091 109.065325 
L 277.99091 107.078653 
" clip-path="url(#p2acb0c28cd)" style="fill: none; stroke: #ff7f0e; stroke-width: 1.5"/>
    <path d="M 280.363818 110.542261 
L 280.363818 108.444056 
" clip-path="url(#p2acb0c28cd)" style="fill: none; stroke: #ff7f0e; stroke-width: 1.5"/>
    <path d="M 282.736727 111.229543 
L 282.736727 108.995062 
" clip-path="url(#p2acb0c28cd)" style="fill: none; stroke: #ff7f0e; stroke-width: 1.5"/>
    <path d="M 285.109636 109.291088 
L 285.109636 107.057713 
" clip-path="url(#p2acb0c28cd)" style="fill: none; stroke: #ff7f0e; stroke-width: 1.5"/>
    <path d="M 287.482545 109.97077 
L 287.482545 107.640779 
" clip-path="url(#p2acb0c28cd)" style="fill: none; stroke: #ff7f0e; stroke-width: 1.5"/>
    <path d="M 289.855453 110.805418 
L 289.855453 108.414961 
" clip-path="url(#p2acb0c28cd)" style="fill: none; stroke: #ff7f0e; stroke-width: 1.5"/>
    <path d="M 292.228362 110.412897 
L 292.228362 107.888053 
" clip-path="url(#p2acb0c28cd)" style="fill: none; stroke: #ff7f0e; stroke-width: 1.5"/>
    <path d="M 294.601271 112.454929 
L 294.601271 109.768072 
" clip-path="url(#p2acb0c28cd)" style="fill: none; stroke: #ff7f0e; stroke-width: 1.5"/>
    <path d="M 296.97418 111.037105 
L 296.97418 108.356008 
" clip-path="url(#p2acb0c28cd)" style="fill: none; stroke: #ff7f0e; stroke-width: 1.5"/>
    <path d="M 299.347088 112.720276 
L 299.347088 109.847051 
" clip-path="url(#p2acb0c28cd)" style="fill: none; stroke: #ff7f0e; stroke-width: 1.5"/>
    <path d="M 301.719997 108.854188 
L 301.719997 106.059072 
" clip-path="url(#p2acb0c28cd)" style="fill: none; stroke: #ff7f0e; stroke-width: 1.5"/>
    <path d="M 304.092906 113.891941 
L 304.092906 110.688564 
" clip-path="url(#p2acb0c28cd)" style="fill: none; stroke: #ff7f0e; stroke-width: 1.5"/>
    <path d="M 306.465815 113.293481 
L 306.465815 109.966031 
" clip-path="url(#p2acb0c28cd)" style="fill: none; stroke: #ff7f0e; stroke-width: 1.5"/>
    <path d="M 308.838723 110.347114 
L 308.838723 107.142608 
" clip-path="url(#p2acb0c28cd)" style="fill: none; stroke: #ff7f0e; stroke-width: 1.5"/>
    <path d="M 311.211632 109.878468 
L 311.211632 106.529439 
" clip-path="url(#p2acb0c28cd)" style="fill: none; stroke: #ff7f0e; stroke-width: 1.5"/>
    <path d="M 313.584541 109.413421 
L 313.584541 105.903406 
" clip-path="url(#p2acb0c28cd)" style="fill: none; stroke: #ff7f0e; stroke-width: 1.5"/>
    <path d="M 315.95745 112.037906 
L 315.95745 108.146375 
" clip-path="url(#p2acb0c28cd)" style="fill: none; stroke: #ff7f0e; stroke-width: 1.5"/>
    <path d="M 318.330358 112.604287 
L 318.330358 108.468051 
" clip-path="url(#p2acb0c28cd)" style="fill: none; stroke: #ff7f0e; stroke-width: 1.5"/>
    <path d="M 320.703267 109.974552 
L 320.703267 105.913049 
" clip-path="url(#p2acb0c28cd)" style="fill: none; stroke: #ff7f0e; stroke-width: 1.5"/>
    <path d="M 323.076176 109.171755 
L 323.076176 105.049574 
" clip-path="url(#p2acb0c28cd)" style="fill: none; stroke: #ff7f0e; stroke-width: 1.5"/>
    <path d="M 325.449085 117.786015 
L 325.449085 112.411765 
" clip-path="url(#p2acb0c28cd)" style="fill: none; stroke: #ff7f0e; stroke-width: 1.5"/>
    <path d="M 327.821993 115.45153 
L 327.821993 110.265352 
" clip-path="url(#p2acb0c28cd)" style="fill: none; stroke: #ff7f0e; stroke-width: 1.5"/>
    <path d="M 330.194902 117.074107 
L 330.194902 111.614485 
" clip-path="url(#p2acb0c28cd)" style="fill: none; stroke: #ff7f0e; stroke-width: 1.5"/>
    <path d="M 332.567811 119.662872 
L 332.567811 113.750735 
" clip-path="url(#p2acb0c28cd)" style="fill: none; stroke: #ff7f0e; stroke-width: 1.5"/>
    <path d="M 334.94072 111.598846 
L 334.94072 106.111005 
" clip-path="url(#p2acb0c28cd)" style="fill: none; stroke: #ff7f0e; stroke-width: 1.5"/>
    <path d="M 337.313628 115.024145 
L 337.313628 109.075844 
" clip-path="url(#p2acb0c28cd)" style="fill: none; stroke: #ff7f0e; stroke-width: 1.5"/>
    <path d="M 339.686537 116.782058 
L 339.686537 110.25239 
" clip-path="url(#p2acb0c28cd)" style="fill: none; stroke: #ff7f0e; stroke-width: 1.5"/>
    <path d="M 342.059446 110.35438 
L 342.059446 104.370343 
" clip-path="url(#p2acb0c28cd)" style="fill: none; stroke: #ff7f0e; stroke-width: 1.5"/>
    <path d="M 344.432354 114.440216 
L 344.432354 108.008813 
" clip-path="url(#p2acb0c28cd)" style="fill: none; stroke: #ff7f0e; stroke-width: 1.5"/>
    <path d="M 346.805263 119.92527 
L 346.805263 111.674991 
" clip-path="url(#p2acb0c28cd)" style="fill: none; stroke: #ff7f0e; stroke-width: 1.5"/>
    <path d="M 349.178172 119.506623 
L 349.178172 110.855526 
" clip-path="url(#p2acb0c28cd)" style="fill: none; stroke: #ff7f0e; stroke-width: 1.5"/>
    <path d="M 351.551081 113.380774 
L 351.551081 105.818424 
" clip-path="url(#p2acb0c28cd)" style="fill: none; stroke: #ff7f0e; stroke-width: 1.5"/>
    <path d="M 353.923989 119.347498 
L 353.923989 110.13266 
" clip-path="url(#p2acb0c28cd)" style="fill: none; stroke: #ff7f0e; stroke-width: 1.5"/>
    <path d="M 356.296898 115.550057 
L 356.296898 106.884385 
" clip-path="url(#p2acb0c28cd)" style="fill: none; stroke: #ff7f0e; stroke-width: 1.5"/>
    <path d="M 358.669807 111.746352 
L 358.669807 103.30108 
" clip-path="url(#p2acb0c28cd)" style="fill: none; stroke: #ff7f0e; stroke-width: 1.5"/>
    <path d="M 361.042716 118.212811 
L 361.042716 108.784261 
" clip-path="url(#p2acb0c28cd)" style="fill: none; stroke: #ff7f0e; stroke-width: 1.5"/>
    <path d="M 363.415624 114.556149 
L 363.415624 105.120227 
" clip-path="url(#p2acb0c28cd)" style="fill: none; stroke: #ff7f0e; stroke-width: 1.5"/>
    <path d="M 365.788533 122.315641 
L 365.788533 111.208034 
" clip-path="url(#p2acb0c28cd)" style="fill: none; stroke: #ff7f0e; stroke-width: 1.5"/>
    <path d="M 368.161442 117.364861 
L 368.161442 106.706303 
" clip-path="url(#p2acb0c28cd)" style="fill: none; stroke: #ff7f0e; stroke-width: 1.5"/>
    <path d="M 370.534351 110.247698 
L 370.534351 100.171819 
" clip-path="url(#p2acb0c28cd)" style="fill: none; stroke: #ff7f0e; stroke-width: 1.5"/>
    <path d="M 372.907259 105.483481 
L 372.907259 95.74097 
" clip-path="url(#p2acb0c28cd)" style="fill: none; stroke: #ff7f0e; stroke-width: 1.5"/>
    <path d="M 375.280168 120.776128 
L 375.280168 106.609462 
" clip-path="url(#p2acb0c28cd)" style="fill: none; stroke: #ff7f0e; stroke-width: 1.5"/>
    <path d="M 377.653077 110.031075 
L 377.653077 97.497797 
" clip-path="url(#p2acb0c28cd)" style="fill: none; stroke: #ff7f0e; stroke-width: 1.5"/>
    <path d="M 380.025986 114.677009 
L 380.025986 99.073474 
" clip-path="url(#p2acb0c28cd)" style="fill: none; stroke: #ff7f0e; stroke-width: 1.5"/>
    <path d="M 382.398894 124.14604 
L 382.398894 104.522523 
" clip-path="url(#p2acb0c28cd)" style="fill: none; stroke: #ff7f0e; stroke-width: 1.5"/>
    <path d="M 384.771803 132.376705 
L 384.771803 106.676927 
" clip-path="url(#p2acb0c28cd)" style="fill: none; stroke: #ff7f0e; stroke-width: 1.5"/>
    <path d="M 387.144712 130.115618 
L 387.144712 107.010951 
" clip-path="url(#p2acb0c28cd)" style="fill: none; stroke: #ff7f0e; stroke-width: 1.5"/>
    <path d="M 389.517621 138.521089 
L 389.517621 109.24469 
" clip-path="url(#p2acb0c28cd)" style="fill: none; stroke: #ff7f0e; stroke-width: 1.5"/>
    <path d="M 391.890529 138.259004 
L 391.890529 95.967907 
" clip-path="url(#p2acb0c28cd)" style="fill: none; stroke: #ff7f0e; stroke-width: 1.5"/>
    <path d="M 394.263438 139.462653 
L 394.263438 95.354521 
" clip-path="url(#p2acb0c28cd)" style="fill: none; stroke: #ff7f0e; stroke-width: 1.5"/>
    <path d="M 396.636347 138.57943 
L 396.636347 91.604811 
" clip-path="url(#p2acb0c28cd)" style="fill: none; stroke: #ff7f0e; stroke-width: 1.5"/>
    <path clip-path="url(#p2acb0c28cd)" style="fill: none; stroke: #ff7f0e; stroke-width: 1.5"/>
   </g>
  </g>
 </g>
 <defs>
  <clipPath id="p2acb0c28cd">
   <rect x="51.378125" y="7.2" width="365.427946" height="234.4525"/>
  </clipPath>
 </defs>
</svg>
