<?xml version="1.0" encoding="utf-8" standalone="no"?>
<!DOCTYPE svg PUBLIC "-//W3C//DTD SVG 1.1//EN"
  "http://www.w3.org/Graphics/SVG/1.1/DTD/svg11.dtd">
<svg xmlns:xlink="http://www.w3.org/1999/xlink" width="387.478125pt" height="267.439687pt" viewBox="0 0 387.478125 267.439687" xmlns="http://www.w3.org/2000/svg" version="1.1">
 <metadata>
  <rdf:RDF xmlns:dc="http://purl.org/dc/elements/1.1/" xmlns:cc="http://creativecommons.org/ns#" xmlns:rdf="http://www.w3.org/1999/02/22-rdf-syntax-ns#">
   <cc:Work>
    <dc:type rdf:resource="http://purl.org/dc/dcmitype/StillImage"/>
    <dc:date>2024-10-15T08:14:20.068474</dc:date>
    <dc:format>image/svg+xml</dc:format>
    <dc:creator>
     <cc:Agent>
      <dc:title>Matplotlib v3.9.2, https://matplotlib.org/</dc:title>
     </cc:Agent>
    </dc:creator>
   </cc:Work>
  </rdf:RDF>
 </metadata>
 <defs>
  <style type="text/css">*{stroke-linejoin: round; stroke-linecap: butt}</style>
 </defs>
 <g id="figure_1">
  <g id="patch_1">
   <path d="M 0 267.439687 
L 387.478125 267.439687 
L 387.478125 0 
L 0 0 
z
" style="fill: #ffffff"/>
  </g>
  <g id="axes_1">
   <g id="patch_2">
    <path d="M 45.478125 228.96 
L 380.278125 228.96 
L 380.278125 7.2 
L 45.478125 7.2 
z
" style="fill: #ffffff"/>
   </g>
   <g id="matplotlib.axis_1">
    <g id="xtick_1">
     <g id="line2d_1">
      <defs>
       <path id="m0d32e85dcd" d="M 0 0 
L 0 3.5 
" style="stroke: #000000; stroke-width: 0.8"/>
      </defs>
      <g>
       <use xlink:href="#m0d32e85dcd" x="60.696307" y="228.96" style="stroke: #000000; stroke-width: 0.8"/>
      </g>
     </g>
     <g id="text_1">
      <!-- $\mathdefault{10^{-2}}$ -->
      <g transform="translate(48.946307 243.558437) scale(0.1 -0.1)">
       <defs>
        <path id="DejaVuSans-31" d="M 794 531 
L 1825 531 
L 1825 4091 
L 703 3866 
L 703 4441 
L 1819 4666 
L 2450 4666 
L 2450 531 
L 3481 531 
L 3481 0 
L 794 0 
L 794 531 
z
" transform="scale(0.015625)"/>
        <path id="DejaVuSans-30" d="M 2034 4250 
Q 1547 4250 1301 3770 
Q 1056 3291 1056 2328 
Q 1056 1369 1301 889 
Q 1547 409 2034 409 
Q 2525 409 2770 889 
Q 3016 1369 3016 2328 
Q 3016 3291 2770 3770 
Q 2525 4250 2034 4250 
z
M 2034 4750 
Q 2819 4750 3233 4129 
Q 3647 3509 3647 2328 
Q 3647 1150 3233 529 
Q 2819 -91 2034 -91 
Q 1250 -91 836 529 
Q 422 1150 422 2328 
Q 422 3509 836 4129 
Q 1250 4750 2034 4750 
z
" transform="scale(0.015625)"/>
        <path id="DejaVuSans-2212" d="M 678 2272 
L 4684 2272 
L 4684 1741 
L 678 1741 
L 678 2272 
z
" transform="scale(0.015625)"/>
        <path id="DejaVuSans-32" d="M 1228 531 
L 3431 531 
L 3431 0 
L 469 0 
L 469 531 
Q 828 903 1448 1529 
Q 2069 2156 2228 2338 
Q 2531 2678 2651 2914 
Q 2772 3150 2772 3378 
Q 2772 3750 2511 3984 
Q 2250 4219 1831 4219 
Q 1534 4219 1204 4116 
Q 875 4013 500 3803 
L 500 4441 
Q 881 4594 1212 4672 
Q 1544 4750 1819 4750 
Q 2544 4750 2975 4387 
Q 3406 4025 3406 3419 
Q 3406 3131 3298 2873 
Q 3191 2616 2906 2266 
Q 2828 2175 2409 1742 
Q 1991 1309 1228 531 
z
" transform="scale(0.015625)"/>
       </defs>
       <use xlink:href="#DejaVuSans-31" transform="translate(0 0.765625)"/>
       <use xlink:href="#DejaVuSans-30" transform="translate(63.623047 0.765625)"/>
       <use xlink:href="#DejaVuSans-2212" transform="translate(128.203125 39.046875) scale(0.7)"/>
       <use xlink:href="#DejaVuSans-32" transform="translate(186.855469 39.046875) scale(0.7)"/>
      </g>
     </g>
    </g>
    <g id="xtick_2">
     <g id="line2d_2">
      <g>
       <use xlink:href="#m0d32e85dcd" x="231.864893" y="228.96" style="stroke: #000000; stroke-width: 0.8"/>
      </g>
     </g>
     <g id="text_2">
      <!-- $\mathdefault{10^{-1}}$ -->
      <g transform="translate(220.114893 243.558437) scale(0.1 -0.1)">
       <use xlink:href="#DejaVuSans-31" transform="translate(0 0.684375)"/>
       <use xlink:href="#DejaVuSans-30" transform="translate(63.623047 0.684375)"/>
       <use xlink:href="#DejaVuSans-2212" transform="translate(128.203125 38.965625) scale(0.7)"/>
       <use xlink:href="#DejaVuSans-31" transform="translate(186.855469 38.965625) scale(0.7)"/>
      </g>
     </g>
    </g>
    <g id="xtick_3">
     <g id="line2d_3">
      <defs>
       <path id="m6123da10e4" d="M 0 0 
L 0 2 
" style="stroke: #000000; stroke-width: 0.6"/>
      </defs>
      <g>
       <use xlink:href="#m6123da10e4" x="52.864062" y="228.96" style="stroke: #000000; stroke-width: 0.6"/>
      </g>
     </g>
    </g>
    <g id="xtick_4">
     <g id="line2d_4">
      <g>
       <use xlink:href="#m6123da10e4" x="112.223186" y="228.96" style="stroke: #000000; stroke-width: 0.6"/>
      </g>
     </g>
    </g>
    <g id="xtick_5">
     <g id="line2d_5">
      <g>
       <use xlink:href="#m6123da10e4" x="142.364478" y="228.96" style="stroke: #000000; stroke-width: 0.6"/>
      </g>
     </g>
    </g>
    <g id="xtick_6">
     <g id="line2d_6">
      <g>
       <use xlink:href="#m6123da10e4" x="163.750065" y="228.96" style="stroke: #000000; stroke-width: 0.6"/>
      </g>
     </g>
    </g>
    <g id="xtick_7">
     <g id="line2d_7">
      <g>
       <use xlink:href="#m6123da10e4" x="180.338015" y="228.96" style="stroke: #000000; stroke-width: 0.6"/>
      </g>
     </g>
    </g>
    <g id="xtick_8">
     <g id="line2d_8">
      <g>
       <use xlink:href="#m6123da10e4" x="193.891357" y="228.96" style="stroke: #000000; stroke-width: 0.6"/>
      </g>
     </g>
    </g>
    <g id="xtick_9">
     <g id="line2d_9">
      <g>
       <use xlink:href="#m6123da10e4" x="205.350544" y="228.96" style="stroke: #000000; stroke-width: 0.6"/>
      </g>
     </g>
    </g>
    <g id="xtick_10">
     <g id="line2d_10">
      <g>
       <use xlink:href="#m6123da10e4" x="215.276944" y="228.96" style="stroke: #000000; stroke-width: 0.6"/>
      </g>
     </g>
    </g>
    <g id="xtick_11">
     <g id="line2d_11">
      <g>
       <use xlink:href="#m6123da10e4" x="224.032648" y="228.96" style="stroke: #000000; stroke-width: 0.6"/>
      </g>
     </g>
    </g>
    <g id="xtick_12">
     <g id="line2d_12">
      <g>
       <use xlink:href="#m6123da10e4" x="283.391772" y="228.96" style="stroke: #000000; stroke-width: 0.6"/>
      </g>
     </g>
    </g>
    <g id="xtick_13">
     <g id="line2d_13">
      <g>
       <use xlink:href="#m6123da10e4" x="313.533064" y="228.96" style="stroke: #000000; stroke-width: 0.6"/>
      </g>
     </g>
    </g>
    <g id="xtick_14">
     <g id="line2d_14">
      <g>
       <use xlink:href="#m6123da10e4" x="334.918651" y="228.96" style="stroke: #000000; stroke-width: 0.6"/>
      </g>
     </g>
    </g>
    <g id="xtick_15">
     <g id="line2d_15">
      <g>
       <use xlink:href="#m6123da10e4" x="351.506601" y="228.96" style="stroke: #000000; stroke-width: 0.6"/>
      </g>
     </g>
    </g>
    <g id="xtick_16">
     <g id="line2d_16">
      <g>
       <use xlink:href="#m6123da10e4" x="365.059943" y="228.96" style="stroke: #000000; stroke-width: 0.6"/>
      </g>
     </g>
    </g>
    <g id="xtick_17">
     <g id="line2d_17">
      <g>
       <use xlink:href="#m6123da10e4" x="376.519131" y="228.96" style="stroke: #000000; stroke-width: 0.6"/>
      </g>
     </g>
    </g>
    <g id="text_3">
     <!-- Q [1/Å] -->
     <g transform="translate(195.165625 258.16) scale(0.1 -0.1)">
      <defs>
       <path id="DejaVuSans-51" d="M 2522 4238 
Q 1834 4238 1429 3725 
Q 1025 3213 1025 2328 
Q 1025 1447 1429 934 
Q 1834 422 2522 422 
Q 3209 422 3611 934 
Q 4013 1447 4013 2328 
Q 4013 3213 3611 3725 
Q 3209 4238 2522 4238 
z
M 3406 84 
L 4238 -825 
L 3475 -825 
L 2784 -78 
Q 2681 -84 2626 -87 
Q 2572 -91 2522 -91 
Q 1538 -91 948 567 
Q 359 1225 359 2328 
Q 359 3434 948 4092 
Q 1538 4750 2522 4750 
Q 3503 4750 4090 4092 
Q 4678 3434 4678 2328 
Q 4678 1516 4351 937 
Q 4025 359 3406 84 
z
" transform="scale(0.015625)"/>
       <path id="DejaVuSans-20" transform="scale(0.015625)"/>
       <path id="DejaVuSans-5b" d="M 550 4863 
L 1875 4863 
L 1875 4416 
L 1125 4416 
L 1125 -397 
L 1875 -397 
L 1875 -844 
L 550 -844 
L 550 4863 
z
" transform="scale(0.015625)"/>
       <path id="DejaVuSans-2f" d="M 1625 4666 
L 2156 4666 
L 531 -594 
L 0 -594 
L 1625 4666 
z
" transform="scale(0.015625)"/>
       <path id="DejaVuSans-c5" d="M 2663 5081 
Q 2663 5278 2523 5417 
Q 2384 5556 2188 5556 
Q 1988 5556 1852 5420 
Q 1716 5284 1716 5081 
Q 1716 4884 1853 4746 
Q 1991 4609 2188 4609 
Q 2384 4609 2523 4746 
Q 2663 4884 2663 5081 
z
M 2188 4044 
L 1338 1722 
L 3041 1722 
L 2188 4044 
z
M 1716 4366 
Q 1525 4494 1428 4673 
Q 1331 4853 1331 5081 
Q 1331 5441 1579 5691 
Q 1828 5941 2188 5941 
Q 2544 5941 2795 5689 
Q 3047 5438 3047 5081 
Q 3047 4863 2948 4678 
Q 2850 4494 2663 4366 
L 4325 0 
L 3669 0 
L 3244 1197 
L 1141 1197 
L 716 0 
L 50 0 
L 1716 4366 
z
" transform="scale(0.015625)"/>
       <path id="DejaVuSans-5d" d="M 1947 4863 
L 1947 -844 
L 622 -844 
L 622 -397 
L 1369 -397 
L 1369 4416 
L 622 4416 
L 622 4863 
L 1947 4863 
z
" transform="scale(0.015625)"/>
      </defs>
      <use xlink:href="#DejaVuSans-51"/>
      <use xlink:href="#DejaVuSans-20" x="78.710938"/>
      <use xlink:href="#DejaVuSans-5b" x="110.498047"/>
      <use xlink:href="#DejaVuSans-31" x="149.511719"/>
      <use xlink:href="#DejaVuSans-2f" x="213.134766"/>
      <use xlink:href="#DejaVuSans-c5" x="246.826172"/>
      <use xlink:href="#DejaVuSans-5d" x="315.234375"/>
     </g>
    </g>
   </g>
   <g id="matplotlib.axis_2">
    <g id="ytick_1">
     <g id="line2d_18">
      <defs>
       <path id="m565f36ee86" d="M 0 0 
L -3.5 0 
" style="stroke: #000000; stroke-width: 0.8"/>
      </defs>
      <g>
       <use xlink:href="#m565f36ee86" x="45.478125" y="170.060086" style="stroke: #000000; stroke-width: 0.8"/>
      </g>
     </g>
     <g id="text_4">
      <!-- $\mathdefault{10^{1}}$ -->
      <g transform="translate(20.878125 173.859305) scale(0.1 -0.1)">
       <use xlink:href="#DejaVuSans-31" transform="translate(0 0.684375)"/>
       <use xlink:href="#DejaVuSans-30" transform="translate(63.623047 0.684375)"/>
       <use xlink:href="#DejaVuSans-31" transform="translate(128.203125 38.965625) scale(0.7)"/>
      </g>
     </g>
    </g>
    <g id="ytick_2">
     <g id="line2d_19">
      <g>
       <use xlink:href="#m565f36ee86" x="45.478125" y="78.148133" style="stroke: #000000; stroke-width: 0.8"/>
      </g>
     </g>
     <g id="text_5">
      <!-- $\mathdefault{10^{2}}$ -->
      <g transform="translate(20.878125 81.947352) scale(0.1 -0.1)">
       <use xlink:href="#DejaVuSans-31" transform="translate(0 0.765625)"/>
       <use xlink:href="#DejaVuSans-30" transform="translate(63.623047 0.765625)"/>
       <use xlink:href="#DejaVuSans-32" transform="translate(128.203125 39.046875) scale(0.7)"/>
      </g>
     </g>
    </g>
    <g id="ytick_3">
     <g id="line2d_20">
      <defs>
       <path id="m95271999cc" d="M 0 0 
L -2 0 
" style="stroke: #000000; stroke-width: 0.6"/>
      </defs>
      <g>
       <use xlink:href="#m95271999cc" x="45.478125" y="218.118893" style="stroke: #000000; stroke-width: 0.6"/>
      </g>
     </g>
    </g>
    <g id="ytick_4">
     <g id="line2d_21">
      <g>
       <use xlink:href="#m95271999cc" x="45.478125" y="206.635529" style="stroke: #000000; stroke-width: 0.6"/>
      </g>
     </g>
    </g>
    <g id="ytick_5">
     <g id="line2d_22">
      <g>
       <use xlink:href="#m95271999cc" x="45.478125" y="197.728341" style="stroke: #000000; stroke-width: 0.6"/>
      </g>
     </g>
    </g>
    <g id="ytick_6">
     <g id="line2d_23">
      <g>
       <use xlink:href="#m95271999cc" x="45.478125" y="190.450638" style="stroke: #000000; stroke-width: 0.6"/>
      </g>
     </g>
    </g>
    <g id="ytick_7">
     <g id="line2d_24">
      <g>
       <use xlink:href="#m95271999cc" x="45.478125" y="184.297428" style="stroke: #000000; stroke-width: 0.6"/>
      </g>
     </g>
    </g>
    <g id="ytick_8">
     <g id="line2d_25">
      <g>
       <use xlink:href="#m95271999cc" x="45.478125" y="178.967275" style="stroke: #000000; stroke-width: 0.6"/>
      </g>
     </g>
    </g>
    <g id="ytick_9">
     <g id="line2d_26">
      <g>
       <use xlink:href="#m95271999cc" x="45.478125" y="174.265746" style="stroke: #000000; stroke-width: 0.6"/>
      </g>
     </g>
    </g>
    <g id="ytick_10">
     <g id="line2d_27">
      <g>
       <use xlink:href="#m95271999cc" x="45.478125" y="142.391831" style="stroke: #000000; stroke-width: 0.6"/>
      </g>
     </g>
    </g>
    <g id="ytick_11">
     <g id="line2d_28">
      <g>
       <use xlink:href="#m95271999cc" x="45.478125" y="126.20694" style="stroke: #000000; stroke-width: 0.6"/>
      </g>
     </g>
    </g>
    <g id="ytick_12">
     <g id="line2d_29">
      <g>
       <use xlink:href="#m95271999cc" x="45.478125" y="114.723576" style="stroke: #000000; stroke-width: 0.6"/>
      </g>
     </g>
    </g>
    <g id="ytick_13">
     <g id="line2d_30">
      <g>
       <use xlink:href="#m95271999cc" x="45.478125" y="105.816388" style="stroke: #000000; stroke-width: 0.6"/>
      </g>
     </g>
    </g>
    <g id="ytick_14">
     <g id="line2d_31">
      <g>
       <use xlink:href="#m95271999cc" x="45.478125" y="98.538685" style="stroke: #000000; stroke-width: 0.6"/>
      </g>
     </g>
    </g>
    <g id="ytick_15">
     <g id="line2d_32">
      <g>
       <use xlink:href="#m95271999cc" x="45.478125" y="92.385474" style="stroke: #000000; stroke-width: 0.6"/>
      </g>
     </g>
    </g>
    <g id="ytick_16">
     <g id="line2d_33">
      <g>
       <use xlink:href="#m95271999cc" x="45.478125" y="87.055321" style="stroke: #000000; stroke-width: 0.6"/>
      </g>
     </g>
    </g>
    <g id="ytick_17">
     <g id="line2d_34">
      <g>
       <use xlink:href="#m95271999cc" x="45.478125" y="82.353793" style="stroke: #000000; stroke-width: 0.6"/>
      </g>
     </g>
    </g>
    <g id="ytick_18">
     <g id="line2d_35">
      <g>
       <use xlink:href="#m95271999cc" x="45.478125" y="50.479878" style="stroke: #000000; stroke-width: 0.6"/>
      </g>
     </g>
    </g>
    <g id="ytick_19">
     <g id="line2d_36">
      <g>
       <use xlink:href="#m95271999cc" x="45.478125" y="34.294986" style="stroke: #000000; stroke-width: 0.6"/>
      </g>
     </g>
    </g>
    <g id="ytick_20">
     <g id="line2d_37">
      <g>
       <use xlink:href="#m95271999cc" x="45.478125" y="22.811623" style="stroke: #000000; stroke-width: 0.6"/>
      </g>
     </g>
    </g>
    <g id="ytick_21">
     <g id="line2d_38">
      <g>
       <use xlink:href="#m95271999cc" x="45.478125" y="13.904434" style="stroke: #000000; stroke-width: 0.6"/>
      </g>
     </g>
    </g>
    <g id="text_6">
     <!-- [dimensionless] -->
     <g transform="translate(14.798438 157.557344) rotate(-90) scale(0.1 -0.1)">
      <defs>
       <path id="DejaVuSans-64" d="M 2906 2969 
L 2906 4863 
L 3481 4863 
L 3481 0 
L 2906 0 
L 2906 525 
Q 2725 213 2448 61 
Q 2172 -91 1784 -91 
Q 1150 -91 751 415 
Q 353 922 353 1747 
Q 353 2572 751 3078 
Q 1150 3584 1784 3584 
Q 2172 3584 2448 3432 
Q 2725 3281 2906 2969 
z
M 947 1747 
Q 947 1113 1208 752 
Q 1469 391 1925 391 
Q 2381 391 2643 752 
Q 2906 1113 2906 1747 
Q 2906 2381 2643 2742 
Q 2381 3103 1925 3103 
Q 1469 3103 1208 2742 
Q 947 2381 947 1747 
z
" transform="scale(0.015625)"/>
       <path id="DejaVuSans-69" d="M 603 3500 
L 1178 3500 
L 1178 0 
L 603 0 
L 603 3500 
z
M 603 4863 
L 1178 4863 
L 1178 4134 
L 603 4134 
L 603 4863 
z
" transform="scale(0.015625)"/>
       <path id="DejaVuSans-6d" d="M 3328 2828 
Q 3544 3216 3844 3400 
Q 4144 3584 4550 3584 
Q 5097 3584 5394 3201 
Q 5691 2819 5691 2113 
L 5691 0 
L 5113 0 
L 5113 2094 
Q 5113 2597 4934 2840 
Q 4756 3084 4391 3084 
Q 3944 3084 3684 2787 
Q 3425 2491 3425 1978 
L 3425 0 
L 2847 0 
L 2847 2094 
Q 2847 2600 2669 2842 
Q 2491 3084 2119 3084 
Q 1678 3084 1418 2786 
Q 1159 2488 1159 1978 
L 1159 0 
L 581 0 
L 581 3500 
L 1159 3500 
L 1159 2956 
Q 1356 3278 1631 3431 
Q 1906 3584 2284 3584 
Q 2666 3584 2933 3390 
Q 3200 3197 3328 2828 
z
" transform="scale(0.015625)"/>
       <path id="DejaVuSans-65" d="M 3597 1894 
L 3597 1613 
L 953 1613 
Q 991 1019 1311 708 
Q 1631 397 2203 397 
Q 2534 397 2845 478 
Q 3156 559 3463 722 
L 3463 178 
Q 3153 47 2828 -22 
Q 2503 -91 2169 -91 
Q 1331 -91 842 396 
Q 353 884 353 1716 
Q 353 2575 817 3079 
Q 1281 3584 2069 3584 
Q 2775 3584 3186 3129 
Q 3597 2675 3597 1894 
z
M 3022 2063 
Q 3016 2534 2758 2815 
Q 2500 3097 2075 3097 
Q 1594 3097 1305 2825 
Q 1016 2553 972 2059 
L 3022 2063 
z
" transform="scale(0.015625)"/>
       <path id="DejaVuSans-6e" d="M 3513 2113 
L 3513 0 
L 2938 0 
L 2938 2094 
Q 2938 2591 2744 2837 
Q 2550 3084 2163 3084 
Q 1697 3084 1428 2787 
Q 1159 2491 1159 1978 
L 1159 0 
L 581 0 
L 581 3500 
L 1159 3500 
L 1159 2956 
Q 1366 3272 1645 3428 
Q 1925 3584 2291 3584 
Q 2894 3584 3203 3211 
Q 3513 2838 3513 2113 
z
" transform="scale(0.015625)"/>
       <path id="DejaVuSans-73" d="M 2834 3397 
L 2834 2853 
Q 2591 2978 2328 3040 
Q 2066 3103 1784 3103 
Q 1356 3103 1142 2972 
Q 928 2841 928 2578 
Q 928 2378 1081 2264 
Q 1234 2150 1697 2047 
L 1894 2003 
Q 2506 1872 2764 1633 
Q 3022 1394 3022 966 
Q 3022 478 2636 193 
Q 2250 -91 1575 -91 
Q 1294 -91 989 -36 
Q 684 19 347 128 
L 347 722 
Q 666 556 975 473 
Q 1284 391 1588 391 
Q 1994 391 2212 530 
Q 2431 669 2431 922 
Q 2431 1156 2273 1281 
Q 2116 1406 1581 1522 
L 1381 1569 
Q 847 1681 609 1914 
Q 372 2147 372 2553 
Q 372 3047 722 3315 
Q 1072 3584 1716 3584 
Q 2034 3584 2315 3537 
Q 2597 3491 2834 3397 
z
" transform="scale(0.015625)"/>
       <path id="DejaVuSans-6f" d="M 1959 3097 
Q 1497 3097 1228 2736 
Q 959 2375 959 1747 
Q 959 1119 1226 758 
Q 1494 397 1959 397 
Q 2419 397 2687 759 
Q 2956 1122 2956 1747 
Q 2956 2369 2687 2733 
Q 2419 3097 1959 3097 
z
M 1959 3584 
Q 2709 3584 3137 3096 
Q 3566 2609 3566 1747 
Q 3566 888 3137 398 
Q 2709 -91 1959 -91 
Q 1206 -91 779 398 
Q 353 888 353 1747 
Q 353 2609 779 3096 
Q 1206 3584 1959 3584 
z
" transform="scale(0.015625)"/>
       <path id="DejaVuSans-6c" d="M 603 4863 
L 1178 4863 
L 1178 0 
L 603 0 
L 603 4863 
z
" transform="scale(0.015625)"/>
      </defs>
      <use xlink:href="#DejaVuSans-5b"/>
      <use xlink:href="#DejaVuSans-64" x="39.013672"/>
      <use xlink:href="#DejaVuSans-69" x="102.490234"/>
      <use xlink:href="#DejaVuSans-6d" x="130.273438"/>
      <use xlink:href="#DejaVuSans-65" x="227.685547"/>
      <use xlink:href="#DejaVuSans-6e" x="289.208984"/>
      <use xlink:href="#DejaVuSans-73" x="352.587891"/>
      <use xlink:href="#DejaVuSans-69" x="404.6875"/>
      <use xlink:href="#DejaVuSans-6f" x="432.470703"/>
      <use xlink:href="#DejaVuSans-6e" x="493.652344"/>
      <use xlink:href="#DejaVuSans-6c" x="557.03125"/>
      <use xlink:href="#DejaVuSans-65" x="584.814453"/>
      <use xlink:href="#DejaVuSans-73" x="646.337891"/>
      <use xlink:href="#DejaVuSans-73" x="698.4375"/>
      <use xlink:href="#DejaVuSans-5d" x="750.537109"/>
     </g>
    </g>
   </g>
   <g id="patch_3">
    <path d="M 45.478125 228.96 
L 45.478125 7.2 
" style="fill: none; stroke: #000000; stroke-width: 0.8; stroke-linejoin: miter; stroke-linecap: square"/>
   </g>
   <g id="patch_4">
    <path d="M 380.278125 228.96 
L 380.278125 7.2 
" style="fill: none; stroke: #000000; stroke-width: 0.8; stroke-linejoin: miter; stroke-linecap: square"/>
   </g>
   <g id="patch_5">
    <path d="M 45.478125 228.96 
L 380.278125 228.96 
" style="fill: none; stroke: #000000; stroke-width: 0.8; stroke-linejoin: miter; stroke-linecap: square"/>
   </g>
   <g id="patch_6">
    <path d="M 45.478125 7.2 
L 380.278125 7.2 
" style="fill: none; stroke: #000000; stroke-width: 0.8; stroke-linejoin: miter; stroke-linecap: square"/>
   </g>
   <g id="line2d_39">
    <path d="M 60.696307 56.586872 
L 60.696307 56.586872 
L 111.60111 56.586872 
L 111.60111 52.46953 
L 141.533882 52.46953 
L 141.533882 47.16024 
L 162.814988 47.16024 
L 162.814988 40.412101 
L 179.34018 40.412101 
L 179.34018 30.790968 
L 192.851653 30.790968 
L 192.851653 21.437797 
L 204.28092 21.437797 
L 204.28092 17.445427 
L 214.184871 17.445427 
L 214.184871 25.281102 
L 222.923112 25.281102 
L 222.923112 44.594737 
L 230.741382 44.594737 
L 230.741382 68.340663 
L 237.815074 68.340663 
L 237.815074 90.876989 
L 244.273758 90.876989 
L 244.273758 109.888935 
L 250.215872 109.888935 
L 250.215872 125.108144 
L 255.717965 125.108144 
L 255.717965 136.035403 
L 260.840735 136.035403 
L 260.840735 142.918828 
L 265.633128 142.918828 
L 265.633128 146.238311 
L 270.135188 146.238311 
L 270.135188 148.030547 
L 274.380092 148.030547 
L 274.380092 148.577259 
L 278.395637 148.577259 
L 278.395637 149.302195 
L 282.205343 149.302195 
L 282.205343 149.739279 
L 285.829288 149.739279 
L 285.829288 151.294162 
L 289.284748 151.294162 
L 289.284748 151.59753 
L 292.586696 151.59753 
L 292.586696 151.584473 
L 295.748194 151.584473 
L 295.748194 153.126619 
L 298.780703 153.126619 
L 298.780703 152.942469 
L 301.694339 152.942469 
L 301.694339 154.281586 
L 304.498069 154.281586 
L 304.498069 154.311943 
L 307.199886 154.311943 
L 307.199886 154.978247 
L 309.806939 154.978247 
L 309.806939 155.772953 
L 312.325651 155.772953 
L 312.325651 156.417432 
L 314.761812 156.417432 
L 314.761812 154.708715 
L 317.120664 154.708715 
L 317.120664 157.078647 
L 319.406962 157.078647 
L 319.406962 157.155228 
L 321.625037 157.155228 
L 321.625037 155.678391 
L 323.778841 155.678391 
L 323.778841 156.785753 
L 325.871997 156.785753 
L 325.871997 156.653323 
L 327.907824 156.653323 
L 327.907824 156.243734 
L 329.889381 156.243734 
L 329.889381 156.708596 
L 331.819486 156.708596 
L 331.819486 157.927784 
L 333.700743 157.927784 
L 333.700743 157.216504 
L 335.535564 157.216504 
L 335.535564 157.937167 
L 337.326186 157.937167 
L 337.326186 160.077399 
L 339.074689 160.077399 
L 339.074689 159.08819 
L 340.783008 159.08819 
L 340.783008 158.710345 
L 342.45295 158.710345 
L 342.45295 159.809866 
L 344.0862 159.809866 
L 344.0862 160.322889 
L 345.684336 160.322889 
L 345.684336 166.364647 
L 347.248837 166.364647 
L 347.248837 163.458296 
L 348.78109 163.458296 
L 348.78109 161.270065 
L 350.282396 161.270065 
L 350.282396 165.766405 
L 351.753981 165.766405 
L 351.753981 166.082588 
L 353.196999 166.082588 
L 353.196999 160.81102 
L 354.612539 160.81102 
L 354.612539 163.678325 
L 356.001627 163.678325 
L 356.001627 159.905815 
L 357.365233 159.905815 
L 357.365233 158.606025 
L 358.704276 158.606025 
L 358.704276 164.224944 
L 360.019625 164.224944 
L 360.019625 176.472385 
L 361.312104 176.472385 
L 361.312104 179.624716 
L 362.582495 179.624716 
L 362.582495 189.3469 
L 363.831539 189.3469 
L 363.831539 268.439687 
" clip-path="url(#p1577d35943)" style="fill: none; stroke: #1f77b4; stroke-width: 1.5; stroke-linecap: square"/>
   </g>
   <g id="LineCollection_1">
    <path d="M 90.423461 56.841577 
L 90.423461 56.333783 
" clip-path="url(#p1577d35943)" style="fill: none; stroke: #1f77b4; stroke-width: 1.5"/>
    <path d="M 128.064018 52.671579 
L 128.064018 52.268499 
" clip-path="url(#p1577d35943)" style="fill: none; stroke: #1f77b4; stroke-width: 1.5"/>
    <path d="M 152.933384 47.349707 
L 152.933384 46.971668 
" clip-path="url(#p1577d35943)" style="fill: none; stroke: #1f77b4; stroke-width: 1.5"/>
    <path d="M 171.535834 40.594901 
L 171.535834 40.230134 
" clip-path="url(#p1577d35943)" style="fill: none; stroke: #1f77b4; stroke-width: 1.5"/>
    <path d="M 186.402473 30.966096 
L 186.402473 30.616606 
" clip-path="url(#p1577d35943)" style="fill: none; stroke: #1f77b4; stroke-width: 1.5"/>
    <path d="M 198.785724 21.607021 
L 198.785724 21.269286 
" clip-path="url(#p1577d35943)" style="fill: none; stroke: #1f77b4; stroke-width: 1.5"/>
    <path d="M 209.397711 17.611543 
L 209.397711 17.28 
" clip-path="url(#p1577d35943)" style="fill: none; stroke: #1f77b4; stroke-width: 1.5"/>
    <path d="M 218.682313 25.44831 
L 218.682313 25.114592 
" clip-path="url(#p1577d35943)" style="fill: none; stroke: #1f77b4; stroke-width: 1.5"/>
    <path d="M 226.934983 44.766479 
L 226.934983 44.42373 
" clip-path="url(#p1577d35943)" style="fill: none; stroke: #1f77b4; stroke-width: 1.5"/>
    <path d="M 234.362335 68.518177 
L 234.362335 68.163934 
" clip-path="url(#p1577d35943)" style="fill: none; stroke: #1f77b4; stroke-width: 1.5"/>
    <path d="M 241.114538 91.067463 
L 241.114538 90.68742 
" clip-path="url(#p1577d35943)" style="fill: none; stroke: #1f77b4; stroke-width: 1.5"/>
    <path d="M 247.304171 110.09592 
L 247.304171 109.683018 
" clip-path="url(#p1577d35943)" style="fill: none; stroke: #1f77b4; stroke-width: 1.5"/>
    <path d="M 253.017812 125.333755 
L 253.017812 124.883801 
" clip-path="url(#p1577d35943)" style="fill: none; stroke: #1f77b4; stroke-width: 1.5"/>
    <path d="M 258.323469 136.282191 
L 258.323469 135.790132 
" clip-path="url(#p1577d35943)" style="fill: none; stroke: #1f77b4; stroke-width: 1.5"/>
    <path d="M 263.275544 143.18404 
L 263.275544 142.655366 
" clip-path="url(#p1577d35943)" style="fill: none; stroke: #1f77b4; stroke-width: 1.5"/>
    <path d="M 267.918234 146.516616 
L 267.918234 145.961933 
" clip-path="url(#p1577d35943)" style="fill: none; stroke: #1f77b4; stroke-width: 1.5"/>
    <path d="M 272.287935 148.320315 
L 272.287935 147.742868 
" clip-path="url(#p1577d35943)" style="fill: none; stroke: #1f77b4; stroke-width: 1.5"/>
    <path d="M 276.414975 148.87612 
L 276.414975 148.280619 
" clip-path="url(#p1577d35943)" style="fill: none; stroke: #1f77b4; stroke-width: 1.5"/>
    <path d="M 280.324893 149.613953 
L 280.324893 148.992854 
" clip-path="url(#p1577d35943)" style="fill: none; stroke: #1f77b4; stroke-width: 1.5"/>
    <path d="M 284.039397 150.063731 
L 284.039397 149.417442 
" clip-path="url(#p1577d35943)" style="fill: none; stroke: #1f77b4; stroke-width: 1.5"/>
    <path d="M 287.577094 151.635887 
L 287.577094 150.955334 
" clip-path="url(#p1577d35943)" style="fill: none; stroke: #1f77b4; stroke-width: 1.5"/>
    <path d="M 290.954054 151.9544 
L 290.954054 151.243822 
" clip-path="url(#p1577d35943)" style="fill: none; stroke: #1f77b4; stroke-width: 1.5"/>
    <path d="M 294.184251 151.957315 
L 294.184251 151.215078 
" clip-path="url(#p1577d35943)" style="fill: none; stroke: #1f77b4; stroke-width: 1.5"/>
    <path d="M 297.279911 153.524129 
L 297.279911 152.733029 
" clip-path="url(#p1577d35943)" style="fill: none; stroke: #1f77b4; stroke-width: 1.5"/>
    <path d="M 300.251795 153.356456 
L 300.251795 152.532732 
" clip-path="url(#p1577d35943)" style="fill: none; stroke: #1f77b4; stroke-width: 1.5"/>
    <path d="M 303.109422 154.725669 
L 303.109422 153.842389 
" clip-path="url(#p1577d35943)" style="fill: none; stroke: #1f77b4; stroke-width: 1.5"/>
    <path d="M 305.861252 154.776481 
L 305.861252 153.852748 
" clip-path="url(#p1577d35943)" style="fill: none; stroke: #1f77b4; stroke-width: 1.5"/>
    <path d="M 308.514841 155.474843 
L 308.514841 154.487753 
" clip-path="url(#p1577d35943)" style="fill: none; stroke: #1f77b4; stroke-width: 1.5"/>
    <path d="M 311.076962 156.303439 
L 311.076962 155.249425 
" clip-path="url(#p1577d35943)" style="fill: none; stroke: #1f77b4; stroke-width: 1.5"/>
    <path d="M 313.553711 156.986244 
L 313.553711 155.856612 
" clip-path="url(#p1577d35943)" style="fill: none; stroke: #1f77b4; stroke-width: 1.5"/>
    <path d="M 315.950594 155.308021 
L 315.950594 154.118274 
" clip-path="url(#p1577d35943)" style="fill: none; stroke: #1f77b4; stroke-width: 1.5"/>
    <path d="M 318.272602 157.743966 
L 318.272602 156.424235 
" clip-path="url(#p1577d35943)" style="fill: none; stroke: #1f77b4; stroke-width: 1.5"/>
    <path d="M 320.524272 157.879731 
L 320.524272 156.443641 
" clip-path="url(#p1577d35943)" style="fill: none; stroke: #1f77b4; stroke-width: 1.5"/>
    <path d="M 322.709739 156.457542 
L 322.709739 154.914158 
" clip-path="url(#p1577d35943)" style="fill: none; stroke: #1f77b4; stroke-width: 1.5"/>
    <path d="M 324.832786 157.657514 
L 324.832786 155.932624 
" clip-path="url(#p1577d35943)" style="fill: none; stroke: #1f77b4; stroke-width: 1.5"/>
    <path d="M 326.896879 157.601055 
L 326.896879 155.727573 
" clip-path="url(#p1577d35943)" style="fill: none; stroke: #1f77b4; stroke-width: 1.5"/>
    <path d="M 328.905205 157.29885 
L 328.905205 155.215791 
" clip-path="url(#p1577d35943)" style="fill: none; stroke: #1f77b4; stroke-width: 1.5"/>
    <path d="M 330.860698 157.867233 
L 330.860698 155.582643 
" clip-path="url(#p1577d35943)" style="fill: none; stroke: #1f77b4; stroke-width: 1.5"/>
    <path d="M 332.766066 159.217337 
L 332.766066 156.678591 
" clip-path="url(#p1577d35943)" style="fill: none; stroke: #1f77b4; stroke-width: 1.5"/>
    <path d="M 334.623814 158.608665 
L 334.623814 155.871264 
" clip-path="url(#p1577d35943)" style="fill: none; stroke: #1f77b4; stroke-width: 1.5"/>
    <path d="M 336.436267 159.46259 
L 336.436267 156.467899 
" clip-path="url(#p1577d35943)" style="fill: none; stroke: #1f77b4; stroke-width: 1.5"/>
    <path d="M 338.205578 161.735699 
L 338.205578 158.485252 
" clip-path="url(#p1577d35943)" style="fill: none; stroke: #1f77b4; stroke-width: 1.5"/>
    <path d="M 339.933756 160.910928 
L 339.933756 157.345062 
" clip-path="url(#p1577d35943)" style="fill: none; stroke: #1f77b4; stroke-width: 1.5"/>
    <path d="M 341.622668 160.668479 
L 341.622668 156.843792 
" clip-path="url(#p1577d35943)" style="fill: none; stroke: #1f77b4; stroke-width: 1.5"/>
    <path d="M 343.27406 162.062154 
L 343.27406 157.677903 
" clip-path="url(#p1577d35943)" style="fill: none; stroke: #1f77b4; stroke-width: 1.5"/>
    <path d="M 344.889563 162.779519 
L 344.889563 158.008724 
" clip-path="url(#p1577d35943)" style="fill: none; stroke: #1f77b4; stroke-width: 1.5"/>
    <path d="M 346.470703 169.327197 
L 346.470703 163.606861 
" clip-path="url(#p1577d35943)" style="fill: none; stroke: #1f77b4; stroke-width: 1.5"/>
    <path d="M 348.018911 166.493789 
L 348.018911 160.637414 
" clip-path="url(#p1577d35943)" style="fill: none; stroke: #1f77b4; stroke-width: 1.5"/>
    <path d="M 349.535533 164.545078 
L 349.535533 158.243498 
" clip-path="url(#p1577d35943)" style="fill: none; stroke: #1f77b4; stroke-width: 1.5"/>
    <path d="M 351.02183 169.717856 
L 351.02183 162.171124 
" clip-path="url(#p1577d35943)" style="fill: none; stroke: #1f77b4; stroke-width: 1.5"/>
    <path d="M 352.478992 170.500745 
L 352.478992 162.105082 
" clip-path="url(#p1577d35943)" style="fill: none; stroke: #1f77b4; stroke-width: 1.5"/>
    <path d="M 353.908139 165.356849 
L 353.908139 156.730357 
" clip-path="url(#p1577d35943)" style="fill: none; stroke: #1f77b4; stroke-width: 1.5"/>
    <path d="M 355.310327 168.788251 
L 355.310327 159.148928 
" clip-path="url(#p1577d35943)" style="fill: none; stroke: #1f77b4; stroke-width: 1.5"/>
    <path d="M 356.686557 165.236087 
L 356.686557 155.204195 
" clip-path="url(#p1577d35943)" style="fill: none; stroke: #1f77b4; stroke-width: 1.5"/>
    <path d="M 358.03777 164.662624 
L 358.03777 153.348483 
" clip-path="url(#p1577d35943)" style="fill: none; stroke: #1f77b4; stroke-width: 1.5"/>
    <path d="M 359.36486 172.748156 
L 359.36486 157.205294 
" clip-path="url(#p1577d35943)" style="fill: none; stroke: #1f77b4; stroke-width: 1.5"/>
    <path d="M 360.668673 187.450139 
L 360.668673 167.871665 
" clip-path="url(#p1577d35943)" style="fill: none; stroke: #1f77b4; stroke-width: 1.5"/>
    <path d="M 361.950013 200.548266 
L 361.950013 165.967535 
" clip-path="url(#p1577d35943)" style="fill: none; stroke: #1f77b4; stroke-width: 1.5"/>
    <path d="M 363.20964 218.879998 
L 363.20964 172.559266 
" clip-path="url(#p1577d35943)" style="fill: none; stroke: #1f77b4; stroke-width: 1.5"/>
    <path clip-path="url(#p1577d35943)" style="fill: none; stroke: #1f77b4; stroke-width: 1.5"/>
   </g>
  </g>
 </g>
 <defs>
  <clipPath id="p1577d35943">
   <rect x="45.478125" y="7.2" width="334.8" height="221.76"/>
  </clipPath>
 </defs>
</svg>
