<?xml version="1.0" encoding="UTF-8" standalone="no"?>
<!DOCTYPE svg PUBLIC "-//W3C//DTD SVG 1.1//EN"
 "http://www.w3.org/Graphics/SVG/1.1/DTD/svg11.dtd">
<!-- Generated by graphviz version 2.43.0 (0)
 -->
<!-- Title: %3 Pages: 1 -->
<svg width="1616pt" height="908pt"
 viewBox="0.00 0.00 1616.00 908.00" xmlns="http://www.w3.org/2000/svg" xmlns:xlink="http://www.w3.org/1999/xlink">
<g id="graph0" class="graph" transform="scale(1 1) rotate(0) translate(4 904)">
<title>%3</title>
<polygon fill="white" stroke="transparent" points="-4,4 -4,-904 1612,-904 1612,4 -4,4"/>
<!-- BeamCenter -->
<g id="node1" class="node">
<title>BeamCenter</title>
<polygon fill="none" stroke="black" points="1435,-756 1329,-756 1329,-720 1435,-720 1435,-756"/>
<text text-anchor="middle" x="1382" y="-734.3" font-family="Times,serif" font-size="14.00">BeamCenter</text>
</g>
<!-- ess.isissans.sans2d.detector_edge_mask_DetectorEdgeMask -->
<g id="node13" class="node">
<title>ess.isissans.sans2d.detector_edge_mask_DetectorEdgeMask</title>
<ellipse fill="none" stroke="black" cx="1244" cy="-378" rx="105.08" ry="18"/>
<text text-anchor="middle" x="1244" y="-374.3" font-family="Times,serif" font-size="14.00">detector_edge_mask</text>
</g>
<!-- BeamCenter&#45;&gt;ess.isissans.sans2d.detector_edge_mask_DetectorEdgeMask -->
<g id="edge10" class="edge">
<title>BeamCenter&#45;&gt;ess.isissans.sans2d.detector_edge_mask_DetectorEdgeMask</title>
<path fill="none" stroke="black" d="M1382,-719.95C1382,-693.29 1382,-640.11 1382,-595 1382,-595 1382,-595 1382,-521 1382,-465.55 1327.21,-423.6 1286.68,-400.15"/>
<polygon fill="black" stroke="black" points="1288.19,-396.99 1277.76,-395.15 1284.77,-403.1 1288.19,-396.99"/>
</g>
<!-- ess.isissans.general.to_detector_position_offset_DetectorPositionOffset[SampleRun] -->
<g id="node18" class="node">
<title>ess.isissans.general.to_detector_position_offset_DetectorPositionOffset[SampleRun]</title>
<ellipse fill="none" stroke="black" cx="983" cy="-666" rx="135.38" ry="18"/>
<text text-anchor="middle" x="983" y="-662.3" font-family="Times,serif" font-size="14.00">to_detector_position_offset</text>
</g>
<!-- BeamCenter&#45;&gt;ess.isissans.general.to_detector_position_offset_DetectorPositionOffset[SampleRun] -->
<g id="edge17" class="edge">
<title>BeamCenter&#45;&gt;ess.isissans.general.to_detector_position_offset_DetectorPositionOffset[SampleRun]</title>
<path fill="none" stroke="black" d="M1328.6,-727.63C1262.73,-716.07 1149.8,-696.26 1071.02,-682.44"/>
<polygon fill="black" stroke="black" points="1071.56,-678.98 1061.11,-680.7 1070.35,-685.88 1071.56,-678.98"/>
</g>
<!-- ess.isissans.sans2d.sample_holder_mask_SampleHolderMask -->
<g id="node28" class="node">
<title>ess.isissans.sans2d.sample_holder_mask_SampleHolderMask</title>
<ellipse fill="none" stroke="black" cx="1474" cy="-378" rx="106.68" ry="18"/>
<text text-anchor="middle" x="1474" y="-374.3" font-family="Times,serif" font-size="14.00">sample_holder_mask</text>
</g>
<!-- BeamCenter&#45;&gt;ess.isissans.sans2d.sample_holder_mask_SampleHolderMask -->
<g id="edge27" class="edge">
<title>BeamCenter&#45;&gt;ess.isissans.sans2d.sample_holder_mask_SampleHolderMask</title>
<path fill="none" stroke="black" d="M1389.69,-719.91C1400.79,-693.62 1420,-641.45 1420,-595 1420,-595 1420,-595 1420,-521 1420,-480.55 1423.36,-469.3 1439,-432 1442.99,-422.49 1448.73,-412.86 1454.42,-404.46"/>
<polygon fill="black" stroke="black" points="1457.33,-406.4 1460.25,-396.21 1451.62,-402.36 1457.33,-406.4"/>
</g>
<!-- ess.reduce.nexus.workflow.get_calibrated_detector_CalibratedDetector[SampleRun] -->
<g id="node2" class="node">
<title>ess.reduce.nexus.workflow.get_calibrated_detector_CalibratedDetector[SampleRun]</title>
<ellipse fill="none" stroke="black" cx="750" cy="-522" rx="120.48" ry="18"/>
<text text-anchor="middle" x="750" y="-518.3" font-family="Times,serif" font-size="14.00">get_calibrated_detector</text>
</g>
<!-- CalibratedDetector[SampleRun] -->
<g id="node9" class="node">
<title>CalibratedDetector[SampleRun]</title>
<polygon fill="none" stroke="black" points="1191,-468 945,-468 945,-432 1191,-432 1191,-468"/>
<text text-anchor="middle" x="1068" y="-446.3" font-family="Times,serif" font-size="14.00">CalibratedDetector[SampleRun]</text>
</g>
<!-- ess.reduce.nexus.workflow.get_calibrated_detector_CalibratedDetector[SampleRun]&#45;&gt;CalibratedDetector[SampleRun] -->
<g id="edge7" class="edge">
<title>ess.reduce.nexus.workflow.get_calibrated_detector_CalibratedDetector[SampleRun]&#45;&gt;CalibratedDetector[SampleRun]</title>
<path fill="none" stroke="black" d="M814.74,-506.75C862.59,-496.22 928.27,-481.76 980.76,-470.2"/>
<polygon fill="black" stroke="black" points="981.72,-473.58 990.73,-468.01 980.21,-466.74 981.72,-473.58"/>
</g>
<!-- NeXusDetector[SampleRun] -->
<g id="node3" class="node">
<title>NeXusDetector[SampleRun]</title>
<polygon fill="none" stroke="black" points="622,-612 404,-612 404,-576 622,-576 622,-612"/>
<text text-anchor="middle" x="513" y="-590.3" font-family="Times,serif" font-size="14.00">NeXusDetector[SampleRun]</text>
</g>
<!-- NeXusDetector[SampleRun]&#45;&gt;ess.reduce.nexus.workflow.get_calibrated_detector_CalibratedDetector[SampleRun] -->
<g id="edge1" class="edge">
<title>NeXusDetector[SampleRun]&#45;&gt;ess.reduce.nexus.workflow.get_calibrated_detector_CalibratedDetector[SampleRun]</title>
<path fill="none" stroke="black" d="M570.67,-575.97C606.24,-565.46 651.84,-551.99 688.16,-541.27"/>
<polygon fill="black" stroke="black" points="689.54,-544.51 698.14,-538.32 687.56,-537.79 689.54,-544.51"/>
</g>
<!-- DetectorPositionOffset[SampleRun] -->
<g id="node4" class="node">
<title>DetectorPositionOffset[SampleRun]</title>
<polygon fill="none" stroke="black" points="1148.5,-612 877.5,-612 877.5,-576 1148.5,-576 1148.5,-612"/>
<text text-anchor="middle" x="1013" y="-590.3" font-family="Times,serif" font-size="14.00">DetectorPositionOffset[SampleRun]</text>
</g>
<!-- DetectorPositionOffset[SampleRun]&#45;&gt;ess.reduce.nexus.workflow.get_calibrated_detector_CalibratedDetector[SampleRun] -->
<g id="edge2" class="edge">
<title>DetectorPositionOffset[SampleRun]&#45;&gt;ess.reduce.nexus.workflow.get_calibrated_detector_CalibratedDetector[SampleRun]</title>
<path fill="none" stroke="black" d="M949,-575.97C908.69,-565.24 856.76,-551.42 816.06,-540.58"/>
<polygon fill="black" stroke="black" points="816.8,-537.16 806.23,-537.97 815,-543.92 816.8,-537.16"/>
</g>
<!-- SourcePosition[SampleRun] -->
<g id="node5" class="node">
<title>SourcePosition[SampleRun]</title>
<polygon fill="none" stroke="black" points="385.5,-612 170.5,-612 170.5,-576 385.5,-576 385.5,-612"/>
<text text-anchor="middle" x="278" y="-590.3" font-family="Times,serif" font-size="14.00">SourcePosition[SampleRun]</text>
</g>
<!-- SourcePosition[SampleRun]&#45;&gt;ess.reduce.nexus.workflow.get_calibrated_detector_CalibratedDetector[SampleRun] -->
<g id="edge3" class="edge">
<title>SourcePosition[SampleRun]&#45;&gt;ess.reduce.nexus.workflow.get_calibrated_detector_CalibratedDetector[SampleRun]</title>
<path fill="none" stroke="black" d="M385.69,-577.03C467.72,-564.86 579.45,-548.29 657.47,-536.72"/>
<polygon fill="black" stroke="black" points="658.39,-540.12 667.77,-535.2 657.36,-533.2 658.39,-540.12"/>
</g>
<!-- SamplePosition[SampleRun] -->
<g id="node6" class="node">
<title>SamplePosition[SampleRun]</title>
<polygon fill="none" stroke="black" points="859.5,-612 640.5,-612 640.5,-576 859.5,-576 859.5,-612"/>
<text text-anchor="middle" x="750" y="-590.3" font-family="Times,serif" font-size="14.00">SamplePosition[SampleRun]</text>
</g>
<!-- SamplePosition[SampleRun]&#45;&gt;ess.reduce.nexus.workflow.get_calibrated_detector_CalibratedDetector[SampleRun] -->
<g id="edge4" class="edge">
<title>SamplePosition[SampleRun]&#45;&gt;ess.reduce.nexus.workflow.get_calibrated_detector_CalibratedDetector[SampleRun]</title>
<path fill="none" stroke="black" d="M750,-575.7C750,-567.98 750,-558.71 750,-550.11"/>
<polygon fill="black" stroke="black" points="753.5,-550.1 750,-540.1 746.5,-550.1 753.5,-550.1"/>
</g>
<!-- GravityVector -->
<g id="node7" class="node">
<title>GravityVector</title>
<polygon fill="none" stroke="black" points="1293,-612 1177,-612 1177,-576 1293,-576 1293,-612"/>
<text text-anchor="middle" x="1235" y="-590.3" font-family="Times,serif" font-size="14.00">GravityVector</text>
</g>
<!-- GravityVector&#45;&gt;ess.reduce.nexus.workflow.get_calibrated_detector_CalibratedDetector[SampleRun] -->
<g id="edge5" class="edge">
<title>GravityVector&#45;&gt;ess.reduce.nexus.workflow.get_calibrated_detector_CalibratedDetector[SampleRun]</title>
<path fill="none" stroke="black" d="M1176.75,-579.74C1170.11,-578.39 1163.42,-577.12 1157,-576 1055.07,-558.29 937.84,-543.62 855.45,-534.24"/>
<polygon fill="black" stroke="black" points="855.66,-530.74 845.33,-533.09 854.87,-537.69 855.66,-530.74"/>
</g>
<!-- DetectorBankSizes -->
<g id="node8" class="node">
<title>DetectorBankSizes</title>
<polygon fill="none" stroke="black" points="152,-612 0,-612 0,-576 152,-576 152,-612"/>
<text text-anchor="middle" x="76" y="-590.3" font-family="Times,serif" font-size="14.00">DetectorBankSizes</text>
</g>
<!-- DetectorBankSizes&#45;&gt;ess.reduce.nexus.workflow.get_calibrated_detector_CalibratedDetector[SampleRun] -->
<g id="edge6" class="edge">
<title>DetectorBankSizes&#45;&gt;ess.reduce.nexus.workflow.get_calibrated_detector_CalibratedDetector[SampleRun]</title>
<path fill="none" stroke="black" d="M152.39,-577.32C155.29,-576.85 158.17,-576.41 161,-576 322.43,-552.66 510.34,-537.88 629.69,-530.02"/>
<polygon fill="black" stroke="black" points="630.2,-533.5 639.95,-529.35 629.74,-526.51 630.2,-533.5"/>
</g>
<!-- ess.isissans.general.dummy_assemble_detector_data_DetectorData[SampleRun] -->
<g id="node11" class="node">
<title>ess.isissans.general.dummy_assemble_detector_data_DetectorData[SampleRun]</title>
<ellipse fill="none" stroke="black" cx="960" cy="-378" rx="161.37" ry="18"/>
<text text-anchor="middle" x="960" y="-374.3" font-family="Times,serif" font-size="14.00">dummy_assemble_detector_data</text>
</g>
<!-- CalibratedDetector[SampleRun]&#45;&gt;ess.isissans.general.dummy_assemble_detector_data_DetectorData[SampleRun] -->
<g id="edge8" class="edge">
<title>CalibratedDetector[SampleRun]&#45;&gt;ess.isissans.general.dummy_assemble_detector_data_DetectorData[SampleRun]</title>
<path fill="none" stroke="black" d="M1041.58,-431.88C1027.49,-422.74 1009.96,-411.38 994.78,-401.54"/>
<polygon fill="black" stroke="black" points="996.44,-398.45 986.15,-395.95 992.63,-404.32 996.44,-398.45"/>
</g>
<!-- CalibratedDetector[SampleRun]&#45;&gt;ess.isissans.sans2d.detector_edge_mask_DetectorEdgeMask -->
<g id="edge11" class="edge">
<title>CalibratedDetector[SampleRun]&#45;&gt;ess.isissans.sans2d.detector_edge_mask_DetectorEdgeMask</title>
<path fill="none" stroke="black" d="M1111.05,-431.88C1136.43,-421.78 1168.63,-408.98 1194.98,-398.5"/>
<polygon fill="black" stroke="black" points="1196.4,-401.7 1204.4,-394.75 1193.81,-395.19 1196.4,-401.7"/>
</g>
<!-- CalibratedDetector[SampleRun]&#45;&gt;ess.isissans.sans2d.sample_holder_mask_SampleHolderMask -->
<g id="edge28" class="edge">
<title>CalibratedDetector[SampleRun]&#45;&gt;ess.isissans.sans2d.sample_holder_mask_SampleHolderMask</title>
<path fill="none" stroke="black" d="M1166.8,-431.97C1235.87,-420.06 1327.02,-404.34 1392.05,-393.13"/>
<polygon fill="black" stroke="black" points="1393,-396.52 1402.26,-391.37 1391.81,-389.62 1393,-396.52"/>
</g>
<!-- DetectorBankOffset -->
<g id="node10" class="node">
<title>DetectorBankOffset</title>
<polygon fill="none" stroke="black" points="1062,-756 904,-756 904,-720 1062,-720 1062,-756"/>
<text text-anchor="middle" x="983" y="-734.3" font-family="Times,serif" font-size="14.00">DetectorBankOffset</text>
</g>
<!-- DetectorBankOffset&#45;&gt;ess.isissans.general.to_detector_position_offset_DetectorPositionOffset[SampleRun] -->
<g id="edge16" class="edge">
<title>DetectorBankOffset&#45;&gt;ess.isissans.general.to_detector_position_offset_DetectorPositionOffset[SampleRun]</title>
<path fill="none" stroke="black" d="M983,-719.7C983,-711.98 983,-702.71 983,-694.11"/>
<polygon fill="black" stroke="black" points="986.5,-694.1 983,-684.1 979.5,-694.1 986.5,-694.1"/>
</g>
<!-- DetectorData[SampleRun] -->
<g id="node12" class="node">
<title>DetectorData[SampleRun]</title>
<polygon fill="none" stroke="black" points="1105.5,-324 900.5,-324 900.5,-288 1105.5,-288 1105.5,-324"/>
<text text-anchor="middle" x="1003" y="-302.3" font-family="Times,serif" font-size="14.00">DetectorData[SampleRun]</text>
</g>
<!-- ess.isissans.general.dummy_assemble_detector_data_DetectorData[SampleRun]&#45;&gt;DetectorData[SampleRun] -->
<g id="edge9" class="edge">
<title>ess.isissans.general.dummy_assemble_detector_data_DetectorData[SampleRun]&#45;&gt;DetectorData[SampleRun]</title>
<path fill="none" stroke="black" d="M970.63,-359.7C975.63,-351.56 981.69,-341.69 987.21,-332.7"/>
<polygon fill="black" stroke="black" points="990.24,-334.46 992.49,-324.1 984.28,-330.79 990.24,-334.46"/>
</g>
<!-- ess.isissans.general.data_to_tof_TofData[SampleRun] -->
<g id="node32" class="node">
<title>ess.isissans.general.data_to_tof_TofData[SampleRun]</title>
<ellipse fill="none" stroke="black" cx="1057" cy="-234" rx="61.99" ry="18"/>
<text text-anchor="middle" x="1057" y="-230.3" font-family="Times,serif" font-size="14.00">data_to_tof</text>
</g>
<!-- DetectorData[SampleRun]&#45;&gt;ess.isissans.general.data_to_tof_TofData[SampleRun] -->
<g id="edge36" class="edge">
<title>DetectorData[SampleRun]&#45;&gt;ess.isissans.general.data_to_tof_TofData[SampleRun]</title>
<path fill="none" stroke="black" d="M1016.35,-287.7C1022.85,-279.27 1030.79,-268.97 1037.92,-259.73"/>
<polygon fill="black" stroke="black" points="1040.84,-261.68 1044.18,-251.62 1035.3,-257.4 1040.84,-261.68"/>
</g>
<!-- DetectorEdgeMask -->
<g id="node14" class="node">
<title>DetectorEdgeMask</title>
<polygon fill="none" stroke="black" points="1321,-324 1167,-324 1167,-288 1321,-288 1321,-324"/>
<text text-anchor="middle" x="1244" y="-302.3" font-family="Times,serif" font-size="14.00">DetectorEdgeMask</text>
</g>
<!-- ess.isissans.sans2d.detector_edge_mask_DetectorEdgeMask&#45;&gt;DetectorEdgeMask -->
<g id="edge12" class="edge">
<title>ess.isissans.sans2d.detector_edge_mask_DetectorEdgeMask&#45;&gt;DetectorEdgeMask</title>
<path fill="none" stroke="black" d="M1244,-359.7C1244,-351.98 1244,-342.71 1244,-334.11"/>
<polygon fill="black" stroke="black" points="1247.5,-334.1 1244,-324.1 1240.5,-334.1 1247.5,-334.1"/>
</g>
<!-- ess.isissans.sans2d.to_detector_masks_DetectorMasks -->
<g id="node15" class="node">
<title>ess.isissans.sans2d.to_detector_masks_DetectorMasks</title>
<ellipse fill="none" stroke="black" cx="1244" cy="-234" rx="96.68" ry="18"/>
<text text-anchor="middle" x="1244" y="-230.3" font-family="Times,serif" font-size="14.00">to_detector_masks</text>
</g>
<!-- DetectorEdgeMask&#45;&gt;ess.isissans.sans2d.to_detector_masks_DetectorMasks -->
<g id="edge13" class="edge">
<title>DetectorEdgeMask&#45;&gt;ess.isissans.sans2d.to_detector_masks_DetectorMasks</title>
<path fill="none" stroke="black" d="M1244,-287.7C1244,-279.98 1244,-270.71 1244,-262.11"/>
<polygon fill="black" stroke="black" points="1247.5,-262.1 1244,-252.1 1240.5,-262.1 1247.5,-262.1"/>
</g>
<!-- DetectorMasks -->
<g id="node17" class="node">
<title>DetectorMasks</title>
<polygon fill="none" stroke="black" points="1292.5,-180 1167.5,-180 1167.5,-144 1292.5,-144 1292.5,-180"/>
<text text-anchor="middle" x="1230" y="-158.3" font-family="Times,serif" font-size="14.00">DetectorMasks</text>
</g>
<!-- ess.isissans.sans2d.to_detector_masks_DetectorMasks&#45;&gt;DetectorMasks -->
<g id="edge15" class="edge">
<title>ess.isissans.sans2d.to_detector_masks_DetectorMasks&#45;&gt;DetectorMasks</title>
<path fill="none" stroke="black" d="M1240.54,-215.7C1239,-207.98 1237.14,-198.71 1235.42,-190.11"/>
<polygon fill="black" stroke="black" points="1238.81,-189.22 1233.42,-180.1 1231.95,-190.6 1238.81,-189.22"/>
</g>
<!-- SampleHolderMask -->
<g id="node16" class="node">
<title>SampleHolderMask</title>
<polygon fill="none" stroke="black" points="1524.5,-324 1367.5,-324 1367.5,-288 1524.5,-288 1524.5,-324"/>
<text text-anchor="middle" x="1446" y="-302.3" font-family="Times,serif" font-size="14.00">SampleHolderMask</text>
</g>
<!-- SampleHolderMask&#45;&gt;ess.isissans.sans2d.to_detector_masks_DetectorMasks -->
<g id="edge14" class="edge">
<title>SampleHolderMask&#45;&gt;ess.isissans.sans2d.to_detector_masks_DetectorMasks</title>
<path fill="none" stroke="black" d="M1396.84,-287.97C1366.71,-277.52 1328.12,-264.15 1297.26,-253.45"/>
<polygon fill="black" stroke="black" points="1298.12,-250.05 1287.53,-250.08 1295.83,-256.67 1298.12,-250.05"/>
</g>
<!-- ess.sans.masking.apply_pixel_masks_MaskedData[SampleRun] -->
<g id="node24" class="node">
<title>ess.sans.masking.apply_pixel_masks_MaskedData[SampleRun]</title>
<ellipse fill="none" stroke="black" cx="1145" cy="-90" rx="96.68" ry="18"/>
<text text-anchor="middle" x="1145" y="-86.3" font-family="Times,serif" font-size="14.00">apply_pixel_masks</text>
</g>
<!-- DetectorMasks&#45;&gt;ess.sans.masking.apply_pixel_masks_MaskedData[SampleRun] -->
<g id="edge23" class="edge">
<title>DetectorMasks&#45;&gt;ess.sans.masking.apply_pixel_masks_MaskedData[SampleRun]</title>
<path fill="none" stroke="black" d="M1208.99,-143.7C1198.12,-134.75 1184.72,-123.71 1172.99,-114.05"/>
<polygon fill="black" stroke="black" points="1175.13,-111.28 1165.18,-107.62 1170.68,-116.68 1175.13,-111.28"/>
</g>
<!-- ess.isissans.general.to_detector_position_offset_DetectorPositionOffset[SampleRun]&#45;&gt;DetectorPositionOffset[SampleRun] -->
<g id="edge18" class="edge">
<title>ess.isissans.general.to_detector_position_offset_DetectorPositionOffset[SampleRun]&#45;&gt;DetectorPositionOffset[SampleRun]</title>
<path fill="none" stroke="black" d="M990.42,-647.7C993.79,-639.81 997.87,-630.3 1001.62,-621.55"/>
<polygon fill="black" stroke="black" points="1004.95,-622.67 1005.67,-612.1 998.51,-619.92 1004.95,-622.67"/>
</g>
<!-- Filename[SampleRun] -->
<g id="node19" class="node">
<title>Filename[SampleRun]</title>
<polygon fill="none" stroke="black" points="595.5,-900 420.5,-900 420.5,-864 595.5,-864 595.5,-900"/>
<text text-anchor="middle" x="508" y="-878.3" font-family="Times,serif" font-size="14.00">Filename[SampleRun]</text>
</g>
<!-- ess.isissans.io.load_tutorial_run_LoadedFileContents[SampleRun] -->
<g id="node21" class="node">
<title>ess.isissans.io.load_tutorial_run_LoadedFileContents[SampleRun]</title>
<ellipse fill="none" stroke="black" cx="508" cy="-810" rx="89.88" ry="18"/>
<text text-anchor="middle" x="508" y="-806.3" font-family="Times,serif" font-size="14.00">load_tutorial_run</text>
</g>
<!-- Filename[SampleRun]&#45;&gt;ess.isissans.io.load_tutorial_run_LoadedFileContents[SampleRun] -->
<g id="edge20" class="edge">
<title>Filename[SampleRun]&#45;&gt;ess.isissans.io.load_tutorial_run_LoadedFileContents[SampleRun]</title>
<path fill="none" stroke="black" d="M508,-863.7C508,-855.98 508,-846.71 508,-838.11"/>
<polygon fill="black" stroke="black" points="511.5,-838.1 508,-828.1 504.5,-838.1 511.5,-838.1"/>
</g>
<!-- ess.reduce.nexus.workflow.gravity_vector_neg_y_GravityVector -->
<g id="node20" class="node">
<title>ess.reduce.nexus.workflow.gravity_vector_neg_y_GravityVector</title>
<ellipse fill="none" stroke="black" cx="1245" cy="-666" rx="108.58" ry="18"/>
<text text-anchor="middle" x="1245" y="-662.3" font-family="Times,serif" font-size="14.00">gravity_vector_neg_y</text>
</g>
<!-- ess.reduce.nexus.workflow.gravity_vector_neg_y_GravityVector&#45;&gt;GravityVector -->
<g id="edge19" class="edge">
<title>ess.reduce.nexus.workflow.gravity_vector_neg_y_GravityVector&#45;&gt;GravityVector</title>
<path fill="none" stroke="black" d="M1242.53,-647.7C1241.43,-639.98 1240.1,-630.71 1238.87,-622.11"/>
<polygon fill="black" stroke="black" points="1242.32,-621.51 1237.44,-612.1 1235.39,-622.5 1242.32,-621.51"/>
</g>
<!-- LoadedFileContents[SampleRun] -->
<g id="node22" class="node">
<title>LoadedFileContents[SampleRun]</title>
<polygon fill="none" stroke="black" points="634,-756 382,-756 382,-720 634,-720 634,-756"/>
<text text-anchor="middle" x="508" y="-734.3" font-family="Times,serif" font-size="14.00">LoadedFileContents[SampleRun]</text>
</g>
<!-- ess.isissans.io.load_tutorial_run_LoadedFileContents[SampleRun]&#45;&gt;LoadedFileContents[SampleRun] -->
<g id="edge21" class="edge">
<title>ess.isissans.io.load_tutorial_run_LoadedFileContents[SampleRun]&#45;&gt;LoadedFileContents[SampleRun]</title>
<path fill="none" stroke="black" d="M508,-791.7C508,-783.98 508,-774.71 508,-766.11"/>
<polygon fill="black" stroke="black" points="511.5,-766.1 508,-756.1 504.5,-766.1 511.5,-766.1"/>
</g>
<!-- ess.isissans.general.get_detector_data_NeXusDetector[SampleRun] -->
<g id="node27" class="node">
<title>ess.isissans.general.get_detector_data_NeXusDetector[SampleRun]</title>
<ellipse fill="none" stroke="black" cx="508" cy="-666" rx="94.48" ry="18"/>
<text text-anchor="middle" x="508" y="-662.3" font-family="Times,serif" font-size="14.00">get_detector_data</text>
</g>
<!-- LoadedFileContents[SampleRun]&#45;&gt;ess.isissans.general.get_detector_data_NeXusDetector[SampleRun] -->
<g id="edge25" class="edge">
<title>LoadedFileContents[SampleRun]&#45;&gt;ess.isissans.general.get_detector_data_NeXusDetector[SampleRun]</title>
<path fill="none" stroke="black" d="M508,-719.7C508,-711.98 508,-702.71 508,-694.11"/>
<polygon fill="black" stroke="black" points="511.5,-694.1 508,-684.1 504.5,-694.1 511.5,-694.1"/>
</g>
<!-- ess.isissans.general.get_sample_position_SamplePosition[SampleRun] -->
<g id="node30" class="node">
<title>ess.isissans.general.get_sample_position_SamplePosition[SampleRun]</title>
<ellipse fill="none" stroke="black" cx="725" cy="-666" rx="104.78" ry="18"/>
<text text-anchor="middle" x="725" y="-662.3" font-family="Times,serif" font-size="14.00">get_sample_position</text>
</g>
<!-- LoadedFileContents[SampleRun]&#45;&gt;ess.isissans.general.get_sample_position_SamplePosition[SampleRun] -->
<g id="edge31" class="edge">
<title>LoadedFileContents[SampleRun]&#45;&gt;ess.isissans.general.get_sample_position_SamplePosition[SampleRun]</title>
<path fill="none" stroke="black" d="M560.81,-719.97C593.35,-709.47 635.06,-696.01 668.3,-685.29"/>
<polygon fill="black" stroke="black" points="669.44,-688.6 677.88,-682.2 667.29,-681.94 669.44,-688.6"/>
</g>
<!-- ess.isissans.general.get_source_position_SourcePosition[SampleRun] -->
<g id="node31" class="node">
<title>ess.isissans.general.get_source_position_SourcePosition[SampleRun]</title>
<ellipse fill="none" stroke="black" cx="288" cy="-666" rx="102.88" ry="18"/>
<text text-anchor="middle" x="288" y="-662.3" font-family="Times,serif" font-size="14.00">get_source_position</text>
</g>
<!-- LoadedFileContents[SampleRun]&#45;&gt;ess.isissans.general.get_source_position_SourcePosition[SampleRun] -->
<g id="edge34" class="edge">
<title>LoadedFileContents[SampleRun]&#45;&gt;ess.isissans.general.get_source_position_SourcePosition[SampleRun]</title>
<path fill="none" stroke="black" d="M454.46,-719.97C421.36,-709.43 378.89,-695.92 345.13,-685.18"/>
<polygon fill="black" stroke="black" points="346,-681.78 335.41,-682.08 343.87,-688.45 346,-681.78"/>
</g>
<!-- LowCountThreshold -->
<g id="node23" class="node">
<title>LowCountThreshold</title>
<polygon fill="none" stroke="black" points="1608,-468 1448,-468 1448,-432 1608,-432 1608,-468"/>
<text text-anchor="middle" x="1528" y="-446.3" font-family="Times,serif" font-size="14.00">LowCountThreshold</text>
</g>
<!-- LowCountThreshold&#45;&gt;ess.isissans.sans2d.sample_holder_mask_SampleHolderMask -->
<g id="edge29" class="edge">
<title>LowCountThreshold&#45;&gt;ess.isissans.sans2d.sample_holder_mask_SampleHolderMask</title>
<path fill="none" stroke="black" d="M1514.65,-431.7C1508.24,-423.39 1500.44,-413.28 1493.39,-404.14"/>
<polygon fill="black" stroke="black" points="1496.07,-401.88 1487.19,-396.1 1490.53,-406.16 1496.07,-401.88"/>
</g>
<!-- MaskedData[SampleRun] -->
<g id="node26" class="node">
<title>MaskedData[SampleRun]</title>
<polygon fill="none" stroke="black" points="1244,-36 1046,-36 1046,0 1244,0 1244,-36"/>
<text text-anchor="middle" x="1145" y="-14.3" font-family="Times,serif" font-size="14.00">MaskedData[SampleRun]</text>
</g>
<!-- ess.sans.masking.apply_pixel_masks_MaskedData[SampleRun]&#45;&gt;MaskedData[SampleRun] -->
<g id="edge24" class="edge">
<title>ess.sans.masking.apply_pixel_masks_MaskedData[SampleRun]&#45;&gt;MaskedData[SampleRun]</title>
<path fill="none" stroke="black" d="M1145,-71.7C1145,-63.98 1145,-54.71 1145,-46.11"/>
<polygon fill="black" stroke="black" points="1148.5,-46.1 1145,-36.1 1141.5,-46.1 1148.5,-46.1"/>
</g>
<!-- TofData[SampleRun] -->
<g id="node25" class="node">
<title>TofData[SampleRun]</title>
<polygon fill="none" stroke="black" points="1146,-180 982,-180 982,-144 1146,-144 1146,-180"/>
<text text-anchor="middle" x="1064" y="-158.3" font-family="Times,serif" font-size="14.00">TofData[SampleRun]</text>
</g>
<!-- TofData[SampleRun]&#45;&gt;ess.sans.masking.apply_pixel_masks_MaskedData[SampleRun] -->
<g id="edge22" class="edge">
<title>TofData[SampleRun]&#45;&gt;ess.sans.masking.apply_pixel_masks_MaskedData[SampleRun]</title>
<path fill="none" stroke="black" d="M1084.02,-143.7C1094.2,-134.9 1106.72,-124.08 1117.76,-114.54"/>
<polygon fill="black" stroke="black" points="1120.21,-117.05 1125.49,-107.86 1115.63,-111.75 1120.21,-117.05"/>
</g>
<!-- ess.isissans.general.get_detector_data_NeXusDetector[SampleRun]&#45;&gt;NeXusDetector[SampleRun] -->
<g id="edge26" class="edge">
<title>ess.isissans.general.get_detector_data_NeXusDetector[SampleRun]&#45;&gt;NeXusDetector[SampleRun]</title>
<path fill="none" stroke="black" d="M509.24,-647.7C509.79,-639.98 510.45,-630.71 511.06,-622.11"/>
<polygon fill="black" stroke="black" points="514.56,-622.33 511.78,-612.1 507.57,-621.83 514.56,-622.33"/>
</g>
<!-- ess.isissans.sans2d.sample_holder_mask_SampleHolderMask&#45;&gt;SampleHolderMask -->
<g id="edge30" class="edge">
<title>ess.isissans.sans2d.sample_holder_mask_SampleHolderMask&#45;&gt;SampleHolderMask</title>
<path fill="none" stroke="black" d="M1467.08,-359.7C1463.93,-351.81 1460.12,-342.3 1456.62,-333.55"/>
<polygon fill="black" stroke="black" points="1459.81,-332.09 1452.84,-324.1 1453.31,-334.69 1459.81,-332.09"/>
</g>
<!-- SampleOffset -->
<g id="node29" class="node">
<title>SampleOffset</title>
<polygon fill="none" stroke="black" points="781.5,-756 668.5,-756 668.5,-720 781.5,-720 781.5,-756"/>
<text text-anchor="middle" x="725" y="-734.3" font-family="Times,serif" font-size="14.00">SampleOffset</text>
</g>
<!-- SampleOffset&#45;&gt;ess.isissans.general.get_sample_position_SamplePosition[SampleRun] -->
<g id="edge32" class="edge">
<title>SampleOffset&#45;&gt;ess.isissans.general.get_sample_position_SamplePosition[SampleRun]</title>
<path fill="none" stroke="black" d="M725,-719.7C725,-711.98 725,-702.71 725,-694.11"/>
<polygon fill="black" stroke="black" points="728.5,-694.1 725,-684.1 721.5,-694.1 728.5,-694.1"/>
</g>
<!-- ess.isissans.general.get_sample_position_SamplePosition[SampleRun]&#45;&gt;SamplePosition[SampleRun] -->
<g id="edge33" class="edge">
<title>ess.isissans.general.get_sample_position_SamplePosition[SampleRun]&#45;&gt;SamplePosition[SampleRun]</title>
<path fill="none" stroke="black" d="M731.18,-647.7C734,-639.81 737.39,-630.3 740.52,-621.55"/>
<polygon fill="black" stroke="black" points="743.82,-622.7 743.89,-612.1 737.23,-620.34 743.82,-622.7"/>
</g>
<!-- ess.isissans.general.get_source_position_SourcePosition[SampleRun]&#45;&gt;SourcePosition[SampleRun] -->
<g id="edge35" class="edge">
<title>ess.isissans.general.get_source_position_SourcePosition[SampleRun]&#45;&gt;SourcePosition[SampleRun]</title>
<path fill="none" stroke="black" d="M285.53,-647.7C284.43,-639.98 283.1,-630.71 281.87,-622.11"/>
<polygon fill="black" stroke="black" points="285.32,-621.51 280.44,-612.1 278.39,-622.5 285.32,-621.51"/>
</g>
<!-- ess.isissans.general.data_to_tof_TofData[SampleRun]&#45;&gt;TofData[SampleRun] -->
<g id="edge37" class="edge">
<title>ess.isissans.general.data_to_tof_TofData[SampleRun]&#45;&gt;TofData[SampleRun]</title>
<path fill="none" stroke="black" d="M1058.73,-215.7C1059.5,-207.98 1060.43,-198.71 1061.29,-190.11"/>
<polygon fill="black" stroke="black" points="1064.78,-190.4 1062.29,-180.1 1057.81,-189.71 1064.78,-190.4"/>
</g>
</g>
</svg>
