<?xml version="1.0" encoding="UTF-8" standalone="no"?>
<!DOCTYPE svg PUBLIC "-//W3C//DTD SVG 1.1//EN"
 "http://www.w3.org/Graphics/SVG/1.1/DTD/svg11.dtd">
<!-- Generated by graphviz version 2.43.0 (0)
 -->
<!-- Title: %3 Pages: 1 -->
<svg width="3697pt" height="190pt"
 viewBox="0.00 0.00 3697.15 190.00" xmlns="http://www.w3.org/2000/svg" xmlns:xlink="http://www.w3.org/1999/xlink">
<g id="graph0" class="graph" transform="scale(1 1) rotate(0) translate(4 186)">
<title>%3</title>
<polygon fill="white" stroke="transparent" points="-4,4 -4,-186 3693.15,-186 3693.15,4 -4,4"/>
<!-- ess.sans.beam_center_finder.beam_center_from_center_of_mass_BeamCenter -->
<g id="node1" class="node">
<title>ess.sans.beam_center_finder.beam_center_from_center_of_mass_BeamCenter</title>
<ellipse fill="none" stroke="black" cx="3374.92" cy="-73" rx="172.47" ry="18"/>
<text text-anchor="middle" x="3374.92" y="-69.3" font-family="Times,serif" font-size="14.00">beam_center_from_center_of_mass</text>
</g>
<!-- BeamCenter -->
<g id="node4" class="node">
<title>BeamCenter</title>
<polygon fill="none" stroke="black" points="3689.15,-91 3583.15,-91 3583.15,-55 3689.15,-55 3689.15,-91"/>
<text text-anchor="middle" x="3636.15" y="-69.3" font-family="Times,serif" font-size="14.00">BeamCenter</text>
</g>
<!-- ess.sans.beam_center_finder.beam_center_from_center_of_mass_BeamCenter&#45;&gt;BeamCenter -->
<g id="edge3" class="edge">
<title>ess.sans.beam_center_finder.beam_center_from_center_of_mass_BeamCenter&#45;&gt;BeamCenter</title>
<path fill="none" stroke="black" d="M3547.39,-73C3556.16,-73 3564.65,-73 3572.66,-73"/>
<polygon fill="black" stroke="black" points="3572.91,-76.5 3582.91,-73 3572.91,-69.5 3572.91,-76.5"/>
</g>
<!-- MaskedData[SampleRun] -->
<g id="node2" class="node">
<title>MaskedData[SampleRun]</title>
<polygon fill="none" stroke="black" points="3152.19,-123 2954.19,-123 2954.19,-87 3152.19,-87 3152.19,-123"/>
<text text-anchor="middle" x="3053.19" y="-101.3" font-family="Times,serif" font-size="14.00">MaskedData[SampleRun]</text>
</g>
<!-- MaskedData[SampleRun]&#45;&gt;ess.sans.beam_center_finder.beam_center_from_center_of_mass_BeamCenter -->
<g id="edge1" class="edge">
<title>MaskedData[SampleRun]&#45;&gt;ess.sans.beam_center_finder.beam_center_from_center_of_mass_BeamCenter</title>
<path fill="none" stroke="black" d="M3152.29,-95.18C3179.88,-92.42 3210.36,-89.37 3239.67,-86.44"/>
<polygon fill="black" stroke="black" points="3240.38,-89.88 3249.98,-85.4 3239.68,-82.92 3240.38,-89.88"/>
</g>
<!-- ElasticCoordTransformGraph -->
<g id="node3" class="node">
<title>ElasticCoordTransformGraph</title>
<polygon fill="none" stroke="black" points="3166.69,-64 2939.69,-64 2939.69,-28 3166.69,-28 3166.69,-64"/>
<text text-anchor="middle" x="3053.19" y="-42.3" font-family="Times,serif" font-size="14.00">ElasticCoordTransformGraph</text>
</g>
<!-- ElasticCoordTransformGraph&#45;&gt;ess.sans.beam_center_finder.beam_center_from_center_of_mass_BeamCenter -->
<g id="edge2" class="edge">
<title>ElasticCoordTransformGraph&#45;&gt;ess.sans.beam_center_finder.beam_center_from_center_of_mass_BeamCenter</title>
<path fill="none" stroke="black" d="M3166.91,-55.52C3187.4,-57.25 3209.02,-59.08 3230.26,-60.87"/>
<polygon fill="black" stroke="black" points="3230.05,-64.36 3240.31,-61.72 3230.64,-57.39 3230.05,-64.36"/>
</g>
<!-- ess.isissans.components.apply_component_user_offsets_to_raw_data_ConfiguredReducibleData[SampleRun] -->
<g id="node5" class="node">
<title>ess.isissans.components.apply_component_user_offsets_to_raw_data_ConfiguredReducibleData[SampleRun]</title>
<ellipse fill="none" stroke="black" cx="1359.75" cy="-110" rx="211.76" ry="18"/>
<text text-anchor="middle" x="1359.75" y="-106.3" font-family="Times,serif" font-size="14.00">apply_component_user_offsets_to_raw_data</text>
</g>
<!-- ConfiguredReducibleData[SampleRun] -->
<g id="node9" class="node">
<title>ConfiguredReducibleData[SampleRun]</title>
<polygon fill="none" stroke="black" points="1899.63,-128 1607.63,-128 1607.63,-92 1899.63,-92 1899.63,-128"/>
<text text-anchor="middle" x="1753.63" y="-106.3" font-family="Times,serif" font-size="14.00">ConfiguredReducibleData[SampleRun]</text>
</g>
<!-- ess.isissans.components.apply_component_user_offsets_to_raw_data_ConfiguredReducibleData[SampleRun]&#45;&gt;ConfiguredReducibleData[SampleRun] -->
<g id="edge7" class="edge">
<title>ess.isissans.components.apply_component_user_offsets_to_raw_data_ConfiguredReducibleData[SampleRun]&#45;&gt;ConfiguredReducibleData[SampleRun]</title>
<path fill="none" stroke="black" d="M1571.89,-110C1580.44,-110 1588.96,-110 1597.37,-110"/>
<polygon fill="black" stroke="black" points="1597.58,-113.5 1607.58,-110 1597.58,-106.5 1597.58,-113.5"/>
</g>
<!-- RawData[SampleRun] -->
<g id="node6" class="node">
<title>RawData[SampleRun]</title>
<polygon fill="none" stroke="black" points="1111.87,-182 938.87,-182 938.87,-146 1111.87,-146 1111.87,-182"/>
<text text-anchor="middle" x="1025.37" y="-160.3" font-family="Times,serif" font-size="14.00">RawData[SampleRun]</text>
</g>
<!-- RawData[SampleRun]&#45;&gt;ess.isissans.components.apply_component_user_offsets_to_raw_data_ConfiguredReducibleData[SampleRun] -->
<g id="edge4" class="edge">
<title>RawData[SampleRun]&#45;&gt;ess.isissans.components.apply_component_user_offsets_to_raw_data_ConfiguredReducibleData[SampleRun]</title>
<path fill="none" stroke="black" d="M1111.96,-150.09C1154.17,-143.24 1205.52,-134.89 1250.43,-127.6"/>
<polygon fill="black" stroke="black" points="1251.19,-131.02 1260.5,-125.96 1250.07,-124.11 1251.19,-131.02"/>
</g>
<!-- SampleOffset -->
<g id="node7" class="node">
<title>SampleOffset</title>
<polygon fill="none" stroke="black" points="1081.87,-128 968.87,-128 968.87,-92 1081.87,-92 1081.87,-128"/>
<text text-anchor="middle" x="1025.37" y="-106.3" font-family="Times,serif" font-size="14.00">SampleOffset</text>
</g>
<!-- SampleOffset&#45;&gt;ess.isissans.components.apply_component_user_offsets_to_raw_data_ConfiguredReducibleData[SampleRun] -->
<g id="edge5" class="edge">
<title>SampleOffset&#45;&gt;ess.isissans.components.apply_component_user_offsets_to_raw_data_ConfiguredReducibleData[SampleRun]</title>
<path fill="none" stroke="black" d="M1082,-110C1098.36,-110 1117.33,-110 1137.53,-110"/>
<polygon fill="black" stroke="black" points="1137.53,-113.5 1147.53,-110 1137.53,-106.5 1137.53,-113.5"/>
</g>
<!-- DetectorBankOffset -->
<g id="node8" class="node">
<title>DetectorBankOffset</title>
<polygon fill="none" stroke="black" points="1104.37,-74 946.37,-74 946.37,-38 1104.37,-38 1104.37,-74"/>
<text text-anchor="middle" x="1025.37" y="-52.3" font-family="Times,serif" font-size="14.00">DetectorBankOffset</text>
</g>
<!-- DetectorBankOffset&#45;&gt;ess.isissans.components.apply_component_user_offsets_to_raw_data_ConfiguredReducibleData[SampleRun] -->
<g id="edge6" class="edge">
<title>DetectorBankOffset&#45;&gt;ess.isissans.components.apply_component_user_offsets_to_raw_data_ConfiguredReducibleData[SampleRun]</title>
<path fill="none" stroke="black" d="M1104.72,-68.73C1148.26,-75.8 1203.09,-84.71 1250.65,-92.44"/>
<polygon fill="black" stroke="black" points="1250.26,-95.92 1260.69,-94.07 1251.38,-89.01 1250.26,-95.92"/>
</g>
<!-- ess.isissans.general.data_to_tof_TofData[SampleRun] -->
<g id="node23" class="node">
<title>ess.isissans.general.data_to_tof_TofData[SampleRun]</title>
<ellipse fill="none" stroke="black" cx="1997.37" cy="-110" rx="61.99" ry="18"/>
<text text-anchor="middle" x="1997.37" y="-106.3" font-family="Times,serif" font-size="14.00">data_to_tof</text>
</g>
<!-- ConfiguredReducibleData[SampleRun]&#45;&gt;ess.isissans.general.data_to_tof_TofData[SampleRun] -->
<g id="edge23" class="edge">
<title>ConfiguredReducibleData[SampleRun]&#45;&gt;ess.isissans.general.data_to_tof_TofData[SampleRun]</title>
<path fill="none" stroke="black" d="M1899.79,-110C1908.53,-110 1917.1,-110 1925.29,-110"/>
<polygon fill="black" stroke="black" points="1925.46,-113.5 1935.46,-110 1925.46,-106.5 1925.46,-113.5"/>
</g>
<!-- CorrectForGravity -->
<g id="node10" class="node">
<title>CorrectForGravity</title>
<polygon fill="none" stroke="black" points="2696.8,-36 2548.8,-36 2548.8,0 2696.8,0 2696.8,-36"/>
<text text-anchor="middle" x="2622.8" y="-14.3" font-family="Times,serif" font-size="14.00">CorrectForGravity</text>
</g>
<!-- ess.sans.conversions.sans_elastic_ElasticCoordTransformGraph -->
<g id="node14" class="node">
<title>ess.sans.conversions.sans_elastic_ElasticCoordTransformGraph</title>
<ellipse fill="none" stroke="black" cx="2820.49" cy="-37" rx="66.09" ry="18"/>
<text text-anchor="middle" x="2820.49" y="-33.3" font-family="Times,serif" font-size="14.00">sans_elastic</text>
</g>
<!-- CorrectForGravity&#45;&gt;ess.sans.conversions.sans_elastic_ElasticCoordTransformGraph -->
<g id="edge10" class="edge">
<title>CorrectForGravity&#45;&gt;ess.sans.conversions.sans_elastic_ElasticCoordTransformGraph</title>
<path fill="none" stroke="black" d="M2696.95,-25.1C2713.49,-26.71 2731.04,-28.41 2747.53,-30.01"/>
<polygon fill="black" stroke="black" points="2747.35,-33.51 2757.65,-31 2748.03,-26.55 2747.35,-33.51"/>
</g>
<!-- ess.isissans.sans2d.detector_edge_mask_DetectorEdgeMask -->
<g id="node11" class="node">
<title>ess.isissans.sans2d.detector_edge_mask_DetectorEdgeMask</title>
<ellipse fill="none" stroke="black" cx="2401.71" cy="-110" rx="105.08" ry="18"/>
<text text-anchor="middle" x="2401.71" y="-106.3" font-family="Times,serif" font-size="14.00">detector_edge_mask</text>
</g>
<!-- DetectorEdgeMask -->
<g id="node13" class="node">
<title>DetectorEdgeMask</title>
<polygon fill="none" stroke="black" points="2699.8,-128 2545.8,-128 2545.8,-92 2699.8,-92 2699.8,-128"/>
<text text-anchor="middle" x="2622.8" y="-106.3" font-family="Times,serif" font-size="14.00">DetectorEdgeMask</text>
</g>
<!-- ess.isissans.sans2d.detector_edge_mask_DetectorEdgeMask&#45;&gt;DetectorEdgeMask -->
<g id="edge9" class="edge">
<title>ess.isissans.sans2d.detector_edge_mask_DetectorEdgeMask&#45;&gt;DetectorEdgeMask</title>
<path fill="none" stroke="black" d="M2507.12,-110C2516.67,-110 2526.27,-110 2535.64,-110"/>
<polygon fill="black" stroke="black" points="2535.69,-113.5 2545.69,-110 2535.69,-106.5 2535.69,-113.5"/>
</g>
<!-- TofData[SampleRun] -->
<g id="node12" class="node">
<title>TofData[SampleRun]</title>
<polygon fill="none" stroke="black" points="2259.12,-128 2095.12,-128 2095.12,-92 2259.12,-92 2259.12,-128"/>
<text text-anchor="middle" x="2177.12" y="-106.3" font-family="Times,serif" font-size="14.00">TofData[SampleRun]</text>
</g>
<!-- TofData[SampleRun]&#45;&gt;ess.isissans.sans2d.detector_edge_mask_DetectorEdgeMask -->
<g id="edge8" class="edge">
<title>TofData[SampleRun]&#45;&gt;ess.isissans.sans2d.detector_edge_mask_DetectorEdgeMask</title>
<path fill="none" stroke="black" d="M2259.42,-110C2268.09,-110 2277.01,-110 2285.96,-110"/>
<polygon fill="black" stroke="black" points="2286.07,-113.5 2296.07,-110 2286.07,-106.5 2286.07,-113.5"/>
</g>
<!-- ess.isissans.sans2d.mask_detectors_MaskedData[SampleRun] -->
<g id="node19" class="node">
<title>ess.isissans.sans2d.mask_detectors_MaskedData[SampleRun]</title>
<ellipse fill="none" stroke="black" cx="2820.49" cy="-107" rx="83.39" ry="18"/>
<text text-anchor="middle" x="2820.49" y="-103.3" font-family="Times,serif" font-size="14.00">mask_detectors</text>
</g>
<!-- TofData[SampleRun]&#45;&gt;ess.isissans.sans2d.mask_detectors_MaskedData[SampleRun] -->
<g id="edge14" class="edge">
<title>TofData[SampleRun]&#45;&gt;ess.isissans.sans2d.mask_detectors_MaskedData[SampleRun]</title>
<path fill="none" stroke="black" d="M2244.49,-91.94C2260.91,-88.23 2278.55,-84.89 2295.12,-83 2474.48,-62.57 2521.68,-64.95 2701.3,-83 2718.8,-84.76 2737.55,-87.95 2754.83,-91.44"/>
<polygon fill="black" stroke="black" points="2754.32,-94.91 2764.82,-93.52 2755.74,-88.05 2754.32,-94.91"/>
</g>
<!-- ess.isissans.sans2d.sample_holder_mask_SampleHolderMask -->
<g id="node22" class="node">
<title>ess.isissans.sans2d.sample_holder_mask_SampleHolderMask</title>
<ellipse fill="none" stroke="black" cx="2401.71" cy="-164" rx="106.68" ry="18"/>
<text text-anchor="middle" x="2401.71" y="-160.3" font-family="Times,serif" font-size="14.00">sample_holder_mask</text>
</g>
<!-- TofData[SampleRun]&#45;&gt;ess.isissans.sans2d.sample_holder_mask_SampleHolderMask -->
<g id="edge20" class="edge">
<title>TofData[SampleRun]&#45;&gt;ess.isissans.sans2d.sample_holder_mask_SampleHolderMask</title>
<path fill="none" stroke="black" d="M2252.55,-128.06C2277.54,-134.12 2305.33,-140.86 2330.03,-146.85"/>
<polygon fill="black" stroke="black" points="2329.5,-150.33 2340.04,-149.28 2331.15,-143.52 2329.5,-150.33"/>
</g>
<!-- DetectorEdgeMask&#45;&gt;ess.isissans.sans2d.mask_detectors_MaskedData[SampleRun] -->
<g id="edge15" class="edge">
<title>DetectorEdgeMask&#45;&gt;ess.isissans.sans2d.mask_detectors_MaskedData[SampleRun]</title>
<path fill="none" stroke="black" d="M2700.02,-108.83C2708.91,-108.7 2718.05,-108.56 2727.13,-108.42"/>
<polygon fill="black" stroke="black" points="2727.38,-111.91 2737.33,-108.26 2727.28,-104.91 2727.38,-111.91"/>
</g>
<!-- ess.sans.conversions.sans_elastic_ElasticCoordTransformGraph&#45;&gt;ElasticCoordTransformGraph -->
<g id="edge11" class="edge">
<title>ess.sans.conversions.sans_elastic_ElasticCoordTransformGraph&#45;&gt;ElasticCoordTransformGraph</title>
<path fill="none" stroke="black" d="M2886.37,-39.53C2899.79,-40.05 2914.36,-40.62 2929.09,-41.2"/>
<polygon fill="black" stroke="black" points="2929.18,-44.7 2939.3,-41.6 2929.45,-37.71 2929.18,-44.7"/>
</g>
<!-- Filename[SampleRun] -->
<g id="node15" class="node">
<title>Filename[SampleRun]</title>
<polygon fill="none" stroke="black" points="175,-182 0,-182 0,-146 175,-146 175,-182"/>
<text text-anchor="middle" x="87.5" y="-160.3" font-family="Times,serif" font-size="14.00">Filename[SampleRun]</text>
</g>
<!-- ess.isissans.data.load_tutorial_run_LoadedFileContents[SampleRun] -->
<g id="node16" class="node">
<title>ess.isissans.data.load_tutorial_run_LoadedFileContents[SampleRun]</title>
<ellipse fill="none" stroke="black" cx="300.69" cy="-164" rx="89.88" ry="18"/>
<text text-anchor="middle" x="300.69" y="-160.3" font-family="Times,serif" font-size="14.00">load_tutorial_run</text>
</g>
<!-- Filename[SampleRun]&#45;&gt;ess.isissans.data.load_tutorial_run_LoadedFileContents[SampleRun] -->
<g id="edge12" class="edge">
<title>Filename[SampleRun]&#45;&gt;ess.isissans.data.load_tutorial_run_LoadedFileContents[SampleRun]</title>
<path fill="none" stroke="black" d="M175.01,-164C183.52,-164 192.21,-164 200.84,-164"/>
<polygon fill="black" stroke="black" points="200.92,-167.5 210.92,-164 200.92,-160.5 200.92,-167.5"/>
</g>
<!-- LoadedFileContents[SampleRun] -->
<g id="node17" class="node">
<title>LoadedFileContents[SampleRun]</title>
<polygon fill="none" stroke="black" points="678.38,-182 426.38,-182 426.38,-146 678.38,-146 678.38,-182"/>
<text text-anchor="middle" x="552.38" y="-160.3" font-family="Times,serif" font-size="14.00">LoadedFileContents[SampleRun]</text>
</g>
<!-- ess.isissans.data.load_tutorial_run_LoadedFileContents[SampleRun]&#45;&gt;LoadedFileContents[SampleRun] -->
<g id="edge13" class="edge">
<title>ess.isissans.data.load_tutorial_run_LoadedFileContents[SampleRun]&#45;&gt;LoadedFileContents[SampleRun]</title>
<path fill="none" stroke="black" d="M390.43,-164C398.79,-164 407.39,-164 416.05,-164"/>
<polygon fill="black" stroke="black" points="416.25,-167.5 426.25,-164 416.25,-160.5 416.25,-167.5"/>
</g>
<!-- ess.isissans.general.get_detector_data_RawData[SampleRun] -->
<g id="node21" class="node">
<title>ess.isissans.general.get_detector_data_RawData[SampleRun]</title>
<ellipse fill="none" stroke="black" cx="808.63" cy="-164" rx="94.48" ry="18"/>
<text text-anchor="middle" x="808.63" y="-160.3" font-family="Times,serif" font-size="14.00">get_detector_data</text>
</g>
<!-- LoadedFileContents[SampleRun]&#45;&gt;ess.isissans.general.get_detector_data_RawData[SampleRun] -->
<g id="edge18" class="edge">
<title>LoadedFileContents[SampleRun]&#45;&gt;ess.isissans.general.get_detector_data_RawData[SampleRun]</title>
<path fill="none" stroke="black" d="M678.64,-164C687.2,-164 695.76,-164 704.19,-164"/>
<polygon fill="black" stroke="black" points="704.38,-167.5 714.38,-164 704.38,-160.5 704.38,-167.5"/>
</g>
<!-- LowCountThreshold -->
<g id="node18" class="node">
<title>LowCountThreshold</title>
<polygon fill="none" stroke="black" points="2257.12,-182 2097.12,-182 2097.12,-146 2257.12,-146 2257.12,-182"/>
<text text-anchor="middle" x="2177.12" y="-160.3" font-family="Times,serif" font-size="14.00">LowCountThreshold</text>
</g>
<!-- LowCountThreshold&#45;&gt;ess.isissans.sans2d.sample_holder_mask_SampleHolderMask -->
<g id="edge21" class="edge">
<title>LowCountThreshold&#45;&gt;ess.isissans.sans2d.sample_holder_mask_SampleHolderMask</title>
<path fill="none" stroke="black" d="M2257.22,-164C2266.22,-164 2275.52,-164 2284.86,-164"/>
<polygon fill="black" stroke="black" points="2285,-167.5 2295,-164 2285,-160.5 2285,-167.5"/>
</g>
<!-- ess.isissans.sans2d.mask_detectors_MaskedData[SampleRun]&#45;&gt;MaskedData[SampleRun] -->
<g id="edge17" class="edge">
<title>ess.isissans.sans2d.mask_detectors_MaskedData[SampleRun]&#45;&gt;MaskedData[SampleRun]</title>
<path fill="none" stroke="black" d="M2903.8,-106.29C2916.79,-106.17 2930.4,-106.06 2943.87,-105.94"/>
<polygon fill="black" stroke="black" points="2944.17,-109.44 2954.14,-105.85 2944.11,-102.44 2944.17,-109.44"/>
</g>
<!-- SampleHolderMask -->
<g id="node20" class="node">
<title>SampleHolderMask</title>
<polygon fill="none" stroke="black" points="2701.3,-182 2544.3,-182 2544.3,-146 2701.3,-146 2701.3,-182"/>
<text text-anchor="middle" x="2622.8" y="-160.3" font-family="Times,serif" font-size="14.00">SampleHolderMask</text>
</g>
<!-- SampleHolderMask&#45;&gt;ess.isissans.sans2d.mask_detectors_MaskedData[SampleRun] -->
<g id="edge16" class="edge">
<title>SampleHolderMask&#45;&gt;ess.isissans.sans2d.mask_detectors_MaskedData[SampleRun]</title>
<path fill="none" stroke="black" d="M2685.72,-145.96C2709.53,-139.03 2736.63,-131.14 2760.19,-124.27"/>
<polygon fill="black" stroke="black" points="2761.43,-127.56 2770.05,-121.4 2759.47,-120.84 2761.43,-127.56"/>
</g>
<!-- ess.isissans.general.get_detector_data_RawData[SampleRun]&#45;&gt;RawData[SampleRun] -->
<g id="edge19" class="edge">
<title>ess.isissans.general.get_detector_data_RawData[SampleRun]&#45;&gt;RawData[SampleRun]</title>
<path fill="none" stroke="black" d="M902.88,-164C911.33,-164 919.9,-164 928.37,-164"/>
<polygon fill="black" stroke="black" points="928.64,-167.5 938.64,-164 928.64,-160.5 928.64,-167.5"/>
</g>
<!-- ess.isissans.sans2d.sample_holder_mask_SampleHolderMask&#45;&gt;SampleHolderMask -->
<g id="edge22" class="edge">
<title>ess.isissans.sans2d.sample_holder_mask_SampleHolderMask&#45;&gt;SampleHolderMask</title>
<path fill="none" stroke="black" d="M2508.4,-164C2516.96,-164 2525.55,-164 2533.96,-164"/>
<polygon fill="black" stroke="black" points="2534.12,-167.5 2544.12,-164 2534.12,-160.5 2534.12,-167.5"/>
</g>
<!-- ess.isissans.general.data_to_tof_TofData[SampleRun]&#45;&gt;TofData[SampleRun] -->
<g id="edge24" class="edge">
<title>ess.isissans.general.data_to_tof_TofData[SampleRun]&#45;&gt;TofData[SampleRun]</title>
<path fill="none" stroke="black" d="M2059.54,-110C2067.77,-110 2076.35,-110 2084.96,-110"/>
<polygon fill="black" stroke="black" points="2085.06,-113.5 2095.06,-110 2085.06,-106.5 2085.06,-113.5"/>
</g>
</g>
</svg>
