<?xml version="1.0" encoding="UTF-8" standalone="no"?>
<!DOCTYPE svg PUBLIC "-//W3C//DTD SVG 1.1//EN"
 "http://www.w3.org/Graphics/SVG/1.1/DTD/svg11.dtd">
<!-- Generated by graphviz version 2.43.0 (0)
 -->
<!-- Title: %3 Pages: 1 -->
<svg width="878pt" height="908pt"
 viewBox="0.00 0.00 878.00 908.00" xmlns="http://www.w3.org/2000/svg" xmlns:xlink="http://www.w3.org/1999/xlink">
<g id="graph0" class="graph" transform="scale(1 1) rotate(0) translate(4 904)">
<title>%3</title>
<polygon fill="white" stroke="transparent" points="-4,4 -4,-904 874,-904 874,4 -4,4"/>
<!-- BeamCenter -->
<g id="node1" class="node">
<title>BeamCenter</title>
<polygon fill="none" stroke="black" points="697,-756 591,-756 591,-720 697,-720 697,-756"/>
<text text-anchor="middle" x="644" y="-734.3" font-family="Times,serif" font-size="14.00">BeamCenter</text>
</g>
<!-- ess.isissans.sans2d.detector_edge_mask_DetectorEdgeMask -->
<g id="node9" class="node">
<title>ess.isissans.sans2d.detector_edge_mask_DetectorEdgeMask</title>
<ellipse fill="none" stroke="black" cx="522" cy="-378" rx="105.08" ry="18"/>
<text text-anchor="middle" x="522" y="-374.3" font-family="Times,serif" font-size="14.00">detector_edge_mask</text>
</g>
<!-- BeamCenter&#45;&gt;ess.isissans.sans2d.detector_edge_mask_DetectorEdgeMask -->
<g id="edge6" class="edge">
<title>BeamCenter&#45;&gt;ess.isissans.sans2d.detector_edge_mask_DetectorEdgeMask</title>
<path fill="none" stroke="black" d="M644,-719.95C644,-693.29 644,-640.11 644,-595 644,-595 644,-595 644,-521 644,-479.53 642.11,-464.21 616,-432 604.76,-418.13 588.86,-407.24 573.33,-399.04"/>
<polygon fill="black" stroke="black" points="574.78,-395.85 564.27,-394.52 571.65,-402.11 574.78,-395.85"/>
</g>
<!-- ess.isissans.general.to_detector_position_offset_DetectorPositionOffset[SampleRun] -->
<g id="node14" class="node">
<title>ess.isissans.general.to_detector_position_offset_DetectorPositionOffset[SampleRun]</title>
<ellipse fill="none" stroke="black" cx="480" cy="-666" rx="135.38" ry="18"/>
<text text-anchor="middle" x="480" y="-662.3" font-family="Times,serif" font-size="14.00">to_detector_position_offset</text>
</g>
<!-- BeamCenter&#45;&gt;ess.isissans.general.to_detector_position_offset_DetectorPositionOffset[SampleRun] -->
<g id="edge13" class="edge">
<title>BeamCenter&#45;&gt;ess.isissans.general.to_detector_position_offset_DetectorPositionOffset[SampleRun]</title>
<path fill="none" stroke="black" d="M603.88,-719.88C580.86,-710.05 551.82,-697.65 527.64,-687.33"/>
<polygon fill="black" stroke="black" points="528.87,-684.05 518.29,-683.35 526.12,-690.49 528.87,-684.05"/>
</g>
<!-- ess.isissans.sans2d.sample_holder_mask_SampleHolderMask -->
<g id="node23" class="node">
<title>ess.isissans.sans2d.sample_holder_mask_SampleHolderMask</title>
<ellipse fill="none" stroke="black" cx="752" cy="-378" rx="106.68" ry="18"/>
<text text-anchor="middle" x="752" y="-374.3" font-family="Times,serif" font-size="14.00">sample_holder_mask</text>
</g>
<!-- BeamCenter&#45;&gt;ess.isissans.sans2d.sample_holder_mask_SampleHolderMask -->
<g id="edge22" class="edge">
<title>BeamCenter&#45;&gt;ess.isissans.sans2d.sample_holder_mask_SampleHolderMask</title>
<path fill="none" stroke="black" d="M651.69,-719.91C662.79,-693.62 682,-641.45 682,-595 682,-595 682,-595 682,-521 682,-480.55 682.03,-467.72 701,-432 706.7,-421.27 715.2,-411.2 723.64,-402.77"/>
<polygon fill="black" stroke="black" points="726.13,-405.24 730.97,-395.82 721.31,-400.16 726.13,-405.24"/>
</g>
<!-- ess.isissans.general.get_calibrated_isis_detector_CalibratedDetector[SampleRun] -->
<g id="node2" class="node">
<title>ess.isissans.general.get_calibrated_isis_detector_CalibratedDetector[SampleRun]</title>
<ellipse fill="none" stroke="black" cx="476" cy="-522" rx="140.28" ry="18"/>
<text text-anchor="middle" x="476" y="-518.3" font-family="Times,serif" font-size="14.00">get_calibrated_isis_detector</text>
</g>
<!-- CalibratedDetector[SampleRun] -->
<g id="node5" class="node">
<title>CalibratedDetector[SampleRun]</title>
<polygon fill="none" stroke="black" points="607,-468 361,-468 361,-432 607,-432 607,-468"/>
<text text-anchor="middle" x="484" y="-446.3" font-family="Times,serif" font-size="14.00">CalibratedDetector[SampleRun]</text>
</g>
<!-- ess.isissans.general.get_calibrated_isis_detector_CalibratedDetector[SampleRun]&#45;&gt;CalibratedDetector[SampleRun] -->
<g id="edge3" class="edge">
<title>ess.isissans.general.get_calibrated_isis_detector_CalibratedDetector[SampleRun]&#45;&gt;CalibratedDetector[SampleRun]</title>
<path fill="none" stroke="black" d="M477.98,-503.7C478.86,-495.98 479.92,-486.71 480.9,-478.11"/>
<polygon fill="black" stroke="black" points="484.39,-478.44 482.05,-468.1 477.43,-477.64 484.39,-478.44"/>
</g>
<!-- NeXusComponent[NXdetector, SampleRun] -->
<g id="node3" class="node">
<title>NeXusComponent[NXdetector, SampleRun]</title>
<polygon fill="none" stroke="black" points="326,-612 0,-612 0,-576 326,-576 326,-612"/>
<text text-anchor="middle" x="163" y="-590.3" font-family="Times,serif" font-size="14.00">NeXusComponent[NXdetector, SampleRun]</text>
</g>
<!-- NeXusComponent[NXdetector, SampleRun]&#45;&gt;ess.isissans.general.get_calibrated_isis_detector_CalibratedDetector[SampleRun] -->
<g id="edge1" class="edge">
<title>NeXusComponent[NXdetector, SampleRun]&#45;&gt;ess.isissans.general.get_calibrated_isis_detector_CalibratedDetector[SampleRun]</title>
<path fill="none" stroke="black" d="M239.17,-575.97C287.84,-565.08 350.73,-551.02 399.47,-540.11"/>
<polygon fill="black" stroke="black" points="400.34,-543.51 409.34,-537.91 398.81,-536.68 400.34,-543.51"/>
</g>
<!-- DetectorPositionOffset[SampleRun] -->
<g id="node4" class="node">
<title>DetectorPositionOffset[SampleRun]</title>
<polygon fill="none" stroke="black" points="615.5,-612 344.5,-612 344.5,-576 615.5,-576 615.5,-612"/>
<text text-anchor="middle" x="480" y="-590.3" font-family="Times,serif" font-size="14.00">DetectorPositionOffset[SampleRun]</text>
</g>
<!-- DetectorPositionOffset[SampleRun]&#45;&gt;ess.isissans.general.get_calibrated_isis_detector_CalibratedDetector[SampleRun] -->
<g id="edge2" class="edge">
<title>DetectorPositionOffset[SampleRun]&#45;&gt;ess.isissans.general.get_calibrated_isis_detector_CalibratedDetector[SampleRun]</title>
<path fill="none" stroke="black" d="M479.01,-575.7C478.57,-567.98 478.04,-558.71 477.55,-550.11"/>
<polygon fill="black" stroke="black" points="481.04,-549.89 476.98,-540.1 474.05,-550.29 481.04,-549.89"/>
</g>
<!-- ess.isissans.general.dummy_assemble_detector_data_DetectorData[SampleRun] -->
<g id="node7" class="node">
<title>ess.isissans.general.dummy_assemble_detector_data_DetectorData[SampleRun]</title>
<ellipse fill="none" stroke="black" cx="238" cy="-378" rx="161.37" ry="18"/>
<text text-anchor="middle" x="238" y="-374.3" font-family="Times,serif" font-size="14.00">dummy_assemble_detector_data</text>
</g>
<!-- CalibratedDetector[SampleRun]&#45;&gt;ess.isissans.general.dummy_assemble_detector_data_DetectorData[SampleRun] -->
<g id="edge4" class="edge">
<title>CalibratedDetector[SampleRun]&#45;&gt;ess.isissans.general.dummy_assemble_detector_data_DetectorData[SampleRun]</title>
<path fill="none" stroke="black" d="M424.14,-431.97C387.71,-421.6 341.15,-408.35 303.71,-397.7"/>
<polygon fill="black" stroke="black" points="304.48,-394.28 293.91,-394.91 302.57,-401.01 304.48,-394.28"/>
</g>
<!-- CalibratedDetector[SampleRun]&#45;&gt;ess.isissans.sans2d.detector_edge_mask_DetectorEdgeMask -->
<g id="edge7" class="edge">
<title>CalibratedDetector[SampleRun]&#45;&gt;ess.isissans.sans2d.detector_edge_mask_DetectorEdgeMask</title>
<path fill="none" stroke="black" d="M493.39,-431.7C497.76,-423.64 503.06,-413.89 507.9,-404.98"/>
<polygon fill="black" stroke="black" points="511.02,-406.56 512.71,-396.1 504.87,-403.22 511.02,-406.56"/>
</g>
<!-- CalibratedDetector[SampleRun]&#45;&gt;ess.isissans.sans2d.sample_holder_mask_SampleHolderMask -->
<g id="edge23" class="edge">
<title>CalibratedDetector[SampleRun]&#45;&gt;ess.isissans.sans2d.sample_holder_mask_SampleHolderMask</title>
<path fill="none" stroke="black" d="M549.22,-431.97C590.96,-421.06 644.92,-406.97 686.68,-396.06"/>
<polygon fill="black" stroke="black" points="687.68,-399.42 696.47,-393.5 685.91,-392.64 687.68,-399.42"/>
</g>
<!-- DetectorBankOffset -->
<g id="node6" class="node">
<title>DetectorBankOffset</title>
<polygon fill="none" stroke="black" points="559,-756 401,-756 401,-720 559,-720 559,-756"/>
<text text-anchor="middle" x="480" y="-734.3" font-family="Times,serif" font-size="14.00">DetectorBankOffset</text>
</g>
<!-- DetectorBankOffset&#45;&gt;ess.isissans.general.to_detector_position_offset_DetectorPositionOffset[SampleRun] -->
<g id="edge12" class="edge">
<title>DetectorBankOffset&#45;&gt;ess.isissans.general.to_detector_position_offset_DetectorPositionOffset[SampleRun]</title>
<path fill="none" stroke="black" d="M480,-719.7C480,-711.98 480,-702.71 480,-694.11"/>
<polygon fill="black" stroke="black" points="483.5,-694.1 480,-684.1 476.5,-694.1 483.5,-694.1"/>
</g>
<!-- DetectorData[SampleRun] -->
<g id="node8" class="node">
<title>DetectorData[SampleRun]</title>
<polygon fill="none" stroke="black" points="383.5,-324 178.5,-324 178.5,-288 383.5,-288 383.5,-324"/>
<text text-anchor="middle" x="281" y="-302.3" font-family="Times,serif" font-size="14.00">DetectorData[SampleRun]</text>
</g>
<!-- ess.isissans.general.dummy_assemble_detector_data_DetectorData[SampleRun]&#45;&gt;DetectorData[SampleRun] -->
<g id="edge5" class="edge">
<title>ess.isissans.general.dummy_assemble_detector_data_DetectorData[SampleRun]&#45;&gt;DetectorData[SampleRun]</title>
<path fill="none" stroke="black" d="M248.63,-359.7C253.63,-351.56 259.69,-341.69 265.21,-332.7"/>
<polygon fill="black" stroke="black" points="268.24,-334.46 270.49,-324.1 262.28,-330.79 268.24,-334.46"/>
</g>
<!-- ess.isissans.general.data_to_tof_TofData[SampleRun] -->
<g id="node24" class="node">
<title>ess.isissans.general.data_to_tof_TofData[SampleRun]</title>
<ellipse fill="none" stroke="black" cx="335" cy="-234" rx="61.99" ry="18"/>
<text text-anchor="middle" x="335" y="-230.3" font-family="Times,serif" font-size="14.00">data_to_tof</text>
</g>
<!-- DetectorData[SampleRun]&#45;&gt;ess.isissans.general.data_to_tof_TofData[SampleRun] -->
<g id="edge26" class="edge">
<title>DetectorData[SampleRun]&#45;&gt;ess.isissans.general.data_to_tof_TofData[SampleRun]</title>
<path fill="none" stroke="black" d="M294.35,-287.7C300.85,-279.27 308.79,-268.97 315.92,-259.73"/>
<polygon fill="black" stroke="black" points="318.84,-261.68 322.18,-251.62 313.3,-257.4 318.84,-261.68"/>
</g>
<!-- DetectorEdgeMask -->
<g id="node10" class="node">
<title>DetectorEdgeMask</title>
<polygon fill="none" stroke="black" points="599,-324 445,-324 445,-288 599,-288 599,-324"/>
<text text-anchor="middle" x="522" y="-302.3" font-family="Times,serif" font-size="14.00">DetectorEdgeMask</text>
</g>
<!-- ess.isissans.sans2d.detector_edge_mask_DetectorEdgeMask&#45;&gt;DetectorEdgeMask -->
<g id="edge8" class="edge">
<title>ess.isissans.sans2d.detector_edge_mask_DetectorEdgeMask&#45;&gt;DetectorEdgeMask</title>
<path fill="none" stroke="black" d="M522,-359.7C522,-351.98 522,-342.71 522,-334.11"/>
<polygon fill="black" stroke="black" points="525.5,-334.1 522,-324.1 518.5,-334.1 525.5,-334.1"/>
</g>
<!-- ess.isissans.sans2d.to_detector_masks_DetectorMasks -->
<g id="node11" class="node">
<title>ess.isissans.sans2d.to_detector_masks_DetectorMasks</title>
<ellipse fill="none" stroke="black" cx="522" cy="-234" rx="96.68" ry="18"/>
<text text-anchor="middle" x="522" y="-230.3" font-family="Times,serif" font-size="14.00">to_detector_masks</text>
</g>
<!-- DetectorEdgeMask&#45;&gt;ess.isissans.sans2d.to_detector_masks_DetectorMasks -->
<g id="edge9" class="edge">
<title>DetectorEdgeMask&#45;&gt;ess.isissans.sans2d.to_detector_masks_DetectorMasks</title>
<path fill="none" stroke="black" d="M522,-287.7C522,-279.98 522,-270.71 522,-262.11"/>
<polygon fill="black" stroke="black" points="525.5,-262.1 522,-252.1 518.5,-262.1 525.5,-262.1"/>
</g>
<!-- DetectorMasks -->
<g id="node13" class="node">
<title>DetectorMasks</title>
<polygon fill="none" stroke="black" points="570.5,-180 445.5,-180 445.5,-144 570.5,-144 570.5,-180"/>
<text text-anchor="middle" x="508" y="-158.3" font-family="Times,serif" font-size="14.00">DetectorMasks</text>
</g>
<!-- ess.isissans.sans2d.to_detector_masks_DetectorMasks&#45;&gt;DetectorMasks -->
<g id="edge11" class="edge">
<title>ess.isissans.sans2d.to_detector_masks_DetectorMasks&#45;&gt;DetectorMasks</title>
<path fill="none" stroke="black" d="M518.54,-215.7C517,-207.98 515.14,-198.71 513.42,-190.11"/>
<polygon fill="black" stroke="black" points="516.81,-189.22 511.42,-180.1 509.95,-190.6 516.81,-189.22"/>
</g>
<!-- SampleHolderMask -->
<g id="node12" class="node">
<title>SampleHolderMask</title>
<polygon fill="none" stroke="black" points="802.5,-324 645.5,-324 645.5,-288 802.5,-288 802.5,-324"/>
<text text-anchor="middle" x="724" y="-302.3" font-family="Times,serif" font-size="14.00">SampleHolderMask</text>
</g>
<!-- SampleHolderMask&#45;&gt;ess.isissans.sans2d.to_detector_masks_DetectorMasks -->
<g id="edge10" class="edge">
<title>SampleHolderMask&#45;&gt;ess.isissans.sans2d.to_detector_masks_DetectorMasks</title>
<path fill="none" stroke="black" d="M674.84,-287.97C644.71,-277.52 606.12,-264.15 575.26,-253.45"/>
<polygon fill="black" stroke="black" points="576.12,-250.05 565.53,-250.08 573.83,-256.67 576.12,-250.05"/>
</g>
<!-- ess.sans.masking.apply_pixel_masks_MaskedData[SampleRun] -->
<g id="node19" class="node">
<title>ess.sans.masking.apply_pixel_masks_MaskedData[SampleRun]</title>
<ellipse fill="none" stroke="black" cx="423" cy="-90" rx="96.68" ry="18"/>
<text text-anchor="middle" x="423" y="-86.3" font-family="Times,serif" font-size="14.00">apply_pixel_masks</text>
</g>
<!-- DetectorMasks&#45;&gt;ess.sans.masking.apply_pixel_masks_MaskedData[SampleRun] -->
<g id="edge18" class="edge">
<title>DetectorMasks&#45;&gt;ess.sans.masking.apply_pixel_masks_MaskedData[SampleRun]</title>
<path fill="none" stroke="black" d="M486.99,-143.7C476.12,-134.75 462.72,-123.71 450.99,-114.05"/>
<polygon fill="black" stroke="black" points="453.13,-111.28 443.18,-107.62 448.68,-116.68 453.13,-111.28"/>
</g>
<!-- ess.isissans.general.to_detector_position_offset_DetectorPositionOffset[SampleRun]&#45;&gt;DetectorPositionOffset[SampleRun] -->
<g id="edge14" class="edge">
<title>ess.isissans.general.to_detector_position_offset_DetectorPositionOffset[SampleRun]&#45;&gt;DetectorPositionOffset[SampleRun]</title>
<path fill="none" stroke="black" d="M480,-647.7C480,-639.98 480,-630.71 480,-622.11"/>
<polygon fill="black" stroke="black" points="483.5,-622.1 480,-612.1 476.5,-622.1 483.5,-622.1"/>
</g>
<!-- Filename[SampleRun] -->
<g id="node15" class="node">
<title>Filename[SampleRun]</title>
<polygon fill="none" stroke="black" points="250.5,-900 75.5,-900 75.5,-864 250.5,-864 250.5,-900"/>
<text text-anchor="middle" x="163" y="-878.3" font-family="Times,serif" font-size="14.00">Filename[SampleRun]</text>
</g>
<!-- ess.isissans.io.load_tutorial_run_LoadedFileContents[SampleRun] -->
<g id="node16" class="node">
<title>ess.isissans.io.load_tutorial_run_LoadedFileContents[SampleRun]</title>
<ellipse fill="none" stroke="black" cx="163" cy="-810" rx="89.88" ry="18"/>
<text text-anchor="middle" x="163" y="-806.3" font-family="Times,serif" font-size="14.00">load_tutorial_run</text>
</g>
<!-- Filename[SampleRun]&#45;&gt;ess.isissans.io.load_tutorial_run_LoadedFileContents[SampleRun] -->
<g id="edge15" class="edge">
<title>Filename[SampleRun]&#45;&gt;ess.isissans.io.load_tutorial_run_LoadedFileContents[SampleRun]</title>
<path fill="none" stroke="black" d="M163,-863.7C163,-855.98 163,-846.71 163,-838.11"/>
<polygon fill="black" stroke="black" points="166.5,-838.1 163,-828.1 159.5,-838.1 166.5,-838.1"/>
</g>
<!-- LoadedFileContents[SampleRun] -->
<g id="node17" class="node">
<title>LoadedFileContents[SampleRun]</title>
<polygon fill="none" stroke="black" points="289,-756 37,-756 37,-720 289,-720 289,-756"/>
<text text-anchor="middle" x="163" y="-734.3" font-family="Times,serif" font-size="14.00">LoadedFileContents[SampleRun]</text>
</g>
<!-- ess.isissans.io.load_tutorial_run_LoadedFileContents[SampleRun]&#45;&gt;LoadedFileContents[SampleRun] -->
<g id="edge16" class="edge">
<title>ess.isissans.io.load_tutorial_run_LoadedFileContents[SampleRun]&#45;&gt;LoadedFileContents[SampleRun]</title>
<path fill="none" stroke="black" d="M163,-791.7C163,-783.98 163,-774.71 163,-766.11"/>
<polygon fill="black" stroke="black" points="166.5,-766.1 163,-756.1 159.5,-766.1 166.5,-766.1"/>
</g>
<!-- ess.isissans.general.get_detector_data_NeXusComponent[NXdetector, SampleRun] -->
<g id="node22" class="node">
<title>ess.isissans.general.get_detector_data_NeXusComponent[NXdetector, SampleRun]</title>
<ellipse fill="none" stroke="black" cx="163" cy="-666" rx="94.48" ry="18"/>
<text text-anchor="middle" x="163" y="-662.3" font-family="Times,serif" font-size="14.00">get_detector_data</text>
</g>
<!-- LoadedFileContents[SampleRun]&#45;&gt;ess.isissans.general.get_detector_data_NeXusComponent[NXdetector, SampleRun] -->
<g id="edge20" class="edge">
<title>LoadedFileContents[SampleRun]&#45;&gt;ess.isissans.general.get_detector_data_NeXusComponent[NXdetector, SampleRun]</title>
<path fill="none" stroke="black" d="M163,-719.7C163,-711.98 163,-702.71 163,-694.11"/>
<polygon fill="black" stroke="black" points="166.5,-694.1 163,-684.1 159.5,-694.1 166.5,-694.1"/>
</g>
<!-- LowCountThreshold -->
<g id="node18" class="node">
<title>LowCountThreshold</title>
<polygon fill="none" stroke="black" points="870,-468 710,-468 710,-432 870,-432 870,-468"/>
<text text-anchor="middle" x="790" y="-446.3" font-family="Times,serif" font-size="14.00">LowCountThreshold</text>
</g>
<!-- LowCountThreshold&#45;&gt;ess.isissans.sans2d.sample_holder_mask_SampleHolderMask -->
<g id="edge24" class="edge">
<title>LowCountThreshold&#45;&gt;ess.isissans.sans2d.sample_holder_mask_SampleHolderMask</title>
<path fill="none" stroke="black" d="M780.61,-431.7C776.24,-423.64 770.94,-413.89 766.1,-404.98"/>
<polygon fill="black" stroke="black" points="769.13,-403.22 761.29,-396.1 762.98,-406.56 769.13,-403.22"/>
</g>
<!-- MaskedData[SampleRun] -->
<g id="node21" class="node">
<title>MaskedData[SampleRun]</title>
<polygon fill="none" stroke="black" points="522,-36 324,-36 324,0 522,0 522,-36"/>
<text text-anchor="middle" x="423" y="-14.3" font-family="Times,serif" font-size="14.00">MaskedData[SampleRun]</text>
</g>
<!-- ess.sans.masking.apply_pixel_masks_MaskedData[SampleRun]&#45;&gt;MaskedData[SampleRun] -->
<g id="edge19" class="edge">
<title>ess.sans.masking.apply_pixel_masks_MaskedData[SampleRun]&#45;&gt;MaskedData[SampleRun]</title>
<path fill="none" stroke="black" d="M423,-71.7C423,-63.98 423,-54.71 423,-46.11"/>
<polygon fill="black" stroke="black" points="426.5,-46.1 423,-36.1 419.5,-46.1 426.5,-46.1"/>
</g>
<!-- TofData[SampleRun] -->
<g id="node20" class="node">
<title>TofData[SampleRun]</title>
<polygon fill="none" stroke="black" points="424,-180 260,-180 260,-144 424,-144 424,-180"/>
<text text-anchor="middle" x="342" y="-158.3" font-family="Times,serif" font-size="14.00">TofData[SampleRun]</text>
</g>
<!-- TofData[SampleRun]&#45;&gt;ess.sans.masking.apply_pixel_masks_MaskedData[SampleRun] -->
<g id="edge17" class="edge">
<title>TofData[SampleRun]&#45;&gt;ess.sans.masking.apply_pixel_masks_MaskedData[SampleRun]</title>
<path fill="none" stroke="black" d="M362.02,-143.7C372.2,-134.9 384.72,-124.08 395.76,-114.54"/>
<polygon fill="black" stroke="black" points="398.21,-117.05 403.49,-107.86 393.63,-111.75 398.21,-117.05"/>
</g>
<!-- ess.isissans.general.get_detector_data_NeXusComponent[NXdetector, SampleRun]&#45;&gt;NeXusComponent[NXdetector, SampleRun] -->
<g id="edge21" class="edge">
<title>ess.isissans.general.get_detector_data_NeXusComponent[NXdetector, SampleRun]&#45;&gt;NeXusComponent[NXdetector, SampleRun]</title>
<path fill="none" stroke="black" d="M163,-647.7C163,-639.98 163,-630.71 163,-622.11"/>
<polygon fill="black" stroke="black" points="166.5,-622.1 163,-612.1 159.5,-622.1 166.5,-622.1"/>
</g>
<!-- ess.isissans.sans2d.sample_holder_mask_SampleHolderMask&#45;&gt;SampleHolderMask -->
<g id="edge25" class="edge">
<title>ess.isissans.sans2d.sample_holder_mask_SampleHolderMask&#45;&gt;SampleHolderMask</title>
<path fill="none" stroke="black" d="M745.08,-359.7C741.93,-351.81 738.12,-342.3 734.62,-333.55"/>
<polygon fill="black" stroke="black" points="737.81,-332.09 730.84,-324.1 731.31,-334.69 737.81,-332.09"/>
</g>
<!-- ess.isissans.general.data_to_tof_TofData[SampleRun]&#45;&gt;TofData[SampleRun] -->
<g id="edge27" class="edge">
<title>ess.isissans.general.data_to_tof_TofData[SampleRun]&#45;&gt;TofData[SampleRun]</title>
<path fill="none" stroke="black" d="M336.73,-215.7C337.5,-207.98 338.43,-198.71 339.29,-190.11"/>
<polygon fill="black" stroke="black" points="342.78,-190.4 340.29,-180.1 335.81,-189.71 342.78,-190.4"/>
</g>
</g>
</svg>
