<?xml version="1.0" encoding="utf-8" standalone="no"?>
<!DOCTYPE svg PUBLIC "-//W3C//DTD SVG 1.1//EN"
  "http://www.w3.org/Graphics/SVG/1.1/DTD/svg11.dtd">
<svg xmlns:xlink="http://www.w3.org/1999/xlink" width="423.96544pt" height="276.820187pt" viewBox="0 0 423.96544 276.820187" xmlns="http://www.w3.org/2000/svg" version="1.1">
 <metadata>
  <rdf:RDF xmlns:dc="http://purl.org/dc/elements/1.1/" xmlns:cc="http://creativecommons.org/ns#" xmlns:rdf="http://www.w3.org/1999/02/22-rdf-syntax-ns#">
   <cc:Work>
    <dc:type rdf:resource="http://purl.org/dc/dcmitype/StillImage"/>
    <dc:date>2024-06-17T05:51:27.696459</dc:date>
    <dc:format>image/svg+xml</dc:format>
    <dc:creator>
     <cc:Agent>
      <dc:title>Matplotlib v3.9.0, https://matplotlib.org/</dc:title>
     </cc:Agent>
    </dc:creator>
   </cc:Work>
  </rdf:RDF>
 </metadata>
 <defs>
  <style type="text/css">*{stroke-linejoin: round; stroke-linecap: butt}</style>
 </defs>
 <g id="figure_1">
  <g id="patch_1">
   <path d="M 0 276.820187 
L 423.96544 276.820187 
L 423.96544 -0 
L 0 -0 
z
" style="fill: #ffffff"/>
  </g>
  <g id="axes_1">
   <g id="patch_2">
    <path d="M 45.478125 238.3405 
L 416.76544 238.3405 
L 416.76544 7.2 
L 45.478125 7.2 
z
" style="fill: #ffffff"/>
   </g>
   <g id="matplotlib.axis_1">
    <g id="xtick_1">
     <g id="line2d_1">
      <defs>
       <path id="mac25bf9b3d" d="M 0 0 
L 0 3.5 
" style="stroke: #000000; stroke-width: 0.8"/>
      </defs>
      <g>
       <use xlink:href="#mac25bf9b3d" x="62.354821" y="238.3405" style="stroke: #000000; stroke-width: 0.8"/>
      </g>
     </g>
     <g id="text_1">
      <!-- $\mathdefault{10^{-2}}$ -->
      <g transform="translate(50.604821 252.938937) scale(0.1 -0.1)">
       <defs>
        <path id="DejaVuSans-31" d="M 794 531 
L 1825 531 
L 1825 4091 
L 703 3866 
L 703 4441 
L 1819 4666 
L 2450 4666 
L 2450 531 
L 3481 531 
L 3481 0 
L 794 0 
L 794 531 
z
" transform="scale(0.015625)"/>
        <path id="DejaVuSans-30" d="M 2034 4250 
Q 1547 4250 1301 3770 
Q 1056 3291 1056 2328 
Q 1056 1369 1301 889 
Q 1547 409 2034 409 
Q 2525 409 2770 889 
Q 3016 1369 3016 2328 
Q 3016 3291 2770 3770 
Q 2525 4250 2034 4250 
z
M 2034 4750 
Q 2819 4750 3233 4129 
Q 3647 3509 3647 2328 
Q 3647 1150 3233 529 
Q 2819 -91 2034 -91 
Q 1250 -91 836 529 
Q 422 1150 422 2328 
Q 422 3509 836 4129 
Q 1250 4750 2034 4750 
z
" transform="scale(0.015625)"/>
        <path id="DejaVuSans-2212" d="M 678 2272 
L 4684 2272 
L 4684 1741 
L 678 1741 
L 678 2272 
z
" transform="scale(0.015625)"/>
        <path id="DejaVuSans-32" d="M 1228 531 
L 3431 531 
L 3431 0 
L 469 0 
L 469 531 
Q 828 903 1448 1529 
Q 2069 2156 2228 2338 
Q 2531 2678 2651 2914 
Q 2772 3150 2772 3378 
Q 2772 3750 2511 3984 
Q 2250 4219 1831 4219 
Q 1534 4219 1204 4116 
Q 875 4013 500 3803 
L 500 4441 
Q 881 4594 1212 4672 
Q 1544 4750 1819 4750 
Q 2544 4750 2975 4387 
Q 3406 4025 3406 3419 
Q 3406 3131 3298 2873 
Q 3191 2616 2906 2266 
Q 2828 2175 2409 1742 
Q 1991 1309 1228 531 
z
" transform="scale(0.015625)"/>
       </defs>
       <use xlink:href="#DejaVuSans-31" transform="translate(0 0.765625)"/>
       <use xlink:href="#DejaVuSans-30" transform="translate(63.623047 0.765625)"/>
       <use xlink:href="#DejaVuSans-2212" transform="translate(128.203125 39.046875) scale(0.7)"/>
       <use xlink:href="#DejaVuSans-32" transform="translate(186.855469 39.046875) scale(0.7)"/>
      </g>
     </g>
    </g>
    <g id="xtick_2">
     <g id="line2d_2">
      <g>
       <use xlink:href="#mac25bf9b3d" x="252.177775" y="238.3405" style="stroke: #000000; stroke-width: 0.8"/>
      </g>
     </g>
     <g id="text_2">
      <!-- $\mathdefault{10^{-1}}$ -->
      <g transform="translate(240.427775 252.938937) scale(0.1 -0.1)">
       <use xlink:href="#DejaVuSans-31" transform="translate(0 0.684375)"/>
       <use xlink:href="#DejaVuSans-30" transform="translate(63.623047 0.684375)"/>
       <use xlink:href="#DejaVuSans-2212" transform="translate(128.203125 38.965625) scale(0.7)"/>
       <use xlink:href="#DejaVuSans-31" transform="translate(186.855469 38.965625) scale(0.7)"/>
      </g>
     </g>
    </g>
    <g id="xtick_3">
     <g id="line2d_3">
      <defs>
       <path id="m3211514a2f" d="M 0 0 
L 0 2 
" style="stroke: #000000; stroke-width: 0.6"/>
      </defs>
      <g>
       <use xlink:href="#m3211514a2f" x="53.668999" y="238.3405" style="stroke: #000000; stroke-width: 0.6"/>
      </g>
     </g>
    </g>
    <g id="xtick_4">
     <g id="line2d_4">
      <g>
       <use xlink:href="#m3211514a2f" x="119.497224" y="238.3405" style="stroke: #000000; stroke-width: 0.6"/>
      </g>
     </g>
    </g>
    <g id="xtick_5">
     <g id="line2d_5">
      <g>
       <use xlink:href="#m3211514a2f" x="152.923387" y="238.3405" style="stroke: #000000; stroke-width: 0.6"/>
      </g>
     </g>
    </g>
    <g id="xtick_6">
     <g id="line2d_6">
      <g>
       <use xlink:href="#m3211514a2f" x="176.639627" y="238.3405" style="stroke: #000000; stroke-width: 0.6"/>
      </g>
     </g>
    </g>
    <g id="xtick_7">
     <g id="line2d_7">
      <g>
       <use xlink:href="#m3211514a2f" x="195.035372" y="238.3405" style="stroke: #000000; stroke-width: 0.6"/>
      </g>
     </g>
    </g>
    <g id="xtick_8">
     <g id="line2d_8">
      <g>
       <use xlink:href="#m3211514a2f" x="210.06579" y="238.3405" style="stroke: #000000; stroke-width: 0.6"/>
      </g>
     </g>
    </g>
    <g id="xtick_9">
     <g id="line2d_9">
      <g>
       <use xlink:href="#m3211514a2f" x="222.773827" y="238.3405" style="stroke: #000000; stroke-width: 0.6"/>
      </g>
     </g>
    </g>
    <g id="xtick_10">
     <g id="line2d_10">
      <g>
       <use xlink:href="#m3211514a2f" x="233.78203" y="238.3405" style="stroke: #000000; stroke-width: 0.6"/>
      </g>
     </g>
    </g>
    <g id="xtick_11">
     <g id="line2d_11">
      <g>
       <use xlink:href="#m3211514a2f" x="243.491953" y="238.3405" style="stroke: #000000; stroke-width: 0.6"/>
      </g>
     </g>
    </g>
    <g id="xtick_12">
     <g id="line2d_12">
      <g>
       <use xlink:href="#m3211514a2f" x="309.320178" y="238.3405" style="stroke: #000000; stroke-width: 0.6"/>
      </g>
     </g>
    </g>
    <g id="xtick_13">
     <g id="line2d_13">
      <g>
       <use xlink:href="#m3211514a2f" x="342.746341" y="238.3405" style="stroke: #000000; stroke-width: 0.6"/>
      </g>
     </g>
    </g>
    <g id="xtick_14">
     <g id="line2d_14">
      <g>
       <use xlink:href="#m3211514a2f" x="366.462581" y="238.3405" style="stroke: #000000; stroke-width: 0.6"/>
      </g>
     </g>
    </g>
    <g id="xtick_15">
     <g id="line2d_15">
      <g>
       <use xlink:href="#m3211514a2f" x="384.858326" y="238.3405" style="stroke: #000000; stroke-width: 0.6"/>
      </g>
     </g>
    </g>
    <g id="xtick_16">
     <g id="line2d_16">
      <g>
       <use xlink:href="#m3211514a2f" x="399.888744" y="238.3405" style="stroke: #000000; stroke-width: 0.6"/>
      </g>
     </g>
    </g>
    <g id="xtick_17">
     <g id="line2d_17">
      <g>
       <use xlink:href="#m3211514a2f" x="412.596781" y="238.3405" style="stroke: #000000; stroke-width: 0.6"/>
      </g>
     </g>
    </g>
    <g id="text_3">
     <!-- Q [1/Å] -->
     <g transform="translate(213.409283 267.5405) scale(0.1 -0.1)">
      <defs>
       <path id="DejaVuSans-51" d="M 2522 4238 
Q 1834 4238 1429 3725 
Q 1025 3213 1025 2328 
Q 1025 1447 1429 934 
Q 1834 422 2522 422 
Q 3209 422 3611 934 
Q 4013 1447 4013 2328 
Q 4013 3213 3611 3725 
Q 3209 4238 2522 4238 
z
M 3406 84 
L 4238 -825 
L 3475 -825 
L 2784 -78 
Q 2681 -84 2626 -87 
Q 2572 -91 2522 -91 
Q 1538 -91 948 567 
Q 359 1225 359 2328 
Q 359 3434 948 4092 
Q 1538 4750 2522 4750 
Q 3503 4750 4090 4092 
Q 4678 3434 4678 2328 
Q 4678 1516 4351 937 
Q 4025 359 3406 84 
z
" transform="scale(0.015625)"/>
       <path id="DejaVuSans-20" transform="scale(0.015625)"/>
       <path id="DejaVuSans-5b" d="M 550 4863 
L 1875 4863 
L 1875 4416 
L 1125 4416 
L 1125 -397 
L 1875 -397 
L 1875 -844 
L 550 -844 
L 550 4863 
z
" transform="scale(0.015625)"/>
       <path id="DejaVuSans-2f" d="M 1625 4666 
L 2156 4666 
L 531 -594 
L 0 -594 
L 1625 4666 
z
" transform="scale(0.015625)"/>
       <path id="DejaVuSans-c5" d="M 2663 5081 
Q 2663 5278 2523 5417 
Q 2384 5556 2188 5556 
Q 1988 5556 1852 5420 
Q 1716 5284 1716 5081 
Q 1716 4884 1853 4746 
Q 1991 4609 2188 4609 
Q 2384 4609 2523 4746 
Q 2663 4884 2663 5081 
z
M 2188 4044 
L 1338 1722 
L 3041 1722 
L 2188 4044 
z
M 1716 4366 
Q 1525 4494 1428 4673 
Q 1331 4853 1331 5081 
Q 1331 5441 1579 5691 
Q 1828 5941 2188 5941 
Q 2544 5941 2795 5689 
Q 3047 5438 3047 5081 
Q 3047 4863 2948 4678 
Q 2850 4494 2663 4366 
L 4325 0 
L 3669 0 
L 3244 1197 
L 1141 1197 
L 716 0 
L 50 0 
L 1716 4366 
z
" transform="scale(0.015625)"/>
       <path id="DejaVuSans-5d" d="M 1947 4863 
L 1947 -844 
L 622 -844 
L 622 -397 
L 1369 -397 
L 1369 4416 
L 622 4416 
L 622 4863 
L 1947 4863 
z
" transform="scale(0.015625)"/>
      </defs>
      <use xlink:href="#DejaVuSans-51"/>
      <use xlink:href="#DejaVuSans-20" x="78.710938"/>
      <use xlink:href="#DejaVuSans-5b" x="110.498047"/>
      <use xlink:href="#DejaVuSans-31" x="149.511719"/>
      <use xlink:href="#DejaVuSans-2f" x="213.134766"/>
      <use xlink:href="#DejaVuSans-c5" x="246.826172"/>
      <use xlink:href="#DejaVuSans-5d" x="315.234375"/>
     </g>
    </g>
   </g>
   <g id="matplotlib.axis_2">
    <g id="ytick_1">
     <g id="line2d_18">
      <defs>
       <path id="m7ba25ff7b7" d="M 0 0 
L -3.5 0 
" style="stroke: #000000; stroke-width: 0.8"/>
      </defs>
      <g>
       <use xlink:href="#m7ba25ff7b7" x="45.478125" y="198.331654" style="stroke: #000000; stroke-width: 0.8"/>
      </g>
     </g>
     <g id="text_4">
      <!-- $\mathdefault{10^{1}}$ -->
      <g transform="translate(20.878125 202.130873) scale(0.1 -0.1)">
       <use xlink:href="#DejaVuSans-31" transform="translate(0 0.684375)"/>
       <use xlink:href="#DejaVuSans-30" transform="translate(63.623047 0.684375)"/>
       <use xlink:href="#DejaVuSans-31" transform="translate(128.203125 38.965625) scale(0.7)"/>
      </g>
     </g>
    </g>
    <g id="ytick_2">
     <g id="line2d_19">
      <g>
       <use xlink:href="#m7ba25ff7b7" x="45.478125" y="89.088798" style="stroke: #000000; stroke-width: 0.8"/>
      </g>
     </g>
     <g id="text_5">
      <!-- $\mathdefault{10^{2}}$ -->
      <g transform="translate(20.878125 92.888016) scale(0.1 -0.1)">
       <use xlink:href="#DejaVuSans-31" transform="translate(0 0.765625)"/>
       <use xlink:href="#DejaVuSans-30" transform="translate(63.623047 0.765625)"/>
       <use xlink:href="#DejaVuSans-32" transform="translate(128.203125 39.046875) scale(0.7)"/>
      </g>
     </g>
    </g>
    <g id="ytick_3">
     <g id="line2d_20">
      <defs>
       <path id="mca4770aedd" d="M 0 0 
L -2 0 
" style="stroke: #000000; stroke-width: 0.6"/>
      </defs>
      <g>
       <use xlink:href="#mca4770aedd" x="45.478125" y="231.217031" style="stroke: #000000; stroke-width: 0.6"/>
      </g>
     </g>
    </g>
    <g id="ytick_4">
     <g id="line2d_21">
      <g>
       <use xlink:href="#mca4770aedd" x="45.478125" y="222.567045" style="stroke: #000000; stroke-width: 0.6"/>
      </g>
     </g>
    </g>
    <g id="ytick_5">
     <g id="line2d_22">
      <g>
       <use xlink:href="#mca4770aedd" x="45.478125" y="215.253587" style="stroke: #000000; stroke-width: 0.6"/>
      </g>
     </g>
    </g>
    <g id="ytick_6">
     <g id="line2d_23">
      <g>
       <use xlink:href="#mca4770aedd" x="45.478125" y="208.918381" style="stroke: #000000; stroke-width: 0.6"/>
      </g>
     </g>
    </g>
    <g id="ytick_7">
     <g id="line2d_24">
      <g>
       <use xlink:href="#mca4770aedd" x="45.478125" y="203.330333" style="stroke: #000000; stroke-width: 0.6"/>
      </g>
     </g>
    </g>
    <g id="ytick_8">
     <g id="line2d_25">
      <g>
       <use xlink:href="#mca4770aedd" x="45.478125" y="165.446277" style="stroke: #000000; stroke-width: 0.6"/>
      </g>
     </g>
    </g>
    <g id="ytick_9">
     <g id="line2d_26">
      <g>
       <use xlink:href="#mca4770aedd" x="45.478125" y="146.209565" style="stroke: #000000; stroke-width: 0.6"/>
      </g>
     </g>
    </g>
    <g id="ytick_10">
     <g id="line2d_27">
      <g>
       <use xlink:href="#mca4770aedd" x="45.478125" y="132.560901" style="stroke: #000000; stroke-width: 0.6"/>
      </g>
     </g>
    </g>
    <g id="ytick_11">
     <g id="line2d_28">
      <g>
       <use xlink:href="#mca4770aedd" x="45.478125" y="121.974174" style="stroke: #000000; stroke-width: 0.6"/>
      </g>
     </g>
    </g>
    <g id="ytick_12">
     <g id="line2d_29">
      <g>
       <use xlink:href="#mca4770aedd" x="45.478125" y="113.324189" style="stroke: #000000; stroke-width: 0.6"/>
      </g>
     </g>
    </g>
    <g id="ytick_13">
     <g id="line2d_30">
      <g>
       <use xlink:href="#mca4770aedd" x="45.478125" y="106.01073" style="stroke: #000000; stroke-width: 0.6"/>
      </g>
     </g>
    </g>
    <g id="ytick_14">
     <g id="line2d_31">
      <g>
       <use xlink:href="#mca4770aedd" x="45.478125" y="99.675524" style="stroke: #000000; stroke-width: 0.6"/>
      </g>
     </g>
    </g>
    <g id="ytick_15">
     <g id="line2d_32">
      <g>
       <use xlink:href="#mca4770aedd" x="45.478125" y="94.087477" style="stroke: #000000; stroke-width: 0.6"/>
      </g>
     </g>
    </g>
    <g id="ytick_16">
     <g id="line2d_33">
      <g>
       <use xlink:href="#mca4770aedd" x="45.478125" y="56.203421" style="stroke: #000000; stroke-width: 0.6"/>
      </g>
     </g>
    </g>
    <g id="ytick_17">
     <g id="line2d_34">
      <g>
       <use xlink:href="#mca4770aedd" x="45.478125" y="36.966709" style="stroke: #000000; stroke-width: 0.6"/>
      </g>
     </g>
    </g>
    <g id="ytick_18">
     <g id="line2d_35">
      <g>
       <use xlink:href="#mca4770aedd" x="45.478125" y="23.318044" style="stroke: #000000; stroke-width: 0.6"/>
      </g>
     </g>
    </g>
    <g id="ytick_19">
     <g id="line2d_36">
      <g>
       <use xlink:href="#mca4770aedd" x="45.478125" y="12.731318" style="stroke: #000000; stroke-width: 0.6"/>
      </g>
     </g>
    </g>
    <g id="text_6">
     <!-- [dimensionless] -->
     <g transform="translate(14.798438 162.247594) rotate(-90) scale(0.1 -0.1)">
      <defs>
       <path id="DejaVuSans-64" d="M 2906 2969 
L 2906 4863 
L 3481 4863 
L 3481 0 
L 2906 0 
L 2906 525 
Q 2725 213 2448 61 
Q 2172 -91 1784 -91 
Q 1150 -91 751 415 
Q 353 922 353 1747 
Q 353 2572 751 3078 
Q 1150 3584 1784 3584 
Q 2172 3584 2448 3432 
Q 2725 3281 2906 2969 
z
M 947 1747 
Q 947 1113 1208 752 
Q 1469 391 1925 391 
Q 2381 391 2643 752 
Q 2906 1113 2906 1747 
Q 2906 2381 2643 2742 
Q 2381 3103 1925 3103 
Q 1469 3103 1208 2742 
Q 947 2381 947 1747 
z
" transform="scale(0.015625)"/>
       <path id="DejaVuSans-69" d="M 603 3500 
L 1178 3500 
L 1178 0 
L 603 0 
L 603 3500 
z
M 603 4863 
L 1178 4863 
L 1178 4134 
L 603 4134 
L 603 4863 
z
" transform="scale(0.015625)"/>
       <path id="DejaVuSans-6d" d="M 3328 2828 
Q 3544 3216 3844 3400 
Q 4144 3584 4550 3584 
Q 5097 3584 5394 3201 
Q 5691 2819 5691 2113 
L 5691 0 
L 5113 0 
L 5113 2094 
Q 5113 2597 4934 2840 
Q 4756 3084 4391 3084 
Q 3944 3084 3684 2787 
Q 3425 2491 3425 1978 
L 3425 0 
L 2847 0 
L 2847 2094 
Q 2847 2600 2669 2842 
Q 2491 3084 2119 3084 
Q 1678 3084 1418 2786 
Q 1159 2488 1159 1978 
L 1159 0 
L 581 0 
L 581 3500 
L 1159 3500 
L 1159 2956 
Q 1356 3278 1631 3431 
Q 1906 3584 2284 3584 
Q 2666 3584 2933 3390 
Q 3200 3197 3328 2828 
z
" transform="scale(0.015625)"/>
       <path id="DejaVuSans-65" d="M 3597 1894 
L 3597 1613 
L 953 1613 
Q 991 1019 1311 708 
Q 1631 397 2203 397 
Q 2534 397 2845 478 
Q 3156 559 3463 722 
L 3463 178 
Q 3153 47 2828 -22 
Q 2503 -91 2169 -91 
Q 1331 -91 842 396 
Q 353 884 353 1716 
Q 353 2575 817 3079 
Q 1281 3584 2069 3584 
Q 2775 3584 3186 3129 
Q 3597 2675 3597 1894 
z
M 3022 2063 
Q 3016 2534 2758 2815 
Q 2500 3097 2075 3097 
Q 1594 3097 1305 2825 
Q 1016 2553 972 2059 
L 3022 2063 
z
" transform="scale(0.015625)"/>
       <path id="DejaVuSans-6e" d="M 3513 2113 
L 3513 0 
L 2938 0 
L 2938 2094 
Q 2938 2591 2744 2837 
Q 2550 3084 2163 3084 
Q 1697 3084 1428 2787 
Q 1159 2491 1159 1978 
L 1159 0 
L 581 0 
L 581 3500 
L 1159 3500 
L 1159 2956 
Q 1366 3272 1645 3428 
Q 1925 3584 2291 3584 
Q 2894 3584 3203 3211 
Q 3513 2838 3513 2113 
z
" transform="scale(0.015625)"/>
       <path id="DejaVuSans-73" d="M 2834 3397 
L 2834 2853 
Q 2591 2978 2328 3040 
Q 2066 3103 1784 3103 
Q 1356 3103 1142 2972 
Q 928 2841 928 2578 
Q 928 2378 1081 2264 
Q 1234 2150 1697 2047 
L 1894 2003 
Q 2506 1872 2764 1633 
Q 3022 1394 3022 966 
Q 3022 478 2636 193 
Q 2250 -91 1575 -91 
Q 1294 -91 989 -36 
Q 684 19 347 128 
L 347 722 
Q 666 556 975 473 
Q 1284 391 1588 391 
Q 1994 391 2212 530 
Q 2431 669 2431 922 
Q 2431 1156 2273 1281 
Q 2116 1406 1581 1522 
L 1381 1569 
Q 847 1681 609 1914 
Q 372 2147 372 2553 
Q 372 3047 722 3315 
Q 1072 3584 1716 3584 
Q 2034 3584 2315 3537 
Q 2597 3491 2834 3397 
z
" transform="scale(0.015625)"/>
       <path id="DejaVuSans-6f" d="M 1959 3097 
Q 1497 3097 1228 2736 
Q 959 2375 959 1747 
Q 959 1119 1226 758 
Q 1494 397 1959 397 
Q 2419 397 2687 759 
Q 2956 1122 2956 1747 
Q 2956 2369 2687 2733 
Q 2419 3097 1959 3097 
z
M 1959 3584 
Q 2709 3584 3137 3096 
Q 3566 2609 3566 1747 
Q 3566 888 3137 398 
Q 2709 -91 1959 -91 
Q 1206 -91 779 398 
Q 353 888 353 1747 
Q 353 2609 779 3096 
Q 1206 3584 1959 3584 
z
" transform="scale(0.015625)"/>
       <path id="DejaVuSans-6c" d="M 603 4863 
L 1178 4863 
L 1178 0 
L 603 0 
L 603 4863 
z
" transform="scale(0.015625)"/>
      </defs>
      <use xlink:href="#DejaVuSans-5b"/>
      <use xlink:href="#DejaVuSans-64" x="39.013672"/>
      <use xlink:href="#DejaVuSans-69" x="102.490234"/>
      <use xlink:href="#DejaVuSans-6d" x="130.273438"/>
      <use xlink:href="#DejaVuSans-65" x="227.685547"/>
      <use xlink:href="#DejaVuSans-6e" x="289.208984"/>
      <use xlink:href="#DejaVuSans-73" x="352.587891"/>
      <use xlink:href="#DejaVuSans-69" x="404.6875"/>
      <use xlink:href="#DejaVuSans-6f" x="432.470703"/>
      <use xlink:href="#DejaVuSans-6e" x="493.652344"/>
      <use xlink:href="#DejaVuSans-6c" x="557.03125"/>
      <use xlink:href="#DejaVuSans-65" x="584.814453"/>
      <use xlink:href="#DejaVuSans-73" x="646.337891"/>
      <use xlink:href="#DejaVuSans-73" x="698.4375"/>
      <use xlink:href="#DejaVuSans-5d" x="750.537109"/>
     </g>
    </g>
   </g>
   <g id="patch_3">
    <path d="M 45.478125 238.3405 
L 45.478125 7.2 
" style="fill: none; stroke: #000000; stroke-width: 0.8; stroke-linejoin: miter; stroke-linecap: square"/>
   </g>
   <g id="patch_4">
    <path d="M 416.76544 238.3405 
L 416.76544 7.2 
" style="fill: none; stroke: #000000; stroke-width: 0.8; stroke-linejoin: miter; stroke-linecap: square"/>
   </g>
   <g id="patch_5">
    <path d="M 45.478125 238.3405 
L 416.76544 238.3405 
" style="fill: none; stroke: #000000; stroke-width: 0.8; stroke-linejoin: miter; stroke-linecap: square"/>
   </g>
   <g id="patch_6">
    <path d="M 45.478125 7.2 
L 416.76544 7.2 
" style="fill: none; stroke: #000000; stroke-width: 0.8; stroke-linejoin: miter; stroke-linecap: square"/>
   </g>
   <g id="line2d_37">
    <path d="M 62.354821 65.17229 
L 62.354821 65.17229 
L 118.807354 65.17229 
L 118.807354 60.033231 
L 152.002271 60.033231 
L 152.002271 53.856465 
L 175.602644 53.856465 
L 175.602644 46.123971 
L 193.928791 46.123971 
L 193.928791 34.786947 
L 208.912777 34.786947 
L 208.912777 23.62843 
L 221.587633 23.62843 
L 221.587633 17.879219 
L 232.570941 17.879219 
L 232.570941 25.333556 
L 242.261496 25.333556 
L 242.261496 46.679754 
L 250.931821 46.679754 
L 250.931821 74.376528 
L 258.776421 74.376528 
L 258.776421 100.991425 
L 265.938987 100.991425 
L 265.938987 124.071871 
L 272.528688 124.071871 
L 272.528688 142.499245 
L 278.630412 142.499245 
L 278.630412 156.094566 
L 284.311474 156.094566 
L 284.311474 165.132026 
L 289.626153 165.132026 
L 289.626153 169.276039 
L 294.618859 169.276039 
L 294.618859 171.850172 
L 299.326383 171.850172 
L 299.326383 172.641216 
L 303.779552 172.641216 
L 303.779552 173.003259 
L 308.004449 173.003259 
L 308.004449 173.831768 
L 312.02334 173.831768 
L 312.02334 175.126101 
L 315.855385 175.126101 
L 315.855385 175.215735 
L 319.517187 175.215735 
L 319.517187 175.633121 
L 323.023232 175.633121 
L 323.023232 176.459313 
L 326.386232 176.459313 
L 326.386232 177.227949 
L 329.617403 177.227949 
L 329.617403 177.6846 
L 332.726691 177.6846 
L 332.726691 178.826149 
L 335.722958 178.826149 
L 335.722958 178.375851 
L 338.614134 178.375851 
L 338.614134 179.135309 
L 341.407341 179.135309 
L 341.407341 179.332275 
L 344.109001 179.332275 
L 344.109001 178.835052 
L 346.724926 178.835052 
L 346.724926 177.848069 
L 349.260391 177.848069 
L 349.260391 179.955859 
L 351.720196 179.955859 
L 351.720196 178.045909 
L 354.108728 178.045909 
L 354.108728 178.873616 
L 356.43 178.873616 
L 356.43 179.077562 
L 358.687697 179.077562 
L 358.687697 178.371261 
L 360.885209 178.371261 
L 360.885209 178.973498 
L 363.025661 178.973498 
L 363.025661 180.267241 
L 365.111942 180.267241 
L 365.111942 178.668 
L 367.146727 178.668 
L 367.146727 181.019313 
L 369.132495 181.019313 
L 369.132495 182.167862 
L 371.071554 182.167862 
L 371.071554 180.533194 
L 372.96605 180.533194 
L 372.96605 179.585532 
L 374.817986 179.585532 
L 374.817986 180.010415 
L 376.629231 180.010415 
L 376.629231 178.841346 
L 378.401537 178.841346 
L 378.401537 184.41061 
L 380.136541 184.41061 
L 380.136541 190.575625 
L 381.835782 190.575625 
L 381.835782 180.855485 
L 383.500704 180.855485 
L 383.500704 182.300354 
L 385.132666 182.300354 
L 385.132666 189.716996 
L 386.732948 189.716996 
L 386.732948 183.23416 
L 388.302757 183.23416 
L 388.302757 181.481177 
L 389.84323 181.481177 
L 389.84323 186.215868 
L 391.355446 186.215868 
L 391.355446 176.154061 
L 392.840421 176.154061 
L 392.840421 171.785176 
L 394.29912 171.785176 
L 394.29912 179.004308 
L 395.732456 179.004308 
L 395.732456 186.438856 
L 397.141297 186.438856 
L 397.141297 184.812539 
L 398.526466 184.812539 
L 398.526466 211.725985 
L 399.888744 211.725985 
" clip-path="url(#p7fc55a6ee8)" style="fill: none; stroke: #1f77b4; stroke-width: 1.5; stroke-linecap: square"/>
   </g>
   <g id="LineCollection_1">
    <path d="M 95.321712 65.590863 
L 95.321712 64.757379 
" clip-path="url(#p7fc55a6ee8)" style="fill: none; stroke: #1f77b4; stroke-width: 1.5"/>
    <path d="M 137.064429 60.330593 
L 137.064429 59.737721 
" clip-path="url(#p7fc55a6ee8)" style="fill: none; stroke: #1f77b4; stroke-width: 1.5"/>
    <path d="M 164.644119 54.102739 
L 164.644119 53.611463 
" clip-path="url(#p7fc55a6ee8)" style="fill: none; stroke: #1f77b4; stroke-width: 1.5"/>
    <path d="M 185.273909 46.339522 
L 185.273909 45.909395 
" clip-path="url(#p7fc55a6ee8)" style="fill: none; stroke: #1f77b4; stroke-width: 1.5"/>
    <path d="M 201.76075 34.981321 
L 201.76075 34.593366 
" clip-path="url(#p7fc55a6ee8)" style="fill: none; stroke: #1f77b4; stroke-width: 1.5"/>
    <path d="M 215.493558 23.809649 
L 215.493558 23.4479 
" clip-path="url(#p7fc55a6ee8)" style="fill: none; stroke: #1f77b4; stroke-width: 1.5"/>
    <path d="M 227.262065 18.052684 
L 227.262065 17.706386 
" clip-path="url(#p7fc55a6ee8)" style="fill: none; stroke: #1f77b4; stroke-width: 1.5"/>
    <path d="M 237.558525 25.505414 
L 237.558525 25.162318 
" clip-path="url(#p7fc55a6ee8)" style="fill: none; stroke: #1f77b4; stroke-width: 1.5"/>
    <path d="M 246.710591 46.85569 
L 246.710591 46.504468 
" clip-path="url(#p7fc55a6ee8)" style="fill: none; stroke: #1f77b4; stroke-width: 1.5"/>
    <path d="M 254.947394 74.55978 
L 254.947394 74.19398 
" clip-path="url(#p7fc55a6ee8)" style="fill: none; stroke: #1f77b4; stroke-width: 1.5"/>
    <path d="M 262.435468 101.19019 
L 262.435468 100.793489 
" clip-path="url(#p7fc55a6ee8)" style="fill: none; stroke: #1f77b4; stroke-width: 1.5"/>
    <path d="M 269.299663 124.29178 
L 269.299663 123.852976 
" clip-path="url(#p7fc55a6ee8)" style="fill: none; stroke: #1f77b4; stroke-width: 1.5"/>
    <path d="M 275.63599 142.743449 
L 275.63599 142.256291 
" clip-path="url(#p7fc55a6ee8)" style="fill: none; stroke: #1f77b4; stroke-width: 1.5"/>
    <path d="M 281.51987 156.365565 
L 281.51987 155.825106 
" clip-path="url(#p7fc55a6ee8)" style="fill: none; stroke: #1f77b4; stroke-width: 1.5"/>
    <path d="M 287.011635 165.428092 
L 287.011635 164.837795 
" clip-path="url(#p7fc55a6ee8)" style="fill: none; stroke: #1f77b4; stroke-width: 1.5"/>
    <path d="M 292.160296 169.589409 
L 292.160296 168.964725 
" clip-path="url(#p7fc55a6ee8)" style="fill: none; stroke: #1f77b4; stroke-width: 1.5"/>
    <path d="M 297.006218 172.179699 
L 297.006218 171.522918 
" clip-path="url(#p7fc55a6ee8)" style="fill: none; stroke: #1f77b4; stroke-width: 1.5"/>
    <path d="M 301.583032 172.983897 
L 301.583032 172.300992 
" clip-path="url(#p7fc55a6ee8)" style="fill: none; stroke: #1f77b4; stroke-width: 1.5"/>
    <path d="M 305.919063 173.361206 
L 305.919063 172.647993 
" clip-path="url(#p7fc55a6ee8)" style="fill: none; stroke: #1f77b4; stroke-width: 1.5"/>
    <path d="M 310.038382 174.208473 
L 310.038382 173.45803 
" clip-path="url(#p7fc55a6ee8)" style="fill: none; stroke: #1f77b4; stroke-width: 1.5"/>
    <path d="M 313.961626 175.524508 
L 313.961626 174.731013 
" clip-path="url(#p7fc55a6ee8)" style="fill: none; stroke: #1f77b4; stroke-width: 1.5"/>
    <path d="M 317.706616 175.634815 
L 317.706616 174.800325 
" clip-path="url(#p7fc55a6ee8)" style="fill: none; stroke: #1f77b4; stroke-width: 1.5"/>
    <path d="M 321.288847 176.076086 
L 321.288847 175.194254 
" clip-path="url(#p7fc55a6ee8)" style="fill: none; stroke: #1f77b4; stroke-width: 1.5"/>
    <path d="M 324.72188 176.931882 
L 324.72188 175.991408 
" clip-path="url(#p7fc55a6ee8)" style="fill: none; stroke: #1f77b4; stroke-width: 1.5"/>
    <path d="M 328.017647 177.729792 
L 328.017647 176.731359 
" clip-path="url(#p7fc55a6ee8)" style="fill: none; stroke: #1f77b4; stroke-width: 1.5"/>
    <path d="M 331.186704 178.217932 
L 331.186704 177.157196 
" clip-path="url(#p7fc55a6ee8)" style="fill: none; stroke: #1f77b4; stroke-width: 1.5"/>
    <path d="M 334.238436 179.396978 
L 334.238436 178.262106 
" clip-path="url(#p7fc55a6ee8)" style="fill: none; stroke: #1f77b4; stroke-width: 1.5"/>
    <path d="M 337.181219 178.981875 
L 337.181219 177.777471 
" clip-path="url(#p7fc55a6ee8)" style="fill: none; stroke: #1f77b4; stroke-width: 1.5"/>
    <path d="M 340.022567 179.788307 
L 340.022567 178.491177 
" clip-path="url(#p7fc55a6ee8)" style="fill: none; stroke: #1f77b4; stroke-width: 1.5"/>
    <path d="M 342.769238 180.036456 
L 342.769238 178.638393 
" clip-path="url(#p7fc55a6ee8)" style="fill: none; stroke: #1f77b4; stroke-width: 1.5"/>
    <path d="M 345.427339 179.600438 
L 345.427339 178.081818 
" clip-path="url(#p7fc55a6ee8)" style="fill: none; stroke: #1f77b4; stroke-width: 1.5"/>
    <path d="M 348.002406 178.677348 
L 348.002406 177.033036 
" clip-path="url(#p7fc55a6ee8)" style="fill: none; stroke: #1f77b4; stroke-width: 1.5"/>
    <path d="M 350.499467 180.886981 
L 350.499467 179.042661 
" clip-path="url(#p7fc55a6ee8)" style="fill: none; stroke: #1f77b4; stroke-width: 1.5"/>
    <path d="M 352.923112 179.068538 
L 352.923112 177.044859 
" clip-path="url(#p7fc55a6ee8)" style="fill: none; stroke: #1f77b4; stroke-width: 1.5"/>
    <path d="M 355.277534 180.019161 
L 355.277534 177.75508 
" clip-path="url(#p7fc55a6ee8)" style="fill: none; stroke: #1f77b4; stroke-width: 1.5"/>
    <path d="M 357.566577 180.337534 
L 357.566577 177.850187 
" clip-path="url(#p7fc55a6ee8)" style="fill: none; stroke: #1f77b4; stroke-width: 1.5"/>
    <path d="M 359.793775 179.762515 
L 359.793775 177.019646 
" clip-path="url(#p7fc55a6ee8)" style="fill: none; stroke: #1f77b4; stroke-width: 1.5"/>
    <path d="M 361.962382 180.506658 
L 361.962382 177.488336 
" clip-path="url(#p7fc55a6ee8)" style="fill: none; stroke: #1f77b4; stroke-width: 1.5"/>
    <path d="M 364.075401 181.950757 
L 364.075401 178.641423 
" clip-path="url(#p7fc55a6ee8)" style="fill: none; stroke: #1f77b4; stroke-width: 1.5"/>
    <path d="M 366.135612 180.496603 
L 366.135612 176.907268 
" clip-path="url(#p7fc55a6ee8)" style="fill: none; stroke: #1f77b4; stroke-width: 1.5"/>
    <path d="M 368.14559 183.03342 
L 368.14559 179.087239 
" clip-path="url(#p7fc55a6ee8)" style="fill: none; stroke: #1f77b4; stroke-width: 1.5"/>
    <path d="M 370.107725 184.359043 
L 370.107725 180.07343 
" clip-path="url(#p7fc55a6ee8)" style="fill: none; stroke: #1f77b4; stroke-width: 1.5"/>
    <path d="M 372.024244 182.933494 
L 372.024244 178.248507 
" clip-path="url(#p7fc55a6ee8)" style="fill: none; stroke: #1f77b4; stroke-width: 1.5"/>
    <path d="M 373.897218 182.234181 
L 373.897218 177.076964 
" clip-path="url(#p7fc55a6ee8)" style="fill: none; stroke: #1f77b4; stroke-width: 1.5"/>
    <path d="M 375.728583 183.024578 
L 375.728583 177.17636 
" clip-path="url(#p7fc55a6ee8)" style="fill: none; stroke: #1f77b4; stroke-width: 1.5"/>
    <path d="M 377.520147 182.19027 
L 377.520147 175.713309 
" clip-path="url(#p7fc55a6ee8)" style="fill: none; stroke: #1f77b4; stroke-width: 1.5"/>
    <path d="M 379.273603 188.311025 
L 379.273603 180.806638 
" clip-path="url(#p7fc55a6ee8)" style="fill: none; stroke: #1f77b4; stroke-width: 1.5"/>
    <path d="M 380.990539 195.060881 
L 380.990539 186.478015 
" clip-path="url(#p7fc55a6ee8)" style="fill: none; stroke: #1f77b4; stroke-width: 1.5"/>
    <path d="M 382.672446 185.516581 
L 382.672446 176.611631 
" clip-path="url(#p7fc55a6ee8)" style="fill: none; stroke: #1f77b4; stroke-width: 1.5"/>
    <path d="M 384.320723 187.555708 
L 384.320723 177.569521 
" clip-path="url(#p7fc55a6ee8)" style="fill: none; stroke: #1f77b4; stroke-width: 1.5"/>
    <path d="M 385.93669 196.329859 
L 385.93669 183.914111 
" clip-path="url(#p7fc55a6ee8)" style="fill: none; stroke: #1f77b4; stroke-width: 1.5"/>
    <path d="M 387.521589 190.099804 
L 387.521589 177.23761 
" clip-path="url(#p7fc55a6ee8)" style="fill: none; stroke: #1f77b4; stroke-width: 1.5"/>
    <path d="M 389.076592 188.820372 
L 389.076592 175.126678 
" clip-path="url(#p7fc55a6ee8)" style="fill: none; stroke: #1f77b4; stroke-width: 1.5"/>
    <path d="M 390.602805 194.639857 
L 390.602805 179.064498 
" clip-path="url(#p7fc55a6ee8)" style="fill: none; stroke: #1f77b4; stroke-width: 1.5"/>
    <path d="M 392.101277 185.432609 
L 392.101277 168.396673 
" clip-path="url(#p7fc55a6ee8)" style="fill: none; stroke: #1f77b4; stroke-width: 1.5"/>
    <path d="M 393.572997 182.523865 
L 393.572997 163.034152 
" clip-path="url(#p7fc55a6ee8)" style="fill: none; stroke: #1f77b4; stroke-width: 1.5"/>
    <path d="M 395.018903 194.326532 
L 395.018903 167.44107 
" clip-path="url(#p7fc55a6ee8)" style="fill: none; stroke: #1f77b4; stroke-width: 1.5"/>
    <path d="M 396.439886 206.468565 
L 396.439886 172.398608 
" clip-path="url(#p7fc55a6ee8)" style="fill: none; stroke: #1f77b4; stroke-width: 1.5"/>
    <path d="M 397.836791 227.834114 
L 397.836791 162.627194 
" clip-path="url(#p7fc55a6ee8)" style="fill: none; stroke: #1f77b4; stroke-width: 1.5"/>
    <path d="M 399.210419 277.820187 
L 399.210419 177.770439 
" clip-path="url(#p7fc55a6ee8)" style="fill: none; stroke: #1f77b4; stroke-width: 1.5"/>
   </g>
  </g>
 </g>
 <defs>
  <clipPath id="p7fc55a6ee8">
   <rect x="45.478125" y="7.2" width="371.287315" height="231.1405"/>
  </clipPath>
 </defs>
</svg>
