<?xml version="1.0" encoding="UTF-8" standalone="no"?>
<!DOCTYPE svg PUBLIC "-//W3C//DTD SVG 1.1//EN"
 "http://www.w3.org/Graphics/SVG/1.1/DTD/svg11.dtd">
<!-- Generated by graphviz version 2.43.0 (0)
 -->
<!-- Title: %3 Pages: 1 -->
<svg width="4586pt" height="222pt"
 viewBox="0.00 0.00 4585.83 222.15" xmlns="http://www.w3.org/2000/svg" xmlns:xlink="http://www.w3.org/1999/xlink">
<g id="graph0" class="graph" transform="scale(1 1) rotate(0) translate(4 218.15)">
<title>%3</title>
<polygon fill="white" stroke="transparent" points="-4,4 -4,-218.15 4581.83,-218.15 4581.83,4 -4,4"/>
<!-- ess.sans.beam_center_finder.beam_center_from_center_of_mass_BeamCenter -->
<g id="node1" class="node">
<title>ess.sans.beam_center_finder.beam_center_from_center_of_mass_BeamCenter</title>
<ellipse fill="none" stroke="black" cx="4263.6" cy="-45" rx="172.47" ry="18"/>
<text text-anchor="middle" x="4263.6" y="-41.3" font-family="Times,serif" font-size="14.00">beam_center_from_center_of_mass</text>
</g>
<!-- BeamCenter -->
<g id="node4" class="node">
<title>BeamCenter</title>
<polygon fill="none" stroke="black" points="4577.83,-63 4471.83,-63 4471.83,-27 4577.83,-27 4577.83,-63"/>
<text text-anchor="middle" x="4524.83" y="-41.3" font-family="Times,serif" font-size="14.00">BeamCenter</text>
</g>
<!-- ess.sans.beam_center_finder.beam_center_from_center_of_mass_BeamCenter&#45;&gt;BeamCenter -->
<g id="edge3" class="edge">
<title>ess.sans.beam_center_finder.beam_center_from_center_of_mass_BeamCenter&#45;&gt;BeamCenter</title>
<path fill="none" stroke="black" d="M4436.07,-45C4444.84,-45 4453.32,-45 4461.34,-45"/>
<polygon fill="black" stroke="black" points="4461.58,-48.5 4471.58,-45 4461.58,-41.5 4461.58,-48.5"/>
</g>
<!-- MaskedData[SampleRun] -->
<g id="node2" class="node">
<title>MaskedData[SampleRun]</title>
<polygon fill="none" stroke="black" points="4040.86,-90 3842.86,-90 3842.86,-54 4040.86,-54 4040.86,-90"/>
<text text-anchor="middle" x="3941.86" y="-68.3" font-family="Times,serif" font-size="14.00">MaskedData[SampleRun]</text>
</g>
<!-- MaskedData[SampleRun]&#45;&gt;ess.sans.beam_center_finder.beam_center_from_center_of_mass_BeamCenter -->
<g id="edge1" class="edge">
<title>MaskedData[SampleRun]&#45;&gt;ess.sans.beam_center_finder.beam_center_from_center_of_mass_BeamCenter</title>
<path fill="none" stroke="black" d="M4040.96,-63.72C4065.63,-61.63 4092.6,-59.36 4118.98,-57.13"/>
<polygon fill="black" stroke="black" points="4119.39,-60.61 4129.06,-56.28 4118.8,-53.63 4119.39,-60.61"/>
</g>
<!-- ElasticCoordTransformGraph -->
<g id="node3" class="node">
<title>ElasticCoordTransformGraph</title>
<polygon fill="none" stroke="black" points="4055.36,-36 3828.36,-36 3828.36,0 4055.36,0 4055.36,-36"/>
<text text-anchor="middle" x="3941.86" y="-14.3" font-family="Times,serif" font-size="14.00">ElasticCoordTransformGraph</text>
</g>
<!-- ElasticCoordTransformGraph&#45;&gt;ess.sans.beam_center_finder.beam_center_from_center_of_mass_BeamCenter -->
<g id="edge2" class="edge">
<title>ElasticCoordTransformGraph&#45;&gt;ess.sans.beam_center_finder.beam_center_from_center_of_mass_BeamCenter</title>
<path fill="none" stroke="black" d="M4055.59,-27.52C4076.08,-29.25 4097.7,-31.08 4118.93,-32.87"/>
<polygon fill="black" stroke="black" points="4118.73,-36.36 4128.99,-33.72 4119.32,-29.39 4118.73,-36.36"/>
</g>
<!-- ess.loki.general.patch_detector_data_ConfiguredReducibleData[SampleRun] -->
<g id="node5" class="node">
<title>ess.loki.general.patch_detector_data_ConfiguredReducibleData[SampleRun]</title>
<ellipse fill="none" stroke="black" cx="1370.1" cy="-102" rx="104.78" ry="18"/>
<text text-anchor="middle" x="1370.1" y="-98.3" font-family="Times,serif" font-size="14.00">patch_detector_data</text>
</g>
<!-- ConfiguredReducibleData[SampleRun] -->
<g id="node9" class="node">
<title>ConfiguredReducibleData[SampleRun]</title>
<polygon fill="none" stroke="black" points="1802.74,-120 1510.74,-120 1510.74,-84 1802.74,-84 1802.74,-120"/>
<text text-anchor="middle" x="1656.74" y="-98.3" font-family="Times,serif" font-size="14.00">ConfiguredReducibleData[SampleRun]</text>
</g>
<!-- ess.loki.general.patch_detector_data_ConfiguredReducibleData[SampleRun]&#45;&gt;ConfiguredReducibleData[SampleRun] -->
<g id="edge7" class="edge">
<title>ess.loki.general.patch_detector_data_ConfiguredReducibleData[SampleRun]&#45;&gt;ConfiguredReducibleData[SampleRun]</title>
<path fill="none" stroke="black" d="M1475.07,-102C1483.41,-102 1491.93,-102 1500.51,-102"/>
<polygon fill="black" stroke="black" points="1500.61,-105.5 1510.61,-102 1500.61,-98.5 1500.61,-105.5"/>
</g>
<!-- RawData[SampleRun] -->
<g id="node6" class="node">
<title>RawData[SampleRun]</title>
<polygon fill="none" stroke="black" points="1206.46,-174 1033.46,-174 1033.46,-138 1206.46,-138 1206.46,-174"/>
<text text-anchor="middle" x="1119.96" y="-152.3" font-family="Times,serif" font-size="14.00">RawData[SampleRun]</text>
</g>
<!-- RawData[SampleRun]&#45;&gt;ess.loki.general.patch_detector_data_ConfiguredReducibleData[SampleRun] -->
<g id="edge4" class="edge">
<title>RawData[SampleRun]&#45;&gt;ess.loki.general.patch_detector_data_ConfiguredReducibleData[SampleRun]</title>
<path fill="none" stroke="black" d="M1203.93,-137.94C1233.17,-131.58 1265.85,-124.47 1294.37,-118.26"/>
<polygon fill="black" stroke="black" points="1295.24,-121.66 1304.27,-116.11 1293.75,-114.82 1295.24,-121.66"/>
</g>
<!-- SourcePosition[SampleRun] -->
<g id="node7" class="node">
<title>SourcePosition[SampleRun]</title>
<polygon fill="none" stroke="black" points="1227.46,-66 1012.46,-66 1012.46,-30 1227.46,-30 1227.46,-66"/>
<text text-anchor="middle" x="1119.96" y="-44.3" font-family="Times,serif" font-size="14.00">SourcePosition[SampleRun]</text>
</g>
<!-- SourcePosition[SampleRun]&#45;&gt;ess.loki.general.patch_detector_data_ConfiguredReducibleData[SampleRun] -->
<g id="edge5" class="edge">
<title>SourcePosition[SampleRun]&#45;&gt;ess.loki.general.patch_detector_data_ConfiguredReducibleData[SampleRun]</title>
<path fill="none" stroke="black" d="M1203.93,-66.06C1233.17,-72.42 1265.85,-79.53 1294.37,-85.74"/>
<polygon fill="black" stroke="black" points="1293.75,-89.18 1304.27,-87.89 1295.24,-82.34 1293.75,-89.18"/>
</g>
<!-- SamplePosition[SampleRun] -->
<g id="node8" class="node">
<title>SamplePosition[SampleRun]</title>
<polygon fill="none" stroke="black" points="1229.46,-120 1010.46,-120 1010.46,-84 1229.46,-84 1229.46,-120"/>
<text text-anchor="middle" x="1119.96" y="-98.3" font-family="Times,serif" font-size="14.00">SamplePosition[SampleRun]</text>
</g>
<!-- SamplePosition[SampleRun]&#45;&gt;ess.loki.general.patch_detector_data_ConfiguredReducibleData[SampleRun] -->
<g id="edge6" class="edge">
<title>SamplePosition[SampleRun]&#45;&gt;ess.loki.general.patch_detector_data_ConfiguredReducibleData[SampleRun]</title>
<path fill="none" stroke="black" d="M1229.8,-102C1238.13,-102 1246.56,-102 1254.92,-102"/>
<polygon fill="black" stroke="black" points="1255.09,-105.5 1265.09,-102 1255.09,-98.5 1255.09,-105.5"/>
</g>
<!-- ess.loki.general.data_to_tof_TofData[SampleRun] -->
<g id="node34" class="node">
<title>ess.loki.general.data_to_tof_TofData[SampleRun]</title>
<ellipse fill="none" stroke="black" cx="1900.49" cy="-102" rx="61.99" ry="18"/>
<text text-anchor="middle" x="1900.49" y="-98.3" font-family="Times,serif" font-size="14.00">data_to_tof</text>
</g>
<!-- ConfiguredReducibleData[SampleRun]&#45;&gt;ess.loki.general.data_to_tof_TofData[SampleRun] -->
<g id="edge37" class="edge">
<title>ConfiguredReducibleData[SampleRun]&#45;&gt;ess.loki.general.data_to_tof_TofData[SampleRun]</title>
<path fill="none" stroke="black" d="M1802.9,-102C1811.65,-102 1820.21,-102 1828.41,-102"/>
<polygon fill="black" stroke="black" points="1828.58,-105.5 1838.58,-102 1828.58,-98.5 1828.58,-105.5"/>
</g>
<!-- CorrectForGravity -->
<g id="node10" class="node">
<title>CorrectForGravity</title>
<polygon fill="none" stroke="black" points="3562.68,-36 3414.68,-36 3414.68,0 3562.68,0 3562.68,-36"/>
<text text-anchor="middle" x="3488.68" y="-14.3" font-family="Times,serif" font-size="14.00">CorrectForGravity</text>
</g>
<!-- ess.sans.conversions.sans_elastic_ElasticCoordTransformGraph -->
<g id="node20" class="node">
<title>ess.sans.conversions.sans_elastic_ElasticCoordTransformGraph</title>
<ellipse fill="none" stroke="black" cx="3695.52" cy="-18" rx="66.09" ry="18"/>
<text text-anchor="middle" x="3695.52" y="-14.3" font-family="Times,serif" font-size="14.00">sans_elastic</text>
</g>
<!-- CorrectForGravity&#45;&gt;ess.sans.conversions.sans_elastic_ElasticCoordTransformGraph -->
<g id="edge16" class="edge">
<title>CorrectForGravity&#45;&gt;ess.sans.conversions.sans_elastic_ElasticCoordTransformGraph</title>
<path fill="none" stroke="black" d="M3562.76,-18C3580.99,-18 3600.57,-18 3618.91,-18"/>
<polygon fill="black" stroke="black" points="3618.96,-21.5 3628.96,-18 3618.96,-14.5 3618.96,-21.5"/>
</g>
<!-- ess.sans.masking.get_detector_ids_from_sample_run_DetectorIDs -->
<g id="node11" class="node">
<title>ess.sans.masking.get_detector_ids_from_sample_run_DetectorIDs</title>
<ellipse fill="none" stroke="black" cx="2409.82" cy="-114" rx="171.67" ry="18"/>
<text text-anchor="middle" x="2409.82" y="-110.3" font-family="Times,serif" font-size="14.00">get_detector_ids_from_sample_run</text>
</g>
<!-- DetectorIDs -->
<g id="node13" class="node">
<title>DetectorIDs</title>
<polygon fill="none" stroke="black" points="2771.9,-132 2668.9,-132 2668.9,-96 2771.9,-96 2771.9,-132"/>
<text text-anchor="middle" x="2720.4" y="-110.3" font-family="Times,serif" font-size="14.00">DetectorIDs</text>
</g>
<!-- ess.sans.masking.get_detector_ids_from_sample_run_DetectorIDs&#45;&gt;DetectorIDs -->
<g id="edge9" class="edge">
<title>ess.sans.masking.get_detector_ids_from_sample_run_DetectorIDs&#45;&gt;DetectorIDs</title>
<path fill="none" stroke="black" d="M2581.81,-114C2609.3,-114 2636.08,-114 2658.59,-114"/>
<polygon fill="black" stroke="black" points="2658.63,-117.5 2668.63,-114 2658.63,-110.5 2658.63,-117.5"/>
</g>
<!-- TofData[SampleRun] -->
<g id="node12" class="node">
<title>TofData[SampleRun]</title>
<polygon fill="none" stroke="black" points="2182.23,-120 2018.23,-120 2018.23,-84 2182.23,-84 2182.23,-120"/>
<text text-anchor="middle" x="2100.23" y="-98.3" font-family="Times,serif" font-size="14.00">TofData[SampleRun]</text>
</g>
<!-- TofData[SampleRun]&#45;&gt;ess.sans.masking.get_detector_ids_from_sample_run_DetectorIDs -->
<g id="edge8" class="edge">
<title>TofData[SampleRun]&#45;&gt;ess.sans.masking.get_detector_ids_from_sample_run_DetectorIDs</title>
<path fill="none" stroke="black" d="M2182.45,-105.17C2199.96,-105.85 2219.09,-106.6 2238.58,-107.36"/>
<polygon fill="black" stroke="black" points="2238.67,-110.86 2248.8,-107.76 2238.94,-103.87 2238.67,-110.86"/>
</g>
<!-- ess.sans.masking.apply_pixel_masks_MaskedData[SampleRun] -->
<g id="node25" class="node">
<title>ess.sans.masking.apply_pixel_masks_MaskedData[SampleRun]</title>
<ellipse fill="none" stroke="black" cx="3695.52" cy="-72" rx="96.68" ry="18"/>
<text text-anchor="middle" x="3695.52" y="-68.3" font-family="Times,serif" font-size="14.00">apply_pixel_masks</text>
</g>
<!-- TofData[SampleRun]&#45;&gt;ess.sans.masking.apply_pixel_masks_MaskedData[SampleRun] -->
<g id="edge21" class="edge">
<title>TofData[SampleRun]&#45;&gt;ess.sans.masking.apply_pixel_masks_MaskedData[SampleRun]</title>
<path fill="none" stroke="black" d="M2182.28,-92.18C2200.66,-90.22 2220.1,-88.35 2238.23,-87 2451.66,-71.12 2505.38,-68 2719.4,-68 2719.4,-68 2719.4,-68 3334.83,-68 3420.1,-68 3516.73,-69.14 3588.34,-70.2"/>
<polygon fill="black" stroke="black" points="3588.67,-73.7 3598.72,-70.36 3588.78,-66.71 3588.67,-73.7"/>
</g>
<!-- ess.sans.masking.to_detector_mask_DetectorMasks(mask) -->
<g id="node17" class="node">
<title>ess.sans.masking.to_detector_mask_DetectorMasks(mask)</title>
<ellipse fill="none" stroke="black" cx="2951.69" cy="-161" rx="92.08" ry="18"/>
<text text-anchor="middle" x="2951.69" y="-157.3" font-family="Times,serif" font-size="14.00">to_detector_mask</text>
</g>
<!-- DetectorIDs&#45;&gt;ess.sans.masking.to_detector_mask_DetectorMasks(mask) -->
<g id="edge12" class="edge">
<title>DetectorIDs&#45;&gt;ess.sans.masking.to_detector_mask_DetectorMasks(mask)</title>
<path fill="none" stroke="black" d="M2772.01,-124.37C2802.97,-130.72 2843.12,-138.95 2877.52,-146"/>
<polygon fill="black" stroke="black" points="2877.02,-149.47 2887.52,-148.05 2878.43,-142.61 2877.02,-149.47"/>
</g>
<!-- ess.sans.workflow._merge_DetectorMasks -->
<g id="node14" class="node">
<title>ess.sans.workflow._merge_DetectorMasks</title>
<ellipse fill="none" stroke="black" cx="3333.83" cy="-141" rx="44.69" ry="18"/>
<text text-anchor="middle" x="3333.83" y="-137.3" font-family="Times,serif" font-size="14.00">_merge</text>
</g>
<!-- DetectorMasks -->
<g id="node16" class="node">
<title>DetectorMasks</title>
<polygon fill="none" stroke="black" points="3551.18,-146 3426.18,-146 3426.18,-110 3551.18,-110 3551.18,-146"/>
<text text-anchor="middle" x="3488.68" y="-124.3" font-family="Times,serif" font-size="14.00">DetectorMasks</text>
</g>
<!-- ess.sans.workflow._merge_DetectorMasks&#45;&gt;DetectorMasks -->
<g id="edge11" class="edge">
<title>ess.sans.workflow._merge_DetectorMasks&#45;&gt;DetectorMasks</title>
<path fill="none" stroke="black" d="M3377.82,-137.34C3389.59,-136.34 3402.68,-135.23 3415.61,-134.13"/>
<polygon fill="black" stroke="black" points="3416.25,-137.59 3425.91,-133.25 3415.65,-130.61 3416.25,-137.59"/>
</g>
<!-- DetectorMasks(mask) -->
<g id="node15" class="node">
<title>DetectorMasks(mask)</title>
<polygon fill="none" stroke="black" points="3252.99,-172 3083.99,-172 3079.99,-168 3079.99,-136 3248.99,-136 3252.99,-140 3252.99,-172"/>
<polyline fill="none" stroke="black" points="3248.99,-168 3079.99,-168 "/>
<polyline fill="none" stroke="black" points="3248.99,-168 3248.99,-136 "/>
<polyline fill="none" stroke="black" points="3248.99,-168 3252.99,-172 "/>
<text text-anchor="middle" x="3166.49" y="-150.3" font-family="Times,serif" font-size="14.00">DetectorMasks(mask)</text>
</g>
<!-- DetectorMasks(mask)&#45;&gt;ess.sans.workflow._merge_DetectorMasks -->
<g id="edge10" class="edge">
<title>DetectorMasks(mask)&#45;&gt;ess.sans.workflow._merge_DetectorMasks</title>
<path fill="none" stroke="black" d="M3253.07,-147.27C3262.03,-146.57 3270.95,-145.87 3279.4,-145.2"/>
<polygon fill="black" stroke="black" points="3279.75,-148.68 3289.44,-144.41 3279.2,-141.71 3279.75,-148.68"/>
</g>
<!-- DetectorMasks&#45;&gt;ess.sans.masking.apply_pixel_masks_MaskedData[SampleRun] -->
<g id="edge22" class="edge">
<title>DetectorMasks&#45;&gt;ess.sans.masking.apply_pixel_masks_MaskedData[SampleRun]</title>
<path fill="none" stroke="black" d="M3551.42,-111.12C3576.37,-104.3 3605.18,-96.42 3630.38,-89.53"/>
<polygon fill="black" stroke="black" points="3631.48,-92.86 3640.21,-86.85 3629.64,-86.11 3631.48,-92.86"/>
</g>
<!-- ess.sans.masking.to_detector_mask_DetectorMasks(mask)&#45;&gt;DetectorMasks(mask) -->
<g id="edge15" class="edge">
<title>ess.sans.masking.to_detector_mask_DetectorMasks(mask)&#45;&gt;DetectorMasks(mask)</title>
<path fill="none" stroke="black" d="M3042.94,-158.03C3051.83,-157.74 3060.87,-157.44 3069.81,-157.15"/>
<polygon fill="black" stroke="black" points="3069.97,-160.64 3079.85,-156.82 3069.74,-153.65 3069.97,-160.64"/>
</g>
<!-- PixelMaskFilename(mask) -->
<g id="node18" class="node">
<title>PixelMaskFilename(mask)</title>
<polygon fill="none" stroke="black" points="2202.23,-197 2002.23,-197 1998.23,-193 1998.23,-161 2198.23,-161 2202.23,-165 2202.23,-197"/>
<polyline fill="none" stroke="black" points="2198.23,-193 1998.23,-193 "/>
<polyline fill="none" stroke="black" points="2198.23,-193 2198.23,-161 "/>
<polyline fill="none" stroke="black" points="2198.23,-193 2202.23,-197 "/>
<text text-anchor="middle" x="2100.23" y="-175.3" font-family="Times,serif" font-size="14.00">PixelMaskFilename(mask)</text>
</g>
<!-- PixelMaskFilename(mask)&#45;&gt;ess.sans.masking.to_detector_mask_DetectorMasks(mask) -->
<g id="edge13" class="edge">
<title>PixelMaskFilename(mask)&#45;&gt;ess.sans.masking.to_detector_mask_DetectorMasks(mask)</title>
<path fill="none" stroke="black" d="M2202.49,-192.16C2214.52,-193.33 2226.64,-194.33 2238.23,-195 2497.87,-210.11 2565.54,-228.84 2823.4,-195 2847.1,-191.89 2872.66,-185.65 2894.62,-179.36"/>
<polygon fill="black" stroke="black" points="2895.82,-182.66 2904.43,-176.48 2893.85,-175.94 2895.82,-182.66"/>
</g>
<!-- ess.isissans.io.read_xml_detector_masking_MaskedDetectorIDs(mask) -->
<g id="node26" class="node">
<title>ess.isissans.io.read_xml_detector_masking_MaskedDetectorIDs(mask)</title>
<ellipse fill="none" stroke="black" cx="2409.82" cy="-168" rx="139.98" ry="18"/>
<text text-anchor="middle" x="2409.82" y="-164.3" font-family="Times,serif" font-size="14.00">read_xml_detector_masking</text>
</g>
<!-- PixelMaskFilename(mask)&#45;&gt;ess.isissans.io.read_xml_detector_masking_MaskedDetectorIDs(mask) -->
<g id="edge24" class="edge">
<title>PixelMaskFilename(mask)&#45;&gt;ess.isissans.io.read_xml_detector_masking_MaskedDetectorIDs(mask)</title>
<path fill="none" stroke="black" d="M2202.37,-175.38C2222.4,-174.67 2243.79,-173.9 2264.92,-173.15"/>
<polygon fill="black" stroke="black" points="2265.07,-176.64 2274.93,-172.79 2264.81,-169.65 2265.07,-176.64"/>
</g>
<!-- MaskedDetectorIDs(mask) -->
<g id="node19" class="node">
<title>MaskedDetectorIDs(mask)</title>
<polygon fill="none" stroke="black" points="2823.4,-186 2621.4,-186 2617.4,-182 2617.4,-150 2819.4,-150 2823.4,-154 2823.4,-186"/>
<polyline fill="none" stroke="black" points="2819.4,-182 2617.4,-182 "/>
<polyline fill="none" stroke="black" points="2819.4,-182 2819.4,-150 "/>
<polyline fill="none" stroke="black" points="2819.4,-182 2823.4,-186 "/>
<text text-anchor="middle" x="2720.4" y="-164.3" font-family="Times,serif" font-size="14.00">MaskedDetectorIDs(mask)</text>
</g>
<!-- MaskedDetectorIDs(mask)&#45;&gt;ess.sans.masking.to_detector_mask_DetectorMasks(mask) -->
<g id="edge14" class="edge">
<title>MaskedDetectorIDs(mask)&#45;&gt;ess.sans.masking.to_detector_mask_DetectorMasks(mask)</title>
<path fill="none" stroke="black" d="M2823.64,-164.88C2832.4,-164.61 2841.25,-164.34 2849.99,-164.07"/>
<polygon fill="black" stroke="black" points="2850.31,-167.57 2860.19,-163.76 2850.09,-160.57 2850.31,-167.57"/>
</g>
<!-- ess.sans.conversions.sans_elastic_ElasticCoordTransformGraph&#45;&gt;ElasticCoordTransformGraph -->
<g id="edge17" class="edge">
<title>ess.sans.conversions.sans_elastic_ElasticCoordTransformGraph&#45;&gt;ElasticCoordTransformGraph</title>
<path fill="none" stroke="black" d="M3762,-18C3779.33,-18 3798.62,-18 3817.94,-18"/>
<polygon fill="black" stroke="black" points="3818.03,-21.5 3828.03,-18 3818.03,-14.5 3818.03,-21.5"/>
</g>
<!-- Filename[SampleRun] -->
<g id="node21" class="node">
<title>Filename[SampleRun]</title>
<polygon fill="none" stroke="black" points="175,-120 0,-120 0,-84 175,-84 175,-120"/>
<text text-anchor="middle" x="87.5" y="-98.3" font-family="Times,serif" font-size="14.00">Filename[SampleRun]</text>
</g>
<!-- ess.loki.io.load_nexus_detector_LoadedNeXusDetector[SampleRun] -->
<g id="node22" class="node">
<title>ess.loki.io.load_nexus_detector_LoadedNeXusDetector[SampleRun]</title>
<ellipse fill="none" stroke="black" cx="317.59" cy="-156" rx="105.08" ry="18"/>
<text text-anchor="middle" x="317.59" y="-152.3" font-family="Times,serif" font-size="14.00">load_nexus_detector</text>
</g>
<!-- Filename[SampleRun]&#45;&gt;ess.loki.io.load_nexus_detector_LoadedNeXusDetector[SampleRun] -->
<g id="edge18" class="edge">
<title>Filename[SampleRun]&#45;&gt;ess.loki.io.load_nexus_detector_LoadedNeXusDetector[SampleRun]</title>
<path fill="none" stroke="black" d="M164.77,-120.06C190.72,-126.2 219.62,-133.04 245.18,-139.09"/>
<polygon fill="black" stroke="black" points="244.62,-142.56 255.16,-141.46 246.24,-135.75 244.62,-142.56"/>
</g>
<!-- ess.loki.io.dummy_load_sample_RawSample[SampleRun] -->
<g id="node28" class="node">
<title>ess.loki.io.dummy_load_sample_RawSample[SampleRun]</title>
<ellipse fill="none" stroke="black" cx="317.59" cy="-102" rx="106.68" ry="18"/>
<text text-anchor="middle" x="317.59" y="-98.3" font-family="Times,serif" font-size="14.00">dummy_load_sample</text>
</g>
<!-- Filename[SampleRun]&#45;&gt;ess.loki.io.dummy_load_sample_RawSample[SampleRun] -->
<g id="edge29" class="edge">
<title>Filename[SampleRun]&#45;&gt;ess.loki.io.dummy_load_sample_RawSample[SampleRun]</title>
<path fill="none" stroke="black" d="M175.06,-102C183.48,-102 192.12,-102 200.77,-102"/>
<polygon fill="black" stroke="black" points="200.92,-105.5 210.92,-102 200.92,-98.5 200.92,-105.5"/>
</g>
<!-- ess.loki.io.load_nexus_source_RawSource[SampleRun] -->
<g id="node30" class="node">
<title>ess.loki.io.load_nexus_source_RawSource[SampleRun]</title>
<ellipse fill="none" stroke="black" cx="317.59" cy="-48" rx="96.68" ry="18"/>
<text text-anchor="middle" x="317.59" y="-44.3" font-family="Times,serif" font-size="14.00">load_nexus_source</text>
</g>
<!-- Filename[SampleRun]&#45;&gt;ess.loki.io.load_nexus_source_RawSource[SampleRun] -->
<g id="edge31" class="edge">
<title>Filename[SampleRun]&#45;&gt;ess.loki.io.load_nexus_source_RawSource[SampleRun]</title>
<path fill="none" stroke="black" d="M164.77,-83.94C191.41,-77.64 221.15,-70.59 247.2,-64.43"/>
<polygon fill="black" stroke="black" points="248.07,-67.82 256.99,-62.11 246.46,-61.01 248.07,-67.82"/>
</g>
<!-- LoadedNeXusDetector[SampleRun] -->
<g id="node24" class="node">
<title>LoadedNeXusDetector[SampleRun]</title>
<polygon fill="none" stroke="black" points="729.18,-174 460.18,-174 460.18,-138 729.18,-138 729.18,-174"/>
<text text-anchor="middle" x="594.68" y="-152.3" font-family="Times,serif" font-size="14.00">LoadedNeXusDetector[SampleRun]</text>
</g>
<!-- ess.loki.io.load_nexus_detector_LoadedNeXusDetector[SampleRun]&#45;&gt;LoadedNeXusDetector[SampleRun] -->
<g id="edge20" class="edge">
<title>ess.loki.io.load_nexus_detector_LoadedNeXusDetector[SampleRun]&#45;&gt;LoadedNeXusDetector[SampleRun]</title>
<path fill="none" stroke="black" d="M422.98,-156C431.82,-156 440.85,-156 449.91,-156"/>
<polygon fill="black" stroke="black" points="450.15,-159.5 460.15,-156 450.15,-152.5 450.15,-159.5"/>
</g>
<!-- NeXusDetectorName -->
<g id="node23" class="node">
<title>NeXusDetectorName</title>
<polygon fill="none" stroke="black" points="171,-197 4,-197 4,-161 171,-161 171,-197"/>
<text text-anchor="middle" x="87.5" y="-175.3" font-family="Times,serif" font-size="14.00">NeXusDetectorName</text>
</g>
<!-- NeXusDetectorName&#45;&gt;ess.loki.io.load_nexus_detector_LoadedNeXusDetector[SampleRun] -->
<g id="edge19" class="edge">
<title>NeXusDetectorName&#45;&gt;ess.loki.io.load_nexus_detector_LoadedNeXusDetector[SampleRun]</title>
<path fill="none" stroke="black" d="M171.17,-170.66C185.77,-169.19 201.12,-167.64 216.15,-166.13"/>
<polygon fill="black" stroke="black" points="216.9,-169.57 226.5,-165.08 216.2,-162.61 216.9,-169.57"/>
</g>
<!-- ess.loki.general.get_detector_data_RawData[SampleRun] -->
<g id="node27" class="node">
<title>ess.loki.general.get_detector_data_RawData[SampleRun]</title>
<ellipse fill="none" stroke="black" cx="869.82" cy="-156" rx="94.48" ry="18"/>
<text text-anchor="middle" x="869.82" y="-152.3" font-family="Times,serif" font-size="14.00">get_detector_data</text>
</g>
<!-- NeXusDetectorName&#45;&gt;ess.loki.general.get_detector_data_RawData[SampleRun] -->
<g id="edge27" class="edge">
<title>NeXusDetectorName&#45;&gt;ess.loki.general.get_detector_data_RawData[SampleRun]</title>
<path fill="none" stroke="black" d="M171.17,-184.87C293.45,-192.33 529.6,-202.12 729.18,-183 752.52,-180.76 777.75,-176.47 800.27,-171.96"/>
<polygon fill="black" stroke="black" points="800.98,-175.39 810.07,-169.95 799.57,-168.53 800.98,-175.39"/>
</g>
<!-- LoadedNeXusDetector[SampleRun]&#45;&gt;ess.loki.general.get_detector_data_RawData[SampleRun] -->
<g id="edge26" class="edge">
<title>LoadedNeXusDetector[SampleRun]&#45;&gt;ess.loki.general.get_detector_data_RawData[SampleRun]</title>
<path fill="none" stroke="black" d="M729.45,-156C741.47,-156 753.52,-156 765.23,-156"/>
<polygon fill="black" stroke="black" points="765.42,-159.5 775.42,-156 765.42,-152.5 765.42,-159.5"/>
</g>
<!-- ess.sans.masking.apply_pixel_masks_MaskedData[SampleRun]&#45;&gt;MaskedData[SampleRun] -->
<g id="edge23" class="edge">
<title>ess.sans.masking.apply_pixel_masks_MaskedData[SampleRun]&#45;&gt;MaskedData[SampleRun]</title>
<path fill="none" stroke="black" d="M3792.39,-72C3805.6,-72 3819.24,-72 3832.66,-72"/>
<polygon fill="black" stroke="black" points="3832.86,-75.5 3842.86,-72 3832.86,-68.5 3832.86,-75.5"/>
</g>
<!-- ess.isissans.io.read_xml_detector_masking_MaskedDetectorIDs(mask)&#45;&gt;MaskedDetectorIDs(mask) -->
<g id="edge25" class="edge">
<title>ess.isissans.io.read_xml_detector_masking_MaskedDetectorIDs(mask)&#45;&gt;MaskedDetectorIDs(mask)</title>
<path fill="none" stroke="black" d="M2549.76,-168C2568.93,-168 2588.42,-168 2607.02,-168"/>
<polygon fill="black" stroke="black" points="2607.26,-171.5 2617.26,-168 2607.26,-164.5 2607.26,-171.5"/>
</g>
<!-- ess.loki.general.get_detector_data_RawData[SampleRun]&#45;&gt;RawData[SampleRun] -->
<g id="edge28" class="edge">
<title>ess.loki.general.get_detector_data_RawData[SampleRun]&#45;&gt;RawData[SampleRun]</title>
<path fill="none" stroke="black" d="M964.28,-156C983.58,-156 1003.94,-156 1023.32,-156"/>
<polygon fill="black" stroke="black" points="1023.36,-159.5 1033.36,-156 1023.36,-152.5 1023.36,-159.5"/>
</g>
<!-- RawSample[SampleRun] -->
<g id="node29" class="node">
<title>RawSample[SampleRun]</title>
<polygon fill="none" stroke="black" points="691.18,-120 498.18,-120 498.18,-84 691.18,-84 691.18,-120"/>
<text text-anchor="middle" x="594.68" y="-98.3" font-family="Times,serif" font-size="14.00">RawSample[SampleRun]</text>
</g>
<!-- ess.loki.io.dummy_load_sample_RawSample[SampleRun]&#45;&gt;RawSample[SampleRun] -->
<g id="edge30" class="edge">
<title>ess.loki.io.dummy_load_sample_RawSample[SampleRun]&#45;&gt;RawSample[SampleRun]</title>
<path fill="none" stroke="black" d="M424.55,-102C445.37,-102 467.2,-102 488,-102"/>
<polygon fill="black" stroke="black" points="488.12,-105.5 498.12,-102 488.12,-98.5 488.12,-105.5"/>
</g>
<!-- ess.loki.general.get_sample_position_SamplePosition[SampleRun] -->
<g id="node32" class="node">
<title>ess.loki.general.get_sample_position_SamplePosition[SampleRun]</title>
<ellipse fill="none" stroke="black" cx="869.82" cy="-102" rx="104.78" ry="18"/>
<text text-anchor="middle" x="869.82" y="-98.3" font-family="Times,serif" font-size="14.00">get_sample_position</text>
</g>
<!-- RawSample[SampleRun]&#45;&gt;ess.loki.general.get_sample_position_SamplePosition[SampleRun] -->
<g id="edge33" class="edge">
<title>RawSample[SampleRun]&#45;&gt;ess.loki.general.get_sample_position_SamplePosition[SampleRun]</title>
<path fill="none" stroke="black" d="M691.21,-102C711.8,-102 733.75,-102 754.96,-102"/>
<polygon fill="black" stroke="black" points="754.97,-105.5 764.97,-102 754.97,-98.5 754.97,-105.5"/>
</g>
<!-- RawSource[SampleRun] -->
<g id="node31" class="node">
<title>RawSource[SampleRun]</title>
<polygon fill="none" stroke="black" points="689.18,-66 500.18,-66 500.18,-30 689.18,-30 689.18,-66"/>
<text text-anchor="middle" x="594.68" y="-44.3" font-family="Times,serif" font-size="14.00">RawSource[SampleRun]</text>
</g>
<!-- ess.loki.io.load_nexus_source_RawSource[SampleRun]&#45;&gt;RawSource[SampleRun] -->
<g id="edge32" class="edge">
<title>ess.loki.io.load_nexus_source_RawSource[SampleRun]&#45;&gt;RawSource[SampleRun]</title>
<path fill="none" stroke="black" d="M414.8,-48C439.04,-48 465.17,-48 489.77,-48"/>
<polygon fill="black" stroke="black" points="489.84,-51.5 499.84,-48 489.84,-44.5 489.84,-51.5"/>
</g>
<!-- ess.loki.general.get_source_position_SourcePosition[SampleRun] -->
<g id="node33" class="node">
<title>ess.loki.general.get_source_position_SourcePosition[SampleRun]</title>
<ellipse fill="none" stroke="black" cx="869.82" cy="-48" rx="102.88" ry="18"/>
<text text-anchor="middle" x="869.82" y="-44.3" font-family="Times,serif" font-size="14.00">get_source_position</text>
</g>
<!-- RawSource[SampleRun]&#45;&gt;ess.loki.general.get_source_position_SourcePosition[SampleRun] -->
<g id="edge35" class="edge">
<title>RawSource[SampleRun]&#45;&gt;ess.loki.general.get_source_position_SourcePosition[SampleRun]</title>
<path fill="none" stroke="black" d="M689.3,-48C710.99,-48 734.3,-48 756.7,-48"/>
<polygon fill="black" stroke="black" points="756.92,-51.5 766.92,-48 756.92,-44.5 756.92,-51.5"/>
</g>
<!-- ess.loki.general.get_sample_position_SamplePosition[SampleRun]&#45;&gt;SamplePosition[SampleRun] -->
<g id="edge34" class="edge">
<title>ess.loki.general.get_sample_position_SamplePosition[SampleRun]&#45;&gt;SamplePosition[SampleRun]</title>
<path fill="none" stroke="black" d="M974.62,-102C983.11,-102 991.74,-102 1000.33,-102"/>
<polygon fill="black" stroke="black" points="1000.39,-105.5 1010.39,-102 1000.39,-98.5 1000.39,-105.5"/>
</g>
<!-- ess.loki.general.get_source_position_SourcePosition[SampleRun]&#45;&gt;SourcePosition[SampleRun] -->
<g id="edge36" class="edge">
<title>ess.loki.general.get_source_position_SourcePosition[SampleRun]&#45;&gt;SourcePosition[SampleRun]</title>
<path fill="none" stroke="black" d="M972.82,-48C982.45,-48 992.25,-48 1002,-48"/>
<polygon fill="black" stroke="black" points="1002.13,-51.5 1012.13,-48 1002.13,-44.5 1002.13,-51.5"/>
</g>
<!-- ess.loki.general.data_to_tof_TofData[SampleRun]&#45;&gt;TofData[SampleRun] -->
<g id="edge38" class="edge">
<title>ess.loki.general.data_to_tof_TofData[SampleRun]&#45;&gt;TofData[SampleRun]</title>
<path fill="none" stroke="black" d="M1962.43,-102C1976.86,-102 1992.56,-102 2008.01,-102"/>
<polygon fill="black" stroke="black" points="2008.11,-105.5 2018.11,-102 2008.11,-98.5 2008.11,-105.5"/>
</g>
</g>
</svg>
