<?xml version="1.0" encoding="UTF-8" standalone="no"?>
<!DOCTYPE svg PUBLIC "-//W3C//DTD SVG 1.1//EN"
 "http://www.w3.org/Graphics/SVG/1.1/DTD/svg11.dtd">
<!-- Generated by graphviz version 2.43.0 (0)
 -->
<!-- Title: %3 Pages: 1 -->
<svg width="810pt" height="445pt"
 viewBox="0.00 0.00 810.00 445.00" xmlns="http://www.w3.org/2000/svg" xmlns:xlink="http://www.w3.org/1999/xlink">
<g id="graph0" class="graph" transform="scale(1 1) rotate(0) translate(4 441)">
<title>%3</title>
<polygon fill="white" stroke="transparent" points="-4,4 -4,-441 806,-441 806,4 -4,4"/>
<!-- BeamCenter -->
<g id="node1" class="node">
<title>BeamCenter</title>
<polygon fill="none" stroke="black" points="669,-373 563,-373 563,-350 669,-350 669,-373"/>
<text text-anchor="middle" x="616" y="-357.8" font-family="Times,serif" font-size="14.00">BeamCenter</text>
</g>
<!-- DetectorPositionOffset[SampleRun] -->
<g id="node4" class="node">
<title>DetectorPositionOffset[SampleRun]</title>
<polygon fill="none" stroke="black" points="604.5,-309 333.5,-309 333.5,-276 604.5,-276 604.5,-309"/>
<text text-anchor="start" x="341.5" y="-294.8" font-family="Times,serif" font-size="14.00">DetectorPositionOffset[SampleRun]</text>
<text text-anchor="start" x="383" y="-283.2" font-family="Times,serif" font-size="11.00">via:</text>
<text text-anchor="start" x="404" y="-283.2" font-family="Times,serif" font-style="italic" font-size="11.00">to_detector_position_offset</text>
</g>
<!-- BeamCenter&#45;&gt;DetectorPositionOffset[SampleRun] -->
<g id="edge9" class="edge">
<title>BeamCenter&#45;&gt;DetectorPositionOffset[SampleRun]</title>
<path fill="none" stroke="black" d="M592.71,-349.88C571.22,-340.09 538.77,-325.3 512.49,-313.32"/>
<polygon fill="black" stroke="black" points="513.68,-310.02 503.12,-309.05 510.77,-316.39 513.68,-310.02"/>
</g>
<!-- DetectorEdgeMask -->
<g id="node7" class="node">
<title>DetectorEdgeMask</title>
<polygon fill="none" stroke="black" points="591,-171 437,-171 437,-138 591,-138 591,-171"/>
<text text-anchor="start" x="445" y="-156.8" font-family="Times,serif" font-size="14.00">DetectorEdgeMask</text>
<text text-anchor="start" x="446" y="-145.2" font-family="Times,serif" font-size="11.00">via:</text>
<text text-anchor="start" x="467" y="-145.2" font-family="Times,serif" font-style="italic" font-size="11.00">detector_edge_mask</text>
</g>
<!-- BeamCenter&#45;&gt;DetectorEdgeMask -->
<g id="edge4" class="edge">
<title>BeamCenter&#45;&gt;DetectorEdgeMask</title>
<path fill="none" stroke="black" d="M617.64,-349.71C621.11,-322.97 626.55,-252.52 596,-207 587.47,-194.3 574.65,-184.12 561.66,-176.27"/>
<polygon fill="black" stroke="black" points="563.12,-173.08 552.69,-171.21 559.68,-179.18 563.12,-173.08"/>
</g>
<!-- SampleHolderMask -->
<g id="node9" class="node">
<title>SampleHolderMask</title>
<polygon fill="none" stroke="black" points="755.5,-171 598.5,-171 598.5,-138 755.5,-138 755.5,-171"/>
<text text-anchor="start" x="606.5" y="-156.8" font-family="Times,serif" font-size="14.00">SampleHolderMask</text>
<text text-anchor="start" x="607.5" y="-145.2" font-family="Times,serif" font-size="11.00">via:</text>
<text text-anchor="start" x="628.5" y="-145.2" font-family="Times,serif" font-style="italic" font-size="11.00">sample_holder_mask</text>
</g>
<!-- BeamCenter&#45;&gt;SampleHolderMask -->
<g id="edge14" class="edge">
<title>BeamCenter&#45;&gt;SampleHolderMask</title>
<path fill="none" stroke="black" d="M616.91,-349.95C619.64,-319.69 628.19,-233.15 639,-207 643.03,-197.25 649.31,-187.64 655.6,-179.41"/>
<polygon fill="black" stroke="black" points="658.52,-181.37 662.08,-171.39 653.07,-176.98 658.52,-181.37"/>
</g>
<!-- NeXusComponent[NXdetector, SampleRun] -->
<g id="node2" class="node">
<title>NeXusComponent[NXdetector, SampleRun]</title>
<polygon fill="none" stroke="black" points="326,-309 0,-309 0,-276 326,-276 326,-309"/>
<text text-anchor="start" x="8" y="-294.8" font-family="Times,serif" font-size="14.00">NeXusComponent[NXdetector, SampleRun]</text>
<text text-anchor="start" x="102" y="-283.2" font-family="Times,serif" font-size="11.00">via:</text>
<text text-anchor="start" x="123" y="-283.2" font-family="Times,serif" font-style="italic" font-size="11.00">get_detector_data</text>
</g>
<!-- CalibratedDetector[SampleRun] -->
<g id="node3" class="node">
<title>CalibratedDetector[SampleRun]</title>
<polygon fill="none" stroke="black" points="592,-240 346,-240 346,-207 592,-207 592,-240"/>
<text text-anchor="start" x="354" y="-225.8" font-family="Times,serif" font-size="14.00">CalibratedDetector[SampleRun]</text>
<text text-anchor="start" x="379.5" y="-214.2" font-family="Times,serif" font-size="11.00">via:</text>
<text text-anchor="start" x="400.5" y="-214.2" font-family="Times,serif" font-style="italic" font-size="11.00">get_calibrated_isis_detector</text>
</g>
<!-- NeXusComponent[NXdetector, SampleRun]&#45;&gt;CalibratedDetector[SampleRun] -->
<g id="edge1" class="edge">
<title>NeXusComponent[NXdetector, SampleRun]&#45;&gt;CalibratedDetector[SampleRun]</title>
<path fill="none" stroke="black" d="M233.97,-275.96C280.04,-265.87 340.2,-252.7 388.12,-242.21"/>
<polygon fill="black" stroke="black" points="389.13,-245.57 398.15,-240.01 387.63,-238.73 389.13,-245.57"/>
</g>
<!-- DetectorData[SampleRun] -->
<g id="node6" class="node">
<title>DetectorData[SampleRun]</title>
<polygon fill="none" stroke="black" points="429.5,-171 210.5,-171 210.5,-138 429.5,-138 429.5,-171"/>
<text text-anchor="start" x="225.5" y="-156.8" font-family="Times,serif" font-size="14.00">DetectorData[SampleRun]</text>
<text text-anchor="start" x="218.5" y="-145.2" font-family="Times,serif" font-size="11.00">via:</text>
<text text-anchor="start" x="239.5" y="-145.2" font-family="Times,serif" font-style="italic" font-size="11.00">dummy_assemble_detector_data</text>
</g>
<!-- CalibratedDetector[SampleRun]&#45;&gt;DetectorData[SampleRun] -->
<g id="edge3" class="edge">
<title>CalibratedDetector[SampleRun]&#45;&gt;DetectorData[SampleRun]</title>
<path fill="none" stroke="black" d="M434.44,-206.96C413.45,-197.52 386.46,-185.39 363.96,-175.27"/>
<polygon fill="black" stroke="black" points="365.18,-171.98 354.63,-171.07 362.31,-178.36 365.18,-171.98"/>
</g>
<!-- CalibratedDetector[SampleRun]&#45;&gt;DetectorEdgeMask -->
<g id="edge5" class="edge">
<title>CalibratedDetector[SampleRun]&#45;&gt;DetectorEdgeMask</title>
<path fill="none" stroke="black" d="M479.44,-206.96C484.87,-198.88 491.63,-188.81 497.73,-179.73"/>
<polygon fill="black" stroke="black" points="500.64,-181.67 503.31,-171.42 494.83,-177.77 500.64,-181.67"/>
</g>
<!-- CalibratedDetector[SampleRun]&#45;&gt;SampleHolderMask -->
<g id="edge15" class="edge">
<title>CalibratedDetector[SampleRun]&#45;&gt;SampleHolderMask</title>
<path fill="none" stroke="black" d="M517.24,-206.96C547.59,-197.19 586.92,-184.52 618.97,-174.19"/>
<polygon fill="black" stroke="black" points="620.21,-177.47 628.66,-171.07 618.07,-170.81 620.21,-177.47"/>
</g>
<!-- DetectorPositionOffset[SampleRun]&#45;&gt;CalibratedDetector[SampleRun] -->
<g id="edge2" class="edge">
<title>DetectorPositionOffset[SampleRun]&#45;&gt;CalibratedDetector[SampleRun]</title>
<path fill="none" stroke="black" d="M469,-275.96C469,-268.38 469,-259.05 469,-250.42"/>
<polygon fill="black" stroke="black" points="472.5,-250.42 469,-240.42 465.5,-250.42 472.5,-250.42"/>
</g>
<!-- DetectorBankOffset -->
<g id="node5" class="node">
<title>DetectorBankOffset</title>
<polygon fill="none" stroke="black" points="548,-373 390,-373 390,-350 548,-350 548,-373"/>
<text text-anchor="middle" x="469" y="-357.8" font-family="Times,serif" font-size="14.00">DetectorBankOffset</text>
</g>
<!-- DetectorBankOffset&#45;&gt;DetectorPositionOffset[SampleRun] -->
<g id="edge8" class="edge">
<title>DetectorBankOffset&#45;&gt;DetectorPositionOffset[SampleRun]</title>
<path fill="none" stroke="black" d="M469,-349.74C469,-341.52 469,-329.86 469,-319.28"/>
<polygon fill="black" stroke="black" points="472.5,-319.23 469,-309.23 465.5,-319.24 472.5,-319.23"/>
</g>
<!-- TofData[SampleRun] -->
<g id="node13" class="node">
<title>TofData[SampleRun]</title>
<polygon fill="none" stroke="black" points="419,-102 255,-102 255,-69 419,-69 419,-102"/>
<text text-anchor="start" x="263" y="-87.8" font-family="Times,serif" font-size="14.00">TofData[SampleRun]</text>
<text text-anchor="start" x="295.5" y="-76.2" font-family="Times,serif" font-size="11.00">via:</text>
<text text-anchor="start" x="316.5" y="-76.2" font-family="Times,serif" font-style="italic" font-size="11.00">data_to_tof</text>
</g>
<!-- DetectorData[SampleRun]&#45;&gt;TofData[SampleRun] -->
<g id="edge17" class="edge">
<title>DetectorData[SampleRun]&#45;&gt;TofData[SampleRun]</title>
<path fill="none" stroke="black" d="M323.94,-137.96C325.89,-130.29 328.29,-120.84 330.49,-112.14"/>
<polygon fill="black" stroke="black" points="333.89,-112.97 332.96,-102.42 327.11,-111.25 333.89,-112.97"/>
</g>
<!-- DetectorMasks -->
<g id="node8" class="node">
<title>DetectorMasks</title>
<polygon fill="none" stroke="black" points="585.5,-102 442.5,-102 442.5,-69 585.5,-69 585.5,-102"/>
<text text-anchor="start" x="459.5" y="-87.8" font-family="Times,serif" font-size="14.00">DetectorMasks</text>
<text text-anchor="start" x="450.5" y="-76.2" font-family="Times,serif" font-size="11.00">via:</text>
<text text-anchor="start" x="471.5" y="-76.2" font-family="Times,serif" font-style="italic" font-size="11.00">to_detector_masks</text>
</g>
<!-- DetectorEdgeMask&#45;&gt;DetectorMasks -->
<g id="edge6" class="edge">
<title>DetectorEdgeMask&#45;&gt;DetectorMasks</title>
<path fill="none" stroke="black" d="M514,-137.96C514,-130.38 514,-121.05 514,-112.42"/>
<polygon fill="black" stroke="black" points="517.5,-112.42 514,-102.42 510.5,-112.42 517.5,-112.42"/>
</g>
<!-- MaskedData[SampleRun] -->
<g id="node14" class="node">
<title>MaskedData[SampleRun]</title>
<polygon fill="none" stroke="black" points="516,-33 318,-33 318,0 516,0 516,-33"/>
<text text-anchor="start" x="326" y="-18.8" font-family="Times,serif" font-size="14.00">MaskedData[SampleRun]</text>
<text text-anchor="start" x="354.5" y="-7.2" font-family="Times,serif" font-size="11.00">via:</text>
<text text-anchor="start" x="375.5" y="-7.2" font-family="Times,serif" font-style="italic" font-size="11.00">apply_pixel_masks</text>
</g>
<!-- DetectorMasks&#45;&gt;MaskedData[SampleRun] -->
<g id="edge12" class="edge">
<title>DetectorMasks&#45;&gt;MaskedData[SampleRun]</title>
<path fill="none" stroke="black" d="M491.5,-68.96C478.62,-60.06 462.26,-48.76 448.15,-39.02"/>
<polygon fill="black" stroke="black" points="449.93,-35.99 439.71,-33.19 445.95,-41.75 449.93,-35.99"/>
</g>
<!-- SampleHolderMask&#45;&gt;DetectorMasks -->
<g id="edge7" class="edge">
<title>SampleHolderMask&#45;&gt;DetectorMasks</title>
<path fill="none" stroke="black" d="M639.19,-137.96C616.03,-128.44 586.18,-116.17 561.44,-106"/>
<polygon fill="black" stroke="black" points="562.46,-102.64 551.88,-102.07 559.8,-109.11 562.46,-102.64"/>
</g>
<!-- Filename[SampleRun] -->
<g id="node10" class="node">
<title>Filename[SampleRun]</title>
<polygon fill="none" stroke="black" points="250.5,-437 75.5,-437 75.5,-414 250.5,-414 250.5,-437"/>
<text text-anchor="middle" x="163" y="-421.8" font-family="Times,serif" font-size="14.00">Filename[SampleRun]</text>
</g>
<!-- LoadedFileContents[SampleRun] -->
<g id="node11" class="node">
<title>LoadedFileContents[SampleRun]</title>
<polygon fill="none" stroke="black" points="289,-378 37,-378 37,-345 289,-345 289,-378"/>
<text text-anchor="start" x="45" y="-363.8" font-family="Times,serif" font-size="14.00">LoadedFileContents[SampleRun]</text>
<text text-anchor="start" x="104.5" y="-352.2" font-family="Times,serif" font-size="11.00">via:</text>
<text text-anchor="start" x="125.5" y="-352.2" font-family="Times,serif" font-style="italic" font-size="11.00">load_tutorial_run</text>
</g>
<!-- Filename[SampleRun]&#45;&gt;LoadedFileContents[SampleRun] -->
<g id="edge10" class="edge">
<title>Filename[SampleRun]&#45;&gt;LoadedFileContents[SampleRun]</title>
<path fill="none" stroke="black" d="M163,-413.98C163,-406.93 163,-397.32 163,-388.31"/>
<polygon fill="black" stroke="black" points="166.5,-388.2 163,-378.2 159.5,-388.2 166.5,-388.2"/>
</g>
<!-- LoadedFileContents[SampleRun]&#45;&gt;NeXusComponent[NXdetector, SampleRun] -->
<g id="edge13" class="edge">
<title>LoadedFileContents[SampleRun]&#45;&gt;NeXusComponent[NXdetector, SampleRun]</title>
<path fill="none" stroke="black" d="M163,-344.96C163,-337.38 163,-328.05 163,-319.42"/>
<polygon fill="black" stroke="black" points="166.5,-319.42 163,-309.42 159.5,-319.42 166.5,-319.42"/>
</g>
<!-- LowCountThreshold -->
<g id="node12" class="node">
<title>LowCountThreshold</title>
<polygon fill="none" stroke="black" points="802,-235 642,-235 642,-212 802,-212 802,-235"/>
<text text-anchor="middle" x="722" y="-219.8" font-family="Times,serif" font-size="14.00">LowCountThreshold</text>
</g>
<!-- LowCountThreshold&#45;&gt;SampleHolderMask -->
<g id="edge16" class="edge">
<title>LowCountThreshold&#45;&gt;SampleHolderMask</title>
<path fill="none" stroke="black" d="M714.77,-211.74C708.97,-203.1 700.6,-190.64 693.21,-179.64"/>
<polygon fill="black" stroke="black" points="696.05,-177.58 687.57,-171.23 690.24,-181.49 696.05,-177.58"/>
</g>
<!-- TofData[SampleRun]&#45;&gt;MaskedData[SampleRun] -->
<g id="edge11" class="edge">
<title>TofData[SampleRun]&#45;&gt;MaskedData[SampleRun]</title>
<path fill="none" stroke="black" d="M355.55,-68.96C365.88,-60.31 378.91,-49.4 390.32,-39.85"/>
<polygon fill="black" stroke="black" points="392.85,-42.29 398.27,-33.19 388.36,-36.92 392.85,-42.29"/>
</g>
</g>
</svg>
