<?xml version="1.0" encoding="utf-8" standalone="no"?>
<!DOCTYPE svg PUBLIC "-//W3C//DTD SVG 1.1//EN"
  "http://www.w3.org/Graphics/SVG/1.1/DTD/svg11.dtd">
<svg xmlns:xlink="http://www.w3.org/1999/xlink" width="387.478125pt" height="267.439687pt" viewBox="0 0 387.478125 267.439687" xmlns="http://www.w3.org/2000/svg" version="1.1">
 <metadata>
  <rdf:RDF xmlns:dc="http://purl.org/dc/elements/1.1/" xmlns:cc="http://creativecommons.org/ns#" xmlns:rdf="http://www.w3.org/1999/02/22-rdf-syntax-ns#">
   <cc:Work>
    <dc:type rdf:resource="http://purl.org/dc/dcmitype/StillImage"/>
    <dc:date>2024-10-07T09:39:52.784408</dc:date>
    <dc:format>image/svg+xml</dc:format>
    <dc:creator>
     <cc:Agent>
      <dc:title>Matplotlib v3.9.2, https://matplotlib.org/</dc:title>
     </cc:Agent>
    </dc:creator>
   </cc:Work>
  </rdf:RDF>
 </metadata>
 <defs>
  <style type="text/css">*{stroke-linejoin: round; stroke-linecap: butt}</style>
 </defs>
 <g id="figure_1">
  <g id="patch_1">
   <path d="M 0 267.439687 
L 387.478125 267.439687 
L 387.478125 0 
L 0 0 
z
" style="fill: #ffffff"/>
  </g>
  <g id="axes_1">
   <g id="patch_2">
    <path d="M 45.478125 228.96 
L 380.278125 228.96 
L 380.278125 7.2 
L 45.478125 7.2 
z
" style="fill: #ffffff"/>
   </g>
   <g id="matplotlib.axis_1">
    <g id="xtick_1">
     <g id="line2d_1">
      <defs>
       <path id="mfa1393252c" d="M 0 0 
L 0 3.5 
" style="stroke: #000000; stroke-width: 0.8"/>
      </defs>
      <g>
       <use xlink:href="#mfa1393252c" x="100.395912" y="228.96" style="stroke: #000000; stroke-width: 0.8"/>
      </g>
     </g>
     <g id="text_1">
      <!-- 0.05 -->
      <g transform="translate(89.263099 243.558437) scale(0.1 -0.1)">
       <defs>
        <path id="DejaVuSans-30" d="M 2034 4250 
Q 1547 4250 1301 3770 
Q 1056 3291 1056 2328 
Q 1056 1369 1301 889 
Q 1547 409 2034 409 
Q 2525 409 2770 889 
Q 3016 1369 3016 2328 
Q 3016 3291 2770 3770 
Q 2525 4250 2034 4250 
z
M 2034 4750 
Q 2819 4750 3233 4129 
Q 3647 3509 3647 2328 
Q 3647 1150 3233 529 
Q 2819 -91 2034 -91 
Q 1250 -91 836 529 
Q 422 1150 422 2328 
Q 422 3509 836 4129 
Q 1250 4750 2034 4750 
z
" transform="scale(0.015625)"/>
        <path id="DejaVuSans-2e" d="M 684 794 
L 1344 794 
L 1344 0 
L 684 0 
L 684 794 
z
" transform="scale(0.015625)"/>
        <path id="DejaVuSans-35" d="M 691 4666 
L 3169 4666 
L 3169 4134 
L 1269 4134 
L 1269 2991 
Q 1406 3038 1543 3061 
Q 1681 3084 1819 3084 
Q 2600 3084 3056 2656 
Q 3513 2228 3513 1497 
Q 3513 744 3044 326 
Q 2575 -91 1722 -91 
Q 1428 -91 1123 -41 
Q 819 9 494 109 
L 494 744 
Q 775 591 1075 516 
Q 1375 441 1709 441 
Q 2250 441 2565 725 
Q 2881 1009 2881 1497 
Q 2881 1984 2565 2268 
Q 2250 2553 1709 2553 
Q 1456 2553 1204 2497 
Q 953 2441 691 2322 
L 691 4666 
z
" transform="scale(0.015625)"/>
       </defs>
       <use xlink:href="#DejaVuSans-30"/>
       <use xlink:href="#DejaVuSans-2e" x="63.623047"/>
       <use xlink:href="#DejaVuSans-30" x="95.410156"/>
       <use xlink:href="#DejaVuSans-35" x="159.033203"/>
      </g>
     </g>
    </g>
    <g id="xtick_2">
     <g id="line2d_2">
      <g>
       <use xlink:href="#mfa1393252c" x="166.561919" y="228.96" style="stroke: #000000; stroke-width: 0.8"/>
      </g>
     </g>
     <g id="text_2">
      <!-- 0.10 -->
      <g transform="translate(155.429107 243.558437) scale(0.1 -0.1)">
       <defs>
        <path id="DejaVuSans-31" d="M 794 531 
L 1825 531 
L 1825 4091 
L 703 3866 
L 703 4441 
L 1819 4666 
L 2450 4666 
L 2450 531 
L 3481 531 
L 3481 0 
L 794 0 
L 794 531 
z
" transform="scale(0.015625)"/>
       </defs>
       <use xlink:href="#DejaVuSans-30"/>
       <use xlink:href="#DejaVuSans-2e" x="63.623047"/>
       <use xlink:href="#DejaVuSans-31" x="95.410156"/>
       <use xlink:href="#DejaVuSans-30" x="159.033203"/>
      </g>
     </g>
    </g>
    <g id="xtick_3">
     <g id="line2d_3">
      <g>
       <use xlink:href="#mfa1393252c" x="232.727927" y="228.96" style="stroke: #000000; stroke-width: 0.8"/>
      </g>
     </g>
     <g id="text_3">
      <!-- 0.15 -->
      <g transform="translate(221.595115 243.558437) scale(0.1 -0.1)">
       <use xlink:href="#DejaVuSans-30"/>
       <use xlink:href="#DejaVuSans-2e" x="63.623047"/>
       <use xlink:href="#DejaVuSans-31" x="95.410156"/>
       <use xlink:href="#DejaVuSans-35" x="159.033203"/>
      </g>
     </g>
    </g>
    <g id="xtick_4">
     <g id="line2d_4">
      <g>
       <use xlink:href="#mfa1393252c" x="298.893935" y="228.96" style="stroke: #000000; stroke-width: 0.8"/>
      </g>
     </g>
     <g id="text_4">
      <!-- 0.20 -->
      <g transform="translate(287.761123 243.558437) scale(0.1 -0.1)">
       <defs>
        <path id="DejaVuSans-32" d="M 1228 531 
L 3431 531 
L 3431 0 
L 469 0 
L 469 531 
Q 828 903 1448 1529 
Q 2069 2156 2228 2338 
Q 2531 2678 2651 2914 
Q 2772 3150 2772 3378 
Q 2772 3750 2511 3984 
Q 2250 4219 1831 4219 
Q 1534 4219 1204 4116 
Q 875 4013 500 3803 
L 500 4441 
Q 881 4594 1212 4672 
Q 1544 4750 1819 4750 
Q 2544 4750 2975 4387 
Q 3406 4025 3406 3419 
Q 3406 3131 3298 2873 
Q 3191 2616 2906 2266 
Q 2828 2175 2409 1742 
Q 1991 1309 1228 531 
z
" transform="scale(0.015625)"/>
       </defs>
       <use xlink:href="#DejaVuSans-30"/>
       <use xlink:href="#DejaVuSans-2e" x="63.623047"/>
       <use xlink:href="#DejaVuSans-32" x="95.410156"/>
       <use xlink:href="#DejaVuSans-30" x="159.033203"/>
      </g>
     </g>
    </g>
    <g id="xtick_5">
     <g id="line2d_5">
      <g>
       <use xlink:href="#mfa1393252c" x="365.059943" y="228.96" style="stroke: #000000; stroke-width: 0.8"/>
      </g>
     </g>
     <g id="text_5">
      <!-- 0.25 -->
      <g transform="translate(353.927131 243.558437) scale(0.1 -0.1)">
       <use xlink:href="#DejaVuSans-30"/>
       <use xlink:href="#DejaVuSans-2e" x="63.623047"/>
       <use xlink:href="#DejaVuSans-32" x="95.410156"/>
       <use xlink:href="#DejaVuSans-35" x="159.033203"/>
      </g>
     </g>
    </g>
    <g id="text_6">
     <!-- Q [1/Å] -->
     <g transform="translate(195.165625 258.16) scale(0.1 -0.1)">
      <defs>
       <path id="DejaVuSans-51" d="M 2522 4238 
Q 1834 4238 1429 3725 
Q 1025 3213 1025 2328 
Q 1025 1447 1429 934 
Q 1834 422 2522 422 
Q 3209 422 3611 934 
Q 4013 1447 4013 2328 
Q 4013 3213 3611 3725 
Q 3209 4238 2522 4238 
z
M 3406 84 
L 4238 -825 
L 3475 -825 
L 2784 -78 
Q 2681 -84 2626 -87 
Q 2572 -91 2522 -91 
Q 1538 -91 948 567 
Q 359 1225 359 2328 
Q 359 3434 948 4092 
Q 1538 4750 2522 4750 
Q 3503 4750 4090 4092 
Q 4678 3434 4678 2328 
Q 4678 1516 4351 937 
Q 4025 359 3406 84 
z
" transform="scale(0.015625)"/>
       <path id="DejaVuSans-20" transform="scale(0.015625)"/>
       <path id="DejaVuSans-5b" d="M 550 4863 
L 1875 4863 
L 1875 4416 
L 1125 4416 
L 1125 -397 
L 1875 -397 
L 1875 -844 
L 550 -844 
L 550 4863 
z
" transform="scale(0.015625)"/>
       <path id="DejaVuSans-2f" d="M 1625 4666 
L 2156 4666 
L 531 -594 
L 0 -594 
L 1625 4666 
z
" transform="scale(0.015625)"/>
       <path id="DejaVuSans-c5" d="M 2663 5081 
Q 2663 5278 2523 5417 
Q 2384 5556 2188 5556 
Q 1988 5556 1852 5420 
Q 1716 5284 1716 5081 
Q 1716 4884 1853 4746 
Q 1991 4609 2188 4609 
Q 2384 4609 2523 4746 
Q 2663 4884 2663 5081 
z
M 2188 4044 
L 1338 1722 
L 3041 1722 
L 2188 4044 
z
M 1716 4366 
Q 1525 4494 1428 4673 
Q 1331 4853 1331 5081 
Q 1331 5441 1579 5691 
Q 1828 5941 2188 5941 
Q 2544 5941 2795 5689 
Q 3047 5438 3047 5081 
Q 3047 4863 2948 4678 
Q 2850 4494 2663 4366 
L 4325 0 
L 3669 0 
L 3244 1197 
L 1141 1197 
L 716 0 
L 50 0 
L 1716 4366 
z
" transform="scale(0.015625)"/>
       <path id="DejaVuSans-5d" d="M 1947 4863 
L 1947 -844 
L 622 -844 
L 622 -397 
L 1369 -397 
L 1369 4416 
L 622 4416 
L 622 4863 
L 1947 4863 
z
" transform="scale(0.015625)"/>
      </defs>
      <use xlink:href="#DejaVuSans-51"/>
      <use xlink:href="#DejaVuSans-20" x="78.710938"/>
      <use xlink:href="#DejaVuSans-5b" x="110.498047"/>
      <use xlink:href="#DejaVuSans-31" x="149.511719"/>
      <use xlink:href="#DejaVuSans-2f" x="213.134766"/>
      <use xlink:href="#DejaVuSans-c5" x="246.826172"/>
      <use xlink:href="#DejaVuSans-5d" x="315.234375"/>
     </g>
    </g>
   </g>
   <g id="matplotlib.axis_2">
    <g id="ytick_1">
     <g id="line2d_6">
      <defs>
       <path id="mc4e436f25b" d="M 0 0 
L -3.5 0 
" style="stroke: #000000; stroke-width: 0.8"/>
      </defs>
      <g>
       <use xlink:href="#mc4e436f25b" x="45.478125" y="178.069751" style="stroke: #000000; stroke-width: 0.8"/>
      </g>
     </g>
     <g id="text_7">
      <!-- $\mathdefault{10^{0}}$ -->
      <g transform="translate(20.878125 181.86897) scale(0.1 -0.1)">
       <use xlink:href="#DejaVuSans-31" transform="translate(0 0.765625)"/>
       <use xlink:href="#DejaVuSans-30" transform="translate(63.623047 0.765625)"/>
       <use xlink:href="#DejaVuSans-30" transform="translate(128.203125 39.046875) scale(0.7)"/>
      </g>
     </g>
    </g>
    <g id="ytick_2">
     <g id="line2d_7">
      <g>
       <use xlink:href="#mc4e436f25b" x="45.478125" y="62.619058" style="stroke: #000000; stroke-width: 0.8"/>
      </g>
     </g>
     <g id="text_8">
      <!-- $\mathdefault{10^{1}}$ -->
      <g transform="translate(20.878125 66.418277) scale(0.1 -0.1)">
       <use xlink:href="#DejaVuSans-31" transform="translate(0 0.684375)"/>
       <use xlink:href="#DejaVuSans-30" transform="translate(63.623047 0.684375)"/>
       <use xlink:href="#DejaVuSans-31" transform="translate(128.203125 38.965625) scale(0.7)"/>
      </g>
     </g>
    </g>
    <g id="ytick_3">
     <g id="line2d_8">
      <defs>
       <path id="mea5e71fa3d" d="M 0 0 
L -2 0 
" style="stroke: #000000; stroke-width: 0.6"/>
      </defs>
      <g>
       <use xlink:href="#mea5e71fa3d" x="45.478125" y="224.012201" style="stroke: #000000; stroke-width: 0.6"/>
      </g>
     </g>
    </g>
    <g id="ytick_4">
     <g id="line2d_9">
      <g>
       <use xlink:href="#mea5e71fa3d" x="45.478125" y="212.823873" style="stroke: #000000; stroke-width: 0.6"/>
      </g>
     </g>
    </g>
    <g id="ytick_5">
     <g id="line2d_10">
      <g>
       <use xlink:href="#mea5e71fa3d" x="45.478125" y="203.682343" style="stroke: #000000; stroke-width: 0.6"/>
      </g>
     </g>
    </g>
    <g id="ytick_6">
     <g id="line2d_11">
      <g>
       <use xlink:href="#mea5e71fa3d" x="45.478125" y="195.95329" style="stroke: #000000; stroke-width: 0.6"/>
      </g>
     </g>
    </g>
    <g id="ytick_7">
     <g id="line2d_12">
      <g>
       <use xlink:href="#mea5e71fa3d" x="45.478125" y="189.25808" style="stroke: #000000; stroke-width: 0.6"/>
      </g>
     </g>
    </g>
    <g id="ytick_8">
     <g id="line2d_13">
      <g>
       <use xlink:href="#mea5e71fa3d" x="45.478125" y="183.352485" style="stroke: #000000; stroke-width: 0.6"/>
      </g>
     </g>
    </g>
    <g id="ytick_9">
     <g id="line2d_14">
      <g>
       <use xlink:href="#mea5e71fa3d" x="45.478125" y="143.31563" style="stroke: #000000; stroke-width: 0.6"/>
      </g>
     </g>
    </g>
    <g id="ytick_10">
     <g id="line2d_15">
      <g>
       <use xlink:href="#mea5e71fa3d" x="45.478125" y="122.985772" style="stroke: #000000; stroke-width: 0.6"/>
      </g>
     </g>
    </g>
    <g id="ytick_11">
     <g id="line2d_16">
      <g>
       <use xlink:href="#mea5e71fa3d" x="45.478125" y="108.561508" style="stroke: #000000; stroke-width: 0.6"/>
      </g>
     </g>
    </g>
    <g id="ytick_12">
     <g id="line2d_17">
      <g>
       <use xlink:href="#mea5e71fa3d" x="45.478125" y="97.37318" style="stroke: #000000; stroke-width: 0.6"/>
      </g>
     </g>
    </g>
    <g id="ytick_13">
     <g id="line2d_18">
      <g>
       <use xlink:href="#mea5e71fa3d" x="45.478125" y="88.23165" style="stroke: #000000; stroke-width: 0.6"/>
      </g>
     </g>
    </g>
    <g id="ytick_14">
     <g id="line2d_19">
      <g>
       <use xlink:href="#mea5e71fa3d" x="45.478125" y="80.502597" style="stroke: #000000; stroke-width: 0.6"/>
      </g>
     </g>
    </g>
    <g id="ytick_15">
     <g id="line2d_20">
      <g>
       <use xlink:href="#mea5e71fa3d" x="45.478125" y="73.807386" style="stroke: #000000; stroke-width: 0.6"/>
      </g>
     </g>
    </g>
    <g id="ytick_16">
     <g id="line2d_21">
      <g>
       <use xlink:href="#mea5e71fa3d" x="45.478125" y="67.901792" style="stroke: #000000; stroke-width: 0.6"/>
      </g>
     </g>
    </g>
    <g id="ytick_17">
     <g id="line2d_22">
      <g>
       <use xlink:href="#mea5e71fa3d" x="45.478125" y="27.864936" style="stroke: #000000; stroke-width: 0.6"/>
      </g>
     </g>
    </g>
    <g id="ytick_18">
     <g id="line2d_23">
      <g>
       <use xlink:href="#mea5e71fa3d" x="45.478125" y="7.535078" style="stroke: #000000; stroke-width: 0.6"/>
      </g>
     </g>
    </g>
    <g id="text_9">
     <!-- [dimensionless] -->
     <g transform="translate(14.798438 157.557344) rotate(-90) scale(0.1 -0.1)">
      <defs>
       <path id="DejaVuSans-64" d="M 2906 2969 
L 2906 4863 
L 3481 4863 
L 3481 0 
L 2906 0 
L 2906 525 
Q 2725 213 2448 61 
Q 2172 -91 1784 -91 
Q 1150 -91 751 415 
Q 353 922 353 1747 
Q 353 2572 751 3078 
Q 1150 3584 1784 3584 
Q 2172 3584 2448 3432 
Q 2725 3281 2906 2969 
z
M 947 1747 
Q 947 1113 1208 752 
Q 1469 391 1925 391 
Q 2381 391 2643 752 
Q 2906 1113 2906 1747 
Q 2906 2381 2643 2742 
Q 2381 3103 1925 3103 
Q 1469 3103 1208 2742 
Q 947 2381 947 1747 
z
" transform="scale(0.015625)"/>
       <path id="DejaVuSans-69" d="M 603 3500 
L 1178 3500 
L 1178 0 
L 603 0 
L 603 3500 
z
M 603 4863 
L 1178 4863 
L 1178 4134 
L 603 4134 
L 603 4863 
z
" transform="scale(0.015625)"/>
       <path id="DejaVuSans-6d" d="M 3328 2828 
Q 3544 3216 3844 3400 
Q 4144 3584 4550 3584 
Q 5097 3584 5394 3201 
Q 5691 2819 5691 2113 
L 5691 0 
L 5113 0 
L 5113 2094 
Q 5113 2597 4934 2840 
Q 4756 3084 4391 3084 
Q 3944 3084 3684 2787 
Q 3425 2491 3425 1978 
L 3425 0 
L 2847 0 
L 2847 2094 
Q 2847 2600 2669 2842 
Q 2491 3084 2119 3084 
Q 1678 3084 1418 2786 
Q 1159 2488 1159 1978 
L 1159 0 
L 581 0 
L 581 3500 
L 1159 3500 
L 1159 2956 
Q 1356 3278 1631 3431 
Q 1906 3584 2284 3584 
Q 2666 3584 2933 3390 
Q 3200 3197 3328 2828 
z
" transform="scale(0.015625)"/>
       <path id="DejaVuSans-65" d="M 3597 1894 
L 3597 1613 
L 953 1613 
Q 991 1019 1311 708 
Q 1631 397 2203 397 
Q 2534 397 2845 478 
Q 3156 559 3463 722 
L 3463 178 
Q 3153 47 2828 -22 
Q 2503 -91 2169 -91 
Q 1331 -91 842 396 
Q 353 884 353 1716 
Q 353 2575 817 3079 
Q 1281 3584 2069 3584 
Q 2775 3584 3186 3129 
Q 3597 2675 3597 1894 
z
M 3022 2063 
Q 3016 2534 2758 2815 
Q 2500 3097 2075 3097 
Q 1594 3097 1305 2825 
Q 1016 2553 972 2059 
L 3022 2063 
z
" transform="scale(0.015625)"/>
       <path id="DejaVuSans-6e" d="M 3513 2113 
L 3513 0 
L 2938 0 
L 2938 2094 
Q 2938 2591 2744 2837 
Q 2550 3084 2163 3084 
Q 1697 3084 1428 2787 
Q 1159 2491 1159 1978 
L 1159 0 
L 581 0 
L 581 3500 
L 1159 3500 
L 1159 2956 
Q 1366 3272 1645 3428 
Q 1925 3584 2291 3584 
Q 2894 3584 3203 3211 
Q 3513 2838 3513 2113 
z
" transform="scale(0.015625)"/>
       <path id="DejaVuSans-73" d="M 2834 3397 
L 2834 2853 
Q 2591 2978 2328 3040 
Q 2066 3103 1784 3103 
Q 1356 3103 1142 2972 
Q 928 2841 928 2578 
Q 928 2378 1081 2264 
Q 1234 2150 1697 2047 
L 1894 2003 
Q 2506 1872 2764 1633 
Q 3022 1394 3022 966 
Q 3022 478 2636 193 
Q 2250 -91 1575 -91 
Q 1294 -91 989 -36 
Q 684 19 347 128 
L 347 722 
Q 666 556 975 473 
Q 1284 391 1588 391 
Q 1994 391 2212 530 
Q 2431 669 2431 922 
Q 2431 1156 2273 1281 
Q 2116 1406 1581 1522 
L 1381 1569 
Q 847 1681 609 1914 
Q 372 2147 372 2553 
Q 372 3047 722 3315 
Q 1072 3584 1716 3584 
Q 2034 3584 2315 3537 
Q 2597 3491 2834 3397 
z
" transform="scale(0.015625)"/>
       <path id="DejaVuSans-6f" d="M 1959 3097 
Q 1497 3097 1228 2736 
Q 959 2375 959 1747 
Q 959 1119 1226 758 
Q 1494 397 1959 397 
Q 2419 397 2687 759 
Q 2956 1122 2956 1747 
Q 2956 2369 2687 2733 
Q 2419 3097 1959 3097 
z
M 1959 3584 
Q 2709 3584 3137 3096 
Q 3566 2609 3566 1747 
Q 3566 888 3137 398 
Q 2709 -91 1959 -91 
Q 1206 -91 779 398 
Q 353 888 353 1747 
Q 353 2609 779 3096 
Q 1206 3584 1959 3584 
z
" transform="scale(0.015625)"/>
       <path id="DejaVuSans-6c" d="M 603 4863 
L 1178 4863 
L 1178 0 
L 603 0 
L 603 4863 
z
" transform="scale(0.015625)"/>
      </defs>
      <use xlink:href="#DejaVuSans-5b"/>
      <use xlink:href="#DejaVuSans-64" x="39.013672"/>
      <use xlink:href="#DejaVuSans-69" x="102.490234"/>
      <use xlink:href="#DejaVuSans-6d" x="130.273438"/>
      <use xlink:href="#DejaVuSans-65" x="227.685547"/>
      <use xlink:href="#DejaVuSans-6e" x="289.208984"/>
      <use xlink:href="#DejaVuSans-73" x="352.587891"/>
      <use xlink:href="#DejaVuSans-69" x="404.6875"/>
      <use xlink:href="#DejaVuSans-6f" x="432.470703"/>
      <use xlink:href="#DejaVuSans-6e" x="493.652344"/>
      <use xlink:href="#DejaVuSans-6c" x="557.03125"/>
      <use xlink:href="#DejaVuSans-65" x="584.814453"/>
      <use xlink:href="#DejaVuSans-73" x="646.337891"/>
      <use xlink:href="#DejaVuSans-73" x="698.4375"/>
      <use xlink:href="#DejaVuSans-5d" x="750.537109"/>
     </g>
    </g>
   </g>
   <g id="patch_3">
    <path d="M 45.478125 228.96 
L 45.478125 7.2 
" style="fill: none; stroke: #000000; stroke-width: 0.8; stroke-linejoin: miter; stroke-linecap: square"/>
   </g>
   <g id="patch_4">
    <path d="M 380.278125 228.96 
L 380.278125 7.2 
" style="fill: none; stroke: #000000; stroke-width: 0.8; stroke-linejoin: miter; stroke-linecap: square"/>
   </g>
   <g id="patch_5">
    <path d="M 45.478125 228.96 
L 380.278125 228.96 
" style="fill: none; stroke: #000000; stroke-width: 0.8; stroke-linejoin: miter; stroke-linecap: square"/>
   </g>
   <g id="patch_6">
    <path d="M 45.478125 7.2 
L 380.278125 7.2 
" style="fill: none; stroke: #000000; stroke-width: 0.8; stroke-linejoin: miter; stroke-linecap: square"/>
   </g>
   <g id="legend_1">
    <g id="patch_7">
     <path d="M 286.285938 73.9125 
L 373.278125 73.9125 
Q 375.278125 73.9125 375.278125 71.9125 
L 375.278125 14.2 
Q 375.278125 12.2 373.278125 12.2 
L 286.285938 12.2 
Q 284.285938 12.2 284.285938 14.2 
L 284.285938 71.9125 
Q 284.285938 73.9125 286.285938 73.9125 
z
" style="fill: #ffffff; opacity: 0.8; stroke: #cccccc; stroke-linejoin: miter"/>
    </g>
    <g id="line2d_24">
     <path d="M 288.285938 20.298437 
L 288.285938 20.298437 
L 298.285938 20.298437 
L 298.285938 20.298437 
L 308.285938 20.298437 
" style="fill: none; stroke: #1f77b4; stroke-width: 1.5; stroke-linecap: square"/>
    </g>
    <g id="text_10">
     <!-- south-west -->
     <g transform="translate(316.285938 23.798437) scale(0.1 -0.1)">
      <defs>
       <path id="DejaVuSans-75" d="M 544 1381 
L 544 3500 
L 1119 3500 
L 1119 1403 
Q 1119 906 1312 657 
Q 1506 409 1894 409 
Q 2359 409 2629 706 
Q 2900 1003 2900 1516 
L 2900 3500 
L 3475 3500 
L 3475 0 
L 2900 0 
L 2900 538 
Q 2691 219 2414 64 
Q 2138 -91 1772 -91 
Q 1169 -91 856 284 
Q 544 659 544 1381 
z
M 1991 3584 
L 1991 3584 
z
" transform="scale(0.015625)"/>
       <path id="DejaVuSans-74" d="M 1172 4494 
L 1172 3500 
L 2356 3500 
L 2356 3053 
L 1172 3053 
L 1172 1153 
Q 1172 725 1289 603 
Q 1406 481 1766 481 
L 2356 481 
L 2356 0 
L 1766 0 
Q 1100 0 847 248 
Q 594 497 594 1153 
L 594 3053 
L 172 3053 
L 172 3500 
L 594 3500 
L 594 4494 
L 1172 4494 
z
" transform="scale(0.015625)"/>
       <path id="DejaVuSans-68" d="M 3513 2113 
L 3513 0 
L 2938 0 
L 2938 2094 
Q 2938 2591 2744 2837 
Q 2550 3084 2163 3084 
Q 1697 3084 1428 2787 
Q 1159 2491 1159 1978 
L 1159 0 
L 581 0 
L 581 4863 
L 1159 4863 
L 1159 2956 
Q 1366 3272 1645 3428 
Q 1925 3584 2291 3584 
Q 2894 3584 3203 3211 
Q 3513 2838 3513 2113 
z
" transform="scale(0.015625)"/>
       <path id="DejaVuSans-2d" d="M 313 2009 
L 1997 2009 
L 1997 1497 
L 313 1497 
L 313 2009 
z
" transform="scale(0.015625)"/>
       <path id="DejaVuSans-77" d="M 269 3500 
L 844 3500 
L 1563 769 
L 2278 3500 
L 2956 3500 
L 3675 769 
L 4391 3500 
L 4966 3500 
L 4050 0 
L 3372 0 
L 2619 2869 
L 1863 0 
L 1184 0 
L 269 3500 
z
" transform="scale(0.015625)"/>
      </defs>
      <use xlink:href="#DejaVuSans-73"/>
      <use xlink:href="#DejaVuSans-6f" x="52.099609"/>
      <use xlink:href="#DejaVuSans-75" x="113.28125"/>
      <use xlink:href="#DejaVuSans-74" x="176.660156"/>
      <use xlink:href="#DejaVuSans-68" x="215.869141"/>
      <use xlink:href="#DejaVuSans-2d" x="279.248047"/>
      <use xlink:href="#DejaVuSans-77" x="315.332031"/>
      <use xlink:href="#DejaVuSans-65" x="397.119141"/>
      <use xlink:href="#DejaVuSans-73" x="458.642578"/>
      <use xlink:href="#DejaVuSans-74" x="510.742188"/>
     </g>
    </g>
    <g id="line2d_25">
     <path d="M 288.285938 34.976562 
L 288.285938 34.976562 
L 298.285938 34.976562 
L 298.285938 34.976562 
L 308.285938 34.976562 
" style="fill: none; stroke: #ff7f0e; stroke-width: 1.5; stroke-linecap: square"/>
    </g>
    <g id="text_11">
     <!-- south-east -->
     <g transform="translate(316.285938 38.476562) scale(0.1 -0.1)">
      <defs>
       <path id="DejaVuSans-61" d="M 2194 1759 
Q 1497 1759 1228 1600 
Q 959 1441 959 1056 
Q 959 750 1161 570 
Q 1363 391 1709 391 
Q 2188 391 2477 730 
Q 2766 1069 2766 1631 
L 2766 1759 
L 2194 1759 
z
M 3341 1997 
L 3341 0 
L 2766 0 
L 2766 531 
Q 2569 213 2275 61 
Q 1981 -91 1556 -91 
Q 1019 -91 701 211 
Q 384 513 384 1019 
Q 384 1609 779 1909 
Q 1175 2209 1959 2209 
L 2766 2209 
L 2766 2266 
Q 2766 2663 2505 2880 
Q 2244 3097 1772 3097 
Q 1472 3097 1187 3025 
Q 903 2953 641 2809 
L 641 3341 
Q 956 3463 1253 3523 
Q 1550 3584 1831 3584 
Q 2591 3584 2966 3190 
Q 3341 2797 3341 1997 
z
" transform="scale(0.015625)"/>
      </defs>
      <use xlink:href="#DejaVuSans-73"/>
      <use xlink:href="#DejaVuSans-6f" x="52.099609"/>
      <use xlink:href="#DejaVuSans-75" x="113.28125"/>
      <use xlink:href="#DejaVuSans-74" x="176.660156"/>
      <use xlink:href="#DejaVuSans-68" x="215.869141"/>
      <use xlink:href="#DejaVuSans-2d" x="279.248047"/>
      <use xlink:href="#DejaVuSans-65" x="315.332031"/>
      <use xlink:href="#DejaVuSans-61" x="376.855469"/>
      <use xlink:href="#DejaVuSans-73" x="438.134766"/>
      <use xlink:href="#DejaVuSans-74" x="490.234375"/>
     </g>
    </g>
    <g id="line2d_26">
     <path d="M 288.285938 49.654687 
L 288.285938 49.654687 
L 298.285938 49.654687 
L 298.285938 49.654687 
L 308.285938 49.654687 
" style="fill: none; stroke: #2ca02c; stroke-width: 1.5; stroke-linecap: square"/>
    </g>
    <g id="text_12">
     <!-- north-east -->
     <g transform="translate(316.285938 53.154687) scale(0.1 -0.1)">
      <defs>
       <path id="DejaVuSans-72" d="M 2631 2963 
Q 2534 3019 2420 3045 
Q 2306 3072 2169 3072 
Q 1681 3072 1420 2755 
Q 1159 2438 1159 1844 
L 1159 0 
L 581 0 
L 581 3500 
L 1159 3500 
L 1159 2956 
Q 1341 3275 1631 3429 
Q 1922 3584 2338 3584 
Q 2397 3584 2469 3576 
Q 2541 3569 2628 3553 
L 2631 2963 
z
" transform="scale(0.015625)"/>
      </defs>
      <use xlink:href="#DejaVuSans-6e"/>
      <use xlink:href="#DejaVuSans-6f" x="63.378906"/>
      <use xlink:href="#DejaVuSans-72" x="124.560547"/>
      <use xlink:href="#DejaVuSans-74" x="165.673828"/>
      <use xlink:href="#DejaVuSans-68" x="204.882812"/>
      <use xlink:href="#DejaVuSans-2d" x="268.261719"/>
      <use xlink:href="#DejaVuSans-65" x="304.345703"/>
      <use xlink:href="#DejaVuSans-61" x="365.869141"/>
      <use xlink:href="#DejaVuSans-73" x="427.148438"/>
      <use xlink:href="#DejaVuSans-74" x="479.248047"/>
     </g>
    </g>
    <g id="line2d_27">
     <path d="M 288.285938 64.332812 
L 288.285938 64.332812 
L 298.285938 64.332812 
L 298.285938 64.332812 
L 308.285938 64.332812 
" style="fill: none; stroke: #d62728; stroke-width: 1.5; stroke-linecap: square"/>
    </g>
    <g id="text_13">
     <!-- north-west -->
     <g transform="translate(316.285938 67.832812) scale(0.1 -0.1)">
      <use xlink:href="#DejaVuSans-6e"/>
      <use xlink:href="#DejaVuSans-6f" x="63.378906"/>
      <use xlink:href="#DejaVuSans-72" x="124.560547"/>
      <use xlink:href="#DejaVuSans-74" x="165.673828"/>
      <use xlink:href="#DejaVuSans-68" x="204.882812"/>
      <use xlink:href="#DejaVuSans-2d" x="268.261719"/>
      <use xlink:href="#DejaVuSans-77" x="304.345703"/>
      <use xlink:href="#DejaVuSans-65" x="386.132812"/>
      <use xlink:href="#DejaVuSans-73" x="447.65625"/>
      <use xlink:href="#DejaVuSans-74" x="499.755859"/>
     </g>
    </g>
   </g>
   <g id="line2d_28">
    <path d="M 60.696307 41.051576 
L 65.044359 41.051576 
L 65.044359 40.123824 
L 69.392411 40.123824 
L 69.392411 38.40362 
L 73.740463 38.40362 
L 73.740463 37.922529 
L 78.088515 37.922529 
L 78.088515 36.021818 
L 82.436567 36.021818 
L 82.436567 34.484713 
L 86.784619 34.484713 
L 86.784619 33.010475 
L 91.13267 33.010475 
L 91.13267 31.481969 
L 95.480722 31.481969 
L 95.480722 30.147525 
L 99.828774 30.147525 
L 99.828774 29.342794 
L 104.176826 29.342794 
L 104.176826 28.171695 
L 108.524878 28.171695 
L 108.524878 28.506368 
L 112.87293 28.506368 
L 112.87293 28.213457 
L 117.220982 28.213457 
L 117.220982 28.589503 
L 121.569034 28.589503 
L 121.569034 29.325187 
L 125.917086 29.325187 
L 125.917086 30.674855 
L 130.265138 30.674855 
L 130.265138 31.981131 
L 134.61319 31.981131 
L 134.61319 33.997724 
L 138.961242 33.997724 
L 138.961242 35.338561 
L 143.309294 35.338561 
L 143.309294 38.135808 
L 147.657346 38.135808 
L 147.657346 40.544327 
L 152.005398 40.544327 
L 152.005398 44.508606 
L 156.35345 44.508606 
L 156.35345 48.344235 
L 160.701502 48.344235 
L 160.701502 52.75419 
L 165.049554 52.75419 
L 165.049554 57.557994 
L 169.397606 57.557994 
L 169.397606 63.056423 
L 173.745657 63.056423 
L 173.745657 69.342874 
L 178.093709 69.342874 
L 178.093709 74.325212 
L 182.441761 74.325212 
L 182.441761 80.875403 
L 186.789813 80.875403 
L 186.789813 88.230933 
L 191.137865 88.230933 
L 191.137865 94.178528 
L 195.485917 94.178528 
L 195.485917 99.319775 
L 199.833969 99.319775 
L 199.833969 103.925302 
L 204.182021 103.925302 
L 204.182021 112.571754 
L 208.530073 112.571754 
L 208.530073 115.900891 
L 212.878125 115.900891 
L 212.878125 119.957243 
L 217.226177 119.957243 
L 217.226177 124.038166 
L 221.574229 124.038166 
L 221.574229 126.676832 
L 225.922281 126.676832 
L 225.922281 132.386511 
L 230.270333 132.386511 
L 230.270333 134.323279 
L 234.618385 134.323279 
L 234.618385 137.299143 
L 238.966437 137.299143 
L 238.966437 138.654092 
L 243.314489 138.654092 
L 243.314489 140.539253 
L 247.662541 140.539253 
L 247.662541 143.03625 
L 252.010593 143.03625 
L 252.010593 144.111783 
L 256.358644 144.111783 
L 256.358644 147.128437 
L 260.706696 147.128437 
L 260.706696 144.336633 
L 265.054748 144.336633 
L 265.054748 145.65073 
L 269.4028 145.65073 
L 269.4028 146.925658 
L 273.750852 146.925658 
L 273.750852 147.305394 
L 278.098904 147.305394 
L 278.098904 148.809512 
L 282.446956 148.809512 
L 282.446956 148.289363 
L 286.795008 148.289363 
L 286.795008 147.640439 
L 291.14306 147.640439 
L 291.14306 149.601052 
L 295.491112 149.601052 
L 295.491112 149.478929 
L 304.187216 149.425056 
L 304.187216 146.543061 
L 308.535268 146.543061 
L 308.535268 149.248662 
L 312.88332 149.248662 
L 312.88332 146.702415 
L 317.231372 146.702415 
L 317.231372 147.774437 
L 321.579424 147.774437 
L 321.579424 145.310294 
L 325.927476 145.310294 
L 325.927476 146.190268 
L 330.275528 146.190268 
L 330.275528 144.938109 
L 334.62358 144.938109 
L 334.62358 145.140049 
L 338.971631 145.140049 
L 338.971631 146.249588 
L 343.319683 146.249588 
L 343.319683 141.238981 
L 347.667735 141.238981 
L 347.667735 139.200264 
L 352.015787 139.200264 
L 352.015787 147.373252 
L 356.363839 147.373252 
L 356.363839 151.675985 
L 360.711891 151.675985 
L 360.711891 142.816837 
L 365.059943 142.816837 
L 365.059943 142.816837 
" clip-path="url(#p666b66e00a)" style="fill: none; stroke: #1f77b4; stroke-width: 1.5; stroke-linecap: square"/>
   </g>
   <g id="LineCollection_1">
    <path d="M 62.870333 41.518635 
L 62.870333 40.588829 
" clip-path="url(#p666b66e00a)" style="fill: none; stroke: #1f77b4; stroke-width: 1.5"/>
    <path d="M 67.218385 40.568254 
L 67.218385 39.683299 
" clip-path="url(#p666b66e00a)" style="fill: none; stroke: #1f77b4; stroke-width: 1.5"/>
    <path d="M 71.566437 38.82632 
L 71.566437 37.984453 
" clip-path="url(#p666b66e00a)" style="fill: none; stroke: #1f77b4; stroke-width: 1.5"/>
    <path d="M 75.914489 38.329698 
L 75.914489 37.51864 
" clip-path="url(#p666b66e00a)" style="fill: none; stroke: #1f77b4; stroke-width: 1.5"/>
    <path d="M 80.262541 36.411564 
L 80.262541 35.635078 
" clip-path="url(#p666b66e00a)" style="fill: none; stroke: #1f77b4; stroke-width: 1.5"/>
    <path d="M 84.610593 34.86024 
L 84.610593 34.111978 
" clip-path="url(#p666b66e00a)" style="fill: none; stroke: #1f77b4; stroke-width: 1.5"/>
    <path d="M 88.958644 33.373854 
L 88.958644 32.649711 
" clip-path="url(#p666b66e00a)" style="fill: none; stroke: #1f77b4; stroke-width: 1.5"/>
    <path d="M 93.306696 31.834632 
L 93.306696 31.13177 
" clip-path="url(#p666b66e00a)" style="fill: none; stroke: #1f77b4; stroke-width: 1.5"/>
    <path d="M 97.654748 30.491373 
L 97.654748 29.806019 
" clip-path="url(#p666b66e00a)" style="fill: none; stroke: #1f77b4; stroke-width: 1.5"/>
    <path d="M 102.0028 29.679929 
L 102.0028 29.007911 
" clip-path="url(#p666b66e00a)" style="fill: none; stroke: #1f77b4; stroke-width: 1.5"/>
    <path d="M 106.350852 28.50319 
L 106.350852 27.842376 
" clip-path="url(#p666b66e00a)" style="fill: none; stroke: #1f77b4; stroke-width: 1.5"/>
    <path d="M 110.698904 28.834669 
L 110.698904 28.180201 
" clip-path="url(#p666b66e00a)" style="fill: none; stroke: #1f77b4; stroke-width: 1.5"/>
    <path d="M 115.046956 28.538251 
L 115.046956 27.890754 
" clip-path="url(#p666b66e00a)" style="fill: none; stroke: #1f77b4; stroke-width: 1.5"/>
    <path d="M 119.395008 28.913005 
L 119.395008 28.268075 
" clip-path="url(#p666b66e00a)" style="fill: none; stroke: #1f77b4; stroke-width: 1.5"/>
    <path d="M 123.74306 29.648466 
L 123.74306 29.003978 
" clip-path="url(#p666b66e00a)" style="fill: none; stroke: #1f77b4; stroke-width: 1.5"/>
    <path d="M 128.091112 30.999562 
L 128.091112 30.352237 
" clip-path="url(#p666b66e00a)" style="fill: none; stroke: #1f77b4; stroke-width: 1.5"/>
    <path d="M 132.439164 32.306897 
L 132.439164 31.657467 
" clip-path="url(#p666b66e00a)" style="fill: none; stroke: #1f77b4; stroke-width: 1.5"/>
    <path d="M 136.787216 34.327282 
L 136.787216 33.670319 
" clip-path="url(#p666b66e00a)" style="fill: none; stroke: #1f77b4; stroke-width: 1.5"/>
    <path d="M 141.135268 35.670924 
L 141.135268 35.008387 
" clip-path="url(#p666b66e00a)" style="fill: none; stroke: #1f77b4; stroke-width: 1.5"/>
    <path d="M 145.48332 38.473975 
L 145.48332 37.799906 
" clip-path="url(#p666b66e00a)" style="fill: none; stroke: #1f77b4; stroke-width: 1.5"/>
    <path d="M 149.831372 40.890011 
L 149.831372 40.20101 
" clip-path="url(#p666b66e00a)" style="fill: none; stroke: #1f77b4; stroke-width: 1.5"/>
    <path d="M 154.179424 44.863324 
L 154.179424 44.156381 
" clip-path="url(#p666b66e00a)" style="fill: none; stroke: #1f77b4; stroke-width: 1.5"/>
    <path d="M 158.527476 48.709993 
L 158.527476 47.981126 
" clip-path="url(#p666b66e00a)" style="fill: none; stroke: #1f77b4; stroke-width: 1.5"/>
    <path d="M 162.875528 53.134241 
L 162.875528 52.376997 
" clip-path="url(#p666b66e00a)" style="fill: none; stroke: #1f77b4; stroke-width: 1.5"/>
    <path d="M 167.22358 57.953332 
L 167.22358 57.165749 
" clip-path="url(#p666b66e00a)" style="fill: none; stroke: #1f77b4; stroke-width: 1.5"/>
    <path d="M 171.571631 63.472227 
L 171.571631 62.644039 
" clip-path="url(#p666b66e00a)" style="fill: none; stroke: #1f77b4; stroke-width: 1.5"/>
    <path d="M 175.919683 69.781839 
L 175.919683 68.907718 
" clip-path="url(#p666b66e00a)" style="fill: none; stroke: #1f77b4; stroke-width: 1.5"/>
    <path d="M 180.267735 74.788166 
L 180.267735 73.866493 
" clip-path="url(#p666b66e00a)" style="fill: none; stroke: #1f77b4; stroke-width: 1.5"/>
    <path d="M 184.615787 81.368629 
L 184.615787 80.386982 
" clip-path="url(#p666b66e00a)" style="fill: none; stroke: #1f77b4; stroke-width: 1.5"/>
    <path d="M 188.963839 88.762512 
L 188.963839 87.70493 
" clip-path="url(#p666b66e00a)" style="fill: none; stroke: #1f77b4; stroke-width: 1.5"/>
    <path d="M 193.311891 94.744922 
L 193.311891 93.618462 
" clip-path="url(#p666b66e00a)" style="fill: none; stroke: #1f77b4; stroke-width: 1.5"/>
    <path d="M 197.659943 99.924267 
L 197.659943 98.722485 
" clip-path="url(#p666b66e00a)" style="fill: none; stroke: #1f77b4; stroke-width: 1.5"/>
    <path d="M 202.007995 104.571568 
L 202.007995 103.287261 
" clip-path="url(#p666b66e00a)" style="fill: none; stroke: #1f77b4; stroke-width: 1.5"/>
    <path d="M 206.356047 113.261833 
L 206.356047 111.891045 
" clip-path="url(#p666b66e00a)" style="fill: none; stroke: #1f77b4; stroke-width: 1.5"/>
    <path d="M 210.704099 116.634162 
L 210.704099 115.178189 
" clip-path="url(#p666b66e00a)" style="fill: none; stroke: #1f77b4; stroke-width: 1.5"/>
    <path d="M 215.052151 120.73966 
L 215.052151 119.186849 
" clip-path="url(#p666b66e00a)" style="fill: none; stroke: #1f77b4; stroke-width: 1.5"/>
    <path d="M 219.400203 124.864044 
L 219.400203 123.225672 
" clip-path="url(#p666b66e00a)" style="fill: none; stroke: #1f77b4; stroke-width: 1.5"/>
    <path d="M 223.748255 127.543681 
L 223.748255 125.824716 
" clip-path="url(#p666b66e00a)" style="fill: none; stroke: #1f77b4; stroke-width: 1.5"/>
    <path d="M 228.096307 133.317374 
L 228.096307 131.472616 
" clip-path="url(#p666b66e00a)" style="fill: none; stroke: #1f77b4; stroke-width: 1.5"/>
    <path d="M 232.444359 135.294326 
L 232.444359 133.370681 
" clip-path="url(#p666b66e00a)" style="fill: none; stroke: #1f77b4; stroke-width: 1.5"/>
    <path d="M 236.792411 138.322148 
L 236.792411 136.296595 
" clip-path="url(#p666b66e00a)" style="fill: none; stroke: #1f77b4; stroke-width: 1.5"/>
    <path d="M 241.140463 139.716294 
L 241.140463 137.613926 
" clip-path="url(#p666b66e00a)" style="fill: none; stroke: #1f77b4; stroke-width: 1.5"/>
    <path d="M 245.488515 141.645789 
L 245.488515 139.45661 
" clip-path="url(#p666b66e00a)" style="fill: none; stroke: #1f77b4; stroke-width: 1.5"/>
    <path d="M 249.836567 144.198331 
L 249.836567 141.900495 
" clip-path="url(#p666b66e00a)" style="fill: none; stroke: #1f77b4; stroke-width: 1.5"/>
    <path d="M 254.184619 145.318927 
L 254.184619 142.933016 
" clip-path="url(#p666b66e00a)" style="fill: none; stroke: #1f77b4; stroke-width: 1.5"/>
    <path d="M 258.53267 148.394638 
L 258.53267 145.893427 
" clip-path="url(#p666b66e00a)" style="fill: none; stroke: #1f77b4; stroke-width: 1.5"/>
    <path d="M 262.880722 145.612937 
L 262.880722 143.092011 
" clip-path="url(#p666b66e00a)" style="fill: none; stroke: #1f77b4; stroke-width: 1.5"/>
    <path d="M 267.228774 146.977701 
L 267.228774 144.357975 
" clip-path="url(#p666b66e00a)" style="fill: none; stroke: #1f77b4; stroke-width: 1.5"/>
    <path d="M 271.576826 148.302872 
L 271.576826 145.585263 
" clip-path="url(#p666b66e00a)" style="fill: none; stroke: #1f77b4; stroke-width: 1.5"/>
    <path d="M 275.924878 148.728263 
L 275.924878 145.921791 
" clip-path="url(#p666b66e00a)" style="fill: none; stroke: #1f77b4; stroke-width: 1.5"/>
    <path d="M 280.27293 150.294897 
L 280.27293 147.366868 
" clip-path="url(#p666b66e00a)" style="fill: none; stroke: #1f77b4; stroke-width: 1.5"/>
    <path d="M 284.620982 149.804366 
L 284.620982 146.818798 
" clip-path="url(#p666b66e00a)" style="fill: none; stroke: #1f77b4; stroke-width: 1.5"/>
    <path d="M 288.969034 149.212782 
L 288.969034 146.115907 
" clip-path="url(#p666b66e00a)" style="fill: none; stroke: #1f77b4; stroke-width: 1.5"/>
    <path d="M 293.317086 151.226981 
L 293.317086 148.026196 
" clip-path="url(#p666b66e00a)" style="fill: none; stroke: #1f77b4; stroke-width: 1.5"/>
    <path d="M 297.665138 151.174235 
L 297.665138 147.839074 
" clip-path="url(#p666b66e00a)" style="fill: none; stroke: #1f77b4; stroke-width: 1.5"/>
    <path d="M 302.01319 151.170453 
L 302.01319 147.738378 
" clip-path="url(#p666b66e00a)" style="fill: none; stroke: #1f77b4; stroke-width: 1.5"/>
    <path d="M 306.361242 148.29303 
L 306.361242 144.852115 
" clip-path="url(#p666b66e00a)" style="fill: none; stroke: #1f77b4; stroke-width: 1.5"/>
    <path d="M 310.709294 151.099882 
L 310.709294 147.463366 
" clip-path="url(#p666b66e00a)" style="fill: none; stroke: #1f77b4; stroke-width: 1.5"/>
    <path d="M 315.057346 148.594593 
L 315.057346 144.879055 
" clip-path="url(#p666b66e00a)" style="fill: none; stroke: #1f77b4; stroke-width: 1.5"/>
    <path d="M 319.405398 149.725606 
L 319.405398 145.896362 
" clip-path="url(#p666b66e00a)" style="fill: none; stroke: #1f77b4; stroke-width: 1.5"/>
    <path d="M 323.75345 147.295004 
L 323.75345 143.401163 
" clip-path="url(#p666b66e00a)" style="fill: none; stroke: #1f77b4; stroke-width: 1.5"/>
    <path d="M 328.101502 148.270677 
L 328.101502 144.192753 
" clip-path="url(#p666b66e00a)" style="fill: none; stroke: #1f77b4; stroke-width: 1.5"/>
    <path d="M 332.449554 147.068932 
L 332.449554 142.894161 
" clip-path="url(#p666b66e00a)" style="fill: none; stroke: #1f77b4; stroke-width: 1.5"/>
    <path d="M 336.797606 147.363246 
L 336.797606 143.011257 
" clip-path="url(#p666b66e00a)" style="fill: none; stroke: #1f77b4; stroke-width: 1.5"/>
    <path d="M 341.145657 148.567841 
L 341.145657 144.033802 
" clip-path="url(#p666b66e00a)" style="fill: none; stroke: #1f77b4; stroke-width: 1.5"/>
    <path d="M 345.493709 143.561895 
L 345.493709 139.01894 
" clip-path="url(#p666b66e00a)" style="fill: none; stroke: #1f77b4; stroke-width: 1.5"/>
    <path d="M 349.841761 141.584913 
L 349.841761 136.923897 
" clip-path="url(#p666b66e00a)" style="fill: none; stroke: #1f77b4; stroke-width: 1.5"/>
    <path d="M 354.189813 150.039272 
L 354.189813 144.841861 
" clip-path="url(#p666b66e00a)" style="fill: none; stroke: #1f77b4; stroke-width: 1.5"/>
    <path d="M 358.537865 154.533309 
L 358.537865 148.972751 
" clip-path="url(#p666b66e00a)" style="fill: none; stroke: #1f77b4; stroke-width: 1.5"/>
    <path d="M 362.885917 145.601353 
L 362.885917 140.17886 
" clip-path="url(#p666b66e00a)" style="fill: none; stroke: #1f77b4; stroke-width: 1.5"/>
   </g>
   <g id="line2d_29">
    <path d="M 60.696307 53.822772 
L 65.044359 53.822772 
L 65.044359 55.349984 
L 69.392411 55.349984 
L 69.392411 56.328074 
L 73.740463 56.328074 
L 73.740463 57.558906 
L 78.088515 57.558906 
L 78.088515 58.390081 
L 82.436567 58.390081 
L 82.436567 58.730982 
L 86.784619 58.730982 
L 86.784619 59.491291 
L 95.480722 59.512649 
L 95.480722 58.715687 
L 99.828774 58.715687 
L 99.828774 58.200653 
L 104.176826 58.200653 
L 104.176826 57.30892 
L 108.524878 57.30892 
L 108.524878 55.935755 
L 112.87293 55.935755 
L 112.87293 53.459775 
L 117.220982 53.459775 
L 117.220982 50.843476 
L 121.569034 50.843476 
L 121.569034 48.401467 
L 125.917086 48.401467 
L 125.917086 46.438021 
L 130.265138 46.438021 
L 130.265138 42.982757 
L 134.61319 42.982757 
L 134.61319 39.831876 
L 138.961242 39.831876 
L 138.961242 36.155669 
L 143.309294 36.155669 
L 143.309294 33.439259 
L 147.657346 33.439259 
L 147.657346 29.509576 
L 152.005398 29.509576 
L 152.005398 26.094962 
L 156.35345 26.094962 
L 156.35345 22.851167 
L 160.701502 22.851167 
L 160.701502 19.664878 
L 165.049554 19.664878 
L 165.049554 17.391438 
L 169.397606 17.391438 
L 169.397606 15.760942 
L 173.745657 15.760942 
L 173.745657 14.808335 
L 178.093709 14.808335 
L 178.093709 14.241201 
L 186.789813 14.249598 
L 186.789813 15.063522 
L 191.137865 15.063522 
L 191.137865 16.976865 
L 195.485917 16.976865 
L 195.485917 18.945685 
L 199.833969 18.945685 
L 199.833969 20.756777 
L 204.182021 20.756777 
L 204.182021 25.742483 
L 208.530073 25.742483 
L 208.530073 28.44226 
L 212.878125 28.44226 
L 212.878125 32.01803 
L 217.226177 32.01803 
L 217.226177 36.230079 
L 221.574229 36.230079 
L 221.574229 41.036501 
L 225.922281 41.036501 
L 225.922281 45.321632 
L 230.270333 45.321632 
L 230.270333 49.919714 
L 234.618385 49.919714 
L 234.618385 55.706088 
L 238.966437 55.706088 
L 238.966437 61.241544 
L 243.314489 61.241544 
L 243.314489 66.752411 
L 247.662541 66.752411 
L 247.662541 72.828399 
L 252.010593 72.828399 
L 252.010593 78.595523 
L 256.358644 78.595523 
L 256.358644 85.219134 
L 260.706696 85.219134 
L 260.706696 90.500876 
L 265.054748 90.500876 
L 265.054748 95.694622 
L 269.4028 95.694622 
L 269.4028 101.509472 
L 273.750852 101.509472 
L 273.750852 108.168764 
L 278.098904 108.168764 
L 278.098904 112.13588 
L 282.446956 112.13588 
L 282.446956 117.129077 
L 286.795008 117.129077 
L 286.795008 122.8974 
L 291.14306 122.8974 
L 291.14306 125.628434 
L 295.491112 125.628434 
L 295.491112 128.82427 
L 299.839164 128.82427 
L 299.839164 132.084461 
L 304.187216 132.084461 
L 304.187216 135.223577 
L 308.535268 135.223577 
L 308.535268 138.157328 
L 312.88332 138.157328 
L 312.88332 141.880452 
L 317.231372 141.880452 
L 317.231372 144.557808 
L 321.579424 144.557808 
L 321.579424 142.383967 
L 325.927476 142.383967 
L 325.927476 143.528027 
L 330.275528 143.528027 
L 330.275528 147.534786 
L 334.62358 147.534786 
L 334.62358 146.18986 
L 338.971631 146.18986 
L 338.971631 147.005058 
L 343.319683 147.005058 
L 343.319683 146.649111 
L 347.667735 146.649111 
L 347.667735 145.71851 
L 352.015787 145.71851 
L 352.015787 146.742334 
L 356.363839 146.742334 
L 356.363839 147.688018 
L 360.711891 147.688018 
L 360.711891 144.821017 
L 365.059943 144.821017 
L 365.059943 144.821017 
" clip-path="url(#p666b66e00a)" style="fill: none; stroke: #ff7f0e; stroke-width: 1.5; stroke-linecap: square"/>
   </g>
   <g id="LineCollection_2">
    <path d="M 62.870333 54.344873 
L 62.870333 53.306052 
" clip-path="url(#p666b66e00a)" style="fill: none; stroke: #ff7f0e; stroke-width: 1.5"/>
    <path d="M 67.218385 55.856939 
L 67.218385 54.848104 
" clip-path="url(#p666b66e00a)" style="fill: none; stroke: #ff7f0e; stroke-width: 1.5"/>
    <path d="M 71.566437 56.820381 
L 71.566437 55.840554 
" clip-path="url(#p666b66e00a)" style="fill: none; stroke: #ff7f0e; stroke-width: 1.5"/>
    <path d="M 75.914489 58.042137 
L 75.914489 57.080289 
" clip-path="url(#p666b66e00a)" style="fill: none; stroke: #ff7f0e; stroke-width: 1.5"/>
    <path d="M 80.262541 58.862303 
L 80.262541 57.922264 
" clip-path="url(#p666b66e00a)" style="fill: none; stroke: #ff7f0e; stroke-width: 1.5"/>
    <path d="M 84.610593 59.192591 
L 84.610593 58.273584 
" clip-path="url(#p666b66e00a)" style="fill: none; stroke: #ff7f0e; stroke-width: 1.5"/>
    <path d="M 88.958644 59.943338 
L 88.958644 59.043284 
" clip-path="url(#p666b66e00a)" style="fill: none; stroke: #ff7f0e; stroke-width: 1.5"/>
    <path d="M 93.306696 59.954101 
L 93.306696 59.07505 
" clip-path="url(#p666b66e00a)" style="fill: none; stroke: #ff7f0e; stroke-width: 1.5"/>
    <path d="M 97.654748 59.143558 
L 97.654748 58.291437 
" clip-path="url(#p666b66e00a)" style="fill: none; stroke: #ff7f0e; stroke-width: 1.5"/>
    <path d="M 102.0028 58.617466 
L 102.0028 57.787278 
" clip-path="url(#p666b66e00a)" style="fill: none; stroke: #ff7f0e; stroke-width: 1.5"/>
    <path d="M 106.350852 57.714213 
L 106.350852 56.906876 
" clip-path="url(#p666b66e00a)" style="fill: none; stroke: #ff7f0e; stroke-width: 1.5"/>
    <path d="M 110.698904 56.331027 
L 110.698904 55.543575 
" clip-path="url(#p666b66e00a)" style="fill: none; stroke: #ff7f0e; stroke-width: 1.5"/>
    <path d="M 115.046956 53.84303 
L 115.046956 53.079428 
" clip-path="url(#p666b66e00a)" style="fill: none; stroke: #ff7f0e; stroke-width: 1.5"/>
    <path d="M 119.395008 51.216128 
L 119.395008 50.473572 
" clip-path="url(#p666b66e00a)" style="fill: none; stroke: #ff7f0e; stroke-width: 1.5"/>
    <path d="M 123.74306 48.765112 
L 123.74306 48.04044 
" clip-path="url(#p666b66e00a)" style="fill: none; stroke: #ff7f0e; stroke-width: 1.5"/>
    <path d="M 128.091112 46.792928 
L 128.091112 46.085608 
" clip-path="url(#p666b66e00a)" style="fill: none; stroke: #ff7f0e; stroke-width: 1.5"/>
    <path d="M 132.439164 43.328628 
L 132.439164 42.639256 
" clip-path="url(#p666b66e00a)" style="fill: none; stroke: #ff7f0e; stroke-width: 1.5"/>
    <path d="M 136.787216 40.16906 
L 136.787216 39.496945 
" clip-path="url(#p666b66e00a)" style="fill: none; stroke: #ff7f0e; stroke-width: 1.5"/>
    <path d="M 141.135268 36.484453 
L 141.135268 35.829028 
" clip-path="url(#p666b66e00a)" style="fill: none; stroke: #ff7f0e; stroke-width: 1.5"/>
    <path d="M 145.48332 33.761567 
L 145.48332 33.119009 
" clip-path="url(#p666b66e00a)" style="fill: none; stroke: #ff7f0e; stroke-width: 1.5"/>
    <path d="M 149.831372 29.824682 
L 149.831372 29.196439 
" clip-path="url(#p666b66e00a)" style="fill: none; stroke: #ff7f0e; stroke-width: 1.5"/>
    <path d="M 154.179424 26.404521 
L 154.179424 25.787303 
" clip-path="url(#p666b66e00a)" style="fill: none; stroke: #ff7f0e; stroke-width: 1.5"/>
    <path d="M 158.527476 23.155069 
L 158.527476 22.549095 
" clip-path="url(#p666b66e00a)" style="fill: none; stroke: #ff7f0e; stroke-width: 1.5"/>
    <path d="M 162.875528 19.964754 
L 162.875528 19.366784 
" clip-path="url(#p666b66e00a)" style="fill: none; stroke: #ff7f0e; stroke-width: 1.5"/>
    <path d="M 167.22358 17.688022 
L 167.22358 17.096599 
" clip-path="url(#p666b66e00a)" style="fill: none; stroke: #ff7f0e; stroke-width: 1.5"/>
    <path d="M 171.571631 16.055512 
L 171.571631 15.468093 
" clip-path="url(#p666b66e00a)" style="fill: none; stroke: #ff7f0e; stroke-width: 1.5"/>
    <path d="M 175.919683 15.102027 
L 175.919683 14.516354 
" clip-path="url(#p666b66e00a)" style="fill: none; stroke: #ff7f0e; stroke-width: 1.5"/>
    <path d="M 180.267735 14.534062 
L 180.267735 13.950041 
" clip-path="url(#p666b66e00a)" style="fill: none; stroke: #ff7f0e; stroke-width: 1.5"/>
    <path d="M 184.615787 14.542954 
L 184.615787 13.957947 
" clip-path="url(#p666b66e00a)" style="fill: none; stroke: #ff7f0e; stroke-width: 1.5"/>
    <path d="M 188.963839 15.35878 
L 188.963839 14.769992 
" clip-path="url(#p666b66e00a)" style="fill: none; stroke: #ff7f0e; stroke-width: 1.5"/>
    <path d="M 193.311891 17.274305 
L 193.311891 16.681179 
" clip-path="url(#p666b66e00a)" style="fill: none; stroke: #ff7f0e; stroke-width: 1.5"/>
    <path d="M 197.659943 19.246746 
L 197.659943 18.646421 
" clip-path="url(#p666b66e00a)" style="fill: none; stroke: #ff7f0e; stroke-width: 1.5"/>
    <path d="M 202.007995 21.063752 
L 202.007995 20.45167 
" clip-path="url(#p666b66e00a)" style="fill: none; stroke: #ff7f0e; stroke-width: 1.5"/>
    <path d="M 206.356047 26.052874 
L 206.356047 25.434003 
" clip-path="url(#p666b66e00a)" style="fill: none; stroke: #ff7f0e; stroke-width: 1.5"/>
    <path d="M 210.704099 28.759674 
L 210.704099 28.126842 
" clip-path="url(#p666b66e00a)" style="fill: none; stroke: #ff7f0e; stroke-width: 1.5"/>
    <path d="M 215.052151 32.342887 
L 215.052151 31.695265 
" clip-path="url(#p666b66e00a)" style="fill: none; stroke: #ff7f0e; stroke-width: 1.5"/>
    <path d="M 219.400203 36.563532 
L 219.400203 35.898829 
" clip-path="url(#p666b66e00a)" style="fill: none; stroke: #ff7f0e; stroke-width: 1.5"/>
    <path d="M 223.748255 41.380745 
L 223.748255 40.694604 
" clip-path="url(#p666b66e00a)" style="fill: none; stroke: #ff7f0e; stroke-width: 1.5"/>
    <path d="M 228.096307 45.67646 
L 228.096307 44.969299 
" clip-path="url(#p666b66e00a)" style="fill: none; stroke: #ff7f0e; stroke-width: 1.5"/>
    <path d="M 232.444359 50.287162 
L 232.444359 49.554939 
" clip-path="url(#p666b66e00a)" style="fill: none; stroke: #ff7f0e; stroke-width: 1.5"/>
    <path d="M 236.792411 56.089008 
L 236.792411 55.32607 
" clip-path="url(#p666b66e00a)" style="fill: none; stroke: #ff7f0e; stroke-width: 1.5"/>
    <path d="M 241.140463 61.64195 
L 241.140463 60.844311 
" clip-path="url(#p666b66e00a)" style="fill: none; stroke: #ff7f0e; stroke-width: 1.5"/>
    <path d="M 245.488515 67.171233 
L 245.488515 66.337058 
" clip-path="url(#p666b66e00a)" style="fill: none; stroke: #ff7f0e; stroke-width: 1.5"/>
    <path d="M 249.836567 73.269609 
L 249.836567 72.391037 
" clip-path="url(#p666b66e00a)" style="fill: none; stroke: #ff7f0e; stroke-width: 1.5"/>
    <path d="M 254.184619 79.060331 
L 254.184619 78.134984 
" clip-path="url(#p666b66e00a)" style="fill: none; stroke: #ff7f0e; stroke-width: 1.5"/>
    <path d="M 258.53267 85.712541 
L 258.53267 84.730536 
" clip-path="url(#p666b66e00a)" style="fill: none; stroke: #ff7f0e; stroke-width: 1.5"/>
    <path d="M 262.880722 91.021407 
L 262.880722 89.985694 
" clip-path="url(#p666b66e00a)" style="fill: none; stroke: #ff7f0e; stroke-width: 1.5"/>
    <path d="M 267.228774 96.244014 
L 267.228774 95.151185 
" clip-path="url(#p666b66e00a)" style="fill: none; stroke: #ff7f0e; stroke-width: 1.5"/>
    <path d="M 271.576826 102.093943 
L 271.576826 100.931735 
" clip-path="url(#p666b66e00a)" style="fill: none; stroke: #ff7f0e; stroke-width: 1.5"/>
    <path d="M 275.924878 108.79133 
L 275.924878 107.553831 
" clip-path="url(#p666b66e00a)" style="fill: none; stroke: #ff7f0e; stroke-width: 1.5"/>
    <path d="M 280.27293 112.792779 
L 280.27293 111.487476 
" clip-path="url(#p666b66e00a)" style="fill: none; stroke: #ff7f0e; stroke-width: 1.5"/>
    <path d="M 284.620982 117.824797 
L 284.620982 116.442879 
" clip-path="url(#p666b66e00a)" style="fill: none; stroke: #ff7f0e; stroke-width: 1.5"/>
    <path d="M 288.969034 123.636516 
L 288.969034 122.169022 
" clip-path="url(#p666b66e00a)" style="fill: none; stroke: #ff7f0e; stroke-width: 1.5"/>
    <path d="M 293.317086 126.402628 
L 293.317086 124.866013 
" clip-path="url(#p666b66e00a)" style="fill: none; stroke: #ff7f0e; stroke-width: 1.5"/>
    <path d="M 297.665138 129.632023 
L 297.665138 128.029323 
" clip-path="url(#p666b66e00a)" style="fill: none; stroke: #ff7f0e; stroke-width: 1.5"/>
    <path d="M 302.01319 132.927615 
L 302.01319 131.255252 
" clip-path="url(#p666b66e00a)" style="fill: none; stroke: #ff7f0e; stroke-width: 1.5"/>
    <path d="M 306.361242 136.107852 
L 306.361242 134.354627 
" clip-path="url(#p666b66e00a)" style="fill: none; stroke: #ff7f0e; stroke-width: 1.5"/>
    <path d="M 310.709294 139.084192 
L 310.709294 137.247287 
" clip-path="url(#p666b66e00a)" style="fill: none; stroke: #ff7f0e; stroke-width: 1.5"/>
    <path d="M 315.057346 142.849177 
L 315.057346 140.930088 
" clip-path="url(#p666b66e00a)" style="fill: none; stroke: #ff7f0e; stroke-width: 1.5"/>
    <path d="M 319.405398 145.57296 
L 319.405398 143.562802 
" clip-path="url(#p666b66e00a)" style="fill: none; stroke: #ff7f0e; stroke-width: 1.5"/>
    <path d="M 323.75345 143.398714 
L 323.75345 141.38935 
" clip-path="url(#p666b66e00a)" style="fill: none; stroke: #ff7f0e; stroke-width: 1.5"/>
    <path d="M 328.101502 144.574626 
L 328.101502 142.502828 
" clip-path="url(#p666b66e00a)" style="fill: none; stroke: #ff7f0e; stroke-width: 1.5"/>
    <path d="M 332.449554 148.639331 
L 332.449554 146.45405 
" clip-path="url(#p666b66e00a)" style="fill: none; stroke: #ff7f0e; stroke-width: 1.5"/>
    <path d="M 336.797606 147.30486 
L 336.797606 145.099117 
" clip-path="url(#p666b66e00a)" style="fill: none; stroke: #ff7f0e; stroke-width: 1.5"/>
    <path d="M 341.145657 148.151883 
L 341.145657 145.883879 
" clip-path="url(#p666b66e00a)" style="fill: none; stroke: #ff7f0e; stroke-width: 1.5"/>
    <path d="M 345.493709 147.821448 
L 345.493709 145.50356 
" clip-path="url(#p666b66e00a)" style="fill: none; stroke: #ff7f0e; stroke-width: 1.5"/>
    <path d="M 349.841761 146.909345 
L 349.841761 144.555302 
" clip-path="url(#p666b66e00a)" style="fill: none; stroke: #ff7f0e; stroke-width: 1.5"/>
    <path d="M 354.189813 147.961295 
L 354.189813 145.552306 
" clip-path="url(#p666b66e00a)" style="fill: none; stroke: #ff7f0e; stroke-width: 1.5"/>
    <path d="M 358.537865 148.950836 
L 358.537865 146.456226 
" clip-path="url(#p666b66e00a)" style="fill: none; stroke: #ff7f0e; stroke-width: 1.5"/>
    <path d="M 362.885917 146.08183 
L 362.885917 143.591132 
" clip-path="url(#p666b66e00a)" style="fill: none; stroke: #ff7f0e; stroke-width: 1.5"/>
   </g>
   <g id="line2d_30">
    <path d="M 60.696307 44.176598 
L 65.044359 44.176598 
L 65.044359 43.271706 
L 69.392411 43.271706 
L 69.392411 41.680979 
L 73.740463 41.680979 
L 73.740463 40.130517 
L 78.088515 40.130517 
L 78.088515 38.894459 
L 82.436567 38.894459 
L 82.436567 37.678909 
L 86.784619 37.678909 
L 86.784619 35.468217 
L 91.13267 35.468217 
L 91.13267 33.899972 
L 95.480722 33.899972 
L 95.480722 31.455827 
L 99.828774 31.455827 
L 99.828774 29.288681 
L 104.176826 29.288681 
L 104.176826 27.893233 
L 108.524878 27.893233 
L 108.524878 26.639759 
L 112.87293 26.639759 
L 112.87293 26.064747 
L 117.220982 26.064747 
L 117.220982 25.817957 
L 125.917086 25.910029 
L 125.917086 25.556103 
L 130.265138 25.556103 
L 130.265138 26.694851 
L 134.61319 26.694851 
L 134.61319 27.777512 
L 138.961242 27.777512 
L 138.961242 29.669692 
L 143.309294 29.669692 
L 143.309294 31.703554 
L 147.657346 31.703554 
L 147.657346 33.816871 
L 152.005398 33.816871 
L 152.005398 37.121066 
L 156.35345 37.121066 
L 156.35345 40.262992 
L 160.701502 40.262992 
L 160.701502 44.697363 
L 165.049554 44.697363 
L 165.049554 48.975525 
L 169.397606 48.975525 
L 169.397606 54.006622 
L 173.745657 54.006622 
L 173.745657 60.272497 
L 178.093709 60.272497 
L 178.093709 65.397131 
L 182.441761 65.397131 
L 182.441761 72.347656 
L 186.789813 72.347656 
L 186.789813 78.751918 
L 191.137865 78.751918 
L 191.137865 84.607546 
L 195.485917 84.607546 
L 195.485917 90.86031 
L 199.833969 90.86031 
L 199.833969 96.749167 
L 204.182021 96.749167 
L 204.182021 103.882866 
L 208.530073 103.882866 
L 208.530073 108.971277 
L 212.878125 108.971277 
L 212.878125 114.037953 
L 217.226177 114.037953 
L 217.226177 120.010227 
L 221.574229 120.010227 
L 221.574229 123.20406 
L 225.922281 123.20406 
L 225.922281 128.579328 
L 230.270333 128.579328 
L 230.270333 131.288106 
L 234.618385 131.288106 
L 234.618385 135.063417 
L 238.966437 135.063417 
L 238.966437 138.190137 
L 243.314489 138.190137 
L 243.314489 139.265432 
L 247.662541 139.265432 
L 247.662541 143.583992 
L 252.010593 143.583992 
L 252.010593 143.776059 
L 256.358644 143.776059 
L 256.358644 145.323481 
L 260.706696 145.323481 
L 260.706696 143.443065 
L 265.054748 143.443065 
L 265.054748 145.863009 
L 269.4028 145.863009 
L 269.4028 147.264445 
L 273.750852 147.264445 
L 273.750852 148.533041 
L 278.098904 148.533041 
L 278.098904 148.879394 
L 282.446956 148.879394 
L 282.446956 146.700957 
L 286.795008 146.700957 
L 286.795008 148.064736 
L 291.14306 148.064736 
L 291.14306 149.17261 
L 299.839164 149.274558 
L 299.839164 149.869559 
L 304.187216 149.869559 
L 304.187216 148.626302 
L 308.535268 148.626302 
L 308.535268 147.652396 
L 312.88332 147.652396 
L 312.88332 147.276617 
L 317.231372 147.276617 
L 317.231372 146.457244 
L 321.579424 146.457244 
L 321.579424 147.713068 
L 325.927476 147.713068 
L 325.927476 142.462918 
L 330.275528 142.462918 
L 330.275528 145.967235 
L 334.62358 145.967235 
L 334.62358 147.781545 
L 338.971631 147.781545 
L 338.971631 145.553972 
L 343.319683 145.553972 
L 343.319683 149.165786 
L 347.667735 149.165786 
L 347.667735 145.798931 
L 352.015787 145.798931 
L 352.015787 145.259756 
L 360.711891 145.173349 
L 360.711891 143.714652 
L 365.059943 143.714652 
L 365.059943 143.714652 
" clip-path="url(#p666b66e00a)" style="fill: none; stroke: #2ca02c; stroke-width: 1.5; stroke-linecap: square"/>
   </g>
   <g id="LineCollection_3">
    <path d="M 62.870333 44.653464 
L 62.870333 43.704225 
" clip-path="url(#p666b66e00a)" style="fill: none; stroke: #2ca02c; stroke-width: 1.5"/>
    <path d="M 67.218385 43.725229 
L 67.218385 42.822248 
" clip-path="url(#p666b66e00a)" style="fill: none; stroke: #2ca02c; stroke-width: 1.5"/>
    <path d="M 71.566437 42.112808 
L 71.566437 41.252837 
" clip-path="url(#p666b66e00a)" style="fill: none; stroke: #2ca02c; stroke-width: 1.5"/>
    <path d="M 75.914489 40.543566 
L 75.914489 39.720843 
" clip-path="url(#p666b66e00a)" style="fill: none; stroke: #2ca02c; stroke-width: 1.5"/>
    <path d="M 80.262541 39.292842 
L 80.262541 38.499217 
" clip-path="url(#p666b66e00a)" style="fill: none; stroke: #2ca02c; stroke-width: 1.5"/>
    <path d="M 84.610593 38.062772 
L 84.610593 37.297961 
" clip-path="url(#p666b66e00a)" style="fill: none; stroke: #2ca02c; stroke-width: 1.5"/>
    <path d="M 88.958644 35.838484 
L 88.958644 35.100664 
" clip-path="url(#p666b66e00a)" style="fill: none; stroke: #2ca02c; stroke-width: 1.5"/>
    <path d="M 93.306696 34.257971 
L 93.306696 33.544512 
" clip-path="url(#p666b66e00a)" style="fill: none; stroke: #2ca02c; stroke-width: 1.5"/>
    <path d="M 97.654748 31.802947 
L 97.654748 31.111094 
" clip-path="url(#p666b66e00a)" style="fill: none; stroke: #2ca02c; stroke-width: 1.5"/>
    <path d="M 102.0028 29.626823 
L 102.0028 28.952804 
" clip-path="url(#p666b66e00a)" style="fill: none; stroke: #2ca02c; stroke-width: 1.5"/>
    <path d="M 106.350852 28.22474 
L 106.350852 27.563902 
" clip-path="url(#p666b66e00a)" style="fill: none; stroke: #2ca02c; stroke-width: 1.5"/>
    <path d="M 110.698904 26.965427 
L 110.698904 26.316192 
" clip-path="url(#p666b66e00a)" style="fill: none; stroke: #2ca02c; stroke-width: 1.5"/>
    <path d="M 115.046956 26.386313 
L 115.046956 25.745229 
" clip-path="url(#p666b66e00a)" style="fill: none; stroke: #2ca02c; stroke-width: 1.5"/>
    <path d="M 119.395008 26.136619 
L 119.395008 25.501308 
" clip-path="url(#p666b66e00a)" style="fill: none; stroke: #2ca02c; stroke-width: 1.5"/>
    <path d="M 123.74306 26.226978 
L 123.74306 25.595071 
" clip-path="url(#p666b66e00a)" style="fill: none; stroke: #2ca02c; stroke-width: 1.5"/>
    <path d="M 128.091112 25.871436 
L 128.091112 25.242741 
" clip-path="url(#p666b66e00a)" style="fill: none; stroke: #2ca02c; stroke-width: 1.5"/>
    <path d="M 132.439164 27.010023 
L 132.439164 26.381648 
" clip-path="url(#p666b66e00a)" style="fill: none; stroke: #2ca02c; stroke-width: 1.5"/>
    <path d="M 136.787216 28.094523 
L 136.787216 27.462494 
" clip-path="url(#p666b66e00a)" style="fill: none; stroke: #2ca02c; stroke-width: 1.5"/>
    <path d="M 141.135268 29.989081 
L 141.135268 29.352325 
" clip-path="url(#p666b66e00a)" style="fill: none; stroke: #2ca02c; stroke-width: 1.5"/>
    <path d="M 145.48332 32.026472 
L 145.48332 31.382703 
" clip-path="url(#p666b66e00a)" style="fill: none; stroke: #2ca02c; stroke-width: 1.5"/>
    <path d="M 149.831372 34.145135 
L 149.831372 33.490742 
" clip-path="url(#p666b66e00a)" style="fill: none; stroke: #2ca02c; stroke-width: 1.5"/>
    <path d="M 154.179424 37.455806 
L 154.179424 36.788547 
" clip-path="url(#p666b66e00a)" style="fill: none; stroke: #2ca02c; stroke-width: 1.5"/>
    <path d="M 158.527476 40.605135 
L 158.527476 39.923168 
" clip-path="url(#p666b66e00a)" style="fill: none; stroke: #2ca02c; stroke-width: 1.5"/>
    <path d="M 162.875528 45.051014 
L 162.875528 44.346188 
" clip-path="url(#p666b66e00a)" style="fill: none; stroke: #2ca02c; stroke-width: 1.5"/>
    <path d="M 167.22358 49.340478 
L 167.22358 48.61321 
" clip-path="url(#p666b66e00a)" style="fill: none; stroke: #2ca02c; stroke-width: 1.5"/>
    <path d="M 171.571631 54.387076 
L 171.571631 53.629033 
" clip-path="url(#p666b66e00a)" style="fill: none; stroke: #2ca02c; stroke-width: 1.5"/>
    <path d="M 175.919683 60.672443 
L 175.919683 59.875717 
" clip-path="url(#p666b66e00a)" style="fill: none; stroke: #2ca02c; stroke-width: 1.5"/>
    <path d="M 180.267735 65.816332 
L 180.267735 64.981405 
" clip-path="url(#p666b66e00a)" style="fill: none; stroke: #2ca02c; stroke-width: 1.5"/>
    <path d="M 184.615787 72.793412 
L 184.615787 71.905828 
" clip-path="url(#p666b66e00a)" style="fill: none; stroke: #2ca02c; stroke-width: 1.5"/>
    <path d="M 188.963839 79.225986 
L 188.963839 78.28229 
" clip-path="url(#p666b66e00a)" style="fill: none; stroke: #2ca02c; stroke-width: 1.5"/>
    <path d="M 193.311891 85.110658 
L 193.311891 84.109433 
" clip-path="url(#p666b66e00a)" style="fill: none; stroke: #2ca02c; stroke-width: 1.5"/>
    <path d="M 197.659943 91.396607 
L 197.659943 90.329689 
" clip-path="url(#p666b66e00a)" style="fill: none; stroke: #2ca02c; stroke-width: 1.5"/>
    <path d="M 202.007995 97.325854 
L 202.007995 96.179038 
" clip-path="url(#p666b66e00a)" style="fill: none; stroke: #2ca02c; stroke-width: 1.5"/>
    <path d="M 206.356047 104.496487 
L 206.356047 103.276663 
" clip-path="url(#p666b66e00a)" style="fill: none; stroke: #2ca02c; stroke-width: 1.5"/>
    <path d="M 210.704099 109.629192 
L 210.704099 108.321885 
" clip-path="url(#p666b66e00a)" style="fill: none; stroke: #2ca02c; stroke-width: 1.5"/>
    <path d="M 215.052151 114.739392 
L 215.052151 113.346192 
" clip-path="url(#p666b66e00a)" style="fill: none; stroke: #2ca02c; stroke-width: 1.5"/>
    <path d="M 219.400203 120.763563 
L 219.400203 119.268042 
" clip-path="url(#p666b66e00a)" style="fill: none; stroke: #2ca02c; stroke-width: 1.5"/>
    <path d="M 223.748255 123.996864 
L 223.748255 122.423596 
" clip-path="url(#p666b66e00a)" style="fill: none; stroke: #2ca02c; stroke-width: 1.5"/>
    <path d="M 228.096307 129.42632 
L 228.096307 127.746407 
" clip-path="url(#p666b66e00a)" style="fill: none; stroke: #2ca02c; stroke-width: 1.5"/>
    <path d="M 232.444359 132.176012 
L 232.444359 130.41565 
" clip-path="url(#p666b66e00a)" style="fill: none; stroke: #2ca02c; stroke-width: 1.5"/>
    <path d="M 236.792411 136.001871 
L 236.792411 134.142205 
" clip-path="url(#p666b66e00a)" style="fill: none; stroke: #2ca02c; stroke-width: 1.5"/>
    <path d="M 241.140463 139.17935 
L 241.140463 137.220063 
" clip-path="url(#p666b66e00a)" style="fill: none; stroke: #2ca02c; stroke-width: 1.5"/>
    <path d="M 245.488515 140.288516 
L 245.488515 138.262808 
" clip-path="url(#p666b66e00a)" style="fill: none; stroke: #2ca02c; stroke-width: 1.5"/>
    <path d="M 249.836567 144.674022 
L 249.836567 142.517156 
" clip-path="url(#p666b66e00a)" style="fill: none; stroke: #2ca02c; stroke-width: 1.5"/>
    <path d="M 254.184619 144.89386 
L 254.184619 142.682638 
" clip-path="url(#p666b66e00a)" style="fill: none; stroke: #2ca02c; stroke-width: 1.5"/>
    <path d="M 258.53267 146.478019 
L 258.53267 144.19493 
" clip-path="url(#p666b66e00a)" style="fill: none; stroke: #2ca02c; stroke-width: 1.5"/>
    <path d="M 262.880722 144.62011 
L 262.880722 142.293022 
" clip-path="url(#p666b66e00a)" style="fill: none; stroke: #2ca02c; stroke-width: 1.5"/>
    <path d="M 267.228774 147.093629 
L 267.228774 144.66187 
" clip-path="url(#p666b66e00a)" style="fill: none; stroke: #2ca02c; stroke-width: 1.5"/>
    <path d="M 271.576826 148.536852 
L 271.576826 146.023531 
" clip-path="url(#p666b66e00a)" style="fill: none; stroke: #2ca02c; stroke-width: 1.5"/>
    <path d="M 275.924878 149.86346 
L 275.924878 147.237014 
" clip-path="url(#p666b66e00a)" style="fill: none; stroke: #2ca02c; stroke-width: 1.5"/>
    <path d="M 280.27293 150.242803 
L 280.27293 147.552081 
" clip-path="url(#p666b66e00a)" style="fill: none; stroke: #2ca02c; stroke-width: 1.5"/>
    <path d="M 284.620982 148.085242 
L 284.620982 145.353866 
" clip-path="url(#p666b66e00a)" style="fill: none; stroke: #2ca02c; stroke-width: 1.5"/>
    <path d="M 288.969034 149.498801 
L 288.969034 146.67055 
" clip-path="url(#p666b66e00a)" style="fill: none; stroke: #2ca02c; stroke-width: 1.5"/>
    <path d="M 293.317086 150.668099 
L 293.317086 147.720438 
" clip-path="url(#p666b66e00a)" style="fill: none; stroke: #2ca02c; stroke-width: 1.5"/>
    <path d="M 297.665138 150.809402 
L 297.665138 147.785306 
" clip-path="url(#p666b66e00a)" style="fill: none; stroke: #2ca02c; stroke-width: 1.5"/>
    <path d="M 302.01319 151.474902 
L 302.01319 148.314025 
" clip-path="url(#p666b66e00a)" style="fill: none; stroke: #2ca02c; stroke-width: 1.5"/>
    <path d="M 306.361242 150.240462 
L 306.361242 147.062491 
" clip-path="url(#p666b66e00a)" style="fill: none; stroke: #2ca02c; stroke-width: 1.5"/>
    <path d="M 310.709294 149.3182 
L 310.709294 146.040161 
" clip-path="url(#p666b66e00a)" style="fill: none; stroke: #2ca02c; stroke-width: 1.5"/>
    <path d="M 315.057346 148.991954 
L 315.057346 145.618028 
" clip-path="url(#p666b66e00a)" style="fill: none; stroke: #2ca02c; stroke-width: 1.5"/>
    <path d="M 319.405398 148.21691 
L 319.405398 144.757247 
" clip-path="url(#p666b66e00a)" style="fill: none; stroke: #2ca02c; stroke-width: 1.5"/>
    <path d="M 323.75345 149.560744 
L 323.75345 145.931066 
" clip-path="url(#p666b66e00a)" style="fill: none; stroke: #2ca02c; stroke-width: 1.5"/>
    <path d="M 328.101502 144.270634 
L 328.101502 140.718115 
" clip-path="url(#p666b66e00a)" style="fill: none; stroke: #2ca02c; stroke-width: 1.5"/>
    <path d="M 332.449554 147.92924 
L 332.449554 144.079122 
" clip-path="url(#p666b66e00a)" style="fill: none; stroke: #2ca02c; stroke-width: 1.5"/>
    <path d="M 336.797606 149.830812 
L 336.797606 145.812756 
" clip-path="url(#p666b66e00a)" style="fill: none; stroke: #2ca02c; stroke-width: 1.5"/>
    <path d="M 341.145657 147.656124 
L 341.145657 143.536419 
" clip-path="url(#p666b66e00a)" style="fill: none; stroke: #2ca02c; stroke-width: 1.5"/>
    <path d="M 345.493709 151.405865 
L 345.493709 147.021521 
" clip-path="url(#p666b66e00a)" style="fill: none; stroke: #2ca02c; stroke-width: 1.5"/>
    <path d="M 349.841761 148.061405 
L 349.841761 143.634155 
" clip-path="url(#p666b66e00a)" style="fill: none; stroke: #2ca02c; stroke-width: 1.5"/>
    <path d="M 354.189813 147.615523 
L 354.189813 143.009724 
" clip-path="url(#p666b66e00a)" style="fill: none; stroke: #2ca02c; stroke-width: 1.5"/>
    <path d="M 358.537865 147.594841 
L 358.537865 142.863433 
" clip-path="url(#p666b66e00a)" style="fill: none; stroke: #2ca02c; stroke-width: 1.5"/>
    <path d="M 362.885917 146.24073 
L 362.885917 141.309762 
" clip-path="url(#p666b66e00a)" style="fill: none; stroke: #2ca02c; stroke-width: 1.5"/>
   </g>
   <g id="line2d_31">
    <path d="M 60.696307 33.725743 
L 65.044359 33.725743 
L 65.044359 32.366106 
L 69.392411 32.366106 
L 69.392411 30.766982 
L 73.740463 30.766982 
L 73.740463 29.656176 
L 78.088515 29.656176 
L 78.088515 27.361096 
L 82.436567 27.361096 
L 82.436567 26.645289 
L 91.13267 26.653195 
L 91.13267 28.206399 
L 95.480722 28.206399 
L 95.480722 30.454794 
L 99.828774 30.454794 
L 99.828774 35.467054 
L 104.176826 35.467054 
L 104.176826 41.759153 
L 108.524878 41.759153 
L 108.524878 50.144781 
L 112.87293 50.144781 
L 112.87293 60.059377 
L 117.220982 60.059377 
L 117.220982 70.449898 
L 121.569034 70.449898 
L 121.569034 81.81793 
L 125.917086 81.81793 
L 125.917086 92.345017 
L 130.265138 92.345017 
L 130.265138 101.505697 
L 134.61319 101.505697 
L 134.61319 111.395997 
L 138.961242 111.395997 
L 138.961242 118.095278 
L 143.309294 118.095278 
L 143.309294 126.34884 
L 147.657346 126.34884 
L 147.657346 132.46188 
L 152.005398 132.46188 
L 152.005398 137.73026 
L 156.35345 137.73026 
L 156.35345 142.773217 
L 160.701502 142.773217 
L 160.701502 147.184194 
L 165.049554 147.184194 
L 165.049554 147.619642 
L 169.397606 147.619642 
L 169.397606 147.746875 
L 173.745657 147.746875 
L 173.745657 151.152899 
L 178.093709 151.152899 
L 178.093709 150.27299 
L 182.441761 150.27299 
L 182.441761 149.88327 
L 186.789813 149.88327 
L 186.789813 150.474219 
L 191.137865 150.474219 
L 191.137865 149.123766 
L 195.485917 149.123766 
L 195.485917 149.563936 
L 199.833969 149.563936 
L 199.833969 149.16415 
L 208.530073 149.223839 
L 208.530073 148.912086 
L 212.878125 148.912086 
L 212.878125 148.294528 
L 217.226177 148.294528 
L 217.226177 148.136809 
L 221.574229 148.136809 
L 221.574229 147.318809 
L 225.922281 147.318809 
L 225.922281 147.456069 
L 230.270333 147.456069 
L 230.270333 146.210199 
L 234.618385 146.210199 
L 234.618385 146.514903 
L 238.966437 146.514903 
L 238.966437 144.586754 
L 243.314489 144.586754 
L 243.314489 143.589362 
L 252.010593 143.555619 
L 252.010593 147.713802 
L 256.358644 147.713802 
L 256.358644 136.912444 
L 260.706696 136.912444 
L 260.706696 142.997654 
L 269.4028 143.040881 
L 269.4028 144.966862 
L 273.750852 144.966862 
L 273.750852 138.655709 
L 278.098904 138.655709 
L 278.098904 155.344257 
L 282.446956 155.344257 
L 282.446956 137.027945 
L 286.795008 137.027945 
L 286.795008 142.621547 
L 291.14306 142.621547 
L 291.14306 135.708197 
L 295.491112 135.708197 
L 295.491112 147.176589 
L 299.839164 147.176589 
L 299.839164 129.841224 
L 304.187216 129.841224 
L 304.187216 137.119414 
L 308.535268 137.119414 
L 308.535268 145.649901 
L 312.88332 145.649901 
L 312.88332 126.891706 
L 317.231372 126.891706 
L 317.231372 142.570617 
L 321.579424 142.570617 
L 321.579424 115.896214 
L 325.927476 115.896214 
L 325.927476 150.684962 
L 330.275528 150.684962 
L 330.275528 126.732635 
L 334.62358 126.732635 
L 334.62358 161.851085 
L 338.971631 161.851085 
L 338.971631 130.803972 
L 343.319683 130.803972 
L 343.319683 112.030345 
L 347.667735 112.030345 
L 347.667735 157.651427 
L 352.015787 157.651427 
L 352.015787 108.848403 
L 356.363839 108.848403 
L 356.363839 95.383204 
L 360.711891 95.383204 
L 360.711891 268.439687 
L 360.711891 268.439687 
" clip-path="url(#p666b66e00a)" style="fill: none; stroke: #d62728; stroke-width: 1.5; stroke-linecap: square"/>
   </g>
   <g id="LineCollection_4">
    <path d="M 62.870333 34.171499 
L 62.870333 33.283915 
" clip-path="url(#p666b66e00a)" style="fill: none; stroke: #d62728; stroke-width: 1.5"/>
    <path d="M 67.218385 32.789445 
L 67.218385 31.946313 
" clip-path="url(#p666b66e00a)" style="fill: none; stroke: #d62728; stroke-width: 1.5"/>
    <path d="M 71.566437 31.168733 
L 71.566437 30.368425 
" clip-path="url(#p666b66e00a)" style="fill: none; stroke: #d62728; stroke-width: 1.5"/>
    <path d="M 75.914489 30.043432 
L 75.914489 29.271889 
" clip-path="url(#p666b66e00a)" style="fill: none; stroke: #d62728; stroke-width: 1.5"/>
    <path d="M 80.262541 27.733507 
L 80.262541 26.99143 
" clip-path="url(#p666b66e00a)" style="fill: none; stroke: #d62728; stroke-width: 1.5"/>
    <path d="M 84.610593 27.008599 
L 84.610593 26.284592 
" clip-path="url(#p666b66e00a)" style="fill: none; stroke: #d62728; stroke-width: 1.5"/>
    <path d="M 88.958644 27.011574 
L 88.958644 26.297359 
" clip-path="url(#p666b66e00a)" style="fill: none; stroke: #d62728; stroke-width: 1.5"/>
    <path d="M 93.306696 28.561354 
L 93.306696 27.853939 
" clip-path="url(#p666b66e00a)" style="fill: none; stroke: #d62728; stroke-width: 1.5"/>
    <path d="M 97.654748 30.811872 
L 97.654748 30.100241 
" clip-path="url(#p666b66e00a)" style="fill: none; stroke: #d62728; stroke-width: 1.5"/>
    <path d="M 102.0028 35.832721 
L 102.0028 35.104034 
" clip-path="url(#p666b66e00a)" style="fill: none; stroke: #d62728; stroke-width: 1.5"/>
    <path d="M 106.350852 42.137627 
L 106.350852 41.383515 
" clip-path="url(#p666b66e00a)" style="fill: none; stroke: #d62728; stroke-width: 1.5"/>
    <path d="M 110.698904 50.544551 
L 110.698904 49.748174 
" clip-path="url(#p666b66e00a)" style="fill: none; stroke: #d62728; stroke-width: 1.5"/>
    <path d="M 115.046956 60.488649 
L 115.046956 59.633749 
" clip-path="url(#p666b66e00a)" style="fill: none; stroke: #d62728; stroke-width: 1.5"/>
    <path d="M 119.395008 70.915421 
L 119.395008 69.988656 
" clip-path="url(#p666b66e00a)" style="fill: none; stroke: #d62728; stroke-width: 1.5"/>
    <path d="M 123.74306 82.332726 
L 123.74306 81.308367 
" clip-path="url(#p666b66e00a)" style="fill: none; stroke: #d62728; stroke-width: 1.5"/>
    <path d="M 128.091112 92.910525 
L 128.091112 91.785817 
" clip-path="url(#p666b66e00a)" style="fill: none; stroke: #d62728; stroke-width: 1.5"/>
    <path d="M 132.439164 102.126685 
L 132.439164 100.892306 
" clip-path="url(#p666b66e00a)" style="fill: none; stroke: #d62728; stroke-width: 1.5"/>
    <path d="M 136.787216 112.085598 
L 136.787216 110.715752 
" clip-path="url(#p666b66e00a)" style="fill: none; stroke: #d62728; stroke-width: 1.5"/>
    <path d="M 141.135268 118.840705 
L 141.135268 117.360771 
" clip-path="url(#p666b66e00a)" style="fill: none; stroke: #d62728; stroke-width: 1.5"/>
    <path d="M 145.48332 127.169641 
L 145.48332 125.54126 
" clip-path="url(#p666b66e00a)" style="fill: none; stroke: #d62728; stroke-width: 1.5"/>
    <path d="M 149.831372 133.349466 
L 149.831372 131.589734 
" clip-path="url(#p666b66e00a)" style="fill: none; stroke: #d62728; stroke-width: 1.5"/>
    <path d="M 154.179424 138.691218 
L 154.179424 136.787374 
" clip-path="url(#p666b66e00a)" style="fill: none; stroke: #d62728; stroke-width: 1.5"/>
    <path d="M 158.527476 143.805375 
L 158.527476 141.761879 
" clip-path="url(#p666b66e00a)" style="fill: none; stroke: #d62728; stroke-width: 1.5"/>
    <path d="M 162.875528 148.292089 
L 162.875528 146.100251 
" clip-path="url(#p666b66e00a)" style="fill: none; stroke: #d62728; stroke-width: 1.5"/>
    <path d="M 167.22358 148.766983 
L 167.22358 146.497969 
" clip-path="url(#p666b66e00a)" style="fill: none; stroke: #d62728; stroke-width: 1.5"/>
    <path d="M 171.571631 148.930635 
L 171.571631 146.59042 
" clip-path="url(#p666b66e00a)" style="fill: none; stroke: #d62728; stroke-width: 1.5"/>
    <path d="M 175.919683 152.412338 
L 175.919683 149.924322 
" clip-path="url(#p666b66e00a)" style="fill: none; stroke: #d62728; stroke-width: 1.5"/>
    <path d="M 180.267735 151.560019 
L 180.267735 149.018173 
" clip-path="url(#p666b66e00a)" style="fill: none; stroke: #d62728; stroke-width: 1.5"/>
    <path d="M 184.615787 151.203366 
L 184.615787 148.59704 
" clip-path="url(#p666b66e00a)" style="fill: none; stroke: #d62728; stroke-width: 1.5"/>
    <path d="M 188.963839 151.857164 
L 188.963839 149.128397 
" clip-path="url(#p666b66e00a)" style="fill: none; stroke: #d62728; stroke-width: 1.5"/>
    <path d="M 193.311891 150.527614 
L 193.311891 147.758156 
" clip-path="url(#p666b66e00a)" style="fill: none; stroke: #d62728; stroke-width: 1.5"/>
    <path d="M 197.659943 151.02956 
L 197.659943 148.139941 
" clip-path="url(#p666b66e00a)" style="fill: none; stroke: #d62728; stroke-width: 1.5"/>
    <path d="M 202.007995 150.721118 
L 202.007995 147.654077 
" clip-path="url(#p666b66e00a)" style="fill: none; stroke: #d62728; stroke-width: 1.5"/>
    <path d="M 206.356047 150.766548 
L 206.356047 147.727183 
" clip-path="url(#p666b66e00a)" style="fill: none; stroke: #d62728; stroke-width: 1.5"/>
    <path d="M 210.704099 150.530278 
L 210.704099 147.344491 
" clip-path="url(#p666b66e00a)" style="fill: none; stroke: #d62728; stroke-width: 1.5"/>
    <path d="M 215.052151 150.007698 
L 215.052151 146.637965 
" clip-path="url(#p666b66e00a)" style="fill: none; stroke: #d62728; stroke-width: 1.5"/>
    <path d="M 219.400203 149.899523 
L 219.400203 146.433965 
" clip-path="url(#p666b66e00a)" style="fill: none; stroke: #d62728; stroke-width: 1.5"/>
    <path d="M 223.748255 149.158307 
L 223.748255 145.544416 
" clip-path="url(#p666b66e00a)" style="fill: none; stroke: #d62728; stroke-width: 1.5"/>
    <path d="M 228.096307 149.39171 
L 228.096307 145.592383 
" clip-path="url(#p666b66e00a)" style="fill: none; stroke: #d62728; stroke-width: 1.5"/>
    <path d="M 232.444359 148.211914 
L 232.444359 144.285339 
" clip-path="url(#p666b66e00a)" style="fill: none; stroke: #d62728; stroke-width: 1.5"/>
    <path d="M 236.792411 148.62609 
L 236.792411 144.48903 
" clip-path="url(#p666b66e00a)" style="fill: none; stroke: #d62728; stroke-width: 1.5"/>
    <path d="M 241.140463 146.759329 
L 241.140463 142.504422 
" clip-path="url(#p666b66e00a)" style="fill: none; stroke: #d62728; stroke-width: 1.5"/>
    <path d="M 245.488515 145.903404 
L 245.488515 141.377422 
" clip-path="url(#p666b66e00a)" style="fill: none; stroke: #d62728; stroke-width: 1.5"/>
    <path d="M 249.836567 145.994323 
L 249.836567 141.230048 
" clip-path="url(#p666b66e00a)" style="fill: none; stroke: #d62728; stroke-width: 1.5"/>
    <path d="M 254.184619 150.375217 
L 254.184619 145.186563 
" clip-path="url(#p666b66e00a)" style="fill: none; stroke: #d62728; stroke-width: 1.5"/>
    <path d="M 258.53267 139.524452 
L 258.53267 134.429797 
" clip-path="url(#p666b66e00a)" style="fill: none; stroke: #d62728; stroke-width: 1.5"/>
    <path d="M 262.880722 145.905824 
L 262.880722 140.248951 
" clip-path="url(#p666b66e00a)" style="fill: none; stroke: #d62728; stroke-width: 1.5"/>
    <path d="M 267.228774 146.207843 
L 267.228774 140.062122 
" clip-path="url(#p666b66e00a)" style="fill: none; stroke: #d62728; stroke-width: 1.5"/>
    <path d="M 271.576826 148.433211 
L 271.576826 141.724737 
" clip-path="url(#p666b66e00a)" style="fill: none; stroke: #d62728; stroke-width: 1.5"/>
    <path d="M 275.924878 142.149879 
L 275.924878 135.389261 
" clip-path="url(#p666b66e00a)" style="fill: none; stroke: #d62728; stroke-width: 1.5"/>
    <path d="M 280.27293 159.824077 
L 280.27293 151.232073 
" clip-path="url(#p666b66e00a)" style="fill: none; stroke: #d62728; stroke-width: 1.5"/>
    <path d="M 284.620982 141.169698 
L 284.620982 133.202369 
" clip-path="url(#p666b66e00a)" style="fill: none; stroke: #d62728; stroke-width: 1.5"/>
    <path d="M 288.969034 147.461866 
L 288.969034 138.207635 
" clip-path="url(#p666b66e00a)" style="fill: none; stroke: #d62728; stroke-width: 1.5"/>
    <path d="M 293.317086 140.492755 
L 293.317086 131.340696 
" clip-path="url(#p666b66e00a)" style="fill: none; stroke: #d62728; stroke-width: 1.5"/>
    <path d="M 297.665138 152.925263 
L 297.665138 142.019745 
" clip-path="url(#p666b66e00a)" style="fill: none; stroke: #d62728; stroke-width: 1.5"/>
    <path d="M 302.01319 135.891526 
L 302.01319 124.443023 
" clip-path="url(#p666b66e00a)" style="fill: none; stroke: #d62728; stroke-width: 1.5"/>
    <path d="M 306.361242 143.680271 
L 306.361242 131.318567 
" clip-path="url(#p666b66e00a)" style="fill: none; stroke: #d62728; stroke-width: 1.5"/>
    <path d="M 310.709294 154.227774 
L 310.709294 138.327374 
" clip-path="url(#p666b66e00a)" style="fill: none; stroke: #d62728; stroke-width: 1.5"/>
    <path d="M 315.057346 135.05786 
L 315.057346 119.871153 
" clip-path="url(#p666b66e00a)" style="fill: none; stroke: #d62728; stroke-width: 1.5"/>
    <path d="M 319.405398 152.748085 
L 319.405398 134.114497 
" clip-path="url(#p666b66e00a)" style="fill: none; stroke: #d62728; stroke-width: 1.5"/>
    <path d="M 323.75345 125.415637 
L 323.75345 107.898967 
" clip-path="url(#p666b66e00a)" style="fill: none; stroke: #d62728; stroke-width: 1.5"/>
    <path d="M 328.101502 166.342072 
L 328.101502 138.771218 
" clip-path="url(#p666b66e00a)" style="fill: none; stroke: #d62728; stroke-width: 1.5"/>
    <path d="M 332.449554 141.766978 
L 332.449554 115.181791 
" clip-path="url(#p666b66e00a)" style="fill: none; stroke: #d62728; stroke-width: 1.5"/>
    <path d="M 336.797606 185.745793 
L 336.797606 145.735148 
" clip-path="url(#p666b66e00a)" style="fill: none; stroke: #d62728; stroke-width: 1.5"/>
    <path d="M 341.145657 152.747551 
L 341.145657 115.591915 
" clip-path="url(#p666b66e00a)" style="fill: none; stroke: #d62728; stroke-width: 1.5"/>
    <path d="M 345.493709 138.391748 
L 345.493709 94.842237 
" clip-path="url(#p666b66e00a)" style="fill: none; stroke: #d62728; stroke-width: 1.5"/>
    <path d="M 349.841761 219.30879 
L 349.841761 130.821589 
" clip-path="url(#p666b66e00a)" style="fill: none; stroke: #d62728; stroke-width: 1.5"/>
    <path d="M 354.189813 152.109102 
L 354.189813 85.976075 
" clip-path="url(#p666b66e00a)" style="fill: none; stroke: #d62728; stroke-width: 1.5"/>
    <path d="M 358.537865 138.634134 
L 358.537865 72.513488 
" clip-path="url(#p666b66e00a)" style="fill: none; stroke: #d62728; stroke-width: 1.5"/>
    <path clip-path="url(#p666b66e00a)" style="fill: none; stroke: #d62728; stroke-width: 1.5"/>
   </g>
  </g>
 </g>
 <defs>
  <clipPath id="p666b66e00a">
   <rect x="45.478125" y="7.2" width="334.8" height="221.76"/>
  </clipPath>
 </defs>
</svg>
