<?xml version="1.0" encoding="utf-8" standalone="no"?>
<!DOCTYPE svg PUBLIC "-//W3C//DTD SVG 1.1//EN"
  "http://www.w3.org/Graphics/SVG/1.1/DTD/svg11.dtd">
<svg xmlns:xlink="http://www.w3.org/1999/xlink" width="423.78544pt" height="280.132188pt" viewBox="0 0 423.78544 280.132188" xmlns="http://www.w3.org/2000/svg" version="1.1">
 <metadata>
  <rdf:RDF xmlns:dc="http://purl.org/dc/elements/1.1/" xmlns:cc="http://creativecommons.org/ns#" xmlns:rdf="http://www.w3.org/1999/02/22-rdf-syntax-ns#">
   <cc:Work>
    <dc:type rdf:resource="http://purl.org/dc/dcmitype/StillImage"/>
    <dc:date>2024-06-17T05:55:30.329339</dc:date>
    <dc:format>image/svg+xml</dc:format>
    <dc:creator>
     <cc:Agent>
      <dc:title>Matplotlib v3.9.0, https://matplotlib.org/</dc:title>
     </cc:Agent>
    </dc:creator>
   </cc:Work>
  </rdf:RDF>
 </metadata>
 <defs>
  <style type="text/css">*{stroke-linejoin: round; stroke-linecap: butt}</style>
 </defs>
 <g id="figure_1">
  <g id="patch_1">
   <path d="M 0 280.132188 
L 423.78544 280.132188 
L 423.78544 0 
L 0 0 
z
" style="fill: #ffffff"/>
  </g>
  <g id="axes_1">
   <g id="patch_2">
    <path d="M 45.478125 241.6525 
L 416.58544 241.6525 
L 416.58544 7.2 
L 45.478125 7.2 
z
" style="fill: #ffffff"/>
   </g>
   <g id="matplotlib.axis_1">
    <g id="xtick_1">
     <g id="line2d_1">
      <defs>
       <path id="md322fe2e01" d="M 0 0 
L 0 3.5 
" style="stroke: #000000; stroke-width: 0.8"/>
      </defs>
      <g>
       <use xlink:href="#md322fe2e01" x="61.99289" y="241.6525" style="stroke: #000000; stroke-width: 0.8"/>
      </g>
     </g>
     <g id="text_1">
      <!-- 0.0 -->
      <g transform="translate(54.041327 256.250938) scale(0.1 -0.1)">
       <defs>
        <path id="DejaVuSans-30" d="M 2034 4250 
Q 1547 4250 1301 3770 
Q 1056 3291 1056 2328 
Q 1056 1369 1301 889 
Q 1547 409 2034 409 
Q 2525 409 2770 889 
Q 3016 1369 3016 2328 
Q 3016 3291 2770 3770 
Q 2525 4250 2034 4250 
z
M 2034 4750 
Q 2819 4750 3233 4129 
Q 3647 3509 3647 2328 
Q 3647 1150 3233 529 
Q 2819 -91 2034 -91 
Q 1250 -91 836 529 
Q 422 1150 422 2328 
Q 422 3509 836 4129 
Q 1250 4750 2034 4750 
z
" transform="scale(0.015625)"/>
        <path id="DejaVuSans-2e" d="M 684 794 
L 1344 794 
L 1344 0 
L 684 0 
L 684 794 
z
" transform="scale(0.015625)"/>
       </defs>
       <use xlink:href="#DejaVuSans-30"/>
       <use xlink:href="#DejaVuSans-2e" x="63.623047"/>
       <use xlink:href="#DejaVuSans-30" x="95.410156"/>
      </g>
     </g>
    </g>
    <g id="xtick_2">
     <g id="line2d_2">
      <g>
       <use xlink:href="#md322fe2e01" x="129.537697" y="241.6525" style="stroke: #000000; stroke-width: 0.8"/>
      </g>
     </g>
     <g id="text_2">
      <!-- 0.1 -->
      <g transform="translate(121.586134 256.250938) scale(0.1 -0.1)">
       <defs>
        <path id="DejaVuSans-31" d="M 794 531 
L 1825 531 
L 1825 4091 
L 703 3866 
L 703 4441 
L 1819 4666 
L 2450 4666 
L 2450 531 
L 3481 531 
L 3481 0 
L 794 0 
L 794 531 
z
" transform="scale(0.015625)"/>
       </defs>
       <use xlink:href="#DejaVuSans-30"/>
       <use xlink:href="#DejaVuSans-2e" x="63.623047"/>
       <use xlink:href="#DejaVuSans-31" x="95.410156"/>
      </g>
     </g>
    </g>
    <g id="xtick_3">
     <g id="line2d_3">
      <g>
       <use xlink:href="#md322fe2e01" x="197.082504" y="241.6525" style="stroke: #000000; stroke-width: 0.8"/>
      </g>
     </g>
     <g id="text_3">
      <!-- 0.2 -->
      <g transform="translate(189.130942 256.250938) scale(0.1 -0.1)">
       <defs>
        <path id="DejaVuSans-32" d="M 1228 531 
L 3431 531 
L 3431 0 
L 469 0 
L 469 531 
Q 828 903 1448 1529 
Q 2069 2156 2228 2338 
Q 2531 2678 2651 2914 
Q 2772 3150 2772 3378 
Q 2772 3750 2511 3984 
Q 2250 4219 1831 4219 
Q 1534 4219 1204 4116 
Q 875 4013 500 3803 
L 500 4441 
Q 881 4594 1212 4672 
Q 1544 4750 1819 4750 
Q 2544 4750 2975 4387 
Q 3406 4025 3406 3419 
Q 3406 3131 3298 2873 
Q 3191 2616 2906 2266 
Q 2828 2175 2409 1742 
Q 1991 1309 1228 531 
z
" transform="scale(0.015625)"/>
       </defs>
       <use xlink:href="#DejaVuSans-30"/>
       <use xlink:href="#DejaVuSans-2e" x="63.623047"/>
       <use xlink:href="#DejaVuSans-32" x="95.410156"/>
      </g>
     </g>
    </g>
    <g id="xtick_4">
     <g id="line2d_4">
      <g>
       <use xlink:href="#md322fe2e01" x="264.627311" y="241.6525" style="stroke: #000000; stroke-width: 0.8"/>
      </g>
     </g>
     <g id="text_4">
      <!-- 0.3 -->
      <g transform="translate(256.675749 256.250938) scale(0.1 -0.1)">
       <defs>
        <path id="DejaVuSans-33" d="M 2597 2516 
Q 3050 2419 3304 2112 
Q 3559 1806 3559 1356 
Q 3559 666 3084 287 
Q 2609 -91 1734 -91 
Q 1441 -91 1130 -33 
Q 819 25 488 141 
L 488 750 
Q 750 597 1062 519 
Q 1375 441 1716 441 
Q 2309 441 2620 675 
Q 2931 909 2931 1356 
Q 2931 1769 2642 2001 
Q 2353 2234 1838 2234 
L 1294 2234 
L 1294 2753 
L 1863 2753 
Q 2328 2753 2575 2939 
Q 2822 3125 2822 3475 
Q 2822 3834 2567 4026 
Q 2313 4219 1838 4219 
Q 1578 4219 1281 4162 
Q 984 4106 628 3988 
L 628 4550 
Q 988 4650 1302 4700 
Q 1616 4750 1894 4750 
Q 2613 4750 3031 4423 
Q 3450 4097 3450 3541 
Q 3450 3153 3228 2886 
Q 3006 2619 2597 2516 
z
" transform="scale(0.015625)"/>
       </defs>
       <use xlink:href="#DejaVuSans-30"/>
       <use xlink:href="#DejaVuSans-2e" x="63.623047"/>
       <use xlink:href="#DejaVuSans-33" x="95.410156"/>
      </g>
     </g>
    </g>
    <g id="xtick_5">
     <g id="line2d_5">
      <g>
       <use xlink:href="#md322fe2e01" x="332.172119" y="241.6525" style="stroke: #000000; stroke-width: 0.8"/>
      </g>
     </g>
     <g id="text_5">
      <!-- 0.4 -->
      <g transform="translate(324.220556 256.250938) scale(0.1 -0.1)">
       <defs>
        <path id="DejaVuSans-34" d="M 2419 4116 
L 825 1625 
L 2419 1625 
L 2419 4116 
z
M 2253 4666 
L 3047 4666 
L 3047 1625 
L 3713 1625 
L 3713 1100 
L 3047 1100 
L 3047 0 
L 2419 0 
L 2419 1100 
L 313 1100 
L 313 1709 
L 2253 4666 
z
" transform="scale(0.015625)"/>
       </defs>
       <use xlink:href="#DejaVuSans-30"/>
       <use xlink:href="#DejaVuSans-2e" x="63.623047"/>
       <use xlink:href="#DejaVuSans-34" x="95.410156"/>
      </g>
     </g>
    </g>
    <g id="xtick_6">
     <g id="line2d_6">
      <g>
       <use xlink:href="#md322fe2e01" x="399.716926" y="241.6525" style="stroke: #000000; stroke-width: 0.8"/>
      </g>
     </g>
     <g id="text_6">
      <!-- 0.5 -->
      <g transform="translate(391.765363 256.250938) scale(0.1 -0.1)">
       <defs>
        <path id="DejaVuSans-35" d="M 691 4666 
L 3169 4666 
L 3169 4134 
L 1269 4134 
L 1269 2991 
Q 1406 3038 1543 3061 
Q 1681 3084 1819 3084 
Q 2600 3084 3056 2656 
Q 3513 2228 3513 1497 
Q 3513 744 3044 326 
Q 2575 -91 1722 -91 
Q 1428 -91 1123 -41 
Q 819 9 494 109 
L 494 744 
Q 775 591 1075 516 
Q 1375 441 1709 441 
Q 2250 441 2565 725 
Q 2881 1009 2881 1497 
Q 2881 1984 2565 2268 
Q 2250 2553 1709 2553 
Q 1456 2553 1204 2497 
Q 953 2441 691 2322 
L 691 4666 
z
" transform="scale(0.015625)"/>
       </defs>
       <use xlink:href="#DejaVuSans-30"/>
       <use xlink:href="#DejaVuSans-2e" x="63.623047"/>
       <use xlink:href="#DejaVuSans-35" x="95.410156"/>
      </g>
     </g>
    </g>
    <g id="text_7">
     <!-- Q [1/Å] -->
     <g transform="translate(213.319283 270.8525) scale(0.1 -0.1)">
      <defs>
       <path id="DejaVuSans-51" d="M 2522 4238 
Q 1834 4238 1429 3725 
Q 1025 3213 1025 2328 
Q 1025 1447 1429 934 
Q 1834 422 2522 422 
Q 3209 422 3611 934 
Q 4013 1447 4013 2328 
Q 4013 3213 3611 3725 
Q 3209 4238 2522 4238 
z
M 3406 84 
L 4238 -825 
L 3475 -825 
L 2784 -78 
Q 2681 -84 2626 -87 
Q 2572 -91 2522 -91 
Q 1538 -91 948 567 
Q 359 1225 359 2328 
Q 359 3434 948 4092 
Q 1538 4750 2522 4750 
Q 3503 4750 4090 4092 
Q 4678 3434 4678 2328 
Q 4678 1516 4351 937 
Q 4025 359 3406 84 
z
" transform="scale(0.015625)"/>
       <path id="DejaVuSans-20" transform="scale(0.015625)"/>
       <path id="DejaVuSans-5b" d="M 550 4863 
L 1875 4863 
L 1875 4416 
L 1125 4416 
L 1125 -397 
L 1875 -397 
L 1875 -844 
L 550 -844 
L 550 4863 
z
" transform="scale(0.015625)"/>
       <path id="DejaVuSans-2f" d="M 1625 4666 
L 2156 4666 
L 531 -594 
L 0 -594 
L 1625 4666 
z
" transform="scale(0.015625)"/>
       <path id="DejaVuSans-c5" d="M 2663 5081 
Q 2663 5278 2523 5417 
Q 2384 5556 2188 5556 
Q 1988 5556 1852 5420 
Q 1716 5284 1716 5081 
Q 1716 4884 1853 4746 
Q 1991 4609 2188 4609 
Q 2384 4609 2523 4746 
Q 2663 4884 2663 5081 
z
M 2188 4044 
L 1338 1722 
L 3041 1722 
L 2188 4044 
z
M 1716 4366 
Q 1525 4494 1428 4673 
Q 1331 4853 1331 5081 
Q 1331 5441 1579 5691 
Q 1828 5941 2188 5941 
Q 2544 5941 2795 5689 
Q 3047 5438 3047 5081 
Q 3047 4863 2948 4678 
Q 2850 4494 2663 4366 
L 4325 0 
L 3669 0 
L 3244 1197 
L 1141 1197 
L 716 0 
L 50 0 
L 1716 4366 
z
" transform="scale(0.015625)"/>
       <path id="DejaVuSans-5d" d="M 1947 4863 
L 1947 -844 
L 622 -844 
L 622 -397 
L 1369 -397 
L 1369 4416 
L 622 4416 
L 622 4863 
L 1947 4863 
z
" transform="scale(0.015625)"/>
      </defs>
      <use xlink:href="#DejaVuSans-51"/>
      <use xlink:href="#DejaVuSans-20" x="78.710938"/>
      <use xlink:href="#DejaVuSans-5b" x="110.498047"/>
      <use xlink:href="#DejaVuSans-31" x="149.511719"/>
      <use xlink:href="#DejaVuSans-2f" x="213.134766"/>
      <use xlink:href="#DejaVuSans-c5" x="246.826172"/>
      <use xlink:href="#DejaVuSans-5d" x="315.234375"/>
     </g>
    </g>
   </g>
   <g id="matplotlib.axis_2">
    <g id="ytick_1">
     <g id="line2d_7">
      <defs>
       <path id="mee98ff7918" d="M 0 0 
L -3.5 0 
" style="stroke: #000000; stroke-width: 0.8"/>
      </defs>
      <g>
       <use xlink:href="#mee98ff7918" x="45.478125" y="182.250925" style="stroke: #000000; stroke-width: 0.8"/>
      </g>
     </g>
     <g id="text_8">
      <!-- $\mathdefault{10^{0}}$ -->
      <g transform="translate(20.878125 186.050144) scale(0.1 -0.1)">
       <use xlink:href="#DejaVuSans-31" transform="translate(0 0.765625)"/>
       <use xlink:href="#DejaVuSans-30" transform="translate(63.623047 0.765625)"/>
       <use xlink:href="#DejaVuSans-30" transform="translate(128.203125 39.046875) scale(0.7)"/>
      </g>
     </g>
    </g>
    <g id="ytick_2">
     <g id="line2d_8">
      <g>
       <use xlink:href="#mee98ff7918" x="45.478125" y="85.580497" style="stroke: #000000; stroke-width: 0.8"/>
      </g>
     </g>
     <g id="text_9">
      <!-- $\mathdefault{10^{1}}$ -->
      <g transform="translate(20.878125 89.379716) scale(0.1 -0.1)">
       <use xlink:href="#DejaVuSans-31" transform="translate(0 0.684375)"/>
       <use xlink:href="#DejaVuSans-30" transform="translate(63.623047 0.684375)"/>
       <use xlink:href="#DejaVuSans-31" transform="translate(128.203125 38.965625) scale(0.7)"/>
      </g>
     </g>
    </g>
    <g id="ytick_3">
     <g id="line2d_9">
      <defs>
       <path id="m7de205c089" d="M 0 0 
L -2 0 
" style="stroke: #000000; stroke-width: 0.6"/>
      </defs>
      <g>
       <use xlink:href="#m7de205c089" x="45.478125" y="232.797837" style="stroke: #000000; stroke-width: 0.6"/>
      </g>
     </g>
    </g>
    <g id="ytick_4">
     <g id="line2d_10">
      <g>
       <use xlink:href="#m7de205c089" x="45.478125" y="220.719956" style="stroke: #000000; stroke-width: 0.6"/>
      </g>
     </g>
    </g>
    <g id="ytick_5">
     <g id="line2d_11">
      <g>
       <use xlink:href="#m7de205c089" x="45.478125" y="211.351623" style="stroke: #000000; stroke-width: 0.6"/>
      </g>
     </g>
    </g>
    <g id="ytick_6">
     <g id="line2d_12">
      <g>
       <use xlink:href="#m7de205c089" x="45.478125" y="203.697138" style="stroke: #000000; stroke-width: 0.6"/>
      </g>
     </g>
    </g>
    <g id="ytick_7">
     <g id="line2d_13">
      <g>
       <use xlink:href="#m7de205c089" x="45.478125" y="197.225364" style="stroke: #000000; stroke-width: 0.6"/>
      </g>
     </g>
    </g>
    <g id="ytick_8">
     <g id="line2d_14">
      <g>
       <use xlink:href="#m7de205c089" x="45.478125" y="191.619257" style="stroke: #000000; stroke-width: 0.6"/>
      </g>
     </g>
    </g>
    <g id="ytick_9">
     <g id="line2d_15">
      <g>
       <use xlink:href="#m7de205c089" x="45.478125" y="186.674321" style="stroke: #000000; stroke-width: 0.6"/>
      </g>
     </g>
    </g>
    <g id="ytick_10">
     <g id="line2d_16">
      <g>
       <use xlink:href="#m7de205c089" x="45.478125" y="153.150227" style="stroke: #000000; stroke-width: 0.6"/>
      </g>
     </g>
    </g>
    <g id="ytick_11">
     <g id="line2d_17">
      <g>
       <use xlink:href="#m7de205c089" x="45.478125" y="136.127409" style="stroke: #000000; stroke-width: 0.6"/>
      </g>
     </g>
    </g>
    <g id="ytick_12">
     <g id="line2d_18">
      <g>
       <use xlink:href="#m7de205c089" x="45.478125" y="124.049528" style="stroke: #000000; stroke-width: 0.6"/>
      </g>
     </g>
    </g>
    <g id="ytick_13">
     <g id="line2d_19">
      <g>
       <use xlink:href="#m7de205c089" x="45.478125" y="114.681196" style="stroke: #000000; stroke-width: 0.6"/>
      </g>
     </g>
    </g>
    <g id="ytick_14">
     <g id="line2d_20">
      <g>
       <use xlink:href="#m7de205c089" x="45.478125" y="107.026711" style="stroke: #000000; stroke-width: 0.6"/>
      </g>
     </g>
    </g>
    <g id="ytick_15">
     <g id="line2d_21">
      <g>
       <use xlink:href="#m7de205c089" x="45.478125" y="100.554936" style="stroke: #000000; stroke-width: 0.6"/>
      </g>
     </g>
    </g>
    <g id="ytick_16">
     <g id="line2d_22">
      <g>
       <use xlink:href="#m7de205c089" x="45.478125" y="94.94883" style="stroke: #000000; stroke-width: 0.6"/>
      </g>
     </g>
    </g>
    <g id="ytick_17">
     <g id="line2d_23">
      <g>
       <use xlink:href="#m7de205c089" x="45.478125" y="90.003894" style="stroke: #000000; stroke-width: 0.6"/>
      </g>
     </g>
    </g>
    <g id="ytick_18">
     <g id="line2d_24">
      <g>
       <use xlink:href="#m7de205c089" x="45.478125" y="56.479799" style="stroke: #000000; stroke-width: 0.6"/>
      </g>
     </g>
    </g>
    <g id="ytick_19">
     <g id="line2d_25">
      <g>
       <use xlink:href="#m7de205c089" x="45.478125" y="39.456982" style="stroke: #000000; stroke-width: 0.6"/>
      </g>
     </g>
    </g>
    <g id="ytick_20">
     <g id="line2d_26">
      <g>
       <use xlink:href="#m7de205c089" x="45.478125" y="27.379101" style="stroke: #000000; stroke-width: 0.6"/>
      </g>
     </g>
    </g>
    <g id="ytick_21">
     <g id="line2d_27">
      <g>
       <use xlink:href="#m7de205c089" x="45.478125" y="18.010768" style="stroke: #000000; stroke-width: 0.6"/>
      </g>
     </g>
    </g>
    <g id="ytick_22">
     <g id="line2d_28">
      <g>
       <use xlink:href="#m7de205c089" x="45.478125" y="10.356283" style="stroke: #000000; stroke-width: 0.6"/>
      </g>
     </g>
    </g>
    <g id="text_10">
     <!-- [dimensionless] -->
     <g transform="translate(14.798438 163.903594) rotate(-90) scale(0.1 -0.1)">
      <defs>
       <path id="DejaVuSans-64" d="M 2906 2969 
L 2906 4863 
L 3481 4863 
L 3481 0 
L 2906 0 
L 2906 525 
Q 2725 213 2448 61 
Q 2172 -91 1784 -91 
Q 1150 -91 751 415 
Q 353 922 353 1747 
Q 353 2572 751 3078 
Q 1150 3584 1784 3584 
Q 2172 3584 2448 3432 
Q 2725 3281 2906 2969 
z
M 947 1747 
Q 947 1113 1208 752 
Q 1469 391 1925 391 
Q 2381 391 2643 752 
Q 2906 1113 2906 1747 
Q 2906 2381 2643 2742 
Q 2381 3103 1925 3103 
Q 1469 3103 1208 2742 
Q 947 2381 947 1747 
z
" transform="scale(0.015625)"/>
       <path id="DejaVuSans-69" d="M 603 3500 
L 1178 3500 
L 1178 0 
L 603 0 
L 603 3500 
z
M 603 4863 
L 1178 4863 
L 1178 4134 
L 603 4134 
L 603 4863 
z
" transform="scale(0.015625)"/>
       <path id="DejaVuSans-6d" d="M 3328 2828 
Q 3544 3216 3844 3400 
Q 4144 3584 4550 3584 
Q 5097 3584 5394 3201 
Q 5691 2819 5691 2113 
L 5691 0 
L 5113 0 
L 5113 2094 
Q 5113 2597 4934 2840 
Q 4756 3084 4391 3084 
Q 3944 3084 3684 2787 
Q 3425 2491 3425 1978 
L 3425 0 
L 2847 0 
L 2847 2094 
Q 2847 2600 2669 2842 
Q 2491 3084 2119 3084 
Q 1678 3084 1418 2786 
Q 1159 2488 1159 1978 
L 1159 0 
L 581 0 
L 581 3500 
L 1159 3500 
L 1159 2956 
Q 1356 3278 1631 3431 
Q 1906 3584 2284 3584 
Q 2666 3584 2933 3390 
Q 3200 3197 3328 2828 
z
" transform="scale(0.015625)"/>
       <path id="DejaVuSans-65" d="M 3597 1894 
L 3597 1613 
L 953 1613 
Q 991 1019 1311 708 
Q 1631 397 2203 397 
Q 2534 397 2845 478 
Q 3156 559 3463 722 
L 3463 178 
Q 3153 47 2828 -22 
Q 2503 -91 2169 -91 
Q 1331 -91 842 396 
Q 353 884 353 1716 
Q 353 2575 817 3079 
Q 1281 3584 2069 3584 
Q 2775 3584 3186 3129 
Q 3597 2675 3597 1894 
z
M 3022 2063 
Q 3016 2534 2758 2815 
Q 2500 3097 2075 3097 
Q 1594 3097 1305 2825 
Q 1016 2553 972 2059 
L 3022 2063 
z
" transform="scale(0.015625)"/>
       <path id="DejaVuSans-6e" d="M 3513 2113 
L 3513 0 
L 2938 0 
L 2938 2094 
Q 2938 2591 2744 2837 
Q 2550 3084 2163 3084 
Q 1697 3084 1428 2787 
Q 1159 2491 1159 1978 
L 1159 0 
L 581 0 
L 581 3500 
L 1159 3500 
L 1159 2956 
Q 1366 3272 1645 3428 
Q 1925 3584 2291 3584 
Q 2894 3584 3203 3211 
Q 3513 2838 3513 2113 
z
" transform="scale(0.015625)"/>
       <path id="DejaVuSans-73" d="M 2834 3397 
L 2834 2853 
Q 2591 2978 2328 3040 
Q 2066 3103 1784 3103 
Q 1356 3103 1142 2972 
Q 928 2841 928 2578 
Q 928 2378 1081 2264 
Q 1234 2150 1697 2047 
L 1894 2003 
Q 2506 1872 2764 1633 
Q 3022 1394 3022 966 
Q 3022 478 2636 193 
Q 2250 -91 1575 -91 
Q 1294 -91 989 -36 
Q 684 19 347 128 
L 347 722 
Q 666 556 975 473 
Q 1284 391 1588 391 
Q 1994 391 2212 530 
Q 2431 669 2431 922 
Q 2431 1156 2273 1281 
Q 2116 1406 1581 1522 
L 1381 1569 
Q 847 1681 609 1914 
Q 372 2147 372 2553 
Q 372 3047 722 3315 
Q 1072 3584 1716 3584 
Q 2034 3584 2315 3537 
Q 2597 3491 2834 3397 
z
" transform="scale(0.015625)"/>
       <path id="DejaVuSans-6f" d="M 1959 3097 
Q 1497 3097 1228 2736 
Q 959 2375 959 1747 
Q 959 1119 1226 758 
Q 1494 397 1959 397 
Q 2419 397 2687 759 
Q 2956 1122 2956 1747 
Q 2956 2369 2687 2733 
Q 2419 3097 1959 3097 
z
M 1959 3584 
Q 2709 3584 3137 3096 
Q 3566 2609 3566 1747 
Q 3566 888 3137 398 
Q 2709 -91 1959 -91 
Q 1206 -91 779 398 
Q 353 888 353 1747 
Q 353 2609 779 3096 
Q 1206 3584 1959 3584 
z
" transform="scale(0.015625)"/>
       <path id="DejaVuSans-6c" d="M 603 4863 
L 1178 4863 
L 1178 0 
L 603 0 
L 603 4863 
z
" transform="scale(0.015625)"/>
      </defs>
      <use xlink:href="#DejaVuSans-5b"/>
      <use xlink:href="#DejaVuSans-64" x="39.013672"/>
      <use xlink:href="#DejaVuSans-69" x="102.490234"/>
      <use xlink:href="#DejaVuSans-6d" x="130.273438"/>
      <use xlink:href="#DejaVuSans-65" x="227.685547"/>
      <use xlink:href="#DejaVuSans-6e" x="289.208984"/>
      <use xlink:href="#DejaVuSans-73" x="352.587891"/>
      <use xlink:href="#DejaVuSans-69" x="404.6875"/>
      <use xlink:href="#DejaVuSans-6f" x="432.470703"/>
      <use xlink:href="#DejaVuSans-6e" x="493.652344"/>
      <use xlink:href="#DejaVuSans-6c" x="557.03125"/>
      <use xlink:href="#DejaVuSans-65" x="584.814453"/>
      <use xlink:href="#DejaVuSans-73" x="646.337891"/>
      <use xlink:href="#DejaVuSans-73" x="698.4375"/>
      <use xlink:href="#DejaVuSans-5d" x="750.537109"/>
     </g>
    </g>
   </g>
   <g id="patch_3">
    <path d="M 45.478125 241.6525 
L 45.478125 7.2 
" style="fill: none; stroke: #000000; stroke-width: 0.8; stroke-linejoin: miter; stroke-linecap: square"/>
   </g>
   <g id="patch_4">
    <path d="M 416.58544 241.6525 
L 416.58544 7.2 
" style="fill: none; stroke: #000000; stroke-width: 0.8; stroke-linejoin: miter; stroke-linecap: square"/>
   </g>
   <g id="patch_5">
    <path d="M 45.478125 241.6525 
L 416.58544 241.6525 
" style="fill: none; stroke: #000000; stroke-width: 0.8; stroke-linejoin: miter; stroke-linecap: square"/>
   </g>
   <g id="patch_6">
    <path d="M 45.478125 7.2 
L 416.58544 7.2 
" style="fill: none; stroke: #000000; stroke-width: 0.8; stroke-linejoin: miter; stroke-linecap: square"/>
   </g>
   <g id="legend_1">
    <g id="patch_7">
     <path d="M 329.844815 59.234375 
L 409.58544 59.234375 
Q 411.58544 59.234375 411.58544 57.234375 
L 411.58544 14.2 
Q 411.58544 12.2 409.58544 12.2 
L 329.844815 12.2 
Q 327.844815 12.2 327.844815 14.2 
L 327.844815 57.234375 
Q 327.844815 59.234375 329.844815 59.234375 
z
" style="fill: #ffffff; opacity: 0.8; stroke: #cccccc; stroke-linejoin: miter"/>
    </g>
    <g id="line2d_29">
     <defs>
      <path id="m0babcc4cce" d="M 0 3 
C 0.795609 3 1.55874 2.683901 2.12132 2.12132 
C 2.683901 1.55874 3 0.795609 3 0 
C 3 -0.795609 2.683901 -1.55874 2.12132 -2.12132 
C 1.55874 -2.683901 0.795609 -3 0 -3 
C -0.795609 -3 -1.55874 -2.683901 -2.12132 -2.12132 
C -2.683901 -1.55874 -3 -0.795609 -3 0 
C -3 0.795609 -2.683901 1.55874 -2.12132 2.12132 
C -1.55874 2.683901 -0.795609 3 0 3 
z
" style="stroke: #a9a9a9"/>
     </defs>
     <g>
      <use xlink:href="#m0babcc4cce" x="341.844815" y="20.298438" style="fill: #a9a9a9; stroke: #a9a9a9"/>
     </g>
    </g>
    <g id="text_11">
     <!-- reference -->
     <g transform="translate(359.844815 23.798438) scale(0.1 -0.1)">
      <defs>
       <path id="DejaVuSans-72" d="M 2631 2963 
Q 2534 3019 2420 3045 
Q 2306 3072 2169 3072 
Q 1681 3072 1420 2755 
Q 1159 2438 1159 1844 
L 1159 0 
L 581 0 
L 581 3500 
L 1159 3500 
L 1159 2956 
Q 1341 3275 1631 3429 
Q 1922 3584 2338 3584 
Q 2397 3584 2469 3576 
Q 2541 3569 2628 3553 
L 2631 2963 
z
" transform="scale(0.015625)"/>
       <path id="DejaVuSans-66" d="M 2375 4863 
L 2375 4384 
L 1825 4384 
Q 1516 4384 1395 4259 
Q 1275 4134 1275 3809 
L 1275 3500 
L 2222 3500 
L 2222 3053 
L 1275 3053 
L 1275 0 
L 697 0 
L 697 3053 
L 147 3053 
L 147 3500 
L 697 3500 
L 697 3744 
Q 697 4328 969 4595 
Q 1241 4863 1831 4863 
L 2375 4863 
z
" transform="scale(0.015625)"/>
       <path id="DejaVuSans-63" d="M 3122 3366 
L 3122 2828 
Q 2878 2963 2633 3030 
Q 2388 3097 2138 3097 
Q 1578 3097 1268 2742 
Q 959 2388 959 1747 
Q 959 1106 1268 751 
Q 1578 397 2138 397 
Q 2388 397 2633 464 
Q 2878 531 3122 666 
L 3122 134 
Q 2881 22 2623 -34 
Q 2366 -91 2075 -91 
Q 1284 -91 818 406 
Q 353 903 353 1747 
Q 353 2603 823 3093 
Q 1294 3584 2113 3584 
Q 2378 3584 2631 3529 
Q 2884 3475 3122 3366 
z
" transform="scale(0.015625)"/>
      </defs>
      <use xlink:href="#DejaVuSans-72"/>
      <use xlink:href="#DejaVuSans-65" x="38.863281"/>
      <use xlink:href="#DejaVuSans-66" x="100.386719"/>
      <use xlink:href="#DejaVuSans-65" x="135.591797"/>
      <use xlink:href="#DejaVuSans-72" x="197.115234"/>
      <use xlink:href="#DejaVuSans-65" x="235.978516"/>
      <use xlink:href="#DejaVuSans-6e" x="297.501953"/>
      <use xlink:href="#DejaVuSans-63" x="360.880859"/>
      <use xlink:href="#DejaVuSans-65" x="415.861328"/>
     </g>
    </g>
    <g id="line2d_30">
     <path d="M 331.844815 34.976563 
L 331.844815 34.976563 
L 341.844815 34.976563 
L 341.844815 34.976563 
L 351.844815 34.976563 
" style="fill: none; stroke: #1f77b4; stroke-width: 1.5; stroke-linecap: square"/>
    </g>
    <g id="text_12">
     <!-- one run -->
     <g transform="translate(359.844815 38.476563) scale(0.1 -0.1)">
      <defs>
       <path id="DejaVuSans-75" d="M 544 1381 
L 544 3500 
L 1119 3500 
L 1119 1403 
Q 1119 906 1312 657 
Q 1506 409 1894 409 
Q 2359 409 2629 706 
Q 2900 1003 2900 1516 
L 2900 3500 
L 3475 3500 
L 3475 0 
L 2900 0 
L 2900 538 
Q 2691 219 2414 64 
Q 2138 -91 1772 -91 
Q 1169 -91 856 284 
Q 544 659 544 1381 
z
M 1991 3584 
L 1991 3584 
z
" transform="scale(0.015625)"/>
      </defs>
      <use xlink:href="#DejaVuSans-6f"/>
      <use xlink:href="#DejaVuSans-6e" x="61.181641"/>
      <use xlink:href="#DejaVuSans-65" x="124.560547"/>
      <use xlink:href="#DejaVuSans-20" x="186.083984"/>
      <use xlink:href="#DejaVuSans-72" x="217.871094"/>
      <use xlink:href="#DejaVuSans-75" x="258.984375"/>
      <use xlink:href="#DejaVuSans-6e" x="322.363281"/>
     </g>
    </g>
    <g id="line2d_31">
     <path d="M 331.844815 49.654688 
L 331.844815 49.654688 
L 341.844815 49.654688 
L 341.844815 49.654688 
L 351.844815 49.654688 
" style="fill: none; stroke: #ff7f0e; stroke-width: 1.5; stroke-linecap: square"/>
    </g>
    <g id="text_13">
     <!-- two runs -->
     <g transform="translate(359.844815 53.154688) scale(0.1 -0.1)">
      <defs>
       <path id="DejaVuSans-74" d="M 1172 4494 
L 1172 3500 
L 2356 3500 
L 2356 3053 
L 1172 3053 
L 1172 1153 
Q 1172 725 1289 603 
Q 1406 481 1766 481 
L 2356 481 
L 2356 0 
L 1766 0 
Q 1100 0 847 248 
Q 594 497 594 1153 
L 594 3053 
L 172 3053 
L 172 3500 
L 594 3500 
L 594 4494 
L 1172 4494 
z
" transform="scale(0.015625)"/>
       <path id="DejaVuSans-77" d="M 269 3500 
L 844 3500 
L 1563 769 
L 2278 3500 
L 2956 3500 
L 3675 769 
L 4391 3500 
L 4966 3500 
L 4050 0 
L 3372 0 
L 2619 2869 
L 1863 0 
L 1184 0 
L 269 3500 
z
" transform="scale(0.015625)"/>
      </defs>
      <use xlink:href="#DejaVuSans-74"/>
      <use xlink:href="#DejaVuSans-77" x="39.208984"/>
      <use xlink:href="#DejaVuSans-6f" x="120.996094"/>
      <use xlink:href="#DejaVuSans-20" x="182.177734"/>
      <use xlink:href="#DejaVuSans-72" x="213.964844"/>
      <use xlink:href="#DejaVuSans-75" x="255.078125"/>
      <use xlink:href="#DejaVuSans-6e" x="318.457031"/>
      <use xlink:href="#DejaVuSans-73" x="381.835938"/>
     </g>
    </g>
   </g>
   <g id="line2d_32">
    <g clip-path="url(#pbc61937a1b)">
     <use xlink:href="#m0babcc4cce" x="62.346639" y="17.856932" style="fill: #a9a9a9; stroke: #a9a9a9"/>
     <use xlink:href="#m0babcc4cce" x="62.36331" y="17.85826" style="fill: #a9a9a9; stroke: #a9a9a9"/>
     <use xlink:href="#m0babcc4cce" x="62.380767" y="17.859715" style="fill: #a9a9a9; stroke: #a9a9a9"/>
     <use xlink:href="#m0babcc4cce" x="62.399046" y="17.861311" style="fill: #a9a9a9; stroke: #a9a9a9"/>
     <use xlink:href="#m0babcc4cce" x="62.418187" y="17.863061" style="fill: #a9a9a9; stroke: #a9a9a9"/>
     <use xlink:href="#m0babcc4cce" x="62.43823" y="17.86498" style="fill: #a9a9a9; stroke: #a9a9a9"/>
     <use xlink:href="#m0babcc4cce" x="62.459217" y="17.867084" style="fill: #a9a9a9; stroke: #a9a9a9"/>
     <use xlink:href="#m0babcc4cce" x="62.481193" y="17.86939" style="fill: #a9a9a9; stroke: #a9a9a9"/>
     <use xlink:href="#m0babcc4cce" x="62.504205" y="17.871919" style="fill: #a9a9a9; stroke: #a9a9a9"/>
     <use xlink:href="#m0babcc4cce" x="62.528302" y="17.874693" style="fill: #a9a9a9; stroke: #a9a9a9"/>
     <use xlink:href="#m0babcc4cce" x="62.553534" y="17.877733" style="fill: #a9a9a9; stroke: #a9a9a9"/>
     <use xlink:href="#m0babcc4cce" x="62.579955" y="17.881067" style="fill: #a9a9a9; stroke: #a9a9a9"/>
     <use xlink:href="#m0babcc4cce" x="62.607621" y="17.884722" style="fill: #a9a9a9; stroke: #a9a9a9"/>
     <use xlink:href="#m0babcc4cce" x="62.636591" y="17.888729" style="fill: #a9a9a9; stroke: #a9a9a9"/>
     <use xlink:href="#m0babcc4cce" x="62.666926" y="17.893123" style="fill: #a9a9a9; stroke: #a9a9a9"/>
     <use xlink:href="#m0babcc4cce" x="62.698691" y="17.897941" style="fill: #a9a9a9; stroke: #a9a9a9"/>
     <use xlink:href="#m0babcc4cce" x="62.731953" y="17.903223" style="fill: #a9a9a9; stroke: #a9a9a9"/>
     <use xlink:href="#m0babcc4cce" x="62.766782" y="17.909014" style="fill: #a9a9a9; stroke: #a9a9a9"/>
     <use xlink:href="#m0babcc4cce" x="62.803253" y="17.915363" style="fill: #a9a9a9; stroke: #a9a9a9"/>
     <use xlink:href="#m0babcc4cce" x="62.841443" y="17.922325" style="fill: #a9a9a9; stroke: #a9a9a9"/>
     <use xlink:href="#m0babcc4cce" x="62.881432" y="17.929957" style="fill: #a9a9a9; stroke: #a9a9a9"/>
     <use xlink:href="#m0babcc4cce" x="62.923306" y="17.938325" style="fill: #a9a9a9; stroke: #a9a9a9"/>
     <use xlink:href="#m0babcc4cce" x="62.967153" y="17.947498" style="fill: #a9a9a9; stroke: #a9a9a9"/>
     <use xlink:href="#m0babcc4cce" x="63.013066" y="17.957556" style="fill: #a9a9a9; stroke: #a9a9a9"/>
     <use xlink:href="#m0babcc4cce" x="63.061144" y="17.968583" style="fill: #a9a9a9; stroke: #a9a9a9"/>
     <use xlink:href="#m0babcc4cce" x="63.111487" y="17.980671" style="fill: #a9a9a9; stroke: #a9a9a9"/>
     <use xlink:href="#m0babcc4cce" x="63.164202" y="17.993924" style="fill: #a9a9a9; stroke: #a9a9a9"/>
     <use xlink:href="#m0babcc4cce" x="63.219402" y="18.008452" style="fill: #a9a9a9; stroke: #a9a9a9"/>
     <use xlink:href="#m0babcc4cce" x="63.277203" y="18.024379" style="fill: #a9a9a9; stroke: #a9a9a9"/>
     <use xlink:href="#m0babcc4cce" x="63.337728" y="18.041839" style="fill: #a9a9a9; stroke: #a9a9a9"/>
     <use xlink:href="#m0babcc4cce" x="63.401105" y="18.060979" style="fill: #a9a9a9; stroke: #a9a9a9"/>
     <use xlink:href="#m0babcc4cce" x="63.467469" y="18.08196" style="fill: #a9a9a9; stroke: #a9a9a9"/>
     <use xlink:href="#m0babcc4cce" x="63.536961" y="18.104958" style="fill: #a9a9a9; stroke: #a9a9a9"/>
     <use xlink:href="#m0babcc4cce" x="63.609727" y="18.130168" style="fill: #a9a9a9; stroke: #a9a9a9"/>
     <use xlink:href="#m0babcc4cce" x="63.685923" y="18.1578" style="fill: #a9a9a9; stroke: #a9a9a9"/>
     <use xlink:href="#m0babcc4cce" x="63.76571" y="18.188086" style="fill: #a9a9a9; stroke: #a9a9a9"/>
     <use xlink:href="#m0babcc4cce" x="63.849256" y="18.221282" style="fill: #a9a9a9; stroke: #a9a9a9"/>
     <use xlink:href="#m0babcc4cce" x="63.93674" y="18.257663" style="fill: #a9a9a9; stroke: #a9a9a9"/>
     <use xlink:href="#m0babcc4cce" x="64.028347" y="18.297535" style="fill: #a9a9a9; stroke: #a9a9a9"/>
     <use xlink:href="#m0babcc4cce" x="64.12427" y="18.34123" style="fill: #a9a9a9; stroke: #a9a9a9"/>
     <use xlink:href="#m0babcc4cce" x="64.224715" y="18.389112" style="fill: #a9a9a9; stroke: #a9a9a9"/>
     <use xlink:href="#m0babcc4cce" x="64.329893" y="18.441579" style="fill: #a9a9a9; stroke: #a9a9a9"/>
     <use xlink:href="#m0babcc4cce" x="64.440027" y="18.499068" style="fill: #a9a9a9; stroke: #a9a9a9"/>
     <use xlink:href="#m0babcc4cce" x="64.555352" y="18.562055" style="fill: #a9a9a9; stroke: #a9a9a9"/>
     <use xlink:href="#m0babcc4cce" x="64.676111" y="18.631059" style="fill: #a9a9a9; stroke: #a9a9a9"/>
     <use xlink:href="#m0babcc4cce" x="64.802562" y="18.70665" style="fill: #a9a9a9; stroke: #a9a9a9"/>
     <use xlink:href="#m0babcc4cce" x="64.934971" y="18.789448" style="fill: #a9a9a9; stroke: #a9a9a9"/>
     <use xlink:href="#m0babcc4cce" x="65.073621" y="18.880133" style="fill: #a9a9a9; stroke: #a9a9a9"/>
     <use xlink:href="#m0babcc4cce" x="65.218805" y="18.979445" style="fill: #a9a9a9; stroke: #a9a9a9"/>
     <use xlink:href="#m0babcc4cce" x="65.370831" y="19.088192" style="fill: #a9a9a9; stroke: #a9a9a9"/>
     <use xlink:href="#m0babcc4cce" x="65.530021" y="19.207254" style="fill: #a9a9a9; stroke: #a9a9a9"/>
     <use xlink:href="#m0babcc4cce" x="65.696713" y="19.337591" style="fill: #a9a9a9; stroke: #a9a9a9"/>
     <use xlink:href="#m0babcc4cce" x="65.871261" y="19.480249" style="fill: #a9a9a9; stroke: #a9a9a9"/>
     <use xlink:href="#m0babcc4cce" x="66.054034" y="19.636365" style="fill: #a9a9a9; stroke: #a9a9a9"/>
     <use xlink:href="#m0babcc4cce" x="66.245421" y="19.807179" style="fill: #a9a9a9; stroke: #a9a9a9"/>
     <use xlink:href="#m0babcc4cce" x="66.445828" y="19.994033" style="fill: #a9a9a9; stroke: #a9a9a9"/>
     <use xlink:href="#m0babcc4cce" x="66.655678" y="20.198389" style="fill: #a9a9a9; stroke: #a9a9a9"/>
     <use xlink:href="#m0babcc4cce" x="66.875419" y="20.421832" style="fill: #a9a9a9; stroke: #a9a9a9"/>
     <use xlink:href="#m0babcc4cce" x="67.105515" y="20.666076" style="fill: #a9a9a9; stroke: #a9a9a9"/>
     <use xlink:href="#m0babcc4cce" x="67.346454" y="20.93298" style="fill: #a9a9a9; stroke: #a9a9a9"/>
     <use xlink:href="#m0babcc4cce" x="67.598748" y="21.22455" style="fill: #a9a9a9; stroke: #a9a9a9"/>
     <use xlink:href="#m0babcc4cce" x="67.862932" y="21.542953" style="fill: #a9a9a9; stroke: #a9a9a9"/>
     <use xlink:href="#m0babcc4cce" x="68.139566" y="21.890521" style="fill: #a9a9a9; stroke: #a9a9a9"/>
     <use xlink:href="#m0babcc4cce" x="68.429236" y="22.269764" style="fill: #a9a9a9; stroke: #a9a9a9"/>
     <use xlink:href="#m0babcc4cce" x="68.732558" y="22.683373" style="fill: #a9a9a9; stroke: #a9a9a9"/>
     <use xlink:href="#m0babcc4cce" x="69.050174" y="23.134229" style="fill: #a9a9a9; stroke: #a9a9a9"/>
     <use xlink:href="#m0babcc4cce" x="69.382759" y="23.625411" style="fill: #a9a9a9; stroke: #a9a9a9"/>
     <use xlink:href="#m0babcc4cce" x="69.731016" y="24.160194" style="fill: #a9a9a9; stroke: #a9a9a9"/>
     <use xlink:href="#m0babcc4cce" x="70.095686" y="24.742054" style="fill: #a9a9a9; stroke: #a9a9a9"/>
     <use xlink:href="#m0babcc4cce" x="70.477542" y="25.374667" style="fill: #a9a9a9; stroke: #a9a9a9"/>
     <use xlink:href="#m0babcc4cce" x="70.877393" y="26.061901" style="fill: #a9a9a9; stroke: #a9a9a9"/>
     <use xlink:href="#m0babcc4cce" x="71.296087" y="26.807813" style="fill: #a9a9a9; stroke: #a9a9a9"/>
     <use xlink:href="#m0babcc4cce" x="71.734513" y="27.616626" style="fill: #a9a9a9; stroke: #a9a9a9"/>
     <use xlink:href="#m0babcc4cce" x="72.1936" y="28.492719" style="fill: #a9a9a9; stroke: #a9a9a9"/>
     <use xlink:href="#m0babcc4cce" x="72.674323" y="29.440592" style="fill: #a9a9a9; stroke: #a9a9a9"/>
     <use xlink:href="#m0babcc4cce" x="73.1777" y="30.464834" style="fill: #a9a9a9; stroke: #a9a9a9"/>
     <use xlink:href="#m0babcc4cce" x="73.7048" y="31.570083" style="fill: #a9a9a9; stroke: #a9a9a9"/>
     <use xlink:href="#m0babcc4cce" x="74.25674" y="32.760968" style="fill: #a9a9a9; stroke: #a9a9a9"/>
     <use xlink:href="#m0babcc4cce" x="74.83469" y="34.042046" style="fill: #a9a9a9; stroke: #a9a9a9"/>
     <use xlink:href="#m0babcc4cce" x="75.439878" y="35.417733" style="fill: #a9a9a9; stroke: #a9a9a9"/>
     <use xlink:href="#m0babcc4cce" x="76.073586" y="36.892216" style="fill: #a9a9a9; stroke: #a9a9a9"/>
     <use xlink:href="#m0babcc4cce" x="76.737158" y="38.469359" style="fill: #a9a9a9; stroke: #a9a9a9"/>
     <use xlink:href="#m0babcc4cce" x="77.432002" y="40.152605" style="fill: #a9a9a9; stroke: #a9a9a9"/>
     <use xlink:href="#m0babcc4cce" x="78.159591" y="41.944866" style="fill: #a9a9a9; stroke: #a9a9a9"/>
     <use xlink:href="#m0babcc4cce" x="78.921469" y="43.848416" style="fill: #a9a9a9; stroke: #a9a9a9"/>
     <use xlink:href="#m0babcc4cce" x="79.719252" y="45.864783" style="fill: #a9a9a9; stroke: #a9a9a9"/>
     <use xlink:href="#m0babcc4cce" x="80.554631" y="47.994657" style="fill: #a9a9a9; stroke: #a9a9a9"/>
     <use xlink:href="#m0babcc4cce" x="81.429379" y="50.237805" style="fill: #a9a9a9; stroke: #a9a9a9"/>
     <use xlink:href="#m0babcc4cce" x="82.34535" y="52.593013" style="fill: #a9a9a9; stroke: #a9a9a9"/>
     <use xlink:href="#m0babcc4cce" x="83.304488" y="55.058063" style="fill: #a9a9a9; stroke: #a9a9a9"/>
     <use xlink:href="#m0babcc4cce" x="84.308826" y="57.629738" style="fill: #a9a9a9; stroke: #a9a9a9"/>
     <use xlink:href="#m0babcc4cce" x="85.360496" y="60.303872" style="fill: #a9a9a9; stroke: #a9a9a9"/>
     <use xlink:href="#m0babcc4cce" x="86.461726" y="63.075443" style="fill: #a9a9a9; stroke: #a9a9a9"/>
     <use xlink:href="#m0babcc4cce" x="87.614854" y="65.938701" style="fill: #a9a9a9; stroke: #a9a9a9"/>
     <use xlink:href="#m0babcc4cce" x="88.822324" y="68.887329" style="fill: #a9a9a9; stroke: #a9a9a9"/>
     <use xlink:href="#m0babcc4cce" x="90.086698" y="71.914623" style="fill: #a9a9a9; stroke: #a9a9a9"/>
     <use xlink:href="#m0babcc4cce" x="91.410657" y="75.013682" style="fill: #a9a9a9; stroke: #a9a9a9"/>
     <use xlink:href="#m0babcc4cce" x="92.79701" y="78.177587" style="fill: #a9a9a9; stroke: #a9a9a9"/>
     <use xlink:href="#m0babcc4cce" x="94.248697" y="81.399557" style="fill: #a9a9a9; stroke: #a9a9a9"/>
     <use xlink:href="#m0babcc4cce" x="95.768796" y="84.673081" style="fill: #a9a9a9; stroke: #a9a9a9"/>
     <use xlink:href="#m0babcc4cce" x="97.360532" y="87.992002" style="fill: #a9a9a9; stroke: #a9a9a9"/>
     <use xlink:href="#m0babcc4cce" x="99.027281" y="91.350572" style="fill: #a9a9a9; stroke: #a9a9a9"/>
     <use xlink:href="#m0babcc4cce" x="100.772578" y="94.743469" style="fill: #a9a9a9; stroke: #a9a9a9"/>
     <use xlink:href="#m0babcc4cce" x="102.600124" y="98.165784" style="fill: #a9a9a9; stroke: #a9a9a9"/>
     <use xlink:href="#m0babcc4cce" x="104.513796" y="101.612998" style="fill: #a9a9a9; stroke: #a9a9a9"/>
     <use xlink:href="#m0babcc4cce" x="106.517652" y="105.080937" style="fill: #a9a9a9; stroke: #a9a9a9"/>
     <use xlink:href="#m0babcc4cce" x="108.615942" y="108.565729" style="fill: #a9a9a9; stroke: #a9a9a9"/>
     <use xlink:href="#m0babcc4cce" x="110.813118" y="112.063756" style="fill: #a9a9a9; stroke: #a9a9a9"/>
     <use xlink:href="#m0babcc4cce" x="113.113838" y="115.571617" style="fill: #a9a9a9; stroke: #a9a9a9"/>
     <use xlink:href="#m0babcc4cce" x="115.522983" y="119.086081" style="fill: #a9a9a9; stroke: #a9a9a9"/>
     <use xlink:href="#m0babcc4cce" x="118.045663" y="122.604057" style="fill: #a9a9a9; stroke: #a9a9a9"/>
     <use xlink:href="#m0babcc4cce" x="120.687227" y="126.122559" style="fill: #a9a9a9; stroke: #a9a9a9"/>
     <use xlink:href="#m0babcc4cce" x="123.453278" y="129.638679" style="fill: #a9a9a9; stroke: #a9a9a9"/>
     <use xlink:href="#m0babcc4cce" x="126.349684" y="133.149562" style="fill: #a9a9a9; stroke: #a9a9a9"/>
     <use xlink:href="#m0babcc4cce" x="129.382586" y="136.652383" style="fill: #a9a9a9; stroke: #a9a9a9"/>
     <use xlink:href="#m0babcc4cce" x="132.558418" y="140.14433" style="fill: #a9a9a9; stroke: #a9a9a9"/>
     <use xlink:href="#m0babcc4cce" x="135.883916" y="143.62258" style="fill: #a9a9a9; stroke: #a9a9a9"/>
     <use xlink:href="#m0babcc4cce" x="139.366132" y="147.084292" style="fill: #a9a9a9; stroke: #a9a9a9"/>
     <use xlink:href="#m0babcc4cce" x="143.012453" y="150.526588" style="fill: #a9a9a9; stroke: #a9a9a9"/>
     <use xlink:href="#m0babcc4cce" x="146.830611" y="153.946544" style="fill: #a9a9a9; stroke: #a9a9a9"/>
     <use xlink:href="#m0babcc4cce" x="150.828706" y="157.341183" style="fill: #a9a9a9; stroke: #a9a9a9"/>
     <use xlink:href="#m0babcc4cce" x="155.015216" y="160.707464" style="fill: #a9a9a9; stroke: #a9a9a9"/>
     <use xlink:href="#m0babcc4cce" x="159.399021" y="164.042285" style="fill: #a9a9a9; stroke: #a9a9a9"/>
     <use xlink:href="#m0babcc4cce" x="163.989419" y="167.342476" style="fill: #a9a9a9; stroke: #a9a9a9"/>
     <use xlink:href="#m0babcc4cce" x="168.796146" y="170.604803" style="fill: #a9a9a9; stroke: #a9a9a9"/>
     <use xlink:href="#m0babcc4cce" x="173.829396" y="173.825973" style="fill: #a9a9a9; stroke: #a9a9a9"/>
     <use xlink:href="#m0babcc4cce" x="179.099845" y="177.00264" style="fill: #a9a9a9; stroke: #a9a9a9"/>
     <use xlink:href="#m0babcc4cce" x="184.618672" y="180.131418" style="fill: #a9a9a9; stroke: #a9a9a9"/>
     <use xlink:href="#m0babcc4cce" x="190.39758" y="183.208894" style="fill: #a9a9a9; stroke: #a9a9a9"/>
     <use xlink:href="#m0babcc4cce" x="196.448828" y="186.231644" style="fill: #a9a9a9; stroke: #a9a9a9"/>
     <use xlink:href="#m0babcc4cce" x="202.785249" y="189.196259" style="fill: #a9a9a9; stroke: #a9a9a9"/>
     <use xlink:href="#m0babcc4cce" x="209.420283" y="192.099364" style="fill: #a9a9a9; stroke: #a9a9a9"/>
     <use xlink:href="#m0babcc4cce" x="216.368002" y="194.937648" style="fill: #a9a9a9; stroke: #a9a9a9"/>
     <use xlink:href="#m0babcc4cce" x="223.643141" y="197.707891" style="fill: #a9a9a9; stroke: #a9a9a9"/>
     <use xlink:href="#m0babcc4cce" x="231.261132" y="200.407002" style="fill: #a9a9a9; stroke: #a9a9a9"/>
     <use xlink:href="#m0babcc4cce" x="239.238131" y="203.032043" style="fill: #a9a9a9; stroke: #a9a9a9"/>
     <use xlink:href="#m0babcc4cce" x="247.591056" y="205.58027" style="fill: #a9a9a9; stroke: #a9a9a9"/>
     <use xlink:href="#m0babcc4cce" x="256.337625" y="208.049165" style="fill: #a9a9a9; stroke: #a9a9a9"/>
     <use xlink:href="#m0babcc4cce" x="265.496388" y="210.436466" style="fill: #a9a9a9; stroke: #a9a9a9"/>
     <use xlink:href="#m0babcc4cce" x="275.086771" y="212.740202" style="fill: #a9a9a9; stroke: #a9a9a9"/>
     <use xlink:href="#m0babcc4cce" x="285.129113" y="214.958717" style="fill: #a9a9a9; stroke: #a9a9a9"/>
     <use xlink:href="#m0babcc4cce" x="295.644715" y="217.090695" style="fill: #a9a9a9; stroke: #a9a9a9"/>
     <use xlink:href="#m0babcc4cce" x="306.655879" y="219.135182" style="fill: #a9a9a9; stroke: #a9a9a9"/>
     <use xlink:href="#m0babcc4cce" x="318.185959" y="221.091595" style="fill: #a9a9a9; stroke: #a9a9a9"/>
     <use xlink:href="#m0babcc4cce" x="330.259409" y="222.959731" style="fill: #a9a9a9; stroke: #a9a9a9"/>
     <use xlink:href="#m0babcc4cce" x="342.901838" y="224.739773" style="fill: #a9a9a9; stroke: #a9a9a9"/>
     <use xlink:href="#m0babcc4cce" x="356.140059" y="226.432278" style="fill: #a9a9a9; stroke: #a9a9a9"/>
     <use xlink:href="#m0babcc4cce" x="370.002149" y="228.038173" style="fill: #a9a9a9; stroke: #a9a9a9"/>
     <use xlink:href="#m0babcc4cce" x="384.517509" y="229.558735" style="fill: #a9a9a9; stroke: #a9a9a9"/>
     <use xlink:href="#m0babcc4cce" x="399.716926" y="230.995568" style="fill: #a9a9a9; stroke: #a9a9a9"/>
    </g>
   </g>
   <g id="line2d_33">
    <path d="M 68.74737 23.679867 
L 70.70617 23.679867 
L 70.70617 24.492398 
L 72.664969 24.492398 
L 72.664969 26.99836 
L 74.623768 26.99836 
L 74.623768 30.537179 
L 76.582568 30.537179 
L 76.582568 34.335904 
L 78.541367 34.335904 
L 78.541367 38.481365 
L 80.500167 38.481365 
L 80.500167 42.872927 
L 82.458966 42.872927 
L 82.458966 47.520177 
L 84.417766 47.520177 
L 84.417766 52.106259 
L 86.376565 52.106259 
L 86.376565 56.995608 
L 88.335364 56.995608 
L 88.335364 61.506928 
L 90.294164 61.506928 
L 90.294164 66.394509 
L 92.252963 66.394509 
L 92.252963 70.287497 
L 94.211763 70.287497 
L 94.211763 74.818375 
L 96.170562 74.818375 
L 96.170562 79.055163 
L 98.129361 79.055163 
L 98.129361 82.776294 
L 100.088161 82.776294 
L 100.088161 86.412565 
L 102.04696 86.412565 
L 102.04696 90.470789 
L 104.00576 90.470789 
L 104.00576 94.12795 
L 105.964559 94.12795 
L 105.964559 97.514848 
L 107.923358 97.514848 
L 107.923358 100.319843 
L 109.882158 100.319843 
L 109.882158 104.391373 
L 111.840957 104.391373 
L 111.840957 106.925342 
L 113.799757 106.925342 
L 113.799757 109.499258 
L 115.758556 109.499258 
L 115.758556 112.35599 
L 117.717356 112.35599 
L 117.717356 115.558485 
L 119.676155 115.558485 
L 119.676155 118.205516 
L 121.634954 118.205516 
L 121.634954 121.25414 
L 123.593754 121.25414 
L 123.593754 123.30862 
L 125.552553 123.30862 
L 125.552553 125.543784 
L 127.511353 125.543784 
L 127.511353 127.812304 
L 129.470152 127.812304 
L 129.470152 130.268393 
L 131.428951 130.268393 
L 131.428951 132.453299 
L 133.387751 132.453299 
L 133.387751 135.045388 
L 135.34655 135.045388 
L 135.34655 136.584944 
L 137.30535 136.584944 
L 137.30535 138.351009 
L 139.264149 138.351009 
L 139.264149 140.556818 
L 141.222948 140.556818 
L 141.222948 142.288884 
L 143.181748 142.288884 
L 143.181748 144.071936 
L 145.140547 144.071936 
L 145.140547 146.259847 
L 147.099347 146.259847 
L 147.099347 148.137129 
L 149.058146 148.137129 
L 149.058146 148.991702 
L 151.016946 148.991702 
L 151.016946 151.850863 
L 152.975745 151.850863 
L 152.975745 153.306447 
L 154.934544 153.306447 
L 154.934544 154.437888 
L 156.893344 154.437888 
L 156.893344 155.993316 
L 158.852143 155.993316 
L 158.852143 157.547073 
L 160.810943 157.547073 
L 160.810943 160.239996 
L 162.769742 160.239996 
L 162.769742 160.021708 
L 164.728541 160.021708 
L 164.728541 162.525638 
L 166.687341 162.525638 
L 166.687341 163.107942 
L 168.64614 163.107942 
L 168.64614 165.99585 
L 170.60494 165.99585 
L 170.60494 166.375339 
L 172.563739 166.375339 
L 172.563739 166.840829 
L 174.522538 166.840829 
L 174.522538 169.414445 
L 178.440137 169.479136 
L 178.440137 171.827369 
L 180.398937 171.827369 
L 180.398937 172.827987 
L 182.357736 172.827987 
L 182.357736 174.456524 
L 184.316536 174.456524 
L 184.316536 174.624049 
L 186.275335 174.624049 
L 186.275335 175.145183 
L 188.234134 175.145183 
L 188.234134 176.320787 
L 190.192934 176.320787 
L 190.192934 176.987007 
L 192.151733 176.987007 
L 192.151733 180.549635 
L 194.110533 180.549635 
L 194.110533 180.706061 
L 198.028131 180.652178 
L 198.028131 182.35883 
L 199.986931 182.35883 
L 199.986931 180.79263 
L 201.94573 180.79263 
L 201.94573 183.426555 
L 203.90453 183.426555 
L 203.90453 185.344952 
L 205.863329 185.344952 
L 205.863329 185.193774 
L 207.822128 185.193774 
L 207.822128 187.460532 
L 209.780928 187.460532 
L 209.780928 188.868409 
L 211.739727 188.868409 
L 211.739727 186.234382 
L 213.698527 186.234382 
L 213.698527 188.029628 
L 215.657326 188.029628 
L 215.657326 189.643677 
L 217.616125 189.643677 
L 217.616125 191.249129 
L 219.574925 191.249129 
L 219.574925 191.823536 
L 221.533724 191.823536 
L 221.533724 193.084222 
L 223.492524 193.084222 
L 223.492524 191.694133 
L 225.451323 191.694133 
L 225.451323 195.048048 
L 227.410123 195.048048 
L 227.410123 196.079147 
L 229.368922 196.079147 
L 229.368922 196.526932 
L 231.327721 196.526932 
L 231.327721 194.779923 
L 233.286521 194.779923 
L 233.286521 196.768262 
L 235.24532 196.768262 
L 235.24532 198.63893 
L 237.20412 198.63893 
L 237.20412 200.275435 
L 239.162919 200.275435 
L 239.162919 198.352902 
L 241.121718 198.352902 
L 241.121718 202.590257 
L 243.080518 202.590257 
L 243.080518 201.130945 
L 245.039317 201.130945 
L 245.039317 200.154638 
L 246.998117 200.154638 
L 246.998117 200.697169 
L 248.956916 200.697169 
L 248.956916 202.597887 
L 250.915715 202.597887 
L 250.915715 202.405875 
L 252.874515 202.405875 
L 252.874515 206.180891 
L 254.833314 206.180891 
L 254.833314 203.737032 
L 258.750913 203.71265 
L 258.750913 202.387801 
L 260.709713 202.387801 
L 260.709713 206.786129 
L 262.668512 206.786129 
L 262.668512 206.972386 
L 264.627311 206.972386 
L 264.627311 206.972386 
" clip-path="url(#pbc61937a1b)" style="fill: none; stroke: #1f77b4; stroke-width: 1.5; stroke-linecap: square"/>
   </g>
   <g id="line2d_34">
    <path d="M 68.74737 23.584571 
L 70.70617 23.584571 
L 70.70617 24.186655 
L 72.664969 24.186655 
L 72.664969 26.991318 
L 74.623768 26.991318 
L 74.623768 30.222285 
L 76.582568 30.222285 
L 76.582568 34.044123 
L 78.541367 34.044123 
L 78.541367 38.189847 
L 80.500167 38.189847 
L 80.500167 42.76282 
L 82.458966 42.76282 
L 82.458966 47.319277 
L 84.417766 47.319277 
L 84.417766 51.936192 
L 86.376565 51.936192 
L 86.376565 56.933767 
L 88.335364 56.933767 
L 88.335364 61.2766 
L 90.294164 61.2766 
L 90.294164 66.21743 
L 92.252963 66.21743 
L 92.252963 70.084956 
L 94.211763 70.084956 
L 94.211763 74.606268 
L 96.170562 74.606268 
L 96.170562 78.852639 
L 98.129361 78.852639 
L 98.129361 82.527947 
L 100.088161 82.527947 
L 100.088161 86.498486 
L 102.04696 86.498486 
L 102.04696 90.427738 
L 104.00576 90.427738 
L 104.00576 94.002182 
L 105.964559 94.002182 
L 105.964559 97.338642 
L 107.923358 97.338642 
L 107.923358 100.243641 
L 109.882158 100.243641 
L 109.882158 104.056459 
L 111.840957 104.056459 
L 111.840957 106.610092 
L 113.799757 106.610092 
L 113.799757 109.426125 
L 115.758556 109.426125 
L 115.758556 112.220088 
L 117.717356 112.220088 
L 117.717356 115.262452 
L 119.676155 115.262452 
L 119.676155 117.96199 
L 121.634954 117.96199 
L 121.634954 120.876942 
L 123.593754 120.876942 
L 123.593754 122.928121 
L 125.552553 122.928121 
L 125.552553 125.163623 
L 127.511353 125.163623 
L 127.511353 127.589921 
L 129.470152 127.589921 
L 129.470152 129.869331 
L 131.428951 129.869331 
L 131.428951 132.078597 
L 133.387751 132.078597 
L 133.387751 134.817511 
L 135.34655 134.817511 
L 135.34655 136.283057 
L 137.30535 136.283057 
L 137.30535 138.061812 
L 139.264149 138.061812 
L 139.264149 140.163878 
L 141.222948 140.163878 
L 141.222948 142.155326 
L 143.181748 142.155326 
L 143.181748 143.884145 
L 145.140547 143.884145 
L 145.140547 146.079919 
L 147.099347 146.079919 
L 147.099347 147.613771 
L 149.058146 147.613771 
L 149.058146 148.737266 
L 151.016946 148.737266 
L 151.016946 151.51049 
L 152.975745 151.51049 
L 152.975745 153.082086 
L 154.934544 153.082086 
L 154.934544 154.288422 
L 156.893344 154.288422 
L 156.893344 156.202248 
L 158.852143 156.202248 
L 158.852143 157.477475 
L 160.810943 157.477475 
L 160.810943 159.99886 
L 164.728541 160.092804 
L 164.728541 162.053132 
L 166.687341 162.053132 
L 166.687341 163.603198 
L 168.64614 163.603198 
L 168.64614 165.349095 
L 170.60494 165.349095 
L 170.60494 166.14944 
L 172.563739 166.14944 
L 172.563739 166.93762 
L 174.522538 166.93762 
L 174.522538 168.565812 
L 176.481338 168.565812 
L 176.481338 169.58843 
L 178.440137 169.58843 
L 178.440137 171.443241 
L 180.398937 171.443241 
L 180.398937 173.411662 
L 182.357736 173.411662 
L 182.357736 174.027078 
L 184.316536 174.027078 
L 184.316536 174.195418 
L 186.275335 174.195418 
L 186.275335 174.923018 
L 188.234134 174.923018 
L 188.234134 176.145736 
L 190.192934 176.145736 
L 190.192934 177.486889 
L 192.151733 177.486889 
L 192.151733 179.003419 
L 194.110533 179.003419 
L 194.110533 179.965011 
L 196.069332 179.965011 
L 196.069332 180.974762 
L 198.028131 180.974762 
L 198.028131 182.359831 
L 199.986931 182.359831 
L 199.986931 180.776396 
L 201.94573 180.776396 
L 201.94573 184.364927 
L 203.90453 184.364927 
L 203.90453 184.67864 
L 205.863329 184.67864 
L 205.863329 185.892575 
L 207.822128 185.892575 
L 207.822128 187.495081 
L 209.780928 187.495081 
L 209.780928 188.674176 
L 211.739727 188.674176 
L 211.739727 186.899393 
L 213.698527 186.899393 
L 213.698527 188.589438 
L 215.657326 188.589438 
L 215.657326 190.841626 
L 217.616125 190.841626 
L 217.616125 193.300885 
L 219.574925 193.300885 
L 219.574925 191.578687 
L 221.533724 191.578687 
L 221.533724 192.611458 
L 223.492524 192.611458 
L 223.492524 192.187107 
L 225.451323 192.187107 
L 225.451323 194.866762 
L 227.410123 194.866762 
L 227.410123 195.149933 
L 229.368922 195.149933 
L 229.368922 194.973256 
L 231.327721 194.973256 
L 231.327721 196.727404 
L 233.286521 196.727404 
L 233.286521 196.184318 
L 235.24532 196.184318 
L 235.24532 195.799905 
L 237.20412 195.799905 
L 237.20412 200.937252 
L 239.162919 200.937252 
L 239.162919 198.1183 
L 241.121718 198.1183 
L 241.121718 201.797727 
L 243.080518 201.797727 
L 243.080518 198.916897 
L 245.039317 198.916897 
L 245.039317 199.931225 
L 246.998117 199.931225 
L 246.998117 202.354426 
L 248.956916 202.354426 
L 248.956916 203.817462 
L 250.915715 203.817462 
L 250.915715 202.8195 
L 252.874515 202.8195 
L 252.874515 205.989188 
L 254.833314 205.989188 
L 254.833314 205.064108 
L 256.792114 205.064108 
L 256.792114 206.230762 
L 258.750913 206.230762 
L 258.750913 204.245392 
L 260.709713 204.245392 
L 260.709713 206.361797 
L 262.668512 206.361797 
L 262.668512 204.884724 
L 264.627311 204.884724 
L 264.627311 204.884724 
" clip-path="url(#pbc61937a1b)" style="fill: none; stroke: #ff7f0e; stroke-width: 1.5; stroke-linecap: square"/>
   </g>
  </g>
 </g>
 <defs>
  <clipPath id="pbc61937a1b">
   <rect x="45.478125" y="7.2" width="371.107315" height="234.4525"/>
  </clipPath>
 </defs>
</svg>
