<?xml version="1.0" encoding="utf-8" standalone="no"?>
<!DOCTYPE svg PUBLIC "-//W3C//DTD SVG 1.1//EN"
  "http://www.w3.org/Graphics/SVG/1.1/DTD/svg11.dtd">
<svg xmlns:xlink="http://www.w3.org/1999/xlink" width="387.478125pt" height="267.439688pt" viewBox="0 0 387.478125 267.439688" xmlns="http://www.w3.org/2000/svg" version="1.1">
 <metadata>
  <rdf:RDF xmlns:dc="http://purl.org/dc/elements/1.1/" xmlns:cc="http://creativecommons.org/ns#" xmlns:rdf="http://www.w3.org/1999/02/22-rdf-syntax-ns#">
   <cc:Work>
    <dc:type rdf:resource="http://purl.org/dc/dcmitype/StillImage"/>
    <dc:date>2024-10-07T09:42:15.798700</dc:date>
    <dc:format>image/svg+xml</dc:format>
    <dc:creator>
     <cc:Agent>
      <dc:title>Matplotlib v3.9.2, https://matplotlib.org/</dc:title>
     </cc:Agent>
    </dc:creator>
   </cc:Work>
  </rdf:RDF>
 </metadata>
 <defs>
  <style type="text/css">*{stroke-linejoin: round; stroke-linecap: butt}</style>
 </defs>
 <g id="figure_1">
  <g id="patch_1">
   <path d="M 0 267.439688 
L 387.478125 267.439688 
L 387.478125 0 
L 0 0 
z
" style="fill: #ffffff"/>
  </g>
  <g id="axes_1">
   <g id="patch_2">
    <path d="M 45.478125 228.96 
L 380.278125 228.96 
L 380.278125 7.2 
L 45.478125 7.2 
z
" style="fill: #ffffff"/>
   </g>
   <g id="matplotlib.axis_1">
    <g id="xtick_1">
     <g id="line2d_1">
      <defs>
       <path id="m9cab71038b" d="M 0 0 
L 0 3.5 
" style="stroke: #000000; stroke-width: 0.8"/>
      </defs>
      <g>
       <use xlink:href="#m9cab71038b" x="60.696307" y="228.96" style="stroke: #000000; stroke-width: 0.8"/>
      </g>
     </g>
     <g id="text_1">
      <!-- $\mathdefault{10^{-2}}$ -->
      <g transform="translate(48.946307 243.558438) scale(0.1 -0.1)">
       <defs>
        <path id="DejaVuSans-31" d="M 794 531 
L 1825 531 
L 1825 4091 
L 703 3866 
L 703 4441 
L 1819 4666 
L 2450 4666 
L 2450 531 
L 3481 531 
L 3481 0 
L 794 0 
L 794 531 
z
" transform="scale(0.015625)"/>
        <path id="DejaVuSans-30" d="M 2034 4250 
Q 1547 4250 1301 3770 
Q 1056 3291 1056 2328 
Q 1056 1369 1301 889 
Q 1547 409 2034 409 
Q 2525 409 2770 889 
Q 3016 1369 3016 2328 
Q 3016 3291 2770 3770 
Q 2525 4250 2034 4250 
z
M 2034 4750 
Q 2819 4750 3233 4129 
Q 3647 3509 3647 2328 
Q 3647 1150 3233 529 
Q 2819 -91 2034 -91 
Q 1250 -91 836 529 
Q 422 1150 422 2328 
Q 422 3509 836 4129 
Q 1250 4750 2034 4750 
z
" transform="scale(0.015625)"/>
        <path id="DejaVuSans-2212" d="M 678 2272 
L 4684 2272 
L 4684 1741 
L 678 1741 
L 678 2272 
z
" transform="scale(0.015625)"/>
        <path id="DejaVuSans-32" d="M 1228 531 
L 3431 531 
L 3431 0 
L 469 0 
L 469 531 
Q 828 903 1448 1529 
Q 2069 2156 2228 2338 
Q 2531 2678 2651 2914 
Q 2772 3150 2772 3378 
Q 2772 3750 2511 3984 
Q 2250 4219 1831 4219 
Q 1534 4219 1204 4116 
Q 875 4013 500 3803 
L 500 4441 
Q 881 4594 1212 4672 
Q 1544 4750 1819 4750 
Q 2544 4750 2975 4387 
Q 3406 4025 3406 3419 
Q 3406 3131 3298 2873 
Q 3191 2616 2906 2266 
Q 2828 2175 2409 1742 
Q 1991 1309 1228 531 
z
" transform="scale(0.015625)"/>
       </defs>
       <use xlink:href="#DejaVuSans-31" transform="translate(0 0.765625)"/>
       <use xlink:href="#DejaVuSans-30" transform="translate(63.623047 0.765625)"/>
       <use xlink:href="#DejaVuSans-2212" transform="translate(128.203125 39.046875) scale(0.7)"/>
       <use xlink:href="#DejaVuSans-32" transform="translate(186.855469 39.046875) scale(0.7)"/>
      </g>
     </g>
    </g>
    <g id="xtick_2">
     <g id="line2d_2">
      <g>
       <use xlink:href="#m9cab71038b" x="231.864893" y="228.96" style="stroke: #000000; stroke-width: 0.8"/>
      </g>
     </g>
     <g id="text_2">
      <!-- $\mathdefault{10^{-1}}$ -->
      <g transform="translate(220.114893 243.558438) scale(0.1 -0.1)">
       <use xlink:href="#DejaVuSans-31" transform="translate(0 0.684375)"/>
       <use xlink:href="#DejaVuSans-30" transform="translate(63.623047 0.684375)"/>
       <use xlink:href="#DejaVuSans-2212" transform="translate(128.203125 38.965625) scale(0.7)"/>
       <use xlink:href="#DejaVuSans-31" transform="translate(186.855469 38.965625) scale(0.7)"/>
      </g>
     </g>
    </g>
    <g id="xtick_3">
     <g id="line2d_3">
      <defs>
       <path id="m0e04204a04" d="M 0 0 
L 0 2 
" style="stroke: #000000; stroke-width: 0.6"/>
      </defs>
      <g>
       <use xlink:href="#m0e04204a04" x="52.864062" y="228.96" style="stroke: #000000; stroke-width: 0.6"/>
      </g>
     </g>
    </g>
    <g id="xtick_4">
     <g id="line2d_4">
      <g>
       <use xlink:href="#m0e04204a04" x="112.223186" y="228.96" style="stroke: #000000; stroke-width: 0.6"/>
      </g>
     </g>
    </g>
    <g id="xtick_5">
     <g id="line2d_5">
      <g>
       <use xlink:href="#m0e04204a04" x="142.364478" y="228.96" style="stroke: #000000; stroke-width: 0.6"/>
      </g>
     </g>
    </g>
    <g id="xtick_6">
     <g id="line2d_6">
      <g>
       <use xlink:href="#m0e04204a04" x="163.750065" y="228.96" style="stroke: #000000; stroke-width: 0.6"/>
      </g>
     </g>
    </g>
    <g id="xtick_7">
     <g id="line2d_7">
      <g>
       <use xlink:href="#m0e04204a04" x="180.338015" y="228.96" style="stroke: #000000; stroke-width: 0.6"/>
      </g>
     </g>
    </g>
    <g id="xtick_8">
     <g id="line2d_8">
      <g>
       <use xlink:href="#m0e04204a04" x="193.891357" y="228.96" style="stroke: #000000; stroke-width: 0.6"/>
      </g>
     </g>
    </g>
    <g id="xtick_9">
     <g id="line2d_9">
      <g>
       <use xlink:href="#m0e04204a04" x="205.350544" y="228.96" style="stroke: #000000; stroke-width: 0.6"/>
      </g>
     </g>
    </g>
    <g id="xtick_10">
     <g id="line2d_10">
      <g>
       <use xlink:href="#m0e04204a04" x="215.276944" y="228.96" style="stroke: #000000; stroke-width: 0.6"/>
      </g>
     </g>
    </g>
    <g id="xtick_11">
     <g id="line2d_11">
      <g>
       <use xlink:href="#m0e04204a04" x="224.032648" y="228.96" style="stroke: #000000; stroke-width: 0.6"/>
      </g>
     </g>
    </g>
    <g id="xtick_12">
     <g id="line2d_12">
      <g>
       <use xlink:href="#m0e04204a04" x="283.391772" y="228.96" style="stroke: #000000; stroke-width: 0.6"/>
      </g>
     </g>
    </g>
    <g id="xtick_13">
     <g id="line2d_13">
      <g>
       <use xlink:href="#m0e04204a04" x="313.533064" y="228.96" style="stroke: #000000; stroke-width: 0.6"/>
      </g>
     </g>
    </g>
    <g id="xtick_14">
     <g id="line2d_14">
      <g>
       <use xlink:href="#m0e04204a04" x="334.918651" y="228.96" style="stroke: #000000; stroke-width: 0.6"/>
      </g>
     </g>
    </g>
    <g id="xtick_15">
     <g id="line2d_15">
      <g>
       <use xlink:href="#m0e04204a04" x="351.506601" y="228.96" style="stroke: #000000; stroke-width: 0.6"/>
      </g>
     </g>
    </g>
    <g id="xtick_16">
     <g id="line2d_16">
      <g>
       <use xlink:href="#m0e04204a04" x="365.059943" y="228.96" style="stroke: #000000; stroke-width: 0.6"/>
      </g>
     </g>
    </g>
    <g id="xtick_17">
     <g id="line2d_17">
      <g>
       <use xlink:href="#m0e04204a04" x="376.519131" y="228.96" style="stroke: #000000; stroke-width: 0.6"/>
      </g>
     </g>
    </g>
    <g id="text_3">
     <!-- Q [1/Å] -->
     <g transform="translate(195.165625 258.16) scale(0.1 -0.1)">
      <defs>
       <path id="DejaVuSans-51" d="M 2522 4238 
Q 1834 4238 1429 3725 
Q 1025 3213 1025 2328 
Q 1025 1447 1429 934 
Q 1834 422 2522 422 
Q 3209 422 3611 934 
Q 4013 1447 4013 2328 
Q 4013 3213 3611 3725 
Q 3209 4238 2522 4238 
z
M 3406 84 
L 4238 -825 
L 3475 -825 
L 2784 -78 
Q 2681 -84 2626 -87 
Q 2572 -91 2522 -91 
Q 1538 -91 948 567 
Q 359 1225 359 2328 
Q 359 3434 948 4092 
Q 1538 4750 2522 4750 
Q 3503 4750 4090 4092 
Q 4678 3434 4678 2328 
Q 4678 1516 4351 937 
Q 4025 359 3406 84 
z
" transform="scale(0.015625)"/>
       <path id="DejaVuSans-20" transform="scale(0.015625)"/>
       <path id="DejaVuSans-5b" d="M 550 4863 
L 1875 4863 
L 1875 4416 
L 1125 4416 
L 1125 -397 
L 1875 -397 
L 1875 -844 
L 550 -844 
L 550 4863 
z
" transform="scale(0.015625)"/>
       <path id="DejaVuSans-2f" d="M 1625 4666 
L 2156 4666 
L 531 -594 
L 0 -594 
L 1625 4666 
z
" transform="scale(0.015625)"/>
       <path id="DejaVuSans-c5" d="M 2663 5081 
Q 2663 5278 2523 5417 
Q 2384 5556 2188 5556 
Q 1988 5556 1852 5420 
Q 1716 5284 1716 5081 
Q 1716 4884 1853 4746 
Q 1991 4609 2188 4609 
Q 2384 4609 2523 4746 
Q 2663 4884 2663 5081 
z
M 2188 4044 
L 1338 1722 
L 3041 1722 
L 2188 4044 
z
M 1716 4366 
Q 1525 4494 1428 4673 
Q 1331 4853 1331 5081 
Q 1331 5441 1579 5691 
Q 1828 5941 2188 5941 
Q 2544 5941 2795 5689 
Q 3047 5438 3047 5081 
Q 3047 4863 2948 4678 
Q 2850 4494 2663 4366 
L 4325 0 
L 3669 0 
L 3244 1197 
L 1141 1197 
L 716 0 
L 50 0 
L 1716 4366 
z
" transform="scale(0.015625)"/>
       <path id="DejaVuSans-5d" d="M 1947 4863 
L 1947 -844 
L 622 -844 
L 622 -397 
L 1369 -397 
L 1369 4416 
L 622 4416 
L 622 4863 
L 1947 4863 
z
" transform="scale(0.015625)"/>
      </defs>
      <use xlink:href="#DejaVuSans-51"/>
      <use xlink:href="#DejaVuSans-20" x="78.710938"/>
      <use xlink:href="#DejaVuSans-5b" x="110.498047"/>
      <use xlink:href="#DejaVuSans-31" x="149.511719"/>
      <use xlink:href="#DejaVuSans-2f" x="213.134766"/>
      <use xlink:href="#DejaVuSans-c5" x="246.826172"/>
      <use xlink:href="#DejaVuSans-5d" x="315.234375"/>
     </g>
    </g>
   </g>
   <g id="matplotlib.axis_2">
    <g id="ytick_1">
     <g id="line2d_18">
      <defs>
       <path id="md191068068" d="M 0 0 
L -3.5 0 
" style="stroke: #000000; stroke-width: 0.8"/>
      </defs>
      <g>
       <use xlink:href="#md191068068" x="45.478125" y="148.234528" style="stroke: #000000; stroke-width: 0.8"/>
      </g>
     </g>
     <g id="text_4">
      <!-- $\mathdefault{10^{1}}$ -->
      <g transform="translate(20.878125 152.033747) scale(0.1 -0.1)">
       <use xlink:href="#DejaVuSans-31" transform="translate(0 0.684375)"/>
       <use xlink:href="#DejaVuSans-30" transform="translate(63.623047 0.684375)"/>
       <use xlink:href="#DejaVuSans-31" transform="translate(128.203125 38.965625) scale(0.7)"/>
      </g>
     </g>
    </g>
    <g id="ytick_2">
     <g id="line2d_19">
      <g>
       <use xlink:href="#md191068068" x="45.478125" y="46.75792" style="stroke: #000000; stroke-width: 0.8"/>
      </g>
     </g>
     <g id="text_5">
      <!-- $\mathdefault{10^{2}}$ -->
      <g transform="translate(20.878125 50.557139) scale(0.1 -0.1)">
       <use xlink:href="#DejaVuSans-31" transform="translate(0 0.765625)"/>
       <use xlink:href="#DejaVuSans-30" transform="translate(63.623047 0.765625)"/>
       <use xlink:href="#DejaVuSans-32" transform="translate(128.203125 39.046875) scale(0.7)"/>
      </g>
     </g>
    </g>
    <g id="ytick_3">
     <g id="line2d_20">
      <defs>
       <path id="m515e297b64" d="M 0 0 
L -2 0 
" style="stroke: #000000; stroke-width: 0.6"/>
      </defs>
      <g>
       <use xlink:href="#m515e297b64" x="45.478125" y="219.163633" style="stroke: #000000; stroke-width: 0.6"/>
      </g>
     </g>
    </g>
    <g id="ytick_4">
     <g id="line2d_21">
      <g>
       <use xlink:href="#m515e297b64" x="45.478125" y="201.294489" style="stroke: #000000; stroke-width: 0.6"/>
      </g>
     </g>
    </g>
    <g id="ytick_5">
     <g id="line2d_22">
      <g>
       <use xlink:href="#m515e297b64" x="45.478125" y="188.61613" style="stroke: #000000; stroke-width: 0.6"/>
      </g>
     </g>
    </g>
    <g id="ytick_6">
     <g id="line2d_23">
      <g>
       <use xlink:href="#m515e297b64" x="45.478125" y="178.782031" style="stroke: #000000; stroke-width: 0.6"/>
      </g>
     </g>
    </g>
    <g id="ytick_7">
     <g id="line2d_24">
      <g>
       <use xlink:href="#m515e297b64" x="45.478125" y="170.746986" style="stroke: #000000; stroke-width: 0.6"/>
      </g>
     </g>
    </g>
    <g id="ytick_8">
     <g id="line2d_25">
      <g>
       <use xlink:href="#m515e297b64" x="45.478125" y="163.953453" style="stroke: #000000; stroke-width: 0.6"/>
      </g>
     </g>
    </g>
    <g id="ytick_9">
     <g id="line2d_26">
      <g>
       <use xlink:href="#m515e297b64" x="45.478125" y="158.068627" style="stroke: #000000; stroke-width: 0.6"/>
      </g>
     </g>
    </g>
    <g id="ytick_10">
     <g id="line2d_27">
      <g>
       <use xlink:href="#m515e297b64" x="45.478125" y="152.877843" style="stroke: #000000; stroke-width: 0.6"/>
      </g>
     </g>
    </g>
    <g id="ytick_11">
     <g id="line2d_28">
      <g>
       <use xlink:href="#m515e297b64" x="45.478125" y="117.687025" style="stroke: #000000; stroke-width: 0.6"/>
      </g>
     </g>
    </g>
    <g id="ytick_12">
     <g id="line2d_29">
      <g>
       <use xlink:href="#m515e297b64" x="45.478125" y="99.817882" style="stroke: #000000; stroke-width: 0.6"/>
      </g>
     </g>
    </g>
    <g id="ytick_13">
     <g id="line2d_30">
      <g>
       <use xlink:href="#m515e297b64" x="45.478125" y="87.139522" style="stroke: #000000; stroke-width: 0.6"/>
      </g>
     </g>
    </g>
    <g id="ytick_14">
     <g id="line2d_31">
      <g>
       <use xlink:href="#m515e297b64" x="45.478125" y="77.305423" style="stroke: #000000; stroke-width: 0.6"/>
      </g>
     </g>
    </g>
    <g id="ytick_15">
     <g id="line2d_32">
      <g>
       <use xlink:href="#m515e297b64" x="45.478125" y="69.270379" style="stroke: #000000; stroke-width: 0.6"/>
      </g>
     </g>
    </g>
    <g id="ytick_16">
     <g id="line2d_33">
      <g>
       <use xlink:href="#m515e297b64" x="45.478125" y="62.476846" style="stroke: #000000; stroke-width: 0.6"/>
      </g>
     </g>
    </g>
    <g id="ytick_17">
     <g id="line2d_34">
      <g>
       <use xlink:href="#m515e297b64" x="45.478125" y="56.59202" style="stroke: #000000; stroke-width: 0.6"/>
      </g>
     </g>
    </g>
    <g id="ytick_18">
     <g id="line2d_35">
      <g>
       <use xlink:href="#m515e297b64" x="45.478125" y="51.401235" style="stroke: #000000; stroke-width: 0.6"/>
      </g>
     </g>
    </g>
    <g id="ytick_19">
     <g id="line2d_36">
      <g>
       <use xlink:href="#m515e297b64" x="45.478125" y="16.210418" style="stroke: #000000; stroke-width: 0.6"/>
      </g>
     </g>
    </g>
    <g id="text_6">
     <!-- [dimensionless] -->
     <g transform="translate(14.798438 157.557344) rotate(-90) scale(0.1 -0.1)">
      <defs>
       <path id="DejaVuSans-64" d="M 2906 2969 
L 2906 4863 
L 3481 4863 
L 3481 0 
L 2906 0 
L 2906 525 
Q 2725 213 2448 61 
Q 2172 -91 1784 -91 
Q 1150 -91 751 415 
Q 353 922 353 1747 
Q 353 2572 751 3078 
Q 1150 3584 1784 3584 
Q 2172 3584 2448 3432 
Q 2725 3281 2906 2969 
z
M 947 1747 
Q 947 1113 1208 752 
Q 1469 391 1925 391 
Q 2381 391 2643 752 
Q 2906 1113 2906 1747 
Q 2906 2381 2643 2742 
Q 2381 3103 1925 3103 
Q 1469 3103 1208 2742 
Q 947 2381 947 1747 
z
" transform="scale(0.015625)"/>
       <path id="DejaVuSans-69" d="M 603 3500 
L 1178 3500 
L 1178 0 
L 603 0 
L 603 3500 
z
M 603 4863 
L 1178 4863 
L 1178 4134 
L 603 4134 
L 603 4863 
z
" transform="scale(0.015625)"/>
       <path id="DejaVuSans-6d" d="M 3328 2828 
Q 3544 3216 3844 3400 
Q 4144 3584 4550 3584 
Q 5097 3584 5394 3201 
Q 5691 2819 5691 2113 
L 5691 0 
L 5113 0 
L 5113 2094 
Q 5113 2597 4934 2840 
Q 4756 3084 4391 3084 
Q 3944 3084 3684 2787 
Q 3425 2491 3425 1978 
L 3425 0 
L 2847 0 
L 2847 2094 
Q 2847 2600 2669 2842 
Q 2491 3084 2119 3084 
Q 1678 3084 1418 2786 
Q 1159 2488 1159 1978 
L 1159 0 
L 581 0 
L 581 3500 
L 1159 3500 
L 1159 2956 
Q 1356 3278 1631 3431 
Q 1906 3584 2284 3584 
Q 2666 3584 2933 3390 
Q 3200 3197 3328 2828 
z
" transform="scale(0.015625)"/>
       <path id="DejaVuSans-65" d="M 3597 1894 
L 3597 1613 
L 953 1613 
Q 991 1019 1311 708 
Q 1631 397 2203 397 
Q 2534 397 2845 478 
Q 3156 559 3463 722 
L 3463 178 
Q 3153 47 2828 -22 
Q 2503 -91 2169 -91 
Q 1331 -91 842 396 
Q 353 884 353 1716 
Q 353 2575 817 3079 
Q 1281 3584 2069 3584 
Q 2775 3584 3186 3129 
Q 3597 2675 3597 1894 
z
M 3022 2063 
Q 3016 2534 2758 2815 
Q 2500 3097 2075 3097 
Q 1594 3097 1305 2825 
Q 1016 2553 972 2059 
L 3022 2063 
z
" transform="scale(0.015625)"/>
       <path id="DejaVuSans-6e" d="M 3513 2113 
L 3513 0 
L 2938 0 
L 2938 2094 
Q 2938 2591 2744 2837 
Q 2550 3084 2163 3084 
Q 1697 3084 1428 2787 
Q 1159 2491 1159 1978 
L 1159 0 
L 581 0 
L 581 3500 
L 1159 3500 
L 1159 2956 
Q 1366 3272 1645 3428 
Q 1925 3584 2291 3584 
Q 2894 3584 3203 3211 
Q 3513 2838 3513 2113 
z
" transform="scale(0.015625)"/>
       <path id="DejaVuSans-73" d="M 2834 3397 
L 2834 2853 
Q 2591 2978 2328 3040 
Q 2066 3103 1784 3103 
Q 1356 3103 1142 2972 
Q 928 2841 928 2578 
Q 928 2378 1081 2264 
Q 1234 2150 1697 2047 
L 1894 2003 
Q 2506 1872 2764 1633 
Q 3022 1394 3022 966 
Q 3022 478 2636 193 
Q 2250 -91 1575 -91 
Q 1294 -91 989 -36 
Q 684 19 347 128 
L 347 722 
Q 666 556 975 473 
Q 1284 391 1588 391 
Q 1994 391 2212 530 
Q 2431 669 2431 922 
Q 2431 1156 2273 1281 
Q 2116 1406 1581 1522 
L 1381 1569 
Q 847 1681 609 1914 
Q 372 2147 372 2553 
Q 372 3047 722 3315 
Q 1072 3584 1716 3584 
Q 2034 3584 2315 3537 
Q 2597 3491 2834 3397 
z
" transform="scale(0.015625)"/>
       <path id="DejaVuSans-6f" d="M 1959 3097 
Q 1497 3097 1228 2736 
Q 959 2375 959 1747 
Q 959 1119 1226 758 
Q 1494 397 1959 397 
Q 2419 397 2687 759 
Q 2956 1122 2956 1747 
Q 2956 2369 2687 2733 
Q 2419 3097 1959 3097 
z
M 1959 3584 
Q 2709 3584 3137 3096 
Q 3566 2609 3566 1747 
Q 3566 888 3137 398 
Q 2709 -91 1959 -91 
Q 1206 -91 779 398 
Q 353 888 353 1747 
Q 353 2609 779 3096 
Q 1206 3584 1959 3584 
z
" transform="scale(0.015625)"/>
       <path id="DejaVuSans-6c" d="M 603 4863 
L 1178 4863 
L 1178 0 
L 603 0 
L 603 4863 
z
" transform="scale(0.015625)"/>
      </defs>
      <use xlink:href="#DejaVuSans-5b"/>
      <use xlink:href="#DejaVuSans-64" x="39.013672"/>
      <use xlink:href="#DejaVuSans-69" x="102.490234"/>
      <use xlink:href="#DejaVuSans-6d" x="130.273438"/>
      <use xlink:href="#DejaVuSans-65" x="227.685547"/>
      <use xlink:href="#DejaVuSans-6e" x="289.208984"/>
      <use xlink:href="#DejaVuSans-73" x="352.587891"/>
      <use xlink:href="#DejaVuSans-69" x="404.6875"/>
      <use xlink:href="#DejaVuSans-6f" x="432.470703"/>
      <use xlink:href="#DejaVuSans-6e" x="493.652344"/>
      <use xlink:href="#DejaVuSans-6c" x="557.03125"/>
      <use xlink:href="#DejaVuSans-65" x="584.814453"/>
      <use xlink:href="#DejaVuSans-73" x="646.337891"/>
      <use xlink:href="#DejaVuSans-73" x="698.4375"/>
      <use xlink:href="#DejaVuSans-5d" x="750.537109"/>
     </g>
    </g>
   </g>
   <g id="patch_3">
    <path d="M 45.478125 228.96 
L 45.478125 7.2 
" style="fill: none; stroke: #000000; stroke-width: 0.8; stroke-linejoin: miter; stroke-linecap: square"/>
   </g>
   <g id="patch_4">
    <path d="M 380.278125 228.96 
L 380.278125 7.2 
" style="fill: none; stroke: #000000; stroke-width: 0.8; stroke-linejoin: miter; stroke-linecap: square"/>
   </g>
   <g id="patch_5">
    <path d="M 45.478125 228.96 
L 380.278125 228.96 
" style="fill: none; stroke: #000000; stroke-width: 0.8; stroke-linejoin: miter; stroke-linecap: square"/>
   </g>
   <g id="patch_6">
    <path d="M 45.478125 7.2 
L 380.278125 7.2 
" style="fill: none; stroke: #000000; stroke-width: 0.8; stroke-linejoin: miter; stroke-linecap: square"/>
   </g>
   <g id="line2d_37">
    <path d="M 60.696307 62.232167 
L 86.838036 62.232167 
L 86.838036 60.958283 
L 106.140141 60.958283 
L 106.140141 59.38234 
L 121.449383 59.38234 
L 121.449383 57.467518 
L 134.137868 57.467518 
L 134.137868 54.851507 
L 144.973081 54.851507 
L 144.973081 52.777788 
L 154.428039 52.777788 
L 154.428039 49.805914 
L 162.814988 49.805914 
L 162.814988 46.871232 
L 170.350906 46.871232 
L 170.350906 42.635851 
L 177.192703 42.635851 
L 177.192703 38.456701 
L 183.457531 38.456701 
L 183.457531 33.957458 
L 189.23518 33.957458 
L 189.23518 29.027159 
L 194.595983 29.027159 
L 194.595983 24.867091 
L 199.596063 24.867091 
L 199.596063 20.650757 
L 204.28092 20.650757 
L 204.28092 18.052307 
L 208.687953 18.052307 
L 208.687953 17.558858 
L 212.848277 17.558858 
L 212.848277 19.544107 
L 216.788055 19.544107 
L 216.788055 24.466856 
L 220.529499 24.466856 
L 220.529499 32.10661 
L 224.091623 32.10661 
L 224.091623 41.665542 
L 227.490834 41.665542 
L 227.490834 52.355191 
L 230.741382 52.355191 
L 230.741382 63.502503 
L 233.85573 63.502503 
L 233.85573 74.617253 
L 236.844832 74.617253 
L 236.844832 85.256292 
L 239.718375 85.256292 
L 239.718375 95.755058 
L 242.484961 95.755058 
L 242.484961 105.538994 
L 245.152269 105.538994 
L 245.152269 114.037412 
L 247.727177 114.037412 
L 247.727177 122.496622 
L 250.215872 122.496622 
L 250.215872 129.672316 
L 252.623943 129.672316 
L 252.623943 135.944322 
L 254.956448 135.944322 
L 254.956448 141.812993 
L 257.217987 141.812993 
L 257.217987 146.646017 
L 259.412751 146.646017 
L 259.412751 150.688682 
L 261.54457 150.688682 
L 261.54457 154.18607 
L 263.616954 154.18607 
L 263.616954 156.301904 
L 265.633128 156.301904 
L 265.633128 157.662564 
L 267.59606 157.662564 
L 267.59606 159.146364 
L 269.50849 159.146364 
L 269.50849 160.667563 
L 271.372952 160.667563 
L 271.372952 160.925503 
L 273.191793 160.925503 
L 273.191793 161.503946 
L 274.967193 161.503946 
L 274.967193 162.004103 
L 276.701178 162.004103 
L 276.701178 161.073298 
L 278.395637 161.073298 
L 278.395637 161.978666 
L 280.052331 161.978666 
L 280.052331 162.299787 
L 281.672908 162.299787 
L 281.672908 162.622987 
L 283.258908 162.622987 
L 283.258908 162.996304 
L 284.811776 162.996304 
L 284.811776 162.530942 
L 286.332869 162.530942 
L 286.332869 163.626613 
L 287.82346 163.626613 
L 287.82346 164.675271 
L 289.284748 164.675271 
L 289.284748 163.808945 
L 290.717865 163.808945 
L 290.717865 164.523095 
L 293.503784 164.521459 
L 293.503784 164.965872 
L 294.858545 164.965872 
L 294.858545 163.999 
L 296.189057 163.999 
L 296.189057 164.739378 
L 297.496174 164.739378 
L 297.496174 165.787942 
L 298.780703 165.787942 
L 298.780703 166.454933 
L 300.043413 166.454933 
L 300.043413 166.17268 
L 301.285032 166.17268 
L 301.285032 165.166425 
L 302.506253 165.166425 
L 302.506253 166.791645 
L 303.707736 166.791645 
L 303.707736 167.234773 
L 304.890108 167.234773 
L 304.890108 167.42438 
L 306.053968 167.42438 
L 306.053968 167.024439 
L 307.199886 167.024439 
L 307.199886 166.524096 
L 308.328408 166.524096 
L 308.328408 168.052528 
L 309.440054 168.052528 
L 309.440054 167.15678 
L 311.614685 167.098158 
L 311.614685 168.665505 
L 312.6786 168.665505 
L 312.6786 168.0748 
L 313.727503 168.0748 
L 313.727503 167.444013 
L 314.761812 167.444013 
L 314.761812 168.747525 
L 315.781928 168.747525 
L 315.781928 166.979265 
L 316.788234 166.979265 
L 316.788234 165.9517 
L 317.781099 165.9517 
L 317.781099 167.085815 
L 318.760878 167.085815 
L 318.760878 167.303471 
L 319.727911 167.303471 
L 319.727911 168.974054 
L 320.682525 168.974054 
L 320.682525 167.521325 
L 321.625037 167.521325 
L 321.625037 168.408346 
L 322.555747 168.408346 
L 322.555747 167.008979 
L 323.474949 167.008979 
L 323.474949 165.60723 
L 324.382924 165.60723 
L 324.382924 167.763704 
L 325.279942 167.763704 
L 325.279942 167.589862 
L 326.166265 167.589862 
L 326.166265 166.315129 
L 327.042145 166.315129 
L 327.042145 168.52749 
L 327.907824 168.52749 
L 327.907824 165.663622 
L 328.763539 165.663622 
L 328.763539 169.704675 
L 329.609515 169.704675 
L 329.609515 166.595232 
L 330.445972 166.595232 
L 330.445972 167.684865 
L 331.273122 167.684865 
L 331.273122 166.478417 
L 332.09117 166.478417 
L 332.09117 168.825182 
L 332.900313 168.825182 
L 332.900313 169.844531 
L 333.700743 169.844531 
L 333.700743 166.664433 
L 334.492647 166.664433 
L 334.492647 167.654375 
L 335.276203 167.654375 
L 335.276203 169.008555 
L 336.051587 169.008555 
L 336.051587 168.24317 
L 336.818966 168.24317 
L 336.818966 171.479724 
L 337.578504 171.479724 
L 337.578504 169.139961 
L 338.330361 169.139961 
L 338.330361 171.756412 
L 339.074689 171.756412 
L 339.074689 165.430782 
L 339.811638 165.430782 
L 339.811638 173.40554 
L 340.541353 173.40554 
L 340.541353 172.306948 
L 341.263975 172.306948 
L 341.263975 167.542196 
L 341.979639 167.542196 
L 341.979639 166.640317 
L 342.68848 166.640317 
L 342.68848 165.729562 
L 343.390625 165.729562 
L 343.390625 169.732534 
L 344.0862 169.732534 
L 344.0862 170.451648 
L 344.775327 170.451648 
L 344.775327 166.169192 
L 345.458124 166.169192 
L 345.458124 164.787526 
L 346.134707 164.787526 
L 346.134707 177.906283 
L 346.805187 177.906283 
L 346.805187 174.216435 
L 347.469674 174.216435 
L 347.469674 176.651202 
L 348.128274 176.651202 
L 348.128274 180.518496 
L 348.78109 180.518496 
L 348.78109 167.570617 
L 349.428223 167.570617 
L 349.428223 172.813857 
L 350.069771 172.813857 
L 350.069771 175.184311 
L 350.70583 175.184311 
L 350.70583 165.058262 
L 351.336492 165.058262 
L 351.336492 171.402511 
L 351.961849 171.402511 
L 351.961849 178.763726 
L 352.58199 178.763726 
L 352.58199 177.687831 
L 353.196999 177.687831 
L 353.196999 168.867648 
L 353.806963 168.867648 
L 353.806963 176.581358 
L 354.411962 176.581358 
L 354.411962 171.130559 
L 355.012077 171.130559 
L 355.012077 165.051331 
L 355.607386 165.051331 
L 355.607386 174.797284 
L 356.197966 174.797284 
L 356.197966 168.742816 
L 356.78389 168.742816 
L 356.78389 179.929858 
L 357.365233 179.929858 
L 357.365233 172.188466 
L 357.942065 172.188466 
L 357.942065 160.992629 
L 358.514455 160.992629 
L 358.514455 153.440003 
L 359.082471 153.440003 
L 359.082471 174.265724 
L 359.64618 174.265724 
L 359.64618 158.177812 
L 360.205646 158.177812 
L 360.205646 162.667566 
L 360.760934 162.667566 
L 360.760934 173.943393 
L 361.312104 173.943393 
L 361.312104 180.51624 
L 361.859218 180.51624 
L 361.859218 179.841771 
L 362.402334 179.841771 
L 362.402334 186.317556 
L 362.941511 186.317556 
L 362.941511 168.837637 
L 363.476806 168.837637 
L 363.476806 168.319276 
L 364.008273 168.319276 
L 364.008273 162.845008 
L 364.535968 162.845008 
L 364.535968 268.439688 
L 364.535968 268.439688 
" clip-path="url(#p62c9b61af7)" style="fill: none; stroke: #1f77b4; stroke-width: 1.5; stroke-linecap: square"/>
   </g>
   <g id="LineCollection_1">
    <path d="M 74.910432 62.717766 
L 74.910432 61.751862 
" clip-path="url(#p62c9b61af7)" style="fill: none; stroke: #1f77b4; stroke-width: 1.5"/>
    <path d="M 97.113822 61.353829 
L 97.113822 60.566255 
" clip-path="url(#p62c9b61af7)" style="fill: none; stroke: #1f77b4; stroke-width: 1.5"/>
    <path d="M 114.18817 59.740791 
L 114.18817 59.026782 
" clip-path="url(#p62c9b61af7)" style="fill: none; stroke: #1f77b4; stroke-width: 1.5"/>
    <path d="M 128.064018 57.809181 
L 128.064018 57.128483 
" clip-path="url(#p62c9b61af7)" style="fill: none; stroke: #1f77b4; stroke-width: 1.5"/>
    <path d="M 139.752713 55.182431 
L 139.752713 54.523049 
" clip-path="url(#p62c9b61af7)" style="fill: none; stroke: #1f77b4; stroke-width: 1.5"/>
    <path d="M 149.85078 53.101643 
L 149.85078 52.456296 
" clip-path="url(#p62c9b61af7)" style="fill: none; stroke: #1f77b4; stroke-width: 1.5"/>
    <path d="M 158.739731 50.12376 
L 158.739731 49.490345 
" clip-path="url(#p62c9b61af7)" style="fill: none; stroke: #1f77b4; stroke-width: 1.5"/>
    <path d="M 166.6784 47.183379 
L 166.6784 46.56128 
" clip-path="url(#p62c9b61af7)" style="fill: none; stroke: #1f77b4; stroke-width: 1.5"/>
    <path d="M 173.850489 42.942109 
L 173.850489 42.331707 
" clip-path="url(#p62c9b61af7)" style="fill: none; stroke: #1f77b4; stroke-width: 1.5"/>
    <path d="M 180.391094 38.757648 
L 180.391094 38.157796 
" clip-path="url(#p62c9b61af7)" style="fill: none; stroke: #1f77b4; stroke-width: 1.5"/>
    <path d="M 186.402473 34.253569 
L 186.402473 33.663323 
" clip-path="url(#p62c9b61af7)" style="fill: none; stroke: #1f77b4; stroke-width: 1.5"/>
    <path d="M 191.963895 29.318984 
L 191.963895 28.737253 
" clip-path="url(#p62c9b61af7)" style="fill: none; stroke: #1f77b4; stroke-width: 1.5"/>
    <path d="M 197.138055 25.154569 
L 197.138055 24.581477 
" clip-path="url(#p62c9b61af7)" style="fill: none; stroke: #1f77b4; stroke-width: 1.5"/>
    <path d="M 201.975391 20.93512 
L 201.975391 20.368218 
" clip-path="url(#p62c9b61af7)" style="fill: none; stroke: #1f77b4; stroke-width: 1.5"/>
    <path d="M 206.51709 18.334333 
L 206.51709 17.772074 
" clip-path="url(#p62c9b61af7)" style="fill: none; stroke: #1f77b4; stroke-width: 1.5"/>
    <path d="M 210.797215 17.839489 
L 210.797215 17.280002 
" clip-path="url(#p62c9b61af7)" style="fill: none; stroke: #1f77b4; stroke-width: 1.5"/>
    <path d="M 214.844263 19.823965 
L 214.844263 19.266015 
" clip-path="url(#p62c9b61af7)" style="fill: none; stroke: #1f77b4; stroke-width: 1.5"/>
    <path d="M 218.682313 24.747074 
L 218.682313 24.188409 
" clip-path="url(#p62c9b61af7)" style="fill: none; stroke: #1f77b4; stroke-width: 1.5"/>
    <path d="M 222.331895 32.387723 
L 222.331895 31.82728 
" clip-path="url(#p62c9b61af7)" style="fill: none; stroke: #1f77b4; stroke-width: 1.5"/>
    <path d="M 225.810656 41.949158 
L 225.810656 41.383741 
" clip-path="url(#p62c9b61af7)" style="fill: none; stroke: #1f77b4; stroke-width: 1.5"/>
    <path d="M 229.133874 52.642335 
L 229.133874 52.069906 
" clip-path="url(#p62c9b61af7)" style="fill: none; stroke: #1f77b4; stroke-width: 1.5"/>
    <path d="M 232.314864 63.794511 
L 232.314864 63.212417 
" clip-path="url(#p62c9b61af7)" style="fill: none; stroke: #1f77b4; stroke-width: 1.5"/>
    <path d="M 235.365304 74.915624 
L 235.365304 74.320889 
" clip-path="url(#p62c9b61af7)" style="fill: none; stroke: #1f77b4; stroke-width: 1.5"/>
    <path d="M 238.295487 85.562385 
L 238.295487 84.95231 
" clip-path="url(#p62c9b61af7)" style="fill: none; stroke: #1f77b4; stroke-width: 1.5"/>
    <path d="M 241.114538 96.070765 
L 241.114538 95.441597 
" clip-path="url(#p62c9b61af7)" style="fill: none; stroke: #1f77b4; stroke-width: 1.5"/>
    <path d="M 243.830578 105.865794 
L 243.830578 105.214601 
" clip-path="url(#p62c9b61af7)" style="fill: none; stroke: #1f77b4; stroke-width: 1.5"/>
    <path d="M 246.450871 114.376201 
L 246.450871 113.701208 
" clip-path="url(#p62c9b61af7)" style="fill: none; stroke: #1f77b4; stroke-width: 1.5"/>
    <path d="M 248.981939 122.849168 
L 248.981939 122.146873 
" clip-path="url(#p62c9b61af7)" style="fill: none; stroke: #1f77b4; stroke-width: 1.5"/>
    <path d="M 251.429658 130.039435 
L 251.429658 129.30823 
" clip-path="url(#p62c9b61af7)" style="fill: none; stroke: #1f77b4; stroke-width: 1.5"/>
    <path d="M 253.799344 136.325934 
L 253.799344 135.565987 
" clip-path="url(#p62c9b61af7)" style="fill: none; stroke: #1f77b4; stroke-width: 1.5"/>
    <path d="M 256.095818 142.210732 
L 256.095818 141.418811 
" clip-path="url(#p62c9b61af7)" style="fill: none; stroke: #1f77b4; stroke-width: 1.5"/>
    <path d="M 258.323469 147.058457 
L 258.323469 146.237401 
" clip-path="url(#p62c9b61af7)" style="fill: none; stroke: #1f77b4; stroke-width: 1.5"/>
    <path d="M 260.486302 151.114577 
L 260.486302 150.266864 
" clip-path="url(#p62c9b61af7)" style="fill: none; stroke: #1f77b4; stroke-width: 1.5"/>
    <path d="M 262.587984 154.628254 
L 262.587984 153.748278 
" clip-path="url(#p62c9b61af7)" style="fill: none; stroke: #1f77b4; stroke-width: 1.5"/>
    <path d="M 264.631876 156.754674 
L 264.631876 155.853739 
" clip-path="url(#p62c9b61af7)" style="fill: none; stroke: #1f77b4; stroke-width: 1.5"/>
    <path d="M 266.621073 158.123799 
L 266.621073 157.206106 
" clip-path="url(#p62c9b61af7)" style="fill: none; stroke: #1f77b4; stroke-width: 1.5"/>
    <path d="M 268.558425 159.617813 
L 268.558425 158.679905 
" clip-path="url(#p62c9b61af7)" style="fill: none; stroke: #1f77b4; stroke-width: 1.5"/>
    <path d="M 270.446566 161.14901 
L 270.446566 160.191319 
" clip-path="url(#p62c9b61af7)" style="fill: none; stroke: #1f77b4; stroke-width: 1.5"/>
    <path d="M 272.287935 161.414113 
L 272.287935 160.442251 
" clip-path="url(#p62c9b61af7)" style="fill: none; stroke: #1f77b4; stroke-width: 1.5"/>
    <path d="M 274.084793 162.000016 
L 274.084793 161.013398 
" clip-path="url(#p62c9b61af7)" style="fill: none; stroke: #1f77b4; stroke-width: 1.5"/>
    <path d="M 275.839241 162.507758 
L 275.839241 161.506138 
" clip-path="url(#p62c9b61af7)" style="fill: none; stroke: #1f77b4; stroke-width: 1.5"/>
    <path d="M 277.553235 161.579941 
L 277.553235 160.572413 
" clip-path="url(#p62c9b61af7)" style="fill: none; stroke: #1f77b4; stroke-width: 1.5"/>
    <path d="M 279.228599 162.496003 
L 279.228599 161.467331 
" clip-path="url(#p62c9b61af7)" style="fill: none; stroke: #1f77b4; stroke-width: 1.5"/>
    <path d="M 280.867036 162.829086 
L 280.867036 161.776771 
" clip-path="url(#p62c9b61af7)" style="fill: none; stroke: #1f77b4; stroke-width: 1.5"/>
    <path d="M 282.470138 163.159881 
L 282.470138 162.092554 
" clip-path="url(#p62c9b61af7)" style="fill: none; stroke: #1f77b4; stroke-width: 1.5"/>
    <path d="M 284.039397 163.544471 
L 284.039397 162.454872 
" clip-path="url(#p62c9b61af7)" style="fill: none; stroke: #1f77b4; stroke-width: 1.5"/>
    <path d="M 285.576213 163.085268 
L 285.576213 161.983503 
" clip-path="url(#p62c9b61af7)" style="fill: none; stroke: #1f77b4; stroke-width: 1.5"/>
    <path d="M 287.0819 164.196193 
L 287.0819 163.0643 
" clip-path="url(#p62c9b61af7)" style="fill: none; stroke: #1f77b4; stroke-width: 1.5"/>
    <path d="M 288.557694 165.260437 
L 288.557694 164.097774 
" clip-path="url(#p62c9b61af7)" style="fill: none; stroke: #1f77b4; stroke-width: 1.5"/>
    <path d="M 290.00476 164.398812 
L 290.00476 163.226869 
" clip-path="url(#p62c9b61af7)" style="fill: none; stroke: #1f77b4; stroke-width: 1.5"/>
    <path d="M 291.424194 165.12707 
L 291.424194 163.927286 
" clip-path="url(#p62c9b61af7)" style="fill: none; stroke: #1f77b4; stroke-width: 1.5"/>
    <path d="M 292.817031 165.13776 
L 292.817031 163.913658 
" clip-path="url(#p62c9b61af7)" style="fill: none; stroke: #1f77b4; stroke-width: 1.5"/>
    <path d="M 294.184251 165.593614 
L 294.184251 164.346946 
" clip-path="url(#p62c9b61af7)" style="fill: none; stroke: #1f77b4; stroke-width: 1.5"/>
    <path d="M 295.526778 164.637444 
L 295.526778 163.369674 
" clip-path="url(#p62c9b61af7)" style="fill: none; stroke: #1f77b4; stroke-width: 1.5"/>
    <path d="M 296.845488 165.395542 
L 296.845488 164.092841 
" clip-path="url(#p62c9b61af7)" style="fill: none; stroke: #1f77b4; stroke-width: 1.5"/>
    <path d="M 298.141213 166.46165 
L 298.141213 165.124378 
" clip-path="url(#p62c9b61af7)" style="fill: none; stroke: #1f77b4; stroke-width: 1.5"/>
    <path d="M 299.414739 167.150788 
L 299.414739 165.769894 
" clip-path="url(#p62c9b61af7)" style="fill: none; stroke: #1f77b4; stroke-width: 1.5"/>
    <path d="M 300.666815 166.873392 
L 300.666815 165.482936 
" clip-path="url(#p62c9b61af7)" style="fill: none; stroke: #1f77b4; stroke-width: 1.5"/>
    <path d="M 301.89815 165.879505 
L 301.89815 164.464698 
" clip-path="url(#p62c9b61af7)" style="fill: none; stroke: #1f77b4; stroke-width: 1.5"/>
    <path d="M 303.109422 167.531746 
L 303.109422 166.063768 
" clip-path="url(#p62c9b61af7)" style="fill: none; stroke: #1f77b4; stroke-width: 1.5"/>
    <path d="M 304.301272 167.997212 
L 304.301272 166.4853 
" clip-path="url(#p62c9b61af7)" style="fill: none; stroke: #1f77b4; stroke-width: 1.5"/>
    <path d="M 305.474315 168.201992 
L 305.474315 166.660251 
" clip-path="url(#p62c9b61af7)" style="fill: none; stroke: #1f77b4; stroke-width: 1.5"/>
    <path d="M 306.629135 167.817486 
L 306.629135 166.245411 
" clip-path="url(#p62c9b61af7)" style="fill: none; stroke: #1f77b4; stroke-width: 1.5"/>
    <path d="M 307.766289 167.328063 
L 307.766289 165.734532 
" clip-path="url(#p62c9b61af7)" style="fill: none; stroke: #1f77b4; stroke-width: 1.5"/>
    <path d="M 308.886309 168.897868 
L 308.886309 167.223099 
" clip-path="url(#p62c9b61af7)" style="fill: none; stroke: #1f77b4; stroke-width: 1.5"/>
    <path d="M 309.989705 168.010725 
L 309.989705 166.319067 
" clip-path="url(#p62c9b61af7)" style="fill: none; stroke: #1f77b4; stroke-width: 1.5"/>
    <path d="M 311.076962 167.973507 
L 311.076962 166.239858 
" clip-path="url(#p62c9b61af7)" style="fill: none; stroke: #1f77b4; stroke-width: 1.5"/>
    <path d="M 312.148546 169.5829 
L 312.148546 167.766817 
" clip-path="url(#p62c9b61af7)" style="fill: none; stroke: #1f77b4; stroke-width: 1.5"/>
    <path d="M 313.204902 169.01069 
L 313.204902 167.158371 
" clip-path="url(#p62c9b61af7)" style="fill: none; stroke: #1f77b4; stroke-width: 1.5"/>
    <path d="M 314.246457 168.400551 
L 314.246457 166.507795 
" clip-path="url(#p62c9b61af7)" style="fill: none; stroke: #1f77b4; stroke-width: 1.5"/>
    <path d="M 315.27362 169.74872 
L 315.27362 167.768572 
" clip-path="url(#p62c9b61af7)" style="fill: none; stroke: #1f77b4; stroke-width: 1.5"/>
    <path d="M 316.286783 167.991224 
L 316.286783 165.990022 
" clip-path="url(#p62c9b61af7)" style="fill: none; stroke: #1f77b4; stroke-width: 1.5"/>
    <path d="M 317.286324 166.989083 
L 317.286324 164.938176 
" clip-path="url(#p62c9b61af7)" style="fill: none; stroke: #1f77b4; stroke-width: 1.5"/>
    <path d="M 318.272602 168.179082 
L 318.272602 166.019014 
" clip-path="url(#p62c9b61af7)" style="fill: none; stroke: #1f77b4; stroke-width: 1.5"/>
    <path d="M 319.245967 168.426109 
L 319.245967 166.208721 
" clip-path="url(#p62c9b61af7)" style="fill: none; stroke: #1f77b4; stroke-width: 1.5"/>
    <path d="M 320.20675 170.157074 
L 320.20675 167.821963 
" clip-path="url(#p62c9b61af7)" style="fill: none; stroke: #1f77b4; stroke-width: 1.5"/>
    <path d="M 321.155275 168.739965 
L 321.155275 166.335478 
" clip-path="url(#p62c9b61af7)" style="fill: none; stroke: #1f77b4; stroke-width: 1.5"/>
    <path d="M 322.091848 169.689709 
L 322.091848 167.163188 
" clip-path="url(#p62c9b61af7)" style="fill: none; stroke: #1f77b4; stroke-width: 1.5"/>
    <path d="M 323.016769 168.311842 
L 323.016769 165.743529 
" clip-path="url(#p62c9b61af7)" style="fill: none; stroke: #1f77b4; stroke-width: 1.5"/>
    <path d="M 323.930323 166.962136 
L 323.930323 164.292739 
" clip-path="url(#p62c9b61af7)" style="fill: none; stroke: #1f77b4; stroke-width: 1.5"/>
    <path d="M 324.832786 169.190524 
L 324.832786 166.381634 
" clip-path="url(#p62c9b61af7)" style="fill: none; stroke: #1f77b4; stroke-width: 1.5"/>
    <path d="M 325.724424 169.084937 
L 325.724424 166.143846 
" clip-path="url(#p62c9b61af7)" style="fill: none; stroke: #1f77b4; stroke-width: 1.5"/>
    <path d="M 326.605495 167.853035 
L 326.605495 164.829087 
" clip-path="url(#p62c9b61af7)" style="fill: none; stroke: #1f77b4; stroke-width: 1.5"/>
    <path d="M 327.476245 170.146756 
L 327.476245 166.965617 
" clip-path="url(#p62c9b61af7)" style="fill: none; stroke: #1f77b4; stroke-width: 1.5"/>
    <path d="M 328.336913 167.308427 
L 328.336913 164.078002 
" clip-path="url(#p62c9b61af7)" style="fill: none; stroke: #1f77b4; stroke-width: 1.5"/>
    <path d="M 329.18773 171.511522 
L 329.18773 167.968998 
" clip-path="url(#p62c9b61af7)" style="fill: none; stroke: #1f77b4; stroke-width: 1.5"/>
    <path d="M 330.02892 168.417185 
L 330.02892 164.84562 
" clip-path="url(#p62c9b61af7)" style="fill: none; stroke: #1f77b4; stroke-width: 1.5"/>
    <path d="M 330.860698 169.590361 
L 330.860698 165.858354 
" clip-path="url(#p62c9b61af7)" style="fill: none; stroke: #1f77b4; stroke-width: 1.5"/>
    <path d="M 331.683271 168.432346 
L 331.683271 164.607452 
" clip-path="url(#p62c9b61af7)" style="fill: none; stroke: #1f77b4; stroke-width: 1.5"/>
    <path d="M 332.496842 170.911645 
L 332.496842 166.833051 
" clip-path="url(#p62c9b61af7)" style="fill: none; stroke: #1f77b4; stroke-width: 1.5"/>
    <path d="M 333.301605 172.055914 
L 333.301605 167.738828 
" clip-path="url(#p62c9b61af7)" style="fill: none; stroke: #1f77b4; stroke-width: 1.5"/>
    <path d="M 334.097749 168.89508 
L 334.097749 164.541273 
" clip-path="url(#p62c9b61af7)" style="fill: none; stroke: #1f77b4; stroke-width: 1.5"/>
    <path d="M 334.885457 169.987469 
L 334.885457 165.438609 
" clip-path="url(#p62c9b61af7)" style="fill: none; stroke: #1f77b4; stroke-width: 1.5"/>
    <path d="M 335.664906 171.391542 
L 335.664906 166.747838 
" clip-path="url(#p62c9b61af7)" style="fill: none; stroke: #1f77b4; stroke-width: 1.5"/>
    <path d="M 336.436267 170.766282 
L 336.436267 165.856721 
" clip-path="url(#p62c9b61af7)" style="fill: none; stroke: #1f77b4; stroke-width: 1.5"/>
    <path d="M 337.199705 174.171794 
L 337.199705 168.942676 
" clip-path="url(#p62c9b61af7)" style="fill: none; stroke: #1f77b4; stroke-width: 1.5"/>
    <path d="M 337.955383 171.822672 
L 337.955383 166.611227 
" clip-path="url(#p62c9b61af7)" style="fill: none; stroke: #1f77b4; stroke-width: 1.5"/>
    <path d="M 338.703456 174.591397 
L 338.703456 169.092827 
" clip-path="url(#p62c9b61af7)" style="fill: none; stroke: #1f77b4; stroke-width: 1.5"/>
    <path d="M 339.444077 168.22592 
L 339.444077 162.802399 
" clip-path="url(#p62c9b61af7)" style="fill: none; stroke: #1f77b4; stroke-width: 1.5"/>
    <path d="M 340.177391 176.547686 
L 340.177391 170.47259 
" clip-path="url(#p62c9b61af7)" style="fill: none; stroke: #1f77b4; stroke-width: 1.5"/>
    <path d="M 340.903542 175.573371 
L 340.903542 169.266009 
" clip-path="url(#p62c9b61af7)" style="fill: none; stroke: #1f77b4; stroke-width: 1.5"/>
    <path d="M 341.622668 170.723691 
L 341.622668 164.574992 
" clip-path="url(#p62c9b61af7)" style="fill: none; stroke: #1f77b4; stroke-width: 1.5"/>
    <path d="M 342.334904 169.935279 
L 342.334904 163.574659 
" clip-path="url(#p62c9b61af7)" style="fill: none; stroke: #1f77b4; stroke-width: 1.5"/>
    <path d="M 343.040381 169.175644 
L 343.040381 162.533512 
" clip-path="url(#p62c9b61af7)" style="fill: none; stroke: #1f77b4; stroke-width: 1.5"/>
    <path d="M 343.739226 173.502846 
L 343.739226 166.259511 
" clip-path="url(#p62c9b61af7)" style="fill: none; stroke: #1f77b4; stroke-width: 1.5"/>
    <path d="M 344.431562 174.436155 
L 344.431562 166.797707 
" clip-path="url(#p62c9b61af7)" style="fill: none; stroke: #1f77b4; stroke-width: 1.5"/>
    <path d="M 345.117509 170.086841 
L 345.117509 162.571548 
" clip-path="url(#p62c9b61af7)" style="fill: none; stroke: #1f77b4; stroke-width: 1.5"/>
    <path d="M 345.797185 168.759938 
L 345.797185 161.143757 
" clip-path="url(#p62c9b61af7)" style="fill: none; stroke: #1f77b4; stroke-width: 1.5"/>
    <path d="M 346.470703 182.997901 
L 346.470703 173.342461 
" clip-path="url(#p62c9b61af7)" style="fill: none; stroke: #1f77b4; stroke-width: 1.5"/>
    <path d="M 347.138173 179.11915 
L 347.138173 169.80494 
" clip-path="url(#p62c9b61af7)" style="fill: none; stroke: #1f77b4; stroke-width: 1.5"/>
    <path d="M 347.799703 181.773524 
L 347.799703 172.062734 
" clip-path="url(#p62c9b61af7)" style="fill: none; stroke: #1f77b4; stroke-width: 1.5"/>
    <path d="M 348.455398 186.014682 
L 348.455398 175.632375 
" clip-path="url(#p62c9b61af7)" style="fill: none; stroke: #1f77b4; stroke-width: 1.5"/>
    <path d="M 349.10536 172.730719 
L 349.10536 162.951863 
" clip-path="url(#p62c9b61af7)" style="fill: none; stroke: #1f77b4; stroke-width: 1.5"/>
    <path d="M 349.749689 178.35101 
L 349.749689 167.895394 
" clip-path="url(#p62c9b61af7)" style="fill: none; stroke: #1f77b4; stroke-width: 1.5"/>
    <path d="M 350.388481 181.251736 
L 350.388481 169.852026 
" clip-path="url(#p62c9b61af7)" style="fill: none; stroke: #1f77b4; stroke-width: 1.5"/>
    <path d="M 351.02183 170.618341 
L 351.02183 160.121724 
" clip-path="url(#p62c9b61af7)" style="fill: none; stroke: #1f77b4; stroke-width: 1.5"/>
    <path d="M 351.649828 177.339637 
L 351.649828 166.171092 
" clip-path="url(#p62c9b61af7)" style="fill: none; stroke: #1f77b4; stroke-width: 1.5"/>
    <path d="M 352.272566 186.422735 
L 352.272566 172.240768 
" clip-path="url(#p62c9b61af7)" style="fill: none; stroke: #1f77b4; stroke-width: 1.5"/>
    <path d="M 352.890131 185.724915 
L 352.890131 170.892841 
" clip-path="url(#p62c9b61af7)" style="fill: none; stroke: #1f77b4; stroke-width: 1.5"/>
    <path d="M 353.502607 175.835438 
L 353.502607 162.85258 
" clip-path="url(#p62c9b61af7)" style="fill: none; stroke: #1f77b4; stroke-width: 1.5"/>
    <path d="M 354.110078 185.131415 
L 354.110078 169.423609 
" clip-path="url(#p62c9b61af7)" style="fill: none; stroke: #1f77b4; stroke-width: 1.5"/>
    <path d="M 354.712625 179.118638 
L 354.712625 164.370603 
" clip-path="url(#p62c9b61af7)" style="fill: none; stroke: #1f77b4; stroke-width: 1.5"/>
    <path d="M 355.310327 172.84718 
L 355.310327 158.429449 
" clip-path="url(#p62c9b61af7)" style="fill: none; stroke: #1f77b4; stroke-width: 1.5"/>
    <path d="M 355.903262 183.502345 
L 355.903262 167.531329 
" clip-path="url(#p62c9b61af7)" style="fill: none; stroke: #1f77b4; stroke-width: 1.5"/>
    <path d="M 356.491505 177.466341 
L 356.491505 161.464014 
" clip-path="url(#p62c9b61af7)" style="fill: none; stroke: #1f77b4; stroke-width: 1.5"/>
    <path d="M 357.07513 190.271512 
L 357.07513 171.559662 
" clip-path="url(#p62c9b61af7)" style="fill: none; stroke: #1f77b4; stroke-width: 1.5"/>
    <path d="M 357.654208 182.093658 
L 357.654208 164.106091 
" clip-path="url(#p62c9b61af7)" style="fill: none; stroke: #1f77b4; stroke-width: 1.5"/>
    <path d="M 358.228811 170.333235 
L 358.228811 153.28968 
" clip-path="url(#p62c9b61af7)" style="fill: none; stroke: #1f77b4; stroke-width: 1.5"/>
    <path d="M 358.799005 162.486965 
L 358.799005 145.937636 
" clip-path="url(#p62c9b61af7)" style="fill: none; stroke: #1f77b4; stroke-width: 1.5"/>
    <path d="M 359.36486 187.743456 
L 359.36486 163.958869 
" clip-path="url(#p62c9b61af7)" style="fill: none; stroke: #1f77b4; stroke-width: 1.5"/>
    <path d="M 359.92644 169.983114 
L 359.92644 148.875973 
" clip-path="url(#p62c9b61af7)" style="fill: none; stroke: #1f77b4; stroke-width: 1.5"/>
    <path d="M 360.483809 177.735005 
L 360.483809 151.459813 
" clip-path="url(#p62c9b61af7)" style="fill: none; stroke: #1f77b4; stroke-width: 1.5"/>
    <path d="M 361.03703 193.389209 
L 361.03703 160.497357 
" clip-path="url(#p62c9b61af7)" style="fill: none; stroke: #1f77b4; stroke-width: 1.5"/>
    <path d="M 361.586164 207.021129 
L 361.586164 164.081465 
" clip-path="url(#p62c9b61af7)" style="fill: none; stroke: #1f77b4; stroke-width: 1.5"/>
    <path d="M 362.131272 203.214323 
L 362.131272 164.64966 
" clip-path="url(#p62c9b61af7)" style="fill: none; stroke: #1f77b4; stroke-width: 1.5"/>
    <path d="M 362.672411 217.106985 
L 362.672411 168.368062 
" clip-path="url(#p62c9b61af7)" style="fill: none; stroke: #1f77b4; stroke-width: 1.5"/>
    <path d="M 363.20964 217.150615 
L 363.20964 146.345941 
" clip-path="url(#p62c9b61af7)" style="fill: none; stroke: #1f77b4; stroke-width: 1.5"/>
    <path d="M 363.743014 218.88 
L 363.743014 145.390239 
" clip-path="url(#p62c9b61af7)" style="fill: none; stroke: #1f77b4; stroke-width: 1.5"/>
    <path d="M 364.272589 217.254139 
L 364.272589 139.225972 
" clip-path="url(#p62c9b61af7)" style="fill: none; stroke: #1f77b4; stroke-width: 1.5"/>
    <path clip-path="url(#p62c9b61af7)" style="fill: none; stroke: #1f77b4; stroke-width: 1.5"/>
   </g>
  </g>
 </g>
 <defs>
  <clipPath id="p62c9b61af7">
   <rect x="45.478125" y="7.2" width="334.8" height="221.76"/>
  </clipPath>
 </defs>
</svg>
