<?xml version="1.0" encoding="UTF-8" standalone="no"?>
<!DOCTYPE svg PUBLIC "-//W3C//DTD SVG 1.1//EN"
 "http://www.w3.org/Graphics/SVG/1.1/DTD/svg11.dtd">
<!-- Generated by graphviz version 2.43.0 (0)
 -->
<!-- Title: %3 Pages: 1 -->
<svg width="830pt" height="445pt"
 viewBox="0.00 0.00 829.50 445.00" xmlns="http://www.w3.org/2000/svg" xmlns:xlink="http://www.w3.org/1999/xlink">
<g id="graph0" class="graph" transform="scale(1 1) rotate(0) translate(4 441)">
<title>%3</title>
<polygon fill="white" stroke="transparent" points="-4,4 -4,-441 825.5,-441 825.5,4 -4,4"/>
<!-- BeamCenter -->
<g id="node1" class="node">
<title>BeamCenter</title>
<polygon fill="none" stroke="black" points="669,-373 563,-373 563,-350 669,-350 669,-373"/>
<text text-anchor="middle" x="616" y="-357.8" font-family="Times,serif" font-size="14.00">BeamCenter</text>
</g>
<!-- DetectorEdgeMask -->
<g id="node6" class="node">
<title>DetectorEdgeMask</title>
<polygon fill="none" stroke="black" points="657,-171 503,-171 503,-138 657,-138 657,-171"/>
<text text-anchor="start" x="511" y="-156.8" font-family="Times,serif" font-size="14.00">DetectorEdgeMask</text>
<text text-anchor="start" x="512" y="-145.2" font-family="Times,serif" font-size="11.00">via:</text>
<text text-anchor="start" x="533" y="-145.2" font-family="Times,serif" font-style="italic" font-size="11.00">detector_edge_mask</text>
</g>
<!-- BeamCenter&#45;&gt;DetectorEdgeMask -->
<g id="edge3" class="edge">
<title>BeamCenter&#45;&gt;DetectorEdgeMask</title>
<path fill="none" stroke="black" d="M615.45,-349.77C614.51,-333.67 612.28,-302.33 608,-276 602.62,-242.95 593.41,-205.45 587.02,-181.19"/>
<polygon fill="black" stroke="black" points="590.36,-180.11 584.4,-171.35 583.59,-181.91 590.36,-180.11"/>
</g>
<!-- SampleHolderMask -->
<g id="node8" class="node">
<title>SampleHolderMask</title>
<polygon fill="none" stroke="black" points="821.5,-171 664.5,-171 664.5,-138 821.5,-138 821.5,-171"/>
<text text-anchor="start" x="672.5" y="-156.8" font-family="Times,serif" font-size="14.00">SampleHolderMask</text>
<text text-anchor="start" x="673.5" y="-145.2" font-family="Times,serif" font-size="11.00">via:</text>
<text text-anchor="start" x="694.5" y="-145.2" font-family="Times,serif" font-style="italic" font-size="11.00">sample_holder_mask</text>
</g>
<!-- BeamCenter&#45;&gt;SampleHolderMask -->
<g id="edge14" class="edge">
<title>BeamCenter&#45;&gt;SampleHolderMask</title>
<path fill="none" stroke="black" d="M646.16,-349.89C687.38,-333.56 759.65,-297.94 790,-240 796.81,-227.01 795.3,-220.67 790,-207 785.85,-196.29 778.31,-186.43 770.47,-178.28"/>
<polygon fill="black" stroke="black" points="772.89,-175.75 763.27,-171.29 768.01,-180.77 772.89,-175.75"/>
</g>
<!-- DetectorPositionOffset[SampleRun] -->
<g id="node9" class="node">
<title>DetectorPositionOffset[SampleRun]</title>
<polygon fill="none" stroke="black" points="604.5,-309 333.5,-309 333.5,-276 604.5,-276 604.5,-309"/>
<text text-anchor="start" x="341.5" y="-294.8" font-family="Times,serif" font-size="14.00">DetectorPositionOffset[SampleRun]</text>
<text text-anchor="start" x="383" y="-283.2" font-family="Times,serif" font-size="11.00">via:</text>
<text text-anchor="start" x="404" y="-283.2" font-family="Times,serif" font-style="italic" font-size="11.00">to_detector_position_offset</text>
</g>
<!-- BeamCenter&#45;&gt;DetectorPositionOffset[SampleRun] -->
<g id="edge8" class="edge">
<title>BeamCenter&#45;&gt;DetectorPositionOffset[SampleRun]</title>
<path fill="none" stroke="black" d="M592.71,-349.88C571.22,-340.09 538.77,-325.3 512.49,-313.32"/>
<polygon fill="black" stroke="black" points="513.68,-310.02 503.12,-309.05 510.77,-316.39 513.68,-310.02"/>
</g>
<!-- WavelengthDetector[SampleRun] -->
<g id="node2" class="node">
<title>WavelengthDetector[SampleRun]</title>
<polygon fill="none" stroke="black" points="513.5,-102 258.5,-102 258.5,-69 513.5,-69 513.5,-102"/>
<text text-anchor="start" x="266.5" y="-87.8" font-family="Times,serif" font-size="14.00">WavelengthDetector[SampleRun]</text>
<text text-anchor="start" x="319.5" y="-76.2" font-family="Times,serif" font-size="11.00">via:</text>
<text text-anchor="start" x="340.5" y="-76.2" font-family="Times,serif" font-style="italic" font-size="11.00">data_to_wavelength</text>
</g>
<!-- CorrectedDetector[SampleRun, Numerator] -->
<g id="node3" class="node">
<title>CorrectedDetector[SampleRun, Numerator]</title>
<polygon fill="none" stroke="black" points="654,-33 324,-33 324,0 654,0 654,-33"/>
<text text-anchor="start" x="332" y="-18.8" font-family="Times,serif" font-size="14.00">CorrectedDetector[SampleRun, Numerator]</text>
<text text-anchor="start" x="426.5" y="-7.2" font-family="Times,serif" font-size="11.00">via:</text>
<text text-anchor="start" x="447.5" y="-7.2" font-family="Times,serif" font-style="italic" font-size="11.00">apply_pixel_masks</text>
</g>
<!-- WavelengthDetector[SampleRun]&#45;&gt;CorrectedDetector[SampleRun, Numerator] -->
<g id="edge1" class="edge">
<title>WavelengthDetector[SampleRun]&#45;&gt;CorrectedDetector[SampleRun, Numerator]</title>
<path fill="none" stroke="black" d="M409.89,-68.96C423.7,-59.98 441.27,-48.55 456.34,-38.74"/>
<polygon fill="black" stroke="black" points="458.41,-41.57 464.88,-33.19 454.59,-35.71 458.41,-41.57"/>
</g>
<!-- DetectorMasks -->
<g id="node4" class="node">
<title>DetectorMasks</title>
<polygon fill="none" stroke="black" points="663.5,-102 520.5,-102 520.5,-69 663.5,-69 663.5,-102"/>
<text text-anchor="start" x="537.5" y="-87.8" font-family="Times,serif" font-size="14.00">DetectorMasks</text>
<text text-anchor="start" x="528.5" y="-76.2" font-family="Times,serif" font-size="11.00">via:</text>
<text text-anchor="start" x="549.5" y="-76.2" font-family="Times,serif" font-style="italic" font-size="11.00">to_detector_masks</text>
</g>
<!-- DetectorMasks&#45;&gt;CorrectedDetector[SampleRun, Numerator] -->
<g id="edge2" class="edge">
<title>DetectorMasks&#45;&gt;CorrectedDetector[SampleRun, Numerator]</title>
<path fill="none" stroke="black" d="M568.11,-68.96C554.3,-59.98 536.73,-48.55 521.66,-38.74"/>
<polygon fill="black" stroke="black" points="523.41,-35.71 513.12,-33.19 519.59,-41.57 523.41,-35.71"/>
</g>
<!-- DetectorBankOffset -->
<g id="node5" class="node">
<title>DetectorBankOffset</title>
<polygon fill="none" stroke="black" points="548,-373 390,-373 390,-350 548,-350 548,-373"/>
<text text-anchor="middle" x="469" y="-357.8" font-family="Times,serif" font-size="14.00">DetectorBankOffset</text>
</g>
<!-- DetectorBankOffset&#45;&gt;DetectorPositionOffset[SampleRun] -->
<g id="edge7" class="edge">
<title>DetectorBankOffset&#45;&gt;DetectorPositionOffset[SampleRun]</title>
<path fill="none" stroke="black" d="M469,-349.74C469,-341.52 469,-329.86 469,-319.28"/>
<polygon fill="black" stroke="black" points="472.5,-319.23 469,-309.23 465.5,-319.24 472.5,-319.23"/>
</g>
<!-- DetectorEdgeMask&#45;&gt;DetectorMasks -->
<g id="edge5" class="edge">
<title>DetectorEdgeMask&#45;&gt;DetectorMasks</title>
<path fill="none" stroke="black" d="M582.78,-137.96C584.14,-130.38 585.81,-121.05 587.36,-112.42"/>
<polygon fill="black" stroke="black" points="590.83,-112.88 589.15,-102.42 583.94,-111.65 590.83,-112.88"/>
</g>
<!-- EmptyDetector[SampleRun] -->
<g id="node7" class="node">
<title>EmptyDetector[SampleRun]</title>
<polygon fill="none" stroke="black" points="578,-240 360,-240 360,-207 578,-207 578,-240"/>
<text text-anchor="start" x="368" y="-225.8" font-family="Times,serif" font-size="14.00">EmptyDetector[SampleRun]</text>
<text text-anchor="start" x="379.5" y="-214.2" font-family="Times,serif" font-size="11.00">via:</text>
<text text-anchor="start" x="400.5" y="-214.2" font-family="Times,serif" font-style="italic" font-size="11.00">get_calibrated_isis_detector</text>
</g>
<!-- EmptyDetector[SampleRun]&#45;&gt;DetectorEdgeMask -->
<g id="edge4" class="edge">
<title>EmptyDetector[SampleRun]&#45;&gt;DetectorEdgeMask</title>
<path fill="none" stroke="black" d="M494.74,-206.96C509.77,-197.89 528.92,-186.33 545.26,-176.47"/>
<polygon fill="black" stroke="black" points="547.26,-179.35 554.01,-171.19 543.64,-173.36 547.26,-179.35"/>
</g>
<!-- EmptyDetector[SampleRun]&#45;&gt;SampleHolderMask -->
<g id="edge15" class="edge">
<title>EmptyDetector[SampleRun]&#45;&gt;SampleHolderMask</title>
<path fill="none" stroke="black" d="M532.55,-206.96C573.47,-196.95 626.8,-183.91 669.54,-173.46"/>
<polygon fill="black" stroke="black" points="670.44,-176.85 679.32,-171.07 668.78,-170.05 670.44,-176.85"/>
</g>
<!-- RawDetector[SampleRun] -->
<g id="node14" class="node">
<title>RawDetector[SampleRun]</title>
<polygon fill="none" stroke="black" points="495.5,-171 276.5,-171 276.5,-138 495.5,-138 495.5,-171"/>
<text text-anchor="start" x="293" y="-156.8" font-family="Times,serif" font-size="14.00">RawDetector[SampleRun]</text>
<text text-anchor="start" x="284.5" y="-145.2" font-family="Times,serif" font-size="11.00">via:</text>
<text text-anchor="start" x="305.5" y="-145.2" font-family="Times,serif" font-style="italic" font-size="11.00">dummy_assemble_detector_data</text>
</g>
<!-- EmptyDetector[SampleRun]&#45;&gt;RawDetector[SampleRun] -->
<g id="edge13" class="edge">
<title>EmptyDetector[SampleRun]&#45;&gt;RawDetector[SampleRun]</title>
<path fill="none" stroke="black" d="M449.75,-206.96C438.93,-198.23 425.25,-187.19 413.34,-177.57"/>
<polygon fill="black" stroke="black" points="415.41,-174.75 405.43,-171.19 411.02,-180.19 415.41,-174.75"/>
</g>
<!-- SampleHolderMask&#45;&gt;DetectorMasks -->
<g id="edge6" class="edge">
<title>SampleHolderMask&#45;&gt;DetectorMasks</title>
<path fill="none" stroke="black" d="M707.98,-137.96C686.61,-128.48 659.11,-116.28 636.25,-106.13"/>
<polygon fill="black" stroke="black" points="637.65,-102.93 627.09,-102.07 634.81,-109.33 637.65,-102.93"/>
</g>
<!-- DetectorPositionOffset[SampleRun]&#45;&gt;EmptyDetector[SampleRun] -->
<g id="edge10" class="edge">
<title>DetectorPositionOffset[SampleRun]&#45;&gt;EmptyDetector[SampleRun]</title>
<path fill="none" stroke="black" d="M469,-275.96C469,-268.38 469,-259.05 469,-250.42"/>
<polygon fill="black" stroke="black" points="472.5,-250.42 469,-240.42 465.5,-250.42 472.5,-250.42"/>
</g>
<!-- NeXusComponent[NXdetector, SampleRun] -->
<g id="node10" class="node">
<title>NeXusComponent[NXdetector, SampleRun]</title>
<polygon fill="none" stroke="black" points="326,-309 0,-309 0,-276 326,-276 326,-309"/>
<text text-anchor="start" x="8" y="-294.8" font-family="Times,serif" font-size="14.00">NeXusComponent[NXdetector, SampleRun]</text>
<text text-anchor="start" x="102" y="-283.2" font-family="Times,serif" font-size="11.00">via:</text>
<text text-anchor="start" x="123" y="-283.2" font-family="Times,serif" font-style="italic" font-size="11.00">get_detector_data</text>
</g>
<!-- NeXusComponent[NXdetector, SampleRun]&#45;&gt;EmptyDetector[SampleRun] -->
<g id="edge9" class="edge">
<title>NeXusComponent[NXdetector, SampleRun]&#45;&gt;EmptyDetector[SampleRun]</title>
<path fill="none" stroke="black" d="M233.97,-275.96C280.04,-265.87 340.2,-252.7 388.12,-242.21"/>
<polygon fill="black" stroke="black" points="389.13,-245.57 398.15,-240.01 387.63,-238.73 389.13,-245.57"/>
</g>
<!-- Filename[SampleRun] -->
<g id="node11" class="node">
<title>Filename[SampleRun]</title>
<polygon fill="none" stroke="black" points="250.5,-437 75.5,-437 75.5,-414 250.5,-414 250.5,-437"/>
<text text-anchor="middle" x="163" y="-421.8" font-family="Times,serif" font-size="14.00">Filename[SampleRun]</text>
</g>
<!-- LoadedFileContents[SampleRun] -->
<g id="node12" class="node">
<title>LoadedFileContents[SampleRun]</title>
<polygon fill="none" stroke="black" points="289,-378 37,-378 37,-345 289,-345 289,-378"/>
<text text-anchor="start" x="45" y="-363.8" font-family="Times,serif" font-size="14.00">LoadedFileContents[SampleRun]</text>
<text text-anchor="start" x="104.5" y="-352.2" font-family="Times,serif" font-size="11.00">via:</text>
<text text-anchor="start" x="125.5" y="-352.2" font-family="Times,serif" font-style="italic" font-size="11.00">load_tutorial_run</text>
</g>
<!-- Filename[SampleRun]&#45;&gt;LoadedFileContents[SampleRun] -->
<g id="edge11" class="edge">
<title>Filename[SampleRun]&#45;&gt;LoadedFileContents[SampleRun]</title>
<path fill="none" stroke="black" d="M163,-413.98C163,-406.93 163,-397.32 163,-388.31"/>
<polygon fill="black" stroke="black" points="166.5,-388.2 163,-378.2 159.5,-388.2 166.5,-388.2"/>
</g>
<!-- LoadedFileContents[SampleRun]&#45;&gt;NeXusComponent[NXdetector, SampleRun] -->
<g id="edge12" class="edge">
<title>LoadedFileContents[SampleRun]&#45;&gt;NeXusComponent[NXdetector, SampleRun]</title>
<path fill="none" stroke="black" d="M163,-344.96C163,-337.38 163,-328.05 163,-319.42"/>
<polygon fill="black" stroke="black" points="166.5,-319.42 163,-309.42 159.5,-319.42 166.5,-319.42"/>
</g>
<!-- LowCountThreshold -->
<g id="node13" class="node">
<title>LowCountThreshold</title>
<polygon fill="none" stroke="black" points="787,-235 627,-235 627,-212 787,-212 787,-235"/>
<text text-anchor="middle" x="707" y="-219.8" font-family="Times,serif" font-size="14.00">LowCountThreshold</text>
</g>
<!-- LowCountThreshold&#45;&gt;SampleHolderMask -->
<g id="edge16" class="edge">
<title>LowCountThreshold&#45;&gt;SampleHolderMask</title>
<path fill="none" stroke="black" d="M712.78,-211.74C717.33,-203.27 723.86,-191.13 729.68,-180.29"/>
<polygon fill="black" stroke="black" points="732.9,-181.7 734.55,-171.23 726.73,-178.39 732.9,-181.7"/>
</g>
<!-- RawDetector[SampleRun]&#45;&gt;WavelengthDetector[SampleRun] -->
<g id="edge17" class="edge">
<title>RawDetector[SampleRun]&#45;&gt;WavelengthDetector[SampleRun]</title>
<path fill="none" stroke="black" d="M386,-137.96C386,-130.38 386,-121.05 386,-112.42"/>
<polygon fill="black" stroke="black" points="389.5,-112.42 386,-102.42 382.5,-112.42 389.5,-112.42"/>
</g>
</g>
</svg>
