<?xml version="1.0" encoding="utf-8" standalone="no"?>
<!DOCTYPE svg PUBLIC "-//W3C//DTD SVG 1.1//EN"
  "http://www.w3.org/Graphics/SVG/1.1/DTD/svg11.dtd">
<svg xmlns:xlink="http://www.w3.org/1999/xlink" width="387.478125pt" height="282.557813pt" viewBox="0 0 387.478125 282.557813" xmlns="http://www.w3.org/2000/svg" version="1.1">
 <metadata>
  <rdf:RDF xmlns:dc="http://purl.org/dc/elements/1.1/" xmlns:cc="http://creativecommons.org/ns#" xmlns:rdf="http://www.w3.org/1999/02/22-rdf-syntax-ns#">
   <cc:Work>
    <dc:type rdf:resource="http://purl.org/dc/dcmitype/StillImage"/>
    <dc:date>2024-10-07T09:44:36.625839</dc:date>
    <dc:format>image/svg+xml</dc:format>
    <dc:creator>
     <cc:Agent>
      <dc:title>Matplotlib v3.9.2, https://matplotlib.org/</dc:title>
     </cc:Agent>
    </dc:creator>
   </cc:Work>
  </rdf:RDF>
 </metadata>
 <defs>
  <style type="text/css">*{stroke-linejoin: round; stroke-linecap: butt}</style>
 </defs>
 <g id="figure_1">
  <g id="patch_1">
   <path d="M 0 282.557813 
L 387.478125 282.557813 
L 387.478125 0 
L 0 0 
z
" style="fill: #ffffff"/>
  </g>
  <g id="axes_1">
   <g id="patch_2">
    <path d="M 45.478125 244.078125 
L 380.278125 244.078125 
L 380.278125 22.318125 
L 45.478125 22.318125 
z
" style="fill: #ffffff"/>
   </g>
   <g id="matplotlib.axis_1">
    <g id="xtick_1">
     <g id="line2d_1">
      <defs>
       <path id="m3990146374" d="M 0 0 
L 0 3.5 
" style="stroke: #000000; stroke-width: 0.8"/>
      </defs>
      <g>
       <use xlink:href="#m3990146374" x="50.201009" y="244.078125" style="stroke: #000000; stroke-width: 0.8"/>
      </g>
     </g>
     <g id="text_1">
      <!-- 0.00 -->
      <g transform="translate(39.068197 258.676562) scale(0.1 -0.1)">
       <defs>
        <path id="DejaVuSans-30" d="M 2034 4250 
Q 1547 4250 1301 3770 
Q 1056 3291 1056 2328 
Q 1056 1369 1301 889 
Q 1547 409 2034 409 
Q 2525 409 2770 889 
Q 3016 1369 3016 2328 
Q 3016 3291 2770 3770 
Q 2525 4250 2034 4250 
z
M 2034 4750 
Q 2819 4750 3233 4129 
Q 3647 3509 3647 2328 
Q 3647 1150 3233 529 
Q 2819 -91 2034 -91 
Q 1250 -91 836 529 
Q 422 1150 422 2328 
Q 422 3509 836 4129 
Q 1250 4750 2034 4750 
z
" transform="scale(0.015625)"/>
        <path id="DejaVuSans-2e" d="M 684 794 
L 1344 794 
L 1344 0 
L 684 0 
L 684 794 
z
" transform="scale(0.015625)"/>
       </defs>
       <use xlink:href="#DejaVuSans-30"/>
       <use xlink:href="#DejaVuSans-2e" x="63.623047"/>
       <use xlink:href="#DejaVuSans-30" x="95.410156"/>
       <use xlink:href="#DejaVuSans-30" x="159.033203"/>
      </g>
     </g>
    </g>
    <g id="xtick_2">
     <g id="line2d_2">
      <g>
       <use xlink:href="#m3990146374" x="102.677498" y="244.078125" style="stroke: #000000; stroke-width: 0.8"/>
      </g>
     </g>
     <g id="text_2">
      <!-- 0.05 -->
      <g transform="translate(91.544686 258.676562) scale(0.1 -0.1)">
       <defs>
        <path id="DejaVuSans-35" d="M 691 4666 
L 3169 4666 
L 3169 4134 
L 1269 4134 
L 1269 2991 
Q 1406 3038 1543 3061 
Q 1681 3084 1819 3084 
Q 2600 3084 3056 2656 
Q 3513 2228 3513 1497 
Q 3513 744 3044 326 
Q 2575 -91 1722 -91 
Q 1428 -91 1123 -41 
Q 819 9 494 109 
L 494 744 
Q 775 591 1075 516 
Q 1375 441 1709 441 
Q 2250 441 2565 725 
Q 2881 1009 2881 1497 
Q 2881 1984 2565 2268 
Q 2250 2553 1709 2553 
Q 1456 2553 1204 2497 
Q 953 2441 691 2322 
L 691 4666 
z
" transform="scale(0.015625)"/>
       </defs>
       <use xlink:href="#DejaVuSans-30"/>
       <use xlink:href="#DejaVuSans-2e" x="63.623047"/>
       <use xlink:href="#DejaVuSans-30" x="95.410156"/>
       <use xlink:href="#DejaVuSans-35" x="159.033203"/>
      </g>
     </g>
    </g>
    <g id="xtick_3">
     <g id="line2d_3">
      <g>
       <use xlink:href="#m3990146374" x="155.153987" y="244.078125" style="stroke: #000000; stroke-width: 0.8"/>
      </g>
     </g>
     <g id="text_3">
      <!-- 0.10 -->
      <g transform="translate(144.021175 258.676562) scale(0.1 -0.1)">
       <defs>
        <path id="DejaVuSans-31" d="M 794 531 
L 1825 531 
L 1825 4091 
L 703 3866 
L 703 4441 
L 1819 4666 
L 2450 4666 
L 2450 531 
L 3481 531 
L 3481 0 
L 794 0 
L 794 531 
z
" transform="scale(0.015625)"/>
       </defs>
       <use xlink:href="#DejaVuSans-30"/>
       <use xlink:href="#DejaVuSans-2e" x="63.623047"/>
       <use xlink:href="#DejaVuSans-31" x="95.410156"/>
       <use xlink:href="#DejaVuSans-30" x="159.033203"/>
      </g>
     </g>
    </g>
    <g id="xtick_4">
     <g id="line2d_4">
      <g>
       <use xlink:href="#m3990146374" x="207.630476" y="244.078125" style="stroke: #000000; stroke-width: 0.8"/>
      </g>
     </g>
     <g id="text_4">
      <!-- 0.15 -->
      <g transform="translate(196.497664 258.676562) scale(0.1 -0.1)">
       <use xlink:href="#DejaVuSans-30"/>
       <use xlink:href="#DejaVuSans-2e" x="63.623047"/>
       <use xlink:href="#DejaVuSans-31" x="95.410156"/>
       <use xlink:href="#DejaVuSans-35" x="159.033203"/>
      </g>
     </g>
    </g>
    <g id="xtick_5">
     <g id="line2d_5">
      <g>
       <use xlink:href="#m3990146374" x="260.106965" y="244.078125" style="stroke: #000000; stroke-width: 0.8"/>
      </g>
     </g>
     <g id="text_5">
      <!-- 0.20 -->
      <g transform="translate(248.974153 258.676562) scale(0.1 -0.1)">
       <defs>
        <path id="DejaVuSans-32" d="M 1228 531 
L 3431 531 
L 3431 0 
L 469 0 
L 469 531 
Q 828 903 1448 1529 
Q 2069 2156 2228 2338 
Q 2531 2678 2651 2914 
Q 2772 3150 2772 3378 
Q 2772 3750 2511 3984 
Q 2250 4219 1831 4219 
Q 1534 4219 1204 4116 
Q 875 4013 500 3803 
L 500 4441 
Q 881 4594 1212 4672 
Q 1544 4750 1819 4750 
Q 2544 4750 2975 4387 
Q 3406 4025 3406 3419 
Q 3406 3131 3298 2873 
Q 3191 2616 2906 2266 
Q 2828 2175 2409 1742 
Q 1991 1309 1228 531 
z
" transform="scale(0.015625)"/>
       </defs>
       <use xlink:href="#DejaVuSans-30"/>
       <use xlink:href="#DejaVuSans-2e" x="63.623047"/>
       <use xlink:href="#DejaVuSans-32" x="95.410156"/>
       <use xlink:href="#DejaVuSans-30" x="159.033203"/>
      </g>
     </g>
    </g>
    <g id="xtick_6">
     <g id="line2d_6">
      <g>
       <use xlink:href="#m3990146374" x="312.583454" y="244.078125" style="stroke: #000000; stroke-width: 0.8"/>
      </g>
     </g>
     <g id="text_6">
      <!-- 0.25 -->
      <g transform="translate(301.450642 258.676562) scale(0.1 -0.1)">
       <use xlink:href="#DejaVuSans-30"/>
       <use xlink:href="#DejaVuSans-2e" x="63.623047"/>
       <use xlink:href="#DejaVuSans-32" x="95.410156"/>
       <use xlink:href="#DejaVuSans-35" x="159.033203"/>
      </g>
     </g>
    </g>
    <g id="xtick_7">
     <g id="line2d_7">
      <g>
       <use xlink:href="#m3990146374" x="365.059943" y="244.078125" style="stroke: #000000; stroke-width: 0.8"/>
      </g>
     </g>
     <g id="text_7">
      <!-- 0.30 -->
      <g transform="translate(353.927131 258.676562) scale(0.1 -0.1)">
       <defs>
        <path id="DejaVuSans-33" d="M 2597 2516 
Q 3050 2419 3304 2112 
Q 3559 1806 3559 1356 
Q 3559 666 3084 287 
Q 2609 -91 1734 -91 
Q 1441 -91 1130 -33 
Q 819 25 488 141 
L 488 750 
Q 750 597 1062 519 
Q 1375 441 1716 441 
Q 2309 441 2620 675 
Q 2931 909 2931 1356 
Q 2931 1769 2642 2001 
Q 2353 2234 1838 2234 
L 1294 2234 
L 1294 2753 
L 1863 2753 
Q 2328 2753 2575 2939 
Q 2822 3125 2822 3475 
Q 2822 3834 2567 4026 
Q 2313 4219 1838 4219 
Q 1578 4219 1281 4162 
Q 984 4106 628 3988 
L 628 4550 
Q 988 4650 1302 4700 
Q 1616 4750 1894 4750 
Q 2613 4750 3031 4423 
Q 3450 4097 3450 3541 
Q 3450 3153 3228 2886 
Q 3006 2619 2597 2516 
z
" transform="scale(0.015625)"/>
       </defs>
       <use xlink:href="#DejaVuSans-30"/>
       <use xlink:href="#DejaVuSans-2e" x="63.623047"/>
       <use xlink:href="#DejaVuSans-33" x="95.410156"/>
       <use xlink:href="#DejaVuSans-30" x="159.033203"/>
      </g>
     </g>
    </g>
    <g id="text_8">
     <!-- Q [1/Å] -->
     <g transform="translate(195.165625 273.278125) scale(0.1 -0.1)">
      <defs>
       <path id="DejaVuSans-51" d="M 2522 4238 
Q 1834 4238 1429 3725 
Q 1025 3213 1025 2328 
Q 1025 1447 1429 934 
Q 1834 422 2522 422 
Q 3209 422 3611 934 
Q 4013 1447 4013 2328 
Q 4013 3213 3611 3725 
Q 3209 4238 2522 4238 
z
M 3406 84 
L 4238 -825 
L 3475 -825 
L 2784 -78 
Q 2681 -84 2626 -87 
Q 2572 -91 2522 -91 
Q 1538 -91 948 567 
Q 359 1225 359 2328 
Q 359 3434 948 4092 
Q 1538 4750 2522 4750 
Q 3503 4750 4090 4092 
Q 4678 3434 4678 2328 
Q 4678 1516 4351 937 
Q 4025 359 3406 84 
z
" transform="scale(0.015625)"/>
       <path id="DejaVuSans-20" transform="scale(0.015625)"/>
       <path id="DejaVuSans-5b" d="M 550 4863 
L 1875 4863 
L 1875 4416 
L 1125 4416 
L 1125 -397 
L 1875 -397 
L 1875 -844 
L 550 -844 
L 550 4863 
z
" transform="scale(0.015625)"/>
       <path id="DejaVuSans-2f" d="M 1625 4666 
L 2156 4666 
L 531 -594 
L 0 -594 
L 1625 4666 
z
" transform="scale(0.015625)"/>
       <path id="DejaVuSans-c5" d="M 2663 5081 
Q 2663 5278 2523 5417 
Q 2384 5556 2188 5556 
Q 1988 5556 1852 5420 
Q 1716 5284 1716 5081 
Q 1716 4884 1853 4746 
Q 1991 4609 2188 4609 
Q 2384 4609 2523 4746 
Q 2663 4884 2663 5081 
z
M 2188 4044 
L 1338 1722 
L 3041 1722 
L 2188 4044 
z
M 1716 4366 
Q 1525 4494 1428 4673 
Q 1331 4853 1331 5081 
Q 1331 5441 1579 5691 
Q 1828 5941 2188 5941 
Q 2544 5941 2795 5689 
Q 3047 5438 3047 5081 
Q 3047 4863 2948 4678 
Q 2850 4494 2663 4366 
L 4325 0 
L 3669 0 
L 3244 1197 
L 1141 1197 
L 716 0 
L 50 0 
L 1716 4366 
z
" transform="scale(0.015625)"/>
       <path id="DejaVuSans-5d" d="M 1947 4863 
L 1947 -844 
L 622 -844 
L 622 -397 
L 1369 -397 
L 1369 4416 
L 622 4416 
L 622 4863 
L 1947 4863 
z
" transform="scale(0.015625)"/>
      </defs>
      <use xlink:href="#DejaVuSans-51"/>
      <use xlink:href="#DejaVuSans-20" x="78.710938"/>
      <use xlink:href="#DejaVuSans-5b" x="110.498047"/>
      <use xlink:href="#DejaVuSans-31" x="149.511719"/>
      <use xlink:href="#DejaVuSans-2f" x="213.134766"/>
      <use xlink:href="#DejaVuSans-c5" x="246.826172"/>
      <use xlink:href="#DejaVuSans-5d" x="315.234375"/>
     </g>
    </g>
   </g>
   <g id="matplotlib.axis_2">
    <g id="ytick_1">
     <g id="line2d_8">
      <defs>
       <path id="m4cfe511c2d" d="M 0 0 
L -3.5 0 
" style="stroke: #000000; stroke-width: 0.8"/>
      </defs>
      <g>
       <use xlink:href="#m4cfe511c2d" x="45.478125" y="182.425052" style="stroke: #000000; stroke-width: 0.8"/>
      </g>
     </g>
     <g id="text_9">
      <!-- $\mathdefault{10^{0}}$ -->
      <g transform="translate(20.878125 186.224271) scale(0.1 -0.1)">
       <use xlink:href="#DejaVuSans-31" transform="translate(0 0.765625)"/>
       <use xlink:href="#DejaVuSans-30" transform="translate(63.623047 0.765625)"/>
       <use xlink:href="#DejaVuSans-30" transform="translate(128.203125 39.046875) scale(0.7)"/>
      </g>
     </g>
    </g>
    <g id="ytick_2">
     <g id="line2d_9">
      <g>
       <use xlink:href="#m4cfe511c2d" x="45.478125" y="85.30006" style="stroke: #000000; stroke-width: 0.8"/>
      </g>
     </g>
     <g id="text_10">
      <!-- $\mathdefault{10^{1}}$ -->
      <g transform="translate(20.878125 89.099279) scale(0.1 -0.1)">
       <use xlink:href="#DejaVuSans-31" transform="translate(0 0.684375)"/>
       <use xlink:href="#DejaVuSans-30" transform="translate(63.623047 0.684375)"/>
       <use xlink:href="#DejaVuSans-31" transform="translate(128.203125 38.965625) scale(0.7)"/>
      </g>
     </g>
    </g>
    <g id="ytick_3">
     <g id="line2d_10">
      <defs>
       <path id="m0dec29fc41" d="M 0 0 
L -2 0 
" style="stroke: #000000; stroke-width: 0.6"/>
      </defs>
      <g>
       <use xlink:href="#m0dec29fc41" x="45.478125" y="233.209645" style="stroke: #000000; stroke-width: 0.6"/>
      </g>
     </g>
    </g>
    <g id="ytick_4">
     <g id="line2d_11">
      <g>
       <use xlink:href="#m0dec29fc41" x="45.478125" y="221.074972" style="stroke: #000000; stroke-width: 0.6"/>
      </g>
     </g>
    </g>
    <g id="ytick_5">
     <g id="line2d_12">
      <g>
       <use xlink:href="#m0dec29fc41" x="45.478125" y="211.662587" style="stroke: #000000; stroke-width: 0.6"/>
      </g>
     </g>
    </g>
    <g id="ytick_6">
     <g id="line2d_13">
      <g>
       <use xlink:href="#m0dec29fc41" x="45.478125" y="203.97211" style="stroke: #000000; stroke-width: 0.6"/>
      </g>
     </g>
    </g>
    <g id="ytick_7">
     <g id="line2d_14">
      <g>
       <use xlink:href="#m0dec29fc41" x="45.478125" y="197.469903" style="stroke: #000000; stroke-width: 0.6"/>
      </g>
     </g>
    </g>
    <g id="ytick_8">
     <g id="line2d_15">
      <g>
       <use xlink:href="#m0dec29fc41" x="45.478125" y="191.837436" style="stroke: #000000; stroke-width: 0.6"/>
      </g>
     </g>
    </g>
    <g id="ytick_9">
     <g id="line2d_16">
      <g>
       <use xlink:href="#m0dec29fc41" x="45.478125" y="186.869248" style="stroke: #000000; stroke-width: 0.6"/>
      </g>
     </g>
    </g>
    <g id="ytick_10">
     <g id="line2d_17">
      <g>
       <use xlink:href="#m0dec29fc41" x="45.478125" y="153.187516" style="stroke: #000000; stroke-width: 0.6"/>
      </g>
     </g>
    </g>
    <g id="ytick_11">
     <g id="line2d_18">
      <g>
       <use xlink:href="#m0dec29fc41" x="45.478125" y="136.084654" style="stroke: #000000; stroke-width: 0.6"/>
      </g>
     </g>
    </g>
    <g id="ytick_12">
     <g id="line2d_19">
      <g>
       <use xlink:href="#m0dec29fc41" x="45.478125" y="123.94998" style="stroke: #000000; stroke-width: 0.6"/>
      </g>
     </g>
    </g>
    <g id="ytick_13">
     <g id="line2d_20">
      <g>
       <use xlink:href="#m0dec29fc41" x="45.478125" y="114.537596" style="stroke: #000000; stroke-width: 0.6"/>
      </g>
     </g>
    </g>
    <g id="ytick_14">
     <g id="line2d_21">
      <g>
       <use xlink:href="#m0dec29fc41" x="45.478125" y="106.847118" style="stroke: #000000; stroke-width: 0.6"/>
      </g>
     </g>
    </g>
    <g id="ytick_15">
     <g id="line2d_22">
      <g>
       <use xlink:href="#m0dec29fc41" x="45.478125" y="100.344912" style="stroke: #000000; stroke-width: 0.6"/>
      </g>
     </g>
    </g>
    <g id="ytick_16">
     <g id="line2d_23">
      <g>
       <use xlink:href="#m0dec29fc41" x="45.478125" y="94.712445" style="stroke: #000000; stroke-width: 0.6"/>
      </g>
     </g>
    </g>
    <g id="ytick_17">
     <g id="line2d_24">
      <g>
       <use xlink:href="#m0dec29fc41" x="45.478125" y="89.744256" style="stroke: #000000; stroke-width: 0.6"/>
      </g>
     </g>
    </g>
    <g id="ytick_18">
     <g id="line2d_25">
      <g>
       <use xlink:href="#m0dec29fc41" x="45.478125" y="56.062525" style="stroke: #000000; stroke-width: 0.6"/>
      </g>
     </g>
    </g>
    <g id="ytick_19">
     <g id="line2d_26">
      <g>
       <use xlink:href="#m0dec29fc41" x="45.478125" y="38.959663" style="stroke: #000000; stroke-width: 0.6"/>
      </g>
     </g>
    </g>
    <g id="ytick_20">
     <g id="line2d_27">
      <g>
       <use xlink:href="#m0dec29fc41" x="45.478125" y="26.824989" style="stroke: #000000; stroke-width: 0.6"/>
      </g>
     </g>
    </g>
    <g id="text_11">
     <!-- [dimensionless] -->
     <g transform="translate(14.798438 172.675469) rotate(-90) scale(0.1 -0.1)">
      <defs>
       <path id="DejaVuSans-64" d="M 2906 2969 
L 2906 4863 
L 3481 4863 
L 3481 0 
L 2906 0 
L 2906 525 
Q 2725 213 2448 61 
Q 2172 -91 1784 -91 
Q 1150 -91 751 415 
Q 353 922 353 1747 
Q 353 2572 751 3078 
Q 1150 3584 1784 3584 
Q 2172 3584 2448 3432 
Q 2725 3281 2906 2969 
z
M 947 1747 
Q 947 1113 1208 752 
Q 1469 391 1925 391 
Q 2381 391 2643 752 
Q 2906 1113 2906 1747 
Q 2906 2381 2643 2742 
Q 2381 3103 1925 3103 
Q 1469 3103 1208 2742 
Q 947 2381 947 1747 
z
" transform="scale(0.015625)"/>
       <path id="DejaVuSans-69" d="M 603 3500 
L 1178 3500 
L 1178 0 
L 603 0 
L 603 3500 
z
M 603 4863 
L 1178 4863 
L 1178 4134 
L 603 4134 
L 603 4863 
z
" transform="scale(0.015625)"/>
       <path id="DejaVuSans-6d" d="M 3328 2828 
Q 3544 3216 3844 3400 
Q 4144 3584 4550 3584 
Q 5097 3584 5394 3201 
Q 5691 2819 5691 2113 
L 5691 0 
L 5113 0 
L 5113 2094 
Q 5113 2597 4934 2840 
Q 4756 3084 4391 3084 
Q 3944 3084 3684 2787 
Q 3425 2491 3425 1978 
L 3425 0 
L 2847 0 
L 2847 2094 
Q 2847 2600 2669 2842 
Q 2491 3084 2119 3084 
Q 1678 3084 1418 2786 
Q 1159 2488 1159 1978 
L 1159 0 
L 581 0 
L 581 3500 
L 1159 3500 
L 1159 2956 
Q 1356 3278 1631 3431 
Q 1906 3584 2284 3584 
Q 2666 3584 2933 3390 
Q 3200 3197 3328 2828 
z
" transform="scale(0.015625)"/>
       <path id="DejaVuSans-65" d="M 3597 1894 
L 3597 1613 
L 953 1613 
Q 991 1019 1311 708 
Q 1631 397 2203 397 
Q 2534 397 2845 478 
Q 3156 559 3463 722 
L 3463 178 
Q 3153 47 2828 -22 
Q 2503 -91 2169 -91 
Q 1331 -91 842 396 
Q 353 884 353 1716 
Q 353 2575 817 3079 
Q 1281 3584 2069 3584 
Q 2775 3584 3186 3129 
Q 3597 2675 3597 1894 
z
M 3022 2063 
Q 3016 2534 2758 2815 
Q 2500 3097 2075 3097 
Q 1594 3097 1305 2825 
Q 1016 2553 972 2059 
L 3022 2063 
z
" transform="scale(0.015625)"/>
       <path id="DejaVuSans-6e" d="M 3513 2113 
L 3513 0 
L 2938 0 
L 2938 2094 
Q 2938 2591 2744 2837 
Q 2550 3084 2163 3084 
Q 1697 3084 1428 2787 
Q 1159 2491 1159 1978 
L 1159 0 
L 581 0 
L 581 3500 
L 1159 3500 
L 1159 2956 
Q 1366 3272 1645 3428 
Q 1925 3584 2291 3584 
Q 2894 3584 3203 3211 
Q 3513 2838 3513 2113 
z
" transform="scale(0.015625)"/>
       <path id="DejaVuSans-73" d="M 2834 3397 
L 2834 2853 
Q 2591 2978 2328 3040 
Q 2066 3103 1784 3103 
Q 1356 3103 1142 2972 
Q 928 2841 928 2578 
Q 928 2378 1081 2264 
Q 1234 2150 1697 2047 
L 1894 2003 
Q 2506 1872 2764 1633 
Q 3022 1394 3022 966 
Q 3022 478 2636 193 
Q 2250 -91 1575 -91 
Q 1294 -91 989 -36 
Q 684 19 347 128 
L 347 722 
Q 666 556 975 473 
Q 1284 391 1588 391 
Q 1994 391 2212 530 
Q 2431 669 2431 922 
Q 2431 1156 2273 1281 
Q 2116 1406 1581 1522 
L 1381 1569 
Q 847 1681 609 1914 
Q 372 2147 372 2553 
Q 372 3047 722 3315 
Q 1072 3584 1716 3584 
Q 2034 3584 2315 3537 
Q 2597 3491 2834 3397 
z
" transform="scale(0.015625)"/>
       <path id="DejaVuSans-6f" d="M 1959 3097 
Q 1497 3097 1228 2736 
Q 959 2375 959 1747 
Q 959 1119 1226 758 
Q 1494 397 1959 397 
Q 2419 397 2687 759 
Q 2956 1122 2956 1747 
Q 2956 2369 2687 2733 
Q 2419 3097 1959 3097 
z
M 1959 3584 
Q 2709 3584 3137 3096 
Q 3566 2609 3566 1747 
Q 3566 888 3137 398 
Q 2709 -91 1959 -91 
Q 1206 -91 779 398 
Q 353 888 353 1747 
Q 353 2609 779 3096 
Q 1206 3584 1959 3584 
z
" transform="scale(0.015625)"/>
       <path id="DejaVuSans-6c" d="M 603 4863 
L 1178 4863 
L 1178 0 
L 603 0 
L 603 4863 
z
" transform="scale(0.015625)"/>
      </defs>
      <use xlink:href="#DejaVuSans-5b"/>
      <use xlink:href="#DejaVuSans-64" x="39.013672"/>
      <use xlink:href="#DejaVuSans-69" x="102.490234"/>
      <use xlink:href="#DejaVuSans-6d" x="130.273438"/>
      <use xlink:href="#DejaVuSans-65" x="227.685547"/>
      <use xlink:href="#DejaVuSans-6e" x="289.208984"/>
      <use xlink:href="#DejaVuSans-73" x="352.587891"/>
      <use xlink:href="#DejaVuSans-69" x="404.6875"/>
      <use xlink:href="#DejaVuSans-6f" x="432.470703"/>
      <use xlink:href="#DejaVuSans-6e" x="493.652344"/>
      <use xlink:href="#DejaVuSans-6c" x="557.03125"/>
      <use xlink:href="#DejaVuSans-65" x="584.814453"/>
      <use xlink:href="#DejaVuSans-73" x="646.337891"/>
      <use xlink:href="#DejaVuSans-73" x="698.4375"/>
      <use xlink:href="#DejaVuSans-5d" x="750.537109"/>
     </g>
    </g>
   </g>
   <g id="patch_3">
    <path d="M 45.478125 244.078125 
L 45.478125 22.318125 
" style="fill: none; stroke: #000000; stroke-width: 0.8; stroke-linejoin: miter; stroke-linecap: square"/>
   </g>
   <g id="patch_4">
    <path d="M 380.278125 244.078125 
L 380.278125 22.318125 
" style="fill: none; stroke: #000000; stroke-width: 0.8; stroke-linejoin: miter; stroke-linecap: square"/>
   </g>
   <g id="patch_5">
    <path d="M 45.478125 244.078125 
L 380.278125 244.078125 
" style="fill: none; stroke: #000000; stroke-width: 0.8; stroke-linejoin: miter; stroke-linecap: square"/>
   </g>
   <g id="patch_6">
    <path d="M 45.478125 22.318125 
L 380.278125 22.318125 
" style="fill: none; stroke: #000000; stroke-width: 0.8; stroke-linejoin: miter; stroke-linecap: square"/>
   </g>
   <g id="text_12">
    <!-- ISIS polymer -->
    <g transform="translate(175.111875 16.318125) scale(0.12 -0.12)">
     <defs>
      <path id="DejaVuSans-49" d="M 628 4666 
L 1259 4666 
L 1259 0 
L 628 0 
L 628 4666 
z
" transform="scale(0.015625)"/>
      <path id="DejaVuSans-53" d="M 3425 4513 
L 3425 3897 
Q 3066 4069 2747 4153 
Q 2428 4238 2131 4238 
Q 1616 4238 1336 4038 
Q 1056 3838 1056 3469 
Q 1056 3159 1242 3001 
Q 1428 2844 1947 2747 
L 2328 2669 
Q 3034 2534 3370 2195 
Q 3706 1856 3706 1288 
Q 3706 609 3251 259 
Q 2797 -91 1919 -91 
Q 1588 -91 1214 -16 
Q 841 59 441 206 
L 441 856 
Q 825 641 1194 531 
Q 1563 422 1919 422 
Q 2459 422 2753 634 
Q 3047 847 3047 1241 
Q 3047 1584 2836 1778 
Q 2625 1972 2144 2069 
L 1759 2144 
Q 1053 2284 737 2584 
Q 422 2884 422 3419 
Q 422 4038 858 4394 
Q 1294 4750 2059 4750 
Q 2388 4750 2728 4690 
Q 3069 4631 3425 4513 
z
" transform="scale(0.015625)"/>
      <path id="DejaVuSans-70" d="M 1159 525 
L 1159 -1331 
L 581 -1331 
L 581 3500 
L 1159 3500 
L 1159 2969 
Q 1341 3281 1617 3432 
Q 1894 3584 2278 3584 
Q 2916 3584 3314 3078 
Q 3713 2572 3713 1747 
Q 3713 922 3314 415 
Q 2916 -91 2278 -91 
Q 1894 -91 1617 61 
Q 1341 213 1159 525 
z
M 3116 1747 
Q 3116 2381 2855 2742 
Q 2594 3103 2138 3103 
Q 1681 3103 1420 2742 
Q 1159 2381 1159 1747 
Q 1159 1113 1420 752 
Q 1681 391 2138 391 
Q 2594 391 2855 752 
Q 3116 1113 3116 1747 
z
" transform="scale(0.015625)"/>
      <path id="DejaVuSans-79" d="M 2059 -325 
Q 1816 -950 1584 -1140 
Q 1353 -1331 966 -1331 
L 506 -1331 
L 506 -850 
L 844 -850 
Q 1081 -850 1212 -737 
Q 1344 -625 1503 -206 
L 1606 56 
L 191 3500 
L 800 3500 
L 1894 763 
L 2988 3500 
L 3597 3500 
L 2059 -325 
z
" transform="scale(0.015625)"/>
      <path id="DejaVuSans-72" d="M 2631 2963 
Q 2534 3019 2420 3045 
Q 2306 3072 2169 3072 
Q 1681 3072 1420 2755 
Q 1159 2438 1159 1844 
L 1159 0 
L 581 0 
L 581 3500 
L 1159 3500 
L 1159 2956 
Q 1341 3275 1631 3429 
Q 1922 3584 2338 3584 
Q 2397 3584 2469 3576 
Q 2541 3569 2628 3553 
L 2631 2963 
z
" transform="scale(0.015625)"/>
     </defs>
     <use xlink:href="#DejaVuSans-49"/>
     <use xlink:href="#DejaVuSans-53" x="29.492188"/>
     <use xlink:href="#DejaVuSans-49" x="92.96875"/>
     <use xlink:href="#DejaVuSans-53" x="122.460938"/>
     <use xlink:href="#DejaVuSans-20" x="185.9375"/>
     <use xlink:href="#DejaVuSans-70" x="217.724609"/>
     <use xlink:href="#DejaVuSans-6f" x="281.201172"/>
     <use xlink:href="#DejaVuSans-6c" x="342.382812"/>
     <use xlink:href="#DejaVuSans-79" x="370.166016"/>
     <use xlink:href="#DejaVuSans-6d" x="429.345703"/>
     <use xlink:href="#DejaVuSans-65" x="526.757812"/>
     <use xlink:href="#DejaVuSans-72" x="588.28125"/>
    </g>
   </g>
   <g id="line2d_28">
    <path d="M 60.696307 33.231022 
L 63.739943 33.231022 
L 63.739943 34.559042 
L 66.78358 34.559042 
L 66.78358 37.057847 
L 69.827216 37.057847 
L 69.827216 40.237983 
L 72.870852 40.237983 
L 72.870852 44.140971 
L 75.914489 44.140971 
L 75.914489 48.610746 
L 78.958125 48.610746 
L 78.958125 52.532952 
L 82.001761 52.532952 
L 82.001761 57.45878 
L 85.045398 57.45878 
L 85.045398 62.250574 
L 88.089034 62.250574 
L 88.089034 67.187051 
L 91.13267 67.187051 
L 91.13267 71.870847 
L 94.176307 71.870847 
L 94.176307 76.142634 
L 97.219943 76.142634 
L 97.219943 80.873849 
L 100.26358 80.873849 
L 100.26358 84.628768 
L 103.307216 84.628768 
L 103.307216 89.201175 
L 106.350852 89.201175 
L 106.350852 93.126888 
L 109.394489 93.126888 
L 109.394489 96.969671 
L 112.438125 96.969671 
L 112.438125 100.405854 
L 115.481761 100.405854 
L 115.481761 104.441315 
L 118.525398 104.441315 
L 118.525398 107.768476 
L 121.569034 107.768476 
L 121.569034 110.786196 
L 124.61267 110.786196 
L 124.61267 113.855152 
L 127.656307 113.855152 
L 127.656307 116.864871 
L 130.699943 116.864871 
L 130.699943 120.287431 
L 133.74358 120.287431 
L 133.74358 122.599251 
L 136.787216 122.599251 
L 136.787216 126.328108 
L 139.830852 126.328108 
L 139.830852 127.844563 
L 142.874489 127.844563 
L 142.874489 131.345503 
L 145.918125 131.345503 
L 145.918125 133.900423 
L 148.961761 133.900423 
L 148.961761 136.160258 
L 152.005398 136.160258 
L 152.005398 138.286359 
L 155.049034 138.286359 
L 155.049034 140.210437 
L 158.09267 140.210437 
L 158.09267 142.54019 
L 161.136307 142.54019 
L 161.136307 145.833988 
L 164.179943 145.833988 
L 164.179943 146.660527 
L 167.22358 146.660527 
L 167.22358 149.532957 
L 170.267216 149.532957 
L 170.267216 151.223566 
L 173.310852 151.223566 
L 173.310852 153.953601 
L 176.354489 153.953601 
L 176.354489 155.371629 
L 179.398125 155.371629 
L 179.398125 156.739808 
L 182.441761 156.739808 
L 182.441761 159.255086 
L 185.485398 159.255086 
L 185.485398 160.352786 
L 188.529034 160.352786 
L 188.529034 162.232063 
L 191.57267 162.232063 
L 191.57267 163.838534 
L 194.616307 163.838534 
L 194.616307 166.380742 
L 200.70358 166.43259 
L 200.70358 170.490964 
L 203.747216 170.490964 
L 203.747216 170.646499 
L 206.790852 170.646499 
L 206.790852 171.0099 
L 209.834489 171.0099 
L 209.834489 174.614691 
L 212.878125 174.614691 
L 212.878125 173.156179 
L 215.921761 173.156179 
L 215.921761 175.905727 
L 218.965398 175.905727 
L 218.965398 178.459494 
L 222.009034 178.459494 
L 222.009034 178.73604 
L 225.05267 178.73604 
L 225.05267 179.775585 
L 228.096307 179.775585 
L 228.096307 180.736449 
L 231.139943 180.736449 
L 231.139943 182.949716 
L 234.18358 182.949716 
L 234.18358 182.379384 
L 237.227216 182.379384 
L 237.227216 186.010799 
L 240.270852 186.010799 
L 240.270852 186.331934 
L 243.314489 186.331934 
L 243.314489 186.906204 
L 246.358125 186.906204 
L 246.358125 188.870076 
L 249.401761 188.870076 
L 249.401761 190.985393 
L 252.445398 190.985393 
L 252.445398 192.196145 
L 255.489034 192.196145 
L 255.489034 190.587746 
L 258.53267 190.587746 
L 258.53267 193.35795 
L 261.576307 193.35795 
L 261.576307 193.916596 
L 264.619943 193.916596 
L 264.619943 194.372847 
L 267.66358 194.372847 
L 267.66358 196.245501 
L 270.707216 196.245501 
L 270.707216 196.856417 
L 273.750852 196.856417 
L 273.750852 199.305768 
L 276.794489 199.305768 
L 276.794489 198.126635 
L 282.881761 198.179123 
L 282.881761 200.909198 
L 285.925398 200.909198 
L 285.925398 204.094138 
L 288.969034 204.094138 
L 288.969034 199.772182 
L 292.01267 199.772182 
L 292.01267 203.711887 
L 295.056307 203.711887 
L 295.056307 203.948703 
L 298.099943 203.948703 
L 298.099943 204.084667 
L 301.14358 204.084667 
L 301.14358 205.147618 
L 304.187216 205.147618 
L 304.187216 204.557066 
L 307.230852 204.557066 
L 307.230852 210.754291 
L 310.274489 210.754291 
L 310.274489 206.4802 
L 313.318125 206.4802 
L 313.318125 210.332307 
L 316.361761 210.332307 
L 316.361761 208.021384 
L 319.405398 208.021384 
L 319.405398 211.006672 
L 322.449034 211.006672 
L 322.449034 215.350143 
L 325.49267 215.350143 
L 325.49267 217.516006 
L 328.536307 217.516006 
L 328.536307 212.38226 
L 331.579943 212.38226 
L 331.579943 212.547287 
L 334.62358 212.547287 
L 334.62358 209.845299 
L 337.667216 209.845299 
L 337.667216 211.22508 
L 340.710852 211.22508 
L 340.710852 218.475647 
L 343.754489 218.475647 
L 343.754489 215.629146 
L 346.798125 215.629146 
L 346.798125 219.836682 
L 349.841761 219.836682 
L 349.841761 220.877565 
L 352.885398 220.877565 
L 352.885398 221.926752 
L 355.929034 221.926752 
L 355.929034 213.429654 
L 358.97267 213.429654 
L 358.97267 228.909821 
L 362.016307 228.909821 
L 362.016307 219.050106 
L 365.059943 219.050106 
L 365.059943 219.050106 
" clip-path="url(#pf05f55448a)" style="fill: none; stroke: #1f77b4; stroke-width: 1.5; stroke-linecap: square"/>
   </g>
   <g id="LineCollection_1">
    <path d="M 62.218125 34.080699 
L 62.218125 32.398123 
" clip-path="url(#pf05f55448a)" style="fill: none; stroke: #1f77b4; stroke-width: 1.5"/>
    <path d="M 65.261761 35.256379 
L 65.261761 33.873046 
" clip-path="url(#pf05f55448a)" style="fill: none; stroke: #1f77b4; stroke-width: 1.5"/>
    <path d="M 68.305398 37.676425 
L 68.305398 36.44821 
" clip-path="url(#pf05f55448a)" style="fill: none; stroke: #1f77b4; stroke-width: 1.5"/>
    <path d="M 71.349034 40.810627 
L 71.349034 39.673009 
" clip-path="url(#pf05f55448a)" style="fill: none; stroke: #1f77b4; stroke-width: 1.5"/>
    <path d="M 74.39267 44.685557 
L 74.39267 43.603327 
" clip-path="url(#pf05f55448a)" style="fill: none; stroke: #1f77b4; stroke-width: 1.5"/>
    <path d="M 77.436307 49.139968 
L 77.436307 48.088082 
" clip-path="url(#pf05f55448a)" style="fill: none; stroke: #1f77b4; stroke-width: 1.5"/>
    <path d="M 80.479943 53.053587 
L 80.479943 52.018665 
" clip-path="url(#pf05f55448a)" style="fill: none; stroke: #1f77b4; stroke-width: 1.5"/>
    <path d="M 83.52358 57.976421 
L 83.52358 56.947415 
" clip-path="url(#pf05f55448a)" style="fill: none; stroke: #1f77b4; stroke-width: 1.5"/>
    <path d="M 86.567216 62.766644 
L 86.567216 61.740742 
" clip-path="url(#pf05f55448a)" style="fill: none; stroke: #1f77b4; stroke-width: 1.5"/>
    <path d="M 89.610852 67.7025 
L 89.610852 66.677826 
" clip-path="url(#pf05f55448a)" style="fill: none; stroke: #1f77b4; stroke-width: 1.5"/>
    <path d="M 92.654489 72.385949 
L 92.654489 71.36196 
" clip-path="url(#pf05f55448a)" style="fill: none; stroke: #1f77b4; stroke-width: 1.5"/>
    <path d="M 95.698125 76.657081 
L 95.698125 75.634385 
" clip-path="url(#pf05f55448a)" style="fill: none; stroke: #1f77b4; stroke-width: 1.5"/>
    <path d="M 98.741761 81.389044 
L 98.741761 80.364871 
" clip-path="url(#pf05f55448a)" style="fill: none; stroke: #1f77b4; stroke-width: 1.5"/>
    <path d="M 101.785398 85.145327 
L 101.785398 84.118458 
" clip-path="url(#pf05f55448a)" style="fill: none; stroke: #1f77b4; stroke-width: 1.5"/>
    <path d="M 104.829034 89.720016 
L 104.829034 88.688639 
" clip-path="url(#pf05f55448a)" style="fill: none; stroke: #1f77b4; stroke-width: 1.5"/>
    <path d="M 107.87267 93.648413 
L 107.87267 92.611731 
" clip-path="url(#pf05f55448a)" style="fill: none; stroke: #1f77b4; stroke-width: 1.5"/>
    <path d="M 110.916307 97.495322 
L 110.916307 96.45049 
" clip-path="url(#pf05f55448a)" style="fill: none; stroke: #1f77b4; stroke-width: 1.5"/>
    <path d="M 113.959943 100.935386 
L 113.959943 99.882887 
" clip-path="url(#pf05f55448a)" style="fill: none; stroke: #1f77b4; stroke-width: 1.5"/>
    <path d="M 117.00358 104.976417 
L 117.00358 103.912917 
" clip-path="url(#pf05f55448a)" style="fill: none; stroke: #1f77b4; stroke-width: 1.5"/>
    <path d="M 120.047216 108.308467 
L 120.047216 107.235311 
" clip-path="url(#pf05f55448a)" style="fill: none; stroke: #1f77b4; stroke-width: 1.5"/>
    <path d="M 123.090852 111.332078 
L 123.090852 110.247289 
" clip-path="url(#pf05f55448a)" style="fill: none; stroke: #1f77b4; stroke-width: 1.5"/>
    <path d="M 126.134489 114.407097 
L 126.134489 113.310336 
" clip-path="url(#pf05f55448a)" style="fill: none; stroke: #1f77b4; stroke-width: 1.5"/>
    <path d="M 129.178125 117.422996 
L 129.178125 116.314035 
" clip-path="url(#pf05f55448a)" style="fill: none; stroke: #1f77b4; stroke-width: 1.5"/>
    <path d="M 132.221761 120.854444 
L 132.221761 119.72794 
" clip-path="url(#pf05f55448a)" style="fill: none; stroke: #1f77b4; stroke-width: 1.5"/>
    <path d="M 135.265398 123.172368 
L 135.265398 122.033818 
" clip-path="url(#pf05f55448a)" style="fill: none; stroke: #1f77b4; stroke-width: 1.5"/>
    <path d="M 138.309034 126.912935 
L 138.309034 125.751279 
" clip-path="url(#pf05f55448a)" style="fill: none; stroke: #1f77b4; stroke-width: 1.5"/>
    <path d="M 141.35267 128.434988 
L 141.35267 127.262289 
" clip-path="url(#pf05f55448a)" style="fill: none; stroke: #1f77b4; stroke-width: 1.5"/>
    <path d="M 144.396307 131.947924 
L 144.396307 130.751565 
" clip-path="url(#pf05f55448a)" style="fill: none; stroke: #1f77b4; stroke-width: 1.5"/>
    <path d="M 147.439943 134.513232 
L 147.439943 133.29639 
" clip-path="url(#pf05f55448a)" style="fill: none; stroke: #1f77b4; stroke-width: 1.5"/>
    <path d="M 150.48358 136.784402 
L 150.48358 135.545214 
" clip-path="url(#pf05f55448a)" style="fill: none; stroke: #1f77b4; stroke-width: 1.5"/>
    <path d="M 153.527216 138.919658 
L 153.527216 137.662429 
" clip-path="url(#pf05f55448a)" style="fill: none; stroke: #1f77b4; stroke-width: 1.5"/>
    <path d="M 156.570852 140.856191 
L 156.570852 139.57442 
" clip-path="url(#pf05f55448a)" style="fill: none; stroke: #1f77b4; stroke-width: 1.5"/>
    <path d="M 159.614489 143.198462 
L 159.614489 141.892033 
" clip-path="url(#pf05f55448a)" style="fill: none; stroke: #1f77b4; stroke-width: 1.5"/>
    <path d="M 162.658125 146.510313 
L 162.658125 145.168335 
" clip-path="url(#pf05f55448a)" style="fill: none; stroke: #1f77b4; stroke-width: 1.5"/>
    <path d="M 165.701761 147.344852 
L 165.701761 145.987128 
" clip-path="url(#pf05f55448a)" style="fill: none; stroke: #1f77b4; stroke-width: 1.5"/>
    <path d="M 168.745398 150.236042 
L 168.745398 148.8414 
" clip-path="url(#pf05f55448a)" style="fill: none; stroke: #1f77b4; stroke-width: 1.5"/>
    <path d="M 171.789034 151.940507 
L 171.789034 150.518607 
" clip-path="url(#pf05f55448a)" style="fill: none; stroke: #1f77b4; stroke-width: 1.5"/>
    <path d="M 174.83267 154.690086 
L 174.83267 153.229755 
" clip-path="url(#pf05f55448a)" style="fill: none; stroke: #1f77b4; stroke-width: 1.5"/>
    <path d="M 177.876307 156.123182 
L 177.876307 154.633233 
" clip-path="url(#pf05f55448a)" style="fill: none; stroke: #1f77b4; stroke-width: 1.5"/>
    <path d="M 180.919943 157.504874 
L 180.919943 155.988372 
" clip-path="url(#pf05f55448a)" style="fill: none; stroke: #1f77b4; stroke-width: 1.5"/>
    <path d="M 183.96358 160.04163 
L 183.96358 158.48294 
" clip-path="url(#pf05f55448a)" style="fill: none; stroke: #1f77b4; stroke-width: 1.5"/>
    <path d="M 187.007216 161.15372 
L 187.007216 159.566777 
" clip-path="url(#pf05f55448a)" style="fill: none; stroke: #1f77b4; stroke-width: 1.5"/>
    <path d="M 190.050852 163.053438 
L 190.050852 161.426377 
" clip-path="url(#pf05f55448a)" style="fill: none; stroke: #1f77b4; stroke-width: 1.5"/>
    <path d="M 193.094489 164.6774 
L 193.094489 163.016027 
" clip-path="url(#pf05f55448a)" style="fill: none; stroke: #1f77b4; stroke-width: 1.5"/>
    <path d="M 196.138125 167.246145 
L 196.138125 165.532738 
" clip-path="url(#pf05f55448a)" style="fill: none; stroke: #1f77b4; stroke-width: 1.5"/>
    <path d="M 199.181761 167.308652 
L 199.181761 165.574353 
" clip-path="url(#pf05f55448a)" style="fill: none; stroke: #1f77b4; stroke-width: 1.5"/>
    <path d="M 202.225398 171.402614 
L 202.225398 169.598601 
" clip-path="url(#pf05f55448a)" style="fill: none; stroke: #1f77b4; stroke-width: 1.5"/>
    <path d="M 205.269034 171.571687 
L 205.269034 169.741169 
" clip-path="url(#pf05f55448a)" style="fill: none; stroke: #1f77b4; stroke-width: 1.5"/>
    <path d="M 208.31267 171.952232 
L 208.31267 170.088161 
" clip-path="url(#pf05f55448a)" style="fill: none; stroke: #1f77b4; stroke-width: 1.5"/>
    <path d="M 211.356307 175.590521 
L 211.356307 173.660926 
" clip-path="url(#pf05f55448a)" style="fill: none; stroke: #1f77b4; stroke-width: 1.5"/>
    <path d="M 214.399943 174.137676 
L 214.399943 172.197002 
" clip-path="url(#pf05f55448a)" style="fill: none; stroke: #1f77b4; stroke-width: 1.5"/>
    <path d="M 217.44358 176.924153 
L 217.44358 174.911311 
" clip-path="url(#pf05f55448a)" style="fill: none; stroke: #1f77b4; stroke-width: 1.5"/>
    <path d="M 220.487216 179.513538 
L 220.487216 177.431149 
" clip-path="url(#pf05f55448a)" style="fill: none; stroke: #1f77b4; stroke-width: 1.5"/>
    <path d="M 223.530852 179.800757 
L 223.530852 177.697537 
" clip-path="url(#pf05f55448a)" style="fill: none; stroke: #1f77b4; stroke-width: 1.5"/>
    <path d="M 226.574489 180.86955 
L 226.574489 178.709275 
" clip-path="url(#pf05f55448a)" style="fill: none; stroke: #1f77b4; stroke-width: 1.5"/>
    <path d="M 229.618125 181.855764 
L 229.618125 179.646069 
" clip-path="url(#pf05f55448a)" style="fill: none; stroke: #1f77b4; stroke-width: 1.5"/>
    <path d="M 232.661761 184.105982 
L 232.661761 181.824304 
" clip-path="url(#pf05f55448a)" style="fill: none; stroke: #1f77b4; stroke-width: 1.5"/>
    <path d="M 235.705398 183.54942 
L 235.705398 181.240929 
" clip-path="url(#pf05f55448a)" style="fill: none; stroke: #1f77b4; stroke-width: 1.5"/>
    <path d="M 238.749034 187.241439 
L 238.749034 184.815048 
" clip-path="url(#pf05f55448a)" style="fill: none; stroke: #1f77b4; stroke-width: 1.5"/>
    <path d="M 241.79267 187.595545 
L 241.79267 185.105079 
" clip-path="url(#pf05f55448a)" style="fill: none; stroke: #1f77b4; stroke-width: 1.5"/>
    <path d="M 244.836307 188.192841 
L 244.836307 185.657654 
" clip-path="url(#pf05f55448a)" style="fill: none; stroke: #1f77b4; stroke-width: 1.5"/>
    <path d="M 247.879943 190.190488 
L 247.879943 187.589745 
" clip-path="url(#pf05f55448a)" style="fill: none; stroke: #1f77b4; stroke-width: 1.5"/>
    <path d="M 250.92358 192.363223 
L 250.92358 189.651151 
" clip-path="url(#pf05f55448a)" style="fill: none; stroke: #1f77b4; stroke-width: 1.5"/>
    <path d="M 253.967216 193.621358 
L 253.967216 190.817518 
" clip-path="url(#pf05f55448a)" style="fill: none; stroke: #1f77b4; stroke-width: 1.5"/>
    <path d="M 257.010852 192.001196 
L 257.010852 189.220129 
" clip-path="url(#pf05f55448a)" style="fill: none; stroke: #1f77b4; stroke-width: 1.5"/>
    <path d="M 260.054489 194.858284 
L 260.054489 191.909153 
" clip-path="url(#pf05f55448a)" style="fill: none; stroke: #1f77b4; stroke-width: 1.5"/>
    <path d="M 263.098125 195.454857 
L 263.098125 192.432466 
" clip-path="url(#pf05f55448a)" style="fill: none; stroke: #1f77b4; stroke-width: 1.5"/>
    <path d="M 266.141761 195.944396 
L 266.141761 192.857754 
" clip-path="url(#pf05f55448a)" style="fill: none; stroke: #1f77b4; stroke-width: 1.5"/>
    <path d="M 269.185398 197.875731 
L 269.185398 194.67594 
" clip-path="url(#pf05f55448a)" style="fill: none; stroke: #1f77b4; stroke-width: 1.5"/>
    <path d="M 272.229034 198.554104 
L 272.229034 195.224423 
" clip-path="url(#pf05f55448a)" style="fill: none; stroke: #1f77b4; stroke-width: 1.5"/>
    <path d="M 275.27267 201.061725 
L 275.27267 197.619998 
" clip-path="url(#pf05f55448a)" style="fill: none; stroke: #1f77b4; stroke-width: 1.5"/>
    <path d="M 278.316307 199.913394 
L 278.316307 196.412497 
" clip-path="url(#pf05f55448a)" style="fill: none; stroke: #1f77b4; stroke-width: 1.5"/>
    <path d="M 281.359943 200.007715 
L 281.359943 196.426521 
" clip-path="url(#pf05f55448a)" style="fill: none; stroke: #1f77b4; stroke-width: 1.5"/>
    <path d="M 284.40358 202.819569 
L 284.40358 199.081611 
" clip-path="url(#pf05f55448a)" style="fill: none; stroke: #1f77b4; stroke-width: 1.5"/>
    <path d="M 287.447216 206.147285 
L 287.447216 202.136306 
" clip-path="url(#pf05f55448a)" style="fill: none; stroke: #1f77b4; stroke-width: 1.5"/>
    <path d="M 290.490852 201.738545 
L 290.490852 197.893417 
" clip-path="url(#pf05f55448a)" style="fill: none; stroke: #1f77b4; stroke-width: 1.5"/>
    <path d="M 293.534489 205.834539 
L 293.534489 201.690953 
" clip-path="url(#pf05f55448a)" style="fill: none; stroke: #1f77b4; stroke-width: 1.5"/>
    <path d="M 296.578125 206.132847 
L 296.578125 201.87211 
" clip-path="url(#pf05f55448a)" style="fill: none; stroke: #1f77b4; stroke-width: 1.5"/>
    <path d="M 299.621761 206.319286 
L 299.621761 201.962499 
" clip-path="url(#pf05f55448a)" style="fill: none; stroke: #1f77b4; stroke-width: 1.5"/>
    <path d="M 302.665398 207.429116 
L 302.665398 202.983217 
" clip-path="url(#pf05f55448a)" style="fill: none; stroke: #1f77b4; stroke-width: 1.5"/>
    <path d="M 305.709034 206.907495 
L 305.709034 202.330726 
" clip-path="url(#pf05f55448a)" style="fill: none; stroke: #1f77b4; stroke-width: 1.5"/>
    <path d="M 308.75267 213.411195 
L 308.75267 208.254868 
" clip-path="url(#pf05f55448a)" style="fill: none; stroke: #1f77b4; stroke-width: 1.5"/>
    <path d="M 311.796307 208.977629 
L 311.796307 204.122409 
" clip-path="url(#pf05f55448a)" style="fill: none; stroke: #1f77b4; stroke-width: 1.5"/>
    <path d="M 314.839943 213.069095 
L 314.839943 207.762318 
" clip-path="url(#pf05f55448a)" style="fill: none; stroke: #1f77b4; stroke-width: 1.5"/>
    <path d="M 317.88358 210.763928 
L 317.88358 205.446323 
" clip-path="url(#pf05f55448a)" style="fill: none; stroke: #1f77b4; stroke-width: 1.5"/>
    <path d="M 320.927216 213.90478 
L 320.927216 208.294946 
" clip-path="url(#pf05f55448a)" style="fill: none; stroke: #1f77b4; stroke-width: 1.5"/>
    <path d="M 323.970852 218.52618 
L 323.970852 212.396594 
" clip-path="url(#pf05f55448a)" style="fill: none; stroke: #1f77b4; stroke-width: 1.5"/>
    <path d="M 327.014489 220.827727 
L 327.014489 214.445475 
" clip-path="url(#pf05f55448a)" style="fill: none; stroke: #1f77b4; stroke-width: 1.5"/>
    <path d="M 330.058125 215.565906 
L 330.058125 209.422134 
" clip-path="url(#pf05f55448a)" style="fill: none; stroke: #1f77b4; stroke-width: 1.5"/>
    <path d="M 333.101761 215.816516 
L 333.101761 209.513315 
" clip-path="url(#pf05f55448a)" style="fill: none; stroke: #1f77b4; stroke-width: 1.5"/>
    <path d="M 336.145398 212.992747 
L 336.145398 206.916485 
" clip-path="url(#pf05f55448a)" style="fill: none; stroke: #1f77b4; stroke-width: 1.5"/>
    <path d="M 339.189034 214.63754 
L 339.189034 208.068144 
" clip-path="url(#pf05f55448a)" style="fill: none; stroke: #1f77b4; stroke-width: 1.5"/>
    <path d="M 342.23267 222.26149 
L 342.23267 215.001784 
" clip-path="url(#pf05f55448a)" style="fill: none; stroke: #1f77b4; stroke-width: 1.5"/>
    <path d="M 345.276307 219.361587 
L 345.276307 212.200295 
" clip-path="url(#pf05f55448a)" style="fill: none; stroke: #1f77b4; stroke-width: 1.5"/>
    <path d="M 348.319943 223.87268 
L 348.319943 216.153362 
" clip-path="url(#pf05f55448a)" style="fill: none; stroke: #1f77b4; stroke-width: 1.5"/>
    <path d="M 351.36358 225.143792 
L 351.36358 217.003473 
" clip-path="url(#pf05f55448a)" style="fill: none; stroke: #1f77b4; stroke-width: 1.5"/>
    <path d="M 354.407216 226.303431 
L 354.407216 217.961809 
" clip-path="url(#pf05f55448a)" style="fill: none; stroke: #1f77b4; stroke-width: 1.5"/>
    <path d="M 357.450852 217.372943 
L 357.450852 209.823693 
" clip-path="url(#pf05f55448a)" style="fill: none; stroke: #1f77b4; stroke-width: 1.5"/>
    <path d="M 360.494489 233.998126 
L 360.494489 224.369778 
" clip-path="url(#pf05f55448a)" style="fill: none; stroke: #1f77b4; stroke-width: 1.5"/>
    <path d="M 363.538125 223.522301 
L 363.538125 215.006947 
" clip-path="url(#pf05f55448a)" style="fill: none; stroke: #1f77b4; stroke-width: 1.5"/>
   </g>
  </g>
 </g>
 <defs>
  <clipPath id="pf05f55448a">
   <rect x="45.478125" y="22.318125" width="334.8" height="221.76"/>
  </clipPath>
 </defs>
</svg>
